<?xml version="1.0" encoding="utf-8"?>
<!-- Generator: Adobe Illustrator 26.3.1, SVG Export Plug-In . SVG Version: 6.00 Build 0)  -->
<svg version="1.1" xmlns="http://www.w3.org/2000/svg" xmlns:xlink="http://www.w3.org/1999/xlink" x="0px" y="0px"
	 viewBox="0 0 1984.25 1984.25" style="enable-background:new 0 0 1984.25 1984.25;" xml:space="preserve">
<style type="text/css">
	.st0{fill:#FFFFFF;}
	.st1{fill:#1B1439;}
	.st2{fill:#F5F0E2;}
	.st3{fill:#ED1E78;}
	.st4{fill:#FE3922;stroke:#000000;stroke-width:6.2938;stroke-miterlimit:10;}
	.st5{fill:#29597E;}
	.st6{fill:#D95F86;}
	.st7{fill:#D95F86;stroke:#000000;stroke-width:4.6468;stroke-miterlimit:10;}
	.st8{fill:none;stroke:#000000;stroke-width:9.3644;stroke-miterlimit:10;}
	.st9{fill:#ED1E78;stroke:#000000;stroke-width:9.3644;stroke-miterlimit:10;}
	.st10{fill:#FBAE16;stroke:#020202;stroke-width:9.3644;stroke-miterlimit:10;}
	.st11{fill:#F5F0E2;stroke:#000000;stroke-width:9.3644;stroke-miterlimit:10;}
	.st12{fill:#29597E;stroke:#000000;stroke-width:2.8238;stroke-miterlimit:10;}
	.st13{fill:#F9E819;}
	.st14{fill:#FBAE16;}
	.st15{fill:#020202;}
	.st16{fill:#FBAE16;stroke:#020202;stroke-width:4.8212;stroke-miterlimit:10;}
	.st17{fill:#ED1E78;stroke:#000000;stroke-width:4.8212;stroke-miterlimit:10;}
	.st18{fill:#FE3922;stroke:#000000;stroke-width:4.8212;stroke-miterlimit:10;}
	.st19{fill:none;stroke:#000000;stroke-width:4.8212;stroke-miterlimit:10;}
</style>
<g id="Layer_1">
</g>
<g id="Layer_3">
</g>
<g id="Layer_4">
</g>
<g id="Layer_5">
</g>
<g id="Layer_6">
</g>
<g id="Layer_7">
</g>
<g id="Layer_8">
</g>
<g id="Layer_2">
	<g>
		<path class="st0" d="M1010.31,814.68c-2.44,21.59-2.72,43.42-0.81,65.06c-0.82-4.02-4.17-7.41-8.19-8.27
			c-6.65,18.19-6.73,38.7-0.25,56.95c-1.45-5.52-4.31-10.67-8.22-14.82c-2.91,12.44-3.4,25.3-3.69,38.07
			c-1.14,51.47,0.88,103.02,6.06,154.24c59.1-4.17,118.85,1.1,176.3,15.55c8.68-52.24,17.39-104.96,14.89-157.86
			c-0.51-10.81-1.5-21.65-4.21-32.12c-2.45-9.46-6.28-18.5-9.01-27.88c-3.91-13.39-5.55-27.32-7.17-41.17
			c-2.5-21.28-5-42.66-4.26-64.07c0.14-4.12,0.08-8.95-3.24-11.39c-1.86-1.37-4.3-1.59-6.6-1.7c-23.92-1.18-48.12,3.84-69.59,14.45
			c-2.62,1.3-5.66,3.69-4.73,6.46"/>
		<path class="st0" d="M889.06,613.88c-3.61-0.05-7.01,2-9.34,4.76c-2.33,2.76-3.73,6.17-4.9,9.59
			c-6.76,19.88-6.32,42.13,1.22,61.73c0.92,2.39,2,4.83,3.96,6.48c2.63,2.22,6.3,2.6,9.73,2.77c6.04,0.3,12.1,0.23,18.13-0.21
			c1.06-0.08,2.15-0.17,3.09-0.67c3.54-1.87,2.35-7.08,1.38-10.96c-1.65-6.59-1.14-13.51-1.37-20.3c-0.4-11.79-3.06-23.37-5.7-34.87
			C903.42,624.19,898.94,614,889.06,613.88z"/>
		<path class="st0" d="M1282.19,617.57c-4.06-3.99-10.9-2.19-15.91,0.53c-2,1.08-4.04,2.39-5.01,4.44c-0.56,1.2-0.71,2.54-0.84,3.86
			c-2.21,21.71-4.41,43.41-6.62,65.12c-0.05,0.47-0.07,1.02,0.29,1.34c0.28,0.25,0.71,0.26,1.09,0.24
			c15.24-0.62,29.7-10.64,35.63-24.69c5.01-11.87,4.01-25.77-1.1-37.59c-1.33-3.07-2.95-6.06-5.26-8.47
			c-4.47-4.65-11.51-6.65-17.76-5.06"/>
		<path class="st0" d="M1048.2,504.88c-3.29,6.51-7.83,12.29-11.64,18.51c-4.98,8.14-8.68,16.98-13.17,25.4
			c-17.9,33.56-48.94,59.87-84.98,72.05c7.16,18.98,2.55,40.04,1.69,60.31c-0.35,8.37,0.06,17.18,4.33,24.39
			c3.2,5.41,8.35,9.46,14,12.22c15.7,7.65,34.23,5.57,51.43,2.55c10.86-1.91,21.76-4.16,31.91-8.47
			c14.5-6.17,26.88-16.29,39.42-25.83c15.99-12.17,32.55-23.59,49.6-34.2c12.66-7.88,25.65-15.35,39.48-20.92
			c8.46-3.41,17.22-6.11,25.43-10.11c8.66-4.23,16.57-9.84,24.42-15.43c1.63-1.16,3.36-2.44,4.04-4.32c1.57-4.32-3-8.22-6.92-10.62
			c-46.17-28.28-87.24-64.87-120.63-107.5c-6.69-8.54-13.17-17.55-16.37-28.03c-2.38-7.8-4.86-18.65-13.81-8.68
			c-6.35,7.07-7.66,19.35-9.47,28.3C1054.86,484.82,1052.99,495.37,1048.2,504.88z"/>
		<path class="st0" d="M995.4,698.65c-6.06-2.03-11.56-5.74-17.84-6.95c-6.05-1.17-12.28,0.08-18.31,1.32
			c-3.81,0.79-7.79,1.65-10.79,4.13c-3.6,2.98-5.14,7.77-5.87,12.39c-2.46,15.52,2.39,31.58,10.83,44.83
			c8.44,13.26,20.27,24.02,32.68,33.66c12.27,9.53,25.54,18.43,34.23,31.31c5.29,7.84,8.65,16.85,13.8,24.79
			c10.54,16.27,28.77,27.32,48.07,29.14c6.32,0.6,12.95,0.2,18.56-2.77c4.58-2.42,8.14-6.37,11.6-10.23
			c9.08-10.14,18.15-20.28,27.23-30.41c19.48-21.76,38.97-43.52,58.32-65.4c9.04-10.22,18.39-21.13,21.05-34.51
			c1.42-7.15,0.81-14.51,0.39-21.79c-1.32-22.79-0.7-45.69,1.83-68.38c0.74-6.63,1.65-13.26,3-19.79c0.93-4.48,2.05-9.18,0.63-13.53
			c-3.04-9.28-15.07-11.31-24.83-11.38c-32.92-0.24-66.77,3.89-95.71,19.58c-12.2,6.61-23.24,15.13-34.22,23.61
			c-6.38,4.92-12.87,9.96-17.38,16.64c-4.4,6.51-6.68,14.24-10.74,20.97C1032.26,691.94,1014.73,705.14,995.4,698.65z"/>
		<path class="st1" d="M866.17,792.93c-8.45,12.94-17.44,25.7-23.2,40.04c-5.75,14.34-8.03,30.74-2.66,45.23
			c14.29-2.27,28.57-4.54,42.86-6.81c6.76-1.07,13.52-2.15,20.28-3.22c24.32-3.86,48.65-7.73,72.97-11.59
			c7.69-1.22,15.39-2.44,23.08-3.67c2.79-0.44,5.79-1,7.72-3.06c2.04-2.19,2.29-5.45,2.43-8.44c0.43-9.07,0.85-18.13,1.28-27.2
			c0.1-2.09,0.19-4.24-0.53-6.2c-0.64-1.75-1.87-3.21-3.13-4.58c-12.04-13.1-28.56-21.24-41.4-33.55
			c-10.36-9.94-18.02-22.3-25.56-34.52c-4.44-7.19-10.73-24.59-20.34-25.45c-9.92-0.89-14.46,11.52-17.67,18.49
			C891.98,750.83,879.66,772.29,866.17,792.93z"/>
		<path class="st1" d="M916.59,674.84c-1.71,10.59-1.73,21.45-0.06,32.05c0.86,5.46,2.16,10.83,3.34,16.23
			c2.69,12.3,4.74,24.73,6.16,37.24"/>
		<path class="st1" d="M910.62,674.97c0.98,7.14,1.96,14.43,0.65,21.51c-0.93,5.04-2.99,9.81-3.99,14.83
			c-3.79,18.99,10.46,39.68,29.56,42.89c1.58,0.27,3.25,0.42,4.76-0.13c4.25-1.54,4.81-7.23,4.64-11.74
			c-1.41-36.78-2.82-73.56-4.23-110.34c-0.11-2.97-0.24-5.99-1.24-8.78c-3.59-10.07-29.78-21.87-36.49-10.55
			c-4.03,6.8,0.58,20.35,1.56,27.47C907.44,651.75,909.03,663.36,910.62,674.97z"/>
		<path class="st1" d="M951.58,386.03c-26.17,16.47-53.67,34.38-66.97,62.3c-10.49,22.02-10.68,47.55-7.9,71.79
			c3.49,30.48,11.36,60.46,23.28,88.74c2.1,4.99,4.33,9.92,6.56,14.85c3.66,8.11,7.33,16.22,10.99,24.34
			c3.78-0.27,7.1-3.57,7.4-7.35c1.87,1.67,4.99,0.7,6.66-1.18c1.66-1.87,2.39-4.38,3.56-6.59c3.13-5.9,9.24-9.46,14.83-13.12
			c19.58-12.83,35.77-30.14,50.96-47.95c11.63-13.64,22.89-27.83,30.67-43.98c2.83-5.88,5.19-11.98,7.54-18.07
			c4.71-12.2,9.41-24.4,14.12-36.6c4.9-12.71,9.8-25.41,14.27-38.28c3.37-9.72,6.53-19.72,6.58-30.01
			c0.14-25.05-22.68-51.4-48.29-53.1c-10.95-0.73-20.92,5.15-30.36,9.89C980.42,369.26,965.84,377.06,951.58,386.03z"/>
		<path class="st1" d="M1113.08,318.14c-6.29-0.15-12.56,0.63-18.75,1.75c-24.73,4.48-48.43,14.5-68.87,29.12
			c-11.67,8.35-22.83,19.11-25.91,33.12c-1.07,4.86-0.99,10.32,1.9,14.37c1.69,2.38,4.19,4.04,6.67,5.58
			c7.91,4.9,16.5,9.17,22.54,16.24c6.05,7.07,8.82,18.07,3.46,25.68c14.1-2.85,29.23-5.61,42.48,0.02
			c5.11,2.17,9.63,5.49,14.49,8.19c15.14,8.41,32.9,10.49,49.22,16.28c11.69,4.15,22.62,10.2,34.12,14.85
			c21.58,8.71,44.82,12.34,67.83,15.91c-0.57-5.37,5.9-8.26,9.71-12.1c4.87-4.92,5.61-12.67,4.33-19.48
			c-1.27-6.8-4.22-13.19-5.71-19.95c-1.65-7.46-1.49-15.19-2.55-22.75c-1.95-13.9-7.92-26.87-13.83-39.6
			c-5.89-12.7-12.47-26.18-24.59-33.2c-5.85-3.39-12.63-5.02-18.22-8.8c-3.33-2.25-6.2-5.25-9.87-6.89
			c-6.29-2.81-13.11-2.84-19.42-5.92c-4.62-2.26-8.58-4.52-13.61-5.77C1137.04,321.91,1124.91,318.43,1113.08,318.14z"/>
		<path class="st1" d="M1216.15,452.62c-0.74,21.47-1.45,43.23,3.41,64.16c2.39,10.31,6.07,21.38,1.84,31.08
			c-1.76,4.05-4.78,7.43-6.76,11.38c-1.99,3.95-2.77,9.05-0.1,12.56c1.69,2.22,4.43,3.38,6.42,5.33c4.54,4.44,4.34,11.86,7.76,17.21
			c3.97,6.19,11.82,8.36,18.98,10.05c1.56,0.37,3.28,0.73,4.72,0.02c0.96-0.47,1.65-1.34,2.31-2.19c3.5-4.53,6.96-9.22,8.9-14.61
			c1.58-4.4,2.08-9.11,2.5-13.77c1.52-17.04,2.03-34.18,1.52-51.28c-0.42-14.35-1.57-28.73-4.6-42.76
			c-3.77-17.45-10.45-34.26-19.7-49.52"/>
		<path class="st1" d="M1253.36,465.27c0.59-0.41,0.96-1.06,1.29-1.7c4.92-9.71,2.18-36.97-13.83-26.43
			C1226.98,446.24,1245.34,470.79,1253.36,465.27z"/>
		<path class="st1" d="M1181.09,460.54c-3.84-0.99-7.81-1.52-11.78-1.57"/>
		<path class="st1" d="M1023.97,506.26c-0.12,1.59,13.75-2.51,14.83-3.07c4.89-2.52,8.95-6.38,11.92-10.98
			c3.36-5.19,10.73-22.38,3.41-27.03c-5.51-3.5-14.85,4.34-18.18,7.95C1028.1,481.66,1024.83,494.99,1023.97,506.26z"/>
		<path class="st1" d="M1141.98,441.5c-13.1-4.2-26.69-6.88-40.4-7.99c-9.15-0.74-20.36,0.37-24.37,8.63
			c-1.71,9.92,1.11,20.19,5.92,29.03c4.81,8.84,11.52,16.47,18.17,24.03c9.48,10.78,18.97,21.55,28.45,32.33
			c6.03,6.85,12.16,13.79,19.8,18.77c14.5,9.45,34.04,10.66,49.54,2.94c15.49-7.72,26.31-24.14,27.15-41.43
			c0.38-7.83-1.14-15.63-3.07-23.23c-1.54-6.07-3.39-12.17-6.84-17.38c-6.16-9.3-16.67-14.73-27.14-18.56
			c-23.9-8.73-50.09-11.08-75.16-6.75"/>
		<path class="st1" d="M1248.75,532.17c-1.14-6.25-5.67-11.76-11.58-14.09c-6.84-2.69-14.54-1.17-21.72,0.45
			c-3.12,0.7-6.3,1.45-8.99,3.17c-6.44,4.13-8.53,12.77-14.47,17.59c-8.6,6.97-23.52,4.68-29.28,14.14
			c5.84,6.52,11.74,13.09,18.87,18.16c2.43,1.73,4.98,3.27,7.53,4.8c8.86,5.34,17.72,10.68,26.58,16.03
			c3.96,2.39,7.93,4.78,12.07,6.83c4.62,2.29,11.38,3.58,13.97-0.88c2.11-3.63-0.4-8.07-1.3-12.17
			c-2.19-10.04,5.65-19.27,8.31-29.19c0.63-2.33,0.93-4.97-0.33-7.04c-0.85-1.4-2.6-2.04-4.16-1.95
			C1248,543.77,1249.77,537.79,1248.75,532.17z"/>
		<path class="st1" d="M1232.38,585.15c0.75,0.13,0.65-1.33-0.11-1.41c-0.76-0.08-1.33,0.64-1.73,1.28
			c-7.76,12.57-6.36,28.44-7.7,43.15c-1.76,19.26-8.62,38.25-6.45,57.47c1.43,12.67,6.77,25.25,4.37,37.78
			c-1.93,10.08-8.61,18.5-15.08,26.47c-13.6,16.77-27.21,33.54-40.81,50.32c-1.56,1.92-3.15,3.91-3.78,6.3
			c-0.69,2.66-0.1,5.48,0.8,8.08c5.76,16.61,23.48,26.87,41,28.42c17.52,1.55,34.86-4.1,51.05-10.96
			c11.22-4.75,22.86-10.73,28.77-21.38c4.67-8.4,5.03-18.44,5.28-28.05c0.12-4.47,0.21-9.11-1.54-13.22
			c-1.82-4.29-5.43-7.52-8.11-11.33c-5.17-7.34-6.77-16.54-8.22-25.4c-2.05-12.49-4.11-24.98-6.16-37.46
			c-3.9,0.06-7.19-3.26-8.4-6.97s-0.8-7.72-0.38-11.59c2.86-26.15,5.71-52.3,8.57-78.44c0.34-3.14,0.67-6.41-0.38-9.4
			c-2.69-7.62-12.85-9.57-20.72-7.69c-7.86,1.88-15.16,6.26-23.24,6.64"/>
		<path class="st1" d="M1200.93,821.01c-7.79-2.54-16.31-5.08-23.98-2.21c-7.48,2.8-12.41,10.38-13.86,18.24
			c-1.46,7.85,0.06,15.95,2.27,23.63c0.47,1.65,1.03,3.36,2.27,4.54c1.54,1.46,3.8,1.79,5.9,2.07c19.11,2.53,38.02,6.54,56.52,11.97
			c25.45,7.47,50.43,17.71,76.85,19.95c1.99,0.17,4.1,0.27,5.88-0.64c1.1-0.57,1.99-1.48,2.8-2.42
			c9.65-11.13,11.93-27.18,9.45-41.71c-2.47-14.52-9.14-27.94-15.72-41.12c-5.22-10.46-10.62-21.16-19.18-29.12
			c-3.14-2.92-6.84-5.49-11.07-6.15c-11.01-1.71-19.16,9.28-27.4,16.79c-7.81,7.12-17.6,11.87-25.06,19.39
			c-2.47,2.49-5.75,10.2-8.7,11.42C1213.97,827.24,1204.79,822.27,1200.93,821.01z"/>
		<path class="st2" d="M1090.8,1109.8c-33.61-1.14-67.26-1.03-100.86,0.32c1.01,28.8,2.01,57.6,3.02,86.4
			c0.77,22.08,1.54,44.17,1.92,66.26c0.18,10.69,0.28,21.45,2.18,31.97c2.46,13.61,7.86,26.49,13.23,39.24
			c2.94,6.98,5.94,14.06,10.72,19.93c8.88,10.9,22.81,16.3,36.43,19.78c25.8,6.6,53.76,7.79,78.58-1.85
			c8.69-3.38,17.14-8.26,22.59-15.83c6.01-8.34,7.73-18.92,9.28-29.08c1.88-12.33,3.77-24.73,3.57-37.2
			c-0.31-19.69-5.81-39.3-3.58-58.86c1.35-11.85,5.53-23.41,5.31-35.33c-0.26-13.97-6.53-27.31-6.7-41.27
			c-0.14-11.04,3.04-23.78-4.45-31.89c-4.33-4.69-11.04-6.2-17.34-7.27c-18.01-3.04-36.31-4.4-54.57-4.05
			c-5.47,0.11-12.05,1.07-14.28,6.06"/>
		<path class="st2" d="M1135.36,1138.95c5.97,10.88,12.05,21.91,20.67,30.85c3.29,3.41,7.26,7.73,5.65,12.18
			c5.1-6.25,8.19-14.12,8.69-22.18c0.25-4.03-0.12-8.1,0.39-12.11c0.88-6.9,4.38-13.53,3.64-20.45c-0.1-0.95-0.32-1.96-1-2.63
			c-0.6-0.59-1.45-0.83-2.27-1.05c-11.77-3.11-24.72-6.13-35.73-0.93c-6.55,3.09-11.49,8.73-16.06,14.36"/>
		<path class="st2" d="M1105.37,1354.73c-26.06-23.08-56.82-40.83-89.84-51.86c-11.62,12.46-9.41,31.93-7.31,48.84
			c3.06,24.64,4.26,49.51,3.6,74.32c-0.35,13.18-1.23,26.37-0.84,39.55c0.41,13.96,2.24,27.88,1.97,41.85
			c-0.67,35.08-14.46,70.58-5.31,104.45c17.09,2.07,34.78-1.12,50.08-9.02c7.18-3.71,14.05-8.5,22.01-9.88
			c13.13-2.28,25.77,5.11,37.16,12.03c3.71,2.25,8.18,4.56,12.18,2.87c6.83-2.88,4.88-12.75,5.07-20.16
			c0.13-5.19,1.91-10.18,3.32-15.18c6.01-21.35,5.37-43.91,6.99-66.04c4.44-60.63,26.16-120.93,16.11-180.89
			c-0.6-3.57-1.53-7.48-4.5-9.57c-2.73-1.92-6.39-1.7-9.68-1.15c-25.3,4.2-47.18,24.48-53.28,49.39"/>
		<path class="st2" d="M894.44,1578.72c-6.79-1.84-13.74-3.69-20.76-3.21c-1.63,0.11-3.42,0.44-4.44,1.71
			c-0.74,0.92-0.93,2.16-1.09,3.33c-0.63,4.63-1.26,9.26-1.9,13.89c-2.01,14.73-4.02,29.47-5.88,44.22
			c38.97,1.51,78.06-0.24,116.73-5.24c10.79-1.39,22.24-3.18,31.51-9.28c6.53-4.3,14.81-13.5,3.02-15.5
			c-25.01-4.24-49.35-11.57-73.89-18.21C923.32,1586.53,908.88,1582.63,894.44,1578.72z"/>
		<path class="st2" d="M1095.15,1578.97c-16.06-4.57-32.7,3.63-47.39,11.57c-3.94,2.13-8.17,4.57-9.83,8.73
			c-0.7,1.75-0.89,3.7-1.76,5.37c-0.91,1.75-2.5,3.05-4.14,4.15c-4.55,3.07-9.85,5.03-15.3,5.66c-2.09,0.24-4.21,0.3-6.26,0.77
			c-3.86,0.9-7.2,3.21-10.58,5.28c-18.18,11.15-40.06,16.14-61.27,13.97c4.19,2.88,9.56,3.28,14.64,3.51
			c36.81,1.65,73.8-0.85,110.05-7.43c10.15-1.84,20.34-4.04,29.74-8.29c9.4-4.26,18.05-10.76,23.3-19.64
			c2.63-4.44,4.32-10.15,1.83-14.67c-2.46-4.48-8-6.1-13.01-7.09c-8.13-1.61-16.36-2.65-24.64-3.11"/>
		<path class="st2" d="M1120.45,1600.29c-11.6,0.24-22.12,6.36-32.6,11.33c-28.53,13.55-60.19,19.46-91.73,21.32
			c-1.46,0.09-3.33,0.52-3.49,1.98c22.01,4.18,44.4,6.32,66.8,6.38c7.49,0.02,14.97-0.19,22.45-0.4
			c14.67-0.42,29.35-0.83,44.02-1.25c15.22-0.43,30.6-0.88,45.33-4.75c2.32-0.61,5.12-1.95,5.02-4.35c-0.05-1.2-0.87-2.22-1.69-3.1
			c-7.48-8.17-17.9-13.74-28.84-15.44c-5.52-0.86-7.43,0.3-11.19-3.89C1130.15,1603.21,1127.71,1600.14,1120.45,1600.29z"/>
		<path class="st2" d="M1215.46,1629.71c-5.08-1.19-10.15-2.38-15.23-3.57c-12.38-2.9-25.41-5.8-37.65-2.33
			c-2.75,0.78-5.8,2.35-6.19,5.18c-0.28,2.07,1,3.99,2.23,5.68c-3.61,0.32-7.13,1.62-10.07,3.75c16.64,4.39,34.19,1.89,51.39,1.49
			c14.18-0.33,28.36,0.78,42.55,0.88c8.82,0.06,17.63-0.27,26.44-0.6c9.36-0.35,18.83-0.72,27.8-3.43c1.53-0.46,3.24-1.18,3.74-2.7
			c0.59-1.79-0.98-3.72-2.8-4.22c-1.82-0.5-3.75,0.02-5.57,0.55"/>
		<path class="st3" d="M863.14,999.32c-2.77-6.66-6.23-14-13.01-16.46c-4.54-1.65-9.57-0.68-14.24,0.54
			c-45.13,11.73-83.9,45.74-101.39,88.97c-7.27,17.97-11.03,37.73-8.08,56.89c2.94,19.16,13.1,37.63,29.29,48.3
			c10.81,7.12,23.64,10.5,36.4,12.71c9.76,1.7,19.78,2.78,29.56,1.16c14.86-2.46,28.26-11.13,38.16-22.49
			c6.49-7.44,11.59-15.98,16.49-24.56c14.38-25.16,27.42-51.07,40.44-76.96c3.29-6.54,6.67-13.46,6.31-20.77
			c-0.44-9.01-6.45-16.73-12.78-23.14c-17.86-18.07-40.7-31.17-65.31-37.46"/>
		<path class="st3" d="M773.65,1043.06c0.67-15.32,0.01-30.69-1.97-45.9c-1.28-9.86-3.82-20.75-12.14-26.19
			c-4.18-2.73-9.33-3.66-14.33-3.61c-12.08,0.13-23.4,5.56-34.19,10.99c-3.62,1.82-7.3,3.7-10.2,6.54
			c-2.77,2.72-4.69,6.17-6.56,9.57c-9.54,17.3-19.17,34.8-24.43,53.84c-3.97,14.35-5.37,29.28-5.97,44.15
			c-0.85,21.33-0.02,42.97,5.81,63.51c5.83,20.54,17.01,40.03,33.96,53c4.89,3.74,10.87,7.04,16.91,5.89
			c6.98-1.34,11.46-8.01,15.02-14.16c15.07-26.07,28.02-53.35,38.7-81.5"/>
		<path class="st3" d="M706.95,1000.54c-0.6-4.34-1.27-8.88-3.83-12.44s-7.63-5.73-11.46-3.59c-1.56,0.87-2.71,2.31-3.76,3.75
			c-15.09,20.59-19.22,46.97-22.91,72.23c-6.81,46.62-13.62,93.25-20.44,139.87c-3.75,25.67-6.89,54.15,7.88,75.48
			c5.98,8.63,15.02,15.53,25.39,17.18c7.83,1.25,15.88-0.53,23.19-3.6c20.5-8.61,35.36-26.56,53.45-39.5
			c18.08-12.94,44.39-20.26,61.69-6.29c20.94,16.91,48.2,25.8,75.08,24.47c11.24-0.56,23.17-3.25,30.87-11.46
			c9.57-10.2,9.96-25.62,13.3-39.2c6.39-25.92,24.8-47.29,33.51-72.53c13.24-38.34,2.65-80.79-12.87-118.26
			c-4.84-11.7-10.25-23.6-10.43-36.26c-0.17-12.16,4.51-23.8,9.11-35.06c8.92-21.83,18.33-44.38,35.52-60.53
			c4.76-4.48,10.15-8.49,13.54-14.08c3.39-5.58,4.23-13.44-0.17-18.27c-3.55-3.9-9.32-4.72-14.59-4.79
			c-9.81-0.14-19.56,1.45-29.23,3.07c-51.03,8.54-102.3,18.13-150.38,37.25c-48.08,19.12-93.25,48.52-123.64,90.4
			c-0.91,1.25-2.68-1.6-1.15-1.86"/>
		<path class="st3" d="M833.69,921.05c4.6-6.34,13.38-7.47,21.09-8.88c11.07-2.03,21.84-5.72,31.82-10.93
			c17.54-9.14,32.32-22.69,46.88-36.08c-4.57-3.34-10.76-3.11-16.39-2.57c-61.36,5.84-120.61,32.01-166.25,73.43
			c16.79,8.81,36.77,9.94,55.47,6.8c18.7-3.14,36.46-10.28,54.05-17.37"/>
		<path class="st3" d="M938.63,929.72c-36.95,29.43-56.85,78.91-50.56,125.72c2.01,14.94,6.91,30.22,17.87,40.57
			c7.39,6.97,16.93,11.16,25.09,17.21c8.16,6.05,15.32,15.26,14.27,25.37c-0.67,6.48-4.65,12.3-5.14,18.8
			c-0.26,3.38,0.78,7.26,3.8,8.81c2.99,1.53,6.59,0.21,9.68-1.12c7.09-3.06,14.26-6.16,20.36-10.9c6.1-4.74,11.09-11.37,12.24-19
			c0.76-5.06-0.19-10.22,0.01-15.33c0.23-5.59,1.87-11.12,4.74-15.93c1.33-2.24,2.96-4.4,3.44-6.96c0.38-2.01,0.01-4.08-0.43-6.08
			c-2.81-12.88-8.39-25.26-9.01-38.43c-0.79-16.68,6.47-33.03,5.22-49.68c-0.5-6.58-2.32-13.04-2.43-19.64
			c-0.11-6.5,1.44-12.9,2.79-19.26c5.35-25.33,7.46-51.34,6.29-77.19c-0.09-1.89-0.31-4.03-1.8-5.2c-2.31-1.81-5.61-0.01-7.94,1.78
			c-23.24,17.88-45.7,36.78-67.29,56.63"/>
		<path class="st3" d="M970.8,1041.75c-2.51,2.65-2.21,6.81-1.74,10.43c0.82,6.37,1.64,12.74,2.45,19.12
			c0.44,3.44,0.9,6.95,2.43,10.06s4.32,5.82,7.76,6.28c1.04,0.14,2.18,0.05,3.02-0.59c0.82-0.63,1.2-1.67,1.51-2.66
			c2.74-8.89,2.5-18.4,1.95-27.69c-0.33-5.6-0.77-11.26-2.41-16.63c-1.63-5.37-4.56-10.5-9.06-13.86c-0.17,0.66-0.33,1.32-0.5,1.97"
			/>
		<path class="st3" d="M876.13,1193.77c-47.43-11.61-97.04-14.28-145.45-7.81c-6.39,0.85-12.97,1.94-18.36,5.46
			c-5.2,3.39-8.78,8.69-12.77,13.46c-11.74,14.06-28.06,24.23-45.85,28.57c-1.68-1.13-3.64-1.85-5.65-2.08
			c0.6,4.41-4.18,7.34-7.27,10.54c-4.85,5.03-6.07,12.43-7.06,19.34c-2.06,14.36-4.12,28.71-6.19,43.07
			c-3,20.91-6.01,41.86-6.85,62.96c-2.03,51.1,8.66,101.85,10.12,152.97c0.27,9.3,0.69,19.72,7.49,26.06
			c7.56,7.05,19.89,5.7,29.05,0.91s16.61-12.36,25.63-17.42c16.21-9.09,35.9-9.26,54.37-7.15c26.59,3.04,52.69,10.33,77.01,21.52
			c7.52,3.46,15.03,7.34,23.21,8.56c9.7,1.45,19.51-0.95,29.02-3.32c20.42-5.11,41.3-10.41,58.83-22.07
			c11.06-7.36,20.47-17.07,31.88-23.86c14.49-8.62,33.63-14.2,38.86-30.22c2.78-8.53,0.6-17.75-0.6-26.64
			c-4.06-29.97,3.35-60.96-3.35-90.46c-3.23-14.19-9.66-27.68-11.05-42.17c-1.55-16.13,3.28-32.34,1.91-48.48
			c-2.39-28.14-23.65-51.9-48.69-64.95s-53.63-17.24-81.62-20.98"/>
		<path class="st3" d="M948.08,1131.26c-1.01-2.14-2.01-4.28-3.02-6.42c-17.33,12.1-29.24,31.68-32.01,52.64
			c-0.83,6.28-0.86,12.77,0.99,18.83c2.98,9.79,10.46,17.43,17.28,25.06c13.58,15.18,25.91,33.02,27.49,53.32
			c0.78,9.99-1.1,20.1,0.29,30.02c1.84,13.12,9.21,24.82,12.37,37.68c2.26,9.17,2.33,18.76,4.44,27.97
			c4,17.47,15.22,33.13,16.34,51.02c0.62,9.91-1.93,19.84-1.17,29.74c0.35,4.6,2.02,9.86,6.37,11.41c4.21,1.5,8.96-1.52,10.92-5.54
			s1.81-8.7,1.53-13.16c-1.03-16.11-3.39-32.19-2.9-48.33c0.39-12.96,2.62-25.98,0.81-38.82c-1.58-11.19-6.18-21.82-7.33-33.06
			c-0.73-7.09-0.06-14.24-0.2-21.37c-0.46-23.3-9.54-46.32-6.29-69.39c0.68-4.79,1.88-9.51,2.27-14.33
			c0.55-6.83-0.56-13.68-1.5-20.47c-3.92-28.28-5.08-56.94-3.45-85.45c0.2-3.58,0.34-7.54-1.9-10.34c-2.31-2.89-6.4-3.58-10.1-3.66
			c-16.07-0.37-32.13,7.08-42.24,19.58c-3.33,4.12-6.02,8.71-8.86,13.18"/>
		<path class="st3" d="M769.32,1498.02c-23.23-0.93-45.62,8.4-68.76,10.65c-9.91,0.96-19.98,0.63-29.72,2.69
			c-14.35,3.03-27.5,11.39-36.34,23.09c-1.7,2.25-3.27,4.68-3.95,7.42c-0.54,2.21-0.48,4.52-0.35,6.79
			c0.76,13.3,3.61,26.49,8.41,38.92c6.29,16.28,16.12,32.79,12.81,49.93c49.57-2.21,98.86-8.56,148.07-14.91
			c11.29-1.46,22.77-2.96,33.15-7.64c14.86-6.7,26.22-19.37,35.25-32.93c1.31-1.97,2.7-4.07,4.85-5.05c1.6-0.73,3.44-0.74,5.2-0.67
			c20.38,0.84,39.27,10.99,59.47,13.86c8.54,1.21,17.3,1.12,25.62,3.38c16.49,4.48,30.52,17.98,47.61,17.88
			c-2.01-4.25-2.23-9.1-2.41-13.79c-1.62-41.26-3.23-82.79,2.54-123.68c1.22-8.61,2.66-17.86-1.22-25.64
			c-5.65-11.33-20.39-14.9-32.98-13.52c-14.25,1.56-27.57,7.64-40.47,13.9c-29.34,14.24-58.05,29.88-85.32,47.8
			c-11,7.23-20.79,18.61-34.5,13.98C800.65,1505.17,786.11,1498.69,769.32,1498.02z"/>
		<path class="st3" d="M704.56,1604.49c1.02-1.76,3.01-2.91,5.04-2.91c0.36,1.79,0.72,3.57,1.07,5.36c0.07,0.34,0.13,0.74-0.09,1.01
			c-0.25,0.32-0.74,0.3-1.14,0.25c-13.6-1.62-27.09-4.18-40.33-7.66c1.48-0.85,3.57-0.36,4.52,1.06"/>
		<path class="st3" d="M791.02,1605.8c-19.91,7.25-41.7,7.26-62.26,12.4c-11.85,2.97-23.2,7.62-34.56,12.12
			c-8.04,3.19-16.4,6.37-25.05,6.05c-5.23-0.19-11.81-1.05-14.45,3.47c5.41-0.21,10.81-0.41,16.22-0.62
			c24.39-0.93,48.79-1.85,73.2-1.98c33.42-0.17,66.95,1.18,100.19-2.31c2.97-0.31,6.03-0.69,8.66-2.11
			c4.26-2.31,6.69-6.96,8.31-11.53c4.17-11.76,4.92-33.21-9.74-38.69c-4.87-1.82-9.98,0.62-14.53,2.31
			c-7.33,2.72-14.4,5.76-21.37,9.3C807.55,1598.33,799.56,1602.69,791.02,1605.8z"/>
		<path class="st3" d="M863.69,1584.48c0.25-0.26,0.5-0.51,0.75-0.77c-2.04,0.18-3.81,1.52-5.18,3.05
			c-1.25,1.39-2.29,3.05-2.61,4.89c-0.32,1.84,0.2,3.9,1.62,5.12s3.79,1.32,5.1-0.02c0.79-0.81,1.1-1.97,1.37-3.08
			c0.28-1.12,0.56-2.25,0.83-3.37c0.22-0.88,0.44-1.79,0.26-2.68c-0.17-0.89-0.86-1.74-1.76-1.81"/>
		<path class="st3" d="M848.74,1622.28c-9.15,0.29-16.71,7.22-25.58,9.51c-5.55,1.43-11.38,0.99-17.11,1.09
			c-5.73,0.1-11.75,0.87-16.36,4.28c-0.55,0.41-1.11,0.91-1.19,1.59c-0.19,1.51,1.85,2.14,3.37,2.18
			c7.82,0.23,15.64,0.01,23.43-0.67c2.77-0.24,5.55-0.54,8.32-0.35c2.54,0.17,5.04,0.74,7.57,0.86c3.3,0.15,6.59-0.46,9.87-0.87
			c4.38-0.55,8.8-0.74,13.21-0.57c3.22,0.12,7.01,0.2,8.98-2.35c1.73-2.24,1.17-5.43,0.53-8.18c-0.93-3.97-1.85-7.94-2.78-11.91
			c-0.07-0.32-0.15-0.64-0.35-0.9c-0.39-0.53-1.13-0.64-1.79-0.63c-1.53,0.02-3.03,0.47-4.48,0.96c-7.58,2.57-14.64,6.48-22.17,9.22
			c-6.15,2.24-12.58,3.68-19.1,4.27"/>
		<path class="st3" d="M1254.25,1019.68c-9.59,14.75-14.49,32.03-18.14,49.24c-8.26,38.96-10.76,79.14-7.41,118.82
			c2.49,29.53,9.09,60.55,29.53,82c27.68,29.06,73.28,32.59,112.6,24.54c14.49-2.96,29.14-7.45,40.53-16.88
			c11.39-9.42,18.49-22.91,25.31-36.02c20.97-40.34,42.58-84.62,34.13-129.29c-3.38-17.86-11.43-34.45-19.55-50.72
			c-8.65-17.33-18.7-36.52-35.45-47.35c-16.94-10.95-39.98-10.71-59.11-16.66C1319.7,985.86,1278.19,982.88,1254.25,1019.68z"/>
		<path class="st3" d="M1171.52,889.73c3.24,10.03,3.12,20.85,5.76,31.05c2.52,9.73,7.47,18.63,10.72,28.14
			c3.69,10.81,5.13,22.27,8.73,33.11c5.53,16.63,15.91,31.14,26.14,45.36c2.69,3.74,5.49,7.58,9.43,9.96
			c4.95,2.98,11.02,3.26,16.8,3.33c27.08,0.35,54.19-1.91,80.84-6.74c7.08-1.28,14.48-2.92,19.85-7.71
			c4.3-3.84,8.69-10.01,14.16-8.19c2.04,0.68,3.53,2.39,5.07,3.9c12.77,12.43,32.74,12.53,50.55,11.84c2.65-0.1,5.46-0.25,7.67-1.72
			c2.82-1.87,3.96-5.37,4.93-8.61c5.03-16.95,10.06-35.16,4.66-52c-4.12-12.84-13.82-23.08-24.07-31.84
			c-4.72-4.04-9.68-7.9-15.31-10.53c-5.27-2.46-10.98-3.77-16.58-5.33c-26.96-7.5-51.96-20.91-78.77-28.92
			c-24.89-7.44-50.86-10.17-75.92-16.93c-19.55-5.28-39.76-13.26-59.57-16.74C1161.66,869.79,1168.83,881.42,1171.52,889.73z"/>
		<path class="st3" d="M1293.03,1025.28c-22.5-12.16-44.81-24.67-66.93-37.52c-2.99-1.74-6.11-3.61-7.85-6.61
			c-1.58-2.74-1.78-6.02-2.31-9.13c-2.3-13.61-12.02-25.74-24.8-30.95c-1.99-0.81-4.13-1.47-6.25-1.14c-4.1,0.64-6.81,4.9-7.21,9.02
			c-0.39,4.13,0.96,8.19,2.09,12.18c7.14,25.07,6.16,51.64,5.12,77.69c-0.43,10.7-0.86,21.42-2.35,32.02
			c-1.39,9.87-3.7,19.58-5.3,29.42c-1.64,10.03-2.54,20.16-3.43,30.28c-2.95,33.2-5.9,66.57-3.71,99.83
			c0.73,11.15,2.1,22.46,6.63,32.67c4.54,10.21,12.68,19.29,23.35,22.62c10.05,3.13,20.9,0.9,31.2-1.26
			c41.95-8.79,84.23-15.97,126.72-21.53c15.49-2.02,31.57-4.03,44.81-12.32c2.17-1.36,4.3-2.94,5.67-5.1
			c1.68-2.67,2.04-5.93,2.36-9.07c1.82-18.05,3.65-36.1,5.14-54.18c2.98-36.04,4.23-74.3-12.93-106.13
			c-17.68-32.8-51.55-52.82-80.36-76.44c-12.25-10.04-24.82-21.45-40.52-23.53"/>
		<path class="st3" d="M1360.18,1248.25c2.8-1.35,4.9-4.06,5.49-7.11c-29.88-13.07-63.21-16.29-95.82-15.46
			c-13.76,0.35-27.84,1.47-40.39,7.11c-11.2,5.03-21.39,13.66-33.66,14.14c-3.64,0.14-7.76-0.77-9.66-3.87
			c-0.7-1.14-1.03-2.47-1.75-3.59c-2.78-4.29-9.99-2.97-12.95,1.19c-2.96,4.16-2.9,9.69-2.65,14.8c1.3,26.28,4.46,52.61,2.28,78.84
			c-1.47,17.7-5.36,35.09-8.58,52.55c-4.28,23.18-7.39,46.58-9.34,70.08c-0.68,8.19-1.18,16.64,1.43,24.44
			c4.42,13.17,17.25,22.15,30.74,25.5c13.48,3.35,27.65,1.93,41.41,0.01c21.54-3.02,42.92-7.26,63.98-12.7
			c37.75-9.74,77.37-25.56,97.55-58.91c0.96-1.59,1.91-3.26,3.36-4.43c3.49-2.83,8.53-1.95,13.03-2.09
			c12.77-0.38,23.76-10.45,28.53-22.31c4.77-11.85,4.38-25.14,2.67-37.8c-1.71-12.66-4.68-25.21-4.82-37.99
			c-0.2-17.69,5.02-35.03,5.72-52.71c0.7-17.68-4.58-37.46-19.81-46.45c-6.44-3.8-13.97-5.26-21.37-6.31
			c-17.5-2.5-35.28-3.13-52.91-1.86"/>
		<path class="st3" d="M1189.42,1487.07c-8.26-4.64-15.8-10.56-22.27-17.48c-3.77-4.03-8.73-8.85-13.91-6.93
			c-4.03,1.5-5.54,6.3-6.52,10.48c-1.17,4.99-2.35,9.98-3.52,14.96c-0.78,3.32-1.57,6.67-1.58,10.08c-0.01,3.41,0.76,6.8,0.67,10.21
			c-0.15,5.68-2.64,10.99-4.29,16.43c-2.49,8.22-3.07,16.88-3.64,25.45c-0.95,14.48-1.91,28.95-2.86,43.43
			c-0.43,6.59,0.01,14.78,5.99,17.59c2.93,1.38,6.34,0.93,9.57,0.79c7.92-0.36,15.92,1.31,23.04,4.78c4.42,2.16,8.49,4.99,13,6.93
			c11.16,4.8,23.87,3.73,35.92,2.24c27.5-3.38,55.04-8.47,82.7-6.77c12.15,0.75,24.25,2.8,36.41,2.3
			c14.61-0.61,30.21-5.86,37.99-18.23c5.81-9.25,6.28-20.96,4.48-31.73s-5.66-21.1-7.93-31.79c-2.81-13.24-3.23-27.15-8.61-39.56
			c-7.12-16.42-22.28-28.29-38.77-35.26c-16.49-6.97-34.42-9.63-52.13-12.23"/>
		<path class="st3" d="M1262.58,1598.1c-29.03,2.13-57.97,5.57-86.69,10.3c-7.8,1.29-15.74,2.67-23.58,1.64
			c-3.47-0.46-8-0.86-9.46,2.32c-1.36,2.96,1.49,6.16,4.38,7.65c6.18,3.17,13.42,3.25,20.36,3.26c10.83,0.01,21.66,0.03,32.5,0.04
			c2.39,0,5.06,0.12,6.7,1.86c1,1.05,1.42,2.53,2.3,3.67c2.12,2.73,6.13,2.84,9.58,2.71c30.41-1.13,60.82-2.26,91.23-3.38
			c0.24,1.18-0.08,2.47-0.86,3.4c8.3-2.69,16.36-6.12,24.05-10.24c3.63-1.94,7.28-4.13,9.71-7.46s3.36-8.06,1.24-11.58
			c-1.72-2.85-4.97-4.33-8.06-5.54c-20.02-7.79-41.9-10.72-63.26-8.48"/>
		<path class="st3" d="M1418.35,1576.71c-20.34-8.96-44.88-4.71-63.61,7.26c-6.42,4.1-12.56,9.41-15.06,16.61
			c-1.86,5.37-2.23,12.33-7.39,14.72c-2.05,0.95-4.42,0.87-6.63,1.35c-4.34,0.95-7.89,4.04-10.77,7.42c-2.04,2.4-3.9,5.05-6.5,6.84
			s-6.24,2.54-8.89,0.83c-1.08,1.99-1,4.56,0.22,6.46c28.63-3.1,57.26-6.21,85.88-9.31c13.74-1.49,27.6-3,40.76-7.22
			c13.16-4.22,25.75-11.39,34.17-22.36c0.71-0.92,1.41-1.96,1.37-3.12c-0.05-1.56-1.4-2.72-2.64-3.65
			c-17.59-13.14-38.39-21.93-60.07-25.38"/>
		<path class="st3" d="M1482.47,1607.69c-1.81-4.71-7.45-6.5-12.43-7.33c-14.36-2.4-29.22-1.76-43.31,1.89
			c-12.61,3.26-24.47,8.83-36.56,13.68c-26.74,10.72-54.89,17.95-83.49,21.43c5.32,3.69,12.34,3.4,18.8,2.95
			c24.57-1.69,49.14-3.47,73.71-5.24c5.86-0.42,11.72-0.85,17.58-1.27c21.79-1.57,43.58-3.15,65.38-4.72
			c4.96-11.31,6.37-24.14,4.01-36.26c-0.19-0.96-0.43-1.97-1.14-2.64c-0.84-0.79-2.11-0.89-3.26-0.91
			c-11.26-0.26-22.57,1.68-33.1,5.68c-1.69,0.64-3.44,1.4-4.54,2.84c-1.09,1.44-1.23,3.76,0.18,4.89"/>
		<path class="st3" d="M1425.81,1627.53c1.2-0.32,2.39-0.63,3.59-0.95c-12.42,0.49-24.74,2.36-37.03,4.23
			c-10.94,1.66-21.89,3.32-32.8,5.17c-0.2,0.03-0.41,0.07-0.56,0.21c-0.46,0.44,0.16,1.15,0.73,1.43c4.19,2.04,9.1,1.67,13.74,1.33
			c6.58-0.47,13.16-0.79,19.76-0.96c23.42-0.59,47.32,0.71,69.81-5.87c3.3-0.96,6.92-2.43,8.2-5.61c0.41-1.01,0.53-2.19,0.09-3.19
			c-0.56-1.28-1.9-2.03-3.18-2.6c-6.47-2.87-13.91-3.5-20.77-1.75"/>
		<path class="st3" d="M1482.07,1624.12c-2.05-1-4.47-0.74-6.73-0.44c-9.61,1.23-19.53,2.57-27.85,7.54
			c-1.75,1.04-3.45,2.26-5.43,2.73c-1.55,0.37-3.16,0.26-4.75,0.27c-9.34,0.03-18.3,4.02-27.64,4.34
			c8.43,1.95,17.23,0.09,25.88,0.09c3.82,0,7.64,0.37,11.46,0.17c3.15-0.17,6.28-0.72,9.43-0.84c5.62-0.21,11.22,0.95,16.83,0.78
			c1.63-0.05,3.33-0.24,4.67-1.17c0.9-0.63,1.57-1.54,2.11-2.5c1.66-2.94,2.28-6.37,2.31-9.74c0.01-1.27-0.13-2.7-1.11-3.52
			c-0.98-0.82-2.94-0.22-2.78,1.04"/>
		<path class="st3" d="M1393.71,1416.01c-0.06-1.93-2.03-3.36-3.96-3.5c-1.93-0.14-3.78,0.67-5.54,1.48
			c-11.57,5.35-22.87,11.79-31.7,20.98c-8.83,9.19-15.03,21.47-14.76,34.21c0.09,4.4,0.94,8.81,0.36,13.17
			c-1.39,10.43-10.52,18.37-12.79,28.64c-1.27,5.75-0.27,11.77,1.32,17.45c3.43,12.22,9.55,23.49,15.74,34.57
			c7.71,13.78,16.11,27.95,29.34,36.56c6.07,3.95,12.91,6.55,19.77,8.88c5.97,2.03,12.11,3.91,18.42,4.03
			c15.05,0.3,30.57-9.23,44.39-3.26c2.95,1.28,6.54-0.14,8.63-2.59c2.09-2.45,2.96-5.7,3.5-8.87c1.07-6.21,1.13-12.56,0.79-18.85
			c-0.78-14.81-3.69-29.42-6.59-43.97c-5.11-25.63-10.26-51.38-19.28-75.91c-5.45-14.8-12.79-29.71-25.54-39
			c-0.73-0.53-1.8-1.06-2.46-0.43s1.1,1.58,0.91,0.69"/>
		<path class="st3" d="M1416.54,1409.64c-1.82-2.22-5.28-2.46-7.91-1.3c-2.63,1.16-4.59,3.41-6.39,5.65
			c-6.73,8.39-12.39,17.64-16.78,27.45c-4.03,8.99-7.02,19.18-4.18,28.61c3.3,10.97,13.46,18.12,22.03,25.72
			c14.37,12.75,25.8,29.15,31.05,47.63c2.18,7.67,3.29,15.64,5.77,23.22c1.82,5.56,4.39,11.14,3.92,16.97
			c-0.32,3.92-2.03,7.77-1.43,11.65c0.69,4.47,4.39,8,8.55,9.77s8.78,2.07,13.29,2.35c1.75,0.11,3.66,0.18,5.08-0.84
			c1.27-0.91,1.86-2.48,2.38-3.96c1.45-4.14,3.11-8.64,6.87-10.9c1.08-0.65,2.31-1.1,3.21-1.98c1.55-1.52,1.74-3.9,1.84-6.07
			c1.15-25.06,2.3-50.13,3.45-75.19c0.27-5.96,0.52-12.11-1.56-17.7c-1.31-3.51-3.48-6.64-5.06-10.04
			c-2.09-4.49-3.12-9.39-3.92-14.27c-1.22-7.4-1.96-14.87-2.21-22.36c-0.43-12.62,0.04-26.64-8.33-36.09
			c-6.31-7.12-16.54-9.83-26-8.89s-18.32,5.06-26.57,9.79c-2.81,1.61-5.68,3.4-7.44,6.12c-1.76,2.73-2.06,6.66,0.16,9.03"/>
		<path class="st3" d="M1406.48,1282.41c-2.81,22.07-10.25,43.34-13.31,65.38c-3.4,24.52-1.23,49.8,6.28,73.39
			c3.89,12.19,10.2,24.98,21.99,29.96c9.06,3.83,19.36,2.19,29.19,2.57c1.88,0.07,3.81,0.21,5.57-0.44c1.29-0.48,2.4-1.35,3.44-2.24
			c3.42-2.93,6.56-6.41,8.07-10.65c0.89-2.51,1.18-5.18,1.46-7.83c1.35-12.7,2.71-25.41,3.08-38.17
			c0.35-11.89-0.16-23.84,1.29-35.66c0.68-5.57,1.8-11.09,2.2-16.68c0.45-6.29-0.02-12.62,0.08-18.93
			c0.12-7.07,0.95-14.14,0.41-21.18s-2.65-14.27-7.56-19.35c-4.77-4.95-11.78-7.35-18.65-7.47c-6.87-0.11-13.64,1.89-19.9,4.72
			c-5.82,2.63-11.41,6.06-15.61,10.87c-4.2,4.82-6.89,11.17-6.39,17.54"/>
		<path class="st3" d="M1418.44,1170.01c-0.09-1.17-0.17-2.34-0.26-3.51c-6.46-1.58-12.91,2.73-17.4,7.64
			c-11.75,12.86-16.57,30.94-16.12,48.35c0.45,17.41,5.72,34.34,12.04,50.57c3.8,9.76,8.63,20.08,17.89,24.98
			c6.43,3.4,14.48,3.55,21.04,0.4c2.22-1.07,4.29-2.49,6.67-3.12c2.38-0.62,5.28-0.2,6.69,1.81c0.84,1.2,1.02,2.72,1.16,4.18
			c0.5,4.96,1.01,9.93,1.51,14.89c0.17,1.71,0.44,3.59,1.75,4.69c2.21,1.84,5.5,0.22,7.86-1.4c4.7-3.23,9.76-7,10.94-12.57
			c0.86-4.06-0.55-8.37,0.44-12.4c0.56-2.29,1.86-4.33,2.74-6.52c1.34-3.34,1.69-6.98,2.02-10.56c1.39-14.83,2.78-29.66,4.17-44.49
			c1.92-20.46,3.81-41.33-0.71-61.38c-1.99-8.84-5.23-17.55-5.09-26.61c0.07-4.73,0.65-10.44-3.19-13.19
			c-1.57-1.12-3.56-1.43-5.48-1.53c-12.81-0.64-24.53,6.95-34.32,15.24c-9.09,7.69-17.47,16.33-23.94,26.33
			c-2.14,3.31-4.13,7.2-3.19,11.03"/>
		<path class="st3" d="M1421.08,974.71c-2.22-0.44-4.07,1.63-5.33,3.52c-8.93,13.44-14.54,29.07-16.19,45.12
			c-0.99,9.61-0.01,20.61,7.39,26.82c6.51,5.45,15.79,5.45,24.11,7.13c7.49,1.52,15.01,4.89,19.44,11.12
			c4.37,6.14,5.13,14.1,5.2,21.63c0.09,8.79-0.56,17.58-1.94,26.26c-1.16,7.35-2.85,14.63-3.25,22.06
			c-0.4,7.43,0.57,15.15,4.37,21.55c1.98,3.33,4.7,6.27,5.92,9.95c0.67,2.01,0.85,4.16,1.56,6.15c1.07,3,3.36,5.54,6.24,6.91
			c1.12,0.54,2.39,0.9,3.6,0.64c2.06-0.45,3.36-2.6,3.67-4.69c0.31-2.09-0.11-4.21-0.19-6.32c-0.23-6.64,2.96-12.86,4.46-19.33
			c1.2-5.14,1.32-10.47,1.44-15.75c0.4-17.31,0.8-34.63,1.19-51.94c0.2-8.72,0.38-17.59-1.98-25.99c-2.19-7.78-6.55-15.12-6.6-23.2
			c-0.03-4.98,1.6-10.03,0.44-14.88c-1.37-5.69-6.23-9.75-10.81-13.38c-0.55-0.44-1.35-0.88-1.89-0.43s0.73,1.32,0.68,0.62"/>
		<path class="st3" d="M1399.45,934.95c-6.69,1.18-13.17,4.36-17.46,9.63c-6.88,8.45-6.97,20.92-2.84,31
			c4.13,10.08,11.82,18.24,19.67,25.8c5.07,4.88,10.38,9.7,16.76,12.66c5.08,2.35,10.68,3.45,15.7,5.93
			c5.02,2.48,9.65,6.93,10.01,12.52c0.31,4.82-2.62,9.49-1.89,14.27c0.07,0.44,0.17,0.89,0.48,1.22c0.49,0.52,1.29,0.53,2,0.47
			c5.89-0.48,11.58-3.09,15.79-7.24c2.2-2.17,3.98-4.73,5.55-7.39c8.16-13.83,10.58-30.93,6.56-46.48
			c-1.12-4.35-2.78-8.68-5.72-12.09c-1.45-1.68-3.17-3.1-4.73-4.67c-9.63-9.71-13.41-23.71-25.8-30.93
			C1424.56,934.42,1409.28,933.21,1399.45,934.95z"/>
		<g>
			<g>
				<g>
					<path d="M937.99,624.91c15.96-4.42,29.66-14.51,42.07-25.14c11.4-9.77,21.77-20.71,31.08-32.48c9.5-12,17.95-24.79,25.38-38.17
						c7.45-13.43,13.87-27.42,19.45-41.73c5.52-14.17,10.16-28.67,14.02-43.38c0.47-1.81,0.94-3.61,1.39-5.43
						c0.46-1.85-0.6-3.82-2.46-4.34c-1.81-0.5-3.87,0.61-4.34,2.46c-3.63,14.55-7.99,28.91-13.19,42.97
						c-5.17,13.96-11.05,27.3-18.09,40.6c-6.96,13.15-14.87,25.81-23.81,37.71c-4.17,5.55-8.95,11.34-13.82,16.72
						c-4.97,5.49-10.19,10.75-15.67,15.73c-5.56,5.06-11.32,9.85-17.37,14.18c-6.44,4.61-13.45,8.87-20.74,11.62
						c-1.89,0.71-3.82,1.33-5.76,1.87C931.75,619.33,933.6,626.13,937.99,624.91L937.99,624.91z"/>
				</g>
			</g>
			<g>
				<g>
					<path d="M1066.19,599.54c0.67,5.92,1.31,11.86,1.58,17.81c0.14,2.97,0.18,5.95,0.09,8.92c-0.08,2.69-0.31,5.95-0.65,8.24
						c-0.83,5.6-2.36,11.23-4.84,16.07c-1.39,2.71-3.26,5.24-4.1,8.21c-0.93,3.27-0.29,6.58,1.28,9.53c1.49,2.82,3.78,5.36,6.03,7.6
						c2.52,2.51,5.7,4.64,9.4,4.46c1.9-0.09,3.53-1.55,3.53-3.53c0-1.84-1.61-3.62-3.53-3.53c-0.01,0-1.22-0.03-0.54,0.05
						c-0.24-0.03-0.48-0.11-0.71-0.17c-1.02-0.25,0.19,0.14-0.35-0.13c-0.28-0.14-0.55-0.3-0.82-0.46
						c-0.81-0.51-1.66-1.33-2.54-2.25c-1.86-1.94-3.35-3.61-4.56-5.96c-0.01-0.02-0.26-0.61-0.11-0.23c-0.12-0.3-0.21-0.61-0.3-0.92
						c-0.08-0.31-0.17-0.62-0.2-0.94c0.05,0.49,0.02-0.17,0.03-0.22c0.07-1.04,0.32-2.02,0.86-3.06c1.24-2.41,2.71-4.67,3.82-7.16
						c4.67-10.44,5.75-21.94,5.34-33.26c-0.23-6.39-0.91-12.75-1.63-19.09c-0.22-1.89-1.47-3.53-3.53-3.53
						C1067.97,596.01,1065.97,597.63,1066.19,599.54L1066.19,599.54z"/>
				</g>
			</g>
			<g>
				<g>
					<path d="M1051.31,728.21c1.52,5.08,6.37,7.71,11.05,9.37c3.9,1.38,8.16,1.98,12.29,1.87c8.55-0.22,16.82-3.3,23.51-8.6
						c3.64-2.88,6.71-6.53,8.88-10.64c0.89-1.68,0.43-3.83-1.26-4.82c-1.59-0.93-3.93-0.42-4.82,1.26
						c-1.79,3.38-3.37,5.37-6.26,7.94c-0.29,0.26-0.58,0.51-0.88,0.75c-0.17,0.14-0.34,0.28-0.51,0.42
						c0.45-0.36,0.01-0.01-0.07,0.05c-0.76,0.56-1.52,1.09-2.32,1.59c-1.54,0.97-3.17,1.83-4.84,2.54c0.55-0.23-0.39,0.15-0.54,0.21
						c-0.41,0.16-0.83,0.31-1.25,0.45c-0.89,0.3-1.79,0.57-2.71,0.81c-0.8,0.21-1.62,0.38-2.43,0.53c-0.44,0.08-0.87,0.15-1.31,0.22
						c-0.57,0.08,0.52-0.06-0.05,0c-0.27,0.03-0.55,0.06-0.82,0.09c-1.76,0.16-3.52,0.19-5.28,0.08c-0.44-0.03-0.88-0.06-1.31-0.11
						c-0.22-0.02-0.44-0.05-0.66-0.08c0.15,0.02,0.65,0.11-0.04-0.01c-0.92-0.16-1.84-0.33-2.75-0.56
						c-0.96-0.24-1.91-0.53-2.84-0.87c-0.16-0.06-0.31-0.11-0.47-0.17c-0.04-0.01-1.03-0.42-0.39-0.14
						c-0.49-0.21-0.97-0.43-1.44-0.68c-0.96-0.49-1.88-1.07-2.37-1.52c-0.18-0.16-0.35-0.33-0.52-0.51
						c-0.11-0.12-0.5-0.64-0.24-0.26c-0.14-0.2-0.25-0.4-0.37-0.61c-0.33-0.58,0.04,0.21-0.18-0.5c-0.55-1.82-2.47-2.97-4.34-2.46
						C1051.97,724.37,1050.76,726.38,1051.31,728.21L1051.31,728.21z"/>
				</g>
			</g>
			<g>
				<g>
					<path d="M1144.42,583.6c-2.84,7.36-2.82,15.9,0.08,23.24c0.53,1.34,1.42,2.32,2.93,2.53c1.27,0.17,2.94-0.42,3.51-1.68
						c2.99-6.6,2.85-14.13-0.7-20.5c-0.9-1.61-3.25-2.28-4.82-1.26c-1.63,1.05-2.22,3.1-1.26,4.82c0.17,0.3,0.33,0.6,0.49,0.91
						c0.01,0.02,0.45,1.01,0.21,0.42c0.26,0.64,0.48,1.3,0.66,1.96c0.17,0.61,0.26,1.24,0.41,1.85c0.04,0.25,0.04,0.23,0-0.08
						c0.02,0.17,0.04,0.34,0.06,0.51c0.03,0.34,0.06,0.69,0.07,1.03c0.03,0.63,0.02,1.27-0.02,1.9c-0.02,0.34-0.05,0.69-0.09,1.03
						c0.07-0.7-0.07,0.38-0.08,0.43c-0.13,0.68-0.29,1.35-0.5,2.01c-0.08,0.27-0.18,0.55-0.27,0.82c-0.06,0.16-0.12,0.32-0.18,0.48
						c0.14-0.31,0.12-0.27-0.05,0.11c2.15,0.28,4.3,0.56,6.44,0.84c-2.59-6.56-2.62-12.91-0.08-19.49c0.67-1.72-0.73-3.94-2.46-4.34
						C1146.74,580.68,1145.13,581.76,1144.42,583.6L1144.42,583.6z"/>
				</g>
			</g>
			<g>
				<g>
					<path d="M1007.38,592.94c-1.24,7.99-0.18,15.89,3.16,23.26c0.57,1.26,2.26,1.85,3.51,1.68c1.42-0.19,2.48-1.17,2.93-2.53
						c2.31-7.01,1.22-15.1-2.9-21.23c-0.85-1.26-2.44-2.12-3.98-1.62c-1.37,0.44-2.75,1.83-2.59,3.4c0.6,5.78,2.19,11.27,4.86,16.44
						c0.85,1.64,3.28,2.26,4.82,1.26c1.67-1.08,2.17-3.07,1.26-4.82c-0.28-0.54-0.55-1.09-0.81-1.64c-0.13-0.28-0.25-0.56-0.38-0.84
						c-0.1-0.22-0.1-0.22,0,0c-0.05-0.11-0.09-0.23-0.14-0.34c-0.44-1.14-0.86-2.29-1.21-3.46c-0.33-1.11-0.62-2.24-0.85-3.38
						c-0.12-0.6-0.23-1.2-0.33-1.8c-0.03-0.18-0.12-0.82-0.06-0.33c-0.05-0.36-0.09-0.73-0.12-1.09c-2.19,0.59-4.38,1.19-6.57,1.78
						c0.43,0.64,0.83,1.29,1.18,1.97c0.2,0.39,0.39,0.78,0.57,1.18c-0.25-0.56,0.09,0.22,0.14,0.37c0.54,1.43,0.93,2.93,1.14,4.44
						c-0.1-0.74,0.01,0.21,0.02,0.37c0.04,0.44,0.06,0.87,0.07,1.31c0.02,0.77-0.01,1.53-0.07,2.29c-0.01,0.07-0.14,1.13-0.03,0.37
						c-0.07,0.43-0.14,0.86-0.23,1.29c-0.16,0.75-0.37,1.48-0.61,2.21c2.15-0.28,4.3-0.56,6.44-0.84c-0.1-0.22-0.2-0.44-0.3-0.66
						c0.12,0.29,0.1,0.23-0.06-0.16c-0.13-0.34-0.26-0.68-0.39-1.02c-0.29-0.8-0.55-1.6-0.78-2.42c-0.23-0.81-0.43-1.64-0.61-2.46
						c-0.07-0.35-0.14-0.71-0.21-1.07c-0.04-0.24-0.08-0.48-0.12-0.72c-0.06-0.4-0.07-0.48-0.04-0.25c0.03,0.21-0.09-0.8-0.11-0.97
						c-0.03-0.36-0.06-0.72-0.09-1.08c-0.06-0.84-0.08-1.69-0.08-2.54c0-0.85,0.04-1.69,0.1-2.54c0.03-0.36,0.06-0.72,0.1-1.08
						c0.03-0.24,0.05-0.48,0.08-0.72c-0.04,0.34-0.03,0.29,0.03-0.14c0.28-1.81-0.46-3.88-2.46-4.34
						C1010.03,590.09,1007.68,590.99,1007.38,592.94L1007.38,592.94z"/>
				</g>
			</g>
			<g>
				<g>
					<path d="M1070.64,440.91c0.31,14.41,6.91,27.57,15.24,39c8.53,11.7,18.5,22.43,28.52,32.85
						c10.12,10.51,20.69,20.57,31.69,30.16c11.06,9.64,22.54,18.8,34.38,27.46c11.72,8.57,23.8,16.63,36.22,24.15
						c1.55,0.94,3.11,1.87,4.67,2.79c1.64,0.97,3.87,0.37,4.82-1.26c0.97-1.66,0.38-3.85-1.26-4.82
						c-24.52-14.5-47.75-31.03-69.38-49.46c-10.94-9.32-21.48-19.1-31.58-29.32c-9.9-10.02-19.61-20.39-28.4-31.41
						c-9.21-11.54-17.54-25.23-17.86-40.13c-0.04-1.9-1.59-3.53-3.53-3.53C1072.29,437.38,1070.6,438.99,1070.64,440.91
						L1070.64,440.91z"/>
				</g>
			</g>
			<g>
				<g>
					<path d="M985.51,561.16c11.85-5.57,25.47-11.58,38.27-6.87c1.79,0.66,3.86-0.74,4.34-2.46c0.54-1.97-0.67-3.68-2.46-4.34
						c-14.76-5.44-30.38,1.32-43.71,7.58c-1.72,0.81-2.16,3.29-1.26,4.82C981.72,561.66,983.78,561.97,985.51,561.16L985.51,561.16z
						"/>
				</g>
			</g>
			<g>
				<g>
					<path d="M1125.96,549.67c10.34-4.47,22.22-5.06,33.02-1.99c4.37,1.24,6.24-5.56,1.87-6.8c-12.75-3.62-26.32-2.54-38.45,2.7
						c-1.75,0.76-2.14,3.32-1.26,4.82C1122.19,550.21,1124.21,550.43,1125.96,549.67L1125.96,549.67z"/>
				</g>
			</g>
			<g>
				<g>
					<path d="M1014.69,352.53c-20.28,7-39.84,16.13-58.19,27.24c-18.2,11.02-35.65,23.93-50.89,38.82
						c-7.52,7.35-14.46,15.48-19.73,24.61c-5.31,9.21-8.75,19.42-10.44,29.9c-3.49,21.59-0.53,43.53,3.43,64.84
						c4.05,21.81,8.94,43.74,18.74,63.79c1.19,2.43,2.46,4.83,3.8,7.19c0.94,1.65,3.2,2.22,4.82,1.26c1.66-0.97,2.21-3.16,1.26-4.82
						c-10.69-18.83-16.07-40.02-20.26-61.13c-4.07-20.5-7.67-41.26-5.84-62.28c0.84-9.64,3.14-19.84,7.23-28.73
						c4.27-9.29,10.25-17.36,17.17-24.75c7.07-7.55,14.93-14.37,23-20.83c7.99-6.4,16.46-12.43,25.16-17.98
						c17.41-11.12,35.99-20.47,55.23-27.67c2.45-0.92,4.91-1.8,7.39-2.65c1.8-0.62,2.99-2.42,2.46-4.34
						C1018.55,353.24,1016.5,351.9,1014.69,352.53L1014.69,352.53z"/>
				</g>
			</g>
			<g>
				<g>
					<path d="M898.37,615.52c-2.51-4.16-7.38-5.81-12.04-5.12c-4.63,0.69-8.37,3.96-11.14,7.54c-5.78,7.47-8.53,16.64-9.63,25.91
						c-1.1,9.28-0.66,18.98,1.02,28.17c1.65,9.01,5.45,18.02,12.56,24.07c3.74,3.18,8.19,5.63,13.08,6.4
						c5.96,0.94,11.81-0.64,17.78-0.34c1.9,0.1,3.53-1.69,3.53-3.53c0-1.99-1.62-3.43-3.53-3.53c-4.76-0.24-9.46,0.86-14.22,0.7
						c-0.47-0.02-0.95-0.05-1.42-0.09c-0.9-0.07-0.48-0.05-0.27-0.02c-0.24-0.03-0.49-0.08-0.73-0.13c-0.9-0.17-1.8-0.41-2.67-0.7
						c-0.41-0.13-0.81-0.28-1.21-0.44c0.46,0.18-0.55-0.25-0.67-0.31c-0.89-0.43-1.74-0.92-2.57-1.45c-2.62-1.69-5.32-4.45-7.04-7
						c-2.28-3.38-3.72-6.92-4.78-10.82c-2.16-7.96-2.63-16.45-2.31-24.78c0.16-4.15,0.53-7.58,1.42-11.56
						c0.86-3.87,2.07-7.5,3.78-10.82c0.94-1.82,2.33-4.09,3.37-5.42c0.65-0.83,1.37-1.62,2.14-2.35c0.8-0.76,1.21-1.09,2.25-1.69
						c0.82-0.47,1.2-0.65,2.29-0.88c0.09-0.02,0.78-0.12,0.36-0.07c-0.41,0.05,0.56-0.01,0.54-0.01c0.21,0,1.4,0.09,0.75-0.01
						c0.45,0.07,0.87,0.21,1.3,0.31c0.1,0.02,0.64,0.24,0.09,0c0.2,0.09,0.4,0.19,0.59,0.3c0.19,0.11,0.37,0.22,0.55,0.34
						c-0.41-0.27-0.01,0.01,0.17,0.17c0.12,0.11,0.23,0.23,0.34,0.35c-0.42-0.46,0.16,0.26,0.22,0.35c0.98,1.63,3.16,2.24,4.82,1.26
						C898.74,619.39,899.36,617.15,898.37,615.52L898.37,615.52z"/>
				</g>
			</g>
			<g>
				<g>
					<path d="M1267.94,621.43c2.17-2.37,4.94-3.47,8.08-3.34c0.18,0.01,1.2,0.13,0.69,0.04c0.42,0.07,0.83,0.16,1.24,0.27
						c0.41,0.11,0.81,0.25,1.21,0.4c-0.54-0.21,0.45,0.22,0.65,0.33c0.33,0.18,0.65,0.37,0.97,0.57c0.16,0.1,0.95,0.68,0.45,0.28
						c0.62,0.49,1.19,1.04,1.72,1.63c0.25,0.27,0.49,0.56,0.72,0.85c-0.39-0.5,0.2,0.3,0.3,0.45c0.46,0.68,0.87,1.38,1.25,2.11
						c0.18,0.34,0.35,0.69,0.51,1.04c0.04,0.08,0.32,0.71,0.16,0.35c-0.14-0.33,0.07,0.18,0.08,0.2c0.33,0.85,0.63,1.71,0.9,2.58
						c0.49,1.6,0.86,3.24,1.17,4.88c0.15,0.79,0.27,1.58,0.39,2.38c0.06,0.42,0-0.02-0.01-0.09c0.03,0.22,0.06,0.45,0.08,0.67
						c0.06,0.47,0.11,0.94,0.15,1.41c0.4,3.98,0.65,7.99,0.61,11.99c-0.04,4.1-0.34,7.7-1.16,11.51
						c-1.64,7.62-5.05,13.9-10.82,19.11c-3.03,2.73-6.53,5.02-10.31,7.14c-3.84,2.16-7.83,4.05-11.83,5.92
						c-1.72,0.81-2.16,3.29-1.26,4.82c1.03,1.77,3.09,2.08,4.82,1.26c7.86-3.68,15.7-7.52,22.38-13.14
						c6.76-5.69,11.39-13.3,13.5-21.87c2.15-8.73,2.02-17.87,1.12-26.76c-0.77-7.6-2.37-15.65-7.54-21.57
						c-6.48-7.41-18.47-7.77-25.18-0.42c-1.28,1.41-1.39,3.6,0,4.99C1264.26,622.73,1266.65,622.84,1267.94,621.43L1267.94,621.43z"
						/>
				</g>
			</g>
			<g>
				<g>
					<path d="M847.83,880.64c-3.43-4.74-5.31-9.42-6.35-15.21c-0.41-2.28-0.62-5.1-0.61-7.89c0.01-1.43,0.07-2.86,0.19-4.29
						c0.14-1.72,0.26-2.64,0.51-4.13c2.08-12.39,7.73-22.92,14.66-33.38c7.3-11,15.53-21.35,22.44-32.62
						c7.11-11.58,13.22-23.75,18.76-36.15c6.31-14.11,11.93-28.51,17.52-42.92c0.69-1.78-0.76-3.87-2.46-4.34
						c-1.99-0.55-3.64,0.68-4.34,2.46c-9.9,25.48-19.89,51.1-33.93,74.65c-6.94,11.65-15.27,22.3-22.86,33.51
						c-7.15,10.55-13.57,21.96-16.17,34.57c-2.74,13.3-1.64,28,6.54,39.28c1.12,1.54,3.07,2.29,4.82,1.26
						C848.09,884.57,848.95,882.19,847.83,880.64L847.83,880.64z"/>
				</g>
			</g>
			<g>
				<g>
					<path d="M1008.11,812.27c-2.29,1.83-2.35,4.93-2.28,7.6c0.08,2.91,0.16,5.82,0.24,8.73c0.16,5.91,0.33,11.81,0.49,17.72
						c0.33,11.81,0.65,23.62,0.98,35.43c0.18,6.65,0.37,13.31,0.55,19.96c0.05,1.9,1.58,3.53,3.53,3.53c1.87,0,3.58-1.61,3.53-3.53
						c-0.63-22.79-1.26-45.58-1.88-68.37c-0.09-3.16-0.17-6.32-0.26-9.48c-0.05-1.66-0.11-3.33-0.14-4.99
						c0-0.24-0.01-0.47-0.01-0.71c0-0.15,0.13-1.12,0-0.48c0.05-0.22,0.1-0.45,0.18-0.66c-0.1,0.25-0.45,0.65,0.06,0.24
						c1.49-1.19,1.24-3.74,0-4.99C1011.63,810.8,1009.6,811.07,1008.11,812.27L1008.11,812.27z"/>
				</g>
			</g>
			<g>
				<g>
					<path d="M1170.82,798.15c-0.95-1.67-2.87-2.58-4.77-2.02c-1.81,0.53-3.04,2.11-3.68,3.81c-0.54,1.45-0.38,3.03-0.36,4.55
						c0.02,1.83,0.04,3.65,0.07,5.48c0.08,6.81,0.16,13.62,0.25,20.43c0.17,13.68,0.14,27.38,0.56,41.05
						c0.24,7.7,0.85,15.42,2.47,22.96c0.4,1.86,2.58,2.95,4.34,2.46c1.93-0.53,2.86-2.47,2.46-4.34
						c-2.51-11.72-2.31-23.81-2.46-35.73c-0.15-12.46-0.3-24.91-0.45-37.37c-0.04-3.4-0.08-6.81-0.12-10.21
						c-0.02-1.74-0.04-3.49-0.06-5.23c0-0.33-0.01-0.66-0.01-1s-0.01-0.66-0.01-1c-0.02,0.13-0.04,0.25-0.06,0.38
						c0.59-0.61-0.42,0.18,0.06-0.11c0.14-0.22,0.1-0.17-0.12,0.15c-0.43,0.38-0.95,0.59-1.56,0.62c-0.59-0.16-1.19-0.32-1.78-0.48
						c-0.28-0.28-0.56-0.56-0.84-0.84c0.94,1.65,3.19,2.22,4.82,1.26C1171.22,802,1171.77,799.81,1170.82,798.15L1170.82,798.15z"/>
				</g>
			</g>
			<g>
				<g>
					<path d="M1020.06,358.69c20.22-18.11,46.44-29.63,73.23-32.77c13.74-1.61,27.73-1.16,41.18,1.55
						c8.13,1.64,16.1,3.99,23.96,6.63c7.27,2.45,14.53,5.05,21.6,8.04c6.81,2.88,13.47,6.23,19.6,10.39
						c5.95,4.04,11.16,9.01,15.72,14.57c9.43,11.49,16.21,25.27,22.34,38.73c12.89,28.3,21.48,58.74,25.31,89.59
						c1.96,15.78,2.7,31.69,2.23,47.58c-0.5,17.12-2.29,34.18-4.33,51.18c-0.5,4.18-1.02,8.36-1.53,12.55
						c-0.23,1.89,1.79,3.53,3.53,3.53c2.1,0,3.29-1.63,3.53-3.53c2.16-17.46,4.31-34.94,5.36-52.51
						c0.98-16.54,0.83-33.12-0.73-49.62c-3.01-31.96-10.8-63.42-23.22-93.03c-5.99-14.29-12.72-28.61-21.49-41.43
						c-4.31-6.3-9.2-12.28-14.94-17.34c-5.83-5.14-12.43-9.35-19.36-12.84c-6.99-3.52-14.29-6.39-21.63-9.08
						c-7.76-2.84-15.58-5.53-23.55-7.7c-14.53-3.96-29.54-5.84-44.6-5.07c-28.34,1.46-56.31,11.41-78.86,28.71
						c-2.86,2.2-5.65,4.48-8.33,6.89c-1.42,1.27-1.29,3.69,0,4.99C1016.49,360.1,1018.64,359.96,1020.06,358.69L1020.06,358.69z"/>
				</g>
			</g>
			<g>
				<g>
					<path d="M1261.18,696.52c1.05,15.03,3.75,29.95,8.13,44.37c4.33,14.25,10.36,27.87,17.56,40.89
						c7.07,12.77,14.95,25.09,21.53,38.14c3.13,6.22,5.95,12.52,8.11,19.13c2,6.1,3.59,12.92,4.27,18.88
						c0.41,3.6,0.6,7.23,0.52,10.85c-0.03,1.73-0.13,3.45-0.29,5.17c-0.18,1.93-0.32,2.97-0.68,4.93
						c-1.32,7.23-3.69,13.47-7.65,19.55c-1.04,1.6-0.32,3.9,1.26,4.82c1.71,1,3.78,0.33,4.82-1.26c15.38-23.62,10.11-54.1-0.8-78.32
						c-6.06-13.46-13.89-26-21.24-38.76c-7.35-12.77-13.92-25.84-18.67-39.81c-5.35-15.73-8.69-32.08-9.84-48.58
						c-0.13-1.9-1.53-3.53-3.53-3.53C1262.9,692.99,1261.05,694.61,1261.18,696.52L1261.18,696.52z"/>
				</g>
			</g>
			<g>
				<g>
					<path d="M1258.12,607.76c-2.48,29.27-2.59,58.69-5.19,87.96c-2.29,25.83-6.75,51.85-16.4,76.28
						c-5.11,12.94-12.03,25.66-20.56,36.92c2.15,0.91,4.3,1.81,6.44,2.72c3.75-13.3,4.09-27.25,3.46-40.97
						c-0.64-13.86-1.84-27.69-2.38-41.56c-1.11-28.47-0.77-57.01,1.02-85.45c0.5-7.89,1.1-15.77,1.82-23.65
						c0.36-3.94,0.75-7.87,1.16-11.8c0.21-1.97,0.42-3.93,0.64-5.89c0.12-1.06,0.24-2.13,0.37-3.19c0.05-0.41,0.1-0.82,0.14-1.23
						c0.04-0.33,0.08-0.65,0.12-0.98c0.06-0.59,0.07-0.65,0.04-0.21c-0.3,0.52-0.6,1.04-0.91,1.56c0.03-0.03,0.06-0.05,0.09-0.08
						c-0.83,0.34-1.66,0.69-2.49,1.03c0.04,0,0.08,0,0.12,0c-0.59-0.16-1.19-0.32-1.78-0.48c-0.73-0.51-1.13-1.26-1.21-2.24
						c0.16-0.59,0.32-1.19,0.48-1.78c0.11-0.15,0.23-0.3,0.34-0.45c0.52-0.3,1.04-0.6,1.56-0.91c1.84,0.81,2.45,0.92,1.84,0.34
						c-0.13-0.12-0.24-0.25-0.35-0.39c-1.22-1.46-3.72-1.26-4.99,0c-1.45,1.45-1.22,3.52,0,4.99c1.49,1.78,4.06,2.77,6.21,1.51
						c2.27-1.33,2.53-4.42,0.78-6.3c-1.47-1.58-4-1.84-5.58-0.23c-1.51,1.54-1.31,4.54-1.55,6.58c-0.89,7.69-1.68,15.39-2.35,23.1
						c-1.35,15.42-2.28,30.89-2.78,46.36c-0.49,15.31-0.57,30.63-0.22,45.95c0.35,15.34,1.25,30.64,2.26,45.94
						c1.07,16.21,1.78,32.76-2.66,48.54c-0.47,1.68,0.44,3.52,2.04,4.16c1.76,0.71,3.31,0,4.4-1.44
						c15.65-20.67,25.26-45.32,30.99-70.45c6.29-27.59,7.98-55.94,9.28-84.12c0.77-16.72,1.42-33.46,2.84-50.14
						c0.16-1.9-1.74-3.53-3.53-3.53C1259.6,604.23,1258.28,605.85,1258.12,607.76L1258.12,607.76z"/>
				</g>
			</g>
			<g>
				<g>
					<path d="M898.68,609.81c4.08,29.5,8.19,59.01,13.64,88.29c5.4,28.99,12.13,57.79,21.47,85.78
						c5.28,15.83,11.41,31.39,18.49,46.51c0.74,1.57,2.93,2.09,4.4,1.44c1.69-0.74,2.37-2.38,2.04-4.16
						c-4.72-25.67-8.24-51.56-10.52-77.56c-2.29-26.07-3.35-52.25-3.19-78.42c0.09-14.76,0.58-29.51,1.44-44.24
						c0.11-1.9-1.7-3.53-3.53-3.53c-2,0-3.41,1.62-3.53,3.53c-1.55,26.37-1.87,52.81-0.93,79.21c0.93,26.24,3.1,52.43,6.49,78.46
						c1.94,14.87,4.25,29.68,6.96,44.42c2.15-0.91,4.3-1.81,6.44-2.72c-12.43-26.53-21.66-54.46-28.87-82.83
						c-7.25-28.54-12.46-57.56-16.93-86.65c-2.53-16.45-4.82-32.93-7.1-49.41c-0.26-1.89-2.67-2.92-4.34-2.46
						C899.11,606.03,898.42,607.92,898.68,609.81L898.68,609.81z"/>
				</g>
			</g>
			<g>
				<g>
					<path d="M1078.57,838.38c13.82,4.25,28.28,0.48,41.07-5.24c11.39-5.09,22.19-11.72,32.31-18.99
						c20.1-14.43,37.66-32.16,51.92-52.37c7.93-11.24,14.76-23.24,20.37-35.79c0.78-1.74,0.5-3.79-1.26-4.82
						c-1.5-0.88-4.04-0.48-4.82,1.26c-9.76,21.86-23.05,41.69-39.32,58.94c-16.4,17.38-35.2,31.76-56.51,42.69
						c-12.84,6.59-27.76,11.87-41.87,7.52c-1.82-0.56-3.84,0.67-4.34,2.46C1075.59,835.94,1076.75,837.82,1078.57,838.38
						L1078.57,838.38z"/>
				</g>
			</g>
			<g>
				<g>
					<path d="M936.94,724.24c6.98,22.05,19.95,41.79,36.14,58.18c17.04,17.26,37.6,30.71,59.31,41.35
						c12.76,6.25,25.96,11.6,39.33,16.39c1.79,0.64,3.86-0.73,4.34-2.46c0.54-1.95-0.66-3.69-2.46-4.34
						c-22.92-8.21-45.31-18.15-65.72-31.63c-18.65-12.32-35.59-27.94-47.98-46.34c-6.98-10.37-12.45-21.3-16.16-33.03
						c-0.57-1.81-2.45-2.98-4.34-2.46C937.62,720.4,936.36,722.42,936.94,724.24L936.94,724.24z"/>
				</g>
			</g>
			<g>
				<g>
					<path d="M995.09,907.35c-0.13,8.57,3.18,16.68,7.65,23.85c4.4,7.07,9.77,13.61,15.21,19.89
						c10.78,12.46,22.89,23.68,36.02,33.62c7.34,5.56,15.02,10.68,22.97,15.33c1.64,0.96,3.86,0.38,4.82-1.26
						c0.97-1.65,0.38-3.86-1.26-4.82c-13.67-7.99-26.28-17.21-37.96-27.8c-11.6-10.51-22.63-22.31-31.45-35.08
						c-4.97-7.19-9.07-15.08-8.94-23.72c0.03-1.91-1.64-3.53-3.53-3.53C996.68,903.83,995.12,905.44,995.09,907.35L995.09,907.35z"
						/>
				</g>
			</g>
			<g>
				<g>
					<path d="M1093.78,990.55c4-1.38,7.12-4.03,10.17-6.87c3.29-3.06,6.58-6.13,9.87-9.19c6.45-6,12.91-11.99,19.35-18.01
						c6.05-5.64,12.04-11.36,17.53-17.56c5.59-6.32,10.49-13.18,14.98-20.33c1.28-2.04,2.54-4.11,3.78-6.18
						c1.18-1.97,2.61-3.94,3.48-6.06c1.26-3.09-0.98-7.12-4.68-6.11c-3.22,0.89-4.39,5.52-1.16,7.24c1.68,0.9,3.84,0.42,4.82-1.26
						c0.94-1.6,0.42-3.92-1.26-4.82c-0.05-0.03-0.11-0.06-0.16-0.09c0.42,0.42,0.84,0.84,1.26,1.26c-0.02-0.04-0.04-0.09-0.06-0.13
						c0.12,0.91,0.24,1.81,0.36,2.72c-0.86,0.67-1.72,1.33-2.58,2c-0.59-0.16-1.19-0.32-1.78-0.48c0.05,0.04,0.11,0.08,0.16,0.12
						c-0.42-0.42-0.84-0.84-1.26-1.26c-0.78-1.34,0.4-2.79-0.47-1.29c-0.24,0.4-0.48,0.8-0.72,1.2c-0.48,0.8-0.96,1.61-1.43,2.41
						c-0.96,1.6-1.92,3.2-2.9,4.8c-1.87,3.05-3.8,6.07-5.82,9.02c-3.93,5.74-8.32,11.09-13.1,16.15
						c-10.17,10.76-21.38,20.57-32.21,30.65c-3.17,2.95-6.34,5.9-9.51,8.85c-2.64,2.45-5.31,5.3-8.53,6.41
						c-1.8,0.62-2.99,2.42-2.46,4.34C1089.92,989.84,1091.97,991.17,1093.78,990.55L1093.78,990.55z"/>
				</g>
			</g>
			<g>
				<g>
					<path d="M1083.96,1000.57c0.3,1.08,0.24,1.08,0.25,2.18c0,0.48,0.02,0.21-0.1,0.82c-0.1,0.46-0.22,0.91-0.36,1.35
						c-0.44,1.35-1.52,3.09-2.49,4.22c-1.31,1.52-2.8,2.86-4.29,4.19c-1.61,1.42-3.44,2.78-4.71,4.53c-1.62,2.23-1.17,5.1,0.74,7
						c1.32,1.32,2.59,2.02,4.02,3.48c1.38,1.42,2.14,2.37,3.14,3.94c0.48,0.76,0.93,1.53,1.34,2.33c0.18,0.34,0.35,0.69,0.51,1.03
						c0.11,0.23,0.22,0.46,0.32,0.7c0.25,0.58-0.14-0.37,0.09,0.22c0.74,1.91,1.31,3.88,1.65,5.91c0.09,0.56,0.19,1.48,0.24,2.49
						c0.05,1.09,0.03,2.17-0.05,3.26c-0.13,1.9,1.71,3.53,3.53,3.53c2.09,0,3.3-1.63,3.53-3.53c0.14-1.17-0.13,0.65,0.07-0.51
						c0.06-0.36,0.12-0.72,0.19-1.08c0.13-0.66,0.28-1.31,0.45-1.95c0.36-1.35,0.8-2.68,1.34-3.97c-0.18,0.43,0.09-0.19,0.15-0.33
						c0.15-0.33,0.31-0.66,0.47-0.99c0.3-0.6,0.61-1.19,0.95-1.77c0.7-1.21,1.47-2.39,2.31-3.5c0.14-0.19,0.15-0.19,0.01-0.01
						c0.08-0.09,0.15-0.19,0.23-0.28c0.23-0.28,0.47-0.56,0.7-0.84c0.44-0.51,0.89-1,1.36-1.48c0.98-1,2.02-1.94,3.11-2.81
						c-0.43,0.34,0.43-0.32,0.45-0.33c0.25-0.18,0.5-0.35,0.75-0.52c0.55-0.38,1.12-0.73,1.69-1.07c0.63-0.37,1.27-0.72,1.92-1.05
						c0.33-0.16,0.66-0.31,0.99-0.47c0.62-0.3-0.2,0.07,0.5-0.22c1.63-0.66,2.81-2,2.53-3.87c-0.27-1.8-1.67-2.93-3.46-3.06
						c-1.74-0.13-3.55-0.8-5.4-2.03c-1.5-1-3.34-2.91-4.35-4.41c-3-4.47-4.28-9.66-5.61-14.86c-0.47-1.84-2.53-2.96-4.34-2.46
						c-1.87,0.51-2.94,2.49-2.46,4.34c1.54,6.04,3.19,12.41,6.98,17.48c3.71,4.97,8.86,8.55,15.17,9c-0.31-2.31-0.62-4.62-0.94-6.92
						c-12.51,5.08-21.25,16.56-22.82,29.97c2.35,0,4.7,0,7.05,0c0.53-7.81-2.01-15.73-6.77-21.91c-1.19-1.54-2.47-2.99-3.92-4.29
						c-0.8-0.71-1.69-1.31-2.5-2.01c0.21,0.19,0.1-0.04,0-0.02c-0.05-0.04-0.09-0.08-0.14-0.12c0.17,0.26,0.22,0.55,0.15,0.88
						c-0.09-1.04,0.07,1.07,0,0.94c-0.15,0.22-0.14,0.23,0.02,0.05c0.09-0.09,0.18-0.18,0.28-0.27c3.07-2.95,6.45-5.48,9.05-8.89
						c3-3.92,4.65-9.02,3.29-13.9C1089.54,994.33,1082.74,996.18,1083.96,1000.57L1083.96,1000.57z"/>
				</g>
			</g>
			<g>
				<g>
					<path d="M998.61,873.26c-7.2,20.94-9.56,43.16-10.47,65.18c-0.94,23-0.91,46.07-0.95,69.09c-0.04,23.64,0.14,47.29,0.57,70.93
						c0.42,23.52,1.07,47.04,1.96,70.55s2,47.01,3.34,70.5c0.17,2.94,0.34,5.87,0.52,8.81c0.27,4.51,7.32,4.54,7.05,0
						c-2.8-46.97-4.69-94-5.65-141.04c-0.95-46.49-1.29-93.07-0.09-139.57c0.63-24.51,2.5-49.23,10.52-72.58
						c0.62-1.8-0.71-3.85-2.46-4.34C1001.01,870.26,999.23,871.45,998.61,873.26L998.61,873.26z"/>
				</g>
			</g>
			<g>
				<g>
					<path d="M1165.71,895.28c8.63,22.2,13.51,45.66,15.54,69.35c2.06,23.94,1.44,48.03-0.44,71.96
						c-1.95,24.73-5.33,49.3-8.59,73.89c-3.39,25.56-6.65,51.16-8.11,76.92c-1.45,25.72-1.01,51.57,2.86,77.08
						c0.48,3.15,1.01,6.3,1.6,9.43c0.35,1.87,2.61,2.94,4.34,2.46c1.97-0.54,2.81-2.46,2.46-4.34c-4.69-25.22-5.65-50.96-4.6-76.55
						c1.06-25.76,4.1-51.38,7.44-76.93c3.24-24.76,6.78-49.49,9.01-74.37c2.15-23.94,3.15-48.04,1.64-72.05
						c-1.51-23.87-5.49-47.71-13.28-70.37c-0.97-2.81-1.99-5.6-3.07-8.36c-0.69-1.77-2.37-3-4.34-2.46
						C1166.47,891.41,1165.01,893.5,1165.71,895.28L1165.71,895.28z"/>
				</g>
			</g>
			<g>
				<g>
					<path d="M990.19,1112.84c24.04-3.69,48.38-5.36,72.7-5.1c24.24,0.26,48.46,2.45,72.33,6.63c6.25,1.1,12.58,2.16,18.72,3.8
						c5.28,1.42,9.96,3.3,13.56,7.29c1.28,1.41,3.69,1.3,4.99,0c1.4-1.4,1.28-3.57,0-4.99c-7.48-8.27-19.54-9.96-29.92-11.91
						c-12.33-2.32-24.77-4.12-37.25-5.43c-24.82-2.6-49.86-3.15-74.77-1.64c-14.14,0.86-28.23,2.4-42.23,4.54
						c-1.88,0.29-2.92,2.65-2.46,4.34C986.4,1112.39,988.3,1113.13,990.19,1112.84L990.19,1112.84z"/>
				</g>
			</g>
			<g>
				<g>
					<path d="M927.87,1112.85c-8.38-6.17-19.72-8.65-29.37-4.02c-4.06,1.95-7.69,5.27-9.83,9.25c-2.56,4.75-2.88,10.19-1.53,15.37
						c1.31,5.03,3.97,9.91,7.47,13.75c3.67,4.03,8.52,6.44,13.95,6.87c5.35,0.42,10.82-1.25,15.53-3.69
						c4.29-2.23,8.16-5.44,10.8-9.52c2.84-4.38,3.82-9.76,2.44-14.82c-1.37-5-4.88-9.17-9.86-10.79c-1.81-0.59-3.85,0.69-4.34,2.46
						c-0.53,1.91,0.65,3.74,2.46,4.34c0.2,0.07,0.41,0.13,0.61,0.21c-0.15-0.06-0.54-0.29,0.03,0.03c0.32,0.18,0.64,0.36,0.95,0.55
						c0.08,0.05,0.61,0.43,0.28,0.18c-0.3-0.23,0.1,0.09,0.13,0.12c0.34,0.33,0.68,0.65,1,0.99c0.06,0.07,0.48,0.58,0.23,0.25
						c-0.23-0.3,0.08,0.12,0.1,0.15c0.23,0.36,0.47,0.71,0.68,1.08c0.18,0.33,0.35,0.66,0.51,1.01c0.23,0.51-0.16-0.47,0.01,0.06
						c0.09,0.26,0.18,0.51,0.26,0.77c0.13,0.42,0.24,0.84,0.33,1.26c0.03,0.16,0.06,0.32,0.09,0.48c0.12,0.56-0.05-0.53,0.01,0.04
						c0.09,0.87,0.1,1.74,0.05,2.62c-0.01,0.1-0.08,0.78-0.02,0.34c0.05-0.4-0.02,0.13-0.03,0.18c-0.09,0.42-0.18,0.85-0.3,1.26
						c-0.12,0.42-0.26,0.83-0.41,1.24c-0.21,0.57,0.18-0.37-0.07,0.18c-0.13,0.28-0.26,0.56-0.4,0.83c-1.67,3.2-4.24,5.55-7.3,7.41
						c-3.39,2.06-7.4,3.57-11.21,3.77c-3.85,0.2-7.38-0.94-10.04-3.34c-2.79-2.51-4.92-5.81-6.29-9.42
						c-1.49-3.92-2.02-7.68-0.57-11.58c0.14-0.38,0.01-0.04-0.02,0.03c0.09-0.21,0.19-0.43,0.3-0.64c0.21-0.42,0.44-0.83,0.68-1.23
						c0.21-0.35,0.45-0.69,0.68-1.03c0.33-0.48-0.28,0.33,0.09-0.13c0.18-0.23,0.37-0.46,0.57-0.68c1.31-1.48,2.17-2.18,3.65-3.09
						c0.46-0.28,0.93-0.55,1.41-0.79c0.21-0.11,0.43-0.21,0.64-0.32c0.15-0.07,0.75-0.32,0.31-0.14c0.94-0.37,1.91-0.67,2.9-0.89
						c1.11-0.25,1.62-0.31,2.82-0.36c1.24-0.05,2.49-0.01,3.71,0.14c4.23,0.54,8.62,2.61,12.34,5.35c1.53,1.13,3.93,0.26,4.82-1.26
						C930.19,1115.88,929.41,1113.98,927.87,1112.85L927.87,1112.85z"/>
				</g>
			</g>
			<g>
				<g>
					<path d="M955.99,1278.18c-3.35-3.37-6.9-6.82-11.18-8.98c-4.61-2.32-9.75-2.95-14.71-1.34c-4.89,1.59-9.41,4.65-13.1,8.19
						c-3.56,3.41-6.46,7.72-7.68,12.53c-1.31,5.15-0.8,10.77,2.03,15.33c2.51,4.05,6.37,7,10.37,9.47c2.15,1.33,4.38,2.71,6.8,3.5
						c2.83,0.92,5.76,0.53,8.37-0.84c2.19-1.14,4.05-2.96,5.78-4.7c1.82-1.84,3.49-3.82,5.06-5.87c1.7-2.21,3.24-4.54,4.59-6.97
						c1.47-2.64,2.9-5.47,3.54-8.43c1.28-5.93-0.88-12.35-6.92-14.53c-1.79-0.65-3.86,0.73-4.34,2.46
						c-0.54,1.96,0.67,3.69,2.46,4.34c-0.53-0.19,0.39,0.22,0.54,0.32c0.47,0.3-0.31-0.31,0.09,0.08c0.12,0.12,0.24,0.24,0.37,0.36
						c0.16,0.16,0.76,1.2,0.83,1.44c0.12,0.4,0.23,0.79,0.31,1.2c0.08,0.41,0,0.01-0.01-0.07c0.02,0.27,0.03,0.53,0.03,0.8
						c0,1.05-0.15,1.8-0.45,2.83c-1.13,3.91-3.53,7.61-5.87,10.91c-2.22,3.11-5.01,6.42-8.14,8.86c-0.3,0.23-1.33,0.89-1.74,1.06
						c-0.08,0.03-0.75,0.24-1.07,0.28c0.58-0.06-0.96-0.1-0.56-0.04c-1.83-0.27-3.46-1.45-5.12-2.44c-1.51-0.91-3.29-2.03-4.52-2.99
						c-0.47-0.37-1.28-1.07-1.85-1.61c-0.32-0.31-0.64-0.63-0.94-0.95c-0.17-0.19-0.34-0.38-0.51-0.57
						c-0.05-0.06-0.38-0.45-0.16-0.17c-1.25-1.58-1.91-2.99-2.34-4.8c-0.34-1.43-0.39-3.57-0.14-4.92
						c1.34-7.57,7.58-13.34,14.45-16.57c1.74-0.82,3.81-1.36,5.73-1.36c1.68,0.01,3.67,0.54,5.09,1.23c3.93,1.93,6.79,4.8,9.93,7.96
						C954.21,1286.39,959.19,1281.4,955.99,1278.18L955.99,1278.18z"/>
				</g>
			</g>
			<g>
				<g>
					<path d="M960.03,1435.55c-7.77-6.84-19.78-7.96-28.64-2.51c-8.76,5.38-12.75,16.27-10.8,26.17c1.83,9.3,9.69,16.4,18.77,18.47
						c4.47,1.02,9.35,0.98,13.69-0.61c4.53-1.66,8.24-4.62,10.95-8.61c5.8-8.55,5.63-20.4-0.8-28.51c-1.18-1.49-3.75-1.24-4.99,0
						c-1.47,1.47-1.19,3.49,0,4.99c-0.4-0.5,0.26,0.37,0.38,0.55c0.26,0.39,0.5,0.79,0.73,1.2c0.2,0.36,0.38,0.73,0.56,1.1
						c0.08,0.16,0.32,0.8,0.07,0.15c0.09,0.24,0.18,0.48,0.27,0.72c0.29,0.83,0.52,1.68,0.69,2.53c0.04,0.22,0.21,1.35,0.12,0.59
						c0.06,0.52,0.11,1.03,0.13,1.55c0.04,0.83,0.03,1.67-0.03,2.5c-0.03,0.42-0.07,0.83-0.12,1.25c0.1-0.76-0.13,0.67-0.19,0.92
						c-0.17,0.82-0.39,1.63-0.65,2.42c-0.15,0.45-0.31,0.89-0.49,1.32c-0.2,0.51,0.22-0.47-0.01,0.02
						c-0.11,0.24-0.22,0.47-0.34,0.71c-0.39,0.79-0.84,1.56-1.33,2.29c-0.12,0.17-0.23,0.34-0.35,0.51
						c-0.05,0.08-0.45,0.6-0.19,0.27c0.31-0.4-0.33,0.39-0.31,0.37c-0.17,0.2-0.34,0.39-0.52,0.58c-0.6,0.65-1.24,1.24-1.92,1.81
						c0.54-0.45-0.41,0.29-0.54,0.38c-0.44,0.29-0.89,0.57-1.35,0.82c-0.38,0.21-0.76,0.39-1.15,0.58
						c-0.11,0.05-0.62,0.25-0.04,0.02c-0.2,0.08-0.4,0.15-0.6,0.22c-0.9,0.32-1.83,0.57-2.76,0.75c-0.24,0.05-1.36,0.19-0.64,0.11
						c-0.42,0.04-0.85,0.08-1.27,0.1c-0.96,0.05-1.92,0.03-2.88-0.05c-0.18-0.01-1.4-0.19-0.66-0.06c-0.48-0.08-0.95-0.16-1.42-0.27
						c-0.95-0.21-1.88-0.48-2.79-0.8c-0.19-0.07-1.14-0.44-0.93-0.35c0.46,0.2-0.5-0.24-0.46-0.22c-0.19-0.09-0.39-0.19-0.58-0.29
						c-0.86-0.44-1.69-0.94-2.49-1.48c-0.18-0.12-1.05-0.79-0.58-0.41c-0.33-0.27-0.66-0.54-0.98-0.83c-0.72-0.65-1.36-1.35-2-2.07
						c-0.08-0.08-0.42-0.52-0.05-0.04c-0.13-0.17-0.25-0.34-0.38-0.52c-0.25-0.35-0.48-0.71-0.7-1.07c-0.25-0.41-0.49-0.84-0.7-1.27
						c-0.1-0.2-0.19-0.4-0.29-0.6c-0.1-0.23-0.1-0.21,0.01,0.04c-0.04-0.11-0.09-0.22-0.13-0.32c-0.34-0.93-0.64-1.87-0.85-2.84
						c-0.1-0.45-0.19-0.91-0.26-1.37c-0.1-0.65,0.04,0.83-0.03-0.27c-0.02-0.29-0.05-0.58-0.06-0.87c-0.05-0.99-0.04-1.98,0.04-2.97
						c0.02-0.23,0.04-0.46,0.07-0.7c0.01-0.11,0.11-0.69,0.01-0.1c0.09-0.58,0.2-1.15,0.34-1.72c0.88-3.71,2.45-6.6,5.25-9.16
						c5.89-5.38,16.25-5.39,22.19-0.16c1.43,1.26,3.58,1.41,4.99,0C961.31,1439.25,961.47,1436.81,960.03,1435.55L960.03,1435.55z"
						/>
				</g>
			</g>
			<g>
				<g>
					<path d="M1201.83,1163.15c13.15,1.04,26.25,2.57,39.28,4.62c1.88,0.3,3.79-0.48,4.34-2.46c0.46-1.67-0.57-4.04-2.46-4.34
						c-13.65-2.15-27.38-3.78-41.16-4.87c-1.9-0.15-3.53,1.73-3.53,3.53C1198.31,1161.66,1199.93,1163,1201.83,1163.15
						L1201.83,1163.15z"/>
				</g>
			</g>
			<g>
				<g>
					<path d="M1193.47,1329.68c10.26,0.66,20.52,1.32,30.78,1.98c1.9,0.12,3.53-1.71,3.53-3.53c0-2.01-1.62-3.4-3.53-3.53
						c-10.26-0.66-20.52-1.32-30.78-1.98c-1.9-0.12-3.53,1.71-3.53,3.53C1189.95,1328.17,1191.57,1329.56,1193.47,1329.68
						L1193.47,1329.68z"/>
				</g>
			</g>
			<g>
				<g>
					<path d="M1180.43,1484.18c0.08-0.08,0.16-0.16,0.25-0.24c-0.24,0.15-0.26,0.16-0.05,0.03c0.22-0.16,0.47-0.3,0.71-0.41
						c-0.68,0.31,0.96-0.2,0.58-0.14c-0.39,0.07,0.55-0.04,0.55-0.04c0.23-0.01,0.47-0.01,0.7,0c0.3,0.01,0.59,0.03,0.89,0.05
						c0.6,0.04-0.46-0.08,0.15,0.01c2.57,0.38,5.05,1.24,7.57,1.8c6,1.33,12.16,1.97,18.3,1.9c1.9-0.02,3.53-1.6,3.53-3.53
						c0-1.89-1.61-3.55-3.53-3.53c-6.34,0.08-12.62-0.63-18.76-2.21c-5.28-1.35-11.48-3.07-15.88,1.31
						C1172.22,1482.39,1177.21,1487.38,1180.43,1484.18L1180.43,1484.18z"/>
				</g>
			</g>
			<g>
				<g>
					<path d="M730.01,1046.68c0.45,24.59,4.48,49.12,11.82,72.59c7.3,23.32,17.81,45.69,31.23,66.12
						c7.59,11.55,16.1,22.5,25.43,32.69c1.29,1.4,3.68,1.3,4.99,0c1.4-1.4,1.29-3.58,0-4.99c-16.1-17.57-29.54-37.41-40.14-58.91
						c-10.48-21.25-18.05-44.18-22.34-67.71c-2.39-13.09-3.69-26.26-3.94-39.79c-0.03-1.9-1.6-3.53-3.53-3.53
						C731.65,1043.15,729.98,1044.76,730.01,1046.68L730.01,1046.68z"/>
				</g>
			</g>
			<g>
				<g>
					<path d="M704.1,1130.03c-0.15,8.13,3.36,15.71,7.67,22.42c3.99,6.22,8.53,12.13,13.33,17.75c9.53,11.14,20.5,21,32.51,29.4
						c6.66,4.66,13.66,8.84,20.92,12.5c1.7,0.86,3.82,0.45,4.82-1.26c0.92-1.57,0.44-3.96-1.26-4.82
						c-12.45-6.27-24.05-14.02-34.41-23.05c-10.49-9.14-19.88-19.55-27.66-30.83c-4.6-6.67-9.01-14-8.86-22.1
						c0.03-1.9-1.65-3.53-3.53-3.53C705.68,1126.51,704.13,1128.12,704.1,1130.03L704.1,1130.03z"/>
				</g>
			</g>
			<g>
				<g>
					<path d="M782.05,1220.13c1.57,22.4,3.52,44.77,5.86,67.1c2.35,22.42,5.09,44.8,8.21,67.13c3.1,22.24,6.59,44.42,10.45,66.54
						c3.86,22.09,8.23,44.07,12.67,66.05c4.39,21.76,8.58,43.63,10.26,65.8c0.21,2.77,0.38,5.53,0.51,8.3
						c0.22,4.52,7.27,4.54,7.05,0c-1.08-22.39-4.82-44.54-9.14-66.5c-4.32-21.98-8.9-43.91-12.86-65.96
						c-3.98-22.1-7.57-44.27-10.78-66.49c-3.2-22.13-6-44.32-8.43-66.55c-2.44-22.32-4.49-44.69-6.15-67.08
						c-0.21-2.79-0.41-5.57-0.6-8.36c-0.13-1.9-1.52-3.53-3.53-3.53C783.77,1216.61,781.91,1218.22,782.05,1220.13L782.05,1220.13z"
						/>
				</g>
			</g>
			<g>
				<g>
					<path d="M990.51,1229.71c-3.25,49,11.1,96.87,14.62,145.45c1.82,25.1,1.57,50.3,1.2,75.44c-0.37,25.06-0.77,50.12-1.15,75.18
						c-0.44,28.36-0.87,56.73-1.31,85.09c-0.07,4.54,6.98,4.54,7.05,0c0.77-50.39,1.55-100.79,2.32-151.18
						c0.39-25.16,0.86-50.35-0.49-75.49c-1.32-24.56-5.14-48.76-8.96-73.02c-4.25-26.93-8.04-54.13-6.22-81.46
						C997.86,1225.18,990.81,1225.2,990.51,1229.71L990.51,1229.71z"/>
				</g>
			</g>
			<g>
				<g>
					<path d="M1165.78,1269.66c3.05,20.36,1.24,41.12-1.26,61.44c-2.57,20.88-5.47,41.71-8.23,62.57
						c-5.51,41.67-11.02,83.34-16.53,125.02c-3.1,23.48-6.21,46.96-9.31,70.44c-0.25,1.89,1.8,3.53,3.53,3.53
						c2.11,0,3.27-1.63,3.53-3.53c5.57-42.09,11.13-84.19,16.7-126.28c5.53-41.83,11.17-83.66,16.59-125.51
						c2.99-23.08,5.27-46.37,1.8-69.54c-0.28-1.88-2.66-2.92-4.34-2.46C1166.23,1265.87,1165.5,1267.77,1165.78,1269.66
						L1165.78,1269.66z"/>
				</g>
			</g>
			<g>
				<g>
					<path d="M830.19,1562.69c17.95,14.02,41.06,16.25,62.73,20.12c24.59,4.39,48.93,10.18,72.86,17.34
						c13.57,4.06,27,8.56,40.28,13.48c1.79,0.66,3.86-0.74,4.34-2.46c0.54-1.97-0.67-3.67-2.46-4.34
						c-23.27-8.63-47.03-15.95-71.13-21.9c-12.05-2.97-24.18-5.61-36.38-7.89c-11.09-2.08-22.31-3.58-33.34-6.02
						c-11.44-2.53-22.82-6.21-31.92-13.32c-1.5-1.17-3.52-1.46-4.99,0C828.97,1558.92,828.68,1561.51,830.19,1562.69L830.19,1562.69
						z"/>
				</g>
			</g>
			<g>
				<g>
					<path d="M638.56,1540.83c-8.86-62.39-17.74-125.38-13.74-188.55c3.95-62.46,19.73-123.41,31.18-184.74
						c2.83-15.15,5.3-30.38,7.01-45.7c1.57-14.04,2-28.15,3.17-42.22c2.16-25.89,6.61-52.32,18.3-75.78
						c12.74-25.56,34.2-43.36,55.99-60.99c22.37-18.11,45.38-35.84,71.68-47.91c26.05-11.96,54.28-18.44,82.41-23.29
						c14.42-2.49,28.9-4.57,43.38-6.66c15.79-2.27,31.64-4.36,47.6-5.07c7.67-0.34,15.34-0.34,23,0.07
						c-0.59-2.19-1.19-4.38-1.78-6.57c-2.8,1.31-5.61,2.62-8.41,3.94c-4.11,1.92-0.53,8,3.56,6.09c2.8-1.31,5.61-2.62,8.41-3.94
						c3.39-1.59,1.42-6.4-1.78-6.57c-31.46-1.65-62.85,3.72-93.84,8.39c-28.84,4.34-57.78,9.39-85.36,19.13
						c-27.78,9.81-52.38,25.05-75.62,42.95c-11.61,8.94-23.08,18.14-34.26,27.62c-10.71,9.08-20.89,18.78-29.31,30.06
						c-15.95,21.38-24.03,47.43-28.09,73.51c-2.06,13.28-3.21,26.68-3.96,40.09c-0.87,15.64-2.38,31.16-4.75,46.65
						c-4.77,31.23-11.97,62.02-17.98,93.02c-6.03,31.11-12.01,62.28-15.5,93.8c-7.07,63.86-0.22,127.7,8.57,191.03
						c1.09,7.83,2.2,15.67,3.31,23.5C632.4,1547.18,639.19,1545.28,638.56,1540.83L638.56,1540.83z"/>
				</g>
			</g>
			<g>
				<g>
					<path d="M688.63,1502.92c7.87-2.97,16.24-4.35,24.5-5.33c8.54-1.02,17.1-1.96,25.67-2.72c16.77-1.5,33.99-2.27,50.64,0.05
						c9.62,1.34,18.86,3.87,27.96,7.22c1.79,0.66,3.86-0.74,4.34-2.46c0.54-1.97-0.67-3.68-2.46-4.34c-8.16-3-16.42-5.38-25.01-6.77
						c-8.73-1.42-17.55-2.07-26.39-2.13c-17.39-0.13-34.72,1.82-51.98,3.78c-9.85,1.12-19.8,2.38-29.14,5.9
						c-1.78,0.67-3,2.38-2.46,4.34C684.76,1502.16,686.84,1503.59,688.63,1502.92L688.63,1502.92z"/>
				</g>
			</g>
			<g>
				<g>
					<path d="M712.83,1455.01c13.51-5.73,29.07-2.69,42.43,2.69c7.04,2.84,13.76,6.45,20.44,10.05c7.43,4,14.85,8.01,22.28,12.02
						c4.09,2.21,8.13,4.67,12.35,6.63c2.36,1.1,5.14,1.66,7.47,0.16c2.11-1.35,3.55-4.08,2.58-6.56c-0.69-1.77-2.37-3-4.34-2.46
						c-1.69,0.47-3.15,2.55-2.46,4.34c0.35,0.9-0.04-0.58,0.2-0.95c0.17-0.25,0.39-0.26,0.56-0.45c0.09-0.1,0.91,0.18-0.1-0.06
						c-0.71-0.17-0.07,0.03-0.74-0.28c-1.91-0.87-3.74-2.01-5.59-3c-3.51-1.9-7.03-3.79-10.54-5.69c-7.05-3.8-14.08-7.63-21.15-11.4
						c-13.33-7.11-27.26-13.7-42.53-14.91c-8.36-0.66-16.69,0.53-24.42,3.81c-1.75,0.74-2.14,3.33-1.26,4.82
						C709.07,1455.56,711.07,1455.75,712.83,1455.01L712.83,1455.01z"/>
				</g>
			</g>
			<g>
				<g>
					<path d="M1133.3,1590.55c-5.3,2.87-6.76,9.63-5,15.05c2.05,6.31,7.77,9.86,13.77,11.89c3.18,1.08,6.48,1.78,9.74,2.56
						c3.81,0.91,7.62,1.82,11.43,2.74c7.51,1.8,15.01,3.61,22.53,5.36c6.88,1.6,13.73,3.01,20.74,3.88
						c6.56,0.81,13.16,1.23,19.76,1.44c13.88,0.43,27.76-0.08,41.64-0.47c15.02-0.43,30.12-0.83,45.11,0.53
						c1.9,0.17,3.53-1.74,3.53-3.53c0-2.05-1.62-3.35-3.53-3.53c-26.03-2.36-52.23,0.26-78.3,0.1c-12.67-0.08-25.34-0.7-37.49-3.08
						c-7.08-1.39-14.1-3.18-21.12-4.86c-7.24-1.73-14.47-3.46-21.7-5.19c-3.5-0.84-7.05-1.57-10.46-2.73
						c-2.76-0.93-5.37-2.33-7.4-4.43c-0.11-0.12-0.58-0.71-0.15-0.13c-0.24-0.32-0.46-0.66-0.66-1.01
						c-0.15-0.26-0.28-0.54-0.42-0.81c-0.33-0.65,0.11,0.48-0.11-0.29c-0.2-0.69-0.4-1.36-0.53-2.07c0.13,0.7,0.02,0.2,0.01,0.03
						c-0.02-0.4-0.05-0.8-0.04-1.21c0.01-0.3,0.03-0.59,0.05-0.89c-0.06,0.83,0.01-0.02,0.06-0.22c0.06-0.28,0.14-0.56,0.22-0.84
						c0.06-0.18,0.12-0.36,0.19-0.54c-0.17,0.41-0.17,0.43,0,0.07c0.12-0.2,0.24-0.41,0.35-0.61c0.42-0.72-0.25,0.13,0.22-0.28
						c0.21-0.19,0.4-0.4,0.62-0.58c-0.64,0.53,0.35-0.16,0.5-0.25c1.67-0.91,2.2-3.22,1.26-4.82
						C1137.13,1590.13,1134.98,1589.64,1133.3,1590.55L1133.3,1590.55z"/>
				</g>
			</g>
			<g>
				<g>
					<path d="M1429.33,1033.24c-10.2,11.26-21.56,21.51-33.87,30.36c-10.85,7.8-23.22,13.9-32.84,23.3
						c-5.16,5.04-9.29,11.2-10.98,18.28c-0.44,1.85,0.58,3.82,2.46,4.34c1.79,0.49,3.89-0.6,4.34-2.46
						c1.34-5.61,4.27-10.17,8.28-14.28c4.44-4.55,8.91-7.67,14.25-11.17c5.66-3.71,11.43-7.23,16.96-11.14
						c6.29-4.46,12.36-9.24,18.17-14.31c6.42-5.61,12.5-11.6,18.22-17.92c1.28-1.41,1.39-3.59,0-4.99
						C1433.02,1031.94,1430.61,1031.82,1429.33,1033.24L1429.33,1033.24z"/>
				</g>
			</g>
			<g>
				<g>
					<path d="M1400.36,1013.01c-17.41,18.45-32.87,38.78-45.96,60.52c-3.67,6.1-7.16,12.32-10.45,18.63
						c-0.88,1.69-0.43,3.83,1.26,4.82c1.59,0.93,3.94,0.43,4.82-1.26c11.5-22.04,25.33-42.88,41.26-61.93
						c4.52-5.41,9.21-10.67,14.05-15.8c1.31-1.38,1.37-3.61,0-4.99C1404.03,1011.69,1401.68,1011.62,1400.36,1013.01
						L1400.36,1013.01z"/>
				</g>
			</g>
			<g>
				<g>
					<path d="M1342.41,1126.6c-2.63,33.2-5.17,66.41-7.6,99.62c-2.39,32.56-4.67,65.12-6.87,97.69
						c-2.17,32.17-4.26,64.35-6.27,96.54c-2.03,32.53-3.99,65.06-5.88,97.6c-1.93,33.14-3.79,66.29-5.61,99.44
						c-0.23,4.17-0.46,8.33-0.68,12.5c-0.25,4.53,6.8,4.52,7.05,0c1.81-33.25,3.67-66.51,5.59-99.76
						c1.88-32.59,3.82-65.18,5.84-97.76c1.99-32.19,4.06-64.37,6.21-96.54c2.17-32.52,4.44-65.03,6.79-97.54
						c2.4-33.11,4.9-66.22,7.5-99.31c0.33-4.16,0.66-8.32,0.99-12.48C1349.82,1122.08,1342.76,1122.1,1342.41,1126.6L1342.41,1126.6
						z"/>
				</g>
			</g>
			<g>
				<g>
					<path d="M1176.65,869.73c23.83,5.2,47.66,10.35,71.48,15.6c23.38,5.15,46.62,10.79,69.42,18.13
						c22.54,7.26,44.67,15.73,66.72,24.35c19.69,7.7,40.73,14.66,56.2,29.73c13.66,13.3,22.45,30.9,27.25,49.2
						c0.61,2.33,1.15,4.67,1.65,7.03c0.39,1.86,2.58,2.94,4.34,2.46c1.93-0.53,2.85-2.47,2.46-4.34
						c-4.03-19.37-12.15-38.14-25.04-53.28c-6.68-7.85-14.71-14.4-23.62-19.57c-9.72-5.64-20.24-9.75-30.68-13.85
						c-22.4-8.79-44.8-17.59-67.6-25.3c-22.85-7.73-46.08-13.92-69.61-19.23c-24.02-5.42-48.1-10.54-72.15-15.79
						c-2.98-0.65-5.95-1.3-8.93-1.95c-1.86-0.41-3.81,0.56-4.34,2.46C1173.7,867.16,1174.78,869.33,1176.65,869.73L1176.65,869.73z"
						/>
				</g>
			</g>
			<g>
				<g>
					<path d="M1468.91,1034.49c5.83,38.72,9.22,77.81,10.16,116.96c0.95,39.24-0.97,78.34-4.26,117.43
						c-3.26,38.79-7.17,77.63-6.75,116.61c0.42,39.37,7.53,78.03,11.03,117.16c1.97,22,3.06,44.08,3.26,66.17
						c0.1,10.98,0,21.97-0.36,32.95c-0.31,9.4-0.98,19.07-5.85,27.36c-2.3,3.92,3.79,7.47,6.09,3.56
						c4.28-7.27,5.84-15.51,6.46-23.83c0.72-9.56,0.69-19.22,0.74-28.8c0.09-19.92-0.54-39.84-1.89-59.71
						c-1.35-19.84-3.56-39.57-6.09-59.29c-2.52-19.64-5.01-39.28-5.89-59.08c-1.76-39.52,1.65-79.02,5.04-118.36
						c3.4-39.52,6.14-78.99,5.75-118.68c-0.39-39.4-3.28-78.76-8.57-117.81c-0.66-4.84-1.35-9.68-2.08-14.51
						C1475.03,1028.14,1468.24,1030.04,1468.91,1034.49L1468.91,1034.49z"/>
				</g>
			</g>
			<g>
				<g>
					<path d="M1471.72,1012.47c2.59,1.07,4.91-1.55,4.86-3.95c-0.06-2.84-3.03-4.72-5.6-3.54c-3.77,1.72-3.16,7.41-2.8,10.83
						c0.81,7.53,3.77,14.48,8.72,20.23c1.24,1.44,3.71,1.28,4.99,0c1.43-1.43,1.25-3.54,0-4.99c-2.5-2.91-4.51-6.66-5.61-10.37
						c-0.59-1.97-0.98-3.95-1.12-5.68c-0.09-1.09-0.12-2.18-0.1-3.27c0.01-0.55,0.05-1.09,0.08-1.63c0.04-0.53,0.05-0.54,0.01-0.05
						c-0.2,0.37-0.19,0.4,0.02,0.09c-0.42,0.42-0.84,0.84-1.26,1.26c-0.38,0.09-0.76,0.17-1.14,0.26c-0.59-0.16-1.19-0.32-1.78-0.48
						c0.04,0.03,0.09,0.06,0.14,0.08c-0.42-0.42-0.84-0.84-1.26-1.26c-0.3-0.63-0.38-1.27-0.25-1.92c0.3-0.52,0.6-1.04,0.91-1.56
						c-0.03,0.03-0.06,0.06-0.08,0.09c0.52-0.3,1.04-0.6,1.56-0.91c-0.04,0.01-0.08,0.02-0.12,0.03c0.62,0,1.25,0,1.87,0
						c-0.05-0.02-0.1-0.04-0.15-0.06c-1.76-0.73-3.88,0.79-4.34,2.46C1468.7,1010.16,1469.95,1011.74,1471.72,1012.47
						L1471.72,1012.47z"/>
				</g>
			</g>
			<g>
				<g>
					<path d="M629.38,1541.19c0.21,20.55,4.05,41.11,11.42,60.31c1.05,2.73,2.21,5.41,3.34,8.11c0.96,2.3,1.75,4.42,0.85,6.58
						c-0.74,1.76,0.79,3.88,2.46,4.34c2.03,0.56,3.6-0.7,4.34-2.46c2.16-5.15-1-10.53-2.91-15.21c-1.96-4.8-3.69-9.68-5.2-14.64
						c-2.92-9.59-5.05-19.54-6.17-29.45c-0.66-5.84-1.02-11.71-1.08-17.58c-0.02-1.9-1.61-3.53-3.53-3.53
						C631.01,1537.66,629.36,1539.28,629.38,1541.19L629.38,1541.19z"/>
				</g>
			</g>
			<g>
				<g>
					<path d="M864.6,1574.08c-1.54,20.12-3.09,40.24-4.63,60.36c-0.15,1.9,1.72,3.53,3.53,3.53c2.03,0,3.38-1.62,3.53-3.53
						c1.54-20.12,3.09-40.24,4.63-60.36c0.15-1.9-1.72-3.53-3.53-3.53C866.09,1570.55,864.74,1572.17,864.6,1574.08L864.6,1574.08z"
						/>
				</g>
			</g>
		</g>
	</g>
</g>
</svg>
