<?xml version="1.0" encoding="utf-8"?>
<!-- Generator: Adobe Illustrator 26.3.1, SVG Export Plug-In . SVG Version: 6.00 Build 0)  -->
<svg version="1.1" xmlns="http://www.w3.org/2000/svg" xmlns:xlink="http://www.w3.org/1999/xlink" x="0px" y="0px"
	 viewBox="0 0 1984.25 1984.25" style="enable-background:new 0 0 1984.25 1984.25;" xml:space="preserve">
<style type="text/css">
	.st0{fill:#FFFFFF;}
	.st1{fill:#1B1439;}
	.st2{fill:#F5F0E2;}
	.st3{fill:#ED1E78;}
	.st4{fill:#FE3922;stroke:#000000;stroke-width:6.2938;stroke-miterlimit:10;}
	.st5{fill:#29597E;}
	.st6{fill:#D95F86;}
	.st7{fill:#D95F86;stroke:#000000;stroke-width:4.6468;stroke-miterlimit:10;}
	.st8{fill:none;stroke:#000000;stroke-width:9.3644;stroke-miterlimit:10;}
	.st9{fill:#ED1E78;stroke:#000000;stroke-width:9.3644;stroke-miterlimit:10;}
	.st10{fill:#FBAE16;stroke:#020202;stroke-width:9.3644;stroke-miterlimit:10;}
	.st11{fill:#F5F0E2;stroke:#000000;stroke-width:9.3644;stroke-miterlimit:10;}
	.st12{fill:#29597E;stroke:#000000;stroke-width:2.8238;stroke-miterlimit:10;}
	.st13{fill:#F9E819;}
	.st14{fill:#FBAE16;}
	.st15{fill:#020202;}
	.st16{fill:#FBAE16;stroke:#020202;stroke-width:4.8212;stroke-miterlimit:10;}
	.st17{fill:#ED1E78;stroke:#000000;stroke-width:4.8212;stroke-miterlimit:10;}
	.st18{fill:#FE3922;stroke:#000000;stroke-width:4.8212;stroke-miterlimit:10;}
	.st19{fill:none;stroke:#000000;stroke-width:4.8212;stroke-miterlimit:10;}
</style>
<g id="Layer_1">
</g>
<g id="Layer_3">
</g>
<g id="Layer_4">
</g>
<g id="Layer_5">
</g>
<g id="Layer_6">
</g>
<g id="Layer_7">
</g>
<g id="Layer_8">
</g>
<g id="Layer_2">
	<g>
		<path class="st0" d="M959.53,477.83c-14.45-0.59-29.31,6.12-37.36,18.13c-8.71,13-8.72,29.87-6.92,45.42
			c1.39,12.01,3.67,23.9,5.95,35.77c1.06,5.55,2.16,11.2,4.82,16.19c7.11,13.37,23.32,18.77,38.2,21.58
			c12.31,2.32,25.93,3.46,36.53-3.21c2.35-1.48,4.53-3.38,5.79-5.87c1.57-3.11,1.53-6.76,1.46-10.24
			c-0.31-14.48-0.62-28.97-0.93-43.45c-0.27-12.83,1.96-28.73-1.2-41.18C1001.22,492.72,977.67,477.83,959.53,477.83z"/>
		<path class="st0" d="M938.9,482.42c1.77-6.55,3.54-13.09,5.31-19.64c1.69-6.24,2.36-14.78-3.58-17.34
			c-4.07-1.75-8.76,0.83-11.76,4.09c-3,3.26-5.23,7.32-8.88,9.83c-4.91-7.44-14.34-10.86-23.25-10.82
			c-8.91,0.04-17.52,2.99-25.94,5.92c0.24-3.36-3.05-6.16-6.4-6.57c-3.35-0.41-6.64,0.94-9.69,2.38
			c-10.37,4.91-20.03,11.34-28.56,19.01c-5.66,5.09-10.86,10.75-17.07,15.16c-10.9,7.74-24.79,11.57-33.47,21.74
			c-11.58,13.57-10.15,33.58-8.07,51.3c1.38,11.79,2.8,23.71,6.96,34.83c4.05,10.81,10.61,20.57,18.46,29.04
			c18.7,20.2,45.02,33.16,72.43,35.66c8.07,0.74,16.41,0.57,24.01-2.26c7.6-2.83,14.4-8.65,16.83-16.39
			c1.37-4.35,1.31-9.01,1.24-13.58c-0.26-15.88-0.52-31.76-0.77-47.64c-0.32-19.93-0.52-40.54,7.21-58.92
			c0.57-1.35,1.05-3.2-0.15-4.04c-1.2-0.83-2.07,2.3-0.76,1.64"/>
		<path class="st0" d="M788.17,620.88c11.45,37.09,22.94,74.32,29.15,112.64c1.98,12.24,3.45,24.67,7.58,36.35
			s11.33,22.8,22.13,28.9c9.85,5.56,21.54,6.41,32.57,8.92c10.63,2.42,22.08,6.41,31.99,1.87c11.91-5.45,15.58-20.3,17.83-33.2
			c3.78-21.72,7.57-43.68,6.13-65.68c-1.16-17.65-5.71-34.86-11.76-51.43c-5.52-15.13-11.54-36.25-21.48-49.03
			c-10.13-13.02-26.47,6.49-36.25,13.23c-14.33,9.88-22.09,4.58-36.3-2.91c-6.91-3.64-14.41-6.55-22.34-6.69
			C805.27,613.81,786.72,616.19,788.17,620.88z"/>
		<path class="st0" d="M883.11,625.11c0.88,9.64,4.49,19.2,11.15,26.23c3.61,3.82,9.03,6.97,13.94,5.11
			c2.79-1.06,4.81-3.58,6.08-6.28c3.11-6.58,2.5-14.24,1.81-21.48c-0.17-1.75-0.33-3.51-0.75-5.22c-0.43-1.76-1.12-3.44-1.8-5.11
			c-3.24-7.9-8.49-28.74-19.99-26.16C882.03,594.76,882.33,616.57,883.11,625.11z"/>
		<path class="st0" d="M820.62,817c-8.72,26.93-28,48.93-41.85,73.62c-0.71,1.26-1.42,2.6-1.47,4.04c-0.06,1.98,1.12,3.76,2.27,5.38
			c23.69,33.51,51.42,64.16,82.41,91.06c3.59-19.2,13-36.72,20.05-54.94c9-23.26,14.18-47.79,19.33-72.2
			c5.46-25.88,10.72-68.3-20.07-81.62c-9.72-4.21-21.42-1.94-31.41-0.07C829.91,786.02,826.37,799.27,820.62,817z"/>
		<path class="st0" d="M887.08,825.49c-3.99,14-3.85,28.79-3.68,43.34c0.1,8.82,0.2,17.63,0.3,26.45c0.13,11.7,0.2,23.77-4.22,34.6
			c-1.61,3.95-3.84,7.86-3.75,12.13c0.09,4.27,3.86,8.82,7.99,7.73c3.1-0.82,4.66-4.19,5.82-7.18
			c7.26-18.76,14.52-37.51,21.79-56.27c6.78-17.52,13.64-35.36,15.01-54.09c0.76-10.36,0.85-51.5-13.35-45.36
			C900.36,792.31,890.56,813.28,887.08,825.49z"/>
		<path class="st0" d="M939.36,633.84c-21.26,23.92-42.98,48.58-54.16,78.56c-11.08,29.72-10.91,62.27-10.6,93.98
			c0.28,28.46,0.56,56.93,0.84,85.39c0.25,25.43,1.73,53.84,20.2,71.32c18.97,17.95,50.46,16.96,72.86,3.53
			c22.4-13.43,37.16-36.61,48.2-60.28c9.81-21.04,17.35-43.15,22.43-65.8c1.54-6.87,2.87-13.85,2.84-20.89
			c-0.02-4.09-0.49-8.17-0.97-12.24c-1.51-12.98-3.03-25.97-4.54-38.95c-1.7-14.58-3.43-29.28-7.92-43.26
			c-2.14-6.65-4.9-13.12-6.61-19.9c-2.36-9.41-2.63-19.24-4.68-28.73c-3.41-15.8-11.6-30.09-19.67-44.09
			c-5.79-10.05-12.58-28.36-26.79-26.23C958.24,608.14,947.15,625.08,939.36,633.84z"/>
		<path class="st0" d="M967.64,636.04c-0.65,9.93,5.92,18.76,12.46,26.27c2.74,3.15,5.6,6.31,9.23,8.37s8.2,2.89,12,1.16
			c3.91-1.78,6.25-5.83,7.83-9.82c2.79-7.07,3.96-14.77,3.4-22.36c-0.31-4.25-1.16-8.46-1.33-12.72
			c-0.47-11.7,5.79-39.66-15.19-34.71C981.32,595.69,968.53,622.52,967.64,636.04z"/>
		<path class="st0" d="M1076.88,516.63c-7.37,0.74-14.75,1.49-22.12,2.24c-1.66,0.17-3.45,0.39-4.67,1.53
			c-1.34,1.25-1.61,3.24-1.8,5.07c-2.09,21.13-2.55,42.43-1.38,63.63c1.41,25.47,5.28,51.2,15.93,74.38
			c10.64,23.18,28.71,43.74,52.36,53.29c13.91,5.62,29.14,7.26,44.14,7.28c11.91,0.02,23.92-0.95,35.36-4.29
			c14.26-4.16,27.37-11.9,41.88-15.06c13.87-3.02,28.67-1.61,41.72,3.96c12.49,5.33,23.08,14.2,34.61,21.37
			c11.53,7.18,25.02,12.83,38.41,10.57c7.99-1.34,15.23-5.39,22.29-9.37c20.09-11.32,40.18-22.65,60.27-33.97
			c3.94-2.22,7.99-4.54,10.76-8.12c1.43-1.85,2.47-3.98,3.49-6.09c3.25-6.7,6.5-13.4,9.76-20.1c3.69-7.6,7.4-15.25,9.59-23.41
			c7.55-28.11-5.82-60.48-31-75.07c-8.24-4.78-17.78-7.79-27.27-6.88c-25.77,2.47-44.71,32.33-70.42,29.29
			c-12.47-1.48-22.46-10.52-32.61-17.9c-28.41-20.68-63.47-30.51-98.4-34.39c-34.93-3.88-70.19-2.19-105.34-1.99
			c-5,0.03-10.1,0.01-14.83-1.61c-9.3-3.19-17.81-12.45-27.11-9.28c1.59,0.45,3.18,0.89,4.77,1.34"/>
		<path class="st0" d="M1254.07,435.96c-3.28-0.81-6.22,2.1-8.15,4.86c-22.35,31.92-13.03,78.07-34.34,110.69
			c-3.6,5.51-8.12,10.59-13.88,13.79c-8.09,4.51-17.82,4.92-27.06,4.18c-26.17-2.11-50.87-12.47-75.05-22.71
			c-2.42-1.03-4.93-2.11-6.69-4.06c-1.26-1.4-2.06-3.16-3.19-4.67c-3.49-4.64-9.59-6.26-15.13-8c-5.54-1.74-11.54-4.47-13.55-9.92
			c7.33-4.33,14.73-8.69,22.85-11.24c9.92-3.12,20.6-3.44,30.39-6.98c5.59-2.02,10.75-5.04,16.03-7.78
			c15.98-8.27,33.16-13.91,49.93-20.44c23.78-9.26,46.84-20.36,68.92-33.17"/>
		<path class="st0" d="M1274.62,421.32c-33.78,13.29-62.93,38.03-81.54,69.2c-4.06,6.79-7.66,13.97-9.42,21.68
			c-1.78,7.79-1.62,15.87-2.18,23.84c-0.71,9.99-2.55,19.96-1.96,29.96c0.59,10,4.04,20.42,11.91,26.62
			c11.18,8.82,27.16,6.63,41.16,4.06c14-2.57,30.05-4.6,41.07,4.42c3.53,2.89,6.19,6.69,9.38,9.97c6.49,6.68,14.98,11.01,23.44,14.9
			c22.36,10.3,45.71,18.46,69.62,24.32c9.74,2.39,20.23,4.35,29.59,0.75c11.12-4.28,17.94-15.32,23.48-25.87
			c6.06-11.54,11.65-23.61,13.38-36.53c1.83-13.66-0.75-27.47-3.31-41.01c-1.64-8.66-3.37-17.55-8.13-24.97
			c-5.8-9.03-15.38-14.8-24.62-20.26c-9.24-5.45-18.98-11.06-29.7-11.47c-7.92-0.3-17.43,1.72-22.52-4.36
			c-2.95-3.52-3.93-9.39-8.41-10.4c-2.79-0.63-5.68,1.26-7.07,3.77c-1.39,2.5-1.61,5.47-1.68,8.34c-0.1,4.35,0.08,8.7,0.26,13.05
			c0.25,6,0.5,12.01,0.75,18.01c0.54,12.87,1.08,25.79,3.22,38.49c-12.57-16.31-21.88-34.85-31.11-53.26
			c-7.84-15.64-15.68-31.28-23.52-46.92c-4.4-8.77-8.91-18.11-8.1-27.88c0.1-1.19,0.22-2.54-0.6-3.41
			c-0.67-0.71-1.74-0.82-2.71-0.86c-13.38-0.52-26.86,5.57-35.32,15.95"/>
		<path class="st0" d="M1256.6,438.48c-1.41,7.33,2.86,15.13,9.41,18.72c3.36,1.84,7.64,3.15,8.92,6.76
			c0.79,2.23,0.36,5.2,2.34,6.49c0.98,0.64,2.27,0.6,3.37,0.22c3.85-1.34,5.35-5.94,5.99-9.97c1.72-10.79,2.32-29.19-6.6-37.37
			C1270.12,414.26,1258.39,429.11,1256.6,438.48z"/>
		<path class="st0" d="M1402.38,511.23c-6.32,6.52-12.63,13.05-18.95,19.57c-1.97,2.04-4,4.16-4.95,6.83
			c-1.18,3.28-0.56,6.91,0.17,10.32c2.06,9.61,4.95,19.05,8.63,28.17c1.89,4.68,4.01,9.31,6.9,13.45c3.4,4.85,7.78,8.91,12.26,12.79
			c7.45,6.45,15.26,12.49,23.38,18.08c3.6,2.48,7.56,5.28,8.54,9.55c1.2,5.21-2.53,10.81-0.72,15.84c1.3,3.59,5.19,5.73,8.99,6.08
			s7.58-0.72,11.25-1.79c3.07-0.89,6.24-1.84,8.71-3.87c1.63-1.35,2.87-3.1,4.05-4.86c6.26-9.31,11.48-19.31,15.56-29.75
			c2.79-7.13,5.04-15.09,2.58-22.34c-1.13-3.33-3.18-6.26-5.21-9.13c-4.15-5.89-8.71-12.1-15.48-14.6c-0.41-0.15-0.84-0.3-1.17-0.58
			c-0.64-0.55-0.77-1.47-0.89-2.31c-1.01-6.92-4.3-13.27-7.55-19.47c-1.75-3.35-3.51-6.71-5.72-9.79c-2.36-3.29-5.19-6.2-8.01-9.11
			c-6.07-6.25-12.58-15.92-20.16-20.29C1416.26,499.24,1408.07,505.35,1402.38,511.23z"/>
		<path class="st0" d="M1079.19,653.4c-6.38-5.48-7.56-14.84-7.4-23.25c0.16-8.41,1.14-17.25-2.44-24.87
			c-1.57-3.35-4.13-6.4-7.57-7.76c-3.44-1.36-7.82-0.67-10.13,2.22c-1.28,1.6-1.82,3.66-2.3,5.65c-3.92,16.23-6.21,32.79-8.49,49.33
			c-1.18,8.55-2.36,17.15-1.97,25.77c0.23,5.02,0.99,9.99,1.75,14.95c1.77,11.54,3.54,23.07,5.31,34.61
			c2.93,19.11,6.22,39.09,17.89,54.5c4.04,5.33,9,9.96,14.6,13.62c4.56,2.98,9.66,5.35,15.08,5.81c7.26,0.61,14.32-2.21,20.98-5.15
			c6.43-2.83,12.9-5.89,18.06-10.66c3.64-3.37,6.5-7.47,9.33-11.55c4.84-6.97,9.78-14.13,11.89-22.35
			c1.27-4.94,1.48-10.09,1.55-15.19c0.22-14.36-0.63-29.2-6.88-42.13c-6.25-12.93-19.04-23.6-33.4-23.47"/>
		<path class="st0" d="M1165.2,652.24c-17.2-3.58-37.52-1.46-48.53,12.23c-5.86,7.29-8.21,16.96-7.92,26.31
			c0.3,9.35,3.06,18.46,6.52,27.15c4.16,10.44,9.45,20.84,9.67,32.08c0.05,2.49-0.21,5.13-1.64,7.17c-1.76,2.51-4.89,3.58-7.5,5.2
			c-3.7,2.29-6.47,5.77-9.16,9.18c-5.94,7.53-11.88,15.05-17.82,22.58c-0.43,0.54-0.88,1.14-0.89,1.83c-0.02,0.69,0.4,1.3,0.81,1.86
			c3.66,5.1,7.44,10.31,12.65,13.81c4.48,3.01,9.79,4.58,15.09,5.6c28.95,5.57,58.62-4.03,85.51-16.11
			c8.92-4.01,17.77-8.34,25.56-14.25c4.31-3.28,8.26-7.01,12.2-10.73c11.83-11.2,23.72-22.45,33.62-35.39
			c8.29-10.83,15.09-22.72,21.61-34.7c2.64-4.85,5.31-9.99,5.28-15.51c-0.05-9.2-7.59-16.72-15.68-21.1
			c-9.3-5.04-20.04-7.21-30.57-6.58c-9.02,0.54-17.45,4.43-26.41,4.94C1206.23,669,1185.65,656.5,1165.2,652.24z"/>
		<path class="st0" d="M1356.05,710.31c-12.36-6.8-20.63-22.06-34.7-22.93c-8.31-0.51-15.87,4.4-22.74,9.1
			c-2.35,1.61-4.73,3.24-6.59,5.39c-6.73,7.74-5.09,19.44-7.63,29.38c-1.84,7.17-5.93,13.51-9.2,20.16
			c-9.3,18.92-11.87,40.4-12.98,61.45c-0.64,12.27-0.64,25.34,5.79,35.81c1.11,1.82,2.43,3.55,4.14,4.82
			c1.93,1.44,4.28,2.24,6.65,2.66c15.29,2.76,29.05-8.69,43.6-14.15c8.35-3.13,17.58-4.43,24.88-9.55
			c7.52-5.27,11.91-13.82,16.23-21.92c12.67-23.75,27.2-46.52,43.4-68.02c9.35-12.41,19.35-24.55,25.94-38.62
			c3.09-6.59,5.39-13.51,7.68-20.42c1.06-3.2,2.14-6.55,1.69-9.89c-1.02-7.55-8.96-11.83-15.94-14.88
			c-5.35-2.34-10.87-4.72-16.71-4.85c-4.94-0.11-9.76,1.4-14.46,2.92c-17.54,5.66-34.99,11.58-52.35,17.77"/>
		<path class="st0" d="M1291.18,719.19c-0.32-0.52-0.79-1.09-1.4-1.04c-0.36,0.03-0.66,0.28-0.94,0.53
			c-6.59,5.8-13.48,12.05-16.05,20.45c-1.35,4.43-1.38,9.13-1.86,13.74c-0.4,3.85-1.38,7.61-1.94,11.38
			C1295.13,772.69,1301.26,735.27,1291.18,719.19z"/>
		<path class="st0" d="M1288.91,844.11c-1.29,1.26-3.54,1.05-4.98-0.05s-2.23-2.83-2.82-4.54c-2.91-8.45-2.4-18.47-8.26-25.22
			c-1.3-1.5-2.87-2.77-4.14-4.31c-3.5-4.26-4.25-10.08-4.86-15.55c-8.83,24.51-9.31,51.16-8.6,77.21
			c1.14,42.17,5.11,84.21,9.08,126.2c1.11,11.8,2.23,23.6,3.34,35.4c0.31,3.28,1,7.14,3.99,8.54c3.18,1.49,6.77-0.8,9.46-3.07
			c16.27-13.72,29.57-30.61,41.79-48.03c7.23-10.31,14.19-20.96,18.53-32.78c3.98-10.85,5.65-22.41,6.47-33.94
			c1.51-21.18,0.21-42.55-3.84-63.39c-1.07-5.52-2.39-11.13-5.44-15.85c-3.05-4.72-8.18-8.46-13.8-8.41"/>
		<path class="st0" d="M1286.47,923.12c-3.16,0.21-4.65-3.77-5.15-6.89c-1.56-9.76-3.12-19.53-4.68-29.29
			c-0.41-2.54-0.88-5.23-2.61-7.14c-3.21-3.54-9.4-2.52-12.78,0.86c-3.38,3.38-4.64,8.28-5.68,12.94c-2.92,13.19-5.1,26.6-5.23,40.1
			c-0.22,22.29,5.25,44.62,15.75,64.29c4.9,9.19,11.08,18.61,10.33,29c-0.41,5.69-2.59,12.41,1.5,16.38
			c2.93,2.84,7.81,2.5,11.45,0.65c3.64-1.85,6.51-4.88,9.83-7.26c6.97-4.99,15.81-6.99,22.47-12.39c2.83-2.3,5.17-5.13,7.49-7.95
			c10.15-12.33,20.3-24.66,30.44-36.99c5.67-6.89,11.45-13.96,14.42-22.37c0.93-2.62,1.57-5.38,1.46-8.16
			c-0.09-2.28-0.69-4.5-1.28-6.7c-8.39-31.4-15.47-63.14-21.22-95.12c-0.85-4.72-1.72-9.58-4.27-13.63
			c-2.62-4.17-6.82-7.13-11.29-9.18c-8.22-3.76-19.49-3.95-24.77,3.39c-2.09,2.9-2.88,6.51-3.56,10.02
			c-2.03,10.5-3.41,21.13-4.14,31.8"/>
		<path class="st0" d="M941.27,932.77c-2.51-9.82-14.16-14.31-24.3-14.3c-18.4,0.02-36.44,10.49-45.58,26.45
			c-1.98,3.45-3.59,7.25-3.63,11.22c-0.03,3.28,1,6.47,2.22,9.51c3.04,7.58,7.29,14.68,12.54,20.94
			c5.71,6.81,12.55,12.59,18.39,19.29c5.83,6.7,10.76,14.69,11.49,23.55c0.74,9-2.91,17.75-6.96,25.83
			c-4.05,8.08-8.63,16.13-9.98,25.06c-1.35,8.93,1.38,19.19,9.1,23.88c4.76,2.89,10.59,3.25,16.16,3.53
			c8.95,0.45,17.94,0.91,26.87,0.17c9.09-0.75,18.03-2.73,26.93-4.7c26.41-5.84,53.4-11.92,76.37-26.22
			c10.91-6.79,20.66-15.3,29.9-24.23c4.57-4.42,9.07-8.99,12.44-14.38c11.61-18.56,7.34-43.92-5.57-61.6
			c-12.91-17.68-32.86-28.88-53.13-37.13c-7.22-2.94-14.78-5.61-22.57-5.43c-5.34,0.12-10.54,1.58-15.68,3.03
			c-14.28,4.02-28.57,8.04-42.85,12.07c-1.76,0.49-3.97,1.91-3.18,3.55"/>
		<path class="st0" d="M988.55,952.03c4.51,11.03,10.73,22.21,9.33,34.04c-1.66,14-13.33,24.27-23.03,34.5
			c-4.38,4.62-8.57,9.63-10.71,15.62c-1.5,4.2-1.93,8.7-3.26,12.95c-2.06,6.58-6.26,12.53-7.01,19.39
			c-0.81,7.4,2.24,16.01-2.59,21.69c-3.02,3.56-8.03,4.44-12.5,5.78c-4.47,1.34-9.33,4.12-9.85,8.76c9.8,9.83,25.33,10.23,39.22,10
			c14.54-0.24,29.07-0.48,43.61-0.72c32.06-0.53,66.22-1.7,92.58-19.96c9.64-6.67,17.71-15.33,25.7-23.91
			c5.28-5.67,10.7-11.56,13.35-18.84c4.4-12.1,0.38-25.43-0.22-38.29c-0.49-10.56,1.35-21.28-0.73-31.65
			c-2.52-12.56-10.51-23.23-18.21-33.47c-18.18-24.17-36.32-49.31-44.58-78.41c-2.5-8.82-4.56-18.71-11.91-24.19
			c-3.65-2.72-8.16-3.97-12.55-5.16c-18.52-5.02-45.66-20.57-58.25,0.22c-12.62,20.83-18.25,46.44-17.21,70.63
			C980.32,925.06,983.23,939.01,988.55,952.03z"/>
		<path class="st0" d="M1101.2,809.67c-17.64-10.88-33.09-25.28-45.19-42.11c-5.37,12.58-6.36,26.98-2.75,40.17
			c-6.04,0-7.56-8.25-11.17-13.1c-4.11-5.53-12.27-6.78-18.78-4.51s-11.63,7.34-16.03,12.64c-29.93,36.11-34.12,91.36-9.98,131.57
			c10.78,17.96,26.26,32.58,38.84,49.32c6.94,9.24,13.27,20.4,11.08,31.74c-1.58,8.22-7.35,14.89-11.37,22.24
			c-4.02,7.34-6.04,17.23-0.56,23.56c3.81,4.39,9.98,5.63,15.51,7.43c10.12,3.3,19.34,9.31,26.42,17.25
			c-2.32,2.78-4.63,5.55-6.95,8.33c7.43-0.01,14.85-0.02,22.28-0.03c3.28,0,7.95,2.72,5.73,5.13c5.02,2.48,11.22,0.49,15.68-2.9
			c4.46-3.39,7.81-8.02,11.97-11.77c6.73-6.07,15.44-9.73,21.78-16.2c12.42-12.7,12.74-33.27,7.15-50.13
			c-1.22-3.67-2.68-7.34-2.84-11.2c-0.12-3.02,0.56-6.02,0.5-9.03c-0.18-7.84-5.3-14.59-7.87-22c-3.16-9.13-2.39-19.06-2.86-28.71
			c-1.04-21.45-8.35-42.03-15.59-62.24c-3.96-11.07-7.93-22.14-11.89-33.22c-0.65-1.82-1.32-3.73-1.09-5.65
			c0.54-4.61,5.56-7,9.49-9.48c8.26-5.2,13.93-14.31,14.95-24.01c1.02-9.7-2.62-19.79-9.61-26.6c-5.15-5.01-11.78-8.16-18.28-11.22
			c-6.13-2.88-12.26-5.77-18.39-8.65c-4.11-1.93-8.32-3.89-12.84-4.31s-9.49,1.01-12.12,4.71"/>
		<path class="st1" d="M933.76,319.14c-5.14-8.71-17.18-10.14-27.2-8.79c-24.05,3.24-46.42,17.32-59.75,37.6
			c-4.27,6.49-7.62,13.54-10.97,20.55c-18.66,39.19-37.73,80.1-37.37,123.5c4.58-0.24,7.35-4.95,9.79-8.83
			c12.29-19.6,34.83-29.82,56.09-38.96c1.83-0.79,3.92-1.58,5.75-0.78c1.28,0.56,2.12,1.78,3.22,2.65
			c4.35,3.43,10.53,0.37,15.84-1.25c5.29-1.62,11.07-1.6,16.36,0.03c5.68,1.76,10.96,5.36,16.9,5.31c6.71-0.05,12.39-4.7,18.67-7.05
			c1.16-0.43,2.47-0.79,3.61-0.3c1.62,0.69,2.14,2.7,2.4,4.44c1.39,9.59,0.81,19.46-1.7,28.81c8.88-6.82,20.6-8.36,31.01-12.49
			c24.77-9.82,41.64-35.18,44.55-61.67c0.38-3.46,0.54-7-0.31-10.38c-1.11-4.41-3.86-8.2-6.56-11.87
			c-4.95-6.75-9.9-13.49-14.85-20.24c-6.93-9.45-13.98-19.01-23.08-26.39s-20.67-12.44-32.35-11.38"/>
		<path class="st1" d="M976.53,454.99c0.96-0.18-0.5-1.34-1.42-1.01c-4,1.44-8,2.88-12,4.31c-3.77,1.35-7.6,2.74-10.81,5.14
			s-5.76,6-5.91,10c4.69,3.23,11,1.76,16.67,2.25c7.83,0.68,14.71,5.23,21.21,9.64c5.6,3.8,11.4,7.82,14.7,13.72
			c3.02,5.42,3.6,11.81,4.11,17.99c0.62,7.48,1.24,14.97,1.86,22.45c0.37,4.49,0.81,9.17,3.25,12.96c3.98,6.18,12.67,8.2,19.62,5.82
			c6.95-2.39,12.21-8.37,15.38-15c3.17-6.63,4.54-13.96,5.9-21.19c0.33-1.74,0.81-3.69,2.35-4.56c0.72-0.4,1.56-0.5,2.38-0.63
			c3.33-0.52,6.52-1.69,9.69-2.85c16.39-6,33.59-12.57,44.69-26.04c3.23-3.93,5.93-8.59,6.17-13.67c0.28-5.84-2.68-11.29-5.54-16.38
			c-3-5.33-6.13-10.83-11.05-14.47c-2.88-2.13-6.23-3.52-9.6-4.75c-25.53-9.37-53.83-11.08-80.3-4.85
			c-4.71,1.11-9.79,2.77-12.36,6.87"/>
		<path class="st1" d="M1025.71,548.49c-2.18,2.75-6.37-0.12-9.84-0.65c-3.58-0.55-7.09,1.89-8.86,5.05
			c-1.77,3.15-2.15,6.88-2.34,10.5c-1.3,25.07,4.86,49.88,6.96,74.9c0.94,11.19,1.06,22.44,2.08,33.63
			c2.43,26.85,9.95,52.94,17.42,78.84c5.14,17.82,10.29,35.65,15.43,53.47c0.8,2.78,1.69,5.7,3.8,7.67
			c2.63-1.66,2.82-5.36,2.71-8.46c-0.75-21-2.24-41.98-4.48-62.88c-0.69-6.42-1.45-12.85-3.01-19.11c-0.87-3.5-1.99-6.95-2.37-10.54
			c-0.42-3.96,0.08-7.96,0.49-11.92c4.42-42.75-1.25-86.14,4.03-128.8c1.01-8.2,2.43-16.35,4.24-24.41c0.28-1.23,0.55-2.6-0.08-3.7
			c-1-1.75-3.51-1.7-5.5-1.34c-7.43,1.33-14.68,3.7-21.46,7.01c-2.3,1.12-4.91,3.05-4.43,5.56"/>
		<path class="st1" d="M1041.94,540.38c0.11,1.19,0.32,2.43,1.09,3.35c1.07,1.28,2.89,1.56,4.55,1.76c0.47,0.06,0.98,0.1,1.39-0.12
			c0.47-0.26,0.7-0.8,0.87-1.31c1.85-5.37,1.61-11.44-0.67-16.65C1044.98,517.85,1041.66,537.3,1041.94,540.38z"/>
		<path class="st1" d="M1133.23,350.21c-3.92-4.88-10.52-6.58-16.69-7.58c-21.06-3.41-43.26-1.93-62.72,6.8
			c-36.87,16.54-59.17,60.42-50.82,99.95c2.49,11.79,8.2,23.93,19,29.27c9.45,4.67,20.66,3.15,31.03,1.27
			c4.98-0.9,10.13-1.87,15.05-0.69s9.57,5.16,9.78,10.21c0.29,7.03-7.26,11.45-13.71,14.24c4.57,7.53,15.73,6.24,24.16,3.69
			c21.93-6.64,43.17-15.36,64.3-24.22c35.33-14.8,70.62-30.09,103.27-50.1c10.43-6.39,20.59-13.26,31.47-18.84
			c15.41-7.89,32.45-13.3,45.51-24.68c6.18-5.38,11.51-12.61,11.7-20.79c0.19-8.08-4.66-15.47-10.38-21.19
			c-18.23-18.22-45.36-24.18-71.09-25.61c-49.75-2.75-100.2,8.67-143.92,32.57"/>
		<path class="st1" d="M1057.88,221.25c-36.97,9.96-75.79,21.17-102.37,48.73c-13.76,14.26-23.27,32-32.6,49.49
			c-4.95,9.28-10.02,20.05-6.28,29.88c2.58,6.77,8.79,11.36,14.68,15.56c10.13,7.22,20.35,14.48,31.68,19.62
			c16.47,7.46,34.62,10.15,52.06,14.93c16.34,4.48,32.16,10.86,47.04,18.96c7.62,4.15,15.24,8.84,23.83,10.04
			c7.24,1.01,14.57-0.55,21.7-2.14c29.72-6.65,60.9-14.95,82.22-36.71c14.25-14.55,23.33-34.46,40.6-45.25
			c7.37-4.61,16.23-7.57,21.34-14.6c6.53-8.99,4.67-21.35,2.53-32.25c-2.77-14.12-5.9-28.97-15.44-39.75
			c-5.67-6.41-13.22-10.88-19.17-17.03c-5.94-6.15-10.28-15.2-7.23-23.2c-40.44-3.55-81.22-3.19-121.59,1.1
			c-3.74,0.4-8.3,1.5-9.23,5.14"/>
		<path class="st1" d="M1096.4,234.31c2.54-2.64,3.71-6.54,3.03-10.15c-0.09-0.46-0.21-0.93-0.48-1.31
			c-0.37-0.52-0.97-0.81-1.56-1.06c-5.76-2.44-12.2-2.55-18.46-2.55c-5.99,0-12.38,0.19-17.3,3.61
			c-9.15,6.38,6.96,11.97,11.93,13.83C1080.35,239.22,1091,239.92,1096.4,234.31z"/>
		<path class="st1" d="M1340.02,315.08c-5.51-12.46-11.02-24.92-16.52-37.39c-1.45-3.28-2.92-6.59-5.1-9.44
			c-2.47-3.23-5.75-5.73-8.99-8.19c-15.57-11.81-31.39-23.77-49.58-30.93c-15.38-6.05-31.93-8.45-48.38-10.03
			c-5.67-0.54-11.5-0.98-16.98,0.57c-8.09,2.3-14.51,8.8-18.33,16.29c-3.82,7.49-5.34,15.94-6.23,24.31
			c-1.61,15.01-1.35,30.46,3.21,44.85s13.78,27.69,26.97,35.04c21.22,11.83,47.83,6.52,71.17,13.25c1.32,0.38,2.68,0.82,3.71,1.74
			c2.51,2.22,2.14,6.36,0.46,9.27c-4.52,7.84-15.97,10.41-18.84,19c-2.01,6.03,1.37,12.8,6.4,16.68c5.04,3.88,11.4,5.51,17.57,7.04
			c1.62,14.49,4.12,30.57,15.61,39.55c7.78,6.08,18.14,7.53,27.98,8.23c12.5,0.89,25.25,0.87,37.35-2.4
			c12.1-3.27,23.6-10.1,30.5-20.57c7.09-10.77,8.69-24.12,10.1-36.94c1.33-12.06,2.43-25.18-4.06-35.42
			c-2.72-4.3-6.59-7.74-9.72-11.74c-5.93-7.58-9.23-17.17-16.27-23.73c-6.63-6.18-15.69-8.84-24.17-12.02
			c-1.99-0.75-4.04-1.58-5.48-3.15c-0.99-1.08-1.62-2.43-2.24-3.75c-1.98-4.26-3.96-8.52-5.94-12.78c-3.76,0.25-7.52,0.5-11.28,0.74
			"/>
		<path class="st1" d="M1391.75,346.27c0.55-3.04-1.89-5.78-4.44-7.53c-2.14-1.48-4.56-2.66-7.15-2.94s-5.37,0.47-7.15,2.37
			c-0.75,0.79-1.31,1.83-1.25,2.92c0.1,1.59,1.46,2.77,2.74,3.7c4.34,3.14,9.12,5.66,14.15,7.47c0.28,0.1,0.6,0.25,0.64,0.54
			c0.04,0.29-0.52,0.43-0.51,0.14"/>
		<path class="st1" d="M1299.75,433.89c-2.66-1.45-5.6-3.25-6.22-6.22c-0.14-0.66-0.15-1.37-0.5-1.96
			c-0.79-1.35-2.96-1.22-4.08-0.12c-1.12,1.1-1.44,2.76-1.64,4.31c-2.8,21.48,6.91,42.39,16.37,61.87
			c2.06,4.24,4.12,8.48,6.18,12.72c3.21,6.61,6.43,13.25,8.58,20.28c0.85,2.78,1.61,5.76,3.67,7.81c2.15,2.14,5.33,2.86,7.81,4.6
			c4.64,3.25,6.49,9.77,11.62,12.19c3.71-22-5.07-44.23-4.6-66.53c0.02-1.1,0.1-2.29,0.81-3.14c0.72-0.86,1.92-1.15,3.05-1.22
			c8.09-0.55,14.62,6.87,17.44,14.48c14.93-1.24,30.1,0.56,44.32,5.28c1.94,0.64,4,1.44,5.16,3.12c-2.41-13.5-2.2-27.46,0.63-40.87
			c0.74-3.53,1.67-7.06,1.67-10.67c0-3.38-0.83-6.69-1.64-9.97c-2.99-11.99-5.98-23.99-8.98-35.98
			c-1.86-7.47-4.46-15.87-11.42-19.16c-4.57-2.16-9.92-1.51-14.89-0.63c-20.28,3.6-40,10.32-58.25,19.86
			c-7.08,3.7-14.72,8.97-15.53,16.92"/>
		<path class="st1" d="M908.03,579.95c-0.17,10.41-0.33,20.89,1.51,31.13c1.92,10.72,5.98,20.92,10.01,31.03
			c0.29,0.72,0.65,1.52,1.38,1.8c0.62,0.24,1.31,0.01,1.93-0.22c16-6.05,29.05-19.46,34.67-35.62c-4.5,0.13-9.13,0.25-13.36-1.31
			c-2.55-0.94-4.84-2.46-7.1-3.96c-6.89-4.6-14.05-9.62-17.56-17.12c-2.2-4.7-2.75-9.98-3.22-15.15
			c-0.96-10.56-1.84-21.18-2.17-31.78c-0.07-2.2,1.21-15.66-1.55-16.37c-5.16-1.34-3.95,20.94-3.99,23.57
			C908.39,557.27,908.21,568.61,908.03,579.95z"/>
		<path class="st1" d="M917.95,570.13c-0.31-1.54-0.85-3.51-2.41-3.65c-1.44-0.13-2.27,1.41-2.6,2.91
			c-0.05,0.24-0.09,0.49-0.12,0.72c-0.38,3.35-1.16,17.29,4.28,15.45C923.44,583.42,918.65,573.55,917.95,570.13z"/>
		<path class="st2" d="M944.07,1123.36c14.86,2.22,29.99,1.11,44.95-0.2c26.64-2.34,53.23-5.32,79.73-8.94
			c9.37-1.28,18.77-2.65,27.83-5.35c24.78-7.4,46.29-25.14,58.28-48.06c3.08,5.43-1.29,11.91-2.19,18.09
			c-1.21,8.28,3.97,15.94,6.71,23.85c2.48,7.14,2.99,14.79,3.48,22.33c1.73,26.64,3.39,53.94-4.27,79.52
			c-6.99,23.34-21.45,43.9-38.63,61.18c-17.18,17.28-37.1,31.55-57.04,45.56c-6.21,4.37-12.52,8.76-19.6,11.51
			c-21.26,8.26-46.31-0.08-62.95-15.68c-16.64-15.6-26.24-37.24-33.32-58.93c-3.53-10.82-6.99-22.5-15.82-29.69
			c-6.35-5.17-15.39-8.01-18.49-15.59c-1.73-4.22-1.12-8.99-0.67-13.53c2.31-23.02-0.43-45.55-6.43-67.79
			c-2.95-10.96-3.18-16.26,7.76-9.39C922.78,1118.12,933.14,1121.73,944.07,1123.36z"/>
		<path class="st2" d="M983.97,1262.79c-10.9-10.96-21.8-21.92-32.7-32.88c-4.24-4.26-8.68-8.88-9.85-14.78
			c-1.21-6.05,0.32-14.23-5.29-16.8c-3.03-1.39-6.79-0.11-9.82-1.52c-2.01-0.94-3.46-2.97-5.62-3.49c-2.89-0.7-5.76,1.75-6.67,4.58
			s-0.4,5.88,0.01,8.82c5.67,40.55-9.41,81.35-7.68,122.26c0.84,19.81,5.6,39.21,10.33,58.46c1.86,7.58,3.73,15.16,5.59,22.73
			c2.08,8.44,4.35,17.26,10.18,23.71c8.5,9.4,22.42,11.46,35.1,11.25c12.9-0.21,26.12-2.28,37.27-8.78
			c17.76-10.35,27.64-30.11,42.8-43.98c11.97-10.95,26.92-17.95,41.63-24.8c7.8-3.63,16.34-7.35,24.72-5.4
			c4.03,0.94,7.71,3.15,11.8,3.81c10.04,1.62,19.19-6.57,23.88-15.59c4.68-9.03,6.63-19.34,11.86-28.06
			c2.1-3.5,4.71-6.71,6.31-10.46c5.47-12.77-1.98-27.69,0.93-41.27c1.34-6.24,4.84-11.99,5.18-18.36c0.3-5.53-1.82-10.85-3.16-16.22
			c-2.2-8.81-2.32-17.99-2.44-27.07c-0.38-30.42-0.77-60.84-1.15-91.26c-0.05-4.31-0.11-8.65,0.63-12.9
			c0.63-3.6,1.81-7.08,2.45-10.68c2.21-12.45-2.77-25.93-12.56-33.94c-13.05,13.92-29.77,23.81-46.62,32.78
			c-21.5,11.44-43.6,21.67-65.7,31.91c-6.79,3.14-13.57,6.28-20.36,9.43c-4.97,2.3-10.4,4.66-15.75,3.47
			c-5.35-1.19-9.66-7.78-6.54-12.28c-15.85,2.54-31.95,5.89-45.67,14.22c-13.72,8.33-24.8,22.57-25.36,38.6"/>
		<path class="st2" d="M986.12,1170.66c22.9-2.67,45.26-9.89,65.4-21.12c5.73-3.2,11.41-6.82,15.41-12.02s6.09-12.29,3.9-18.47
			c-2.83-8-11.94-12.27-20.43-12.5c-8.49-0.23-16.7,2.64-24.94,4.68c-33.78,8.36-69.36,2.84-103.33-4.71
			c-5.3-1.18-11.61-2.14-15.5,1.64c-1.46,1.42-2.34,3.34-3.06,5.25c-6.07,16.09-3.21,34.01-0.22,50.95
			c5.85,33.13,11.9,66.22,18.16,99.28c1.23,6.49,3.61,14.24,10.05,15.73c3.23,0.75,6.57-0.41,9.61-1.71
			c31.65-13.52,53.29-42.86,80.75-63.61c18.22-13.76,39.21-23.86,55.97-39.37c4.48-4.15,8.77-8.91,10.34-14.81
			c2.37-8.92-1.95-18.1-6.14-26.32c-2.4-4.7-4.91-9.54-9.02-12.85c-4.11-3.31-10.27-4.67-14.68-1.77"/>
		<path class="st2" d="M976.84,1432.65c-12.64-3.84-15.51-20.4-24.65-29.95c-6.31-6.6-15.42-9.56-24.14-12.28
			c-1.64-0.51-3.32-1.03-5.03-0.93c-4.82,0.29-8.07,5.42-8.42,10.24s1.32,9.52,2.12,14.28c0.87,5.17,0.73,10.53,2.22,15.56
			c4.2,14.24,20.06,21.79,34.8,23.51c19.11,2.23,38.3-2.36,57.53-3.05c14.66-0.52,29.29,1.22,43.95,1.64
			c30.19,0.85,60.54-4.01,88.95-14.25c4.33-1.56,8.94-3.51,11.28-7.47c1.62-2.75,1.89-6.06,2.12-9.24
			c2.7-37.13,4.96-74.3,6.8-111.48c0.18-3.7,0.28-7.68-1.78-10.75c-1.82-2.7-4.98-4.15-8.06-5.2c-27.84-9.51-57.86,3.31-84.46,15.87
			c-34.18,16.14-68.35,32.28-102.53,48.42c-4.5,2.12-9.84,5.97-8.4,10.73"/>
		<path class="st2" d="M938.74,1446.6c-0.13-0.79-0.99-1.19-1.67-1.61c-1.95-1.2-3.01-3.43-4.67-5.01
			c-0.35-0.33-0.73-0.64-1.19-0.76c-0.41-0.11-0.85-0.07-1.27,0.03c-2.24,0.52-3.89,2.55-4.57,4.75c-0.68,2.2-0.57,4.55-0.38,6.84
			c0.03,0.35,0.06,0.71,0.27,1c0.19,0.26,0.5,0.41,0.8,0.53c1.95,0.8,4.07,1.05,6.17,1.29c1.39,0.16,2.79,0.32,4.18,0.48
			c1.99,0.23,3.99,0.45,6,0.55c2.85,0.14,5.71,0.01,8.56-0.12c1.89-0.09,3.8-0.17,5.65-0.59c1.61-0.36,3.3-1.07,4.07-2.52
			c0.67-1.25,0.5-2.83-0.16-4.09s-1.75-2.24-2.9-3.06c-6.05-4.3-14.02-4.78-21.42-4.15c-0.37,0.03-0.84,0.18-0.84,0.54"/>
		<path class="st2" d="M1039.42,1446.6c-9.36-3.27-19.45-3.81-29.36-3.48c-3.92,0.13-7.88,0.41-11.66,1.48
			c-2.88,0.82-5.61,2.08-8.32,3.34c-2.36,1.1-4.73,2.19-7.09,3.29c-0.64,0.3-1.38,0.72-1.43,1.43c-0.07,1.02,1.24,1.47,2.25,1.57
			c19.23,1.97,38.64-0.52,57.95,0.13c4.43,0.15,8.89,0.46,13.29-0.04c4.41-0.5,8.84-1.88,12.23-4.74c0.51-0.43,1.02-0.96,1.04-1.62
			c0.01-0.41-0.16-0.79-0.36-1.15c-1.83-3.23-5.54-4.86-9.09-5.94c-2.75-0.84-5.57-1.48-8.41-1.92c-3.19-0.49-6.73-0.65-9.33,1.25"
			/>
		<path class="st2" d="M1130.24,1436.25c-13.45-3.18-28.23-0.15-39.34,8.06c-0.32,0.24-0.65,0.49-1.04,0.61
			c-0.8,0.25-1.64-0.08-2.45-0.29c-2.51-0.66-5.16-0.18-7.71,0.31c-3.87,0.75-7.74,1.54-11.6,2.32c-3.06,0.62-6.18,1.27-8.87,2.86
			c-0.33,0.2-0.69,0.46-0.76,0.84c-0.11,0.61,0.55,1.06,1.12,1.31c4.64,1.99,9.84,2.05,14.89,2.05c10.07,0,20.14-0.11,30.21-0.21
			c12.63-0.13,25.26-0.26,37.89-0.4c4.13-0.04,8.39-0.12,12.15-1.83c3.75-1.71,6.87-5.54,6.42-9.64c-0.52-4.7-5.23-7.72-9.68-9.31
			c-5.34-1.9-11.11-2.75-16.73-2c-5.62,0.75-11.08,3.16-15.11,7.15"/>
		<path class="st2" d="M1155.95,1425.47c-0.71-0.21-1.48-0.14-2.2,0.02c-2.98,0.69-5.39,3.04-6.79,5.76
			c-1.4,2.72-1.93,5.81-2.25,8.86c-0.24,2.31-0.37,4.63-0.81,6.91c-0.39,2.04-1.21,4.26-3.08,5.17c2.86,0.02,5.43,1.74,8.24,2.23
			c1.02,0.18,2.07,0.2,3.11,0.21c3.58,0.05,7.17,0.11,10.75,0.16c0.55-3.46-0.45-6.95-0.64-10.45c-0.13-2.49,0.15-4.99,0.1-7.48
			c-0.04-2.06-0.32-4.11-0.59-6.15c-0.21-1.56-0.04-3.39-1.8-3.62c-0.72-0.1-1.2,0.08-1.9-0.28
			C1157.32,1426.42,1156.82,1425.73,1155.95,1425.47z"/>
		<path class="st3" d="M768.7,888.43c19.63,42.35,52.18,78.61,92.17,102.68c3.11-4.49,6.23-8.98,9.34-13.46
			c10.26,12.12,20.51,24.23,30.77,36.35c2.6,3.07,5.28,6.31,6.12,10.25c1.07,5.02-1.05,10.09-2.92,14.87
			c-12.2,31.17-15.22,65.87-8.59,98.68c2.37,11.7,5.94,23.23,6.7,35.15c1.62,25.35-9.51,49.56-20.38,72.52
			c-16.78,35.44-35.14,72.72-68.11,93.95c-12.5,8.05-26.54,13.36-40.57,18.26c-14.12,4.93-28.44,9.53-43.24,11.74
			c-59.52,8.85-119.85-23.41-157.21-70.57c-37.36-47.16-54.9-107.09-64.24-166.54c-4.47-28.49-7.12-58.44,2.84-85.49
			c6-16.3,16.26-30.62,26.4-44.72c10.95-15.23,22.21-30.76,37.59-41.49c11.36-7.92,24.48-12.86,37.45-17.72
			c27.35-10.25,54.71-20.51,82.06-30.76c18.57-6.96,37.23-13.95,56.63-18.02"/>
		<path class="st3" d="M633.1,1323.41c-2.23-2.2-5.93-0.12-8.19,2.04c-18.8,17.93-30.74,42.89-32.89,68.78
			c-1.14,13.72-0.31,29.33-10.06,39.04c-1.77,1.76-3.87,3.29-5.07,5.48c-1.2,2.19-1.1,5.4,1.03,6.72c1.71,1.06,3.91,0.49,5.91,0.17
			c4.53-0.74,9.29,0.02,13.36,2.14c2.53,1.32,4.8,3.14,7.43,4.24c7.59,3.19,16.16-0.16,23.92-2.92
			c33.06-11.77,68.8-12.89,103.48-18.31c27.21-4.26,54-11.23,79.84-20.78c12.49-4.62,24.93-9.93,35.4-18.16
			c24.83-19.48,35.1-52.38,38.21-83.79c0.76-7.67,1.16-15.53-0.77-22.99c-3.71-14.38-15.83-25.5-29.52-31.23
			c-13.69-5.74-28.88-6.79-43.73-6.72c-55.68,0.29-111.21,15.82-158.97,44.44"/>
		<path class="st3" d="M683.54,1422.96c-23.5,8.02-46.71,16.88-69.58,26.55c-1.61,0.68-3.55,2.05-2.96,3.69
			c20.18,4.04,40.99,2.87,61.54,1.68c10.17-0.59,20.34-1.18,30.51-1.76c7.52-0.43,15.05-0.87,22.58-1.14
			c25.79-0.92,51.76,0.12,77.26-3.84s51.1-13.51,68.82-32.28c3.75-3.97,7.29-9.6,4.98-14.54c-1.23-2.63-3.84-4.29-6.35-5.74
			c-23.76-13.64-51.44-20.37-78.81-19.17"/>
		<path class="st3" d="M871.01,1429.67c-22.09-2.9-44.82-5.78-66.4-0.25c-16.78,4.29-32.21,13.53-49.37,15.87
			c-8.05,1.09-16.24,0.63-24.33,1.39c-8.09,0.76-16.42,2.95-22.4,8.45c39.49,1.56,79.09,0.34,118.42-3.66
			c7.76-0.79,15.54-1.68,23.34-1.43c8.53,0.28,16.96,1.92,25.47,2.57c11.14,0.85,22.89-0.18,32.38-6.08
			c9.49-5.89,15.97-17.63,13.03-28.41c-0.44-1.6-1.12-3.22-2.41-4.26c-1.38-1.1-3.23-1.37-4.98-1.56
			c-20.44-2.24-41.43,0.67-60.49,8.41"/>
		<path class="st3" d="M906.52,1429.72c0.55-1.11-1.04-2.02-2.26-2.25c-14.03-2.66-28.12-5.33-42.39-5.72
			c-14.27-0.38-28.85,1.62-41.67,7.91c-2.94,1.44-5.88,3.2-7.66,5.95c-1.78,2.75-2.03,6.73,0.22,9.11
			c3.66,3.88,11.86,2.09,13.72,7.09c-5.44-0.2-10.87-0.4-16.31-0.59c-2.96-0.11-6.96,0.67-7.09,3.64
			c6.14,4.34,14.48,2.32,21.85,0.84c32.87-6.61,66.8,1.42,100.32,0.65c1.23-6.99-2.67-13.72-4.54-20.57
			c-3.03-11.05-0.81-23.09-4.27-34.02c-0.52-1.64-1.17-3.27-1.35-4.99c-0.21-1.98,0.22-3.96,0.51-5.92
			c2.27-15.59-5.03-32.19-18.06-41.05s-31.15-9.55-44.81-1.7c-10.48,6.02-17.95,16.34-22.73,27.44c-4.77,11.1-7.11,23.07-9.41,34.94
			"/>
		<path class="st3" d="M883.38,1165.15c-1.65-1.9-4.77-1.85-6.92-0.54c-2.15,1.3-3.55,3.53-4.8,5.71
			c-12.19,21.27-17.92,46.18-16.25,70.64c1.22,17.86,6.26,35.25,8.23,53.05c0.74,6.71,1.03,13.63-0.85,20.11
			c-2.27,7.83-7.69,15.55-5.48,23.4c2.41,8.53,12.99,13.11,14.5,21.84c0.51,2.96,0.05,6.47,2.25,8.51c1.05,0.97,2.51,1.36,3.9,1.68
			c10.18,2.33,20.76,2.89,31.13,1.64c2.05-3.75,2.53-8.13,2.94-12.38c3.64-37.43,5.07-75.07,4.29-112.67
			c-0.11-5.4-0.27-10.83-1.39-16.12c-0.87-4.11-2.31-8.08-3.31-12.17c-1.06-4.35-1.62-8.81-2.17-13.25
			c-1.77-14.19-3.54-28.39-5.31-42.58c-0.41-3.27-0.82-6.56-0.7-9.85c0.11-3.16,0.71-6.3,0.72-9.46c0.02-6.44-2.37-12.62-3.46-18.97
			c-2.36-13.81,1.14-29.52-7.15-40.81c-18.66,18.03-28.96,44.37-27.48,70.27c0.45,7.84,1.9,15.82,0,23.44s-8.54,14.86-16.36,14.09"
			/>
		<path class="st3" d="M502.88,1156.09c-10.39,0.62-20.04,7.27-24.94,16.45c-4.54,8.5-5.14,18.48-5.59,28.11
			c-1.53,32.66-2.42,65.64,3.46,97.8c1.55,8.47,3.57,16.85,5.88,25.15c9.9,35.57,25.23,69.63,45.31,100.62
			c5.52,8.52,11.49,16.92,19.27,23.43c7.79,6.52,17.65,11.05,27.79,10.7c4.79-0.17,9.47-1.4,14.03-2.84
			c38.61-12.26,70.57-40.4,94.83-72.85c8.63-11.55,16.51-23.86,21.33-37.46c11.09-31.27,5.03-65.78-2.35-98.13
			c-1.65-7.21-3.39-14.5-6.89-21.02c-4.2-7.8-10.7-14.07-17.18-20.11c-9.12-8.5-18.63-16.94-30.03-21.99
			c-11.8-5.22-24.92-6.5-37.24-10.35c-6.52-2.03-12.8-4.78-19.35-6.69c-15.91-4.62-34.46-5.2-50.91-3.56
			c-6.84,0.68-10.92,3.56-17.13-0.13C516.49,1159.24,511.11,1155.6,502.88,1156.09z"/>
		<path class="st3" d="M569.84,991.53c-4.17-5.01-8.33-10.03-12.5-15.04c-7.58-9.12-15.27-18.34-24.82-25.36
			c-7.47-5.48-17.19-9.61-25.87-6.37c-3.99,1.49-7.28,4.39-10.46,7.22c-2.62,2.33-5.32,4.76-6.82,7.94
			c-2.21,4.69-1.45,10.16-1.45,15.35c0,6.92-1.45,13.74-2.64,20.55c-4.25,24.29-5.32,49.02-5.58,73.67
			c-0.31,28.98,0.46,58.18-4.67,86.7c-1.02,5.65-2.27,11.4-1.51,17.09c0.9,6.75,4.58,12.82,8.81,18.16c2.47,3.1,5.43,6.2,9.31,6.98
			c4.33,0.87,8.63-1.33,12.44-3.58c6.44-3.8,12.7-7.93,18.72-12.36c6.08-4.47,11.97-9.28,16.95-14.94
			c5.63-6.39,10.02-13.78,13.87-21.38c11.47-22.7,18.18-47.45,24.81-72c0.94-3.5,1.9-7.06,1.76-10.68
			c-0.3-7.87-5.63-14.61-7.7-22.21c-2.99-11.01,1.06-22.55,4.4-33.46c0.6-1.96,1.17-4.11,0.39-6.01c-0.48-1.16-1.4-2.07-2.3-2.94
			c-3.95-3.82-7.9-7.64-11.85-11.46c-0.14,1.8-0.28,3.59-0.43,5.39"/>
		<path class="st3" d="M489.9,947.56c-2.1,10.38-4.04,21.22-1.3,31.44c0.73,2.72,1.84,5.44,3.84,7.43
			c5.09,5.08,13.48,3.66,20.52,2.18c20.75-4.35,42.28-6.03,63.18-2.45s41.17,12.68,56.12,27.71c2.56,2.57,5.05,5.37,8.37,6.84
			c7.51,3.32,16.06-1.31,22.51-6.39c22.98-18.08,38.99-43.4,53.67-68.69c1.92-3.31,3.9-6.71,6.9-9.09
			c7.35-5.82,18.16-3.74,26.92-7.07c14.33-5.45,19.04-22.77,24.67-37.02c12.26-31.09,36.65-55.83,51.78-85.62
			c4.46-8.78,8.11-19.2,4.26-28.27c-3.28-7.71-11.11-12.32-18.56-16.14c-53.6-27.45-113.86-41.48-174.08-41.67
			c-23.02-0.07-46.93,2.1-66.87,13.6c-23.9,13.79-29.73,38.68-39.74,62.35c-12.67,29.97-21,62.5-29.1,93.95
			C498.12,909.49,493.76,928.47,489.9,947.56z"/>
		<path class="st3" d="M636.83,676.09c-13.89-2.86-28.01,2.51-41.18,7.77c-9.87,3.95-19.99,8.05-27.81,15.24
			c-3.6,3.32-6.63,7.21-9.42,11.23c-4.26,6.14-8.01,12.63-11.21,19.38c-6.22,13.12-10.3,27.13-14.36,41.07
			c-6.69,22.96-13.43,46.33-13.14,70.24c0.04,3.57,1.79,8.43,5.28,7.66c1.38-0.31,2.37-1.49,3.23-2.61
			c16.9-21.78,30.87-46.04,50.68-65.21c11.56-11.19,26.98-20.95,42.8-17.97c9.93,1.87,18.19,8.45,27.11,13.2
			c10.85,5.77,22.87,8.89,34.77,11.97c8.68,2.24,17.62,4.51,26.52,3.38c10.62-1.34,20.15-7.38,30.69-9.21
			c16.87-2.94,33.47,5.1,50.29,8.32c9.97,1.91,20.26,2.12,30.3,0.63c5.1-0.76,10.88-2.58,12.72-7.4c1.39-3.65-0.05-7.7-1.42-11.36
			c-10.41-27.81-17.23-56.97-20.23-86.51c-0.45-4.45-0.86-9.05-3.04-12.96c-5.58-9.99-19.37-10.86-30.81-10.49
			c-51.58,1.69-103.47,3.42-153.99,13.95c-2.84,0.59-5.86,1.31-7.83,3.44c-1.97,2.12-2.14,6.13,0.39,7.54"/>
		<path class="st3" d="M1110.63,846.97c0.44,3.71,2.75,6.88,4.82,9.98c22.63,33.99,23.18,77.37,28.97,117.78
			c1.39,9.72,3.19,19.56,7.75,28.25c4.69,8.94,12.03,16.14,19.25,23.19c11.04,10.77,22.07,21.54,33.11,32.31
			c4.98,4.86,10.08,9.81,16.39,12.74c11.45,5.32,26.11,2.67,34.97-6.33c12.61-12.81,11.73-33.26,10-51.15
			c-1.95-20.2-3.91-40.4-5.86-60.6c-6.26-64.68-12.34-131.34,6.59-193.5c-9.4,8.07-18.81,16.14-28.21,24.2
			c-12.12,10.4-24.7,21.06-39.94,25.84C1181.12,815.13,1106.63,813.49,1110.63,846.97z"/>
		<path class="st3" d="M1208.17,1029.74c-9.95-8.09-20.22-15.78-30.78-23.05c-4.99-3.43-11.08-6.92-16.76-4.83
			c-7.83,2.87-8.65,13.46-7.94,21.77c4.89,57.48,16.98,114.24,20.41,171.83c1.29,21.65,1.36,43.47,5.16,64.83
			c3.8,21.36,11.67,42.61,26.48,58.45c11.2,11.98,25.78,20.27,40.77,26.93c54.06,24.01,116.55,28.41,173.5,12.4
			c7.84-2.2,15.77-4.88,22.14-9.97c6.34-5.06,10.69-12.16,14.55-19.3c19.89-36.7,30.19-77.69,39.98-118.27
			c3.16-13.07,6.3-26.27,6.61-39.71c0.29-12.72-1.96-25.38-2.03-38.1c-0.18-30.97,12.1-64.01-1.9-91.63
			c-5.35-10.55-14.04-18.97-20.71-28.72c-14.91-21.78-20.06-50.51-40.16-67.62c-7.09-6.03-15.74-10.21-24.86-12.02
			c-4.67-0.92-9.77-1.17-13.94,1.12c-3.44,1.89-5.78,5.25-8,8.49c-11.52,16.85-23.05,33.75-36.47,49.12
			c-14.18,16.23-30.87,30.94-50.94,38.8c-13.77,5.39-28.61,7.37-42.87,11.28c-14.26,3.91-28.63,10.25-37.6,22.01"/>
		<path class="st3" d="M1356.73,827.53c-1.98,3.38-4,6.85-4.69,10.71c-0.73,4.14,0.14,8.37,1,12.48
			c5.58,26.57,11.16,53.15,16.74,79.72c1.7,8.12,3.44,16.32,6.99,23.82c6.05,12.77,17.45,22.9,30.84,27.41
			c13.39,4.52,28.59,3.35,41.14-3.14c5.03-2.6,9.7-6.04,15.16-7.55c5.45-1.51,12.2-0.47,15.26,4.29c2.05,3.19,2.01,7.24,1.89,11.03
			c-0.41,13.55-0.83,27.1-1.24,40.65c-0.12,4.05-0.22,8.27,1.46,11.95s5.69,6.65,9.64,5.74c1.86-0.43,3.43-1.63,4.91-2.83
			c17.23-14.03,30.21-33.21,36.84-54.42c2.41-7.72,3.99-15.68,6.39-23.41c4.88-15.76,13.12-30.54,15.83-46.82
			c3.79-22.78-3.62-45.78-10.98-67.68c-2.75-8.2-5.75-16.77-12.16-22.57c-2.55-2.31-5.54-4.08-8.54-5.77
			c-12.52-7.07-25.6-13.15-39.07-18.18c-12.69-4.74-26.32-7.36-38.49-13.38c-16.15-8-48.28-29.84-61.09-9.44
			C1374.84,795.64,1366,811.76,1356.73,827.53z"/>
		<path class="st3" d="M1501.9,975.39c-13.61-14.42-35.66-20.22-54.61-14.35c-18.94,5.87-33.86,23.12-36.93,42.71
			c-0.91,5.77-0.84,11.79,1.03,17.33c3.16,9.4,11.19,16.48,20.03,20.98c7.36,3.75,16.05,6,23.87,3.35
			c7.25-2.46,12.54-8.69,16.63-15.16c9.25-14.61,14.27-31.85,14.32-49.14c0.02-8.39-1.76-17.89-8.82-22.43"/>
		<path class="st3" d="M1486.84,1000.79c-0.26-2.02-0.52-4.04-0.78-6.07c-3.69,28.73-14.15,56.08-21.36,84.13
			c-7.21,28.05-11.07,58.23-1.63,85.61c3.3,9.56,8.16,18.58,10.69,28.38c2.89,11.2,2.59,23.2-0.86,34.24
			c-3.74,11.97-10.98,22.52-15.94,34.04c-8.47,19.68-10.01,42.25-4.3,62.9c2.22,8.02,7.17,17.02,15.48,17.41
			c10.08,0.47,15.46-11.54,17.65-21.38c10.14-45.62,12.23-92.94,25.3-137.82c2.95-10.12,6.45-20.1,8.48-30.44
			c2.97-15.14,2.71-30.72,4.79-46c1.71-12.59,5-24.91,7.86-37.29c6.54-28.27,10.88-56.99,15.21-85.68
			c2.68-17.72,5.36-35.51,5.58-53.43c0.1-8.3-1.38-18.28-8.95-21.7c-6.49-2.94-13.97,0.67-19.95,4.55
			c-11.64,7.55-22.37,16.51-31.88,26.61c-5.33,5.65-10.4,11.89-12.6,19.34c-2.2,7.45-0.93,16.38,4.91,21.51"/>
		<path class="st3" d="M1307.22,1308.89c-52.15-13.29-95.1-57.57-106.79-110.1c-1.98-8.91-5.39-20.21-14.5-20.86
			c-6.13,6.54-10.02,14.95-12.25,23.63c-2.17,8.46-2.85,17.21-3.53,25.92c-1.58,20.4-3.16,40.8-4.73,61.2
			c-0.75,9.67-1.5,19.34-2.24,29.01c-3.21,41.48-6.42,82.96-9.63,124.44c-0.23,2.97-0.41,6.16,1.09,8.73
			c3.14,5.37,10.98,4.69,17.03,3.28c49.46-11.48,99.41-24.79,150.13-22.37c15.53,0.74,31.02,2.96,46.55,2.39
			c30.4-1.12,59.43-12.87,86.39-26.96c4.65-2.43,9.32-4.98,13.17-8.56c10.53-9.81,12.99-25.3,14.85-39.57
			c1.88-14.47,3.61-29.94-2.9-42.99c-9.3-18.62-32.14-25.96-52.89-27.59c-28.85-2.27-58.26,2.99-84.53,15.12"/>
		<path class="st3" d="M1394.94,1411.63c-51.16,2.36-102.16,8.19-152.53,17.43c-14.7,2.7-29.44,5.71-43.33,11.22
			c-8.2,3.25-16.27,7.53-21.97,14.27c24.59,0.55,49.17,1.1,73.76,1.66c10.5,0.24,21.04,0.47,31.49-0.62
			c7.52-0.79,14.96-2.26,22.5-2.72c9.71-0.59,19.44,0.51,29.17,0.51c17.14,0,34.1-3.43,50.76-7.45
			c19.09-4.61,37.98-10.03,56.62-16.23c3.48-1.16,7.06-2.41,9.74-4.9c2.68-2.5,4.24-6.59,2.71-9.92c-1.1-2.41-3.51-3.92-5.83-5.19
			c-15.86-8.68-34.1-12.94-52.16-12.18c-6.17,0.26-12.96,1.43-16.84,6.23"/>
		<path class="st3" d="M1372.71,1448.92c29.26,7.71,60.09,9.43,90.02,5c3.57-0.53,7.25-1.19,10.23-3.21
			c4.46-3.02,6.55-8.57,7.18-13.92s0.05-10.77,0.49-16.14c0.38-4.66,1.54-9.26,3.4-13.56c1.16-2.67,2.61-5.26,3.28-8.09
			c1.72-7.27-1.88-14.63-5.37-21.23c-1.11-2.09-2.3-4.29-4.32-5.53c-4.42-2.73-10.07,0.35-14.19,3.53
			c-8.97,6.91-17.27,14.69-24.77,23.17c-5.66,6.4-10.42,16.91-17.26,21.92c-6.78,4.97-17.88,4.14-25.69,7.85
			C1386.38,1433.14,1378.2,1440.12,1372.71,1448.92z"/>
		<g>
			<g>
				<g>
					<path d="M1147.59,489.87c1.64,3.95,4.97,6.11,9.11,6.9c4.06,0.77,8.31,0.78,12.42,0.93c8.63,0.31,17.42,0.11,25.86-1.95
						c4.71-1.15,9.29-2.96,13.46-5.45c1.71-1.03,2.34-3.33,1.33-5.06c-1-1.72-3.34-2.36-5.06-1.33c-6.16,3.68-13.61,5.54-20.55,6.15
						c-7.69,0.67-15.46,0.35-23.15-0.16c-0.38-0.03-0.77-0.06-1.15-0.09c-0.17-0.02-0.33-0.04-0.5-0.05
						c0.75,0.08-0.03-0.01-0.18-0.03c-0.82-0.14-1.64-0.31-2.43-0.57c-0.21-0.07-0.41-0.14-0.61-0.22c0.33,0.12,0.32,0.16,0.01-0.01
						c-0.36-0.21-0.72-0.39-1.06-0.63c0.57,0.4-0.07-0.13-0.26-0.32c-0.38-0.39,0.41,0.42,0.03,0.03c-0.1-0.11-0.42-0.8-0.12-0.09
						c-0.77-1.84-2.45-3.16-4.55-2.59C1148.44,485.8,1146.82,488.01,1147.59,489.87L1147.59,489.87z"/>
				</g>
			</g>
			<g>
				<g>
					<path d="M1293.91,510.34c1.91,5.75,6.17,10.29,11.39,13.25c5.78,3.28,12.38,4.53,18.84,5.67c1.97,0.35,3.99-0.53,4.55-2.59
						c0.49-1.79-0.61-4.2-2.59-4.55c-5.56-0.98-11.49-1.95-16.41-4.56c-2.3-1.22-3.65-2.19-5.32-3.9c-1.5-1.53-2.71-3.43-3.33-5.29
						c-0.63-1.9-2.56-3.13-4.55-2.59C1294.64,506.29,1293.28,508.43,1293.91,510.34L1293.91,510.34z"/>
				</g>
			</g>
			<g>
				<g>
					<path d="M1152.15,523.87c-1.86,3.81-3.58,7.67-5.21,11.58c-0.77,1.84-1.5,3.69-2.21,5.56c-0.67,1.75-1.55,3.59-1.88,5.44
						c-0.43,2.49,0.37,5.15,2.79,6.32c2.01,0.98,4.56,0.88,6.41-0.43c3.46-2.46,4.06-7.46,5.14-11.28
						c1.31-4.64,2.63-9.27,3.94-13.91c0.36-1.27-0.02-2.67-0.95-3.6c-1.02-1.02-2.25-1.16-3.6-0.95c-2.87,0.44-4.61,3.13-4.8,5.83
						c-0.14,1.94,1.8,3.79,3.7,3.7c2.12-0.1,3.55-1.63,3.7-3.7c-0.03,0.37-0.1,0.7-0.36,0.99c-0.17,0.19-0.98,0.43-0.28,0.32
						c-1.52-1.52-3.04-3.04-4.55-4.55c-1.23,4.34-2.46,8.68-3.69,13.01c-0.59,2.09-1.18,4.19-1.78,6.28
						c-0.1,0.34-0.22,0.68-0.31,1.02c-0.16,0.41-0.16,0.45-0.01,0.11c-0.1,0.21-0.21,0.42-0.33,0.62c0.26-0.27,0.24-0.25-0.06,0.07
						c0.09-0.06,0.17-0.12,0.26-0.18c-0.36,0.2-0.33,0.19,0.1-0.03c0.51-0.04,0.56-0.05,0.13-0.04c0.7,0.1,1.04,0.3,1.43,0.9
						c0.33,0.36,0.43,0.79,0.28,1.29c0.05-0.25,0.12-0.5,0.2-0.74c0.3-0.96,0.68-1.91,1.03-2.86c0.72-1.94,1.47-3.87,2.25-5.78
						c1.49-3.67,3.23-7.51,5.05-11.25c0.85-1.74,0.53-4.08-1.33-5.06C1155.55,521.67,1153.05,522.01,1152.15,523.87L1152.15,523.87z
						"/>
				</g>
			</g>
			<g>
				<g>
					<path d="M1310.21,542.39c-0.82-1.98-2.19-3.68-4.44-4.06c-2.12-0.36-3.78,0.56-4.55,2.59c-3.14,8.23-5.92,16.6-8.3,25.08
						c-0.73,2.6-1.23,5.43,1.21,7.34c2.06,1.61,4.75,1.1,6.71-0.39c1.67-1.27,2.58-3,3.46-4.86c0.97-2.05,1.83-4.16,2.53-6.31
						c1.49-4.58,2.24-9.43,2.34-14.24c0.04-2-1.73-3.7-3.7-3.7c-2.04,0-3.66,1.69-3.7,3.7c-0.08,4.28-0.72,8.1-2.08,12.27
						c-0.63,1.96-1.29,3.57-2.18,5.35c-0.27,0.53-0.6,1.05-0.84,1.59c-0.19,0.3-0.21,0.34-0.06,0.13c0.16-0.21,0.12-0.17-0.13,0.11
						c-0.32,0.29-0.32,0.29-0.01,0.02c-0.38,0.21-0.36,0.21,0.08,0c1.46-0.32,2.47,0.59,3.03,2.75c0.05-0.22,0.11-0.43,0.17-0.64
						c2.39-8.89,5.34-17.65,8.62-26.24c-1.52,0.86-3.04,1.72-4.55,2.59c0.47,0.13,0.47,0.07,0-0.15c-0.41-0.17-0.65-0.48-0.73-0.95
						c0.77,1.84,2.45,3.16,4.55,2.59C1309.37,546.46,1310.98,544.25,1310.21,542.39L1310.21,542.39z"/>
				</g>
			</g>
			<g>
				<g>
					<path d="M1245.91,558.56c-1.09,13.36-0.43,26.79,1.79,40.01c1.09,6.47,2.58,12.88,4.47,19.17c0.96,3.18,2.01,6.33,3.17,9.44
						c0.28,0.76,0.74,1.61,0.82,2.43c-0.02-0.23,0.08-0.04-0.02,0.39c0.17-0.72-0.28,0.6-0.05-0.01c-0.62,1.61-1.56,3.16-2.33,4.7
						c-3.54,7.09-7.07,14.18-10.61,21.28c-0.89,1.79-0.48,4.01,1.33,5.06c1.64,0.96,4.17,0.47,5.06-1.33c3.24-6.5,6.48-13,9.73-19.5
						c0.74-1.48,1.47-2.95,2.21-4.43c0.89-1.79,1.87-3.54,2.04-5.58c0.15-1.84-0.5-3.51-1.12-5.2c-0.59-1.59-1.15-3.2-1.69-4.81
						c-4.22-12.68-6.79-25.75-7.62-38.94c-0.47-7.56-0.39-15.14,0.22-22.69c0.16-1.99-1.82-3.7-3.7-3.7
						C1247.47,554.86,1246.07,556.56,1245.91,558.56L1245.91,558.56z"/>
				</g>
			</g>
			<g>
				<g>
					<path d="M1217.36,651.63c4.93,0.47,10.06-0.28,14.64-2.17c0.93-0.38,1.68-0.8,2.21-1.7c0.46-0.79,0.66-1.96,0.37-2.85
						c-0.29-0.9-0.84-1.76-1.7-2.21c-0.82-0.43-1.95-0.74-2.85-0.37c-2.11,0.87-4.32,1.5-6.58,1.84c-0.97,0.15,0.65-0.06-0.13,0.02
						c-0.25,0.03-0.5,0.05-0.74,0.07c-0.58,0.05-1.16,0.08-1.74,0.1c-1.16,0.03-2.32-0.02-3.48-0.13c-1.93-0.18-3.79,1.83-3.7,3.7
						C1213.76,650.09,1215.29,651.44,1217.36,651.63L1217.36,651.63z"/>
				</g>
			</g>
			<g>
				<g>
					<path d="M1158.8,699.43c9.77-5.89,21.18-9.63,32.3-10.62c2.9-0.26,5.82-0.36,8.73-0.31c1.35,0.03,2.7,0.09,4.05,0.18
						c0.71,0.05,1.42,0.11,2.12,0.18c0.42,0.04,0.85,0.09,1.27,0.14c0.09,0.01,1.17,0.14,0.71,0.08c5.07,0.66,10,1.71,13.83,4.22
						c0.29,0.19,0.57,0.38,0.84,0.58c-0.59-0.44,0.26,0.23,0.3,0.27c0.5,0.44,0.96,0.93,1.4,1.43c0.47,0.54,0.12,0.16,0.03,0.04
						c0.25,0.37,0.49,0.74,0.71,1.13c0.11,0.2,0.21,0.4,0.31,0.6c-0.33-0.65,0.08,0.21,0.13,0.37c0.86,2.2,2.38,4.15,4.98,4.07
						c2.98-0.09,4.79-2.74,4.24-5.56c-0.38-1.96-2.73-3.09-4.55-2.59c-2.05,0.56-2.97,2.58-2.59,4.55c0.02,0.08,0.03,0.16,0.05,0.24
						c0-0.66,0-1.31,0-1.97c-0.02,0.07-0.05,0.15-0.07,0.22c0.32-0.54,0.63-1.09,0.95-1.63c1.34,0.13,2.67,0.27,4.01,0.4
						c0.15,0.39,0.15,0.38,0-0.02c-0.08-0.21-0.17-0.42-0.26-0.64c-0.29-0.72-0.59-1.42-0.99-2.09c-0.66-1.12-1.49-2.19-2.4-3.11
						c-1.73-1.76-3.87-3.18-6.11-4.2c-5.04-2.32-10.48-3.26-15.96-3.86c-11.32-1.24-22.99-0.01-33.84,3.41
						c-6.26,1.97-12.32,4.69-17.94,8.08c-1.71,1.03-2.35,3.32-1.33,5.06C1154.74,699.81,1157.08,700.46,1158.8,699.43L1158.8,699.43
						z"/>
				</g>
			</g>
			<g>
				<g>
					<path d="M1050.78,489.33c-2.94,22.03-5.43,44.1-7.19,66.25c-1.75,21.99-2.87,44.03-3.35,66.09
						c-0.49,22.17-0.33,44.35,0.46,66.5c0.79,22.05,2.21,44.07,4.26,66.04c2.07,22.18,4.79,44.31,8.14,66.34
						c0.41,2.73,0.84,5.45,1.27,8.17c0.31,1.98,2.78,3.07,4.55,2.59c2.1-0.58,2.9-2.57,2.59-4.55
						c-6.91-43.47-11.27-87.33-13.12-131.3c-1.86-44.08-1.18-88.27,2.03-132.28c1.8-24.7,4.5-49.3,7.77-73.84
						c0.26-1.98-1.89-3.7-3.7-3.7C1052.27,485.63,1051.05,487.34,1050.78,489.33L1050.78,489.33z"/>
				</g>
			</g>
			<g>
				<g>
					<path d="M972.32,512.87c0.75-0.07-0.01-0.14-0.25-0.22c0.51,0.16,0.28,0.2,0.09,0.03c0.04,0.04,0.71,0.9,0.36,0.37
						c0.17,0.26,0.33,0.52,0.47,0.8c0.57,1.07,1.02,2.35,1.43,3.77c0.84,2.91,1.11,5.16,1.01,8.25c-0.17,5.52-2.21,10.37-5.4,15.18
						c-3.02,4.56-6.61,8.79-8.97,13.76c-2.78,5.85-3.43,12.03-2.61,18.42c0.93,7.21,3.22,14.29,3.54,21.32c0.09,2,1.64,3.7,3.7,3.7
						c1.93,0,3.79-1.69,3.7-3.7c-0.32-6.98-2.31-13.68-3.41-20.54c-0.44-2.74-0.66-6.02-0.36-9.09c0.1-1.01,0.49-2.73,0.91-4.03
						c0.2-0.61,0.42-1.22,0.67-1.81c-0.26,0.6,0.26-0.55,0.25-0.53c0.19-0.41,0.4-0.81,0.61-1.21c2.72-5.16,6.62-9.57,9.63-14.54
						c3.44-5.68,5.36-12.16,5.14-18.84c-0.11-3.64-0.78-7.32-2.09-10.72c-1.4-3.61-3.82-8.18-8.43-7.78c-1.99,0.17-3.7,1.58-3.7,3.7
						C968.62,511.04,970.31,513.05,972.32,512.87L972.32,512.87z"/>
				</g>
			</g>
			<g>
				<g>
					<path d="M1007.57,508.59c-7.11-15.07-18.88-28.5-34.87-34.24c-8.19-2.94-17.32-3.64-25.8-1.57
						c-7.79,1.9-14.83,6.39-20.18,12.32c-11.93,13.21-15.39,31.16-14.9,48.47c0.28,9.72,1.47,19.47,2.96,29.08
						c1.45,9.33,3.61,18.54,7.37,27.22c3.31,7.65,8.23,14.7,15.14,19.48c6.74,4.66,16,6.57,23.9,4.02c1.98-0.64,3.9-1.54,5.63-2.7
						c1.66-1.12,2.38-3.26,1.33-5.06c-0.96-1.64-3.4-2.45-5.06-1.33c-0.74,0.5-1.5,0.95-2.3,1.34c-0.17,0.08-0.34,0.16-0.51,0.24
						c-0.57,0.26,0.43-0.16-0.16,0.06c-0.47,0.17-0.95,0.34-1.43,0.48c-0.79,0.23-1.58,0.4-2.39,0.54
						c-0.76,0.13-0.31,0.04-0.14,0.02c-0.19,0.02-0.38,0.04-0.57,0.05c-0.51,0.04-1.01,0.07-1.52,0.07
						c-0.89,0.01-1.79-0.03-2.68-0.12c-0.19-0.02-0.38-0.04-0.57-0.06c0.56,0.07-0.08-0.02-0.16-0.04c-0.51-0.1-1.01-0.19-1.52-0.31
						c-0.88-0.21-1.75-0.46-2.61-0.75c-0.37-0.13-0.73-0.26-1.09-0.4c-0.71-0.28-0.34-0.15-0.19-0.08c-0.24-0.11-0.47-0.21-0.7-0.33
						c-1.57-0.76-3.4-1.89-4.56-2.8c-1.11-0.88-2.65-2.34-3.78-3.58c-1.36-1.49-2.02-2.37-3.15-4.07c-1.02-1.55-1.95-3.15-2.8-4.8
						c-1.85-3.6-3.04-6.77-4.29-10.83c-1.31-4.24-2.31-8.57-3.13-12.92c-1.62-8.67-2.66-17.32-3.29-26.2
						c-0.63-8.87-0.61-17.89,1.25-26.51c0.4-1.85,0.88-3.69,1.45-5.49c0.26-0.83,0.55-1.66,0.85-2.48c0.15-0.41,0.31-0.82,0.47-1.23
						c0.07-0.17,0.14-0.35,0.21-0.52c0.07-0.17,0.33-0.78,0.13-0.33c1.42-3.26,3.14-6.39,5.18-9.3c0.25-0.35,0.51-0.7,0.76-1.05
						c0,0,0.37-0.48,0.16-0.22c-0.23,0.3,0.24-0.3,0.28-0.35c0.58-0.72,1.18-1.42,1.8-2.11c1.16-1.27,2.39-2.47,3.69-3.59
						c0.33-0.28,0.66-0.55,0.99-0.82c0.33-0.26,0.04-0.03-0.03,0.01c0.19-0.15,0.39-0.29,0.59-0.44c0.74-0.54,1.5-1.06,2.28-1.54
						c1.33-0.83,3.14-1.79,4.31-2.29c3.1-1.35,7.23-2.25,10.42-2.46c4-0.26,7.44,0.04,11.05,0.86c3.89,0.88,7.18,2.09,10.51,3.85
						c1.72,0.91,3.38,1.93,4.98,3.04c1.59,1.1,2.53,1.84,4.09,3.21c5.79,5.08,9.97,10.61,13.69,17.31c0.9,1.63,1.75,3.29,2.54,4.98
						c0.85,1.81,3.45,2.27,5.06,1.33C1008.09,512.57,1008.42,510.41,1007.57,508.59L1007.57,508.59z"/>
				</g>
			</g>
			<g>
				<g>
					<path d="M1001.81,523.66c-0.45,20.73-0.15,41.48,0.93,62.19c1.07,20.71,2.91,41.38,5.49,61.96c2.6,20.71,5.93,41.33,10.02,61.8
						c4.07,20.34,8.88,40.52,14.42,60.51c5.54,19.98,11.82,39.76,18.82,59.28c0.86,2.39,1.73,4.78,2.61,7.17
						c0.69,1.87,2.51,3.15,4.55,2.59c1.8-0.5,3.28-2.67,2.59-4.55c-7.14-19.37-13.57-38.99-19.28-58.83
						c-5.7-19.84-10.68-39.88-14.92-60.08c-4.24-20.2-7.76-40.55-10.52-61.01c-2.75-20.42-4.73-40.94-5.98-61.51
						c-1.25-20.6-1.74-41.25-1.47-61.89c0.03-2.54,0.08-5.09,0.13-7.63C1009.32,518.9,1001.91,518.9,1001.81,523.66L1001.81,523.66z
						"/>
				</g>
			</g>
			<g>
				<g>
					<path d="M969.06,664.5c8.65,26.79,24.21,50.5,41,72.84c4.85,6.45,9.81,12.82,14.77,19.19c1.23,1.58,3.94,1.29,5.23,0
						c1.56-1.56,1.23-3.65,0-5.23c-16.61-21.31-33.57-43.22-45.46-67.86c-3.3-6.85-6.04-13.57-8.41-20.91
						c-0.61-1.9-2.57-3.13-4.55-2.59C969.78,660.46,968.44,662.59,969.06,664.5L969.06,664.5z"/>
				</g>
			</g>
			<g>
				<g>
					<path d="M1050.55,770.65c9.68,25.83,34.61,41.91,60.73,47.55c15.28,3.3,31.07,3.63,46.62,2.56c7.98-0.55,15.97-1.55,23.65-3.84
						c7.44-2.22,14.6-5.4,21.54-8.86c25.81-12.85,48.44-31.26,65.87-54.25c9.36-12.35,17.64-25.56,25.68-38.79
						c7.95-13.06,15.49-26.38,22.6-39.91c14.34-27.27,26.96-55.45,37.78-84.3c1.33-3.54,2.63-7.08,3.9-10.64
						c0.67-1.88-0.76-4.05-2.59-4.55c-2.05-0.56-3.88,0.7-4.55,2.59c-10.08,28.15-21.9,55.66-35.37,82.36
						c-13.47,26.69-28.5,52.71-45.27,77.47c-8.12,11.98-17.06,23.25-27.63,33.18c-9.89,9.28-20.85,17.34-32.56,24.18
						c-12.38,7.23-25.72,13.83-39.92,16.43c-7.45,1.36-15.09,1.78-22.65,1.99c-7.59,0.21-15.2,0.03-22.76-0.77
						c-25.29-2.67-51.29-13.85-64.31-36.67c-1.45-2.54-2.65-5.06-3.64-7.7c-0.7-1.87-2.5-3.15-4.55-2.59
						C1051.34,766.59,1049.84,768.77,1050.55,770.65L1050.55,770.65z"/>
				</g>
			</g>
			<g>
				<g>
					<path d="M1054.6,522.11c15.62-3.68,31.05-8.12,46.23-13.32c15.25-5.23,30.25-11.22,44.92-17.92c7.45-3.4,14.8-7.02,22.26-10.41
						c7.27-3.3,14.67-6.19,22.18-8.9c7.72-2.78,15.46-5.55,22.88-9.09c7.13-3.39,13.88-7.5,20.49-11.8
						c13.95-9.08,27.68-18.5,41.5-27.77c1.72-1.15,3.44-2.31,5.16-3.46c1.66-1.11,2.38-3.26,1.33-5.06
						c-0.96-1.65-3.4-2.45-5.06-1.33c-13.87,9.3-27.72,18.64-41.61,27.9c-6.5,4.34-13.06,8.59-19.95,12.3
						c-6.95,3.74-14.16,6.62-21.57,9.32c-7.69,2.8-15.38,5.53-22.9,8.76c-7.54,3.24-14.92,6.82-22.34,10.32
						c-14.36,6.75-28.94,12.81-43.9,18.14c-15.04,5.35-30.34,9.96-45.84,13.8c-1.91,0.47-3.82,0.93-5.73,1.38
						c-1.95,0.46-3.1,2.68-2.59,4.55C1050.59,521.51,1052.65,522.57,1054.6,522.11L1054.6,522.11z"/>
				</g>
			</g>
			<g>
				<g>
					<path d="M1280.08,423.38c1.03,22.17,7.61,43.59,16.98,63.6c9.54,20.37,22,39.19,34.75,57.65
						c7.42,10.75,14.91,21.46,22.37,32.18c1.14,1.64,3.24,2.39,5.06,1.33c1.62-0.95,2.47-3.41,1.33-5.06
						c-12.97-18.65-26.31-37.1-38.45-56.31c-11.59-18.32-21.87-37.48-28.24-58.18c-3.57-11.58-5.84-23.24-6.39-35.21
						c-0.09-2-1.63-3.7-3.7-3.7C1281.85,419.68,1279.98,421.38,1280.08,423.38L1280.08,423.38z"/>
				</g>
			</g>
			<g>
				<g>
					<path d="M870.7,553.64c-0.37-13.64-0.74-27.27-1.1-40.91c-0.09-3.34-0.31-6.71-0.17-10.05c0.09-2.03,1.38-3.64,2.83-4.67
						c2.3-1.64,4.84-2.96,7.26-4.41c2.67-1.6,5.31-3.23,7.94-4.9c10.65-6.75,20.93-14.06,30.85-21.83c4.9-3.84,9.7-7.79,14.4-11.87
						c2.35-2.04,4.67-4.11,6.97-6.2c1.09-0.99,1.74-1.57,2.83-2.3c0.48-0.32,0.41-0.23,0.19-0.14c0.02-0.01,1.22-0.31,0.52-0.18
						c0.62-0.12,0.38,0.03,0.09-0.04c0.19,0.04,0.37,0.09,0.55,0.16c-0.41-0.18-0.49-0.21-0.26-0.08c0.45,0.27-0.56-0.64,0.02-0.01
						c0.27,0.3,0.45,0.6,0.14,0.1c0.15,0.25,0.29,0.5,0.44,0.75c0.43,0.73-0.13-0.61,0.09,0.23c0.16,0.62,0.32,1.21,0.44,1.84
						c-0.14-0.73-0.02-0.19-0.02-0.02c0.02,0.37,0.05,0.75,0.06,1.12c0.05,3.11-0.47,5.61-1.22,8.69
						c-1.57,6.44-4.22,12.08-8.18,17.52c-1.18,1.62-0.28,4.13,1.33,5.06c1.87,1.1,3.88,0.29,5.06-1.33
						c3.81-5.23,6.67-11.19,8.43-17.41c0.91-3.22,1.49-6.52,1.82-9.84c0.26-2.62,0.21-5.38-0.69-7.88
						c-1.02-2.81-3.01-5.34-6.06-6.04c-3.86-0.89-7.12,1.2-9.87,3.67c-4.85,4.35-9.69,8.68-14.71,12.83
						c-10.16,8.4-20.75,16.2-31.82,23.48c-5.58,3.67-11.26,7.18-17.02,10.55c-2.5,1.46-5.08,3.02-6.91,5.3
						c-2.31,2.86-3.01,6.21-2.97,9.84c0.2,16.33,0.87,32.66,1.31,48.98c0.05,2,1.66,3.7,3.7,3.7
						C868.97,557.34,870.76,555.64,870.7,553.64L870.7,553.64z"/>
				</g>
			</g>
			<g>
				<g>
					<path d="M909.67,508.28c-8.31,27.44-10.29,56.57-5.85,84.88c4.43,28.28,15.16,55.05,21.2,82.96
						c6.12,28.3,7.42,57.48,5.32,86.31c-2.1,28.83-7.73,57.29-15.48,85.1c-7.74,27.79-17.59,54.95-28.32,81.71
						c-1.32,3.28-2.65,6.56-3.99,9.83c-0.76,1.85,0.82,4.07,2.59,4.55c2.12,0.58,3.79-0.73,4.55-2.59
						c10.94-26.69,21.13-53.71,29.38-81.36c8.27-27.76,14.52-56.15,17.58-84.97c3.07-28.89,2.79-58.16-1.89-86.86
						c-4.62-28.36-15.03-55.2-21.23-83.18c-6.15-27.8-6.24-56.61,0.51-84.32c0.83-3.39,1.76-6.76,2.77-10.1
						C918.19,505.67,911.05,503.72,909.67,508.28L909.67,508.28z"/>
				</g>
			</g>
			<g>
				<g>
					<path d="M833.16,783.08c6.94,8.74,17.73,13.99,28.82,14.54c2,0.1,3.7-1.77,3.7-3.7c0-2.09-1.7-3.6-3.7-3.7
						c-0.65-0.03-1.3-0.07-1.94-0.14c-0.26-0.03-0.52-0.05-0.77-0.09c0.51,0.07-0.18-0.03-0.36-0.06c-1.15-0.19-2.29-0.44-3.42-0.74
						c-2.56-0.69-4.2-1.33-6.36-2.45c-4.37-2.27-7.59-4.93-10.73-8.88c-1.24-1.57-3.93-1.3-5.23,0
						C831.61,779.4,831.91,781.51,833.16,783.08L833.16,783.08z"/>
				</g>
			</g>
			<g>
				<g>
					<path d="M780.55,892.59c9.06-12.85,17.51-26.13,25.32-39.78c7.84-13.72,15.03-27.81,21.53-42.21
						c3.73-8.25,7.23-16.61,10.52-25.04c0.73-1.86-0.8-4.06-2.59-4.55c-2.1-0.58-3.82,0.72-4.55,2.59
						c-5.62,14.41-11.9,28.5-18.9,42.4c-7.04,13.98-14.74,27.62-23.07,40.87c-4.69,7.46-9.58,14.79-14.65,22
						c-1.15,1.63-0.29,4.12,1.33,5.06C777.33,895,779.39,894.23,780.55,892.59L780.55,892.59z"/>
				</g>
			</g>
			<g>
				<g>
					<path d="M866.08,992.81c3.36-8.9,6.71-17.8,10.07-26.69c1.54-4.09,3.04-8.13,5.01-12.01c2.07-4.07,4.53-7.93,6.99-11.77
						c1.08-1.68,0.35-4.08-1.33-5.06c-1.79-1.05-3.98-0.36-5.06,1.33c-2.46,3.84-4.92,7.7-6.99,11.77
						c-2.18,4.29-3.88,8.81-5.58,13.31c-3.41,9.05-6.83,18.11-10.24,27.16c-0.71,1.87,0.78,4.06,2.59,4.55
						C863.6,995.97,865.37,994.69,866.08,992.81L866.08,992.81z"/>
				</g>
			</g>
			<g>
				<g>
					<path d="M892.6,929.52c10.71,5.59,21.45,11.16,32.27,16.54c2.73,1.36,5.5,2.65,8.38,3.67c2.61,0.92,5.34,1.45,7.94,2.39
						c2.16,0.78,4.39,2.31,6.42,3.72c1.87,1.29,3.91,2.64,5.04,4.32c1.65,2.44,2.33,4.99,3.39,7.87c1.19,3.21,2.38,6.41,3.57,9.62
						c0.7,1.87,2.51,3.15,4.55,2.59c1.8-0.49,3.28-2.67,2.59-4.55c-1.08-2.9-2.15-5.8-3.23-8.7c-1.06-2.85-2.02-5.79-3.34-8.54
						c-1.24-2.58-3.11-4.7-5.35-6.45c-2.27-1.78-4.67-3.49-7.17-4.93c-5.01-2.89-10.95-3.59-16.11-5.96
						c-5.52-2.54-10.9-5.43-16.31-8.2c-6.32-3.23-12.62-6.48-18.91-9.77c-1.77-0.92-4.02-0.46-5.06,1.33
						C890.3,926.12,890.82,928.59,892.6,929.52L892.6,929.52z"/>
				</g>
			</g>
			<g>
				<g>
					<path d="M1061.11,976.86c3.07-12.62,11.71-22.62,21.83-31.02c11.51-9.55,24.95-16.93,36.51-26.62c3.43-2.87,6.92-5.89,10-9.15
						c1.03-1.09,1.7-2.3,1.63-3.82c-0.09-1.77-1.24-3.32-2.99-3.78c-1.43-0.37-3.05,0.05-4.09,1.11c-1.34,1.37-1.31,3.12-0.56,4.76
						c0.83,1.82,3.46,2.27,5.06,1.33c1.87-1.09,2.16-3.24,1.33-5.06c-0.02-0.05-0.04-0.1-0.07-0.15c0.12,0.95,0.25,1.9,0.37,2.85
						c0.02-0.04,0.03-0.09,0.05-0.13c-0.32,0.54-0.63,1.09-0.95,1.63c0.04-0.03,0.09-0.07,0.13-0.1c-0.54,0.32-1.09,0.63-1.63,0.95
						c-0.48,0-0.96,0-1.44,0c-0.74-0.57-1.47-1.13-2.21-1.7c0.04,0.05,0.07,0.1,0.11,0.14c-0.17-0.62-0.34-1.25-0.51-1.87
						c0.18-0.47,0.36-0.94,0.54-1.41c-0.23,0.22-0.47,0.45-0.7,0.67c-0.35,0.34-0.7,0.67-1.06,1.01c-0.59,0.56-1.18,1.12-1.77,1.67
						c-1.42,1.33-2.85,2.65-4.31,3.93c-2.56,2.26-5.18,4.36-7.86,6.35c-5.49,4.08-11.21,7.85-16.84,11.73
						c-10.76,7.43-21.18,15.44-28.92,26.11c-4.04,5.57-7.16,11.87-8.78,18.57c-0.47,1.94,0.62,4.01,2.59,4.55
						C1058.45,979.96,1060.64,978.81,1061.11,976.86L1061.11,976.86z"/>
				</g>
			</g>
			<g>
				<g>
					<path d="M1132.46,817.57c-15.85,15.63-30.23,32.75-42.92,51.04c-3.46,4.99-6.9,10.66-6.37,16.98c0.16,1.99,1.58,3.7,3.7,3.7
						c1.87,0,3.87-1.7,3.7-3.7c-0.18-2.23,0.24-4.35,1.13-6.24c1.04-2.21,2.35-4.27,3.73-6.28c3.01-4.39,6.15-8.69,9.37-12.93
						c6.28-8.27,13.13-16.43,20.21-24.17c4.12-4.5,8.35-8.89,12.69-13.17c1.42-1.4,1.41-3.83,0-5.23
						C1136.27,816.14,1133.89,816.16,1132.46,817.57L1132.46,817.57z"/>
				</g>
			</g>
			<g>
				<g>
					<path d="M834.21,536.55c-2.79-9.61-4.06-19.53-3.39-29.55c0.13-1.9,0.41-4.03,1.22-5.86c0.83-1.86,1.93-3.14,3.38-4.64
						c3.45-3.55,7.24-6.8,10.88-10.17c7.8-7.22,15.61-14.45,23.41-21.67c1.89-1.75,3.78-3.5,5.67-5.25
						c1.55-1.43,3.42-3.21,4.89-4.31c3.52-2.63,7.39-3.88,11.42-4.1c5.16-0.28,9.57,0.5,14.53,1.45c5.81,1.11,11.61,2.25,17.41,3.38
						c1.96,0.38,3.99-0.55,4.55-2.59c0.5-1.81-0.61-4.17-2.59-4.55c-5.44-1.06-10.89-2.11-16.33-3.17
						c-4.89-0.95-9.84-1.86-14.84-1.97c-4.98-0.1-9.97,0.73-14.44,2.99c-4.6,2.32-8.31,6.2-12.05,9.66
						c-8.11,7.51-16.22,15.01-24.33,22.52c-3.99,3.69-8.02,7.34-11.97,11.09c-3.71,3.53-6.74,7.55-7.69,12.69
						c-1.07,5.77-0.85,11.89-0.32,17.7c0.57,6.2,1.69,12.33,3.43,18.31c0.56,1.92,2.61,3.12,4.55,2.59
						C833.53,540.58,834.77,538.48,834.21,536.55L834.21,536.55z"/>
				</g>
			</g>
			<g>
				<g>
					<path d="M803.22,536.03c0.4-5.01,0.48-10.03,0.2-15.05c-0.27-4.89-1.24-9.76-1.32-14.66c-0.01-0.57-0.01-1.13,0.02-1.7
						c0.01-0.32,0.04-0.65,0.06-0.97c0-0.05,0.09-0.85,0.01-0.29c0.12-0.97,0.35-1.93,0.61-2.87c0.59-2.11,1.05-3.13,2.1-5.01
						c1.98-3.54,4.13-6.04,7.02-8.98c6.25-6.36,13.31-12.12,20.34-17.55c3.59-2.78,7.31-5.49,11.06-8.1
						c3.83-2.66,7.69-5.32,11.78-7.57c2.01-1.11,3.9-2.07,6.02-2.71c0.92-0.28,1.85-0.5,2.8-0.65c-0.64,0.1-0.04,0.01,0.08,0
						c0.29-0.02,0.59-0.04,0.88-0.05c0.46-0.02,0.93-0.01,1.39,0.02c0.11,0.01,0.82,0.1,0.36,0.03c-0.47-0.07,0.51,0.12,0.5,0.12
						c0.24,0.06,1.31,0.43,0.68,0.16c0.2,0.09,0.4,0.19,0.59,0.29c0.07,0.04,0.82,0.5,0.45,0.25c-0.32-0.22,0.11,0.09,0.15,0.12
						c0.21,0.2,0.41,0.39,0.6,0.6c0.83,0.92,1.6,1.85,2.7,2.49c1.74,1.01,3.46,0.84,5.22,0.08c1.84-0.79,2.25-3.49,1.33-5.06
						c-1.11-1.9-3.22-2.12-5.06-1.33c-1.24,0.54,2.06-0.63,2.43,0.08c-0.08-0.15-0.44-0.43-0.54-0.53
						c-0.29-0.31-0.56-0.65-0.85-0.96c-0.72-0.8-1.62-1.51-2.55-2.05c-1.88-1.09-4.02-1.58-6.17-1.7c-4.32-0.23-8.5,1.3-12.32,3.16
						c-4.25,2.07-8.19,4.72-12.09,7.38c-3.97,2.7-7.87,5.51-11.7,8.42c-7.57,5.75-15.05,11.78-21.88,18.41
						c-6.02,5.85-11.8,13-13.07,21.56c-0.87,5.83,0.37,11.56,0.81,17.37c0.44,5.75,0.41,11.52-0.05,17.27c-0.16,2,1.82,3.7,3.7,3.7
						C801.66,539.73,803.06,538.03,803.22,536.03L803.22,536.03z"/>
				</g>
			</g>
			<g>
				<g>
					<path d="M794.11,488.33c-8.41,4.79-16.49,10.36-21.39,18.95c-4.53,7.95-6.23,17.22-6.43,26.28c-0.22,9.89,1.3,19.85,3.36,29.49
						c2.14,10.04,5.09,19.88,8.2,29.65c3.54,11.14,7.3,22.21,10.39,33.49c0.53,1.93,2.63,3.11,4.55,2.59
						c1.94-0.53,3.12-2.62,2.59-4.55c-5.31-19.39-12.62-38.19-17.36-57.75c-2.27-9.37-3.96-18.59-4.29-28.16
						c-0.07-2.12-0.07-4.24,0.02-6.36c0.05-1.06,0.11-2.11,0.21-3.17c0.05-0.53,0.1-1.05,0.16-1.58c0.03-0.26,0.06-0.52,0.09-0.78
						c-0.06,0.5,0.03-0.21,0.05-0.38c0.31-2.06,0.72-4.11,1.26-6.13c0.27-1,0.57-1.99,0.9-2.96c0.15-0.43,0.3-0.85,0.46-1.27
						c0.26-0.68,0.36-0.93,0.5-1.25c2.05-4.52,4.36-7.87,7.88-11.11c3.66-3.38,8.08-6.04,12.59-8.61c1.74-0.99,2.33-3.35,1.33-5.06
						C798.16,487.91,795.86,487.34,794.11,488.33L794.11,488.33z"/>
				</g>
			</g>
			<g>
				<g>
					<path d="M788.11,630.82c5.58,20.2,11.16,40.4,16.74,60.6c5.56,20.15,11.1,40.3,16.7,60.44c3.08,11.08,6.37,22.08,10.86,32.68
						c0.78,1.84,3.5,2.24,5.06,1.33c1.91-1.12,2.11-3.22,1.33-5.06c-3.85-9.1-6.67-18.64-9.34-28.14
						c-2.76-9.84-5.45-19.7-8.17-29.54c-5.56-20.12-11.11-40.24-16.67-60.35c-3.12-11.3-6.24-22.6-9.36-33.9
						c-0.53-1.93-2.62-3.12-4.55-2.59C788.76,626.8,787.58,628.88,788.11,630.82L788.11,630.82z"/>
				</g>
			</g>
			<g>
				<g>
					<path d="M922.7,640.67c0.13-0.37,0.34-0.69,0.62-0.94c1.5,1.94,2.99,3.88,4.49,5.81c14.17-11.63,27.52-24.24,39.93-37.73
						c1.35-1.47,1.45-3.78,0-5.23c-1.37-1.37-3.88-1.48-5.23,0c-12.41,13.49-25.76,26.1-39.93,37.73c-1.41,1.15-1.34,3.54-0.29,4.86
						c1.15,1.44,3.13,1.88,4.77,0.95c1.42-0.8,2.22-1.97,2.78-3.48c0.7-1.87-0.78-4.06-2.59-4.55
						C925.18,637.51,923.4,638.79,922.7,640.67L922.7,640.67z"/>
				</g>
			</g>
			<g>
				<g>
					<path d="M1114.96,566.53c-2.14,1.78-4.27,3.57-6.41,5.35c-0.69,0.58-1.08,1.75-1.08,2.62c0,0.91,0.4,1.99,1.08,2.62
						c0.71,0.65,1.63,1.13,2.62,1.08c0.33-0.04,0.66-0.09,0.98-0.13c0.63-0.18,1.17-0.49,1.63-0.95c2.14-1.78,4.27-3.57,6.41-5.35
						c0.69-0.58,1.08-1.75,1.08-2.62c0-0.91-0.4-1.99-1.08-2.62c-0.71-0.65-1.63-1.13-2.62-1.08c-0.33,0.04-0.66,0.09-0.98,0.13
						C1115.96,565.75,1115.42,566.07,1114.96,566.53L1114.96,566.53z"/>
				</g>
			</g>
			<g>
				<g>
					<path d="M1074.37,608.48c-3.01,3.93-6.02,7.86-9.03,11.79c-0.54,0.71-0.6,2.04-0.37,2.85c0.24,0.86,0.9,1.79,1.7,2.21
						c0.86,0.45,1.9,0.68,2.85,0.37c0.98-0.32,1.59-0.89,2.21-1.7c3.01-3.93,6.02-7.86,9.03-11.79c0.54-0.71,0.6-2.04,0.37-2.85
						c-0.24-0.86-0.9-1.79-1.7-2.21c-0.86-0.45-1.9-0.68-2.85-0.37C1075.6,607.1,1074.99,607.67,1074.37,608.48L1074.37,608.48z"/>
				</g>
			</g>
			<g>
				<g>
					<path d="M1307.8,584.67c0.46,6.95,0.32,13.92-0.41,20.84c-0.21,1.93,1.85,3.78,3.7,3.7c2.18-0.1,3.48-1.63,3.7-3.7
						c0.74-6.92,0.87-13.89,0.41-20.84c-0.13-1.93-1.61-3.79-3.7-3.7C1309.6,581.05,1307.66,582.6,1307.8,584.67L1307.8,584.67z"/>
				</g>
			</g>
			<g>
				<g>
					<path d="M1307.43,637.11c-0.59,3.7-1.4,7.36-2.43,10.97c-0.51,1.77-1.07,3.52-1.68,5.26c-0.32,0.9-0.65,1.79-0.99,2.68
						c-0.15,0.38-0.3,0.76-0.45,1.14c-0.1,0.25-0.21,0.5-0.31,0.76c-0.17,0.42-0.21,0.5-0.1,0.25c-0.76,1.78-0.59,4.05,1.33,5.06
						c1.59,0.84,4.25,0.57,5.06-1.33c3.13-7.34,5.44-14.93,6.71-22.82c0.31-1.9-0.49-4.08-2.59-4.55
						C1310.2,634.12,1307.76,635.07,1307.43,637.11L1307.43,637.11z"/>
				</g>
			</g>
			<g>
				<g>
					<path d="M932.52,309.19c-14.22-8.88-32.09-6.77-46.55,0.3c-7.34,3.58-14.01,8.43-20.25,13.66
						c-5.82,4.87-11.24,10.22-16.24,15.92c-10.17,11.59-18.71,24.57-25.75,38.27c-7.68,14.95-13.62,30.77-18.38,46.87
						c-4.95,16.76-8.65,33.86-11.92,51.01c-0.41,2.16-0.82,4.33-1.22,6.5c-0.36,1.96,0.54,3.99,2.59,4.55
						c1.8,0.49,4.19-0.61,4.55-2.59c3.11-16.79,6.52-33.54,11.02-50.03c2.25-8.26,4.78-16.45,7.67-24.51
						c2.73-7.62,5.49-14.4,8.89-21.6c3.17-6.72,6.68-13.28,10.55-19.62c1.97-3.22,4.03-6.39,6.19-9.49c2.08-2.99,4.23-5.88,6.3-8.48
						c9.26-11.58,20.17-22.31,32.59-30.1c6.53-4.1,13.13-7.13,20.75-8.54c3.27-0.61,7.08-0.81,10.82-0.52
						c1.8,0.14,2.96,0.31,4.93,0.77c1.8,0.42,3.58,0.96,5.29,1.66c1.06,0.43,3.07,1.49,4.43,2.34c1.7,1.06,4.08,0.36,5.06-1.33
						C934.89,312.48,934.22,310.25,932.52,309.19L932.52,309.19z"/>
				</g>
			</g>
			<g>
				<g>
					<path d="M920.45,445.31c-6.6-20.56-6.59-42.49-3.42-63.69c2.91-19.5,7.79-38.96,14.37-57.56
						c5.82-16.46,13.46-32.56,24.19-46.42c5.33-6.89,11.5-13.24,18.38-18.6c7.91-6.15,16.89-10.87,26.14-14.64
						c19.98-8.16,41.06-14.05,62.15-18.5c21.22-4.48,42.77-7.24,64.43-8.27c21.85-1.04,43.79-0.34,65.52,2.13
						c20.61,2.35,41.22,6.18,60.89,12.87c35.14,11.96,68.94,35.64,82.3,71.64c1.51,4.08,2.73,8.26,3.66,12.51
						c1.02,4.65,8.16,2.68,7.14-1.97c-8.4-38.27-39.39-67.19-74.13-82.66c-19.66-8.75-40.61-14.01-61.82-17.36
						c-22.14-3.5-44.56-5.19-66.97-5.03c-44.85,0.32-89.73,7.93-132.11,22.62c-10.49,3.64-20.95,7.7-30.58,13.3
						c-8.04,4.67-15.42,10.5-21.91,17.15c-12.92,13.23-22.31,29.45-29.45,46.4c-7.52,17.86-12.78,36.69-16.7,55.64
						c-4.52,21.84-6.8,44.41-3.09,66.54c0.9,5.37,2.2,10.67,3.86,15.86C914.76,451.8,921.91,449.86,920.45,445.31L920.45,445.31z"/>
				</g>
			</g>
			<g>
				<g>
					<path d="M1355.88,315.36c0.18,0.07,0.35,0.14,0.53,0.22c0.59,0.24-0.41-0.18,0.17,0.07c0.35,0.15,0.69,0.31,1.04,0.47
						c0.8,0.37,1.59,0.76,2.38,1.17c1.51,0.79,2.97,1.65,4.4,2.57c0.69,0.44,1.36,0.9,2.03,1.37c0.31,0.22,0.61,0.44,0.92,0.66
						c0.2,0.15,0.4,0.3,0.61,0.45c0.5,0.38-0.35-0.28,0.15,0.11c1.34,1.05,2.64,2.16,3.89,3.31c5.2,4.79,8.98,9.58,12.58,15.53
						c7.95,13.14,11.9,28.63,13.84,43.77c1.07,8.36,1.57,16.77,2.1,25.17c0.47,7.4,0.95,14.8,1.42,22.19
						c0.69,10.67,1.38,21.35,1.88,32.03c0.43,9.35,0.66,18.7,0.7,28.06c0.01,1.32,0.01,2.63,0.01,3.95c0,2,1.7,3.7,3.7,3.7
						c2.01,0,3.7-1.69,3.7-3.7c0-9.7-0.17-19.39-0.58-29.08c-0.45-10.6-1.12-21.18-1.8-31.77c-0.46-7.17-0.92-14.34-1.38-21.51
						c-0.54-8.54-0.98-17.1-1.93-25.61c-1.85-16.52-5.4-33.1-13.44-47.8c-6.82-12.47-16.93-23.68-29.73-30.17
						c-1.7-0.86-3.44-1.62-5.2-2.33c-1.85-0.75-4.07,0.82-4.55,2.59C1352.71,312.92,1354.02,314.61,1355.88,315.36L1355.88,315.36z"
						/>
				</g>
			</g>
			<g>
				<g>
					<path d="M896.73,1103.97c15.21,8.93,32.7,12.47,50.11,13.73c18.34,1.33,36.87,0.57,55.23,0.23
						c20.11-0.38,40.23-1.07,60.26-2.89c9.28-0.85,18.66-1.89,27.59-4.67c4.53-1.41,8.95-3.28,13.07-5.65
						c3.89-2.24,7.51-4.91,11.06-7.65c3.41-2.64,6.88-5.51,10.19-8.03c3.61-2.73,7.38-5.21,11.15-7.7
						c7.74-5.1,15.15-10.51,20.87-17.9c1.37-1.77,2.66-3.6,3.85-5.51c1.05-1.7,0.37-4.07-1.33-5.06c-1.77-1.03-4.01-0.38-5.06,1.33
						c-4.48,7.23-10.62,12.95-17.64,17.79c-3.69,2.54-7.48,4.92-11.16,7.47c-3.72,2.58-7.28,5.39-10.82,8.21
						c-6.41,5.11-13.1,10.41-20.72,13.62c-8.15,3.43-17.11,4.91-25.68,5.83c-19.41,2.09-38.97,2.82-58.48,3.27
						c-9.89,0.23-19.78,0.36-29.67,0.49c-8.55,0.11-17.11,0.18-25.65-0.17c-16.35-0.67-33.16-2.93-47.89-10.13
						c-1.89-0.92-3.74-1.93-5.56-2.99C896.35,1095.16,892.62,1101.56,896.73,1103.97L896.73,1103.97z"/>
				</g>
			</g>
			<g>
				<g>
					<path d="M767.15,882.28c1.65,12.56,7.35,23.81,14.68,34c7.77,10.8,16.76,20.76,25.59,30.69c9.25,10.4,18.7,20.65,28.44,30.6
						c9.32,9.51,19.24,18.51,30.71,25.39c12.26,7.36,25.92,12.46,40.01,14.89c3.69,0.64,6.07-3.27,3.6-6.19
						c-12.55-14.83-25.11-29.65-37.66-44.48c-1.29-1.53-3.9-1.33-5.23,0c-1.51,1.51-1.3,3.7,0,5.23
						c12.55,14.83,25.11,29.65,37.66,44.48c1.2-2.06,2.4-4.12,3.6-6.19c-12.08-2.09-23.5-6.01-34.11-11.79
						c-11.17-6.08-20.74-14.07-29.75-22.99c-9.61-9.51-18.79-19.48-27.83-29.52c-8.77-9.73-17.58-19.53-25.64-29.87
						c-1.75-2.25-3.89-5.2-5.65-7.84c-1.86-2.8-3.59-5.68-5.13-8.67c-1.56-3.02-2.62-5.43-3.69-8.64c-0.52-1.57-0.98-3.16-1.36-4.77
						c-0.18-0.74-0.33-1.49-0.48-2.23c-0.07-0.34-0.13-0.68-0.18-1.03c-0.05-0.27-0.09-0.55-0.13-0.82
						c-0.07-0.47-0.08-0.55-0.04-0.26c-0.26-1.98-1.52-3.7-3.7-3.7C769.06,878.58,766.89,880.29,767.15,882.28L767.15,882.28z"/>
				</g>
			</g>
			<g>
				<g>
					<path d="M543.07,1337c2.74-24.72,5.48-49.38,11.86-73.52c5.56-21.03,13.67-40.75,26.51-58.51c1.75-2.42,3.08-4.15,5.05-6.51
						c1.87-2.25,3.82-4.43,5.85-6.53c2.03-2.11,4.13-4.14,6.31-6.09c1.09-0.98,2.2-1.93,3.33-2.86c1.21-1,2.18-1.76,3.18-2.52
						c1.59-1.2,2.42-3.2,1.33-5.06c-0.92-1.57-3.46-2.54-5.06-1.33c-17.48,13.19-30.8,31-40.26,50.65
						c-10.48,21.79-16.27,45.39-20.04,69.18c-2.27,14.31-3.87,28.71-5.46,43.11c-0.22,1.99,1.86,3.7,3.7,3.7
						C541.55,1340.7,542.85,1338.99,543.07,1337L543.07,1337z"/>
				</g>
			</g>
			<g>
				<g>
					<path d="M517.08,1257.79c3.89-10.95,9.36-21.62,16.18-31.54c3.42-4.99,6.65-9.1,10.75-13.67c3.99-4.46,8.27-8.67,12.79-12.59
						c5.07-4.39,10.02-8.07,15.86-11.77c1.69-1.07,2.36-3.29,1.33-5.06c-0.98-1.68-3.37-2.4-5.06-1.33
						c-21.09,13.38-38.62,32.29-50.35,54.34c-3.36,6.32-6.24,12.9-8.64,19.65c-0.67,1.88,0.76,4.05,2.59,4.55
						C514.58,1260.93,516.41,1259.68,517.08,1257.79L517.08,1257.79z"/>
				</g>
			</g>
			<g>
				<g>
					<path d="M611.98,1176.01c15.96-14.9,28.9-32.7,40.52-51.1c12.16-19.26,23.33-39.18,33.63-59.49
						c10.2-20.11,19.34-40.69,27.96-61.53c8.16-19.73,16.01-39.6,24.89-59.03c8.84-19.34,18.71-38.28,30.75-55.85
						c1.5-2.19,3.04-4.36,4.6-6.5c1.18-1.62,0.27-4.13-1.33-5.06c-1.87-1.1-3.88-0.29-5.06,1.33
						c-12.55,17.21-22.88,35.9-31.99,55.13c-9.23,19.48-17.28,39.49-25.46,59.43c-8.33,20.31-16.96,40.46-26.66,60.16
						c-10.11,20.54-21.14,40.62-33.06,60.16c-11.15,18.28-23.23,36.16-38.26,51.51c-1.88,1.92-3.8,3.79-5.76,5.62
						C603.26,1174.04,608.5,1179.26,611.98,1176.01L611.98,1176.01z"/>
				</g>
			</g>
			<g>
				<g>
					<path d="M668.13,891.02c5.59,23.91,15.3,46.92,28.58,67.57c1.81,2.82,3.8,5.53,5.53,8.39c0.44,0.73,0.87,1.48,1.25,2.25
						c0.36,0.72,0.46,0.92,0.76,1.83c0.11,0.33,0.2,0.66,0.28,0.99c0.04,0.14,0.23,1.31,0.18,0.82c0.03,0.27,0.04,0.54,0.05,0.81
						c0.01,0.27,0,0.54-0.02,0.82c-0.04,0.46-0.04,0.55-0.02,0.25c-0.33,1.97,0.52,3.98,2.59,4.55c1.77,0.49,4.23-0.6,4.55-2.59
						c1.13-6.83-2.41-12.35-6.07-17.78c-3.48-5.15-6.73-10.44-9.74-15.88c-6.06-10.92-10.98-21.99-14.99-33.75
						c-2.27-6.65-4.19-13.41-5.79-20.25c-0.46-1.95-2.68-3.1-4.55-2.59C668.72,887.01,667.67,889.06,668.13,891.02L668.13,891.02z"
						/>
				</g>
			</g>
			<g>
				<g>
					<path d="M634.06,940.39c16.9,17.64,35.01,34.11,54.18,49.24c2.67,2.1,5.21,3.97,7.55,5.92c1.16,0.97,2.29,1.98,3.3,3.11
						c0.22,0.24,0.43,0.49,0.63,0.74c-0.34-0.44,0.33,0.5,0.34,0.5c0.43,0.65,0.8,1.34,1.12,2.05c0.83,1.82,3.46,2.27,5.06,1.33
						c1.87-1.09,2.16-3.24,1.33-5.06c-2.36-5.16-7.25-8.48-11.54-11.82c-4.88-3.8-9.69-7.69-14.43-11.66
						c-9.48-7.94-18.68-16.21-27.58-24.8c-5.01-4.83-9.91-9.76-14.73-14.78c-1.38-1.44-3.84-1.39-5.23,0
						C632.62,936.6,632.68,938.94,634.06,940.39L634.06,940.39z"/>
				</g>
			</g>
			<g>
				<g>
					<path d="M587.42,1457.61c34.5-6.98,68.1-19.44,98.15-37.86c14.99-9.19,29.11-19.89,41.86-32
						c14.06-13.35,26.29-28.47,37.93-43.93c12-15.95,24-32.04,34.92-48.75c10.86-16.6,20.1-34.18,28.5-52.13
						c8.48-18.14,16.15-36.64,23.92-55.09c8.19-19.46,16.39-38.92,24.58-58.39c8.12-19.29,16.35-38.54,24.35-57.88
						c3.78-9.13,7.38-18.35,10.09-27.85c1.36-4.79,2.5-9.64,3.31-14.56c0.66-4.05,2-8.69-0.62-12.29c-2.57-3.53-7.42-3.79-9.07,0.71
						c-0.69,1.88,0.77,4.06,2.59,4.55c2.07,0.57,3.86-0.7,4.55-2.59c-0.02,0.09-0.03,0.18-0.05,0.26c-0.44,0.44-0.89,0.89-1.33,1.33
						c-0.13,0.06-0.26,0.13-0.4,0.19c-0.66,0-1.31,0-1.97,0c-0.92-0.16,0.03-0.64-0.17,0.05c-0.03,0.1-0.03,1.17-0.08,1.59
						c-0.28,2.48-0.68,4.95-1.16,7.4c-0.87,4.49-1.99,8.93-3.3,13.32c-2.72,9.08-6.2,17.91-9.83,26.66
						c-7.7,18.55-15.57,37.02-23.36,55.53c-7.86,18.66-15.71,37.32-23.57,55.99c-7.5,17.82-14.9,35.69-22.97,53.26
						c-7.92,17.23-16.54,34.17-26.59,50.26c-10.2,16.33-21.79,31.8-33.21,47.28c-11.06,14.99-22.5,29.75-35.5,43.13
						c-11.79,12.13-24.87,22.94-38.95,32.31c-28.14,18.73-59.77,31.8-92.58,39.7c-3.98,0.96-7.98,1.84-11.99,2.65
						C580.79,1451.41,582.77,1458.55,587.42,1457.61L587.42,1457.61z"/>
				</g>
			</g>
			<g>
				<g>
					<path d="M826.72,1330.7c5.99-1.36,11.98-2.71,17.97-4.07c5.83-1.33,11.59-2.83,16.97-5.49c1.79-0.88,2.29-3.43,1.33-5.06
						c-1.07-1.83-3.26-2.22-5.06-1.33c-4.8,2.37-10.32,3.63-15.65,4.84c-5.84,1.33-11.68,2.65-17.52,3.97
						c-1.95,0.44-3.1,2.69-2.59,4.55C822.72,1330.12,824.77,1331.14,826.72,1330.7L826.72,1330.7z"/>
				</g>
			</g>
			<g>
				<g>
					<path d="M866.35,1181.38c1.12-0.84,2.34-1.53,3.62-2.08c-0.29,0.12-0.59,0.25-0.88,0.37c1.42-0.59,2.89-1,4.41-1.22
						c-0.33,0.04-0.66,0.09-0.98,0.13c1.32-0.18,2.65-0.21,3.98-0.09c0.89,0.08,2-0.47,2.62-1.08c0.64-0.64,1.13-1.7,1.08-2.62
						c-0.04-0.96-0.36-1.95-1.08-2.62c-0.76-0.7-1.59-0.99-2.62-1.08c-4.83-0.43-9.99,1-13.88,3.9c-0.8,0.6-1.43,1.21-1.7,2.21
						c-0.24,0.89-0.13,2.07,0.37,2.85c0.51,0.79,1.27,1.49,2.21,1.7C864.41,1181.96,865.57,1181.96,866.35,1181.38L866.35,1181.38z"
						/>
				</g>
			</g>
			<g>
				<g>
					<path d="M893.68,1075.52c0.86,25.11,3.75,49.97,7.56,74.79c3.8,24.69,7.88,49.32,9.15,74.3c1.29,25.32,0.39,50.68-0.47,76
						c-0.83,24.51-1.62,49.06-0.37,73.57c1.22,23.87,4.32,47.8,11.09,70.77c0.83,2.82,1.72,5.61,2.66,8.4
						c1.51,4.49,8.67,2.56,7.14-1.97c-7.55-22.43-11.38-45.87-13.01-69.43c-1.68-24.21-1.17-48.49-0.38-72.72
						c0.82-25.2,1.92-50.43,1.13-75.64c-0.8-25.23-4.3-50.11-8.19-75.01c-3.83-24.52-7.24-49.01-8.5-73.82
						c-0.16-3.07-0.28-6.15-0.39-9.22C900.92,1070.77,893.51,1070.74,893.68,1075.52L893.68,1075.52z"/>
				</g>
			</g>
			<g>
				<g>
					<path d="M581.4,1453.02c-4.56-5.36-11.2-3.56-17.33-4.45c-7.48-1.08-13.69-8.92-18.65-14.05
						c-10.7-11.04-20.08-23.28-28.17-36.35c-16.41-26.5-27.42-56.08-33.63-86.58c-7.34-36.04-7.83-72.96-4.8-109.51
						c1.51-18.24,3.53-36.49,3.36-54.82c-0.18-18.95-0.57-37.89-0.31-56.84c0.99-73.65,11.52-147.2,30.45-218.36
						c8.66-32.55,19.66-64.48,27.89-97.14c5.78-22.9,10.75-48.24,25.63-67.29c8.53-10.93,19.54-16.37,32.86-19.56
						c17.85-4.27,35.97-7.39,54.14-9.9c36.69-5.07,73.71-7.63,110.6-10.73c9.18-0.77,18.37-1.54,27.55-2.32c4.71-0.4,4.76-7.8,0-7.4
						c-38.01,3.19-76.1,5.9-114.01,10.08c-18.37,2.02-36.7,4.48-54.87,7.82c-8.96,1.64-17.9,3.46-26.75,5.63
						c-7.32,1.8-14.52,4.18-20.87,8.33c-20.78,13.58-29.63,39.17-35.92,61.97c-3.09,11.22-5.58,22.6-8.78,33.78
						c-5.23,18.26-10.79,36.43-16.13,54.65c-21.04,71.82-34.65,145.61-38.3,220.43c-0.95,19.45-1.1,38.94-0.95,58.41
						c0.14,19.06,0.67,38.01-0.76,57.04c-1.41,18.71-3.46,37.36-3.91,56.13c-0.44,18.59,0.3,37.22,2.58,55.68
						c4.03,32.77,12.83,64.85,27.57,94.47c6.9,13.87,15.1,27.07,24.56,39.33c4.92,6.37,10.15,12.48,15.75,18.27
						c5.1,5.26,10.59,11.42,17.37,14.49c3.14,1.42,6.38,1.81,9.79,1.88c3.08,0.07,6.63-0.45,8.82,2.13
						C579.25,1461.89,584.47,1456.63,581.4,1453.02L581.4,1453.02z"/>
				</g>
			</g>
			<g>
				<g>
					<path d="M1389.57,605.37c4.52-13.66,9.03-27.32,13.55-40.99c1.12-3.39,2.6-6.86,2.79-10.47c0.19-3.67-1.55-6.9-3.77-9.68
						c-1.89-2.37-4.08-4.51-6.11-6.76c-2.24-2.47-4.45-4.98-6.62-7.51c-8.44-9.83-16.21-19.94-23.55-30.62
						c-3.7-5.38-7.25-10.85-10.66-16.41c-2.99-4.89-6.75-12.95-13.95-10.5c-6.92,2.36-8.05,11.4-8.56,17.59
						c-0.64,7.59,0.4,15.4,2.91,22.59c0.66,1.89,2.53,3.14,4.55,2.59c1.83-0.5,3.25-2.66,2.59-4.55
						c-2.07-5.91-2.99-11.66-2.81-17.88c0.09-3.04,0.38-5.62,1.05-8.53c0.12-0.54,0.27-1.07,0.44-1.59
						c0.07-0.21,0.15-0.43,0.23-0.64c-0.23,0.64,0.02-0.05,0.1-0.21c0.22-0.46,0.49-0.88,0.74-1.32c0.47-0.84-0.45,0.39,0.2-0.28
						c0.22-0.22,0.43-0.45,0.66-0.66c-0.59,0.53-0.11,0,0.1-0.02c0.55-0.07-0.86,0.05,0.04-0.03c0.7-0.06-0.01-0.03-0.12-0.03
						c0.1,0,0.2-0.01,0.3-0.01c0.41,0.02,0.41,0.02-0.01-0.02c0.09-0.04,0.7,0.28,0.09-0.01c-0.04-0.02,0.87,0.57,0.5,0.28
						c-0.39-0.3,0.46,0.47,0.42,0.43c0.01,0.01,0.71,0.86,0.35,0.39c1.7,2.28,3.01,4.9,4.5,7.32c3.27,5.29,6.67,10.5,10.2,15.62
						c7.02,10.19,14.55,20.03,22.54,29.49c3.96,4.7,8.05,9.28,12.24,13.78c0.78,0.84,1.81,1.94,2.37,2.69
						c0.14,0.19,0.6,0.87,0.83,1.29c0.49,0.85,0.49,0.86,0.7,1.64c0.2,0.78,0.16,0.73,0.12,1.57c-0.03,0.57-0.17,1.08-0.35,1.76
						c-0.42,1.56-0.97,3.08-1.48,4.61c-4.75,14.37-9.5,28.75-14.25,43.12c-0.63,1.9,0.73,4.04,2.59,4.55
						C1387.03,608.51,1388.94,607.28,1389.57,605.37L1389.57,605.37z"/>
				</g>
			</g>
			<g>
				<g>
					<path d="M1355.66,573.58c-4.47,8.97-8.04,18.26-11.49,27.65c-4.09,11.1-8.65,22.03-14.12,32.53
						c-12.81,24.57-30.09,46.46-43.13,70.89c-12.95,24.27-22.19,50.44-28.34,77.22c-6.41,27.92-9.51,56.54-10.35,85.15
						c-0.89,30.25,0.71,60.52,3.39,90.65c0.33,3.75,0.69,7.5,1.05,11.25c0.19,1.99,1.56,3.7,3.7,3.7c1.85,0,3.9-1.7,3.7-3.7
						c-2.91-29.98-4.94-60.09-4.67-90.23c0.26-28.56,2.58-57.14,8.22-85.16c5.35-26.55,13.54-52.64,25.5-76.98
						c12.17-24.79,29.02-46.72,42.7-70.63c6.5-11.36,11.99-23.26,16.74-35.45c3.32-8.53,6.17-17.24,9.91-25.6
						c1.14-2.54,2.34-5.06,3.58-7.55C1364.17,573.06,1357.78,569.31,1355.66,573.58L1355.66,573.58z"/>
				</g>
			</g>
			<g>
				<g>
					<path d="M1348.68,827.4c-4.07,2.83-7.92,4.45-12.83,5.38c-4.12,0.78-9.07,0.63-13.29-0.42c-1.94-0.48-4.01,0.62-4.55,2.59
						c-0.52,1.89,0.64,4.07,2.59,4.55c10.8,2.68,22.65,0.67,31.82-5.7c1.64-1.14,2.39-3.24,1.33-5.06
						C1352.8,827.11,1350.33,826.26,1348.68,827.4L1348.68,827.4z"/>
				</g>
			</g>
			<g>
				<g>
					<path d="M1378.3,952.02c-9.84-29.55-17.02-60.23-21.1-90.98c-1.15-8.68-2.07-17.38-2.76-26.11c-0.16-1.99-1.59-3.7-3.7-3.7
						c-1.88,0-3.86,1.7-3.7,3.7c2.51,31.58,7.96,62.93,16.35,93.48c2.36,8.59,4.96,17.12,7.77,25.58c0.63,1.9,2.55,3.13,4.55,2.59
						C1377.57,956.07,1378.93,953.93,1378.3,952.02L1378.3,952.02z"/>
				</g>
			</g>
			<g>
				<g>
					<path d="M1267.75,1025.29c-0.65-9.49-1.3-18.97-1.95-28.46c-0.33-4.83-0.67-9.66-1.49-14.43c-0.8-4.65-2.09-9.2-3.38-13.73
						c-0.55-1.92-2.61-3.12-4.55-2.59c-1.92,0.53-3.13,2.62-2.59,4.55c1.24,4.38,2.49,8.77,3.3,13.25
						c0.79,4.41,1.04,8.95,1.35,13.44c0.64,9.32,1.28,18.64,1.92,27.97c0.14,1.99,1.6,3.7,3.7,3.7
						C1265.95,1028.99,1267.89,1027.29,1267.75,1025.29L1267.75,1025.29z"/>
				</g>
			</g>
			<g>
				<g>
					<path d="M1428.66,601.32c5.6-8.64,9.88-18.28,12.35-28.29c0.66-2.68,1.19-5.51,1.04-8.29c-0.16-2.94-1.01-5.63-2.24-8.29
						c-2.28-4.91-5.39-9.5-8.13-14.16c-5.73-9.74-11.46-19.48-17.19-29.22c-2.7-4.59-5.19-9.46-8.69-13.51
						c-3.15-3.64-7.37-6.08-11.86-7.69c-4.92-1.77-10.19-2.43-15.36-2.98c-6.18-0.66-12.36-1.25-18.54-1.88
						c-1.99-0.2-3.7,1.85-3.7,3.7c0,2.17,1.7,3.5,3.7,3.7c5.35,0.54,10.71,1.08,16.06,1.62c4.45,0.45,7.76,0.75,12.17,1.85
						c1,0.25,2,0.54,2.98,0.86c0.49,0.16,0.96,0.34,1.45,0.52c0.06,0.02,0.66,0.26,0.18,0.06c0.23,0.1,0.47,0.2,0.7,0.31
						c0.92,0.42,1.81,0.9,2.67,1.43c0.43,0.26,0.84,0.55,1.26,0.83c0.05,0.03,0.56,0.41,0.16,0.1c0.25,0.19,0.49,0.4,0.73,0.61
						c3.47,3.01,5.55,7.13,7.93,11.18c5.48,9.31,10.95,18.62,16.43,27.93c2.73,4.65,5.47,9.29,8.2,13.94
						c2.38,4.06,4.2,7.69,3.57,12.21c-0.74,5.29-2.71,10.61-4.73,15.53c-1.94,4.72-4.65,9.71-7.53,14.16
						c-1.09,1.68-0.34,4.09,1.33,5.06C1425.4,603.69,1427.57,603,1428.66,601.32L1428.66,601.32z"/>
				</g>
			</g>
			<g>
				<g>
					<path d="M1459.27,607.96c1.01-4.69,2.31-9.32,3.92-13.84c1.56-4.38,3.6-8.45,5.21-12.82c1.71-4.66,2.13-9.45,1.4-14.34
						c-0.68-4.59-2.43-8.96-4.48-13.1c-4.11-8.29-9.46-16.09-14.8-23.63c-5.46-7.71-11.2-15.41-17.63-22.35
						c-3.47-3.74-7.31-7.17-12.1-9.08c-2.26-0.9-4.74-1.28-7.15-0.95c-1.34,0.18-2.58,0.55-3.79,1.19
						c-0.44,0.23-0.84,0.51-1.27,0.77c-0.21,0.13-0.43,0.27-0.66,0.38c0.07-0.02,0.14-0.05,0.22-0.07c-1.04,0.25-0.44,0.48,1.82,0.7
						c-1.53-1.29-3.74-1.5-5.23,0c-1.32,1.32-1.54,3.94,0,5.23c2.38,2,5.06,1.7,7.59,0.15c0.37-0.23,0.73-0.46,1.1-0.68
						c0.35-0.21,0.04-0.06-0.05-0.02c0.22-0.1,0.46-0.17,0.69-0.23c0.17-0.05,0.35-0.08,0.53-0.12c0.59-0.14-0.52,0.02,0.09-0.01
						c0.49-0.02,0.97-0.02,1.46,0.02c0.44,0.04,0.01,0-0.06-0.01c0.25,0.04,0.49,0.09,0.74,0.15c0.44,0.1,0.86,0.23,1.29,0.38
						c0.06,0.02,0.81,0.3,0.47,0.16c-0.29-0.12,0.3,0.14,0.28,0.13c0.48,0.23,0.95,0.47,1.4,0.73c1.94,1.11,2.86,1.94,4.54,3.51
						c3.28,3.08,6.14,6.57,8.97,10.06c2.8,3.45,5.45,6.9,8.07,10.49c5.31,7.28,10.39,14.81,14.85,22.64
						c2.17,3.81,4.01,7.48,5.16,11.66c1.1,3.98,1.34,7.77,0.25,11.71c-1.34,4.85-3.77,9.25-5.55,14.05
						c-1.83,4.94-3.29,10.01-4.4,15.17c-0.42,1.95,0.58,4,2.59,4.55C1456.56,611.05,1458.84,609.92,1459.27,607.96L1459.27,607.96z"
						/>
				</g>
			</g>
			<g>
				<g>
					<path d="M1469.29,567.99c3.23,3.39,6.24,6.68,8.7,10.52c2.49,3.88,4.02,7.68,4.84,12.27c0.19,1.04,0.26,1.59,0.36,2.83
						c0.1,1.21,0.14,2.43,0.14,3.65c0,1.08-0.04,2.17-0.12,3.25c-0.06,0.95-0.23,2.59-0.31,3.14c-0.65,4.66-1.89,9.25-3.43,13.69
						c-6.06,17.41-16.83,33.44-27.35,48.72c-6.07,8.82-12.25,17.58-17.94,26.66c-1.06,1.69-0.36,4.08,1.33,5.06
						c1.78,1.04,4,0.37,5.06-1.33c10.35-16.53,22.35-31.98,32.34-48.74c5.05-8.47,9.6-17.3,13.03-26.55
						c3.4-9.15,5.66-19.25,4.5-29.05c-0.67-5.69-2.33-11.11-5.27-16.06c-2.9-4.9-6.74-9.2-10.66-13.31c-1.38-1.45-3.85-1.39-5.23,0
						C1467.84,564.2,1467.91,566.54,1469.29,567.99L1469.29,567.99z"/>
				</g>
			</g>
			<g>
				<g>
					<path d="M1432.98,697.19c-11.16,17.73-22.32,35.47-33.49,53.2c-11.12,17.66-22.21,35.34-33.35,52.98
						c-5.81,9.2-11.74,18.4-18.67,26.76c-1.27,1.54-1.51,3.73,0,5.23c1.31,1.31,3.95,1.55,5.23,0c6.41-7.73,12.05-16.05,17.45-24.51
						c5.58-8.74,11.07-17.55,16.59-26.33c11.21-17.8,22.41-35.61,33.62-53.41c6.33-10.06,12.67-20.13,19-30.19
						c1.07-1.69,0.36-4.08-1.33-5.06C1436.27,694.82,1434.05,695.49,1432.98,697.19L1432.98,697.19z"/>
				</g>
			</g>
			<g>
				<g>
					<path d="M1477.6,1449.91c4.58-24.86,9.18-49.86,10.09-75.18c0.81-22.38-1.41-45.17-8.81-66.41
						c-4.04-11.61-9.57-22.72-16.85-32.65c-1.18-1.61-3.21-2.41-5.06-1.33c-1.59,0.93-2.52,3.44-1.33,5.06
						c12.63,17.24,19.6,37.26,22.82,58.36c3.41,22.31,2.05,46.38-1.08,69.08c-1.9,13.76-4.41,27.43-6.92,41.09
						c-0.36,1.96,0.54,3.99,2.59,4.55C1474.85,1452.99,1477.24,1451.89,1477.6,1449.91L1477.6,1449.91z"/>
				</g>
			</g>
			<g>
				<g>
					<path d="M1457.34,1270.23c-10.66-18.3-17.66-38.36-23.32-58.7c-5.99-21.54-10.88-43.42-14.86-65.42
						c-3.95-21.81-6.78-43.76-9-65.8c-2.19-21.73-4.04-43.49-6.97-65.14c-2.89-21.36-6.89-42.64-13.43-63.22
						c-0.83-2.61-1.7-5.21-2.61-7.79c-0.66-1.89-2.53-3.14-4.55-2.59c-1.83,0.5-3.25,2.66-2.59,4.55
						c7.19,20.47,11.72,41.74,14.92,63.17c3.2,21.44,5.07,43.05,7.19,64.62c2.19,22.3,4.81,44.54,8.58,66.64
						c3.8,22.3,8.59,44.43,14.38,66.3c5.46,20.62,12.04,41.11,21.96,60.06c1.25,2.38,2.55,4.73,3.91,7.06
						C1453.35,1278.08,1459.75,1274.36,1457.34,1270.23L1457.34,1270.23z"/>
				</g>
			</g>
			<g>
				<g>
					<path d="M1214.29,1109.62c0.89-4.41-1.51-7.98-4.71-10.78c-3.09-2.71-6.45-5.38-10.64-5.96c-7.56-1.04-15.2,4.21-18.22,10.99
						c-3.15,7.07-1.87,15.15,3.19,21c2.63,3.04,6.35,5.15,10.36,5.56c3.98,0.41,7.98-1.29,11.12-3.62c3.5-2.59,6.63-5.85,7.93-10.11
						c1.29-4.19,0.31-9.23-3.02-12.22c-1.49-1.33-3.77-1.47-5.23,0c-1.36,1.36-1.49,3.89,0,5.23c0.27,0.24,0.53,0.48,0.76,0.76
						c-0.36-0.46-0.01,0.03,0.04,0.12c0.02,0.05,0.48,1.09,0.23,0.4c0.08,0.22,0.15,0.45,0.21,0.68c0.19,0.73,0.18,1.91-0.03,2.71
						c-0.57,2.14-1.99,3.76-3.96,5.47c-0.86,0.74-1.77,1.39-2.97,2.06c-0.31,0.17-0.62,0.33-0.94,0.48
						c-1.19,0.56,0.24-0.06-0.47,0.18c-0.33,0.11-0.65,0.22-0.99,0.31c0.02,0-1.14,0.23-0.63,0.16c-2.38,0.32-4.43-0.7-6.15-2.33
						c-0.45-0.43-0.88-0.88-1.27-1.36c0.33,0.4-0.06-0.08-0.1-0.14c-0.21-0.31-0.42-0.62-0.61-0.93c-0.32-0.53-0.62-1.08-0.88-1.65
						c0.07,0.15,0.2,0.56-0.06-0.15c-0.15-0.41-0.29-0.82-0.41-1.24c-0.64-2.21-0.7-4.21-0.14-6.29c0.16-0.58,0.34-1.17,0.58-1.73
						c-0.24,0.57,0.08-0.15,0.15-0.28c0.14-0.27,0.28-0.54,0.43-0.8c0.3-0.53,0.63-1.04,0.99-1.53c-0.32,0.44,0.04-0.05,0.1-0.11
						c0.32-0.37,0.64-0.73,0.99-1.08c0.43-0.43,0.88-0.85,1.36-1.21c-0.15,0.11-0.45,0.29,0.13-0.07c0.26-0.16,0.51-0.33,0.77-0.49
						c0.26-0.16,0.52-0.31,0.79-0.45c-0.08,0.04,1-0.48,0.55-0.28c-0.48,0.21,0.82-0.3,0.65-0.24c0.42-0.14,0.85-0.27,1.29-0.37
						c2.59-0.61,4.88,0.5,6.97,2.16c1.29,1.02,2.49,2.12,3.65,3.28c0.84,0.85-0.09-0.2,0.31,0.34c0.26,0.36,0.52,0.75,0.7,1.16
						c-0.09-0.21-0.08-0.42,0.02,0.16c0.1,0.44,0.11,0.48,0.03,0.1c-0.01,0.45-0.01,0.49,0.01,0.13c-0.4,1.96,0.56,4,2.59,4.55
						C1211.56,1112.71,1213.89,1111.59,1214.29,1109.62L1214.29,1109.62z"/>
				</g>
			</g>
			<g>
				<g>
					<path d="M1232.01,1297.77c-1.48-3.66-4.29-6.24-8.1-7.37c-3.66-1.08-7.53-0.42-10.86,1.33c-6.99,3.68-10.98,11.63-11.94,19.19
						c-0.85,6.72,0.86,15.81,7.52,19.19c8.06,4.09,15.87-2.59,19.65-9.35c2.12-3.8,3.43-8.26,2.89-12.64
						c-0.57-4.63-2.69-8.51-6.4-11.36c-1.59-1.22-4.14-0.25-5.06,1.33c-1.11,1.91-0.26,3.85,1.33,5.06
						c-0.54-0.41,0.36,0.37,0.37,0.38c0.17,0.17,0.33,0.35,0.5,0.53c0.71,0.75-0.23-0.47,0.32,0.41c0.16,0.26,0.33,0.52,0.48,0.78
						c0.15,0.27,0.29,0.54,0.42,0.82c-0.25-0.54,0.07,0.18,0.12,0.32c0.23,0.65,0.38,1.31,0.54,1.97c0.26,1.1,0-0.63,0.07,0.49
						c0.02,0.25,0.04,0.49,0.04,0.74c0.02,0.57-0.02,1.57-0.06,1.88c-0.13,1.05-0.6,2.75-1.12,3.95c-0.34,0.78-1.24,2.37-1.93,3.39
						c-0.75,1.12-1.3,1.8-2.44,2.87c-0.78,0.73-1.84,1.51-2.79,1.91c0.41-0.17-0.76,0.24-0.65,0.21c0.08-0.02-1.12,0.23-0.63,0.16
						c0.49-0.07-0.74,0.02-0.65,0.02c-0.45-0.04-0.51-0.03-0.17,0.02c-0.13-0.03-0.26-0.05-0.39-0.08
						c-0.07-0.02-1.15-0.37-0.41-0.07c-0.26-0.11-0.5-0.25-0.74-0.39c-0.15-0.09-0.74-0.51-0.21-0.1c-0.22-0.17-0.43-0.37-0.63-0.57
						c-0.2-0.2-0.39-0.41-0.58-0.63c0.42,0.49-0.06-0.08-0.15-0.22c-0.36-0.54-0.66-1.11-0.95-1.69c-0.49-0.98,0.15,0.61-0.17-0.44
						c-0.09-0.28-0.19-0.56-0.28-0.85c-0.17-0.57-0.31-1.14-0.42-1.72c-0.12-0.61-0.12-0.59-0.18-1.43
						c-0.06-0.75-0.08-1.5-0.06-2.26c0.02-0.75,0.06-1.51,0.16-2.25c0.09-0.75-0.19,0.83,0.08-0.44c0.07-0.34,0.13-0.67,0.2-1.01
						c0.15-0.67,0.33-1.33,0.53-1.98c0.1-0.33,0.21-0.65,0.33-0.97c0.09-0.26,0.19-0.51,0.29-0.77c-0.08,0.19-0.07,0.17,0.03-0.06
						c1.2-2.7,2.45-4.52,4.49-6.35c1.88-1.7,3.9-2.5,6.33-2.48c1.05,0.01-0.4-0.1,0.21,0.02c0.39,0.08,0.78,0.17,1.16,0.29
						c0.22,0.07,0.44,0.14,0.65,0.23c-0.7-0.29,0.51,0.31,0.63,0.38c0.19,0.12,0.38,0.24,0.56,0.38c-0.6-0.45,0.39,0.43,0.49,0.53
						c0.11,0.11,0.38,0.55,0.04,0.03c0.09,0.13,0.68,1.3,0.4,0.6c0.75,1.85,2.47,3.16,4.55,2.59
						C1231.19,1301.84,1232.77,1299.64,1232.01,1297.77L1232.01,1297.77z"/>
				</g>
			</g>
			<g>
				<g>
					<path d="M1112.17,845.93c11.24,36.52,20.61,73.6,28.18,111.06c7.57,37.43,13.36,75.22,17.47,113.19
						c4.12,38.15,6.58,76.48,7.46,114.84c0.88,38.06,0.21,76.15-1.92,114.16c-2.24,39.85-7.12,79.63-6.98,119.58
						c0.02,5.03,0.13,10.07,0.32,15.1c0.18,4.75,7.59,4.77,7.4,0c-1.55-40.24,3.14-80.32,5.78-120.42
						c2.53-38.32,3.56-76.75,3.04-115.15c-0.52-38.36-2.6-76.71-6.34-114.9c-3.75-38.31-9.15-76.47-16.33-114.28
						c-7.13-37.55-16.03-74.78-26.82-111.45c-1.35-4.57-2.72-9.14-4.13-13.7C1117.91,839.42,1110.76,841.36,1112.17,845.93
						L1112.17,845.93z"/>
				</g>
			</g>
			<g>
				<g>
					<path d="M1335.77,511.12c-0.7,8.24-0.31,16.49,1.01,24.65c0.64,3.94,1.52,7.85,2.65,11.68c0.56,1.92,1.18,3.82,1.87,5.69
						c0.34,0.94,0.71,1.87,1.07,2.8c0.13,0.34,0.24,0.68,0.35,1.02c0.1,0.45,0.11,0.47,0.02,0.06c0.4-0.98,0.43-1.19,0.09-0.64
						c-1.13,1.65-0.31,4.11,1.33,5.06c1.84,1.07,3.93,0.32,5.06-1.33c1.39-2.02,0.94-4.45,0.11-6.57c-0.73-1.86-1.41-3.74-2.02-5.64
						c-1.3-4.02-2.33-8.13-3.08-12.29c-1.43-7.9-1.76-16.3-1.05-24.5c0.17-1.99-1.82-3.7-3.7-3.7
						C1337.32,507.41,1335.94,509.12,1335.77,511.12L1335.77,511.12z"/>
				</g>
			</g>
			<g>
				<g>
					<path d="M1376.98,946.41c-4.14,6.08-7.7,12.53-11.49,18.83c-3.19,5.32-6.62,10.49-10.32,15.48
						c-3.15,4.25-6.95,8.87-10.83,13.16c-4.02,4.45-8.26,8.71-12.68,12.77c-8.84,8.11-17.64,14.79-27.89,21.19
						c-5.09,3.18-10.33,6.13-15.69,8.82c-5.33,2.68-10.39,4.94-15.55,6.96c-12.49,4.89-25.48,8.44-38.73,10.55
						c1.52,1.52,3.04,3.04,4.55,4.55c3.98-16.18,11.78-31.31,22.68-43.77c1.32-1.5,1.48-3.75,0-5.23c-1.34-1.34-3.91-1.51-5.23,0
						c-11.78,13.47-20.3,29.65-24.58,47.04c-0.73,2.95,1.8,4.99,4.55,4.55c24.02-3.83,47.25-12.46,68.14-24.89
						c20.88-12.42,39.59-28.68,54.53-47.87c4.29-5.51,8.32-11.22,11.99-17.17c4.35-7.06,8.28-14.38,12.95-21.24
						c1.13-1.65,0.31-4.1-1.33-5.06C1380.22,944.01,1378.11,944.75,1376.98,946.41L1376.98,946.41z"/>
				</g>
			</g>
			<g>
				<g>
					<path d="M1264.91,1027.89c0.02,0.12,0.15,1.13,0.07,0.48c0.05,0.43,0.1,0.86,0.15,1.29c0.08,0.74,0.14,1.47,0.2,2.21
						c0.11,1.54,0.17,3.08,0.17,4.62c0,1.48-0.04,2.96-0.14,4.43c-0.05,0.74-0.11,1.47-0.18,2.21c-0.04,0.43-0.09,0.86-0.14,1.29
						c-0.02,0.18-0.04,0.37-0.07,0.55c0.05-0.37,0.05-0.33-0.02,0.12c-0.15,1.03-0.17,1.92,0.37,2.85c0.45,0.77,1.33,1.5,2.21,1.7
						c1.75,0.4,4.26-0.53,4.55-2.59c1-7.08,0.98-14.05-0.05-21.12c-0.28-1.92-2.81-3.15-4.55-2.59
						C1265.39,1024.02,1264.61,1025.83,1264.91,1027.89L1264.91,1027.89z"/>
				</g>
			</g>
			<g>
				<g>
					<path d="M1231.84,1057.6c5.79,20.79,9.47,42.1,11.66,63.55c2.23,21.79,3.03,43.69,3.31,65.58c0.27,21.94,0.01,43.88,0.06,65.81
						c0.05,21.87,0.41,43.75,1.93,65.57c1.54,21.9,4.25,43.77,8.97,65.22c0.57,2.61,1.18,5.21,1.81,7.81
						c1.13,4.63,8.27,2.67,7.14-1.97c-5.12-21.02-8.2-42.45-9.98-64c-1.8-21.89-2.32-43.85-2.45-65.81
						c-0.12-21.94,0.15-43.88-0.02-65.82c-0.17-21.81-0.78-43.63-2.7-65.37c-1.93-21.81-5.16-43.57-10.54-64.81
						c-0.66-2.59-1.34-5.17-2.06-7.74C1237.7,1051.05,1230.56,1052.99,1231.84,1057.6L1231.84,1057.6z"/>
				</g>
			</g>
			<g>
				<g>
					<path d="M1469.09,1446.88c-0.54,0.51-1.09,1.02-1.68,1.47c0.54-0.42-0.42,0.29-0.43,0.29c-0.3,0.21-0.6,0.41-0.91,0.6
						c-0.62,0.38-1.25,0.74-1.9,1.06c-0.32,0.16-0.65,0.31-0.98,0.47c-0.4,0.18-0.44,0.2-0.12,0.05c-0.22,0.09-0.45,0.18-0.68,0.26
						c-1.26,0.47-2.55,0.85-3.87,1.16c-0.73,0.17-1.46,0.32-2.19,0.44c-0.37,0.06-0.74,0.12-1.11,0.18c0.66-0.09-0.76,0.09-0.89,0.1
						c-6.24,0.65-12.53,0.14-18.76-0.41c-15.81-1.38-31.62-2.7-47.42-4.15c-15.07-1.38-30.02-3.13-44.75-6.74
						c-13.77-3.37-27.18-8.12-39.81-14.14c-7.18-3.42-14.16-7.24-20.91-11.45c-1.62-1.01-3.23-2.05-4.83-3.1
						c-1.72-1.14-2.94-1.89-4.17-3.01c-1.38-1.26-1.86-1.86-2.69-3.33c-0.47-0.83,0.05,0.52-0.15-0.38
						c-0.07-0.21-0.12-0.42-0.16-0.64c0.05,0.45,0.05,0.46,0.02,0.03c0-0.11,0-0.21,0-0.32c-0.09,0.46-0.09,0.47,0,0.04
						c0.13-0.4,0.12-0.41-0.03-0.04c0.1-0.21,0.22-0.41,0.35-0.6c1.06-1.7,0.36-4.08-1.33-5.06c-1.77-1.04-4-0.37-5.06,1.33
						c-2.03,3.25-1.5,7.2,0.51,10.32c2.04,3.17,4.98,5.39,8.06,7.45c6.11,4.1,12.45,7.87,18.96,11.3
						c13.29,7.01,27.35,12.66,41.8,16.77c15.33,4.36,31.09,6.68,46.92,8.28c16.47,1.67,32.99,2.96,49.48,4.39
						c6.95,0.61,13.94,1.42,20.92,1.09c6.57-0.31,13.39-1.6,18.98-5.26c1.44-0.95,2.81-2.03,4.06-3.22c1.45-1.38,1.39-3.85,0-5.23
						C1472.87,1445.43,1470.54,1445.5,1469.09,1446.88L1469.09,1446.88z"/>
				</g>
			</g>
			<g>
				<g>
					<path d="M1397.68,776.38c21.17,6.81,42.33,13.62,63.5,20.44c17.11,5.51,34.58,10.74,50.2,19.85
						c15.02,8.76,26.88,21.36,33.33,37.64c6.44,16.27,8.08,33.97,7.89,51.33c-0.47,42.83-9.45,85.39-16.7,127.45
						c-3.73,21.62-7.46,43.23-11.18,64.85c-3.66,21.22-7.2,42.48-12.01,63.48c-4.84,21.12-11.75,41.67-16.78,62.74
						c-5,20.95-7.48,42.43-8.57,63.92c-0.27,5.34-0.45,10.69-0.58,16.03c-0.11,4.77,7.29,4.76,7.4,0
						c0.53-22.07,2.07-44.17,6.26-65.87c4.15-21.46,11.21-42.17,16.61-63.32c5.4-21.16,9.22-42.69,12.94-64.2
						c3.79-21.93,7.57-43.87,11.35-65.81c7.49-43.43,16.59-87.13,18.45-131.27c0.75-17.76-0.07-35.99-5.13-53.13
						c-5.05-17.12-14.65-32.13-28.85-43.06c-14.23-10.95-31.27-17.44-48.16-23.07c-20.55-6.84-41.24-13.31-61.86-19.95
						c-5.38-1.73-10.75-3.46-16.13-5.19C1395.1,767.78,1393.16,774.93,1397.68,776.38L1397.68,776.38z"/>
				</g>
			</g>
		</g>
	</g>
</g>
</svg>
