<?xml version="1.0" encoding="utf-8"?>
<!-- Generator: Adobe Illustrator 26.3.1, SVG Export Plug-In . SVG Version: 6.00 Build 0)  -->
<svg version="1.1" xmlns="http://www.w3.org/2000/svg" xmlns:xlink="http://www.w3.org/1999/xlink" x="0px" y="0px"
	 viewBox="0 0 1984.25 1984.25" style="enable-background:new 0 0 1984.25 1984.25;" xml:space="preserve">
<style type="text/css">
	.st0{fill:#FFFFFF;}
	.st1{fill:#1B1439;}
	.st2{fill:#F5F0E2;}
	.st3{fill:#ED1E78;}
	.st4{fill:#FE3922;stroke:#000000;stroke-width:6.2938;stroke-miterlimit:10;}
	.st5{fill:#29597E;}
	.st6{fill:#D95F86;}
	.st7{fill:#D95F86;stroke:#000000;stroke-width:4.6468;stroke-miterlimit:10;}
	.st8{fill:none;stroke:#000000;stroke-width:9.3644;stroke-miterlimit:10;}
	.st9{fill:#ED1E78;stroke:#000000;stroke-width:9.3644;stroke-miterlimit:10;}
	.st10{fill:#FBAE16;stroke:#020202;stroke-width:9.3644;stroke-miterlimit:10;}
	.st11{fill:#F5F0E2;stroke:#000000;stroke-width:9.3644;stroke-miterlimit:10;}
	.st12{fill:#29597E;stroke:#000000;stroke-width:2.8238;stroke-miterlimit:10;}
	.st13{fill:#F9E819;}
	.st14{fill:#FBAE16;}
	.st15{fill:#020202;}
	.st16{fill:#FBAE16;stroke:#020202;stroke-width:4.8212;stroke-miterlimit:10;}
	.st17{fill:#ED1E78;stroke:#000000;stroke-width:4.8212;stroke-miterlimit:10;}
	.st18{fill:#FE3922;stroke:#000000;stroke-width:4.8212;stroke-miterlimit:10;}
	.st19{fill:none;stroke:#000000;stroke-width:4.8212;stroke-miterlimit:10;}
</style>
<g id="Layer_1">
</g>
<g id="Layer_3">
</g>
<g id="Layer_4">
</g>
<g id="Layer_5">
</g>
<g id="Layer_6">
</g>
<g id="Layer_7">
</g>
<g id="Layer_8">
</g>
<g id="Layer_2">
	<circle class="st8" cx="1196.58" cy="1452.18" r="32.11"/>
	<circle class="st8" cx="1196.58" cy="1452.18" r="32.11"/>
	<g>
		<path class="st9" d="M1492.62,1143.66c-3.78,8.86-8.28,17.15-13.54,24.77l-268.13-114.46c1.86-9.07,4.74-18.05,8.52-26.91
			c3.78-8.86,8.28-17.15,13.54-24.77c38.98-57.98,114.75-81.93,181.33-53.51c66.59,28.43,101.71,99.71,86.79,167.97
			C1499.28,1125.81,1496.4,1134.8,1492.62,1143.66z"/>
		<path class="st10" d="M1492.62,1143.66c-3.78,8.86-8.28,17.15-13.54,24.77l-268.13-114.46c1.86-9.07,4.74-18.05,8.52-26.91
			c3.78-8.86,8.28-17.15,13.54-24.77l268.13,114.46C1499.28,1125.81,1496.4,1134.8,1492.62,1143.66z"/>
		<path class="st9" d="M1479.08,1168.42c-34.09,50.82-96.47,75.51-156.17,61.63c-8.46-1.86-16.89-4.59-25.16-8.12
			c-10.7-4.57-20.58-10.27-29.54-16.88c-47.03-34.39-69.81-93.86-57.26-151.08L1479.08,1168.42z"/>
		<path class="st10" d="M1223,1407.25l63.09-147.8c-2.65-0.34-5.21-1.09-7.79-2.19c-2.58-1.1-4.89-2.44-6.97-4.11l-63.25,148.17
			c-24.1-5.49-49.43,6.83-59.49,30.38c-11.31,26.5,1,57.16,27.5,68.47c26.5,11.31,57.16-1,68.47-27.5
			C1254.99,1448.23,1245.36,1420.29,1223,1407.25z M1183.97,1481.71c-16.31-6.96-23.89-25.82-16.92-42.14
			c6.96-16.32,25.82-23.89,42.14-16.92c16.32,6.96,23.89,25.82,16.92,42.14C1219.14,1481.1,1200.29,1488.68,1183.97,1481.71z"/>
		<path class="st11" d="M1320.43,1240.34c-5.86,13.73-20.19,21.32-34.34,19.12c-2.65-0.34-5.21-1.09-7.79-2.19
			c-2.58-1.1-4.89-2.44-6.97-4.11c-11.38-8.7-15.81-24.29-9.95-38.02c1.67-3.91,3.98-7.29,6.84-10.09
			c8.96,6.62,18.83,12.32,29.54,16.88c8.27,3.53,16.7,6.26,25.16,8.12C1322.65,1233.52,1321.85,1237.02,1320.43,1240.34z"/>
	</g>
	<g>
		<path class="st11" d="M958.8,714l125.56,224.08c25.9,46.22,9.27,105.22-36.95,131.12l-98.04,54.93
			c-46.22,25.9-105.22,9.27-131.12-36.95L692.7,863.1c-10.24-18.28-13.78-38.56-11.61-57.99c0.46-0.17,0.95-0.44,1.44-0.71
			l224.5-125.79c2.59-1.45,4.73-3.39,6.31-5.65C931.99,681.08,948.17,695.02,958.8,714z"/>
		<path class="st9" d="M879.09,588.16l35.55,63.44c3.92,7,3.17,15.34-1.29,21.34c-1.58,2.27-3.72,4.2-6.31,5.65l-224.5,125.79
			c-0.49,0.27-0.98,0.55-1.44,0.71c-9.36,4.32-20.45,0.78-25.55-8.32L620,733.34c-5.38-9.59-1.99-21.61,7.6-26.99l224.5-125.79
			C861.7,575.18,873.72,578.57,879.09,588.16z"/>
		<path class="st9" d="M843.07,585.62L636.63,701.29c-5.61-17.56-6.08-48.95,18.46-102.36c0,0,6.16-21.85-13.46-56.87
			s13.58-49.66,13.58-49.66s29.82-20.67,49.44,14.35s41.47,41.17,41.47,41.17C804.5,554.88,831.02,571.67,843.07,585.62z"/>
		<line class="st8" x1="779.12" y1="828.48" x2="697.14" y2="874.41"/>
		<line class="st8" x1="802.66" y1="870.49" x2="720.68" y2="916.43"/>
		<line class="st8" x1="826.2" y1="912.51" x2="744.23" y2="958.44"/>
		<line class="st8" x1="849.74" y1="954.52" x2="767.77" y2="1000.46"/>
		<line class="st8" x1="877.21" y1="1003.54" x2="795.23" y2="1049.48"/>
	</g>
</g>
</svg>
