<?xml version="1.0" encoding="utf-8"?>
<!-- Generator: Adobe Illustrator 26.3.1, SVG Export Plug-In . SVG Version: 6.00 Build 0)  -->
<svg version="1.1" xmlns="http://www.w3.org/2000/svg" xmlns:xlink="http://www.w3.org/1999/xlink" x="0px" y="0px"
	 viewBox="0 0 1984.25 1984.25" style="enable-background:new 0 0 1984.25 1984.25;" xml:space="preserve">
<style type="text/css">
	.st0{fill:#FFFFFF;}
	.st1{fill:#1B1439;}
	.st2{fill:#F5F0E2;}
	.st3{fill:#ED1E78;}
	.st4{fill:#FE3922;stroke:#000000;stroke-width:6.2938;stroke-miterlimit:10;}
	.st5{fill:#29597E;}
	.st6{fill:#D95F86;}
	.st7{fill:#D95F86;stroke:#000000;stroke-width:4.6468;stroke-miterlimit:10;}
	.st8{fill:none;stroke:#000000;stroke-width:9.3644;stroke-miterlimit:10;}
	.st9{fill:#ED1E78;stroke:#000000;stroke-width:9.3644;stroke-miterlimit:10;}
	.st10{fill:#FBAE16;stroke:#020202;stroke-width:9.3644;stroke-miterlimit:10;}
	.st11{fill:#F5F0E2;stroke:#000000;stroke-width:9.3644;stroke-miterlimit:10;}
	.st12{fill:#29597E;stroke:#000000;stroke-width:2.8238;stroke-miterlimit:10;}
	.st13{fill:#F9E819;}
	.st14{fill:#FBAE16;}
	.st15{fill:#020202;}
	.st16{fill:#FBAE16;stroke:#020202;stroke-width:4.8212;stroke-miterlimit:10;}
	.st17{fill:#ED1E78;stroke:#000000;stroke-width:4.8212;stroke-miterlimit:10;}
	.st18{fill:#FE3922;stroke:#000000;stroke-width:4.8212;stroke-miterlimit:10;}
	.st19{fill:none;stroke:#000000;stroke-width:4.8212;stroke-miterlimit:10;}
</style>
<g id="Layer_1">
</g>
<g id="Layer_3">
</g>
<g id="Layer_4">
</g>
<g id="Layer_5">
</g>
<g id="Layer_6">
</g>
<g id="Layer_7">
</g>
<g id="Layer_8">
</g>
<g id="Layer_2">
	<g>
		<g>
			<path class="st3" d="M1069.79,367.51c-25.53,70.78-48.02,142.67-70.15,214.56c-28.71,93.3-56.19,186.98-82.99,280.85
				c-27.17,95.19-53.61,190.6-79.1,286.26c-20.38,76.51-40.38,153.16-58.36,230.27c-16.72,71.66-32.61,143.53-48.5,215.37
				c-1.3,5.86-2.59,11.72-3.85,17.59c-2.55,11.85,15.64,16.91,18.21,5.02c15.23-70.66,31.53-141.09,47.45-211.59
				c16.66-73.77,35.64-147.04,54.93-220.16c24.93-94.53,50.88-188.8,77.53-282.86c26.88-94.89,54.46-189.58,83.17-283.93
				c22.97-75.47,46.38-150.89,72.43-225.37c2.45-7.01,4.93-14.01,7.45-20.99C1092.13,361.08,1073.89,356.14,1069.79,367.51
				L1069.79,367.51z"/>
		</g>
	</g>
</g>
</svg>
