<?xml version="1.0" encoding="utf-8"?>
<!-- Generator: Adobe Illustrator 26.3.1, SVG Export Plug-In . SVG Version: 6.00 Build 0)  -->
<svg version="1.1" xmlns="http://www.w3.org/2000/svg" xmlns:xlink="http://www.w3.org/1999/xlink" x="0px" y="0px"
	 viewBox="0 0 1984.25 1984.25" style="enable-background:new 0 0 1984.25 1984.25;" xml:space="preserve">
<style type="text/css">
	.st0{fill:#FFFFFF;}
	.st1{fill:#1B1439;}
	.st2{fill:#F5F0E2;}
	.st3{fill:#ED1E78;}
	.st4{fill:#FE3922;stroke:#000000;stroke-width:6.2938;stroke-miterlimit:10;}
	.st5{fill:#29597E;}
	.st6{fill:#D95F86;}
	.st7{fill:#D95F86;stroke:#000000;stroke-width:4.6468;stroke-miterlimit:10;}
	.st8{fill:none;stroke:#000000;stroke-width:9.3644;stroke-miterlimit:10;}
	.st9{fill:#ED1E78;stroke:#000000;stroke-width:9.3644;stroke-miterlimit:10;}
	.st10{fill:#FBAE16;stroke:#020202;stroke-width:9.3644;stroke-miterlimit:10;}
	.st11{fill:#F5F0E2;stroke:#000000;stroke-width:9.3644;stroke-miterlimit:10;}
	.st12{fill:#29597E;stroke:#000000;stroke-width:2.8238;stroke-miterlimit:10;}
	.st13{fill:#F9E819;}
	.st14{fill:#FBAE16;}
	.st15{fill:#020202;}
	.st16{fill:#FBAE16;stroke:#020202;stroke-width:4.8212;stroke-miterlimit:10;}
	.st17{fill:#ED1E78;stroke:#000000;stroke-width:4.8212;stroke-miterlimit:10;}
	.st18{fill:#FE3922;stroke:#000000;stroke-width:4.8212;stroke-miterlimit:10;}
	.st19{fill:none;stroke:#000000;stroke-width:4.8212;stroke-miterlimit:10;}
</style>
<g id="Layer_1">
</g>
<g id="Layer_3">
</g>
<g id="Layer_4">
</g>
<g id="Layer_5">
</g>
<g id="Layer_6">
</g>
<g id="Layer_7">
</g>
<g id="Layer_8">
</g>
<g id="Layer_2">
	<g>
		<path class="st0" d="M830.71,640.19c-2.44,1.81-4.89,3.71-6.66,6.18c-1.78,2.48-2.8,5.41-3.68,8.33
			c-4.92,16.26-6.29,33.59-4,50.42c0.97,7.13,2.66,14.33,6.45,20.45c7.61,12.27,22.22,18.12,36.17,21.86
			c10.86,2.91,22.42,5,33.26,1.99c1.18-0.33,2.42-0.77,3.11-1.78c0.84-1.22,0.6-2.86,0.33-4.32c-3.55-19.11-7.1-38.22-10.66-57.33
			c-1.76-9.46-3.98-17.97-9.29-26.08c-4.74-7.23-4.58-11.1-6.05-19.06C866.04,621.07,840.39,633,830.71,640.19z"/>
		<path class="st0" d="M1081.95,567.9c-32.74,41.05-78.34,71.67-128.73,86.43c-3.08,0.9-6.37,1.87-8.42,4.33
			c-1.67,2-2.24,4.67-2.71,7.23c-10.22,55.46,2.13,112.3,14.43,167.34c0.98,4.39,2.09,9.03,5.26,12.23
			c2.03,2.05,4.71,3.29,7.06,4.96c6.2,4.39,10.08,11.66,16.71,15.36c3.38,1.88,7.36,2.75,10.31,5.26c3.98,3.39,5.22,8.97,8.3,13.2
			c7.68,10.57,23.47,9.64,36.34,7.43c15.59-2.68,31.56-5.81,44.88-14.34c11.58-7.42,20.34-18.42,28.87-29.22
			c8.38-10.6,16.77-21.22,24.1-32.57c8.41-13.01,15.4-26.94,20.74-41.48c7.96-21.65,12.19-45.84,4.79-67.69
			c-5.62-16.62-17.98-30.85-33.64-38.75s-34.45-9.38-51.16-4.02"/>
		<path class="st0" d="M1021.39,696.21c-0.99,9.84-1.22,20.15,2.78,29.19c7.75,17.53,29.15,25.73,37.44,43.01
			c4.86,10.14,4.46,22.08,1.97,33.05c-2.49,10.97-6.93,21.4-9.92,32.24c-1.55,5.62-2.7,11.69-0.8,17.21
			c1.68,4.87,5.5,8.64,9.2,12.23c4.05,3.92,8.11,7.85,12.16,11.77c4.46,4.32,9.86,8.97,16.02,8.13c4.31-0.59,7.74-3.76,10.86-6.78
			c24.38-23.54,49.01-47.4,66.98-76.13c10.66-17.05,18.8-35.53,26.9-53.93c9.74-22.15,19.67-45.18,19.18-69.37
			c-10.4-9.29-26.47-10.89-35.58-21.45c-4.84-5.61-6.99-12.99-10.5-19.52c-4.59-8.55-11.46-15.6-18.11-22.66
			c-11.79-12.54-23.21-25.61-32.28-40.29c-3.53-5.71-7.09-18.34-14.09-20.5c-6.87-2.11-13.29,6.2-17.59,10.39
			c-23.14,22.54-41.08,50.34-52.32,80.61C1027.4,660.41,1023.2,678.18,1021.39,696.21z"/>
		<path class="st0" d="M964.55,840.95c-1.39-2.3-5.25-1.53-6.7,0.73c-1.45,2.26-1.22,5.17-0.93,7.85
			c2.68,25.14,5.67,51.24,18.97,72.73c2.34,3.78,5.06,7.6,5.45,12.04c0.17,1.94-0.29,4.18-1.96,5.19c-3.36,2.03-6.79-2.46-8.27-6.1
			c-10.44-25.6-26.63-48.37-42.68-70.88c-4.67-6.55-9.34-13.1-14.01-19.65c-3.2-4.48,3.38-8.6-2.12-8.39
			c-7.39,0.29,1.48,20.17,0,27.42c-1.57,7.69-1.64,28.88,0,36.56c1.54,7.2-3.19,11.64,0,18.28c6.81,14.16,2.89,2.84,0,18.28
			c4.15,0.72-3.53,10.47-4.3,14.61s-3.07,7.92-3.49,12.1c-0.43,4.3,1.16,8.51,2.19,12.71c4.73,19.13-1.92,39.57,2,58.88
			c4.37,21.56,21.87,38.94,42.28,47.15c20.41,8.21,43.31,8.25,64.99,4.5c11.19-1.94,22.38-4.91,32.14-10.73
			c8.62-5.15,15.81-12.32,23.61-18.65c17.88-14.51,39.26-24.81,54.92-41.7c3.2-3.45,6.17-7.22,7.91-11.6
			c2.57-6.47,2.26-13.72,1.13-20.59c-1.94-11.85-6.17-23.31-12.38-33.58c-3.07-5.08-6.68-9.97-8.31-15.68
			c-1.5-5.23-1.22-10.79-0.94-16.22c0.84-16.01,1.68-32.02,2.52-48.03c-11.04,0.54-21.61,7.05-27.07,16.66"/>
		<path class="st0" d="M984.36,1055.58c-17.19-5.57-33.87-12.73-49.76-21.34c-7.83-4.25-17.79-8.79-24.99-3.54
			c-6.95,16.16-7.03,34.33-7.01,51.92c0,2.01,0.01,4.05,0.5,6c1.25,4.99,5.38,8.65,9.3,11.97c5.01,4.25,10.11,8.56,16.14,11.17
			c10.97,4.77,23.89,3.47,34.75,8.48c3.94,1.82,7.51,4.43,11.59,5.92c3.65,1.33,7.57,1.71,11.44,2.08
			c11.25,1.07,22.5,2.14,33.75,3.21c5.85,0.56,11.72,1.11,17.6,0.99c28.2-0.6,53.5-16.56,76.84-32.4c4.25-2.88,8.51-5.81,12.13-9.45
			c5.59-5.64,9.41-12.79,12.41-20.15c8.88-21.81,10.97-46.33,5.91-69.33c-0.62-2.81-1.37-5.66-2.99-8.04
			c-1.84-2.68-4.66-4.55-7.62-5.89c-6.23-2.83-13.38-3.59-20.07-2.13c-5.23,1.14-10.08,3.57-14.86,5.97
			c-15.85,7.97-31.7,15.94-47.56,23.91"/>
		<path class="st1" d="M808.22,614.8c0.29-5.92,0.18-13.99-5.62-15.21c-5-1.06-8.58,4.44-12.62,7.58
			c-4.22,3.29-9.84,4.18-14.41,6.97c-7.29,4.44-10.89,12.95-13.68,21.01c-14.41,41.65-19.13,86.61-13.7,130.34
			c1.07,8.58,2.52,17.15,2.42,25.8c-0.09,7.29-1.28,14.65-0.05,21.84c0.23,1.36,0.59,2.78,1.55,3.77c2.1,2.14,5.68,1.17,8.43-0.03
			c31.31-13.62,57.81-38,73.99-68.07c1.09-2.03,2.17-4.2,2.14-6.51c-0.05-3.2-2.17-5.93-4.04-8.53
			c-13.6-18.83-15.85-40.32-13.02-62.68C822.2,650.56,807.21,635.26,808.22,614.8z"/>
		<path class="st1" d="M778.68,785.02c-6.7,0.39-12.67,4.8-16.42,10.36c-3.75,5.56-5.59,12.17-6.99,18.73
			c-4.28,20.05-5,40.85-2.12,61.14c0.98,6.92,2.38,13.78,3.17,20.73c1.63,14.3,0.64,28.89-2.9,42.84
			c32.33-1.94,64.65-3.87,96.98-5.81c8.74-25.27,14.39-51.61,16.78-78.24c2.76-30.74,1.18-61.69-0.67-92.5
			c-0.2-3.3-0.5-6.87-2.68-9.36c-1.49-1.7-3.65-2.64-5.73-3.53c-11.47-4.88-24.36-9.81-36.02-5.43
			c-6.09,2.29-11.02,6.89-15.24,11.84c-13.32,15.64-22.08,36.46-40.42,45.72"/>
		<path class="st1" d="M1010.31,367.95c-30.03-4.87-59.74,8.24-87.34,21.02c-6.74,3.12-13.59,6.31-19.14,11.25
			c-5.06,4.5-8.82,10.26-12.4,16.02c-11.39,18.33-21.71,37.81-25.67,59.03c-3.96,21.22-0.86,44.57,12.44,61.57
			c16.47,21.04,45.75,28.69,72.3,25.66c26.55-3.03,51.12-15.11,74.81-27.48c7.33-3.83,14.68-7.72,22.54-10.25
			c11.07-3.57,22.91-4.36,34.5-3.43c12.9,1.03,27.09,3.84,37.85-3.35c5.24-3.51,8.83-8.95,12.07-14.36
			c6.36-10.61,12.08-22.29,11.75-34.66c-0.23-8.73-3.48-17.09-4.63-25.75c-0.77-5.84-0.63-11.96-3.03-17.34
			c-1.65-3.7-4.4-6.79-7.23-9.69c-24.67-25.4-58.48-41.74-93.71-45.27c-7.13-0.72-14.31-0.93-21.47-1.14
			c-13.17-0.38-26.33-0.77-39.5-1.15c-7.84-0.23-17.03,0.18-21.53,6.61"/>
		<path class="st1" d="M907,538.6c-7.26-10.85-11.06-23.99-10.69-37.04c0.37-13.2,4.79-26.79,0.55-39.29
			c-2.15-6.33-6.45-12.07-6.81-18.74c-0.55-9.99,7.7-20.87,2.02-29.11c-3.68-1.16-6.99,2.45-9.18,5.63
			c-13.49,19.67-27,39.37-38.57,60.23c-12.88,23.22-23.29,47.8-31.02,73.21c-4.05,13.33-7.39,27.03-7.67,40.96
			c-0.21,10.53,1.35,21.1,4.59,31.13c1.59,4.91,3.57,9.68,5.56,14.45c2.58,6.21,5.17,12.42,7.75,18.63
			c5.49-14.03,17.06-25.56,31.11-31.01c0.98-0.38,2.07-0.74,3.08-0.44c1.05,0.31,1.77,1.24,2.41,2.12c2.27,3.09,4.58,6.28,5.59,9.98
			c1.07,3.93,0.6,8.18,1.83,12.06c3.14,9.93,16.58,13.33,26.12,9.16c9.54-4.17,15.77-13.41,20.76-22.54
			c4.98-9.11,9.29-18.59,12.86-28.33c1.4-3.82,2.74-7.77,5.26-10.96c3.15-3.99,7.82-6.41,12.24-8.95
			c11.42-6.56,21.97-14.63,31.29-23.93c7.31-7.29,14.21-16.25,14.3-26.57c0.07-7.49-3.53-14.56-7.96-20.61
			c-7.05-9.63-16.63-17.61-27.86-21.62c-11.24-4.01-24.17-3.79-34.75,1.73"/>
		<path class="st1" d="M1074.54,503.62c-0.85-6.23-9.41-7.14-15.65-6.37c-17.29,2.15-34.77,4.56-50.96,10.99
			s-31.22,17.37-39.23,32.85c-5.22,10.08-7.24,21.59-12.55,31.62c-13.43,25.39-44.77,36.52-60.45,60.58
			c-2.83,4.34-5.31,9.26-9.8,11.84c-2.88,1.66-6.42,2.23-8.83,4.52c-3.77,3.58-3.22,9.72-1.68,14.69
			c2.23,7.19,6.45,14.39,13.42,17.23c6.84,2.79,14.75,0.73,21.3-2.7c6.55-3.43,12.38-8.17,19.12-11.2c6.68-3,14.02-4.22,20.86-6.82
			c8.15-3.1,15.42-8.09,22.6-13.04c16.5-11.36,32.99-22.72,49.49-34.07c20.49-14.11,41.09-28.31,58.97-45.6
			c17.88-17.3,33.08-38.01,40.54-61.75c0.66-2.12,1.27-4.33,0.96-6.52c-0.88-6.27-8.33-9.11-14.63-9.69
			c-18.84-1.74-38.32,5.93-50.93,20.04"/>
		<path class="st1" d="M881.73,667.92c-0.77,0.14,0.43-1.13,0.71-0.4c0.29,0.73-0.39,1.47-0.49,2.24
			c-1.75,12.81,2.87,25.51,6.52,37.92c5.33,18.1,8.73,36.76,10.12,55.58c0.32,4.38,0.9,9.43,4.58,11.83
			c2.21,1.44,5.01,1.52,7.65,1.55c4.07,0.05,8.15,0.09,12.22,0.14c3.27,0.04,6.68,0.05,9.63-1.37c6.37-3.04,8.12-11.2,8.5-18.24
			c1.57-29.23-7.19-58.56-3.4-87.59c0.67-5.11,1.72-10.32,0.69-15.37s-4.84-10-9.99-10.38c-4.5-0.33-8.45,2.77-11.89,5.69"/>
		<path class="st1" d="M926.22,589.73c-0.83,1.43-1.22,3.09-1.35,4.75c-0.35,4.41,1.33,9.22,5.12,11.5
			c8.2,4.93,20.32-4.86,18.84-13.91C947.29,582.68,930.49,582.38,926.22,589.73z"/>
		<path class="st1" d="M822.83,647.33c-0.48-1.17-0.96-2.34-1.44-3.51c-3.81,1.49-6.19,5.24-8.13,8.84c-1.62,3-3.16,6.24-3.02,9.65
			s2.56,6.96,5.96,7.2c2.12,0.15,4.17-1,5.56-2.6c1.39-1.6,2.22-3.61,2.89-5.62c1.85-5.54,2.73-11.4,2.57-17.24
			c-0.04-1.64-0.19-3.34-1-4.76c-0.81-1.42-2.46-2.49-4.06-2.14"/>
		<path class="st1" d="M847.44,760.91c0.77-3.55,1.54-7.28,0.49-10.76c-0.56-1.84-1.61-3.49-2.74-5.04
			c-2.27-3.08-4.96-5.85-7.97-8.2c-0.62-0.48-1.26-0.95-1.99-1.25c-0.9-0.36-1.9-0.43-2.87-0.32c-2.98,0.34-5.67,2.5-6.66,5.33
			c-1.41,4.04,0.85,8.8,4.58,10.88c3.73,2.08,8.51,1.72,12.3-0.26"/>
		<path class="st1" d="M911.73,815.78c3.62,6.23,8.49,11.64,13.32,16.99c1.49,1.65,3.11,3.38,5.26,3.94
			c1.99,0.52,4.09-0.07,6.07-0.65c5.51-1.62,11.58-3.69,14.28-8.76c1.83-3.45,1.67-7.57,1.4-11.46c-0.9-12.86-2.53-25.68-4.87-38.36
			c-1.02-5.52-1.3-13.57-4.06-18.49c-2.54-4.53-7.75-5.01-12.56-5.79c-17.46-2.83-33.14,2.95-31.03,23.16
			C900.87,789.32,905.17,804.48,911.73,815.78z"/>
		<path class="st1" d="M912.12,821.13c1.86,6.58,3.72,13.17,6.18,19.55c3.94,10.24,9.36,19.83,14.76,29.37
			c5.84,10.33,11.69,20.66,17.53,30.99c1.81,3.21,3.63,6.42,5.71,9.45c6.43,9.38,15.42,16.98,25.74,21.77
			c0.66-12.98-4.16-25.56-9.48-37.42c-2.09-4.67-4.29-9.35-5.44-14.34c-0.75-3.26-1.03-6.6-1.65-9.88
			c-1.94-10.31-7.02-19.62-9.97-29.62c-1.99-6.75-1.2-15.31-8.46-18.73c-5.87-2.77-13.01-1.99-19.07-4.79
			C922.39,814.91,908.32,807.72,912.12,821.13z"/>
		<path class="st1" d="M1211.99,722.83c-0.37-1.47-2.23-2.14-3.69-1.72c-1.45,0.42-2.55,1.6-3.49,2.79
			c-3.97,5.02-6.51,11-9.01,16.89c-9.32,22.01-18.64,44.02-27.97,66.03c-0.96,2.26-1.93,4.57-2.13,7.01
			c-0.33,3.92,1.33,7.7,2.74,11.37c6.15,15.89,8.39,33.28,6.48,50.21c-0.42,3.7-0.33,8.59,3.21,9.75c1.15,0.37,2.4,0.2,3.58-0.05
			c9.52-2.01,17.81-9.11,21.26-18.2c1.89-4.99,2.38-10.39,2.85-15.72c0.69-7.83,1.38-15.67,2.06-23.5
			c2.05-23.35,4.1-46.76,3.25-70.18c-0.31-8.54-1.01-17.06-2.09-25.54"/>
		<path class="st1" d="M1184.32,843.54c-3.57-3.32-9.56-5.03-13.17-1.75c-3.51,3.19-2.63,8.82-1.64,13.46
			c6.32,29.62,5.32,60.78-2.88,89.94c-0.68,2.41-1.4,5-0.53,7.35c0.87,2.34,4.14,3.88,5.95,2.16c0.49-0.46,0.79-1.08,1.09-1.68
			c9.47-19.33,17.29-39.47,23.35-60.13c2.91-9.94,3.36-16.48-1.55-25.33C1190.56,859.66,1191.43,850.15,1184.32,843.54z"/>
		<path class="st1" d="M1103.95,543.89c-0.91,4.96,1.2,10.04,4.25,14.05s7.01,7.21,10.58,10.78c5.96,5.96,10.85,12.99,14.36,20.66
			c1.5,3.27,2.77,6.7,5,9.52c4.32,5.46,11.43,7.74,18.14,9.58c7.52,2.07,15.18,3.96,22.98,4.04c7.8,0.09,15.84-1.77,22-6.55
			c4.66-3.61,7.99-8.66,10.73-13.87c6.95-13.19,10.65-28.07,10.7-42.98c0.01-3.95-0.26-8.02-1.99-11.56
			c-1.67-3.41-4.56-6.04-7.4-8.56c-6.04-5.34-12.21-10.54-18.49-15.59c-8.56-6.88-17.46-13.55-27.57-17.83
			c-9.78-4.15-20.55-5.95-31.15-5.21c-4.84,0.34-10.62,2.06-11.72,6.78"/>
		<path class="st1" d="M1134.2,569.79c-4.16-6-11.14-9.95-18.42-10.43c-0.09,3.78-0.91,7.56-0.51,11.32
			c0.77,7.32,5.9,13.33,10.8,18.83c2.84,3.18,5.83,6.48,9.8,8.01c0.93,0.36,1.96,0.61,2.9,0.28c0.68-0.24,1.22-0.76,1.68-1.32
			c2.59-3.14,2.98-7.9,0.96-11.42"/>
		<path class="st1" d="M1180.35,597.22c-13.29-0.34-26.59-0.07-39.85,0.82c-1.05,0.07-2.2,0.18-2.96,0.92
			c-1.08,1.04-0.89,2.81-0.45,4.25c1.68,5.57,5.57,10.16,9.45,14.48c18.33,20.42,38.83,38.91,61.03,55.04
			c1.8,1.31,3.61,2.6,5.52,3.76c0.77,0.47,1.65,0.93,2.53,0.74c0.81-0.17,1.4-0.83,1.92-1.47c12.4-15.27,15.14-36,23.23-53.93
			c1.43-3.17,3.03-6.26,4.2-9.53c1.8-5.02,2.53-10.36,3.24-15.64c1.78-13.36,3.14-28.11-4.49-39.22
			c-8.62-12.56-25.53-15.89-40.74-16.91c-6.72-0.45-13.8-0.59-19.79,2.5c-5.99,3.09-10.29,10.45-7.74,16.68"/>
		<path class="st1" d="M1124.35,425.86c-5.04,2.42-8.55,7.13-11.57,11.84c-4.15,6.47-7.86,13.68-7.68,21.36
			c0.13,5.33,2.12,10.42,4.09,15.38c2.2,5.55,4.41,11.1,6.61,16.65c1.75,4.41,3.51,9.41,1.62,13.76c-1.47,3.39-5.07,6.48-3.9,9.98
			c0.6,1.8,2.33,2.94,4.02,3.8c16.21,8.26,36.35,2.07,53.64,7.74c10.93,3.58,19.89,11.7,26.72,20.95
			c3.98,5.38,7.55,11.41,13.3,14.83c4.59,2.73,10.09,3.51,14.86,5.92c3.34,1.7,6.37,4.22,10.05,4.9c4.92,0.91,10.02-1.83,12.97-5.89
			s4.04-9.18,4.29-14.18c0.64-12.57-3.49-24.83-7.57-36.74c-3.29-9.6-6.58-19.2-9.87-28.8c-1.89-5.52-3.8-11.09-6.69-16.16
			c-6.94-12.18-18.89-20.55-30.67-28.13c-13.44-8.65-26.28-14.96-42.35-11.16c-5.76,1.36-11.06,2.01-15.85-1.82
			C1135.23,425.98,1131.72,422.33,1124.35,425.86z"/>
		<path class="st2" d="M1120.92,1096.34c-3.16,3.23-6.89,5.84-10.32,8.78c-7.16,6.13-13.03,13.75-17.13,22.23
			c-3.78,7.83-6.01,17.2-2.44,25.12c4.76,10.56,18.94,14.57,29.73,10.37s18.14-14.7,21.44-25.79c3.3-11.1,3.17-22.89,3-34.46
			c-0.09-6.34,3.42-36.69-5.5-35.18C1132.82,1068.58,1126.25,1090.81,1120.92,1096.34z"/>
		<path class="st2" d="M1106.1,1140.63c1.3-4.72,2.61-9.62,1.84-14.46c-0.77-4.84-4.24-9.61-9.09-10.25
			c-6-0.79-10.79,4.52-15.22,8.65c-12.56,11.69-30.35,16.53-47.5,16.29c-17.15-0.24-33.9-5.11-50.11-10.71
			c-26.28-9.09-51.85-20.24-76.4-33.32c-2.86,18.78-4.31,37.78-4.32,56.79c-0.01,12.83,0.63,25.65,1.27,38.46
			c0.78,15.5,1.55,31,2.33,46.5c0.45,9.06,0.9,18.19-0.48,27.15c-1.25,8.11-3.98,15.94-5.36,24.03
			c-5.93,34.56,12.99,69.57,8.2,104.32c-0.93,6.76-2.76,13.43-2.71,20.26c0.05,6.82,2.38,14.11,8.01,17.97
			c8.02,5.5,18.89,2.1,27.84-1.7c24.73-10.5,48.65-22.8,72.54-35.08c6.09-3.13,12.26-6.31,17.34-10.9
			c7.28-6.56,11.86-15.52,17.83-23.29c5.97-7.77,14.45-14.81,24.24-14.63c8.76,0.16,16.47,6.04,25.16,7.14
			c10.28,1.3,20.08-4.2,28.84-9.74c6.53-4.13,13.6-9.36,14.54-17.03c1-8.17-5.37-15.24-7.66-23.14c-2.54-8.79,0.08-18.11,1.06-27.21
			c1.74-16.28-1.92-32.64-1.94-49.02c-0.03-22.61,6.83-45.38,2.45-67.56c-1.43-7.23-5.54-15.44-12.9-15.98"/>
		<path class="st2" d="M1117.42,1182.64c0.83,5.94,3.81,12.72,9.73,13.66c4.73,0.75,9.13-2.7,11.94-6.57
			c7.98-10.99,13.01-40.71-3.1-47.54C1116.99,1134.13,1115.91,1171.9,1117.42,1182.64z"/>
		<path class="st2" d="M1121.81,1300.35c1,10.05,5.72,20.01,13.97,25.84c0.84,0.59,1.79,1.16,2.81,1.1c1.51-0.09,2.58-1.5,3.27-2.84
			c2.61-5.06,2.93-10.95,3.19-16.64c0.46-9.84,4.96-38.9-9.55-41.53C1122.08,1263.84,1120.97,1291.98,1121.81,1300.35z"/>
		<path class="st2" d="M948.69,1408.82c-4.03,2.23-8.75,4.4-13.07,2.82c-5.2-1.9-9.12-8.89-14.33-7.02
			c-2.08,0.74-3.4,2.76-4.46,4.69c-7.83,14.25-10.03,31.01-9.4,47.25c0.63,16.25,3.92,32.25,6.45,48.32
			c5.4,34.35,7.33,69.25,5.74,103.99c8.62,1.62,17.49-0.09,26.09-1.8c48-9.53,96-19.06,144-28.59c15.08-2.99,30.21-6,44.78-10.9
			c4.22-1.42,8.65-3.19,11.16-6.86c1.8-2.63,2.36-5.89,2.87-9.04c2.07-12.74,4.09-25.49,6.05-38.25c1.6-10.39,3.15-21.11,0.55-31.3
			c-1.48-5.83-4.28-11.26-5.71-17.1c-1.49-6.07-1.47-12.4-1.44-18.65c0.06-12.05,0.11-24.1,0.17-36.15
			c0.04-8.57,0.08-17.14-0.45-25.7c-1.19-19.23-5.25-38.14-9.3-56.98c-0.92-4.26-1.94-8.74-4.89-11.94
			c-5.34-5.79-14.54-5.15-22.27-3.64c-26.91,5.26-50.43,16.26-74.21,29.44c-20.07,11.12-33.29,27.08-50.81,41.7
			C974.55,1392.85,961.97,1401.47,948.69,1408.82z"/>
		<path class="st2" d="M1155.53,1503.75c-0.77-1.76-1.53-3.52-2.3-5.28c10.01,16.65,6.69,37.65,4.66,56.97
			c-1.74,16.52-2.3,33.17-1.67,49.77c0.05,1.26,0.01,2.74-1.01,3.48c-0.6,0.44-1.38,0.5-2.12,0.54
			c-34.96,1.99-70.16-0.45-104.51-7.23c-4.18-0.83-8.41-1.74-12.2-3.7c-4.69-2.43-8.43-6.34-12.07-10.17
			c-4.66-4.91-9.33-9.81-13.99-14.72c-2.04-2.15-4.15-4.41-5.03-7.24c-1.07-3.45-0.13-7.18,1.01-10.61
			c12.45-37.31,52.19-63.53,91.39-60.29"/>
		<path class="st2" d="M961.53,1595.06c-5.69,1.61-11.32,3.43-16.88,5.45c-2.26,0.82-4.54,1.69-6.52,3.06
			c-1.92,1.32-3.56,3.1-5.72,3.98c-2.7,1.09-5.99,0.68-8.31,2.43c0.9,0.89,2.24,1.13,3.5,1.28c12.69,1.49,25.45-2.39,38.21-1.83
			c3.78,0.17,7.54,0.72,11.32,0.82c10.07,0.26,19.9-2.73,29.53-5.69c8.26-2.54,16.54-5.08,24.52-8.41c1.7-0.71,3.44-1.49,4.7-2.83
			c1.26-1.34,1.94-3.4,1.18-5.07c-0.59-1.3-1.89-2.1-3.14-2.79c-10.47-5.75-22.68-8.28-34.58-7.15"/>
		<path class="st2" d="M1060.47,1591c0.31-1.35-1.47-2.14-2.85-2.34c-11.57-1.68-23.41-1.45-34.9,0.67
			c-5.19,0.96-10.52,2.41-14.48,5.92c-2.92,2.59-4.95,6.19-8.29,8.23c-3.03,1.85-6.71,2.15-10.18,2.88
			c-3.47,0.73-7.15,2.19-8.8,5.33c6.68,2.47,14.06,0.96,21.15,0.24c5.26-0.53,10.55-0.59,15.83-0.65
			c32.18-0.38,64.35-0.76,96.53-1.14c3.68-0.04,7.38-0.09,11-0.74c0.55-0.1,1.15-0.25,1.47-0.71c0.34-0.51,0.2-1.2-0.06-1.75
			c-1.01-2.11-3.4-3.12-5.61-3.9c-28.49-10.05-59.51-10.71-89.55-7.52"/>
		<path class="st3" d="M787.69,958.54c5.44-0.86,8.83-7.86,6.15-12.67c-70.63,17.71-133.97,62.95-173.64,124.01
			c-11.81,18.18-21.67,37.91-26.46,59.06c-5.65,24.93-4.09,50.9-1.45,76.33c3.29,31.64,8.74,64.48,27.4,90.24
			c6.45,8.9,14.3,16.69,22.22,24.32c24.73,23.83,51.08,46.97,82.58,60.66s69.25,16.76,99.58,0.66
			c21.04-11.17,36.62-30.28,50.37-49.72c11.82-16.71,22.93-34.48,27.57-54.41c8.29-35.63-5.23-72.76-23.01-104.73
			c-24.79-44.55-62.17-86.56-112.07-97"/>
		<path class="st3" d="M696.54,1019.9c-2.68,1.71-5.35,3.42-8.03,5.13c4.86-9.75,9.81-21.04,5.72-31.14
			c-6.16-15.24-27.01-16.29-43.38-14.8c-13.14,1.2-27.31,2.83-37,11.79c-8.4,7.77-11.67,19.46-14.57,30.53
			c-7.83,29.87-15.67,59.74-23.5,89.61c-5.55,21.16-11.1,42.31-16.64,63.47c-15.87,60.53-31.8,121.33-38.61,183.54
			c-3.32,30.28-3.69,63.53,14.42,88.03c19.04,25.76,57.65,34.64,86.02,19.77c20.1-10.53,33.57-30.31,44.41-50.25
			c12.28-22.58,22.31-46.45,28.78-71.32c4.19-16.09,6.88-32.58,11.87-48.44c15.33-48.71,52.34-92.97,47.68-143.83
			c-1.08-11.84-4.23-24.78,2.05-34.87c8.67-13.94,28.81-13.2,43.9-19.66c15.79-6.76,26.47-22.3,31.5-38.73
			c5.03-16.43,5.2-33.89,5.32-51.07c0.04-5.51,0.02-11.3-2.61-16.14c-3.59-6.6-11.36-10.22-14.63-16.99
			c-3.11-6.45-1.44-14.4-4.47-20.88c-3.93-8.4-14.23-11.55-23.46-12.4c-26.31-2.45-52.25,6.15-77.27,14.63
			c-21.45,7.27-42.9,14.53-64.34,21.8c-4.77,1.62-10.64,5.16-9.22,10"/>
		<path class="st3" d="M804.06,936.75c-14.74,0.71-29.82,1.94-43.23,8.09c-29.92,13.71-44.22,47.95-51.66,80.01
			c-3.82,16.48-6.53,33.9-1.85,50.17c4.84,16.86,16.98,30.44,27.75,44.29c10.77,13.85,20.87,29.81,20.39,47.34
			c-0.42,15.31-8.91,29.23-18.69,41.02s-21.15,22.36-29.18,35.4c-6.84,11.11-10.71,26.36-2.65,36.62
			c4.73,6.01,12.45,8.77,19.89,10.52c23,5.43,49.03,4.88,67.06,20.14c7.51,6.36,13.22,15.22,22.26,19.1
			c16.15,6.93,34.53-5.6,43.64-20.63c9.11-15.03,13.08-32.93,23.49-47.09c1.57-2.14,3.43-4.28,5.98-5.03
			c1.93-0.57,4.03-0.27,5.96-0.82c4.89-1.39,6.71-7.24,7.76-12.21c5.16-24.53,10.34-49.44,8.53-74.44
			c-1.11-15.28-4.83-30.38-4.59-45.71c0.14-9.08,1.68-18.08,2.1-27.15c0.52-11.52-0.77-23.03-2.06-34.49
			c-2.65-23.53-5.31-47.07-7.96-70.6c-1.36-12.02-2.34-24,0.22-35.93c2.44-11.39,3.47-15.31-9.49-17.77
			C861.34,932.57,830.75,935.46,804.06,936.75z"/>
		<path class="st3" d="M872.99,957.31c-5.17,8.49-7.11,19.27-3.65,28.59c3.87,10.46,13.81,17.98,16.84,28.71
			c1.47,5.22,1.15,10.83-0.15,16.1c-0.35,1.42-0.78,2.85-0.68,4.31c0.11,1.77,0.97,3.39,1.81,4.94c1.92,3.56,3.84,7.12,5.75,10.68
			c0.79,1.46,1.68,3.02,3.19,3.71c2.1,0.95,4.67-0.22,6.03-2.07c1.36-1.85,1.8-4.21,2.16-6.48c2.41-15.41,2.82-31.13,1.21-46.64
			c-0.87-8.38-2.32-16.68-3.13-25.07c-0.63-6.57-0.86-13.18-0.7-19.78c0.1-4.41,1.34-12.26-3.37-15.09
			C890.46,934.5,876.47,951.6,872.99,957.31z"/>
		<path class="st3" d="M708.61,1318.95c1.18-3.67,2.35-7.33,3.53-11c-41.56-4.58-80.09,21.27-121.35,28.01
			c-6.06,0.99-12.74,1.44-17.87-1.93c-4.58-3.01-6.89-8.39-9.13-13.39c-3.35-7.47-7.31-15.06-13.93-19.88s-16.59-5.96-22.7-0.52
			c-2.92,2.6-4.6,6.3-6.12,9.9c-28.96,68.71-30.45,145.43-31.51,219.98c-0.13,9.26-0.26,18.52-0.4,27.79
			c-0.03,2.41-0.06,4.88,0.82,7.13c2.3,5.9,9.55,7.87,15.82,8.72c47.29,6.39,94.81-5.72,141.88-13.58
			c47.07-7.86,97.95-10.92,140.03,11.58c15.68,8.39,29.89,20.21,47.12,24.61c22.82,5.83,46.8-2.39,67.99-12.67
			c3.74-1.81,7.56-3.79,10.14-7.05c5.14-6.48,3.85-15.77,2.38-23.91c-5.31-29.48-9.54-59.24-10.47-89.18
			c-1.01-32.42,1.85-64.92-0.26-97.29c-2.11-32.37-9.7-65.46-29.19-91.39c-4.61-6.13-9.96-11.9-16.67-15.61
			c-11.1-6.14-24.51-5.99-37.15-5c-45.03,3.54-89.35,15.87-129.73,36.11"/>
		<path class="st3" d="M502.99,1560.42c-1.83-3.79-1.7-8.2-1.61-12.41c0.27-13.2-0.34-26.41-1.82-39.53
			c-0.09-0.79-0.19-1.61-0.61-2.28c-1.09-1.74-3.72-1.66-5.58-0.79c-4.18,1.96-6.52,6.46-8.02,10.83
			c-4.35,12.61-4.19,26.27-3.98,39.61c0.06,3.58,0.11,7.19,0.78,10.71c0.67,3.54,1.94,6.96,2.4,10.54
			c1.2,9.25-3.08,18.22-7.12,26.63c-0.38,0.78-0.76,1.64-0.56,2.49c0.2,0.84,0.93,1.43,1.65,1.9c4.73,3.09,10.68,3.63,16.33,3.5
			c7.9-0.19,15.73-1.5,23.54-2.74c34.38-5.46,68.97-9.56,103.67-12.3c18.23-1.44,38.05-3.13,51.48-15.55
			c8.23-7.61,13-18.81,12.79-30.01c-0.07-3.65-0.68-7.4-2.63-10.5c-3.69-5.88-11.12-8.01-17.93-9.37
			c-36.48-7.29-74.08-5.68-111.24-4.05"/>
		<path class="st3" d="M643.78,1578.98c-32.55,4.99-66.52,1.49-97.91,11.47c-10.95,3.48-21.33,8.54-31.51,13.89
			c-2.53,1.33-5.36,4.6-3.21,6.47c0.67,0.58,1.61,0.71,2.5,0.81c25.65,2.79,51.55,0.86,77.28-1.07c11.75-0.88,23.5-1.77,35.25-2.65
			c17.82-1.34,35.68-2.68,53.29-5.73c18.97-3.28,39.2-9.64,49.99-25.59c3.25-4.81,5.51-10.72,4.27-16.39
			c-1.07-4.88-4.64-8.93-8.87-11.59c-4.23-2.65-9.11-4.07-13.96-5.26c-14.06-3.44-28.54-5.18-43.02-5.18"/>
		<path class="st3" d="M770.42,1542.32c-7.03-2.51-14.11-4.96-21.43-6.36c-13.79-2.64-28.03-1.51-41.91,0.66
			c-7.13,1.12-14.51,2.63-20.24,7.03s-9.23,12.5-6.22,19.06c2.7,5.87,9.63,8.93,12.23,14.85c-4.79,0.8-9.58,1.59-14.37,2.39
			c-12.41,2.06-25.62,4.52-34.69,13.24c-3.27,3.14-5.93,7.05-9.91,9.24c-5.76,3.16-12.8,1.98-19.35,1.44
			c-6.55-0.55-14.17,0.13-18.02,5.46c5.65,2.52,12.04,2.64,18.23,2.7c48.7,0.49,97.42-0.42,146.07-2.73
			c17.41-0.83,34.88-1.84,51.94-5.36c6.97-1.44,13.89-3.31,20.29-6.42c3.87-1.88,7.82-4.6,8.91-8.76
			c1.43-5.43-2.53-10.69-6.41-14.74c-7.79-8.15-16.42-18.24-28.11-19.75C794.58,1552.58,782.59,1546.67,770.42,1542.32z"/>
		<path class="st3" d="M921.22,1544.15c-0.07,0.57-0.88-0.42-0.33-0.59c0.54-0.17,0.99,0.44,1.22,0.96
			c4.41,9.95,4.05,21.33,2.55,32.11c-1.5,10.78-4.07,21.49-3.8,32.37c-7.66,4.26-17.02,3.53-25.74,2.68
			c-15.9-1.55-31.81-3.1-47.71-4.66c-22.6-2.21-46.46-4.88-64.63-18.5c-5.1-3.82-9.89-9.02-10.33-15.38
			c-0.34-4.94,2.05-9.68,5.01-13.65c9.65-12.94,25.34-19.98,40.98-24c18.6-4.78,38.1-6.01,57.16-3.63c1.82,0.23,4.21,1.28,3.73,3.05
			"/>
		<path class="st3" d="M828.65,1599.01c-12.28-1.5-24.7,0.36-36.93,2.22c-11.43,1.73-22.86,3.47-34.3,5.2
			c-5.01,0.76-10.32,1.65-14.16,4.96c2.58,0.96,5.4,0.98,8.15,0.99c19.28,0.06,38.55,0.13,57.83,0.19
			c8.04,0.03,16.09,0.05,24.13,0.08c20.96,0.07,42.15,0.11,62.56-4.65c0.63-0.15,1.32-0.33,1.7-0.86c1.01-1.38-0.94-2.99-2.55-3.58
			c-22.63-8.18-46.82-12.02-70.87-11.24c0.68,0.11,1.36,0.23,2.04,0.34"/>
		<path class="st3" d="M879.44,1433.03c-1.2-1.62-2.4-3.25-3.61-4.87c-7.01,15-8.47,32.02-7.95,48.57
			c0.52,16.55,2.9,33.01,3.13,49.57c0.08,6.1-0.09,12.4,2.17,18.07c2.62,6.57,8.17,11.45,13.53,16.07c3.45,2.97,7.6,6.14,12.06,5.24
			c4.37-0.89,6.97-5.3,8.8-9.37c1.83-4.06,3.81-8.6,7.89-10.39c-0.17,2.03,0.38,4.12,1.53,5.8c3.08-6.15,1.81-13.48,0.66-20.27
			c-2.84-16.72-4.56-33.62-5.14-50.57c-0.45-13.06-0.22-26.21-2.51-39.07c-2.1-11.8-6.27-23.13-10.42-34.37
			c-0.61-1.65-1.53-3.57-3.27-3.81c-0.93-0.13-1.83,0.28-2.66,0.71c-14.33,7.46-21.47,26.35-15.64,41.42"/>
		<path class="st3" d="M882.31,1276.31c-4.11,5.4-5.84,12.33-5.92,19.11s1.39,13.49,3.14,20.04c1.74,6.51,3.8,13.03,7.36,18.76
			c2.42,3.9,5.51,7.4,7.53,11.53c4.05,8.28,3.36,18.12,6.41,26.83c0.28,0.81,0.65,1.66,1.39,2.08c1.14,0.65,2.58-0.03,3.56-0.9
			c3.96-3.5,4.44-9.4,4.63-14.67c0.5-13.35,0.99-26.71,1.49-40.06c0.19-5.19,0.38-10.42-0.36-15.56c-0.67-4.61-2.09-9.09-2.76-13.7
			c-0.74-5.08-0.55-10.26-1.18-15.36c-0.13-1.1-0.32-2.24-0.92-3.17c-2.64-4.11-8.04-0.76-11.57-0.41
			C889.76,1271.36,885.93,1271.56,882.31,1276.31z"/>
		<path class="st3" d="M1132.84,928.73c-6.24-2.74-12.58-7.69-19.09-5.68c-0.92,4.67,1.07,9.44,3.65,13.45
			c2.58,4,5.81,7.62,7.82,11.93c2.37,5.08,2.92,10.82,4.79,16.1c1.32,3.73,3.29,7.19,5.02,10.75c12.25,25.22,12.3,54.36,17.32,81.94
			c1.18,6.5,2.72,13.11,6.31,18.66c4.04,6.23,10.32,10.6,16.45,14.81c6.03,4.14,12.27,8.37,19.44,9.79
			c11.34,2.24,22.76-2.93,32.78-8.71c15.84-9.14,30.74-20.3,42.29-34.49c3.89-4.78,7.4-9.93,9.68-15.65
			c2.05-5.15,3.06-10.64,4.02-16.1c1.6-9,3.13-18.14,2.26-27.24c-0.76-8-3.36-15.7-5.94-23.31c-1.38-4.08-2.84-8.3-5.76-11.47
			c-3.05-3.32-7.37-5.15-11.58-6.77c-23.53-9.1-48.18-15.28-73.22-18.34c-1.64-0.2-3.35-0.38-4.91,0.19
			c-2.33,0.85-3.75,3.17-4.99,5.32c-3.84,6.68-7.35,13.85-11.71,20.17c-1.61-7.84,0.3-19.85-5.26-26.44
			c-2.69-3.19-6.71-4.04-10.63-4.72c-3.26-0.57-6.56-0.85-9.81-1.51C1139.1,930.84,1135.4,928.73,1132.84,928.73z"/>
		<path class="st3" d="M1260.12,1031.91c-4.66-3.12-10.85,0.46-14.89,4.35c-22.41,21.54-30.24,55.15-26.17,85.97
			c1.08,8.19,2.99,16.46,7.42,23.44c5.69,8.96,15.23,15.09,25.46,17.93s21.12,2.63,31.58,0.84c17-2.91,33.4-10.03,46.44-21.32
			c13.04-11.29,22.56-26.83,25.65-43.79c2.09-11.49,1.45-23.96,7.52-33.94c3-4.94,7.48-8.92,10.03-14.11
			c5.85-11.93,0.03-25.89-3.54-38.69c-0.95-3.4-1.74-6.89-3.38-10.02c-3.88-7.43-11.81-11.73-19.43-15.24
			c-22.18-10.22-45.7-17.51-69.77-21.64c-5.15-0.88-10.49-1.62-15.55-0.32c-12.06,3.07-18.53,16.47-19.99,28.83
			c-1.41,11.95,0.86,25.19,9.62,33.44"/>
		<path class="st3" d="M1227.73,1080.32c-10.04-3.16-20.89-2.71-31.23-0.76c-2.78,0.52-5.76,1.14-8.36,0.02
			c-2.3-0.99-3.86-3.14-5.29-5.19c-9.03-12.91-18.06-25.82-27.09-38.73c-1.43-2.04-3.16-4.27-5.64-4.5
			c-4.77-0.45-6.5,6.09-6.48,10.88c0.09,16.61,0.18,33.22,0.27,49.83c0.05,9.86,0.1,19.76-1.04,29.56
			c-0.89,7.57-2.49,15.08-2.81,22.69c-0.36,8.64,0.94,17.25,2.01,25.83c4,31.96,4.87,64.28,3.39,96.46
			c-0.71,15.31-1.73,31.6,5.81,44.94c9.53,16.87,30,24.09,49.13,27.15c19.67,3.15,39.69,3.34,59.61,2.91
			c23.95-0.52,48.08-1.95,71.23-8.11c23.15-6.16,45.45-17.35,61.68-34.96c16.23-17.62,25.76-42.17,22.17-65.85
			c-1.02-6.75-3.07-13.42-2.71-20.24c0.76-14.72,12.55-27.82,10.81-42.45c-0.95-7.95-5.78-14.81-8.92-22.18
			c-3.12-7.32-4.59-15.21-6.46-22.94c-6.45-26.64-17.83-51.79-29.14-76.76c-2.18-4.81-5.06-10.2-10.23-11.26
			c-4.83-0.99-9.4,2.31-13.2,5.46c-17.79,14.76-36,31.14-58.75,35.25c-11.2,2.03-22.8,0.87-33.84-1.91
			c-1.55-0.39-3.33-0.78-4.65,0.13c-1.25,0.85-1.58,2.51-1.8,4.01c-1.34,9.26,0.7,22.4-3.05,30.84c-2.38-7.11-3.07-13.49-8.35-19.39
			C1240.26,1086.01,1234.19,1082.36,1227.73,1080.32z"/>
		<path class="st3" d="M1308.92,1328.03c-33.94-5.15-67.87-10.3-101.81-15.44c-5.37-0.81-11.09-1.79-15.06-5.49
			c-1.5-1.39-2.74-3.17-4.64-3.95c-1.86-0.76-3.96-0.41-5.93,0c-5.67,1.18-11.41,2.68-17.17,2.09c-5.76-0.6-11.68-3.86-13.49-9.36
			c-5.27,2.43-6.21,9.39-6.34,15.19c-0.71,31.41,1.01,62.88,5.13,94.03c1.72,13.05,3.87,26.11,3.75,39.28
			c-0.11,11.52-1.96,23-1.48,34.51c0.47,11.42,3.21,22.61,4.57,33.95c3,25.03-0.76,50.29-2.96,75.4c-0.3,3.39-0.5,7.06,1.32,9.94
			c2.82,4.46,9.03,4.99,14.31,4.86c32.86-0.79,65.52-8.45,98.32-6.23c2.85,0.19,5.77,0.45,8.5-0.4c7.69-2.39,10.19-11.96,10.64-20
			c0.97-17.31-1.77-34.82-7.98-51c-1.57-4.08-3.39-8.44-2.36-12.69c0.54-2.22,1.8-4.17,2.89-6.18c6.99-12.89,6.69-28.3,7.4-42.95
			c1.92-39.71,12.52-79.9,3.81-118.69c-2.57-11.44-6.82-22.79-6.15-34.5c0.15-2.59-0.79-6.42-3.29-5.72"/>
		<path class="st3" d="M1301.3,1341.85c-1.61-3.15-4.2-5.79-7.31-7.47c-2.35-1.27-5.61-1.85-7.44,0.1
			c-0.57,0.61-0.91,1.38-1.23,2.15c-2.85,6.91-4.13,14.45-3.74,21.91c0.04,0.84,0.14,1.75,0.7,2.38c1.27,1.42,3.61,0.33,5.03-0.92
			c4.96-4.36,8.53-10.27,10.07-16.69c1.03-4.27,1.02-9.22-1.86-12.54c-0.31,0.43-0.63,0.85-0.94,1.28"/>
		<path class="st3" d="M1269.84,1498.3c0.22-0.63-0.79-1.08-1.33-0.69c-0.54,0.39-0.64,1.14-0.7,1.8
			c-1.53,18.09,0.38,36.46,5.58,53.84c1.43,4.77,3.31,9.75,7.3,12.72c2.33,1.73,6.05,2.4,7.83,0.11c0.97-1.25,1.02-2.96,1.03-4.55
			c0.04-11.5,0.07-23.01-0.62-34.49c-0.89-14.84-3.54-30.77-14.12-41.21c-1.51,1.62-2.69,3.55-3.45,5.63"/>
		<path class="st3" d="M1157.36,1592.68c-0.5-1.08-0.99-2.16-1.49-3.24c-0.1,7.29-1.21,14.56-3.28,21.55
			c14.27,1.57,28.65,2.04,42.99,1.41c14.01-0.61,27.95-2.27,41.88-3.92c9.13-1.08,18.25-2.17,27.38-3.25
			c4.73-0.56,9.5-1.14,13.98-2.77c4.47-1.63,8.68-4.44,11.07-8.56c0.65-1.11,1.16-2.36,1.07-3.65c-0.16-2.27-2.12-3.95-4.01-5.22
			c-9.71-6.58-21.34-9.73-32.89-11.73c-18.26-3.16-36.96-3.73-55.38-1.67c-5.76,0.64-11.56,1.56-16.94,3.72"/>
		<path class="st3" d="M1264.33,1597.84c-13.46,0.82-26.86,2.65-40.04,5.46c-2.4,0.51-4.91,1.12-6.71,2.79
			c-0.57,0.53-1.08,1.21-1.13,2c-0.14,2.06,2.56,2.92,4.62,3.09c7.81,0.66,15.63,1.32,23.44,1.98c2.6,0.22,5.2,0.44,7.81,0.57
			c13.71,0.69,27.42-1.06,41.11-2.04c7.81-0.56,15.68-0.87,23.33-2.52s15.19-4.73,20.86-10.13s9.24-13.36,8.08-21.1
			c-0.22-1.5-0.62-2.99-1.36-4.32c-1.52-2.73-4.31-4.5-7.16-5.78c-7.18-3.23-15.2-4.01-23.07-4.29c-10.8-0.38-21.63,0.09-32.35,1.42
			c-3.93,0.49-8.19,1.27-10.8,4.24"/>
		<path class="st3" d="M1319.79,1510.84c-9.36,14.31-18.72,28.62-28.08,42.94c-4.41,6.74-8.85,13.52-14.41,19.34
			c-1.86,1.95-4,4.2-3.68,6.87c0.48,4.12,5.92,5.2,10.06,5.05c10.4-0.38,20.92-1.85,31.12,0.17c1.47,0.29,2.97,0.68,4.12,1.64
			c2.79,2.36,2.04,7.08-0.36,9.83c-2.4,2.75-5.92,4.21-9.01,6.15c-2.18,1.37-4.38,3.37-4.38,5.94c0,3.14,3.42,5.34,6.56,5.44
			c3.14,0.09,6.13-1.24,9.17-2.05c5.87-1.56,12.05-1.18,18.12-0.93c6.99,0.29,13.98,0.4,20.97,0.33c4.7-0.05,9.45-0.19,14-1.39
			c2.73-0.72,5.38-1.82,8.18-2.15c2.73-0.32,5.47,0.11,8.21,0.32c19.37,1.53,38.1-7.52,53.83-18.94c5.94-4.31,11.77-9.2,15.04-15.77
			c2.75-5.54,3.46-11.88,3.43-18.06c-0.06-14.7-4.54-30.07-15.4-39.97c-4.61-4.21-10.17-7.25-15.88-9.77
			c-11.85-5.23-24.75-8.37-37.7-8.04c-12.95,0.33-25.95,4.24-36.3,12.03"/>
		<path class="st3" d="M1435.35,1591.06c-17.76,0.23-35.46,4.41-51.45,12.15c-2.86,1.38-5.68,2.88-8.66,3.99
			c-1.26,0.47-2.55,0.87-3.74,1.49c-2.46,1.28-4.67,3.54-7.44,3.45c2.66,1.14,5.67,1.01,8.56,0.88c20.67-0.91,41.38-0.89,62.05,0.04
			c6.8,0.31,13.69,0.7,20.34-0.74c2.47-0.54,4.93-1.35,6.99-2.82c1.98-1.42,3.5-3.39,4.89-5.38c9.19-13.13,14.49-28.93,15.08-44.95
			c0.05-1.46,0.04-3.03-0.81-4.22c-0.58-0.81-1.47-1.32-2.35-1.78c-8.75-4.47-19.05-4.64-28.83-3.71
			c-15.2,1.44-30.17,5.28-44.18,11.35"/>
		<path class="st3" d="M1408.41,1404.84c-3.93-1.25-8.12,0.63-11.74,2.61c-9.32,5.09-18.09,11.17-26.12,18.11
			c-6.68,5.77-13.24,12.99-13.68,21.81c-0.11,2.33,0.21,4.69-0.24,6.98c-0.62,3.13-2.64,5.78-4.62,8.29
			c-15.68,19.8-33.39,38.93-41.67,62.79c-1.21,3.5-2.2,7.43-0.73,10.83c1.87,4.33,6.92,6.18,11.5,7.32
			c40.01,9.93,82.06,0.01,121.66-11.45c0.68-0.2,1.43-0.39,2.07-0.1c0.64,0.29,0.96,1.3,0.38,1.7
			c12.02-3.83,22.41-12.04,29.81-22.25s11.92-22.33,14.11-34.75c0.86-4.88,1.37-9.9,0.49-14.77c-0.96-5.34-3.53-10.25-6.5-14.79
			c-13.6-20.81-36.57-35.24-61.22-38.46"/>
		<path class="st3" d="M1450.63,1497.31c-2.72,4.88-5.21,10-6.12,15.51c-0.91,5.51-0.09,11.52,3.31,15.95
			c2.69,3.52,6.79,5.84,9.13,9.6c0.48,0.78,0.89,1.64,0.87,2.56c-0.04,1.46-1.14,2.65-2.25,3.58c-3.32,2.8-7.33,4.72-10.43,7.75
			c-3.11,3.02-5.21,7.79-3.35,11.71c1.03,2.17,3.07,3.68,5.14,4.88c7.65,4.46,16.6,6.08,24.76,9.53c1.29,0.55,2.78,1.5,2.62,2.9
			c-0.07,0.58-0.44,1.08-0.79,1.55c-2.84,3.78-5.69,7.56-8.54,11.34c6.72-4.32,13.43-8.64,20.15-12.96
			c4.05-2.61,8.12-5.23,11.76-8.39c6.29-5.48,11.1-12.41,16.13-19.06c7.06-9.33,14.68-18.26,23.11-26.37
			c2.5-2.4,5.08-4.75,7.14-7.55c5.56-7.56,6.63-17.72,4.82-26.93c-1.81-9.21-6.21-17.69-10.83-25.86
			c-3.61-6.39-7.39-12.7-11.33-18.9c-0.84-1.33-1.77-2.72-3.2-3.37c-1.34-0.61-2.89-0.45-4.34-0.24
			c-13.08,1.87-25.37,7.15-36.91,13.41c-4.82,2.62-12.05,5.39-15.52,9.77c-2.46,3.11-1.9,7.43-3.52,10.94
			C1459.42,1485.18,1454.16,1490.98,1450.63,1497.31z"/>
		<path class="st3" d="M1458.16,1352.72c-32.01,12.87-64.13,25.79-94.14,42.8c-12.19,6.91-24.36,14.79-32.25,26.37
			c-0.91,1.33-1.78,2.77-1.93,4.38c-0.25,2.76,1.64,5.21,3.49,7.26c16.3,18.04,38.39,30.7,52.11,50.77
			c4.81,7.04,8.62,15,15.16,20.46c9.59,8.02,23.09,9.1,35.59,8.99c24.26-0.2,50.21-4.25,67.99-20.77c3.61-3.36,6.84-7.23,8.83-11.74
			c2.13-4.82,2.76-10.14,3.36-15.37c0.87-7.54,1.75-15.07,2.62-22.61c0.37-3.24,0.75-6.52,0.25-9.74
			c-0.89-5.78-4.45-10.73-7.2-15.89c-9.3-17.47-9.66-38.72-19.46-55.92c-2.01-3.54-4.4-6.84-6.55-10.29
			c-1.58-2.54-2.52-6.16-5.93-6.23c-3.24-0.06-7.35,2-10.34,3.05C1465.86,1349.62,1462.01,1351.17,1458.16,1352.72z"/>
		<path class="st3" d="M1523.28,1441.92c-1.21-1.08-2.45-2.17-3.92-2.83s-3.26-0.83-4.69-0.08c-1.7,0.9-2.55,2.94-2.54,4.87
			c0.04,5.76,5.71,8.47,10.79,7.34C1528.79,1449.92,1526.73,1445.01,1523.28,1441.92z"/>
		<path class="st3" d="M1325.38,1322.29c-4.87-0.72-9.84-1.45-14.71-0.68c-4.87,0.77-9.71,3.27-12.09,7.59
			c-1.8,3.26-2,7.14-2.16,10.86c-0.13,2.95-0.26,5.91,0.11,8.84c0.72,5.71,3.31,11.02,4.28,16.69c0.83,4.88,0.45,9.9,1.34,14.77
			c1.18,6.39,4.49,12.16,7.99,17.63c6.06,9.46,12.86,18.43,19.65,27.38c2.01,2.65,4.21,5.44,7.36,6.48
			c4.08,1.35,8.45-0.63,12.26-2.63c30.8-16.18,58.87-37.42,90.55-51.82c2.55-1.16,5.21-2.29,8.01-2.31
			c1.98-0.02,3.94,0.53,5.93,0.49c6.44-0.12,11.35-6.58,11.89-13c0.54-6.41-2.18-12.63-5.2-18.31c-4.6-8.65-10.12-16.95-17.4-23.52
			c-17.39-15.69-42.74-19.55-66.04-17.06c-13.03,1.39-26.43,4.83-36.21,13.54"/>
		<path class="st3" d="M1399.9,1238.4c-3.23,0-5.89,2.44-8.07,4.82c-10.52,11.48-18.26,25.27-24.26,39.64
			c-2.96,7.1-5.52,15.18-2.69,22.33c2.89,7.3,10.47,11.39,17.32,15.22c6.86,3.82,14.17,8.82,15.7,16.52
			c1.23,6.21-1.38,13.74,3,18.31c1.38,1.44,3.24,2.29,5.06,3.11c13.39,6.01,26.79,12.03,40.18,18.04c3.28,1.47,6.77,2.98,10.35,2.59
			c3.95-0.43,7.24-3.08,10.29-5.62c4.01-3.34,8.02-6.68,12.03-10.02c0.77-0.64,1.57-1.32,1.99-2.24c0.47-1.04,0.37-2.24,0.45-3.38
			c0.37-5.43,4.8-10.15,4.38-15.57c-0.23-2.99-1.92-5.63-3.05-8.41c-2.22-5.46-2.33-11.56-4.29-17.12
			c-2.17-6.14-6.45-11.25-9.8-16.83c-3-5.01-5.27-10.45-6.71-16.11c-1.04-4.09-1.66-8.28-2.71-12.36
			c-1.43-5.53-3.66-10.82-5.89-16.09c-2.67-6.32-5.34-12.65-8.01-18.97c-1.79-4.25-3.78-8.74-7.6-11.32
			c-4.21-2.85-9.74-2.75-14.77-2c-14.53,2.18-27.95,8.83-41.09,15.38c0.91,0,1.81-0.01,2.72-0.01"/>
		<path class="st3" d="M1396.26,1169.64c-0.19-0.89-0.38-1.78-0.57-2.67c-7.36,5.95-12.25,14.87-13.29,24.28
			c-0.31,2.77-0.29,5.6,0.41,8.29c0.95,3.63,3.12,6.82,5.55,9.67c5.03,5.89,11.3,10.59,17.74,14.88c2.94,1.96,5.96,3.87,8.42,6.4
			c2.46,2.53,4.35,5.81,4.47,9.34c0.15,4.51-2.57,8.8-2.18,13.3c0.09,1,0.38,2.07,1.2,2.65c0.6,0.42,1.38,0.49,2.11,0.53
			c5.45,0.28,10.96-0.62,16.04-2.61c0.43-0.17,0.88-0.36,1.18-0.71c0.44-0.52,0.47-1.27,0.68-1.92c0.36-1.1,1.26-1.92,1.97-2.84
			c2.6-3.31,2.85-7.83,3-12.04c0.16-4.82,0.32-9.67-0.28-14.45c-1.33-10.67-6.34-20.48-11.27-30.04
			c-5.12-9.92-10.44-20.08-18.83-27.45c-1.66-1.46-3.47-2.82-5.54-3.62c-4.16-1.6-8.82-0.76-13.25-1.21
			c1.32-0.03,2.64-0.05,3.97-0.08"/>
		<g>
			<g>
				<path d="M949.1,664.05c14.66-7.24,29.16-14.81,43.35-22.94c14.17-8.12,28.03-16.8,41.36-26.24c12.95-9.16,25.43-19,37.17-29.67
					c11.17-10.14,21.67-21.03,31.25-32.69c9.65-11.74,18.42-24.22,25.92-37.44c0.94-1.65,1.85-3.32,2.75-4.99
					c1.04-1.94,0.55-4.66-1.51-5.75c-1.95-1.03-4.64-0.56-5.75,1.51c-3.53,6.57-7.35,12.98-11.46,19.2
					c-2.05,3.11-4.18,6.17-6.36,9.19c-1.11,1.54-2.24,3.06-3.39,4.58c-0.25,0.34-0.51,0.67-0.77,1.01c-0.13,0.17-0.26,0.33-0.39,0.5
					c-0.43,0.56,0.32-0.41-0.12,0.15c-0.56,0.72-1.12,1.44-1.69,2.16c-9.32,11.77-19.59,22.78-30.54,33.04
					c-5.46,5.11-11.08,10.05-16.86,14.8c-6.17,5.08-11.75,9.38-18.23,14.08c-13.09,9.5-26.72,18.25-40.68,26.43
					c-14.04,8.23-28.42,15.88-42.98,23.16c-1.78,0.89-3.55,1.77-5.33,2.65c-1.98,0.98-2.68,3.93-1.51,5.75
					C944.66,664.57,946.99,665.1,949.1,664.05L949.1,664.05z"/>
			</g>
		</g>
		<g>
			<g>
				<path d="M873.74,640.72c-1.96-6.74-7.72-11.58-14.37-13.43c-7.01-1.95-14.45-0.25-20.51,3.6c-12.41,7.9-19.34,22.57-21.83,36.65
					c-1.29,7.29-1.67,14.7-1.27,22.09c0.4,7.52,1.39,15.11,3.39,22.38c2.03,7.38,5.21,14.45,9.9,20.53
					c4.07,5.27,9.25,9.65,15.05,12.93c11.59,6.57,25.41,9.07,38.63,8.21c1.59-0.1,3.17-0.26,4.75-0.46c2.17-0.28,4.31-1.73,4.2-4.2
					c-0.09-2.04-1.87-4.5-4.2-4.2c-6.13,0.78-12.27,0.77-18.41,0.09c-1.23-0.13,0.87,0.14-0.35-0.04c-0.3-0.05-0.61-0.09-0.91-0.14
					c-0.67-0.1-1.34-0.22-2-0.34c-1.57-0.29-3.13-0.64-4.67-1.05c-1.42-0.37-2.82-0.79-4.21-1.27c-0.69-0.23-1.38-0.48-2.06-0.74
					c-0.34-0.13-0.68-0.26-1.02-0.4c-0.22-0.09-0.45-0.18-0.67-0.28c0.45,0.19,0.45,0.19,0-0.01c-2.63-1.21-5.18-2.52-7.6-4.11
					c-0.6-0.39-1.19-0.8-1.77-1.22c-0.29-0.21-0.58-0.42-0.87-0.64c-0.95-0.71,0.63,0.54-0.28-0.22c-1.2-1-2.38-2.01-3.49-3.1
					c-1.03-1.02-2.01-2.08-2.93-3.19c-0.23-0.28-0.46-0.56-0.69-0.85c0.61,0.77-0.24-0.33-0.29-0.4c-0.49-0.68-0.97-1.37-1.43-2.07
					c-0.91-1.4-1.75-2.85-2.51-4.34c-0.38-0.74-0.74-1.5-1.09-2.26c-0.17-0.38-0.34-0.76-0.51-1.15c0.27,0.65-0.31-0.8-0.37-0.94
					c-1.27-3.27-2.25-6.66-3.01-10.08c-0.34-1.52-0.63-3.04-0.89-4.57c-0.14-0.83-0.27-1.67-0.39-2.51
					c-0.01-0.04-0.19-1.42-0.08-0.56c-0.07-0.56-0.14-1.12-0.2-1.68c-0.76-6.64-1-13.36-0.49-20.03c0.06-0.81,0.14-1.63,0.22-2.44
					c0.04-0.41,0.09-0.81,0.14-1.22c0.01-0.07,0.18-1.4,0.06-0.5c0.24-1.74,0.54-3.47,0.91-5.19c0.67-3.15,1.54-6.25,2.66-9.27
					c0.14-0.38,0.28-0.75,0.43-1.12c0.02-0.05,0.52-1.27,0.18-0.48c0.31-0.74,0.64-1.46,0.99-2.18c0.75-1.56,1.57-3.09,2.47-4.57
					c0.84-1.38,1.75-2.7,2.7-4c0.78-1.06-0.51,0.59,0.31-0.39c0.25-0.3,0.49-0.61,0.75-0.9c0.51-0.6,1.03-1.18,1.57-1.75
					c0.63-0.66,1.29-1.3,1.97-1.91c0.29-0.26,0.59-0.52,0.88-0.77c0.11-0.09,1.33-1.04,0.68-0.56c1.45-1.08,2.98-2.04,4.6-2.84
					c0.34-0.17,0.69-0.33,1.05-0.48c-0.81,0.35,0.64-0.22,0.78-0.27c0.85-0.29,1.71-0.54,2.59-0.73c0.38-0.08,0.76-0.15,1.14-0.21
					c-0.91,0.16,0.49-0.04,0.66-0.06c0.68-0.04,1.36-0.05,2.04-0.02c0.34,0.02,0.68,0.05,1.02,0.08c0.49,0.06,0.45,0.05-0.1-0.02
					c0.23,0.04,0.45,0.07,0.67,0.12c0.78,0.15,1.56,0.35,2.32,0.6c0.32,0.11,0.64,0.23,0.96,0.34c0.44,0.18,0.42,0.17-0.06-0.03
					c0.21,0.09,0.41,0.19,0.61,0.29c0.71,0.35,1.39,0.74,2.04,1.18c0.13,0.09,1.03,0.76,0.23,0.13c0.35,0.27,0.69,0.56,1.01,0.87
					c0.24,0.23,0.48,0.46,0.7,0.7c0.14,0.15,1.04,1.26,0.4,0.41c0.46,0.62,0.87,1.27,1.22,1.95c0.09,0.17,0.48,1.17,0.12,0.2
					c0.16,0.42,0.3,0.84,0.43,1.27c0.61,2.11,2.99,3.64,5.17,2.93C872.94,645.19,874.4,642.98,873.74,640.72L873.74,640.72z"/>
			</g>
		</g>
		<g>
			<g>
				<path d="M937.38,610.6c-1.33,22.36-1.96,44.77-1.88,67.17c0.08,22.51,0.88,45.01,2.39,67.47c1.46,21.74,3.53,43.46,6.43,65.06
					c2.73,20.39,6.26,40.7,11.52,60.61c5.24,19.84,12.21,39.29,21.5,57.61c0.53,1.04,1.06,2.07,1.6,3.09
					c0.32,0.6,0.64,1.2,0.95,1.79c0.36,0.68,0.08,0.03,0.06,0.02c0.48,0.42-0.73,1.43,0.03-0.71c0.36-0.62,0.72-1.24,1.08-1.85
					c0.13-0.08,0.26-0.17,0.4-0.25c0.71-0.19,1.41-0.38,2.12-0.57c-0.07,0-0.14,0-0.21-0.01c0.71,0.19,1.41,0.38,2.12,0.57
					c1.03,2.01,1.47,2.55,1.3,1.62c0,0.74,0,1.49,0,2.23c0.01-0.05,0.03-0.11,0.04-0.16c-0.64,0.84-1.29,1.67-1.93,2.51
					c0.04-0.03,0.08-0.06,0.13-0.09c-0.71,0.19-1.41,0.38-2.12,0.57c0.07,0,0.15,0,0.22,0.01c2.27,0.07,4.2-1.98,4.2-4.2
					c0-2.34-1.92-4.13-4.2-4.2c-3.83-0.12-5.64,4.18-3.76,7.19c2.18,3.49,7.5,2.83,8.72-1.13c0.89-2.9-0.73-5.36-2.02-7.83
					c-1.26-2.4-2.47-4.81-3.65-7.25c-4.58-9.49-8.49-19.28-11.88-29.26c-6.93-20.38-11.66-41.44-15.16-62.66
					c-3.63-22-6.01-44.21-7.85-66.42c-1.95-23.6-3.12-47.27-3.49-70.95c-0.37-23.68,0.05-47.37,1.26-71.02
					c0.15-2.98,0.32-5.97,0.5-8.95c0.13-2.27-2.03-4.2-4.2-4.2C939.19,606.4,937.51,608.33,937.38,610.6L937.38,610.6z"/>
			</g>
		</g>
		<g>
			<g>
				<path d="M1098.63,549.66c2.81,10.34,8.91,19.22,15.18,27.76c6.89,9.4,13.89,18.72,20.96,27.98c7.16,9.37,14.4,18.68,21.74,27.92
					c6.81,8.58,13.71,17.2,21.92,24.51c9.09,8.11,19.49,14.42,30.81,18.9c2.05,0.81,4.7-0.89,5.17-2.93
					c0.55-2.42-0.74-4.3-2.93-5.17c-0.27-0.11-0.54-0.21-0.81-0.32c0.13,0.05-1.19-0.49-0.7-0.29c0.4,0.17-0.42-0.18-0.5-0.21
					c-0.27-0.12-0.53-0.23-0.8-0.35c-1.19-0.53-2.37-1.08-3.54-1.66c-2.27-1.12-4.51-2.33-6.69-3.63c-2.18-1.3-4.31-2.68-6.38-4.15
					c-1.01-0.71-2-1.44-2.98-2.19c0.15,0.11,0.48,0.38-0.18-0.14c-0.23-0.18-0.45-0.36-0.68-0.54c-0.57-0.45-1.13-0.91-1.68-1.38
					c-8.2-6.89-15.09-15.13-21.75-23.46c-14.1-17.64-27.54-35.21-41-53.44c-3.5-4.75-7.06-9.48-10.19-14.49
					c-1.5-2.4-2.89-4.87-4.1-7.43c-0.31-0.65-0.61-1.31-0.89-1.97c0.07,0.17,0.24,0.6-0.07-0.2c-0.16-0.4-0.32-0.81-0.47-1.21
					c-0.5-1.36-0.94-2.74-1.32-4.14c-0.58-2.12-3.01-3.63-5.17-2.93C1099.39,545.2,1098.01,547.39,1098.63,549.66L1098.63,549.66z"
					/>
			</g>
		</g>
		<g>
			<g>
				<path d="M1007.45,633.39c0.68-0.12,1.36-0.23,2.05-0.33c0.32-0.05,0.63-0.09,0.95-0.14c0.32-0.04,0.21-0.03-0.33,0.04
					c0.16-0.02,0.32-0.04,0.47-0.06c1.32-0.16,2.64-0.3,3.97-0.4c2.65-0.21,5.31-0.3,7.97-0.28c2.2,0.01,4.3-1.94,4.2-4.2
					c-0.1-2.29-1.85-4.19-4.2-4.2c-5.8-0.04-11.59,0.49-17.31,1.47c-2.17,0.37-3.58,3.16-2.93,5.17
					C1003.04,632.8,1005.12,633.79,1007.45,633.39L1007.45,633.39z"/>
			</g>
		</g>
		<g>
			<g>
				<path d="M1134.15,647.88c6.27,7.94,15.74,12.72,25.71,13.78c2.19,0.23,4.3-2.1,4.2-4.2c-0.11-2.48-1.85-3.95-4.2-4.2
					c-0.12-0.01-1.1-0.13-0.5-0.05c0.54,0.07-0.23-0.04-0.32-0.05c-0.53-0.09-1.05-0.18-1.57-0.3c-1.04-0.22-2.08-0.5-3.09-0.82
					c-0.51-0.16-1.01-0.34-1.51-0.52c-0.22-0.08-0.44-0.17-0.66-0.26c-0.35-0.14-0.68-0.3-0.15-0.06c-0.97-0.45-1.93-0.91-2.87-1.43
					c-0.88-0.49-1.74-1.02-2.57-1.59c-0.44-0.3-0.87-0.62-1.3-0.93c0.68,0.5,0.01,0-0.13-0.11c-0.18-0.15-0.37-0.3-0.55-0.46
					c-1.67-1.42-3.19-3.01-4.55-4.74c-1.37-1.73-4.53-1.54-5.94,0C1132.46,643.78,1132.69,646.04,1134.15,647.88L1134.15,647.88z"/>
			</g>
		</g>
		<g>
			<g>
				<path d="M1014.09,659.66c-9.82,6.63-13.35,19.67-8.5,30.41c1.24,2.75,6.02,2.75,7.26,0c1.56-3.47,2.96-7,4.11-10.63
					c0.53-1.68,1.01-3.37,1.44-5.07c0.47-1.88,1.1-3.9,1.19-5.85c0.09-1.98-0.63-3.97-2.22-5.2c-2.5-1.93-5.85-0.93-7.17,1.84
					c-1.78,3.73-2.2,7.74-1.38,11.78c0.53,2.6,4,3.91,6.17,2.51c2.03-1.31,3.49-3.55,3.27-6.06c-0.19-2.18-1.79-4.31-4.2-4.2
					c-2.11,0.09-4.41,1.86-4.2,4.2c0.06,0.66,0.06-0.08,0.19-0.37c0.15-0.34,0.39-0.62,0.7-0.82c2.06,0.84,4.11,1.67,6.17,2.51
					c0,0.01-0.17-1.11-0.13-0.67c0.05,0.48-0.02-0.59-0.02-0.69c-0.01-0.35,0-0.69,0.01-1.04c0.01-0.14,0.11-1.06,0-0.33
					c0.09-0.62,0.24-1.23,0.42-1.83c0.1-0.33,0.21-0.66,0.34-0.98c-0.27,0.64,0.24-0.41,0.28-0.5c-0.84,0.64-1.67,1.29-2.51,1.93
					c0.08-0.01,0.15-0.03,0.23-0.04c-0.74,0-1.49,0-2.23,0c-1.2-0.18-2.11-1.46-2.13-2.58c0.01,0.85,0.26-0.96,0.02,0.15
					c-0.19,0.9-0.38,1.79-0.59,2.69c-0.42,1.79-0.9,3.56-1.43,5.31c-0.53,1.76-1.12,3.49-1.76,5.21c-0.7,1.88-1.11,2.87-1.85,4.5
					c2.42,0,4.84,0,7.26,0c-0.33-0.73,0.12,0.41-0.03-0.08c-0.09-0.26-0.19-0.52-0.28-0.79c-0.16-0.48-0.29-0.96-0.41-1.44
					c-0.07-0.27-0.13-0.54-0.18-0.81c-0.02-0.12-0.2-1.06-0.09-0.43c0.11,0.63-0.04-0.4-0.04-0.44c-0.02-0.22-0.04-0.44-0.05-0.67
					c-0.06-1.12,0.04-2.22,0.1-3.34c-0.02,0.33-0.1,0.62-0.02,0.12c0.05-0.28,0.09-0.55,0.15-0.83c0.11-0.55,0.24-1.09,0.39-1.63
					c0.14-0.48,0.29-0.96,0.46-1.44c0.04-0.11,0.38-0.99,0.16-0.44c-0.22,0.56,0.19-0.4,0.19-0.42c0.45-0.96,0.98-1.88,1.58-2.76
					c0.16-0.23,0.32-0.45,0.48-0.68c-0.2,0.28-0.33,0.41-0.04,0.06c0.36-0.42,0.73-0.84,1.12-1.24c0.39-0.4,0.81-0.76,1.23-1.13
					c0.34-0.3,0.22-0.17-0.06,0.03c0.27-0.2,0.54-0.39,0.82-0.58c1.82-1.23,2.79-3.76,1.51-5.75
					C1018.67,659.36,1016.04,658.35,1014.09,659.66L1014.09,659.66z"/>
			</g>
		</g>
		<g>
			<g>
				<path d="M1146.68,677.01c-5.07,5.29-7.05,12.75-5.7,19.9c0.77,4.07,3.32,9.84,8.48,8.51c2.87-0.74,3.76-3.52,4.13-6.09
					c0.3-2.04,0.48-4.07,0.4-6.13c-0.18-4.7-1.36-9.18-3.38-13.42c-0.77-1.6-3.09-2.47-4.74-1.93c-1.79,0.58-3.05,2.14-3.08,4.05
					c-0.06,2.98-0.11,5.97-0.17,8.95c-0.04,2.2,1.96,4.3,4.2,4.2c2.31-0.1,4.16-1.85,4.2-4.2c0.06-2.98,0.11-5.97,0.17-8.95
					c-2.61,0.71-5.22,1.41-7.83,2.12c0.16,0.34,0.32,0.67,0.47,1.01c-0.36-0.83,0.14,0.38,0.2,0.55c0.26,0.7,0.49,1.41,0.69,2.12
					c0.22,0.78,0.4,1.56,0.55,2.35c0.07,0.37,0.13,0.73,0.19,1.1c-0.12-0.76,0,0.06,0.03,0.36c0.14,1.48,0.17,2.97,0.08,4.46
					c-0.02,0.37-0.06,0.74-0.09,1.11c-0.07,1.01,0.12-0.56-0.04,0.36c-0.07,0.43-0.14,0.86-0.23,1.28c-0.03,0.15-0.06,0.31-0.1,0.46
					c0.32-0.85,0.94-1.47,1.87-1.85c0.74,0,1.49,0,2.23,0c-0.81-0.12,0.81,0.56,0.87,0.6c-0.07-0.08-0.14-0.15-0.22-0.23
					c0.3,0.39,0.37,0.46,0.22,0.2c-0.03-0.11-0.38-0.72-0.12-0.2c0.26,0.5-0.04-0.1-0.08-0.22c-0.31-0.82-0.55-1.67-0.73-2.53
					c-0.05-0.25-0.09-0.51-0.14-0.76c-0.12-0.58,0.07,0.79,0.03,0.19c-0.03-0.41-0.07-0.82-0.09-1.24c-0.04-0.94,0.03-1.86,0.11-2.8
					c0.05-0.59-0.15,0.78-0.02,0.19c0.04-0.2,0.07-0.41,0.11-0.61c0.09-0.46,0.2-0.91,0.32-1.36c0.11-0.4,0.24-0.8,0.37-1.19
					c0.07-0.2,0.14-0.39,0.22-0.58c0.35-0.94-0.27,0.52,0,0c0.42-0.78,0.79-1.56,1.28-2.3c0.11-0.17,0.23-0.34,0.35-0.51
					c0.39-0.56-0.11,0.06-0.09,0.11c-0.05-0.12,0.93-1.06,1.03-1.16c1.52-1.59,1.7-4.38,0-5.94
					C1150.98,675.5,1148.31,675.32,1146.68,677.01L1146.68,677.01z"/>
			</g>
		</g>
		<g>
			<g>
				<path d="M1100.4,643.15c-2.73,14.32-2.34,29.08,1.18,43.23c1.73,6.96,4.26,13.74,7.44,20.17c1.58,3.2,3.49,6.21,5.2,9.34
					c0.21,0.38,0.41,0.76,0.6,1.14c0,0,0.57,1.27,0.28,0.55c0.33,0.8,0.53,1.61,0.75,2.44c0.32,1.19,0.02-0.67,0.09,0.55
					c0.01,0.28,0.03,0.56,0.04,0.84c0.01,0.42-0.03,0.83-0.04,1.25c-0.05,0.51-0.05,0.56,0.01,0.13c-0.04,0.28-0.09,0.55-0.15,0.83
					c-0.2,0.97-0.48,1.92-0.82,2.85c0,0-0.54,1.28-0.23,0.59c-0.24,0.52-0.49,1.04-0.76,1.55c-0.94,1.79-2.07,3.47-3.25,5.11
					c-2.38,3.31-4.96,6.49-6.85,10.12c-1.01,1.95-0.57,4.65,1.51,5.75c1.93,1.02,4.67,0.57,5.75-1.51c1.69-3.24,3.92-6.13,6.08-9.06
					c2.29-3.12,4.3-6.29,5.71-9.91c1.44-3.71,1.88-7.85,0.94-11.74c-0.9-3.71-3.11-6.91-4.97-10.17
					c-3.59-6.27-5.88-11.65-7.95-18.54c-1.02-3.4-1.86-6.86-2.5-10.35c-0.15-0.84-0.3-1.68-0.43-2.52
					c-0.07-0.42-0.13-0.84-0.19-1.26c-0.21-1.38,0.09,0.81-0.08-0.57c-0.22-1.83-0.41-3.67-0.53-5.51
					c-0.27-3.97-0.29-7.95-0.06-11.92c0.11-1.99,0.29-3.97,0.53-5.94c0-0.03,0.19-1.42,0.07-0.57c0.08-0.56,0.16-1.12,0.25-1.69
					c0.16-0.98,0.33-1.96,0.52-2.94c0.41-2.15-0.6-4.64-2.93-5.17C1103.49,639.75,1100.84,640.85,1100.4,643.15L1100.4,643.15z"/>
			</g>
		</g>
		<g>
			<g>
				<path d="M1047.82,795.19c9.78-0.26,19.56-0.44,29.34-0.51c4.81-0.04,9.62-0.05,14.42-0.04c2.49,0,4.97,0.01,7.46,0.03
					c1.16,0.01,2.32,0.02,3.48,0.03c0.33,0,0.66,0.01,0.99,0.01c0.46,0.03,0.38,0-0.24-0.07c0.2,0.03,0.39,0.08,0.58,0.15
					c-1.17-0.33-1.81-1.26-1.94-2.78c0.23,2.18,1.77,4.31,4.2,4.2c2.08-0.09,4.45-1.86,4.2-4.2c-0.28-2.64-1.76-4.62-4.37-5.36
					c-1.96-0.55-4.15-0.35-6.16-0.37c-4.14-0.03-8.29-0.04-12.43-0.04c-8.37,0.01-16.74,0.09-25.12,0.24
					c-4.81,0.08-9.61,0.19-14.42,0.32c-2.2,0.06-4.3,1.89-4.2,4.2C1043.72,793.22,1045.47,795.26,1047.82,795.19L1047.82,795.19z"/>
			</g>
		</g>
		<g>
			<g>
				<path d="M855.35,659.75c-0.52,0.23,0.78-0.23,0.97-0.28c0.27-0.07,0.54-0.12,0.81-0.17c-0.09,0.01-0.59,0.06-0.1,0.03
					c0.55-0.03,1.09-0.04,1.64,0c0.21,0.01,0.41,0.03,0.62,0.05c-0.82-0.1,0.49,0.13,0.53,0.14c2.24,0.53,3.42,1.15,5.45,2.57
					c0.18,0.13,0.36,0.25,0.54,0.39c-0.43-0.32,0.14,0.12,0.19,0.16c0.44,0.38,0.88,0.76,1.3,1.16c0.86,0.83,1.64,1.73,2.41,2.64
					c0.03,0.03,0.49,0.61,0.18,0.21c0.18,0.24,0.36,0.48,0.53,0.72c0.31,0.42,0.6,0.86,0.89,1.29c0.66,1,1.28,2.03,1.85,3.08
					c1.15,2.11,1.95,3.89,2.67,5.79c0.87,2.28,1.61,4.62,2.27,6.97c1.36,4.81,2.41,9.7,3.46,14.58
					c4.58,21.37,7.94,42.97,11.89,64.45c3.94,21.48,8.48,42.91,15.4,63.66c6.63,19.87,15.58,38.9,26.3,56.88
					c10.64,17.83,22.94,34.64,36.18,50.62c1.63,1.96,3.27,3.91,4.92,5.85c1.47,1.73,4.43,1.52,5.94,0c1.71-1.71,1.48-4.21,0-5.94
					c-13.48-15.8-25.84-32.17-36.84-49.93c-11.02-17.8-20.31-36.45-27.13-56.01c-7.29-20.89-12.04-42.55-16.1-64.27
					c-4.07-21.82-7.45-43.77-12.02-65.5c-2.12-10.05-4.17-20.31-8.74-29.59c-4.36-8.86-12.02-17.51-22.46-18.35
					c-2.72-0.22-5.31,0.45-7.77,1.56c-2.07,0.93-2.57,3.94-1.51,5.75C850.85,660.37,853.27,660.68,855.35,659.75L855.35,659.75z"/>
			</g>
		</g>
		<g>
			<g>
				<path d="M1110.55,867.71c-2.56,28.07-2.19,56.4,1.14,84.4c0.39,3.29,0.87,6.45,2.41,9.43c1.69,3.26,4.57,5.21,8.19,5.58
					c2.19,0.23,4.3-2.09,4.2-4.2c-0.11-2.47-1.85-3.96-4.2-4.2c1.39,0.14-0.04,0.05-0.05-0.08c-0.01-0.07,0.93,0.55,0.22,0.08
					c-0.16-0.1-0.64-0.6-0.28-0.15c0.41,0.51-0.13-0.18-0.21-0.25c-0.65-0.58,0.21,0.52,0.01,0.04c-0.09-0.22-0.29-0.44-0.41-0.65
					c-0.1-0.18-0.19-0.37-0.3-0.55c-0.4-0.69,0.19,0.69-0.14-0.33c-0.33-1-0.61-1.99-0.81-3.03c-0.06-0.32-0.11-0.64-0.16-0.96
					c0.04,0.22,0.13,1.09,0.01,0c-0.11-0.98-0.23-1.96-0.34-2.94c-0.74-6.53-1.32-13.08-1.74-19.64
					c-0.85-13.29-1.04-26.61-0.58-39.92c0.27-7.56,0.75-15.1,1.44-22.63c0.2-2.2-2.08-4.3-4.2-4.2
					C1112.3,863.62,1110.76,865.36,1110.55,867.71L1110.55,867.71z"/>
			</g>
		</g>
		<g>
			<g>
				<path d="M950.15,841.36c11.8,8.9,23.44,18.06,35.52,26.58c11.41,8.05,23.72,14.8,37.11,18.92c24.51,7.55,51.41,5.07,74.38-6.22
					c12.16-5.98,22.46-14.71,31.9-24.33c8.91-9.09,17.2-18.76,24.95-28.86c15.11-19.7,27.85-41.2,37.92-63.89
					c10.22-23.03,17.82-47.19,22.3-71.99c0.53-2.95,1.02-5.9,1.47-8.87c0.33-2.16-0.54-4.62-2.93-5.17c-2-0.46-4.82,0.61-5.17,2.93
					c-3.66,24.27-10.24,48.07-19.49,70.8c-0.27,0.66-0.54,1.32-0.81,1.98c-0.16,0.4-0.33,0.79-0.49,1.18
					c0.23-0.56-0.04,0.1-0.08,0.18c-0.64,1.51-1.29,3.02-1.96,4.52c-1.24,2.8-2.53,5.59-3.85,8.36c-2.65,5.53-5.45,10.99-8.42,16.36
					c-5.93,10.74-12.48,21.14-19.62,31.11c-1.74,2.44-3.52,4.85-5.33,7.23c-1.66,2.18-3.39,4.39-5.42,6.89
					c-3.87,4.76-7.87,9.41-12.02,13.93c-8.69,9.48-17.8,18.78-28.5,25.53c-2.56,1.62-5.21,3.11-7.92,4.47
					c-2.81,1.42-4.98,2.37-7.5,3.35c-5.66,2.19-11.52,3.85-17.48,4.97c-1.53,0.28-3.06,0.54-4.6,0.75c0.19-0.03,0.72-0.09-0.14,0.02
					c-0.42,0.05-0.84,0.1-1.26,0.15c-0.84,0.09-1.68,0.18-2.53,0.25c-2.95,0.25-5.91,0.37-8.88,0.36c-3.1-0.02-6.2-0.19-9.29-0.51
					c-0.7-0.07-1.4-0.16-2.1-0.24c-1.35-0.17,0.45,0.07-0.35-0.05c-0.35-0.05-0.7-0.1-1.05-0.16c-1.53-0.24-3.06-0.51-4.58-0.83
					c-13.22-2.74-24.89-7.97-36.27-15.18c-12.08-7.64-23.29-16.72-34.69-25.32c-2.86-2.15-5.71-4.31-8.57-6.46
					c-1.76-1.33-4.77-0.34-5.75,1.51C947.47,837.82,948.27,839.94,950.15,841.36L950.15,841.36z"/>
			</g>
		</g>
		<g>
			<g>
				<path d="M904.69,836.49c4.58,18.43,6.13,36.74,6.05,55.9c-0.04,9.48-0.5,18.95-1.21,28.4c-0.36,4.77-0.78,9.53-1.25,14.28
					c-0.23,2.36-0.48,4.73-0.73,7.09c-0.05,0.49-0.11,0.97-0.16,1.46c-0.03,0.28-0.07,0.56-0.1,0.83c0,0.02-0.09,0.71-0.03,0.28
					c0.06-0.48-0.06,0.38-0.07,0.48c-0.03,0.21-0.06,0.42-0.1,0.62c-0.1,0.62-0.21,1.24-0.33,1.86c-0.23,1.16-0.51,2.31-0.86,3.44
					c-0.16,0.53-0.35,1.04-0.54,1.56c-0.04,0.11-0.32,0.73-0.05,0.14c-0.11,0.25-0.23,0.5-0.35,0.74c-0.28,0.55-0.58,1.09-0.91,1.61
					c-0.11,0.18-0.23,0.35-0.34,0.52c-0.68,1.06,0.3-0.28-0.1,0.17c-0.35,0.39-0.68,0.78-1.06,1.14c-0.2,0.19-1.16,0.98-0.48,0.47
					c-0.8,0.6-1.65,1.06-2.53,1.51c-0.43,0.22,0.16-0.07,0.21-0.09c-0.27,0.08-0.54,0.19-0.81,0.28c-0.49,0.15-0.98,0.23-1.48,0.35
					c0.06-0.01,0.76-0.03,0.29-0.04c-0.27-0.01-0.55,0.04-0.83,0.04c-0.42,0-1.41-0.18-0.52,0.03c-0.46-0.11-0.96-0.29-1.43-0.37
					c-0.43-0.07,0.16,0.07,0.24,0.11c-0.3-0.16-0.6-0.31-0.89-0.48c-1.89-1.13-4.7-0.48-5.75,1.51c-1.07,2.03-0.51,4.54,1.51,5.75
					c8.19,4.92,18.38-0.59,22.21-8.45c2.16-4.42,2.93-9.17,3.49-14.01c0.58-4.98,1.05-9.97,1.5-14.96
					c1.79-20.02,2.63-40.21,0.98-60.27c-0.95-11.49-2.68-22.94-5.46-34.13c-0.53-2.13-3.05-3.62-5.17-2.93
					C905.41,832.04,904.12,834.2,904.69,836.49L904.69,836.49z"/>
			</g>
		</g>
		<g>
			<g>
				<path d="M861.96,754.44c0.97,24.07,2.33,48.17,2.4,72.27c0.03,11.4-0.28,22.81-1.27,34.17c-0.5,5.75-1.11,10.98-1.91,16.12
					c-0.86,5.53-1.93,11.04-3.24,16.48c-1.47,6.12-3.26,12.17-5.4,18.09c-2.19,6.05-4.3,10.91-7.33,16.79
					c-1.01,1.95-0.57,4.65,1.51,5.75c1.93,1.02,4.67,0.58,5.75-1.51c10.69-20.71,16.1-43.45,18.54-66.52
					c2.41-22.84,1.94-45.87,1.08-68.79c-0.53-14.28-1.14-28.56-1.71-42.85c-0.09-2.19-1.87-4.31-4.2-4.2
					C863.96,750.33,861.87,752.08,861.96,754.44L861.96,754.44z"/>
			</g>
		</g>
		<g>
			<g>
				<path d="M802.85,595.99c-20.7,2.35-37.01,17.98-45.29,36.43c-4.84,10.79-7.49,22.27-9.18,33.94c-1.79,12.4-2.93,24.9-3.94,37.39
					c-2.05,25.3-2.95,50.71-2.06,76.09c0.44,12.67,1.34,25.33,2.76,37.93c1.44,12.8,3.48,25.53,5.39,38.27
					c3.65,24.32,7.07,49.61,3.08,74.11c-0.48,2.95-1.1,5.88-1.85,8.77c-1.36,5.24,6.74,7.47,8.1,2.23
					c6.25-24.01,3.95-49.71,0.68-73.98c-1.66-12.36-3.71-24.66-5.44-37.02c-1.72-12.28-2.94-24.61-3.69-36.99
					c-1.51-24.89-1.18-49.87,0.37-74.75c0.78-12.53,1.87-25.05,3.2-37.54c1.19-11.19,2.68-22.41,5.86-33.23
					c5.34-18.18,17.1-36.3,35.75-41.91c2.01-0.6,4.52-1.15,6.23-1.34c2.25-0.26,4.2-1.75,4.2-4.2
					C807.05,598.12,805.12,595.73,802.85,595.99L802.85,595.99z"/>
			</g>
		</g>
		<g>
			<g>
				<path d="M824.05,648.99c-8.92-14.72-11.74-31.87-11.53-48.84c0.21-17.12,3.2-34.11,7.33-50.71
					c8.15-32.73,21.98-63.84,40.69-91.91c9.34-14.02,19.9-27.19,31.55-39.36c12.13-12.66,25.34-24.93,41.01-33.08
					c16.13-8.39,34.43-11.14,52.42-11.64c9.21-0.26,18.43,0.04,27.63,0.5c10,0.5,20.04,1.04,29.95,2.53
					c32.92,4.93,63.61,20.81,86.55,44.94c2.78,2.92,5.43,5.95,7.96,9.08c1.43,1.77,4.46,1.49,5.94,0c1.74-1.74,1.43-4.17,0-5.94
					c-21.58-26.67-52.33-45.91-85.71-53.79c-9.64-2.28-19.5-3.51-29.36-4.28c-9.97-0.78-19.99-1.28-29.99-1.47
					c-18.93-0.36-38.37,0.78-56.37,7.1c-18.01,6.33-33.14,17.95-46.82,31c-12.71,12.12-24.25,25.42-34.61,39.6
					c-20.61,28.19-36.25,60.07-45.98,93.6c-4.9,16.89-8.47,34.33-9.97,51.87c-1.5,17.67-0.57,36.2,6.06,52.84
					c1.69,4.23,3.65,8.32,6.01,12.21C819.59,657.84,826.86,653.63,824.05,648.99L824.05,648.99z"/>
			</g>
		</g>
		<g>
			<g>
				<path d="M1162.2,807.5c2.15,19.77,3.49,39.63,3.99,59.51c0.5,19.79,0.19,39.6-0.94,59.37c-0.64,11.18-1.55,22.34-2.71,33.48
					c-0.24,2.35,2.13,4.09,4.2,4.2c5.29,0.29,7.77-4.86,9.73-8.86c2.02-4.11,3.95-8.26,5.8-12.45c3.81-8.62,7.3-17.38,10.44-26.26
					c6.12-17.32,10.94-35.09,14.56-53.09c3.66-18.2,6.11-36.65,7.49-55.16c1.37-18.43,1.65-36.94,0.94-55.41
					c-0.35-9.18-0.95-18.35-1.77-27.51c-0.9-9.94-2.3-19.92-1.82-29.93c0.11-2.33,0.32-4.6,0.67-6.72c0.35-2.16-0.56-4.63-2.93-5.17
					c-2.02-0.46-4.79,0.61-5.17,2.93c-1.63,10-0.99,19.99-0.01,30.02c0.91,9.21,1.72,18.42,2.23,27.67
					c1,18.13,1.06,36.32,0.08,54.45c-0.97,18.1-2.91,35.53-6.02,53.11c-3.15,17.78-7.44,35.36-12.97,52.54
					c-5.54,17.21-11.96,33.53-20.17,49.54c-0.2,0.39-0.41,0.78-0.64,1.16c-0.14,0.22-0.86,1.04-0.35,0.54
					c-0.24,0.24-0.82,0.63-0.24,0.29c-0.18,0.11-0.71,0.31,0.07-0.01c0.16-0.07,0.9-0.04,0.08-0.08c1.4,1.4,2.8,2.8,4.2,4.2
					c2.06-19.78,3.31-39.64,3.72-59.53c0.41-19.79,0.01-39.6-1.21-59.36c-0.69-11.18-1.65-22.34-2.86-33.47
					c-0.24-2.18-1.76-4.31-4.2-4.2C1164.33,803.39,1161.94,805.16,1162.2,807.5L1162.2,807.5z"/>
			</g>
		</g>
		<g>
			<g>
				<path d="M1215.19,615.39c0.32,0.25,0.63,0.7,0.28,0.11c0.08,0.14,0.16,0.3,0.25,0.43c0.25,0.38-0.09-0.14-0.1-0.22
					c0.03,0.18,0.29,1.32,0.22,0.82c-0.07-0.52,0,0.08,0,0.16c0.01,0.24,0.03,0.48,0.03,0.73c0.05,1.93-0.06,3.86-0.11,5.79
					c-0.11,4.3-0.27,8.61-0.47,12.91c-0.4,8.44-0.96,16.86-1.69,25.28c-0.42,4.87-0.91,9.73-1.44,14.58c-0.24,2.19,2.1,4.3,4.2,4.2
					c2.48-0.11,3.94-1.85,4.2-4.2c1.95-17.69,3.17-35.47,3.62-53.26c0.11-4.35,0.86-10.23-3.06-13.28c-1.73-1.35-4.28-1.81-5.94,0
					C1213.81,610.96,1213.34,613.95,1215.19,615.39L1215.19,615.39z"/>
			</g>
		</g>
		<g>
			<g>
				<path d="M1144.21,435.12c0.53-0.1,1.06-0.2,1.58-0.29c0.33-0.06,0.66-0.11,0.99-0.16c0.11-0.02,0.94-0.14,0.44-0.07
					c-0.5,0.07,0.33-0.04,0.44-0.05c0.27-0.03,0.53-0.06,0.8-0.09c0.66-0.07,1.33-0.13,1.99-0.18c2.33-0.18,4.66-0.23,6.99-0.16
					c2.27,0.06,4.52,0.25,6.77,0.52c0.85,0.1,0.25,0.04,0.07,0.01c0.26,0.04,0.53,0.08,0.79,0.12c0.59,0.09,1.19,0.19,1.78,0.3
					c1.18,0.21,2.36,0.45,3.54,0.72c2.29,0.52,4.55,1.15,6.78,1.88c1.02,0.33,2.04,0.69,3.05,1.06c0.51,0.19,1.01,0.38,1.51,0.58
					c0.25,0.1,0.5,0.2,0.75,0.3c0.03,0.01,1.22,0.51,0.49,0.2c4.29,1.82,8.42,4.02,12.35,6.52c2,1.27,3.93,2.63,5.82,4.04
					c0.09,0.06,0.63,0.48,0.11,0.08c0.21,0.16,0.42,0.33,0.64,0.5c0.42,0.33,0.84,0.67,1.26,1.02c0.93,0.77,1.85,1.56,2.76,2.37
					c3.55,3.18,6.86,6.63,9.92,10.29c0.7,0.84,1.38,1.68,2.05,2.54c0.51,0.65,0.2,0.26,0.09,0.12c0.17,0.22,0.33,0.43,0.49,0.65
					c0.41,0.54,0.81,1.09,1.21,1.64c1.36,1.87,2.66,3.79,3.91,5.75c2.57,4.04,4.9,8.23,7,12.53c1.02,2.1,1.99,4.22,2.91,6.36
					c0.33,0.77,0.13,0.3,0.06,0.13c0.11,0.25,0.21,0.51,0.32,0.76c0.23,0.57,0.47,1.14,0.69,1.72c0.46,1.15,0.9,2.3,1.32,3.46
					c1.64,4.46,3.08,8.99,4.33,13.57c1.42,5.22,2.6,10.51,3.55,15.85c0.23,1.31,0.45,2.63,0.65,3.95c0.1,0.62,0.19,1.24,0.28,1.86
					c0.15,1.03,0.1,0.65,0.23,1.68c0.34,2.65,0.62,5.3,0.84,7.96c0.9,10.87,0.82,21.82-0.24,32.68c-0.13,1.33-0.28,2.65-0.44,3.98
					c-0.19,1.57-0.25,1.99-0.48,3.55c-0.39,2.65-0.84,5.29-1.35,7.92c-1.04,5.36-2.31,10.68-3.75,15.94
					c-2.9,10.63-6.5,21.05-10.28,31.4c-3.88,10.6-7.94,21.13-12.16,31.6c-1.04,2.59-2.1,5.17-3.16,7.75
					c-0.84,2.04,0.91,4.71,2.93,5.17c2.45,0.56,4.27-0.75,5.17-2.93c4.44-10.77,8.7-21.61,12.78-32.51
					c3.96-10.58,7.81-21.22,11.05-32.06c6.44-21.55,9.82-43.84,8.72-66.36c-1.06-21.5-5.71-42.89-14.38-62.62
					c-7.93-18.03-19.79-34.53-35.76-46.26c-15.55-11.41-35.38-18.15-54.77-16.43c-2.57,0.23-5.14,0.59-7.68,1.08
					c-2.16,0.41-3.59,3.13-2.93,5.17C1139.79,434.49,1141.89,435.56,1144.21,435.12L1144.21,435.12z"/>
			</g>
		</g>
		<g>
			<g>
				<path d="M900.99,962.66c0.48,76.51,0.96,153.02,1.43,229.53c0.24,38.05,0.48,76.09,0.71,114.14
					c0.24,37.85,0.42,75.71,1.83,113.53c1.58,42.31,4.78,84.59,11.18,126.46c0.35,2.26,3.16,3.46,5.17,2.93
					c2.4-0.63,3.28-2.94,2.93-5.17c-11.38-74.43-12.15-149.93-12.63-225.07c-0.49-76.05-0.95-152.11-1.43-228.16
					c-0.27-42.73-0.53-85.47-0.8-128.2C909.36,957.25,900.96,957.24,900.99,962.66L900.99,962.66z"/>
			</g>
		</g>
		<g>
			<g>
				<path d="M490.25,1502.99c3.37-27.7,2.34-55.77,6.15-83.42c3.72-27.02,12.15-53.09,20.35-79.01
					c16.79-53.05,32.54-106.42,47.2-160.09c7.36-26.93,14.45-53.94,21.26-81.02c3.39-13.45,6.7-26.91,9.96-40.4
					c2.98-12.35,6.52-24.75,8.58-37.29c1.33-8.11,1.75-19.56,9.19-24.71c7.96-5.51,18.14-7.01,26.99-10.57
					c25.78-10.38,51.73-20.37,77.95-29.59c12.72-4.47,25.59-8.62,38.82-11.31c13.33-2.72,26.89-4.04,40.48-4.65
					c27.74-1.23,55.6,0.04,83.34,0.59c6.91,0.14,13.82,0.27,20.73,0.41c5.41,0.11,5.41-8.3,0-8.4c-28.49-0.57-57.01-1.59-85.5-1.44
					c-27.65,0.15-55.11,2.56-81.67,10.6c-26.91,8.14-53.27,18.6-79.41,28.9c-6.24,2.46-12.43,5.09-18.7,7.47
					c-4.64,1.76-9.44,3.08-14.12,4.71c-4.72,1.65-9.6,3.49-13.7,6.42c-4.04,2.88-6.65,6.65-8.45,11.24
					c-1.81,4.59-2.64,9.49-3.42,14.34c-0.88,5.47-2,10.82-3.27,16.21c-3.25,13.86-6.58,27.71-9.97,41.53
					c-6.7,27.3-13.68,54.52-20.93,81.68c-14.6,54.67-30.31,109.03-47.13,163.06c-8.29,26.63-17.56,53.11-23.36,80.43
					c-5.83,27.5-6.07,55.39-7.85,83.32c-0.45,7.01-1.05,14-1.89,20.97c-0.28,2.27,2.13,4.18,4.2,4.2
					C488.55,1507.22,489.98,1505.24,490.25,1502.99L490.25,1502.99z"/>
			</g>
		</g>
		<g>
			<g>
				<path d="M639.38,1104.25c-1.97,3.58-1.53,7.32-0.94,11.18c0.5,3.34,1.01,6.67,1.54,10c1.05,6.69,2.17,13.36,3.48,20.01
					c2.56,13.04,5.82,25.99,10.66,38.39c2.83,7.25,6.15,14.3,10.11,21.01c1.12,1.89,3.83,2.74,5.75,1.51
					c1.9-1.23,2.71-3.72,1.51-5.75c-1.67-2.82-3.24-5.7-4.69-8.64c-0.68-1.37-1.33-2.75-1.96-4.13c-0.72-1.58-1.26-2.85-1.73-4
					c-2.45-5.99-4.52-12.14-6.3-18.36c-3.55-12.43-5.96-25.15-8.04-37.9c-0.59-3.62-1.15-7.25-1.71-10.88
					c-0.13-0.87-0.26-1.74-0.4-2.61c-0.07-0.43-0.13-0.87-0.2-1.3c-0.15-0.91,0.03,0.51-0.07-0.51c-0.08-0.82-0.11-1.63-0.11-2.46
					c-0.01-1.11-0.26,0.59,0.05-0.47c0.06-0.26,0.13-0.51,0.22-0.76c-0.17,0.39-0.15,0.37,0.08-0.08c1.06-1.93,0.53-4.67-1.51-5.75
					C643.16,1101.7,640.51,1102.19,639.38,1104.25L639.38,1104.25z"/>
			</g>
		</g>
		<g>
			<g>
				<path d="M592.83,1152.46c4.08,9.79,9.8,18.53,17.08,26.25c6.59,7,14.13,13,21.58,19.06c3.91,3.18,7.8,6.38,11.55,9.74
					c3.61,3.23,7.39,6.57,10.34,10.43c5.42,7.1,8.18,15.85,9.85,24.51c1.81,9.35,2.28,18.9,2.64,28.39
					c0.4,10.48,1.01,20.94,1.56,31.42c1.4,26.59,1.89,53.21,2.37,79.82c0.49,26.61,0.97,53.23,2.37,79.81
					c0.7,13.29,1.63,26.57,2.91,39.82c1.24,12.94,3.44,25.78,4.5,38.73c0.52,6.42,0.67,12.89,0,19.3
					c-0.46,4.39-1.49,8.85-1.63,13.34c-0.15,4.9,0.84,9.83,3.98,13.72c2.59,3.2,6.37,5.12,10.24,6.31
					c8.36,2.55,17.59,2.3,26.22,1.92c9.14-0.4,18.26-0.77,27.41-1.06c13.24-0.42,26.45-1.42,39.6-3c13-1.56,25.92-4.03,39.01-4.75
					c12.28-0.67,24.37,0.98,36.51,2.63c11.89,1.61,23.97,3.2,35.96,1.71c6.12-0.76,11.87-2.29,17.54-4.7
					c-1.92-1.92-3.83-3.83-5.75-5.75c-1.33,2.05-2.66,4.1-4,6.14c-2.96,4.55,4.31,8.76,7.26,4.24c1.33-2.05,2.66-4.1,4-6.14
					c1.01-1.55,0.61-3.82-0.66-5.09c-1.43-1.43-3.35-1.4-5.09-0.66c-10.71,4.54-22.62,4.64-34.02,3.65
					c-11.85-1.03-23.56-3.29-35.43-4.22c-12.84-1.01-25.5,0.39-38.2,2.19c-12.85,1.82-25.68,3.47-38.63,4.4
					c-11.22,0.81-22.45,0.74-33.67,1.34c-8.63,0.46-17.27,1.2-25.92,0.65c-3.68-0.23-7.28-0.7-10.83-1.92
					c-1.32-0.45-2.36-0.91-3.75-1.91c0.75,0.54-0.75-0.67-0.72-0.64c-0.29-0.28-0.59-0.59-0.83-0.91c-0.57-0.76-0.97-1.59-1.24-2.49
					c-1.21-3.94-0.51-8.31,0.1-12.3c0.81-5.33,1.38-10.61,1.37-16c-0.01-12.89-2.46-25.61-3.88-38.38
					c-1.44-12.94-2.5-25.93-3.32-38.92c-1.66-26.28-2.3-52.6-2.8-78.92c-0.5-26.18-0.86-52.37-1.96-78.54
					c-0.49-11.74-1.39-23.47-1.85-35.21c-0.36-9.31-0.54-18.63-1.51-27.9c-1.02-9.79-2.78-19.5-6.67-28.59
					c-3.79-8.86-9.9-15.61-16.98-22c-14.04-12.68-30.75-23.12-41.55-39.01c-2.72-4.01-5.12-8.29-6.98-12.77
					c-0.87-2.09-2.78-3.59-5.17-2.93C593.79,1147.84,591.95,1150.35,592.83,1152.46L592.83,1152.46z"/>
			</g>
		</g>
		<g>
			<g>
				<path d="M866.43,1399.19c-0.28-5.17-3.5-9.88-8.22-12.05c-5.18-2.38-10.83-1.85-15.81,0.81c-4.64,2.48-8.17,6.71-10.61,11.3
					c-2.35,4.42-4.42,9.43-5.26,14.39c-0.91,5.38-0.4,10.78,3.31,15.05c3.12,3.6,8.07,4.97,12.68,4.93
					c4.51-0.03,8.99-1.19,13.21-2.71c4.58-1.64,9.18-3.8,12.6-7.37c3.84-4,5.45-9.09,4.6-14.55c-0.76-4.86-4.12-9.18-8.94-10.49
					c-2.12-0.58-4.66,0.72-5.17,2.93c-0.5,2.21,0.66,4.55,2.93,5.17c0.19,0.05,0.37,0.11,0.56,0.16c0.18,0.05,0.45,0.27,0.03,0
					c-0.55-0.35,0.34,0.23,0.49,0.31c0.74,0.39-0.23-0.16-0.18-0.17c0.05-0.01,0.42,0.37,0.42,0.36c0.16,0.15,0.75,0.61,0.75,0.81
					c0,0.02-0.57-0.89-0.16-0.17c0.07,0.12,0.15,0.24,0.22,0.36c0.06,0.09,0.51,0.75,0.46,0.88c0,0-0.35-1-0.09-0.2
					c0.04,0.14,0.1,0.28,0.14,0.41c0.13,0.42,0.24,0.85,0.33,1.28c0.03,0.14,0.04,0.3,0.08,0.44c0.14,0.55,0.02-0.79-0.04-0.23
					c-0.04,0.33,0.05,0.71,0.05,1.05c0,0.35-0.02,0.7-0.04,1.05c-0.01,0.18-0.17,0.78-0.01,0.19c0.16-0.6-0.02,0.06-0.05,0.18
					c-0.08,0.34-0.16,0.68-0.26,1.02c-0.09,0.3-0.62,1.33-0.1,0.39c-0.17,0.3-0.3,0.62-0.48,0.92c-0.09,0.15-0.18,0.3-0.28,0.45
					c0.01-0.02-0.61,0.9-0.32,0.5c0.29-0.4-0.18,0.22-0.25,0.31c-0.12,0.14-0.24,0.28-0.37,0.42c-0.29,0.32-0.6,0.63-0.92,0.92
					c-0.32,0.3-0.65,0.57-0.98,0.86c0.55-0.48,0.09-0.06-0.04,0.03c-0.26,0.18-0.51,0.36-0.78,0.54c-0.74,0.49-1.51,0.94-2.29,1.35
					c-0.4,0.21-0.8,0.41-1.2,0.6c-0.17,0.08-1.48,0.65-0.76,0.36c-3.4,1.4-6.93,2.47-10.56,3.08c0.85-0.14-0.16,0.02-0.48,0.05
					c-0.41,0.04-0.82,0.07-1.23,0.09c-0.93,0.04-1.84,0.01-2.77-0.05c-0.09-0.01-0.67-0.06-0.11,0c0.58,0.07-0.13-0.03-0.27-0.05
					c-0.38-0.07-0.75-0.15-1.13-0.26c-0.36-0.1-0.72-0.27-1.08-0.35c-0.54-0.11,0.56,0.37,0.11,0.05c-0.2-0.15-0.5-0.25-0.71-0.37
					c-0.15-0.08-1.08-0.7-0.64-0.39c0.42,0.31-0.01-0.02-0.08-0.08c-0.16-0.15-0.32-0.29-0.48-0.45c-0.14-0.14-0.76-0.92-0.57-0.63
					c0.25,0.37-0.08-0.15-0.1-0.19c-0.14-0.25-0.29-0.56-0.45-0.8c-0.35-0.5,0.18,0.58-0.02,0c-0.06-0.17-0.13-0.34-0.18-0.51
					c-0.15-0.47-0.26-0.94-0.36-1.42c-0.17-0.8,0,0.47-0.04-0.35c-0.03-0.57-0.05-1.13-0.03-1.7c0.01-0.45,0.06-0.89,0.09-1.34
					c0.01-0.16,0.13-0.81,0-0.04c0.03-0.19,0.06-0.39,0.1-0.58c0.18-1.04,0.43-2.06,0.72-3.07c0.54-1.88,1.23-3.7,1.95-5.51
					c0.32-0.79,0.14-0.34,0.07-0.17c0.11-0.26,0.22-0.52,0.34-0.78c0.2-0.45,0.41-0.9,0.63-1.34c0.46-0.95,0.96-1.88,1.5-2.79
					c1.19-2,1.74-2.79,3.42-4.4c0.39-0.37,0.79-0.73,1.2-1.07c-0.52,0.43,0.59-0.41,0.77-0.53c0.5-0.33,1.02-0.63,1.56-0.91
					c0.18-0.09,0.36-0.18,0.54-0.27c1.11-0.55-0.38,0.12,0.28-0.12c0.56-0.2,1.12-0.39,1.7-0.53c0.19-0.05,0.38-0.09,0.58-0.13
					c0.18-0.04,1.04-0.1,0.25-0.06c0.53-0.03,1.05-0.07,1.58-0.06c0.26,0.01,0.53,0.04,0.79,0.05c-0.36-0.01-0.54-0.11-0.07,0
					c0.52,0.12,1.02,0.3,1.53,0.42c0.44,0.1-0.1-0.07-0.18-0.1c0.27,0.12,0.54,0.25,0.8,0.39c0.42,0.22,0.8,0.5,1.2,0.74
					c0.52,0.31-0.44-0.44-0.01-0.01c0.21,0.21,0.44,0.39,0.65,0.59c0.21,0.21,0.95,1.17,0.47,0.47c0.26,0.38,0.49,0.77,0.72,1.17
					c0.38,0.66,0.06,0.1,0-0.07c0.1,0.27,0.19,0.54,0.26,0.82c0.05,0.17,0.08,0.33,0.12,0.5c0.26,1.07-0.05-0.85,0.01,0.26
					c0.12,2.19,1.85,4.31,4.2,4.2C864.41,1403.3,866.56,1401.54,866.43,1399.19L866.43,1399.19z"/>
			</g>
		</g>
		<g>
			<g>
				<path d="M862.7,1283.1c-3.28-6.41-7.96-13.16-15.67-14.1c-8.34-1.01-15.77,6.79-18.75,13.83c-3.08,7.31-1.99,16.25,4.07,21.76
					c6.07,5.52,15.08,5.4,21.54,0.56c7.75-5.82,10.11-15.39,9.95-24.68c-0.04-2.2-1.91-4.3-4.2-4.2c-2.24,0.1-4.24,1.85-4.2,4.2
					c0.03,1.59-0.01,3.18-0.14,4.76c-0.03,0.34-0.07,0.69-0.1,1.03c-0.14,1.33,0.17-0.79-0.08,0.53c-0.17,0.88-0.33,1.76-0.55,2.62
					c-0.19,0.73-0.4,1.45-0.65,2.16c-0.01,0.04-0.49,1.29-0.17,0.52c-0.16,0.38-0.34,0.74-0.52,1.11c-0.31,0.61-0.64,1.2-1.01,1.78
					c-0.21,0.34-0.44,0.66-0.67,0.99c0.51-0.71-0.28,0.31-0.4,0.45c-0.46,0.51-0.95,0.99-1.47,1.44c-0.08,0.07-1.06,0.78-0.32,0.27
					c-0.31,0.21-0.61,0.43-0.93,0.63c-0.53,0.33-1.08,0.61-1.63,0.89c-1.03,0.53,0.75-0.19-0.36,0.14c-0.47,0.14-0.93,0.31-1.4,0.43
					c-0.24,0.06-0.47,0.1-0.71,0.16c-1.12,0.26,0.83,0.01-0.32,0.05c-0.73,0.02-1.44,0.03-2.17-0.02c0.84,0.06,0.24,0.04,0.04-0.01
					c-0.36-0.1-0.71-0.16-1.07-0.27c-0.15-0.05-1.21-0.49-0.31-0.08c-0.42-0.2-0.84-0.41-1.23-0.66c-0.2-0.12-0.39-0.26-0.58-0.38
					c-0.92-0.59,0.52,0.57-0.25-0.21c-0.5-0.5-1-0.98-1.46-1.52c0.54,0.64,0.04,0.04-0.08-0.14c-0.17-0.24-0.33-0.49-0.48-0.75
					c-0.18-0.31-0.35-0.62-0.51-0.94c-0.11-0.21-0.21-0.43-0.3-0.65c0.19,0.46,0.2,0.46,0.03,0.01c-0.17-0.57-0.36-1.13-0.5-1.71
					c-0.08-0.35-0.15-0.7-0.2-1.05c0.15,1.04,0.02-0.14,0.01-0.3c-0.03-0.65,0.01-1.29,0.04-1.94c0.05-1.23-0.2,0.75,0.06-0.44
					c0.11-0.51,0.21-1.03,0.35-1.53c0.18-0.63,0.39-1.26,0.63-1.87c-0.32,0.81,0.19-0.38,0.22-0.44c0.18-0.36,0.36-0.71,0.56-1.05
					c0.33-0.58,0.69-1.14,1.07-1.68c0.03-0.04,0.83-1.06,0.31-0.42c0.34-0.41,0.69-0.81,1.05-1.2c0.45-0.48,0.93-0.95,1.43-1.39
					c0.31-0.27,0.62-0.55,0.95-0.8c-0.63,0.47,0.49-0.31,0.5-0.31c0.57-0.37,1.18-0.73,1.81-0.99c-0.76,0.32,0.49-0.12,0.53-0.14
					c0.26-0.07,0.53-0.13,0.79-0.19c-0.44,0.05-0.41,0.05,0.1,0.01c0.34,0,0.68,0,1.02,0.01c1.01,0.02-0.77-0.24,0.19,0.04
					c0.31,0.09,0.63,0.18,0.94,0.26c0.44,0.16,0.41,0.14-0.1-0.07c0.2,0.09,0.39,0.19,0.58,0.29c0.24,0.13,0.48,0.27,0.71,0.41
					c0.18,0.11,1.14,0.84,0.37,0.21c0.62,0.51,1.21,1.06,1.75,1.64c0.16,0.17,0.32,0.35,0.47,0.52c0.11,0.13,1.02,1.3,0.46,0.54
					c0.5,0.68,0.98,1.38,1.43,2.1c0.83,1.31,1.57,2.68,2.28,4.06c1,1.96,3.91,2.69,5.75,1.51
					C863.2,1287.56,863.78,1285.2,862.7,1283.1L862.7,1283.1z"/>
			</g>
		</g>
		<g>
			<g>
				<path d="M859.29,1157.93c-2.62-8.71-11.34-13.4-20.04-13.41c-8.56-0.01-17.6,3.41-22.76,10.45c-5.12,6.99-4.52,17.15,2.3,22.79
					c7.43,6.13,17.32,5.4,25.65,1.58c4.2-1.93,8.06-4.94,10.5-8.92c2.55-4.16,3.48-9.76,1.58-14.35c-0.84-2.02-2.82-3.69-5.17-2.93
					c-1.95,0.63-3.83,2.99-2.93,5.17c0.3,0.73,0.52,1.47,0.68,2.24c-0.18-0.91,0.01,0.3,0.02,0.43c0.01,0.39-0.02,0.78-0.02,1.17
					c0,1.18,0.22-0.71-0.05,0.44c-0.09,0.39-0.17,0.77-0.27,1.15c-0.11,0.38-0.24,0.76-0.38,1.13c0.25-0.67-0.14,0.29-0.23,0.44
					c-0.36,0.7-0.78,1.38-1.26,2c0.52-0.67-0.3,0.31-0.34,0.36c-0.26,0.29-0.54,0.57-0.82,0.84c-0.28,0.27-0.58,0.52-0.87,0.79
					c-0.91,0.83,0.63-0.4-0.39,0.31c-0.65,0.45-1.31,0.89-1.99,1.29c-0.69,0.4-1.39,0.76-2.11,1.1c-0.02,0.01-1.21,0.52-0.49,0.22
					c-0.41,0.17-0.83,0.32-1.25,0.47c-0.84,0.3-1.7,0.55-2.57,0.77c-0.29,0.07-0.58,0.14-0.87,0.2c-0.29,0.06-0.58,0.12-0.88,0.16
					c-0.52,0.08-0.59,0.09-0.2,0.03c-0.88,0.1-1.77,0.14-2.65,0.12c-0.44-0.01-0.88-0.04-1.32-0.07c-1.31-0.1,0.65,0.21-0.64-0.1
					c-0.62-0.15-1.23-0.28-1.84-0.48c-0.11-0.04-1.24-0.47-0.36-0.1c-0.45-0.19-0.88-0.41-1.31-0.65c-0.32-0.18-0.63-0.37-0.94-0.57
					c-0.1-0.07-1.05-0.79-0.32-0.2c-0.56-0.46-1.09-0.95-1.57-1.49c-0.1-0.11-0.75-1.04-0.24-0.27c-0.13-0.2-0.27-0.39-0.4-0.6
					c-0.19-0.31-0.35-0.63-0.52-0.94c-0.2-0.44-0.21-0.43-0.01,0.01c-0.09-0.23-0.17-0.47-0.24-0.71c-0.11-0.37-0.19-0.74-0.28-1.12
					c-0.27-1.11-0.05,0.75-0.04-0.4c0-0.38-0.03-0.76-0.01-1.14c0-0.12,0.13-1.37-0.01-0.41c0.09-0.63,0.24-1.26,0.42-1.88
					c0.11-0.37,0.24-0.74,0.37-1.1c-0.3,0.79,0.31-0.61,0.39-0.76c0.18-0.34,0.38-0.68,0.59-1c0.04-0.06,0.78-1.1,0.25-0.41
					c0.48-0.62,1.03-1.19,1.6-1.73c0.19-0.18,0.39-0.35,0.59-0.53c0.91-0.84-0.63,0.4,0.39-0.32c0.76-0.53,1.53-1.03,2.34-1.47
					c0.35-0.19,0.7-0.37,1.06-0.54c0.06-0.03,1.26-0.53,0.46-0.21c0.62-0.24,1.25-0.47,1.88-0.67c0.76-0.24,1.53-0.45,2.31-0.62
					c0.42-0.1,0.83-0.18,1.25-0.26c0.29-0.05,0.58-0.1,0.87-0.15c-0.39,0.04-0.32,0.04,0.2-0.02c1.03-0.1,2.05-0.17,3.08-0.16
					c0.29,0,0.59,0.01,0.88,0.03c0.15,0.01,1.75,0.16,1.07,0.06c1.01,0.14,2.01,0.38,2.98,0.69c0.39,0.13,0.79,0.26,1.17,0.42
					c-0.88-0.36,0.51,0.28,0.66,0.36c0.65,0.35,1.27,0.75,1.86,1.19c-0.74-0.54,0.21,0.2,0.29,0.27c0.36,0.33,0.71,0.67,1.04,1.03
					c0.08,0.09,0.81,1.03,0.27,0.28c0.28,0.39,0.55,0.8,0.79,1.22c0.18,0.32,0.34,0.64,0.5,0.97c-0.4-0.86,0.15,0.52,0.21,0.71
					c0.63,2.1,2.97,3.64,5.17,2.93C858.48,1162.41,859.97,1160.19,859.29,1157.93L859.29,1157.93z"/>
			</g>
		</g>
		<g>
			<g>
				<path d="M904.11,1096.64c10.15,13.3,26.16,19.29,41.33,24.94c17.24,6.43,34.93,12.02,52.89,16.06
					c15.92,3.58,32.12,5.21,48.35,3.06c14.79-1.96,29.15-6.44,42.29-13.54c12.74-6.88,24.32-16.26,33.26-27.69
					c0.65-0.82,1.29-1.65,1.91-2.49c0.26-0.35,0.54-0.7,0.78-1.06c0.42-0.64,0.38,0-0.57,0.44c-0.15,0.07-1.78,0.23-0.81,0.36
					c2.19,0.29,4.29-2.14,4.2-4.2c-0.11-2.52-1.86-3.89-4.2-4.2c-1.25-0.17-2.68,0.27-3.7,0.99c-1.12,0.79-1.82,1.89-2.62,2.98
					c-0.26,0.35-0.53,0.7-0.79,1.05c-0.28,0.39,0.04-0.05,0.08-0.1c-0.15,0.2-0.31,0.4-0.46,0.59c-0.54,0.69-1.09,1.37-1.66,2.04
					c-2.28,2.73-4.71,5.34-7.27,7.8c-2.52,2.43-5.18,4.67-7.9,6.86c-0.51,0.41,0.48-0.36-0.04,0.03c-0.15,0.11-0.3,0.23-0.45,0.34
					c-0.35,0.26-0.7,0.52-1.05,0.78c-0.75,0.56-1.51,1.1-2.28,1.64c-1.43,1-2.89,1.97-4.37,2.9c-2.97,1.86-6.02,3.59-9.15,5.16
					c-1.57,0.79-3.15,1.54-4.76,2.26c-0.4,0.18-0.8,0.36-1.21,0.53c-0.22,0.09-1.29,0.54-0.56,0.24c-0.81,0.34-1.63,0.67-2.45,0.99
					c-6.63,2.58-13.49,4.56-20.47,5.92c-1.79,0.35-3.6,0.66-5.4,0.92c-0.37,0.05-0.75,0.11-1.12,0.16c0.83-0.11-0.3,0.04-0.57,0.07
					c-0.94,0.11-1.88,0.22-2.82,0.31c-3.51,0.34-7.03,0.53-10.56,0.56c-3.56,0.03-7.11-0.11-10.65-0.41
					c-4.66-0.4-8.34-0.93-12.98-1.78c-17.76-3.26-35.26-8.65-52.29-14.62c-4.33-1.52-8.64-3.1-12.92-4.75
					c-1.91-0.73-3.81-1.48-5.71-2.25c-0.43-0.18-0.87-0.35-1.3-0.53c-0.18-0.08-1.08-0.46-0.48-0.2c-0.92-0.39-1.85-0.8-2.76-1.21
					c-3.47-1.56-6.87-3.28-10.11-5.29c-1.57-0.97-3.1-2.01-4.57-3.13c0.52,0.4-0.23-0.19-0.39-0.31c-0.36-0.29-0.71-0.58-1.06-0.88
					c-0.74-0.64-1.47-1.3-2.17-1.99c-0.65-0.64-1.29-1.31-1.9-1.99c-0.26-0.29-0.52-0.59-0.77-0.9c-0.17-0.2-0.34-0.41-0.5-0.61
					c-0.07-0.09-0.48-0.63-0.08-0.09c-1.33-1.74-3.68-2.84-5.75-1.51C903.89,1092,902.68,1094.77,904.11,1096.64L904.11,1096.64z"/>
			</g>
		</g>
		<g>
			<g>
				<path d="M1111.45,934.15c20.44,26.5,27,59.87,28.77,92.59c0.92,17.1,0.63,34.22,0.29,51.33c-0.41,20.61-0.83,41.22-1.19,61.83
					c-0.72,40.86-1.2,81.72-0.88,122.59c0.32,40.8,1.44,81.6,3.93,122.32c2.5,40.86,6.42,81.64,12.23,122.16
					c0.71,4.95,1.45,9.9,2.22,14.85c0.35,2.26,3.16,3.46,5.17,2.93c2.4-0.63,3.28-2.94,2.93-5.17
					c-6.27-40.48-10.53-81.25-13.32-122.11c-2.8-40.89-4.15-81.87-4.64-122.85c-0.49-41.05-0.1-82.11,0.57-123.16
					c0.34-20.62,0.75-41.23,1.16-61.84c0.35-17.77,0.87-35.55,0.34-53.31c-0.98-33-5.57-67.43-23.16-96.08
					c-2.19-3.57-4.59-7.01-7.15-10.32c-1.4-1.81-3.6-2.73-5.75-1.51C1111.18,929.41,1110.07,932.35,1111.45,934.15L1111.45,934.15z"
					/>
			</g>
		</g>
		<g>
			<g>
				<path d="M1177.73,1153.48c-1.46,0.67-2.92,1.34-4.39,2.01c-1.9,0.87-2.46,3.49-1.72,5.25c0.87,2.06,2.85,2.77,4.96,2.43
					c1.19-0.19,1.29-0.2,2.41-0.32c1.02-0.11,2.05-0.2,3.07-0.26c1.97-0.12,3.95-0.15,5.92-0.09c1.98,0.06,3.95,0.21,5.91,0.43
					c1.52,0.17-0.75-0.13,0.76,0.1c0.47,0.07,0.94,0.14,1.4,0.22c1.09,0.18,2.18,0.4,3.26,0.64c2.14,0.47,4.65-0.64,5.17-2.93
					c0.48-2.12-0.64-4.67-2.93-5.17c-9-1.96-18.11-2.15-27.2-0.72c1.08,2.56,2.16,5.12,3.24,7.68c1.46-0.67,2.92-1.34,4.39-2.01
					c2-0.92,2.65-3.97,1.51-5.75C1182.15,1152.92,1179.88,1152.49,1177.73,1153.48L1177.73,1153.48z"/>
			</g>
		</g>
		<g>
			<g>
				<path d="M1174.27,1240.23c2.45-0.94,4.97-1.67,7.55-2.15c0.36-0.07,0.72-0.13,1.08-0.19c0.07-0.01,0.87-0.14,0.52-0.09
					c-0.42,0.06,0.65-0.08,0.74-0.09c0.29-0.03,0.58-0.06,0.87-0.08c1.38-0.12,2.76-0.18,4.15-0.17c1.31,0.01,2.62,0.07,3.93,0.2
					c0.29,0.03,0.58,0.06,0.87,0.09c0.3,0.04,0.29,0.03-0.03-0.01c0.14,0.02,0.29,0.04,0.43,0.06c0.65,0.1,1.29,0.21,1.94,0.34
					c2.65,0.52,5.23,1.3,7.74,2.29c2.05,0.81,4.7-0.89,5.17-2.93c0.55-2.42-0.74-4.3-2.93-5.17c-10.82-4.3-23.38-4.36-34.25-0.2
					c-2.05,0.78-3.68,2.86-2.93,5.17C1169.75,1239.29,1172.08,1241.07,1174.27,1240.23L1174.27,1240.23z"/>
			</g>
		</g>
		<g>
			<g>
				<path d="M1181.91,1364.96c8.1-1.25,16.2-2.49,24.31-3.74c2.18-0.34,3.58-3.18,2.93-5.17c-0.77-2.37-2.83-3.29-5.17-2.93
					c-8.1,1.25-16.2,2.49-24.31,3.74c-2.18,0.34-3.58,3.18-2.93,5.17C1177.51,1364.39,1179.57,1365.31,1181.91,1364.96
					L1181.91,1364.96z"/>
			</g>
		</g>
		<g>
			<g>
				<path d="M1272.8,1033.66c-1.6,63.73,14.39,126.13,19.19,189.41c4.89,64.52,1.11,129.27-3.53,193.68
					c-1.31,18.17-2.69,36.34-3.97,54.51c-1.27,17.99-2.56,35.86-0.96,53.88c0.47,5.34,8.88,5.39,8.4,0
					c-1.42-16.07-0.56-31.98,0.56-48.04c1.12-16.22,2.34-32.44,3.53-48.66c2.35-32.12,4.6-64.25,5.79-96.44
					c1.2-32.41,1.32-64.89-0.62-97.28c-1.91-31.8-6.45-63.27-11.03-94.78c-5.12-35.2-9.83-70.62-8.94-106.28
					C1281.34,1028.25,1272.94,1028.25,1272.8,1033.66L1272.8,1033.66z"/>
			</g>
		</g>
		<g>
			<g>
				<path d="M1297.65,1029.46c-2,5.67-2.54,11.74-2.88,17.71c-0.35,6.04-0.71,12.08-1.23,18.11c-1.07,12.3-2.52,23.69-4.55,35.74
					c-1.14,6.75-2.43,13.48-3.86,20.17c-0.46,2.14,0.63,4.64,2.93,5.17c2.11,0.48,4.68-0.64,5.17-2.93
					c5.15-24.11,8.43-48.63,9.77-73.24c0.17-3.17,0.33-6.33,0.69-9.49c0.02-0.14,0.13-1.1,0.05-0.49c0.06-0.46,0.13-0.91,0.21-1.37
					c0.12-0.76,0.27-1.51,0.43-2.26c0.35-1.65,0.81-3.28,1.38-4.87c0.73-2.08-0.83-4.69-2.93-5.17
					C1300.46,1025.99,1298.43,1027.24,1297.65,1029.46L1297.65,1029.46z"/>
			</g>
		</g>
		<g>
			<g>
				<path d="M1111.8,922.75c28.71,15.27,60.7,21.58,92.42,27.17c15.81,2.78,31.65,5.45,47.27,9.14c16.56,3.9,32.55,9.42,48.42,15.52
					c8.05,3.1,16,6.5,24.16,9.3c6.13,2.11,12.44,3.9,18.31,6.69c5.63,2.68,10.85,6.26,14.28,11.57c4.29,6.64,7.41,14.24,10.27,21.57
					c5.85,15,10.21,30.52,15.07,45.85c5.3,16.7,11.61,33.08,17.61,49.53c25.7,70.54,51.4,141.08,77.14,211.6
					c12.42,34.03,24.5,68.22,38.49,101.65c6.83,16.32,14.16,32.41,22.14,48.2c3.17,6.28,6.84,12.96,7.75,20.05
					c0.81,6.33-1.51,12.07-5.25,17.08c-4.72,6.33-10.62,11.97-16.07,17.66c-7.45,7.78-15.01,15.46-22.62,23.09
					c-14.9,14.94-29.9,29.87-45.63,43.93c-2.29,2.05-4.6,4.07-7,6c-4.22,3.38,1.76,9.3,5.94,5.94
					c14.65-11.76,27.93-25.47,41.28-38.64c14.95-14.75,29.89-29.6,44.06-45.11c7.33-8.02,14.45-16.93,13.83-28.45
					c-0.38-6.91-3.03-13.36-5.94-19.54c-3.78-8.04-7.95-15.88-11.73-23.92c-15.55-33.11-28.22-67.46-40.76-101.79
					c-26.06-71.32-52.06-142.67-78.05-214.01c-6.62-18.18-13.24-36.35-19.86-54.53c-5.6-15.36-10.19-31.01-15.19-46.58
					c-2.54-7.92-5.24-15.81-8.39-23.51c-2.87-7.02-5.86-14.39-10.09-20.73c-7.77-11.64-20.86-16.19-33.54-20.43
					c-16.25-5.42-31.94-12.41-48.15-17.98c-15.84-5.44-32.1-9.26-48.54-12.41c-32.12-6.15-64.98-10.09-95.82-21.5
					c-7.4-2.74-14.59-5.96-21.56-9.67C1111.27,912.96,1107.02,920.21,1111.8,922.75L1111.8,922.75z"/>
			</g>
		</g>
		<g>
			<g>
				<path d="M1301.87,1387.59c7.18,23.67,21.33,45.27,40.38,61.09c1.09,0.91,2.22,1.77,3.29,2.7c0.57,0.5,1.13,1.01,1.65,1.56
					c0.17,0.18,0.33,0.37,0.5,0.55c0.31,0.37,0.32,0.38,0.03,0.01c0.14,0.19,0.28,0.39,0.41,0.59c0.19,0.3,0.36,0.61,0.52,0.92
					c-0.09-0.17-0.22-0.76-0.04-0.04c0.06,0.22,0.18,1.25,0.12,0.23c0.02,0.35,0.05,0.72-0.01,1.07c0.11-0.74-0.1,0.13-0.16,0.3
					c-0.22,0.68,0.46-0.75-0.15,0.34c-0.46,0.81-0.94,1.6-1.45,2.38c-4.14,6.33-8.29,12.65-12.44,18.97
					c-8.2,12.51-16.4,25.02-24.61,37.53c-9.3,14.18-18.59,28.35-27.89,42.53c-1.21,1.84-0.43,4.73,1.51,5.75
					c2.1,1.11,4.46,0.46,5.75-1.51c16.77-25.57,33.54-51.15,50.31-76.72c4.15-6.32,8.29-12.65,12.44-18.97
					c2.08-3.17,4.6-6.31,5.04-10.19c0.4-3.6-1.34-6.83-3.69-9.42c-2-2.19-4.49-3.91-6.73-5.84c-2.34-2.01-4.61-4.11-6.79-6.3
					c-2.18-2.18-4.28-4.45-6.3-6.79c-2.2-2.56-3.6-4.33-5.36-6.72c-4.05-5.52-7.64-11.38-10.73-17.49
					c-0.79-1.56-1.54-3.13-2.26-4.72c-0.33-0.73-0.65-1.47-0.98-2.21c-0.53-1.21,0.3,0.75-0.2-0.48c-0.2-0.5-0.41-0.99-0.61-1.49
					c-1.29-3.24-2.44-6.54-3.46-9.88c-0.64-2.1-2.97-3.65-5.17-2.93C1302.68,1383.11,1301.18,1385.34,1301.87,1387.59
					L1301.87,1387.59z"/>
			</g>
		</g>
		<g>
			<g>
				<path d="M1439.24,1451.27c-0.31,1.03,0.14-0.57-0.01,0.06c-0.08,0.32-0.64,0.65-0.01,0.07c-0.16,0.15-0.31,0.31-0.47,0.45
					c0.14-0.13,0.68-0.41,0.04-0.07c-0.2,0.11-0.39,0.22-0.6,0.32c0.78-0.4,0.13-0.07-0.12,0c-0.28,0.08-0.56,0.14-0.84,0.2
					c0.56-0.12,0.41-0.04-0.08-0.03c-0.32,0.01-0.63,0-0.95-0.03c0.19,0.01,0.68,0.15-0.19-0.04c-0.65-0.14-1.29-0.31-1.92-0.52
					c-0.64-0.21-1.26-0.45-1.88-0.71c0.18,0.07,0.56,0.24-0.23-0.1c-0.41-0.18-0.82-0.35-1.23-0.53c-4.81-2.04-9.78-3.55-14.95-4.36
					c-10.2-1.6-20.69-1.01-30.58,2.01c-5.61,1.71-11.03,4.17-15.98,7.33c-1.85,1.18-2.77,3.79-1.51,5.75
					c1.19,1.85,3.77,2.77,5.75,1.51c2.16-1.38,4.39-2.62,6.7-3.71c0.61-0.29,1.22-0.56,1.84-0.83c-0.66,0.28,0.63-0.26,0.86-0.34
					c1.25-0.49,2.52-0.94,3.8-1.35c2.43-0.78,4.92-1.41,7.43-1.88c0.66-0.13,1.32-0.24,1.99-0.35c0.26-0.04,1.67-0.23,0.88-0.13
					c1.34-0.16,2.68-0.29,4.02-0.37c2.55-0.16,5.11-0.16,7.67-0.01c1.21,0.07,2.42,0.18,3.62,0.32c-0.06-0.01,1.25,0.16,0.64,0.08
					c-0.61-0.09,0.7,0.11,0.64,0.1c0.66,0.1,1.33,0.22,1.99,0.34c2.51,0.48,4.99,1.11,7.42,1.9c1.15,0.38,2.29,0.79,3.42,1.23
					c-0.1-0.04,1.13,0.46,0.64,0.26c-0.52-0.21,0.83,0.36,0.71,0.31c0.88,0.38,1.76,0.76,2.66,1.12c3.08,1.22,6.48,1.89,9.74,1
					c3.4-0.93,6.18-3.35,7.21-6.76c0.64-2.1-0.76-4.67-2.93-5.17C1442.14,1447.81,1439.92,1449.01,1439.24,1451.27L1439.24,1451.27z
					"/>
			</g>
		</g>
		<g>
			<g>
				<path d="M1405.42,1403.48c-19.52,4.93-36.51,18.91-45.56,36.84c-2.6,5.16-4.62,10.64-5.83,16.29c-0.46,2.14,0.64,4.64,2.93,5.17
					c2.12,0.48,4.67-0.64,5.17-2.93c0.51-2.36,1.14-4.69,1.92-6.97c0.35-1.03,0.72-2.04,1.12-3.05c0.09-0.22,0.18-0.45,0.27-0.67
					c0.43-1.08-0.23,0.49,0.07-0.16c0.27-0.6,0.54-1.21,0.82-1.81c2-4.26,4.48-8.27,7.3-12.03c0.09-0.13,0.5-0.62,0.01-0.01
					c0.15-0.19,0.3-0.38,0.45-0.57c0.38-0.47,0.76-0.94,1.15-1.4c0.78-0.92,1.58-1.82,2.41-2.7c1.61-1.71,3.31-3.35,5.09-4.89
					c0.87-0.75,1.75-1.48,2.65-2.19c-0.65,0.51,0.37-0.27,0.59-0.44c0.58-0.43,1.17-0.85,1.76-1.26c1.88-1.3,3.83-2.51,5.83-3.61
					c1.16-0.64,2.34-1.24,3.54-1.81c0.6-0.28,1.21-0.54,1.81-0.82c0.65-0.3-0.92,0.37,0.16-0.07c0.33-0.14,0.67-0.27,1.01-0.4
					c2.47-0.97,5-1.77,7.57-2.42c2.13-0.54,3.62-3.04,2.93-5.17C1409.87,1404.21,1407.7,1402.9,1405.42,1403.48L1405.42,1403.48z"/>
			</g>
		</g>
		<g>
			<g>
				<path d="M483.1,1494.98c-1.8,15.83-2.81,31.74-3.04,47.67c0.69-1.21,1.39-2.42,2.08-3.63c-2.86,1.71-2.36,6.28-2.47,9.17
					c-0.18,4.66-0.29,9.32-0.4,13.98c-0.25,10.81-0.44,21.63-0.62,32.44c-0.03,1.82-0.06,3.64-0.09,5.46
					c-0.01,0.52-0.02,1.04-0.03,1.55c-0.02,0.82-0.3,0.72,0.14-0.54c2.7,0,5.4,0,8.1,0c0.05,0.37,0.1,0.74,0.15,1.11
					c-0.13-2.19-1.84-4.31-4.2-4.2c-2.17,0.1-4.34,1.85-4.2,4.2c0,0.04,0.14,1.08,0.15,1.12c0.29,1.73,2.35,3.16,4.05,3.08
					c1.94-0.09,3.42-1.26,4.05-3.08c0.35-1.02,0.18-2.5,0.2-3.56c0.04-2.19,0.07-4.39,0.11-6.58c0.11-6.76,0.23-13.52,0.36-20.28
					c0.13-6.81,0.28-13.61,0.48-20.42c0.07-2.29,0.14-4.57,0.26-6.85c0.03-0.69,0.07-1.39,0.13-2.08c0.05-0.56,0.33-1.19-0.08,0.5
					c0.01-0.06,0.01-0.12,0.03-0.18c0.01-0.02,0.01-0.04,0.01-0.05c0.12-0.35-0.02-0.03-0.41,0.96c-1.8,1.68-2.02,1.95-0.64,0.83
					c1.81-1.81,1.26-5.04,1.31-7.4c0.05-2.13,0.11-4.27,0.19-6.4c0.15-4.1,0.35-8.2,0.61-12.3c0.51-8.2,1.23-16.38,2.16-24.54
					c0.25-2.19-2.11-4.3-4.2-4.2C484.81,1490.89,483.36,1492.63,483.1,1494.98L483.1,1494.98z"/>
			</g>
		</g>
		<g>
			<g>
				<path d="M542.22,1542.12c3.17-1.93,5.29-2.79,8.8-3.83c3.25-0.97,6.58-1.64,9.92-2.22c7.49-1.29,14.03-2.27,21.55-2.85
					c3.65-0.28,7.32-0.43,10.98-0.38c1.74,0.03,3.49,0.1,5.23,0.23c2.08,0.15,3.82,0.34,5.5,0.6c3.48,0.55,6.91,1.37,10.27,2.41
					c1.64,0.51,3.27,1.08,4.88,1.68c1.91,0.72,2.99,1.17,4.6,1.89c7.3,3.24,14.25,7.2,21.18,11.15c1.91,1.09,4.68,0.51,5.75-1.51
					c1.05-2,0.53-4.59-1.51-5.75c-12.91-7.37-26.26-14.92-41.05-17.66c-15.71-2.91-31.65-0.84-47.26,1.68
					c-8,1.29-16.07,3.03-23.08,7.29c-1.88,1.14-2.75,3.82-1.51,5.75C537.68,1542.49,540.21,1543.34,542.22,1542.12L542.22,1542.12z"
					/>
			</g>
		</g>
	</g>
</g>
</svg>
