<?xml version="1.0" encoding="utf-8"?>
<!-- Generator: Adobe Illustrator 26.3.1, SVG Export Plug-In . SVG Version: 6.00 Build 0)  -->
<svg version="1.1" xmlns="http://www.w3.org/2000/svg" xmlns:xlink="http://www.w3.org/1999/xlink" x="0px" y="0px"
	 viewBox="0 0 1984.25 1984.25" style="enable-background:new 0 0 1984.25 1984.25;" xml:space="preserve">
<style type="text/css">
	.st0{fill:#FFFFFF;}
	.st1{fill:#1B1439;}
	.st2{fill:#F5F0E2;}
	.st3{fill:#ED1E78;}
	.st4{fill:#FE3922;stroke:#000000;stroke-width:6.2938;stroke-miterlimit:10;}
	.st5{fill:#29597E;}
	.st6{fill:#D95F86;}
	.st7{fill:#D95F86;stroke:#000000;stroke-width:4.6468;stroke-miterlimit:10;}
	.st8{fill:none;stroke:#000000;stroke-width:9.3644;stroke-miterlimit:10;}
	.st9{fill:#ED1E78;stroke:#000000;stroke-width:9.3644;stroke-miterlimit:10;}
	.st10{fill:#FBAE16;stroke:#020202;stroke-width:9.3644;stroke-miterlimit:10;}
	.st11{fill:#F5F0E2;stroke:#000000;stroke-width:9.3644;stroke-miterlimit:10;}
	.st12{fill:#29597E;stroke:#000000;stroke-width:2.8238;stroke-miterlimit:10;}
	.st13{fill:#F9E819;}
	.st14{fill:#FBAE16;}
	.st15{fill:#020202;}
	.st16{fill:#FBAE16;stroke:#020202;stroke-width:4.8212;stroke-miterlimit:10;}
	.st17{fill:#ED1E78;stroke:#000000;stroke-width:4.8212;stroke-miterlimit:10;}
	.st18{fill:#FE3922;stroke:#000000;stroke-width:4.8212;stroke-miterlimit:10;}
	.st19{fill:none;stroke:#000000;stroke-width:4.8212;stroke-miterlimit:10;}
</style>
<g id="Layer_1">
</g>
<g id="Layer_3">
</g>
<g id="Layer_4">
</g>
<g id="Layer_5">
</g>
<g id="Layer_6">
</g>
<g id="Layer_7">
</g>
<g id="Layer_8">
</g>
<g id="Layer_2">
	<g>
		<circle class="st4" cx="893.72" cy="974.75" r="72.38"/>
		<g>
			<g>
				<path d="M890.07,1015.83c-0.06,0.39,0.21,0.11,0.34-0.11c-0.08,0.14-0.11,0.1-0.1,0.06c0.01-0.11-0.2-0.01-0.07-0.01
					c0.27,0.01-0.72-0.05-0.34-0.01c-0.37-0.04-0.75-0.16-1.1-0.28c-1.41-0.5-2.73-1.81-3.92-2.81c-3.43-2.86-6.74-5.88-9.92-9.02
					c-6.26-6.2-12.02-12.92-17.14-20.09c-4.56-6.4-10.2-14.65-8.49-22.91c1.18-5.66,5.93-10.04,11.37-11.74
					c2.74-0.86,5.66-1.1,8.42-0.42c3.22,0.8,5.91,2.8,8.04,5.32c2.33,2.76,3.79,6.25,4.59,9.74c0.43,1.9,0.47,3.96,1.69,5.58
					c1.38,1.83,3.66,2.27,5.8,1.71c2.02-0.53,3.84-1.78,5.62-2.81c1.87-1.08,3.74-2.16,5.67-3.14c3.49-1.77,7.37-3.32,11.35-3.28
					c6.22,0.05,13.06,4.22,11.66,11.27c-0.88,4.42-3.59,8.4-5.9,12.19c-2.3,3.77-4.73,7.46-7.28,11.07
					c-5.12,7.22-10.77,14.07-16.87,20.49c-1.52,1.6-3.07,3.17-4.65,4.72c-2.17,2.13,1.17,5.47,3.34,3.34
					c6.92-6.81,13.29-14.13,19.13-21.88c2.92-3.88,5.69-7.88,8.3-11.97c2.62-4.1,5.35-8.31,7.23-12.81c1.81-4.34,2.37-9.3-0.12-13.5
					c-1.93-3.27-5.25-5.47-8.8-6.65c-8.8-2.92-17.38,1.44-24.87,5.76c-1,0.57-1.99,1.15-2.99,1.72c-0.64,0.36-1.72,1.13-2.51,1.02
					c-0.5-0.07-0.49-0.3-0.63-0.85c-0.26-1.06-0.37-2.16-0.61-3.23c-0.94-4.15-2.79-8.07-5.45-11.39
					c-4.89-6.11-12.49-8.73-20.08-6.91c-6.84,1.64-12.9,6.58-15.36,13.23c-3.3,8.94,1.41,18.52,6.33,25.84
					c5.34,7.94,11.49,15.38,18.18,22.21c3.39,3.45,6.93,6.76,10.62,9.89c2.97,2.52,6.37,5.97,10.66,5.21
					c1.7-0.3,3.15-1.53,3.44-3.29c0.21-1.26-0.33-2.54-1.65-2.9C891.85,1013.87,890.28,1014.56,890.07,1015.83L890.07,1015.83z"/>
			</g>
		</g>
	</g>
	<g>
		<circle class="st4" cx="872.28" cy="656.36" r="72.38"/>
		<g>
			<g>
				<path d="M833.83,669.3c-1.79,12.5,5.6,24.26,16.2,30.47c12.08,7.08,27.17,5.79,39.75,0.78c3.6-1.43,7.33-3.04,10.57-5.19
					c1.77-1.17,3.27-2.94,2.87-5.2c-0.33-1.86-1.97-3.62-3.99-3.36c-1.26,0.16-2.36,0.97-2.36,2.36c0,1.15,1.09,2.52,2.36,2.36
					c-0.04,0-0.84-0.55-0.61-0.41c-0.81-0.48,0.29-0.33-0.11-0.23c-0.36,0.08-0.85,0.6-1.19,0.81c-1.36,0.8-2.77,1.54-4.19,2.25
					c-2.68,1.33-5.43,2.47-8.27,3.4c-5.65,1.86-11.56,2.9-17.52,2.61c-10.23-0.49-19.94-5.54-25.4-14.37
					c-2.75-4.45-4.3-9.77-3.55-15.02c0.18-1.26-0.31-2.54-1.65-2.9C835.63,667.35,834.02,668.03,833.83,669.3L833.83,669.3z"/>
			</g>
		</g>
		<g>
			<g>
				<path d="M850.36,631.49c-3.19,3.51-4.44,8.56-3.09,13.14c0.28,0.96,1.23,1.78,2.28,1.73c1.07-0.05,1.95-0.71,2.28-1.73
					c0.99-3.1,1.98-6.2,2.96-9.31c0.37-1.18-0.44-2.63-1.65-2.9c-1.29-0.29-2.5,0.39-2.9,1.65c-0.99,3.1-1.98,6.2-2.96,9.31
					c1.52,0,3.03,0,4.55,0c-0.13-0.43-0.22-0.86-0.31-1.29c-0.06-0.31,0.01,0,0.01,0.14c0-0.13-0.03-0.28-0.04-0.41
					c-0.02-0.22-0.03-0.44-0.04-0.66c-0.01-0.44,0-0.89,0.04-1.33c0.01-0.11,0.02-0.22,0.03-0.33c0.03-0.33-0.08,0.46-0.01,0.13
					c0.05-0.24,0.09-0.49,0.14-0.73c0.1-0.43,0.22-0.86,0.37-1.28c0.04-0.1,0.08-0.21,0.11-0.31c0.11-0.3,0.04,0-0.05,0.1
					c0.13-0.15,0.19-0.42,0.28-0.6c0.21-0.42,0.45-0.83,0.72-1.21c0.06-0.09,0.13-0.18,0.19-0.27c0.17-0.27-0.27,0.33-0.07,0.08
					c0.16-0.19,0.32-0.38,0.49-0.57c0.83-0.91,0.97-2.45,0-3.34C852.79,630.66,851.25,630.51,850.36,631.49L850.36,631.49z"/>
			</g>
		</g>
		<g>
			<g>
				<path d="M908.88,649.8c0.76-1.04,1.51-2.08,2.27-3.13c0.73-1,0.2-2.67-0.85-3.23c-1.23-0.65-2.45-0.22-3.23,0.85
					c-2.96,4.02-4.37,9.24-3.87,14.2c0.18,1.81,1.85,2.9,3.55,2.04c3.43-1.75,5.21-6.14,4.01-9.78c-0.39-1.17-1.65-2.05-2.9-1.65
					c-1.17,0.38-2.06,1.65-1.65,2.9c0.06,0.17,0.11,0.33,0.15,0.5c0.02,0.08,0.12,0.57,0.05,0.2c-0.07-0.37,0,0.12,0.01,0.2
					c0.01,0.17,0.01,0.35,0,0.52c0,0.08-0.07,0.58-0.01,0.21c0.06-0.37-0.03,0.13-0.05,0.2c-0.04,0.17-0.08,0.34-0.14,0.51
					c-0.02,0.07-0.17,0.55-0.06,0.21c0.11-0.33-0.08,0.16-0.1,0.2c-0.07,0.13-0.14,0.26-0.21,0.38c-0.08,0.12-0.16,0.24-0.24,0.37
					c-0.31,0.46,0.33-0.33-0.06,0.07c-0.21,0.21-0.41,0.4-0.63,0.6c0.41-0.38,0.03-0.04-0.09,0.04c-0.15,0.09-0.3,0.17-0.46,0.25
					c1.18,0.68,2.37,1.36,3.55,2.04c-0.25-2.49-0.12-4.02,0.47-6.21c0.59-2.17,1.29-3.62,2.75-5.61c-1.36-0.79-2.72-1.59-4.08-2.38
					c-0.76,1.04-1.51,2.08-2.27,3.13c-0.73,1-0.2,2.67,0.85,3.23C906.87,651.29,908.1,650.87,908.88,649.8L908.88,649.8z"/>
			</g>
		</g>
	</g>
	<g>
		<circle class="st4" cx="586.57" cy="553.22" r="72.38"/>
		<g>
			<g>
				<path d="M564.63,547.74c-1.94-3.82-3.59-7.76-4.9-11.84c-1.1-3.4-2.34-7.05-2.14-10.67c0.15-2.75,1.94-5.23,4.93-5
					c2.73,0.21,4.36,3.01,3.64,5.56c-0.55,1.96,1.7,3.74,3.47,2.67c3.31-2.02,6.94-3.62,10.75-4.43c0.97-0.21,2.43-0.47,3.31,0.12
					c1.03,0.69,0.01,2.29-0.47,3.04c-1.04,1.6-2.49,2.98-3.79,4.37c-1.36,1.46-2.76,2.89-4.19,4.28c-1.43,1.4-2.88,2.77-4.36,4.1
					c-0.8,0.72-1.6,1.43-2.42,2.13c-0.35,0.3-0.7,0.6-1.05,0.9c-0.23,0.2-0.47,0.4-0.71,0.59c-0.83,0.55-0.38,0.72,1.37,0.5
					c0.23,0.56,0.46,1.11,0.69,1.67c0-0.04,0-0.08,0-0.12c-0.23,0.56-0.46,1.11-0.69,1.67c0.05-0.04,0.09-0.08,0.14-0.12
					c2.29-2.01-1.06-5.33-3.34-3.34c-2.05,1.79-0.08,4.51,2.19,4.52c2.11,0.01,3.96-2.25,5.43-3.54c3.36-2.93,6.57-6.02,9.64-9.25
					c2.73-2.88,6.7-6.33,6.71-10.64c0.01-4.39-4.35-6.17-8.1-5.71c-4.73,0.58-9.46,2.71-13.5,5.17c1.16,0.89,2.31,1.78,3.47,2.67
					c0.95-3.38-0.15-7.27-2.9-9.52c-2.85-2.34-6.89-2.62-10.12-0.88c-7.33,3.94-4.63,13.85-2.66,20.07
					c1.46,4.61,3.33,9.1,5.52,13.41C561.93,552.83,566,550.45,564.63,547.74L564.63,547.74z"/>
			</g>
		</g>
		<g>
			<g>
				<path d="M612.98,559.09c-1.81-6.21-2.37-12.67-1.66-19.11c0.17-1.56,0.45-3.1,0.79-4.63c0.23-1.03,0.46-2.64,1.39-3.33
					c0.2-0.15,0.53-0.3,0.76-0.25c-0.09-0.02,0.02-0.05,0.14,0.25c0.22,0.57,0.42,1.73,0.6,2.56c0.56,2.64,2.22,4.87,5.13,5
					c2.98,0.14,5.6-2.11,8.58-1.76c0.84,0.1,1.87,0.53,2.17,1.37c0.39,1.11-0.5,2.47-1.07,3.34c-1.23,1.87-2.98,3.4-4.78,4.69
					c-4.58,3.3-9.86,5.76-13.58,10.13c-0.82,0.97-0.95,2.39,0,3.34c0.85,0.85,2.51,0.98,3.34,0c3.72-4.38,9.11-6.69,13.6-10.12
					c4.3-3.29,11.01-10.87,4.91-15.75c-3.06-2.44-6.92-1.82-10.35-0.63c-0.73,0.25-1.53,0.63-2.32,0.69
					c-0.33,0.03-0.73-0.21-0.57-0.05c-0.54-0.56-0.59-2.03-0.78-2.93c-0.65-3.02-2.98-5.46-6.29-4.72c-3.61,0.81-4.9,4.37-5.57,7.59
					c-1.76,8.46-1.4,17.27,1.02,25.57C609.28,563.26,613.84,562.02,612.98,559.09L612.98,559.09z"/>
			</g>
		</g>
		<g>
			<g>
				<path d="M547.46,569.39c-0.01-0.71-0.03-1.43-0.04-2.14c-1.55,0.21-3.09,0.42-4.64,0.63c2.22,5.28,4.51,10.53,8.06,15.07
					c3.33,4.26,7.7,7.35,12.71,9.33c10.3,4.07,21.91,2.67,32.05-1.13c6.38-2.4,12.4-5.61,18.3-8.98c2.64-1.5,0.26-5.58-2.38-4.08
					c-9.31,5.31-19.31,10.7-30.17,11.75c-9.22,0.89-19.11-1.29-25.58-8.32c-3.89-4.22-6.25-9.67-8.45-14.9
					c-0.46-1.08-1.33-1.88-2.59-1.69c-1.13,0.17-2.07,1.12-2.05,2.32c0.01,0.71,0.03,1.43,0.04,2.14
					C542.8,572.42,547.52,572.43,547.46,569.39L547.46,569.39z"/>
			</g>
		</g>
	</g>
	<g>
		<circle class="st4" cx="363.84" cy="747.09" r="72.38"/>
		<g>
			<g>
				<path d="M338.4,717.09c-1.75,6.47-1.61,13.39,0.46,19.77c0.82,2.53,4.54,2.08,4.64-0.63c0.23-6.27-0.06-12.55-0.87-18.78
					c-0.15-1.17-0.78-2.17-2.05-2.32c-1.07-0.13-2.38,0.52-2.59,1.69c-0.17,0.95-0.35,1.91-0.52,2.86c-0.23,1.25,0.34,2.54,1.65,2.9
					c1.15,0.31,2.67-0.39,2.9-1.65c0.17-0.95,0.35-1.91,0.52-2.86c-1.55-0.21-3.09-0.42-4.64-0.63c0.8,6.23,1.09,12.51,0.87,18.78
					c1.55-0.21,3.09-0.42,4.64-0.63c-1.82-5.61-2-11.57-0.46-17.26C343.75,715.41,339.19,714.15,338.4,717.09L338.4,717.09z"/>
			</g>
		</g>
		<g>
			<g>
				<path d="M378.85,719.77c-1.22,5.68-1.22,11.49,0,17.17c0.42,1.96,3.39,2.33,4.31,0.56c2.59-4.93,2.53-10.93-0.23-15.79
					c-0.63-1.11-2.14-1.48-3.23-0.85c-1.11,0.65-1.48,2.12-0.85,3.23c0.98,1.72,1.47,3.58,1.5,5.48c0.02,1.18-0.05,1.82-0.27,2.78
					c-0.11,0.5-0.25,0.98-0.42,1.46c-0.17,0.49-0.26,0.69-0.58,1.3c1.44,0.19,2.88,0.38,4.31,0.56c-1.03-4.78-1.03-9.87,0-14.66
					c0.27-1.24-0.37-2.55-1.65-2.9C380.57,717.8,379.11,718.52,378.85,719.77L378.85,719.77z"/>
			</g>
		</g>
		<g>
			<g>
				<path d="M334.12,761.27c0.12-2.29-2.25-4.11-4.43-3.36c-2.26,0.78-2.22,3.75,0,4.55c20.77,7.48,43.28,2.92,63.62-3.66
					c2.95-0.96,5.89-1.96,8.83-2.97c1.5-0.52,3.01-1.04,4.51-1.57c0.68-0.24,1.35-0.48,2.03-0.71c0.18-0.06,0.71-0.13,0.83-0.25
					c0.02-0.02-0.21-0.04-0.14,0.01c-0.28-0.28-0.56-0.56-0.85-0.85c0-0.15-0.01-0.3-0.01-0.45c-0.07,0.25-0.15,0.5-0.23,0.75
					c-0.12,0.37-0.25,0.73-0.38,1.09c-0.26,0.73-0.53,1.45-0.82,2.16c-0.59,1.48-1.27,2.92-2,4.34c-1.43,2.8-3.09,5.48-4.94,8.02
					c-3.64,4.99-8.16,9.46-13.21,13.02c-5.4,3.8-11.92,7.54-18.73,7.26c-6.73-0.28-13.15-4.64-18.25-8.71
					c-5.94-4.73-11.05-10.43-15.07-16.87c-1.6-2.57-5.69-0.2-4.08,2.38c3.34,5.35,7.38,10.29,12.01,14.57
					c4.65,4.3,9.98,8.31,15.79,10.89c3.05,1.36,6.24,2.31,9.59,2.45c3.46,0.15,6.95-0.64,10.15-1.9c5.63-2.21,10.78-5.55,15.4-9.43
					c4.48-3.76,8.4-8.18,11.68-13.02c1.62-2.39,3.07-4.9,4.32-7.5c1.26-2.6,2.62-5.43,3.31-8.26c0.44-1.82-0.21-3.77-2.09-4.43
					c-1.45-0.51-2.84-0.08-4.23,0.4c-3.46,1.21-6.91,2.42-10.38,3.59c-6.63,2.23-13.31,4.32-20.13,5.91
					c-14.87,3.48-30.71,4.43-45.29-0.83c0,1.52,0,3.03,0,4.55c-0.51-0.4-1.03-0.79-1.54-1.19
					C329.24,764.3,333.96,764.3,334.12,761.27L334.12,761.27z"/>
			</g>
		</g>
	</g>
	<g>
		<circle class="st4" cx="1630.25" cy="1088.13" r="72.38"/>
		<g>
			<g>
				<path d="M1599.04,1131.7c13.88-16.45,37.06-24.07,58.06-19.58c3.02,0.65,5.99,1.53,8.87,2.66c3.44,1.35,6.87,3.16,10.49,1.25
					c2.69-1.42,0.3-5.5-2.38-4.08c-1.18,0.62-2.71-0.04-3.85-0.49c-1.4-0.54-2.77-1.17-4.18-1.69c-2.57-0.94-5.2-1.69-7.88-2.26
					c-5.49-1.16-11.15-1.59-16.76-1.28c-11.11,0.63-22.09,3.99-31.54,9.89c-5.31,3.32-10.14,7.43-14.18,12.21
					c-0.82,0.97-0.95,2.38,0,3.34C1596.54,1132.54,1598.21,1132.68,1599.04,1131.7L1599.04,1131.7z"/>
			</g>
		</g>
		<g>
			<g>
				<path d="M1666.85,1044.9c-5.29,6.35-10.58,12.7-15.87,19.06c-1.32,1.59-2.65,3.17-3.97,4.76c-1.24,1.49-2.44,3.06-2.43,5.1
					c0.03,3.49,3.41,5.36,6.31,6.32c4.46,1.48,8.95,2.84,13.43,4.26c2.9,0.92,4.14-3.64,1.25-4.55c-4.42-1.4-8.87-2.76-13.27-4.21
					c-0.8-0.26-2.68-0.81-2.96-1.69c-0.16-0.49,0.29-0.99,0.59-1.4c0.72-0.96,1.55-1.86,2.31-2.78
					c5.98-7.18,11.96-14.36,17.94-21.53c0.82-0.98,0.96-2.38,0-3.34C1669.35,1044.07,1667.67,1043.92,1666.85,1044.9L1666.85,1044.9
					z"/>
			</g>
		</g>
		<g>
			<g>
				<path d="M1597.46,1063.5c8.14-0.5,16.2,1.35,23.26,5.44c-0.28-1.08-0.56-2.15-0.85-3.23c-4.33,7.37-9.63,14.07-15.81,19.98
					c-2.2,2.1,1.14,5.44,3.34,3.34c6.45-6.17,12.03-13.23,16.55-20.93c0.64-1.1,0.26-2.59-0.85-3.23
					c-7.74-4.48-16.71-6.64-25.64-6.09C1594.44,1058.96,1594.42,1063.69,1597.46,1063.5L1597.46,1063.5z"/>
			</g>
		</g>
	</g>
	<g>
		<circle class="st4" cx="1266.49" cy="671.43" r="72.38"/>
		<g>
			<g>
				<path d="M1254.89,623.84c-2.11,6.61-6.12,12.46-11.32,17.03c-2.57,2.26-5.46,4.15-8.53,5.67c-1.5,0.74-3.04,1.36-4.63,1.88
					c-0.8,0.26-1.61,0.5-2.43,0.71c-0.48,0.12-1.79,0.6-2.12,0.5c0.35,0.2,0.69,0.4,1.04,0.61c-0.07-0.06-0.14-0.13-0.21-0.19
					c0.2,0.35,0.4,0.69,0.61,1.04c-0.01-0.07-0.02-0.14-0.04-0.21c-0.08,0.61-0.16,1.21-0.24,1.82c0.04-0.06,0.07-0.13,0.1-0.19
					c-0.28,0.28-0.56,0.56-0.85,0.85c0.06-0.04,0.12-0.09,0.18-0.13c-0.4,0.11-0.79,0.21-1.19,0.32c0.06-0.01,0.12-0.01,0.18-0.02
					c-0.56-0.23-1.11-0.46-1.67-0.69c0.04,0.05,0.08,0.09,0.12,0.14c0.82,0.98,2.49,0.84,3.34,0c0.97-0.97,0.82-2.36,0-3.34
					c-1.79-2.15-5.15,0.14-4.5,2.61c0.67,2.57,3.49,2.14,5.45,1.7c3.49-0.78,6.88-2.08,10.05-3.73c6.36-3.32,11.84-8.27,15.9-14.17
					c2.31-3.35,4.08-7.06,5.32-10.93C1260.37,622.2,1255.81,620.96,1254.89,623.84L1254.89,623.84z"/>
			</g>
		</g>
		<g>
			<g>
				<path d="M1284.33,625.37c-0.02,12.05,9.23,23.42,21.14,25.6c1.25,0.23,2.54-0.34,2.9-1.65c0.32-1.15-0.39-2.67-1.65-2.9
					c-9.89-1.82-17.69-10.94-17.67-21.05C1289.05,622.33,1284.33,622.33,1284.33,625.37L1284.33,625.37z"/>
			</g>
		</g>
		<g>
			<g>
				<path d="M1287.82,656.88c-4.33,4.32-8.67,8.63-13,12.95c-0.6,0.59-0.83,1.49-0.61,2.3c0.24,0.87,0.86,1.32,1.65,1.65
					c3.82,1.61,7.8,2.75,11.89,3.39c1.26,0.2,2.54-0.32,2.9-1.65c0.31-1.12-0.38-2.7-1.65-2.9c-4.09-0.65-8.08-1.78-11.89-3.39
					c0.35,1.31,0.69,2.63,1.04,3.94c4.33-4.32,8.67-8.63,13-12.95C1293.31,658.07,1289.98,654.74,1287.82,656.88L1287.82,656.88z"/>
			</g>
		</g>
		<g>
			<g>
				<path d="M1247.55,661.94c1.85,1.22,3.7,2.44,5.55,3.66c0.47,0.31,0.95,0.62,1.42,0.94c0.21,0.14,0.41,0.27,0.62,0.41
					c0.08,0.06,0.43,0.34,0.2,0.15c0.18,0.19,0.23,0.23,0.12,0.12c-0.14-0.13-0.2-0.3-0.17-0.52c0.01-0.04,0.02-0.08,0.03-0.13
					c-0.08,0.26-0.1,0.33-0.06,0.21c-0.12,0.25-0.39,0.6-0.53,0.77c-0.57,0.66-1.16,1.3-1.8,1.9c-0.7,0.65-1.12,0.98-1.76,1.43
					c-0.75,0.52-1.54,0.99-2.36,1.41c-0.37,0.19-0.75,0.37-1.13,0.53c0.32-0.13-0.37,0.14-0.36,0.14c-0.23,0.09-0.47,0.17-0.71,0.25
					c-1.21,0.41-2,1.62-1.65,2.9c0.32,1.18,1.69,2.06,2.9,1.65c4.36-1.48,8.61-4.28,11.2-8.16c0.91-1.36,1.25-3.07,0.52-4.58
					c-0.61-1.26-1.82-1.97-2.95-2.71c-2.24-1.48-4.47-2.95-6.71-4.43c-1.06-0.7-2.61-0.21-3.23,0.85
					C1246.03,659.86,1246.49,661.23,1247.55,661.94L1247.55,661.94z"/>
			</g>
		</g>
		<g>
			<g>
				<path d="M1237.72,704.19c1.57-3.37,5.51-5.36,9.13-4.53c2.2,0.5,3.71,2.07,5.41,3.45c2.23,1.81,4.69,3.16,7.65,2.99
					c2.97-0.17,5.69-1.51,8.24-2.93c1.36-0.76,2.72-1.53,4.08-2.29c1.36-0.76,2.74-1.72,4.19-2.3c1.02-0.41,1.35-0.37,2,0.45
					c0.78,0.97,1.37,2.05,2.31,2.88c1.94,1.69,4.54,2.31,7.07,2.1c2.97-0.25,5.59-1.33,8.29-2.51c2.47-1.09,5.83-2.62,8.51-1.38
					c1.16,0.54,2.54,0.33,3.23-0.85c0.6-1.02,0.31-2.69-0.85-3.23c-2.94-1.37-6-1.26-9.06-0.29c-2.7,0.85-5.17,2.31-7.89,3.08
					c-1.83,0.52-4.3,0.98-5.96-0.26c-0.95-0.71-1.51-1.91-2.26-2.8c-0.96-1.15-2.23-1.95-3.73-2.11c-3.26-0.35-6.4,2.12-9.1,3.64
					c-2.64,1.48-5.42,3.46-8.45,4c-2.75,0.5-4.57-1.22-6.52-2.87c-1.99-1.67-4.07-3.05-6.68-3.46c-5.38-0.86-11.34,1.78-13.7,6.84
					c-0.54,1.16-0.33,2.54,0.85,3.23C1235.51,705.63,1237.18,705.35,1237.72,704.19L1237.72,704.19z"/>
			</g>
		</g>
	</g>
	<g>
		<circle class="st4" cx="1106.71" cy="1072.92" r="72.38"/>
		<g>
			<g>
				<path d="M1091.52,1044.16c1.27-1.95,1.61-4.34,1.15-6.6c-0.16-0.79-0.9-1.44-1.65-1.65c-0.88-0.24-1.62,0.07-2.3,0.61
					c-2.72,2.17-4.3,5.76-4.21,9.23c0.02,1,0.71,2.04,1.73,2.28c1.09,0.25,2.04-0.19,2.67-1.08c1.61-2.27,2.73-4.95,3.21-7.69
					c0.11-0.64,0.1-1.24-0.24-1.82c-0.29-0.49-0.85-0.96-1.41-1.08c-1.16-0.26-2.66,0.35-2.9,1.65c-0.1,0.53-0.2,1.07-0.3,1.6
					c-0.12,0.63-0.1,1.25,0.24,1.82c0.29,0.49,0.85,0.96,1.41,1.08c1.16,0.26,2.66-0.35,2.9-1.65c0.1-0.53,0.2-1.07,0.3-1.6
					c-1.52-0.42-3.03-0.84-4.55-1.25c-0.23,1.3-0.6,2.57-1.11,3.79c0.08-0.19,0.16-0.38,0.24-0.56c-0.5,1.18-1.12,2.29-1.86,3.34
					c1.47,0.4,2.93,0.79,4.4,1.19c-0.01-0.47,0.01-0.95,0.07-1.42c-0.03,0.21-0.06,0.42-0.08,0.63c0.12-0.86,0.35-1.7,0.69-2.5
					c-0.08,0.19-0.16,0.38-0.24,0.56c0.32-0.73,0.71-1.41,1.19-2.04c-0.12,0.16-0.25,0.32-0.37,0.48c0.46-0.59,0.98-1.13,1.57-1.6
					c-1.31-0.35-2.63-0.69-3.94-1.04c0.03,0.16,0.06,0.33,0.08,0.49c-0.03-0.21-0.06-0.42-0.08-0.63c0.06,0.54,0.06,1.08-0.01,1.62
					c0.03-0.21,0.06-0.42,0.08-0.63c-0.08,0.58-0.23,1.14-0.46,1.68c0.08-0.19,0.16-0.38,0.24-0.56c-0.15,0.34-0.33,0.67-0.53,0.99
					c-0.67,1.04-0.24,2.65,0.85,3.23C1089.47,1045.63,1090.8,1045.27,1091.52,1044.16L1091.52,1044.16z"/>
			</g>
		</g>
		<g>
			<g>
				<path d="M1133.03,1049.66c0.56-0.69,1.04-1.45,1.18-2.35c0.07-0.44,0.14-0.88,0.09-1.33c-0.05-0.46-0.1-0.91-0.27-1.34
					c-0.11-0.4-0.31-0.75-0.61-1.04c-0.21-0.23-0.47-0.39-0.76-0.49c-0.67-0.28-1.47-0.29-2.1,0.12c-0.98,0.63-1.91,1.4-2.65,2.32
					c-0.42,0.52-0.82,1.05-1.16,1.63c-0.35,0.6-0.62,1.24-0.87,1.88c-0.03,0.21-0.06,0.42-0.08,0.63c0.03,0.21,0.06,0.42,0.08,0.63
					c0.14,0.5,0.44,0.91,0.85,1.23c0.34,0.26,0.69,0.41,1.12,0.46c0.51,0.07,1.06,0,1.51-0.28c0.44-0.28,0.87-0.61,1.2-1.02
					c0.22-0.27,0.45-0.55,0.62-0.86c0.18-0.32,0.32-0.67,0.45-1.01c0.19-0.5,0.26-1.06,0.28-1.58c0.01-0.17,0-0.35-0.02-0.52
					c-0.04-0.37-0.08-0.75-0.19-1.1c-0.18-0.58-0.55-1.1-1.08-1.41c-0.51-0.3-1.25-0.42-1.82-0.24c-0.57,0.18-1.12,0.54-1.41,1.08
					c-0.29,0.55-0.43,1.21-0.24,1.82c0.05,0.16,0.09,0.31,0.11,0.48c-0.03-0.21-0.06-0.42-0.08-0.63c0.03,0.26,0.03,0.53,0,0.79
					c0.03-0.21,0.06-0.42,0.08-0.63c-0.04,0.29-0.12,0.56-0.23,0.82c0.08-0.19,0.16-0.38,0.24-0.56c-0.11,0.24-0.24,0.47-0.41,0.68
					c0.12-0.16,0.25-0.32,0.37-0.48c-0.14,0.18-0.3,0.33-0.47,0.48c0.16-0.12,0.32-0.25,0.48-0.37c-0.08,0.06-0.16,0.12-0.25,0.18
					c1.16,0.89,2.31,1.78,3.47,2.67c0.04-0.11,0.08-0.22,0.13-0.32c-0.08,0.19-0.16,0.38-0.24,0.56c0.3-0.71,0.69-1.37,1.16-1.98
					c-0.12,0.16-0.25,0.32-0.37,0.48c0.49-0.63,1.04-1.19,1.67-1.67c-0.16,0.12-0.32,0.25-0.48,0.37c0.2-0.16,0.41-0.3,0.63-0.44
					c-1.16-0.47-2.31-0.94-3.47-1.41c0.09,0.21,0.15,0.42,0.18,0.64c-0.03-0.21-0.06-0.42-0.08-0.63c0.03,0.25,0.03,0.49,0,0.74
					c0.03-0.21,0.06-0.42,0.08-0.63c-0.04,0.25-0.1,0.48-0.19,0.71c0.08-0.19,0.16-0.38,0.24-0.56c-0.09,0.21-0.2,0.4-0.34,0.58
					c0.12-0.16,0.25-0.32,0.37-0.48c-0.01,0.02-0.03,0.03-0.04,0.05c-0.23,0.21-0.39,0.47-0.49,0.76c-0.15,0.28-0.22,0.58-0.2,0.91
					c0,0.58,0.26,1.27,0.69,1.67c0.45,0.41,1.04,0.72,1.67,0.69C1131.95,1050.32,1132.65,1050.14,1133.03,1049.66L1133.03,1049.66z"
					/>
			</g>
		</g>
		<g>
			<g>
				<path d="M1064.92,1091.14c1.49-3.12,4.53-4.78,7.67-5.93c4.09-1.49,8.47-2.69,12.78-3.32c4.18-0.61,8.52-0.31,12.33,1.62
					c3.25,1.65,5.94,4.12,8.28,6.9c2.77,3.3,4.96,7.07,6.97,10.86c0.12-0.95,0.25-1.91,0.37-2.86c-0.48,0.51-0.96,1.02-1.44,1.53
					c-2.08,2.21,1.25,5.55,3.34,3.34c0.48-0.51,0.96-1.02,1.44-1.53c0.75-0.79,0.87-1.91,0.37-2.86c-3.92-7.4-8.89-15.11-16.47-19.2
					c-8.99-4.85-19.58-2.39-28.72,0.79c-4.4,1.53-8.89,3.88-11,8.28c-0.55,1.15-0.32,2.55,0.85,3.23
					C1062.72,1092.59,1064.37,1092.3,1064.92,1091.14L1064.92,1091.14z"/>
			</g>
		</g>
	</g>
	<g>
		<circle class="st4" cx="1578.67" cy="597.25" r="72.38"/>
		<g>
			<g>
				<path d="M1540.49,571.07c12.5-1.27,23.93-8.2,30.71-18.8c1.64-2.57-2.44-4.94-4.08-2.38c-5.81,9.09-15.87,15.37-26.63,16.46
					c-1.27,0.13-2.36,0.99-2.36,2.36C1538.13,569.89,1539.22,571.2,1540.49,571.07L1540.49,571.07z"/>
			</g>
		</g>
		<g>
			<g>
				<path d="M1609.63,557.22c-2.05,10.55,4.04,21.45,14.04,25.31c1.19,0.46,2.59-0.51,2.9-1.65c0.37-1.33-0.45-2.44-1.65-2.9
					c-7.5-2.89-12.26-11.71-10.75-19.5c0.24-1.25-0.35-2.55-1.65-2.9C1611.37,555.25,1609.87,555.96,1609.63,557.22L1609.63,557.22z
					"/>
			</g>
		</g>
		<g>
			<g>
				<path d="M1596.86,585.1c-1.77,4.12-2.6,8.57-2.15,13.06c0.1,1.01,0.66,2.03,1.73,2.28c0.97,0.22,2.19-0.13,2.67-1.08
					c1.88-3.8,2.85-8,2.72-12.25c-0.07-2.1-2.5-3.04-4.03-1.67c-2.38,2.14-3.73,5.46-3.47,8.65c0.1,1.23,1.01,2.42,2.36,2.36
					c1.19-0.05,2.47-1.04,2.36-2.36c-0.03-0.31-0.04-0.62-0.03-0.93c0-0.15,0.01-0.31,0.02-0.46c0-0.06,0.01-0.12,0.02-0.18
					c0.02-0.18,0.01-0.12-0.02,0.17c-0.08-0.09,0.14-0.7,0.17-0.82c0.08-0.3,0.19-0.59,0.29-0.88c0.1-0.32-0.25,0.49,0.02-0.03
					c0.06-0.11,0.11-0.22,0.17-0.33c0.14-0.27,0.3-0.54,0.48-0.79c0.04-0.06,0.36-0.46,0.15-0.21c-0.22,0.26,0.17-0.18,0.17-0.19
					c0.21-0.23,0.43-0.44,0.66-0.65c-1.34-0.56-2.69-1.11-4.03-1.67c0.03,0.92,0.01,1.83-0.07,2.75c-0.02,0.21-0.04,0.42-0.06,0.63
					c-0.03,0.28-0.03,0.28,0,0c-0.01,0.1-0.03,0.21-0.05,0.31c-0.07,0.45-0.15,0.9-0.25,1.35c-0.19,0.9-0.44,1.78-0.74,2.65
					c-0.14,0.4-0.29,0.8-0.45,1.19c0.18-0.45-0.05,0.12-0.1,0.21c-0.12,0.26-0.24,0.51-0.36,0.76c1.47,0.4,2.93,0.79,4.4,1.19
					c-0.1-0.99-0.14-1.98-0.12-2.98c0.01-0.5,0.04-0.99,0.08-1.49c0.02-0.21,0.04-0.42,0.06-0.64c0.03-0.28,0.03-0.28,0-0.01
					c0.01-0.11,0.03-0.21,0.05-0.32c0.15-0.95,0.35-1.89,0.61-2.81c0.13-0.48,0.28-0.95,0.45-1.42c0.07-0.2,0.14-0.4,0.22-0.6
					c0.03-0.08,0.36-0.89,0.16-0.42c0.26-0.61,0.42-1.15,0.24-1.82c-0.15-0.55-0.57-1.14-1.08-1.41
					C1599.07,583.71,1597.38,583.89,1596.86,585.1L1596.86,585.1z"/>
			</g>
		</g>
		<g>
			<g>
				<path d="M1562.8,579.73c-1.81,3.81-2.19,8.22-0.78,12.23c0.34,0.95,1.2,1.78,2.28,1.73c1.1-0.05,1.91-0.71,2.28-1.73
					c1.19-3.32,1.42-6.81,0.94-10.28c-0.12-0.9-1.15-1.58-1.96-1.69c-0.98-0.13-1.8,0.33-2.35,1.13c-1.04,1.51-1.57,3.32-1.62,5.14
					c-0.04,1.24,1.11,2.42,2.36,2.36c1.31-0.06,2.32-1.04,2.36-2.36c0.01-0.18,0.02-0.35,0.03-0.53c0.03-0.46-0.07,0.31,0,0.02
					c0.08-0.31,0.14-0.63,0.24-0.94c0.02-0.07,0.19-0.55,0.07-0.21c-0.12,0.33,0.06-0.13,0.1-0.2c0.16-0.32,0.34-0.61,0.54-0.9
					c-1.44-0.19-2.88-0.38-4.31-0.56c-0.08-0.61,0,0.04,0.01,0.13c0.02,0.19,0.04,0.38,0.05,0.57c0.02,0.35,0.04,0.7,0.04,1.05
					c0.01,0.73-0.02,1.46-0.1,2.19c-0.01,0.14-0.04,0.72-0.01,0.13c-0.01,0.16-0.05,0.32-0.08,0.47c-0.06,0.35-0.13,0.69-0.21,1.03
					c-0.17,0.75-0.39,1.48-0.65,2.2c1.52,0,3.03,0,4.55,0c-0.28-0.79-0.47-1.59-0.62-2.42c-0.04-0.27-0.04-0.24,0.01,0.1
					c-0.01-0.12-0.03-0.24-0.04-0.35c-0.02-0.18-0.03-0.36-0.04-0.53c-0.02-0.45-0.02-0.89,0-1.34c0.01-0.21,0.02-0.42,0.04-0.62
					c0.01-0.12,0.02-0.24,0.04-0.35c-0.04,0.3-0.05,0.36-0.02,0.19c0.07-0.41,0.14-0.82,0.24-1.22c0.1-0.4,0.22-0.8,0.35-1.2
					c0.06-0.18,0.12-0.42,0.22-0.58c-0.32,0.53,0.06-0.13,0.12-0.25c0.53-1.11,0.35-2.6-0.85-3.23
					C1564.98,578.33,1563.37,578.54,1562.8,579.73L1562.8,579.73z"/>
			</g>
		</g>
		<g>
			<g>
				<path d="M1544.23,632c6.49-7.42,15.72-11.39,25.12-13.72c5.15-1.27,10.83-2.65,16.06-1.1c4.63,1.37,8.96,4.51,12.44,7.8
					c3.69,3.49,6.84,7.96,7.33,13.15c1.18-0.68,2.37-1.36,3.55-2.04c-14.58-7.8-31.55-11.01-47.98-9.02
					c-4.71,0.57-9.34,1.51-13.88,2.9c-2.9,0.88-1.66,5.44,1.25,4.55c15-4.57,31.22-4.35,46.13,0.48c4.18,1.36,8.22,3.08,12.09,5.16
					c1.44,0.77,3.73-0.16,3.55-2.04c-0.53-5.56-3.09-10.42-6.8-14.53c-3.66-4.06-8.45-7.67-13.47-9.85
					c-2.85-1.24-5.82-1.94-8.94-1.95c-3.12-0.01-6.24,0.55-9.29,1.19c-5.42,1.13-10.73,2.74-15.77,5.03
					c-5.55,2.53-10.7,6.04-14.73,10.65C1538.9,630.94,1542.23,634.29,1544.23,632L1544.23,632z"/>
			</g>
		</g>
	</g>
</g>
</svg>
