<?xml version="1.0" encoding="utf-8"?>
<!-- Generator: Adobe Illustrator 26.3.1, SVG Export Plug-In . SVG Version: 6.00 Build 0)  -->
<svg version="1.1" xmlns="http://www.w3.org/2000/svg" xmlns:xlink="http://www.w3.org/1999/xlink" x="0px" y="0px"
	 viewBox="0 0 1984.25 1984.25" style="enable-background:new 0 0 1984.25 1984.25;" xml:space="preserve">
<style type="text/css">
	.st0{fill:#FFFFFF;}
	.st1{fill:#1B1439;}
	.st2{fill:#F5F0E2;}
	.st3{fill:#ED1E78;}
	.st4{fill:#FE3922;stroke:#000000;stroke-width:6.2938;stroke-miterlimit:10;}
	.st5{fill:#29597E;}
	.st6{fill:#D95F86;}
	.st7{fill:#D95F86;stroke:#000000;stroke-width:4.6468;stroke-miterlimit:10;}
	.st8{fill:none;stroke:#000000;stroke-width:9.3644;stroke-miterlimit:10;}
	.st9{fill:#ED1E78;stroke:#000000;stroke-width:9.3644;stroke-miterlimit:10;}
	.st10{fill:#FBAE16;stroke:#020202;stroke-width:9.3644;stroke-miterlimit:10;}
	.st11{fill:#F5F0E2;stroke:#000000;stroke-width:9.3644;stroke-miterlimit:10;}
	.st12{fill:#29597E;stroke:#000000;stroke-width:2.8238;stroke-miterlimit:10;}
	.st13{fill:#F9E819;}
	.st14{fill:#FBAE16;}
	.st15{fill:#020202;}
	.st16{fill:#FBAE16;stroke:#020202;stroke-width:4.8212;stroke-miterlimit:10;}
	.st17{fill:#ED1E78;stroke:#000000;stroke-width:4.8212;stroke-miterlimit:10;}
	.st18{fill:#FE3922;stroke:#000000;stroke-width:4.8212;stroke-miterlimit:10;}
	.st19{fill:none;stroke:#000000;stroke-width:4.8212;stroke-miterlimit:10;}
</style>
<g id="Layer_1">
</g>
<g id="Layer_3">
</g>
<g id="Layer_4">
</g>
<g id="Layer_5">
</g>
<g id="Layer_6">
</g>
<g id="Layer_7">
</g>
<g id="Layer_8">
</g>
<g id="Layer_2">
	<g>
		<path class="st16" d="M1437.4,340.32c1.24,6.29,4.27,11.67,8.48,15.91l-72.96,14.39l-69.81,400.47l41.83-8.25l6.67,33.84
			l-358.7,70.73l-6.67-33.84l280.6-55.33l76.13-436.88l96.24-18.98C1436.92,327.9,1436.16,334.02,1437.4,340.32z"/>
		<path class="st17" d="M1599.83,308.29c1.65,8.39-0.23,16.64-4.69,23.28c-4.45,6.64-11.37,11.52-19.76,13.18l-101.52,20.02
			c-10.49,2.07-20.88-1.44-27.98-8.54c-4.21-4.23-7.24-9.61-8.48-15.91c-1.24-6.29-0.48-12.42,1.81-17.93
			c0.82-1.92,1.74-3.65,2.88-5.35c4.45-6.64,11.37-11.52,19.76-13.18l101.52-20.02C1580.15,280.53,1596.52,291.5,1599.83,308.29z"/>
		<path class="st17" d="M886.57,1293.36c-5.44-4.41-11.26-8.26-17.38-11.48c-20.9-11.14-45.73-15.45-70.83-10.5
			c-57.93,11.42-95.64,67.66-84.22,125.59c11.42,57.93,67.65,95.64,125.59,84.22c57.93-11.42,95.64-67.65,84.22-125.59
			C918.93,1330.15,905.18,1308.54,886.57,1293.36z M829.05,1427.05c-28.02,5.53-55.24-12.73-60.77-40.75
			c-5.53-28.02,12.73-55.24,40.75-60.77c7.85-1.55,15.57-1.24,22.85,0.7c7.03,1.78,13.57,4.99,19.09,9.45
			c9.46,7.34,16.35,18.01,18.83,30.6C875.33,1394.3,857.07,1421.52,829.05,1427.05z"/>
		<path class="st17" d="M1133.37,1205.32c-31.34,6.18-56.78,25.47-71.69,51.12c-3.48,5.89-6.38,12.23-8.6,18.78
			c-6.08,17.3-7.73,36.4-3.93,55.69c11.42,57.93,67.66,95.64,125.59,84.22c57.93-11.42,95.64-67.65,84.22-125.59
			C1247.53,1231.61,1191.3,1193.9,1133.37,1205.32z M1164.07,1360.99c-28.02,5.53-55.24-12.73-60.77-40.75
			c-1.44-7.31-1.25-14.52,0.36-21.37c1.47-6.83,4.41-13.31,8.52-18.84c7.39-10.32,18.47-17.92,31.87-20.56
			c28.02-5.53,55.24,12.73,60.77,40.75C1210.34,1328.24,1192.08,1355.46,1164.07,1360.99z"/>
		<path class="st18" d="M986.24,833.57l6.67,33.84l192.61-37.98c-8.61,66.52-37.28,128.29-80.71,177.63l-399.31,78.74
			c-83.29-41.23-148.55-116.53-174.42-211.69l654.73-129.1c2.04,16.4,2.85,32.62,2.44,48.74L986.24,833.57z"/>
		<path class="st19" d="M856.37,430.98l-31.29,364.05l-297.99,58.76c-2.14-7.66-3.98-15.53-5.55-23.51
			c-35.75-181.31,82.21-357.22,263.52-392.97C809.02,432.59,832.87,430.55,856.37,430.98z"/>
		<path class="st18" d="M856.37,430.98l-31.29,364.05l-297.99,58.76c-2.14-7.66-3.98-15.53-5.55-23.51
			c-35.75-181.31,82.21-357.22,263.52-392.97C809.02,432.59,832.87,430.55,856.37,430.98z"/>
		
			<rect x="501.26" y="789.71" transform="matrix(0.9811 -0.1935 0.1935 0.9811 -138.6659 180.1533)" class="st17" width="703.62" height="20.69"/>
		<path class="st16" d="M958.21,1208.08l103.47,48.36c-3.48,5.89-6.38,12.23-8.6,18.78L944.5,1224.5l-57.93,68.87
			c-5.44-4.41-11.26-8.26-17.38-11.48l55.86-66.49l-221.49-103.48l2.37-5.11l24.97-4.92l207.93,97.09l139.13-165.52l31.34-6.18
			l0.51,0.46L958.21,1208.08z"/>
		
			<rect x="689.87" y="1046.23" transform="matrix(0.9811 -0.1935 0.1935 0.9811 -187.2698 195.4653)" class="st17" width="434.59" height="20.69"/>
		<path class="st16" d="M1204.82,1300.22c5.53,28.02-12.73,55.24-40.75,60.77c-28.02,5.53-55.24-12.73-60.77-40.75
			c-1.44-7.31-1.25-14.52,0.36-21.37c1.47-6.83,4.41-13.31,8.52-18.84c7.39-10.32,18.47-17.92,31.87-20.56
			C1172.07,1253.94,1199.29,1272.2,1204.82,1300.22z"/>
		<path class="st16" d="M869.8,1366.28c5.53,28.02-12.73,55.24-40.75,60.77c-28.02,5.53-55.24-12.73-60.77-40.75
			c-5.53-28.02,12.73-55.24,40.75-60.77c7.85-1.55,15.57-1.24,22.85,0.7c7.03,1.78,13.57,4.99,19.09,9.45
			C860.44,1343.02,867.32,1353.69,869.8,1366.28z"/>
	</g>
</g>
</svg>
