<?xml version="1.0" encoding="UTF-8"?>
<svg id="Layer_2" data-name="Layer 2" xmlns="http://www.w3.org/2000/svg" viewBox="0 0 397.53 488.98">
  <g id="Layer_1-2" data-name="Layer 1">
    <g>
      <g>
        <path d="m0,228.55v-105.01h30.55v105.01H0Z"/>
        <path d="m106.92,228.55c-4.96,1.34-11.07,2.1-17.37,2.1-18.52,0-38.76-7.26-38.76-29.79,0-20.81,14.7-31.12,39.33-31.12h33.22v-.95c0-14.51-6.68-22.15-21.38-22.15-9.36,0-17.76,3.05-19.86,14.13h-29.02c2.48-25.97,20.24-38.76,42.96-38.76,15.66,0,24.44,5.92,27.3,12.41v-25.59h30.55v119.72h-30.55v-37.8h-29.21c-8.59,0-12.03,2.67-12.03,8.02,0,7.25,7.26,8.78,14.51,8.78,3.82,0,7.64-.38,10.31-.76v21.76Z"/>
        <path d="m171.26,228.55v-105.01h30.55v54.99c0,15.66,7.64,25.39,22.91,25.39,14.13,0,20.81-8.59,20.81-24.25v-56.13h30.55v62.44c0,23.29-11.65,44.11-40.1,44.11-17.95,0-29.98-8.97-34.18-17.76v16.23h-30.54Z"/>
        <path d="m322.29,186.74c0,11.65,8.02,18.71,22.15,18.71,15.85,0,22.15-10.88,22.15-29.4s-6.3-29.4-23.29-29.4c-10.31,0-18.52,3.63-21.77,14.13h-29.59c4.01-25.01,23.49-38.76,52.51-38.76,33.03,0,53.08,17.76,53.08,54.03s-20.05,54.03-52.89,54.03c-34.75,0-55.18-18.33-52.89-54.03.19-4.01,3.05-6.68,7.25-6.68h45.44v17.38h-22.15Z"/>
        <path d="m26.63,369.09c6.68.76,12.6,1.15,12.6-6.11v-3.25c0-7.06,2.67-11.65,7.45-14.13h-18.9v-14.51c0-32.08,26.35-46.78,53.27-46.78s53.08,14.7,53.08,49.45v57.09h-30.55v-58.23c0-16.04-10.88-22.15-22.53-22.15-12.22,0-22.72,6.49-22.72,19.09v1.53h19.09v12.41c-5.35,1.34-8.97,7.06-8.97,17.57v3.63c0,22.72-14.13,26.92-28.64,26.92-4.39,0-8.97-.38-13.17-.76v-21.77h-.01Z"/>
        <path d="m204.96,390.85v-65.3c0-9.36-5.54-15.08-13.94-15.08s-13.94,5.73-13.94,15.08h-29.79c0-25.97,19.09-41.24,43.34-41.24s44.87,14.7,44.87,40.67v65.87h-30.54Z"/>
        <path d="m252.51,390.85v-58.04c0-30.74,23.1-48.5,53.84-48.5s54.22,17.76,54.22,48.5v58.04h-30.55v-52.89c0-17.18-8.21-27.49-23.68-27.49s-23.29,10.31-23.29,27.49v16.8c3.05-15.28,17.18-21.77,31.69-19.67v24.06c-14.89-2.29-31.69,3.82-31.69,25.97v5.73h-30.54Z"/>
      </g>
      <g>
        <path d="m108.14,18.56h11.29v21.11c0,5.93,3.46,8.61,8.4,8.61s8.26-2.68,8.26-8.61v-21.11h11.29v20.55c0,13.55-9.53,18.85-19.55,18.85s-19.69-5.29-19.69-18.85v-20.55h0Z"/>
        <path d="m163.26,44.26c.92,3.32,4.09,4.94,7.62,4.94s6.42-.92,6.42-3.46c0-2.96-5.08-3.39-12.49-5.36-5.08-1.34-11.08-3.32-11.08-10.66,0-8.82,8.75-11.72,16.59-11.72,10.87,0,16.59,5.58,18,13.69h-10.3c-.92-3.25-3.67-4.94-7.41-4.94s-5.86,1.13-5.86,3.25c0,2.61,3.88,3.11,8.4,4.31,7.62,1.98,15.32,3.53,15.32,12.07,0,9.6-10.59,11.58-17.44,11.58-11.44,0-16.66-5.58-18.07-13.69h10.3Z"/>
        <path d="m154.02,12.71V4.66h32.82v8.05h-32.82Z"/>
        <path d="m193.9,18.56h11.29v21.11c0,5.93,4.17,8.61,9.11,8.61s8.96-2.68,8.96-8.12v-.21h-1.13c-8.68,0-12.85-4.52-12.85-11.01s4.45-10.94,12.56-10.94c7.27,0,12.49,3.32,12.49,11.15v3.04h4.66v7.76h-4.66c0,11.79-8.96,18-20.05,18-10.09,0-20.4-5.29-20.4-18.85v-20.54h.02Zm29.43,13.63v-3.11c0-1.69-.42-3.18-2.4-3.18-1.2,0-2.54.78-2.54,3.04,0,2.47,1.98,3.25,4.31,3.25h.63Z"/>
        <path d="m218.18,0c-.64,3.32.49,4.66,3.39,4.66h16.94v8.05h-19.13c-7.98,0-13.13-3.53-11.29-12.71h10.09Z"/>
        <path d="m242.11,57.39V18.56h11.29v6c1.55-3.25,6-6.56,12.63-6.56,10.52,0,14.82,7.69,14.82,16.31v23.08h-11.29v-20.75c0-5.79-2.47-8.96-7.69-8.96-5.65,0-8.47,3.6-8.47,9.39v20.33h-11.29Z"/>
      </g>
      <g>
        <path d="m112.9,474.02v-7.06h10.73c3.18,0,4.38,1.69,4.38,4.52v2.68c0,3.53,1.27,5.65,4.31,5.65s4.31-2.12,4.31-5.65v-8.68c0-5.01-2.75-7.34-8.05-7.34-3.67,0-6.42,1.13-7.2,5.22h-10.73c1.2-9.25,7.48-14.33,18.28-14.33,13.06,0,18.99,6.64,18.99,17.79v7.69c0,9.6-6.56,14.47-15.6,14.47s-15.04-3.88-15.04-13.13v-1.06c0-.49-.28-.78-.78-.78h-3.6Z"/>
        <path d="m139.02,426.73c5.36,0,9.6,3.46,9.6,8.96s-4.23,8.75-9.6,8.75-9.67-3.25-9.67-8.75,4.23-8.96,9.67-8.96Zm0,11.86c1.69,0,2.89-1.27,2.89-2.96,0-1.83-1.2-3.04-2.89-3.04s-3.04,1.2-3.04,3.04c0,1.69,1.27,2.96,3.04,2.96Z"/>
        <path d="m174.1,488.42v-24.14c0-3.46-2.05-5.58-5.15-5.58s-5.15,2.12-5.15,5.58h-11.01c0-9.6,7.06-15.25,16.02-15.25s16.59,5.44,16.59,15.04v24.35h-11.3Z"/>
        <path d="m193.51,488.42v-8.75c0-3.95,1.62-6.42,4.02-7.98h-6.35v-5.37c0-11.86,9.81-17.29,19.62-17.29s19.76,5.44,19.76,18.28v21.11h-11.29v-21.53c0-5.93-4.09-8.19-8.47-8.19s-8.33,2.4-8.33,7.06v.56h6.78v4.59c-2.33.71-4.45,2.47-4.45,8.26v9.25h-11.29Z"/>
        <path d="m214.47,431.04c-.64,3.32.49,4.66,3.39,4.66h16.94v8.05h-19.13c-7.98,0-13.13-3.53-11.29-12.71h10.09Z"/>
        <path d="m253.01,468.66h8.47v7.76c0,9.67-5.22,12.56-11.72,12.56-7.69,0-12.78-3.88-12.78-12.56v-9.46c0-11.37,8.89-17.93,20.26-17.93s20.12,6.56,20.12,17.93v21.46h-11.29v-19.98c0-6.49-3.25-9.74-8.82-9.74s-8.96,3.25-8.96,9.74v7.69c0,3.39,1.06,4.17,2.47,4.17,1.27,0,2.26-.78,2.26-4.17v-7.47h-.01Z"/>
      </g>
    </g>
  </g>
</svg>