<?xml version="1.0" encoding="UTF-8"?>
<svg id="Layer_2" data-name="Layer 2" xmlns="http://www.w3.org/2000/svg" viewBox="0 0 1685.05 1507.99">
  <defs>
    <style>
      .cls-1 {
        fill: #f5f0e2;
      }

      .cls-1, .cls-2, .cls-3, .cls-4, .cls-5, .cls-6 {
        stroke-width: 0px;
      }

      .cls-7 {
        stroke: #000;
        stroke-miterlimit: 10;
        stroke-width: 2.99px;
      }

      .cls-7, .cls-6 {
        fill: #29597e;
      }

      .cls-3 {
        fill: #fff;
      }

      .cls-4 {
        fill: #1b1439;
      }

      .cls-5 {
        fill: #ed1e78;
      }
    </style>
  </defs>
  <g id="Layer_1-2" data-name="Layer 1">
    <g id="Layer_2-2" data-name="Layer 2">
      <polygon class="cls-7" points="1.5 1506.5 134.49 1506.5 1683.56 1506.5 1683.56 1.5 1.5 1.5 1.5 1506.5"/>
      <g>
        <path class="cls-3" d="m1422.27,212.68c-1.11,10.24-8.68,18.45-16.05,25.65-.75.73-1.55,1.49-2.57,1.73-1.48.35-3.04-.53-3.92-1.77-.87-1.25-1.19-2.79-1.42-4.3-1.82-11.87.66-24.03,4.23-35.34,1.14-3.62,2.76-9.04,6.62-10.72,4.41-1.92,8.34,2.33,9.98,6,2.47,5.52,3.78,12.75,3.13,18.75Z"/>
        <path class="cls-3" d="m1235.62,185.28c-2.26.3-4.26,1.65-5.91,3.24-5.99,5.8-7.9,15.01-6.09,23.14,1.44,6.47,5.05,12.44,10.12,16.71.48.41,1.02.82,1.65.86,1.23.1,2.1-1.17,2.57-2.31,2.61-6.31,1.52-13.44,1.73-20.26.07-2.22.28-4.43.49-6.65.34-3.58,1.15-7.43,1.05-11.02-.07-2.81-2.91-4.07-5.61-3.71Z"/>
        <path class="cls-3" d="m1313.24,114.38c-3.74,11.78-8.16,23.35-13.24,34.62-3.23,7.17-6.76,14.27-11.41,20.62-.67.92-1.4,1.93-1.33,3.06.07,1.12.92,2.06,1.93,2.56,1.01.49,2.14.62,3.26.73,2.44.25,4.87.51,7.31.76,3.72.39,7.43.77,11.17.92,6.06.24,12.13-.14,18.19-.52,3.05-.19,6.11-.39,9.11-.99,5.65-1.13,10.9-3.68,16.05-6.25,2.04-1.02,4.34-2.43,4.5-4.71.1-1.51-.83-2.88-1.73-4.1-2.38-3.18-4.93-6.25-7.62-9.17-.73-.8-1.49-1.59-2.4-2.18-.88-.57-1.88-.92-2.81-1.4-3.42-1.77-5.71-5.15-7.41-8.61-1.09-2.22-2.01-4.55-3.4-6.6-.95-1.4-2.09-2.65-3.22-3.92-3.73-4.19-7.27-8.62-9.96-13.56-.67-1.23-1.29-2.5-1.84-3.79-.28-.66-.88-3.48-1.45-3.73-1.55-.71-3.4,5.33-3.7,6.26Z"/>
        <path class="cls-3" d="m1298.4,167.7c-3.9-.23-8.08-.3-11.38,1.79-2.51,1.59-4.14,4.22-6.12,6.44-6.38,7.16-16.21,9.95-25.48,12.4,1.46,12.95,2.39,26.07.66,38.98-.61,4.55-1.47,9.52.89,13.45,1.62,2.71,4.59,4.52,5.82,7.43.47,1.12.66,2.34,1.12,3.46,1.33,3.21,4.63,5.05,7.14,7.46,1.65,1.59,2.99,3.47,4.53,5.18,6.36,7.08,15.66,10.74,24.81,13.35,11.49,3.28,24.17,5.2,35.11.4,2.8-1.23,5.48-2.93,7.35-5.35,1.79-2.33,2.75-5.18,3.62-7.98,6.53-20.99,10.13-43.37,6.21-65-.93-5.13-2.49-10.54-6.52-13.85-5.04-4.14-12.9-4.1-17.11-9.08-1.37-1.62-2.27-3.71-3.87-5.12-1.93-1.71-4.53-1.67-6.99-2.01-6.57-.92-13.17-1.56-19.79-1.95Z"/>
        <path class="cls-3" d="m1348.64,167.56c-11.83,1.26-24.18,2.7-34.06,9.33-3.05,2.05-5.83,4.6-7.64,7.79-3.74,6.61-2.75,15.12.81,21.83,2.99,5.63,7.65,10.43,9.48,16.54,1.31,4.37,1,9.21-.83,13.38-3.09,7.01-9.89,11.49-15.48,16.72-3.12,2.93-6.15,7.04-4.89,11.13,1.21,3.95,6.1,6.36,6.22,10.49.05,1.8-.87,3.49-1.14,5.27-.78,5.06,3.69,9.45,8.29,11.69,6.23,3.04,13.28,3.96,20.21,4.23,8.36.33,17.47-.52,23.7-6.1,2.2-1.97,3.9-4.41,5.58-6.83,1.48-2.13,2.96-4.27,3.97-6.66.4-.94.72-1.92,1.17-2.84.86-1.75,2.15-3.25,3.42-4.72,3.72-4.3,7.45-8.6,11.17-12.9,1.65-1.9,3.32-3.84,4.41-6.11,1.67-3.48,1.85-7.51,1.29-11.33-.89-6.08-3.53-11.75-6.33-17.23-9.38-18.37-20.78-35.63-32.14-52.85-.48-.72-1.96-1.13-1.83-.28"/>
        <path class="cls-3" d="m1363.27,166.7c-1.98-4.16-7.06-6.21-11.64-5.69s-8.67,3.15-12.05,6.28c-2.32,2.14-4.51,4.62-7.48,5.66-2.9,1.02-6.57.72-8.5,3.12-.75.93-1.08,2.12-1.31,3.29-.87,4.53-.35,9.31,1.47,13.55,4.41,10.23,15.28,15.78,23.27,23.53,5.53,5.36,9.76,11.91,13.59,18.6,1.91,3.34,3.76,6.76,6.25,9.7,2.17,2.56,5.24,4.86,8.57,4.43.87-.11,1.73-.41,2.61-.34.82.07,1.63.46,2.44.3,1.59-.31,2.19-2.48,3.73-2.99"/>
        <path class="cls-3" d="m1344.87,174.47c-1.36,2.02-2.74,4.23-2.65,6.66.04,1.11.39,2.18.85,3.19,2.09,4.66,6.28,7.96,10.1,11.34s7.61,7.38,8.41,12.42c.76,4.82-1.37,9.6-3.81,13.83-1.54,2.67-3.23,5.29-4.17,8.22-.94,2.93-1.04,6.3.55,8.94,2.12,3.53,6.49,4.82,10.22,6.57,3.19,1.49,6.15,3.51,9.53,4.49s7.47.64,9.8-1.99c1.25-1.41,1.83-3.27,2.37-5.07,1.11-3.65,2.22-7.32,2.94-11.07,2.96-15.51-.95-31.48-.25-47.25.04-.91.09-1.86-.25-2.71-.78-1.91-3.12-2.52-5.09-3.14-4.08-1.3-8.09-3.65-11.51-6.21-2.12-1.59-3.89-3.59-6.23-4.87-8.83-4.84-15.67-.96-20.81,6.65Z"/>
        <path class="cls-3" d="m1318.77,281.86c-8.39-4.85-17.21-9.82-26.89-10.17-.56-.02-1.16-.01-1.63.3-.68.46-.82,1.39-.88,2.22-.62,8.2-.06,16.49,1.65,24.53.33,1.55.7,3.17.27,4.69-.47,1.66-1.81,2.9-2.98,4.17-5.35,5.79-8.02,13.63-9.1,21.45-1.08,7.81-.71,15.74-.77,23.63-.07,8.29-.62,16.58-1.38,24.84-.27,2.87-.55,5.82.22,8.61.47,1.71,1.33,3.3,2.34,4.76,4.72,6.84,12.69,10.98,20.88,12.4,8.19,1.43,16.62.4,24.74-1.41,4.24-.94,8.63-2.21,11.72-5.27,2.46-2.44,3.82-5.76,5-9.02,5.15-14.24,8.18-29.43,7.04-44.53s-6.68-30.11-16.98-41.21c-2.55-2.74-5.38-5.26-7.46-8.38-1.37-2.06-2.39-4.34-3.07-6.72"/>
        <path class="cls-3" d="m1341.49,274.04c-5.22-1.43-10.81-2.81-15.94-1.08-4.56,1.54-8.04,5.4-10.16,9.72s-3.03,9.12-3.85,13.86c-.58,3.35-1.12,6.75-.79,10.13.33,3.36,1.5,6.56,2.64,9.74,3.27,9.15,6.3,18.47,7.35,28.12s-.01,19.76-4.57,28.34c-4.69,8.82-13.05,15.62-22.64,18.41-1.72.5-3.84,1.29-3.96,3.07-.07,1.11.72,2.06,1.48,2.87,2.06,2.19,4.23,4.3,6.62,6.13,5.85,4.49,12.99,7.28,20.34,7.94,8.64.77,17.37-1.36,25.19-5.1,7.83-3.73,14.82-9.01,21.34-14.73.83-.73,1.67-1.49,2.23-2.45.92-1.6.93-3.57.56-5.38-.76-3.78-2.96-7.08-5.21-10.21-9.72-13.53-21.87-26.14-37.51-31.9"/>
        <path class="cls-3" d="m1346.65,284.41c-3.32-1.3-7.15-.67-10.34.9-3.2,1.57-5.88,4-8.47,6.45-2.86,2.69-5.8,5.67-6.63,9.51-.59,2.74-.01,5.59.69,8.31,2.65,10.35,6.98,20.25,9.16,30.71,1.35,6.48,1.86,13.14,1.52,19.75-.26,5.02-.91,10.49,1.88,14.68,2.24,3.38,6.25,5.11,10.14,6.26,3.89,1.14,7.98,1.92,11.4,4.1,1.54.98,2.99,2.27,4.8,2.55,2.49.39,4.93-1.36,6.12-3.58,1.19-2.22,1.4-4.82,1.52-7.34,1.1-23.35-3.53-46.55-8.16-69.47-.38-1.86-.75-3.74-.68-5.64.1-2.55,1-5,1.53-7.49,1.03-4.9.6-10.1-1.24-14.76-.51-1.3-1.16-2.59-2.22-3.49-2.11-1.79-5.25-1.59-7.74-2.8"/>
        <path class="cls-3" d="m1349.32,282c.86,2.19,2.98,4.02,5.33,3.91.93-.04,1.83-.38,2.64-.83,5.73-3.18,7.79-14.22.62-17.02-7.75-3-10.71,8.53-8.59,13.94Z"/>
        <path class="cls-3" d="m1234.96,810.32c.14-3.82-3.23-7.07-6.93-8.04-3.7-.96-7.61-.16-11.31.81-8.62,2.27-16.99,5.48-24.92,9.55-1.3.67-2.62,1.38-3.64,2.43-2.11,2.17-2.62,5.44-2.47,8.46.36,7.06,3.73,13.59,7.42,19.63,7.39,12.1,17.07,23.79,30.46,28.47,3.45,1.21,7.06,1.91,10.65,2.61,1.77.35,3.76.65,5.26-.36s1.53-3.9-.25-4.23c2.35-1.15,4.49-2.93,5.54-5.33,1.05-2.4.8-5.45-1.03-7.32-1.85-1.89-4.74-2.2-7.18-3.21-2.74-1.13-5.05-3.26-6.4-5.9,1.92,1.04,3.9,1.94,5.95,2.7,2.94,1.1,6.46,1.84,9.06.07,2.71-1.85,3.22-5.82,2.05-8.88-1.17-3.06-3.63-5.43-6.01-7.68,1.93-.54,3.2-2.5,3.52-4.49.32-1.98-.11-4-.54-5.96-.62-2.83-1.35-5.84-3.46-7.81-.86-.8-1.9-1.38-2.75-2.19-2.35-2.26-2.82-5.93-5.03-8.33-2.05-2.24-5.33-3-8.35-2.71s-5.87,1.5-8.66,2.69"/>
        <path class="cls-3" d="m1392.34,806.07c-3.73,10.51-5.75,21.68-10.86,31.59-1.82,3.52-4.01,6.85-6.53,9.91-3.72,4.52-8.13,8.41-12.51,12.29-1.55,1.37-3.14,2.76-5.04,3.58-.96.41-2.01.68-2.83,1.33-.82.65-1.35,1.85-.83,2.76.56.98,1.91,1.06,2.91,1.59,2.4,1.27,2.27,4.75,1.51,7.36-.77,2.61-1.77,5.65-.16,7.85.96,1.32,2.65,1.92,4.28,2.09,2.35.25,4.71-.23,7-.79,4.86-1.2,9.61-2.83,14.19-4.85,2.22-.98,4.48-2.12,5.96-4.04.54-.7,1.13-1.58,2.02-1.54.59.03,1.07.48,1.62.7,1.22.51,2.59-.15,3.75-.8,7.07-3.93,14.44-8.15,18.73-15.01,1.07-1.71,1.92-3.56,3.09-5.2,1.46-2.05,3.36-3.73,4.97-5.66,6.04-7.21,8.09-17.9,16.12-22.79.73-.45,1.55-.89,1.89-1.68.4-.95-.04-2.02-.48-2.95-2.19-4.67-4.39-9.33-6.58-14-3.08-6.56-6.19-13.15-10.35-19.08-1.6-2.29-3.4-4.5-5.74-6.03-12.31-8.03-22.95,14.42-26.13,23.37Z"/>
        <path class="cls-3" d="m1312.92,1039.35c-2.32,17.44,2.37,34.96,7.02,51.93,9.59,34.97,19.17,69.94,29.1,104.82,2.37,8.32,4.84,16.8,9.81,23.87s13.01,12.59,21.65,12.24c9.59-.39,17.62-7.81,22.26-16.21,6.88-12.43,8.16-27.25,7.11-41.42s-4.26-28.09-5.79-42.22c-3.53-32.5,2.05-65.94,15.95-95.54,2.39-5.09,4.51-12.27-.17-15.37-1.91-1.26-4.35-1.27-6.63-1.22-19.65.43-39.26,2.15-58.69,5.13-8.83,1.35-17.96,4.13-26.87,4.22-8.65.1-13.28-1.23-14.75,9.77Z"/>
        <path class="cls-3" d="m1370.14,1209.99c-1.58-1.67-3.18-3.37-4.27-5.39s-1.65-4.44-.99-6.65c.46-.01.92-.02,1.38-.03"/>
        <path class="cls-3" d="m1341.42,1130.56c-1.48-2.01-3.19-4.14-5.62-4.72-3.4-.81-6.84,1.9-8.08,5.17-1.24,3.26-.86,6.89-.45,10.37,2.33,19.95,4.65,39.89,6.98,59.84,1.85,15.87,3.7,31.75,4.56,47.7.47,8.85.65,17.79,2.7,26.41,5.11,21.46,21.09,38.39,36.44,54.23,1.38,1.43,2.84,2.9,4.72,3.54,2.04.69,4.3.29,6.34-.41,11.4-3.86,18.12-15.6,21.95-27,7.53-22.41,7.88-46.57,6.72-70.18-.33-6.62-.77-13.23-1.2-19.84-.5-7.53-1-15.06-1.5-22.59-.41-6.1-.92-12.53-4.38-17.58-2.43-3.54-6.08-6.04-9.79-8.22-8.93-5.25-18.65-9.14-28.74-11.49-1.96-.46-4.15-.83-5.89.19-2.6,1.51-2.42,4.84-1.99,7.39-3.14.85-19.68-28.62-22.77-32.81Z"/>
        <path class="cls-3" d="m1377.86,1314.29c-7.14-11.21-15.46-21.67-24.77-31.16-2.48-2.52-5.91-5.18-9.19-3.87-2.98,1.18-3.91,5.11-3.16,8.23.74,3.12,2.65,5.83,3.77,8.83,2.45,6.59.92,13.9.84,20.93-.16,14.33,5.87,28.18,5.86,42.51,0,6.11-1.11,12.17-2.31,18.16-1.58,7.82-3.61,16.11-9.42,21.58-3.81,3.59-8.82,5.55-13.7,7.43-5.62,2.16-11.23,4.33-16.85,6.49-.92.36-2.01.93-2.03,1.91-.01.56.34,1.05.69,1.48,3.97,4.8,10.28,7.24,16.5,7.56,6.22.32,12.39-1.28,18.23-3.42,17.72-6.5,33.98-18.88,41.51-36.19,1.88-4.33,3.2-8.88,4.25-13.48,1.8-7.85,2.87-15.95,2.15-23.97-.65-7.22-2.75-14.3-6.15-20.7"/>
        <path class="cls-3" d="m1401,1303.07c-7.82,2.24-16.26,4.92-20.87,11.63-3.24,4.72-4.01,10.7-4.01,16.42s.66,11.48-.1,17.15c-.71,5.26-2.64,10.28-4.55,15.23-2.56,6.63-5.32,13.55-10.72,18.17-3.6,3.07-8.29,5.05-10.81,9.06-1.49,2.37-2.04,5.2-2.94,7.85-2.31,6.8-6.98,12.56-9.7,19.2-.56,1.36-.87,3.26.4,4,.22.13.47.2.71.27,5.57,1.58,11.64,1.33,17.06-.7,2.23-.84,4.35-1.96,6.6-2.74,6.35-2.2,13.91-1.77,18.99-6.18,3.52-3.07,5.24-8.06,9.32-10.32,2.47-1.37,5.82-1.79,7.08-4.32.44-.89.53-1.91.62-2.89.23-2.69.45-5.39.68-8.08.46-5.51.69-11.76-3.13-15.77-1.73-1.82-4.08-2.89-6.37-3.93-1.43-.65-2.87-1.3-4.3-1.95"/>
        <path class="cls-3" d="m1402.21,1290.63c-1.1-1.61-3.64-.66-5.13.59-7.02,5.86-10.45,14.83-14.2,23.17-3.03,6.74-6.47,13.37-8.19,20.55s-1.55,15.18,2.33,21.46c2,3.24,4.94,5.97,6.11,9.59,2.26,6.99-2.79,14.52-1.49,21.74.75,4.17,3.53,7.68,6.53,10.67.53.53,1.12,1.17,1.04,1.91-.07.66-.64,1.16-1.21,1.51-1.47.91-3.18,1.37-4.74,2.12-1.56.75-3.07,1.93-3.51,3.61-.44,1.67.72,3.78,2.45,3.76.42,0,.83-.13,1.22-.25,10.76-3.43,19.82-11.83,24.05-22.3,1.18-2.93,2.01-6.1,1.63-9.24-.21-1.7-.76-3.33-1.15-5-2.55-10.7,1.4-21.72,3.79-32.46.48-2.13.89-4.28,1.04-6.46.09-1.41.07-2.83.28-4.24.3-2.06,1.08-4.01,1.78-5.97,1.47-4.1,2.64-8.53,1.66-12.78-.44-1.91-1.29-3.69-1.84-5.57-.69-2.38-.88-4.91-.55-7.37.29-2.11.95-4.17.91-6.3s-1.02-4.44-3.01-5.2c-2.99-1.15-5.93,1.7-7.72,4.36-2.9,4.3-5.35,8.92-7.28,13.73"/>
        <path class="cls-3" d="m1207.01,1039.35c-2.32,17.44,2.37,34.96,7.02,51.93,9.59,34.97,19.17,69.94,29.1,104.82,2.37,8.32,4.84,16.8,9.81,23.87s13.01,12.59,21.65,12.24c9.59-.39,17.62-7.81,22.26-16.21,6.88-12.43,8.16-27.25,7.11-41.42s-4.26-28.09-5.79-42.22c-3.53-32.5,2.05-65.94,15.95-95.54,2.39-5.09,4.51-12.27-.17-15.37-1.91-1.26-4.35-1.27-6.63-1.22-19.65.43-39.26,2.15-58.69,5.13-8.83,1.35-17.96,4.13-26.87,4.22-8.66.1-13.29-1.23-14.75,9.77Z"/>
        <path class="cls-3" d="m1258.34,1209.99c-1.58-1.67-3.18-3.37-4.27-5.39s-1.65-4.44-.99-6.65c.46-.01.92-.02,1.38-.03"/>
        <path class="cls-3" d="m1234.83,1130.56c-1.41-2.01-3.04-4.14-5.36-4.72-3.24-.81-6.52,1.9-7.7,5.17-1.19,3.26-.82,6.89-.43,10.37,2.22,19.95,4.44,39.89,6.66,59.84,1.76,15.87,3.53,31.75,4.35,47.7.45,8.85.62,17.79,2.58,26.41,4.88,21.46,20.1,38.39,34.74,54.23,1.32,1.43,2.71,2.9,4.5,3.54,1.95.69,4.1.29,6.05-.41,10.86-3.86,17.27-15.6,20.93-27,7.18-22.41,7.52-46.57,6.41-70.18-.31-6.62-.73-13.23-1.15-19.84-.48-7.53-.95-15.06-1.43-22.59-.39-6.1-.88-12.53-4.17-17.58-2.31-3.54-5.8-6.04-9.33-8.22-8.51-5.25-17.78-9.14-27.4-11.49-1.87-.46-3.96-.83-5.62.19-2.48,1.51-2.31,4.84-1.89,7.39-3.03.85-18.8-28.62-21.74-32.81Z"/>
        <path class="cls-3" d="m1266.07,1314.29c-7.14-11.21-15.46-21.67-24.77-31.16-2.48-2.52-5.91-5.18-9.19-3.87-2.98,1.18-3.91,5.11-3.16,8.23.74,3.12,2.65,5.83,3.77,8.83,2.45,6.59.92,13.9.84,20.93-.16,14.33,3.86,30.33,3.85,44.66,0,6.11,1.21,17.54,0,23.54-1.58,7.82-3.91,8.58-9.72,14.06-3.81,3.59-8.82,5.55-13.7,7.43-5.62,2.16-11.23,4.33-16.85,6.49-.92.36-2.01.93-2.03,1.91-.01.56.34,1.05.69,1.48,3.97,4.8,10.28,7.24,16.5,7.56,6.22.32,12.39-1.28,18.23-3.42,17.72-6.5,33.98-18.88,41.51-36.19,1.88-4.33,3.2-8.88,4.25-13.48,1.8-7.85,2.87-15.95,2.15-23.97-.65-7.22-2.75-14.3-6.15-20.7"/>
        <path class="cls-3" d="m1289.21,1303.07c-7.82,2.24-16.26,4.92-20.87,11.63-3.24,4.72-4.01,10.7-4.01,16.42s.66,11.48-.1,17.15c-.71,5.26-2.64,10.28-4.55,15.23-2.56,6.63-5.32,13.55-10.72,18.17-3.6,3.07-8.29,5.05-10.81,9.06-1.49,2.37-2.04,5.2-2.94,7.85-2.31,6.8-6.98,12.56-9.7,19.2-.56,1.36-.87,3.26.4,4,.22.13.47.2.71.27,5.57,1.58,11.64,1.33,17.06-.7,2.23-.84,4.35-1.96,6.6-2.74,6.35-2.2,13.91-1.77,18.99-6.18,3.52-3.07,5.24-8.06,9.32-10.32,2.47-1.37,5.82-1.79,7.08-4.32.44-.89.53-1.91.62-2.89.23-2.69.45-5.39.68-8.08.46-5.51.69-11.76-3.13-15.77-1.73-1.82-4.08-2.89-6.37-3.93-1.43-.65-2.87-1.3-4.3-1.95"/>
        <path class="cls-3" d="m1290.41,1290.63c-1.1-1.61-3.64-.66-5.13.59-7.02,5.86-10.45,14.83-14.2,23.17-3.03,6.74-6.47,13.37-8.19,20.55s-1.55,15.18,2.33,21.46c2,3.24,4.94,5.97,6.11,9.59,2.26,6.99-2.79,14.52-1.49,21.74.75,4.17,3.53,7.68,6.53,10.67.53.53,1.12,1.17,1.04,1.91-.07.66-.64,1.16-1.21,1.51-1.47.91-3.18,1.37-4.74,2.12-1.56.75-3.07,1.93-3.51,3.61-.44,1.67.72,3.78,2.45,3.76.42,0,.83-.13,1.22-.25,10.76-3.43,19.82-11.83,24.05-22.3,1.18-2.93,2.01-6.1,1.63-9.24-.21-1.7-.76-3.33-1.15-5-2.55-10.7,1.4-21.72,3.79-32.46.48-2.13.89-4.28,1.04-6.46.09-1.41.07-2.83.28-4.24.3-2.06,1.08-4.01,1.78-5.97,1.47-4.1,2.64-8.53,1.66-12.78-.44-1.91-1.29-3.69-1.84-5.57-.69-2.38-.88-4.91-.55-7.37.29-2.11.95-4.17.91-6.3-.04-2.12-1.02-4.44-3.01-5.2-2.99-1.15-5.93,1.7-7.72,4.36-2.9,4.3-5.35,8.92-7.28,13.73"/>
        <path class="cls-4" d="m1242.34,185.92c-1.4,8.56-2.65,17.14-3.73,25.75-.44,3.46-.85,6.94-.88,10.43-.04,5.07.72,10.1,1.64,15.08,2.78,14.9,7.08,29.52,12.82,43.56,2.47-10.75-.76-22,.32-32.98.33-3.33,1.05-6.61,1.27-9.94.2-3.07-.02-6.15.22-9.22.42-5.38,2.25-10.56,2.98-15.9.78-5.71.29-11.54-.72-17.22-.45-2.55-1.03-5.14-2.47-7.29s-3.92-3.78-6.49-3.51-4.84,2.93-4.11,5.41"/>
        <path class="cls-4" d="m1264.95,79.94c-6.02,2.79-12.08,5.6-17.41,9.56-10.6,7.87-17.71,20.11-19.94,33.12-1.13,6.6-1.07,13.35-.91,20.05.17,7.17.46,14.34.85,21.51.33,5.9.75,11.88,2.68,17.47.47,1.35,1.1,2.77,2.34,3.49,1.28.74,2.86.54,4.33.45,4.87-.29,9.81.87,14.04,3.31.74.43,1.52.91,2.37.88.35-.01.69-.11,1.03-.2,6.64-1.9,13.27-4.14,19.11-7.83,9.67-6.11,16.51-15.78,22.19-25.71,7.38-12.9,13.23-26.67,17.4-40.94.77-2.63,1.6-5.46,3.77-7.12,1.1-.85,2.45-1.3,3.77-1.75,12.2-4.14,24.12-9.11,35.66-14.85,2.95-1.47,6.29-3.66,6.22-6.95-.03-1.48-.8-2.85-1.74-3.99-4.39-5.35-11.99-6.53-18.89-7.06-9.1-.71-18.24-.95-27.37-.72-4.7.12-9.63.31-13.83-1.82-.91-.46-1.79-1.04-2.79-1.24-.94-.19-1.92-.03-2.87.13-6.28,1.14-12.89,1.69-19.03,3.22,2.98,1.41-2.14,2.89-3.33,3.44-2.55,1.19-5.1,2.37-7.65,3.55Z"/>
        <path class="cls-4" d="m1314.34,57.08c-10.99,3.18-21.3,9-29.21,17.27-2.1,2.19-4.08,4.65-4.85,7.59-.18.68-.29,1.43-.03,2.09.38.97,1.43,1.49,2.42,1.83,4.28,1.43,8.93.99,13.44,1.19,5.25.23,10.45,1.37,15.32,3.33,1.37.55,2.76,1.21,3.69,2.35,2.24,2.75.93,6.78.95,10.32.04,7.52,6.5,13.45,13.14,16.98,11.74,6.26,25.28,8.2,38.56,8.92,5.61.31,11.31.4,16.77-.95,5.45-1.35,10.7-4.31,13.78-9.01,3.22-4.92,3.73-11.25,2.5-17.01-1.23-5.75-4.03-11.04-7.05-16.09-6.43-10.75-14.4-21.54-25.81-27.36-3.59-1.83-7.12-2.3-11.07-2.75-6.52-.75-12.9-1.82-19.5-1.83-7.78,0-15.57.97-23.05,3.13Z"/>
        <path class="cls-4" d="m1353.88,115.33c-5.43-1.33-10.6-3.56-16.02-4.89-5.43-1.33-11.36-1.68-16.42.68-.41.19-.83.41-1.1.78-.52.72-.28,1.72-.02,2.58.83,2.72,1.7,5.5,3.37,7.8.85,1.16,1.89,2.17,2.84,3.25,4.18,4.76,6.59,10.79,10.25,15.96,2.56,3.62,5.7,6.78,8.83,9.92,6.08,6.1,12.17,12.22,18.91,17.58,3.6,2.87,7.44,5.54,11.77,7.09,2.52.9,5.16,1.4,7.71,2.2,3.41,1.06,6.89,2.67,10.41,2.04,3.6-.64,6.38-3.5,8.52-6.46,1.96-2.7,3.62-5.65,4.6-8.85,1.65-5.36,1.29-11.11.76-16.69-.88-9.31-2.21-18.58-3.97-27.76-.93-4.84-2.08-9.86-5.24-13.63-.34-.4-.72-.8-1.23-.95-.66-.19-1.35.1-1.96.41-2.98,1.52-5.61,3.71-7.64,6.37-3.3,4.33-7.34,7.82-13.24,7.1-3.34-.41-6.61-1.82-9.94-2.45-3.72-.7-7.5-1.18-11.19-2.08Z"/>
        <path class="cls-4" d="m1390.14,202.96c-.15,3.61-.8,7.17-1.37,10.74-3.64,22.57-4.43,45.6-2.36,68.36.21,2.33.42,4.83-.71,6.88,2.2-5.04,4.4-10.08,6.61-15.13,1.64-3.76,3.29-7.52,4.57-11.42,1.35-4.12,2.29-8.37,3.08-12.63.94-5.07,1.67-10.18,2.19-15.32,1.71-16.78,1.27-34.1,7.17-49.91.5-1.35,1.06-2.71,1.16-4.14.17-2.27-.81-4.46-1.76-6.53-1.36-2.97-2.73-5.94-4.09-8.91-.12-.27-.26-.56-.52-.7-.32-.17-.71-.07-1.05.04-4.74,1.57-12.3,6.52-14.15,11.51-1.49,4.01-.54,8.37.03,12.46.67,4.88,1.41,9.77,1.2,14.7Z"/>
        <path class="cls-4" d="m1374.76,271.64c-.22,8.97,1.72,17.86,1.97,26.83.07,2.64.38,5.89,2.82,6.9.87.36,1.84.33,2.77.25,3.05-.25,6.09-.91,9.15-.72,2.66.17,5.25.99,7.91,1.1,6.84.28,13.15-4.3,16.8-10.09,3.65-5.79,5.13-12.65,6.43-19.37.61-3.18,1.2-6.42.83-9.64-.34-3.01-1.5-5.85-2.64-8.65-2.3-5.62-5.14-11.8-10.78-14.05-1.76-.7-4.07-1.35-4.33-3.23-.1-.68.13-1.39-.05-2.06-.34-1.31-1.94-1.76-3.28-1.98-2.07-.35-4.3-.67-6.18.26-3.57,1.77-4.17,6.43-7.03,8.89-2.32,2-5.16,2.26-7.35,4.7-4.92,5.49-7.04,13.61-7.04,20.86Z"/>
        <path class="cls-4" d="m1418.63,164.68c-4.13-3.07-8.87-6.3-13.95-5.52-.02,5.04-.03,10.16,1.38,14.99.8,2.75,2.07,5.63,1.26,8.38-.17.56-.41,1.18-.14,1.7.17.34.53.54.87.7,2.83,1.37,6.17,1.56,8.83,3.25,1.04.66,1.94,1.54,2.71,2.5,2.57,3.21,3.72,7.38,3.91,11.49.19,4.11-.51,8.2-1.3,12.24-1.45,7.39-3.4,15.09-8.54,20.59-3.46,3.7-8.35,6.42-10.02,11.2-.37,1.07-.56,2.24-.31,3.34.21.93.73,1.76,1.26,2.56,1.78,2.64,3.87,5.07,6.22,7.22,3.77,3.45,8.47,6.58,9.68,11.55.11.46.22.98.6,1.27.44.33,1.05.22,1.58.06,3.96-1.18,7.24-4.12,9.41-7.63s3.33-7.57,4.02-11.64c1.49-8.86.87-17.92.25-26.88-.23-3.23-.45-6.46-.68-9.69-.21-3.06-.43-6.12-.86-9.16-1.31-9.1-4.6-17.78-7.86-26.38-.58-1.53-1.17-3.07-2.09-4.42-2.87-4.23-8.77-6.37-10-11.32.3.47.59.95.89,1.42"/>
        <path class="cls-4" d="m1416.58,240.95c2.15-3.18,4.31-6.38,5.87-9.88.28-.64.55-1.31.51-2.01-.05-.7-.5-1.41-1.19-1.54-.57-.1-1.13.22-1.62.52-3.74,2.32-7.51,4.66-10.69,7.69-1.79,1.7-3.51,3.69-5.9,4.3-1.67.42-3.81.29-4.68,1.77-.95,1.62.69,3.71,2.52,4.16s3.75-.04,5.63.06"/>
        <path class="cls-4" d="m1419.38,198.04c1.5,3.36,3.42,6.52,5.34,9.67.59.97,1.23,1.98,2.23,2.5.55-4.07-.14-8.3-1.94-11.99-.79-1.62-4.48-9.91-6.32-10.2-2.83-.47.12,8.74.69,10.02Z"/>
        <path class="cls-4" d="m1421.86,174.88c-.59-2.18-1.18-4.36-1.77-6.54-.24-.9-.51-1.85-1.16-2.52-.98-1.01-2.6-1.14-3.94-.72-.65.2-1.36.68-1.3,1.35.03.39.31.7.58.98,1.35,1.41,2.76,2.76,4.22,4.06"/>
        <path class="cls-4" d="m1426.2,264.23c.19-.67-.57-1.29-1.26-1.24-.69.05-1.26.53-1.77,1-2.16,2-4.14,4.18-5.92,6.53-1.15,1.53-2.26,3.25-2.28,5.17-.02,3.26,3.1,6.17,2.31,9.33-.57,2.26-2.88,3.52-4.73,4.95-2.62,2.03-4.54,4.8-6.43,7.53-.6.87-1.21,1.75-1.81,2.62-1.06,1.54-2.14,3.09-2.77,4.85,10.57,1.03,20.68,4.86,31.17,6.53,1.01-13.31,1.19-26.68.53-40.01-.14-2.82-.31-5.67.1-8.47.35-2.36.85-5.37-1.19-6.63-1.89-1.17-4.3.33-5.82,1.96-2.27,2.43-4.08,5.29-5.28,8.38"/>
        <path class="cls-4" d="m1431.56,265.45c-.21,1.51-.32,3.08.12,4.54.3.98.91,1.91,1.72,2.52.39.29.84.51,1.32.62.17-1.56.35-3.12.52-4.67.19-1.72.86-4.19-1.27-4.99-1.77-.67-2.18.37-2.41,1.98Z"/>
        <path class="cls-1" d="m1282.11,393.24c.81,5.99,5.56,10.7,10.65,13.95,5.09,3.26,10.8,5.58,15.44,9.45,5.02,4.19,8.48,9.96,11.19,15.9,7.93,17.38,10.11,36.73,12.19,55.72,1.57,14.31,3.14,28.74,1.84,43.08-1.78,19.7-9.08,38.87-20.86,54.76-2.81,3.79-5.99,7.5-10.23,9.58s-9.76,2.16-13.32-.93c-4.69-4.07-4.21-11.34-3.49-17.51,4.56-39.18,2.6-78.8.64-118.2-.89-17.9-1.79-35.82-3.66-53.65-.1-1-.11-2.22.75-2.75.86-.52,2.04,1.11,1.07,1.39"/>
        <path class="cls-1" d="m1278.62,393.93c1.47,8.54,2.94,17.14,2.88,25.81-.03,4.19-.42,8.37-.4,12.56.03,6.99,1.22,13.93,1.48,20.92.18,4.7-.06,9.41.14,14.11.31,7.52,1.72,14.94,3.13,22.33,8.53-4.94,11.37-15.95,18.48-22.79,3.37-3.25,7.7-5.48,12.3-6.35,1.74-.33,3.56-.46,5.27-.01,1.92.51,3.59,1.72,5.04,3.07,4.37,4.05,7.33,9.6,8.23,15.49,5.76-2.52,9.03-8.53,11.93-14.11s6.27-11.56,12.1-13.92c.83-.34,1.71-.6,2.41-1.16,1.62-1.31,1.69-3.71,1.79-5.8.49-9.48,4.72-18.54,4.69-28.03-.01-3.98-.78-7.96-.38-11.93.31-3.17,1.37-6.27,1.21-9.45-.09-1.94-1.06-4.23-2.99-4.42-.82-.08-1.61.25-2.35.62-5.48,2.72-9.57,7.56-14.39,11.33-7.92,6.19-18.09,9.27-28.11,8.96-4.76-.15-9.42-1.22-14.02-2.37-4.18-1.05-7.3-3.78-10.88-6.05-5.53-3.51-11.42-6.48-17.56-8.81Z"/>
        <path class="cls-1" d="m1302.38,503.75c-2.18-6.84-4.37-13.68-6.55-20.53-.43-1.35-1-2.85-2.3-3.41-1.99-.85-4.03,1.1-5.15,2.94-2.72,4.45-4.24,9.63-4.37,14.84-.1,4.03.62,8.11-.07,12.08-.29,1.68-.83,3.32-1.06,5.01-.54,3.99.67,7.99,1.87,11.84,1.3,4.16,2.59,8.32,3.89,12.48.24.78.58,1.67,1.36,1.94,1.2.42,2.24-.92,2.79-2.07,4.72-9.84,7.93-20.4,9.49-31.2.44-3.04.72-6.28-.57-9.07"/>
        <path class="cls-1" d="m1327.57,453.06c-3.6.43-7.3,1.72-9.58,4.54-2.86,3.52-2.86,8.48-2.62,13.01.96,17.9,3.67,35.71,3.55,53.63-.03,4.64-.32,9.51-2.74,13.47-1.65,2.69-4.31,5.12-4.23,8.27.09,3.43,3.41,5.83,6.58,7.16,3.58,1.5,7.41,2.36,11.29,2.56,2.4.12,4.86-.03,7.1-.92,8.45-3.37,10.2-15.32,18.05-19.92.59-.35,1.25-.68,1.58-1.28.19-.35.26-.75.32-1.15.63-4.08,1.26-8.16,1.89-12.24,1.14-7.39,2.28-14.83,2.07-22.3-.07-2.49-.29-4.97-.34-7.47-.07-3.49.2-6.98.47-10.46.26-3.28.51-6.55.77-9.83.33-4.25.67-8.54,1.97-12.6.65-2.02,1.54-3.98,1.9-6.07s.12-4.42-1.27-6.02c-1.37-1.58-3.64-2.18-5.71-1.89s-3.96,1.35-5.62,2.63c-3.06,2.35-6.01,9.02-10.09,9.04-1.93.01-4.02-1.16-5.88-1.61-3.08-.73-6.31-.92-9.46-.55Z"/>
        <path class="cls-1" d="m1334.64,550.12c-3.46-1.39-7.46-.78-10.84.79s-6.25,4.03-9.08,6.45c-1.56,1.33-3.13,2.69-4.26,4.4-1.82,2.76-2.3,6.15-2.74,9.43-.35,2.58-.69,5.16-1.04,7.75-.17,1.29-.36,2.63-1.08,3.71-.84,1.27-2.3,2.01-3.75,2.48-2.78.91-5.8,1.04-8.65.4-.95-.22-1.97-.52-2.88-.15-1.59.64-1.8,2.76-1.75,4.47.56,19.12,2.18,38.18,3.79,57.24.04.51.09,1.03.37,1.46.56.87,1.79.96,2.83.92,5.23-.24,10.51-1.57,15.63-.47,2.02.43,4,1.24,6.06,1.14,1.52-.08,2.96-.65,4.45-.97,9.48-2.02,19.11,6.37,28.43,3.73.59-.17,1.2-.4,1.59-.87.34-.42.48-.97.59-1.49,2.45-11.84-1.02-24.05-4.93-35.49s-8.36-23.09-7.92-35.18c.13-3.54.68-7.11.14-10.61-.82-5.27-4.01-9.86-5.57-14.95-.66-2.15-1.03-4.4-1.95-6.46s-2.51-3.97-4.7-4.53"/>
        <path class="cls-1" d="m1340.07,536.74c-.48-.82-1.59-1.09-2.51-.85-.92.24-1.68.88-2.35,1.55-4.34,4.3-6.43,10.32-8.25,16.15-.58,1.86-1.15,3.75-1.21,5.69-.14,4.03,1.86,7.77,3.48,11.47,1.56,3.59,2.8,7.32,3.7,11.13.63,2.68,1.09,5.47.56,8.17-.58,2.98-2.29,5.59-3.62,8.31-1.24,2.54-2.18,5.24-2.78,8-.26,1.22-.46,2.5-.14,3.71.36,1.33,1.3,2.41,2.21,3.44,3.08,3.47,6.42,7.11,10.91,8.33,1.28.35,2.62.48,3.86.97,1.58.63,2.91,1.8,3.9,3.18.49.68.93,1.43,1.63,1.87.71.45,1.79.44,2.24-.27.2-.31.23-.7.26-1.07.76-9.51,1.51-19.03,1.82-28.56.1-3.12.15-6.25.65-9.34.34-2.09.88-4.15,1.18-6.25.92-6.42-.43-12.91-.91-19.38-.18-2.43-.23-4.9.18-7.3.24-1.41.64-2.79.86-4.2.36-2.31.23-4.66.05-6.99-.26-3.48-.61-6.96-1.06-10.42-.2-1.55-.5-3.25-1.72-4.23-1.15-.92-2.77-.9-4.24-.79-5.12.37-10.2,1.3-15.12,2.75-.99.29-2,.62-2.79,1.28-1.89,1.57-1.92,4.41-1.8,6.86"/>
        <path class="cls-1" d="m1402.48,674.95c-.34.81-.84,1.75-1.72,1.81-.47.03-.92-.22-1.33-.46-3.02-1.79-6.03-3.59-9.05-5.38-1.38-.82-2.78-1.65-4.31-2.15-2.23-.73-4.63-.73-6.97-.85-8.16-.41-16.16-2.33-24.1-4.24-1.06-.26-2.2-.55-2.92-1.37-1.13-1.28-.79-3.24-.39-4.91.73-3.01,1.46-6.02,2.18-9.04.09-.38.2-.78.48-1.05.37-.36.95-.38,1.46-.38,5.68.08,11.26,1.4,16.78,2.71,5.67,1.35,11.34,2.69,17,4.04,4.76,1.13,12.9,1.94,16.42,5.72,3.56,3.79-1.94,11.71-3.53,15.55Z"/>
        <path class="cls-1" d="m1410.45,657.78c-2.35-.99-4.71-1.99-7.06-2.98-.73-.31-1.48-.62-2.27-.7-1.77-.18-3.59.97-4.18,2.65-.15.41-.22.87-.08,1.29.2.56.75.9,1.27,1.17,1.95,1.03,4.07,1.76,6.24,2.14.43.08.89.14,1.3-.01.74-.26,1.13-1.09,1.21-1.87.08-.78-.06-1.58.02-2.36"/>
        <path class="cls-1" d="m1221.72,650.42c6.43-1.1,12.98-1.52,19.5-1.25.63.03,1.28.05,1.85-.22.56-.27.98-.96.73-1.53-.22-.5-.81-.71-1.34-.85-5.62-1.57-12.07-2.55-17.32-5.13-1.78-.87-2.86-2.41-3.61-.27-.29.82.66,9.16.19,9.25Z"/>
        <path class="cls-5" d="m1177.22,329.63c-6.19-1.99-13.12,1.15-17.36,6.08s-6.31,11.32-8.02,17.59c-15.49,56.63-9.87,118.31,12.99,172.39,6.46,15.28,14.67,30.49,27.9,40.5s32.56,13.5,46.49,4.5c6.85-4.43,11.76-11.37,15.28-18.74,5.3-11.1,7.77-23.3,10.19-35.36,1.8-8.95,3.59-17.89,5.39-26.84,1.45-7.2,2.9-14.45,3-21.79.27-18.29-7.78-35.98-7.17-54.26.52-15.69,7.41-30.88,6.33-46.55-.54-7.85-3.07-15.59-2.43-23.43,1.21-14.62,13.06-26.33,16.11-40.69.26-1.2.44-2.48,0-3.63-.88-2.3-3.76-3.01-6.21-3.2-8.55-.69-17.28.84-25.08,4.4-2.02.92-2.58,5.12-.66,4.01"/>
        <path class="cls-5" d="m1168.09,338.31c-.21-.31-.74.14-.6.49s.57.48.94.55c30.16,6.17,62.96-2.26,86.42-22.19,3.19-2.71,6.5-6.53,5.41-10.57-.73-2.72-3.38-4.59-6.14-5.16-2.76-.58-5.62-.08-8.36.54-15.37,3.48-29.65,10.9-45.07,14.18-2.4.51-4.85.92-7.14,1.8-3.63,1.38-6.74,3.84-10.2,5.61-3.31,1.69-6.92,2.73-10.18,4.52-3.26,1.78-6.27,4.54-7.07,8.17-.32,1.43-.23,3.03.66,4.19.87,1.14,2.33,1.63,3.71,2,10.84,2.9,22.36,1.99,33.34-.32s21.62-5.97,32.53-8.62c8.35-2.02,17.19-3.6,23.98-8.86,1.35-1.04,2.71-2.59,2.28-4.24-1.6-1.18-3.21-2.37-4.81-3.55"/>
        <path class="cls-5" d="m1161.23,403.59c-1.06,1.33-3.4.62-4.21-.87-.81-1.49-.57-3.31-.29-4.98,2.8-16.89,6.73-33.59,11.75-49.95.31-1.01.63-2.05.49-3.09-.33-2.52-3.01-3.92-5.36-4.9-1.47-.62-3-1.24-4.59-1.17-3,.13-5.28,2.63-7.21,4.93-4.03,4.83-8.07,9.67-12.1,14.5-1.47,1.76-2.95,3.53-4.08,5.52-1.03,1.82-1.76,3.79-2.48,5.76-5.42,14.79-10.9,29.82-11.98,45.53-.69,10.05.43,20.14,1.56,30.15.36,3.22.74,6.5,2.08,9.45s3.84,5.56,7.02,6.19c3.05.6,6.22-.72,8.57-2.75s4.02-4.72,5.65-7.36"/>
        <path class="cls-5" d="m1162.12,341.27c.58-2.11-1.08-4.36-3.16-5.01-2.08-.65-4.38-.03-6.3,1.01-2.81,1.52-5.05,3.88-7.22,6.23-5.65,6.13-11.31,12.86-12.87,21.05-.06.29-.1.6.02.87.2.44.77.56,1.25.55,1.93-.04,3.6-1.29,5.12-2.48,5.08-3.98,10.15-7.96,15.23-11.94,2.76-2.17,5.56-4.37,7.71-7.15,2.15-2.78,3.61-6.25,3.31-9.75"/>
        <path class="cls-5" d="m1184.7,530.88c-.45-15.12-.93-30.41-4.96-44.98-4.04-14.57-12.05-28.59-24.7-36.88-2.1-1.38-4.39-2.61-6.88-2.92-3.82-.47-7.65,1.33-10.48,3.95-2.83,2.61-4.84,5.98-6.81,9.29-1.31-3.16-2.63-6.33-3.94-9.49-2.28,1.04-2.99,3.87-3.42,6.33-2.32,13.11-4.64,26.23-6.97,39.34-.91,5.13-1.82,10.28-2.15,15.48-.44,6.92.16,13.86-.12,20.78-.59,14.7-5.12,29.06-5.46,43.77s4.89,31.1,18.03,37.73c2.34,1.18,4.89,2.01,7.51,2.1,9.45.32,16.46-8.58,25.3-11.94,15.37-5.84,31.97,5.94,48.38,5.07,8.96-.48,17.24-4.7,25.17-8.9,3.64-1.93,7.31-3.89,10.39-6.63,3.69-3.28,6.38-7.53,8.65-11.91,5.34-10.3,8.65-21.64,9.68-33.2.27-3,.38-6.06-.35-8.97-.78-3.11-2.46-5.9-4.15-8.63-2.92-4.72-5.97-9.48-10.23-13.03-8.33-6.93-20.26-8.2-30.82-5.8-10.56,2.41-20.07,8.05-29.23,13.82"/>
        <path class="cls-5" d="m1202.76,634.3c.03-1.36.06-2.71.09-4.07,13.22,2.79,27.17,2.7,40.07-1.3,12.9-4,24.69-12.05,32.28-23.23,1.03-1.52,2.02-3.19,2.08-5.03.05-1.61-.61-3.15-1.42-4.55-5.81-10.04-18.38-13.84-29.92-14.99-27.18-2.71-54.26,4.44-80.7,11.31-3.8.99-7.77,1.97-11.6,1.1-2.45-.56-4.66-1.84-6.8-3.16-4.86-3.01-9.93-6.43-15.64-6.42-5.97.01-11.44,3.98-14.53,9.09-3.09,5.11-4.14,11.2-4.42,17.17-.86,18.24,5.09,36.72,16.43,51.03,4.87,6.15,10.85,11.64,18.1,14.61,2.3.94,4.81,1.63,7.27,1.24,2.37-.38,4.47-1.72,6.39-3.16,5.14-3.85,9.53-8.6,13.68-13.49,6.07-7.13,11.71-14.62,16.9-22.41"/>
        <path class="cls-5" d="m1127.02,645.68c-2.46-1.36-6.1-2.44-7.59-.07-.57.9-.58,2.03-.55,3.09.24,8.02,1.97,15.98,5.08,23.38,1.08,2.57,2.34,5.11,2.85,7.85.37,2,.34,4.05.72,6.04.77,4.06,3.2,7.59,4.53,11.5.63,1.85,1.02,3.8,1.89,5.55,1.94,3.92,5.97,6.35,8.5,9.91,2.72,3.83,3.66,8.9,7.12,12.08,4.57,4.21,11.68,3.56,17.78,2.35,8.07-1.59,16.25-3.79,22.9-8.64,3.44-2.5,6.38-5.67,10-7.9,3.37-2.08,7.37-3.39,9.91-6.42,2.59-3.09,3.16-7.32,4.22-11.2.52-1.91,1.19-3.82,1.2-5.8.01-2.19-.78-4.28-1.49-6.35-5.28-15.48-6.13-32.18-11.34-47.68-.23-.7-.5-1.43-1.07-1.89-.63-.51-1.49-.6-2.3-.63-9.77-.3-18.52,5.59-26.5,11.23-4.29,3.03-8.59,6.05-12.87,9.1-2.84,2.02-6.07,5.18-9.66,5.76-3.94.64-7.46-2.13-10.66-4.01-4.15-2.46-8.66-4.58-12.67-7.25Z"/>
        <path class="cls-5" d="m1154.79,708.41c-4.9-2.59-10.41-3.77-15.91-4.45-.46-.06-.97-.1-1.37.13-.51.29-.7.92-.85,1.5-.57,2.24-1.14,4.59-.62,6.84.45,1.98,1.7,3.66,2.82,5.35,6.59,9.9,9.73,21.62,13.88,32.76,4,10.76,9.01,21.14,14.93,30.97,1.61,2.67,3.31,5.37,3.9,8.43.41,2.11.27,4.31.92,6.35.74,2.32,2.43,4.18,3.86,6.15,3.67,5.05,5.79,11.03,7.87,16.92,9.36-9.76,22.45-15.87,35.95-16.76,4.22-.28,8.51-.08,12.61-1.09,4.1-1.02,8.14-3.57,9.51-7.57.92-2.68.54-5.62.15-8.42-.96-6.82-1.98-13.82-5.35-19.83-1.86-3.3-4.38-6.21-6.05-9.6-4.29-8.69-2.61-19.63-7.8-27.8,2.41-1.34,2.89-4.71,2.09-7.35s-2.55-4.88-3.67-7.39c-1.79-4.03-1.92-8.57-2.88-12.87-1.16-5.24-3.53-10.12-5.88-14.94-.77-1.57-1.69-3.29-3.35-3.84-1.02-.34-2.15-.16-3.19.14-3.31.95-6.18,3.04-8.71,5.37-3.34,3.08-6.2,6.63-9.05,10.17-3.14,3.9-6.36,7.74-9.42,11.69-1.83,2.37-3.19,6.32-5.53,8.16-4.92,3.87-14.43-6.68-18.86-9.02Z"/>
        <path class="cls-5" d="m1216.89,620.17c.27-.41.53-.82.8-1.22-4.29-1.58-9.23-1.26-13.28.87-4.04,2.12-7.12,6.02-8.25,10.44-.11.44-.21.92-.06,1.35.26.76,1.14,1.08,1.9,1.31,7.39,2.2,14.79,4.4,22.18,6.61,3.26.97,6.52,1.94,9.78,2.91,9.62,2.87,19.34,5.75,29.36,6.42,8.51.57,17.09-.49,25.32-2.73,1.33-.36,2.68-.77,3.78-1.59,2.82-2.1,3.19-6.12,3.22-9.63.12-14.8-1.41-29.61-4.58-44.07-1.35-6.18-3.02-12.35-5.95-17.96-2.93-5.61-7.21-10.66-12.81-13.6-6.07-3.19-13.29-3.68-20.04-2.5s-13.13,3.92-19.28,6.94c-14.58,7.16-28.75,16.44-37.54,30.1-1.32,2.06-2.52,4.22-3.26,6.55-1.21,3.8-1.15,7.87-1.08,11.85.02,1.24.36,2.85,1.59,2.97"/>
        <path class="cls-5" d="m1230.87,511.62c-1.42,10.88.73,22.47,7.29,31.27,2.47,3.31,5.49,6.17,7.89,9.53,1.25,1.76,2.34,3.7,2.71,5.82,1.06,6.12-3.85,11.48-5.99,17.31-.65,1.77-1.05,3.69-.71,5.55.7,3.81,4.22,6.34,7.45,8.47,5.26,3.46,10.52,6.92,15.78,10.38,2.6,1.71,5.25,3.45,8.24,4.33s6.41.81,9-.93c1.75-1.18,2.97-3.02,3.87-4.93,3.11-6.56,3.01-14.12,2.86-21.38-.08-3.62-.16-7.24-.23-10.85-.14-6.64-.29-13.27-.67-19.9-1.14-19.77-4.4-39.47-3.69-59.26.21-5.97.78-12.04-.7-17.83-.41-1.61-1.02-3.25-2.24-4.38-2.6-2.42-6.76-1.63-10.11-.45-5.47,1.92-10.37,4.96-15.73,7.07-4.23,1.66-7.51,3.31-10.53,6.92-7.6,9.03-12.97,21.61-14.49,33.26Z"/>
        <path class="cls-5" d="m1250.44,348.65c-1.81,9.88-.8,20.47,4.04,29.27,1.89,3.44,4.35,6.63,5.51,10.38,1.79,5.82.2,12.1-1.79,17.85-2.44,7.06-5.48,13.93-7.31,21.18-1.83,7.24-2.39,15.05.13,22.08,2.11,5.87,6.34,11.36,5.76,17.57-.17,1.76-.72,3.57-.17,5.24.89,2.74,4.16,3.77,6.97,4.4,5.22,1.18,10.63,2.36,15.88,1.29,2.17-11.82,3.53-23.79,4.08-35.8.59-13.1.2-26.32-2.51-39.15-.62-2.94-1.36-5.86-1.84-8.83-.54-3.35-.74-6.75-.92-10.14-1.07-20.86-1-42.25,5.84-61.98,1.18-3.41,2.58-6.94,2.02-10.5-.56-3.56-4.02-6.95-7.48-5.94-4.7,1.37-4.2,6.94-7.08,9.83-2.59,2.59-6.36,2.02-8.93,5.25-6.14,7.73-10.44,18.37-12.2,28Z"/>
        <path class="cls-5" d="m1286.55,297.33c-1.15.12-2.37.28-3.24,1.04-.79.69-1.14,1.74-1.4,2.76-.59,2.33-.83,4.93.34,7.03.28.51.65,1,.68,1.58.04.81-.59,1.63-.27,2.37.19.43.68.68,1.16.68s.92-.21,1.31-.47c1.39-.96,2.07-2.63,2.91-4.11.82-1.45,1.85-2.78,2.9-4.08.32-.39.65-.8.77-1.29.09-.35.07-.72.04-1.08-.06-.92.23-4.24-.51-4.81-.4-.3-1.44.02-1.88.07-.94.1-1.88.2-2.81.31Z"/>
        <path class="cls-5" d="m1361.36,308.01c2.42,8.48,3.87,17.24,4.3,26.05.26,5.37.16,10.79,1.26,16.05,1.17,5.57,3.67,10.77,6.15,15.9,2.73,5.66,5.47,11.34,8.93,16.59,1.36,2.06,2.9,4.12,5.08,5.29,2.85,1.53,6.28,1.27,9.5.98,12.61-1.14,25.22-2.29,37.84-3.43,2.83-.26,5.7-.52,8.38-1.47,6.4-2.27,10.77-8.03,15.66-12.75,3.21-3.1,6.86-5.95,8.87-9.94,2.29-4.53,2.12-9.98.64-14.84s-4.17-9.23-6.83-13.55c-2.67-4.32-5.37-8.68-8.92-12.32-1.85-1.9-3.95-3.6-6.35-4.74-2.46-1.17-5.15-1.72-7.82-2.26-15.14-3.06-30.39-6.14-45.87-6.76-5.91-.24-10.99-.58-16.72-1.85-3.72-.83-15.97-3.48-14.1,3.05Z"/>
        <path class="cls-5" d="m1412.81,388.56c-13.91-9.12-26.6-20.1-37.64-32.55-1.1-1.24-2.47-2.61-4.12-2.39-1.2.17-2.11,1.16-2.8,2.16-2.36,3.38-3.6,7.54-3.48,11.66.17,5.53,2.68,10.7,3.83,16.12,2.07,9.77-.35,19.84-1.82,29.71-2.47,16.55-2.28,33.37-1.77,50.1.18,6,.43,12.13,2.62,17.72,3.9,9.93,13.59,16.74,23.89,19.53,2.83.77,5.85,1.27,8.66.43,2.53-.76,4.61-2.53,6.63-4.23,11.19-9.4,23.11-17.93,35.62-25.49,2.15-1.3,4.57-2.62,7.04-2.13,1.45.29,2.71,1.19,3.83,2.15,2.56,2.21,4.68,4.9,7.4,6.91,2.72,2,6.34,3.26,9.49,2.04,3.35-1.29,5.13-4.87,6.69-8.11,4.96-10.29,10.84-20.14,17.55-29.38,1.96-2.7,4.04-5.45,4.88-8.68.7-2.67.5-5.49.29-8.25-.45-6.05-.91-12.11-1.36-18.16-.5-6.71-1.03-13.52-3.32-19.85-4.09-11.32-13.78-20.21-25.06-24.42-11.27-4.22-23.94-3.99-35.47-.53-5.07,1.52-10.43,4.12-12.35,9.05"/>
        <path class="cls-5" d="m1442.9,332.55c-3.59,1.67-4.33,6.4-4.27,10.36.13,8.25,2.2,17.41,9.08,21.96,4.56,3.02,10.32,3.38,15.49,5.16,6.85,2.36,12.74,7.38,16.16,13.76,1.05,1.96,1.87,4.03,2.99,5.95,1.37,2.33,3.15,4.38,4.59,6.67,1.59,2.53,2.75,5.36,4.69,7.64s4.97,3.99,7.87,3.24c3.64-.94,5.33-5.11,6.02-8.8,2.05-11.06-.07-22.43-2.26-33.47-.57-2.85-1.14-5.72-2.24-8.41-.85-2.08-2-4.03-3.3-5.87-5.88-8.32-14.53-14.2-23.2-19.55-7.93-4.9-16.68-9.66-25.97-9.01-2.48.17-4.99.76-7.1,2.07-4.13,2.56-6.23,7.84-5.42,12.63.82,4.79,4.33,8.93,8.75,10.93"/>
        <path class="cls-5" d="m1454.52,454.46c-1.45-3.89-5.03-6.6-8.74-8.46-9.39-4.71-20.77-5.25-30.56-1.45-15.6,6.06-25.41,21.7-31.1,37.44-7.46,20.63-9.63,43.81-2.27,64.48s25.32,38.16,47.02,41.43c3.43.52,6.94.68,10.36.09,7.01-1.21,13.08-5.49,18.56-10.02,3.71-3.07,7.33-6.37,9.89-10.45,2.35-3.74,3.73-7.99,5.06-12.2,2.21-7.02,4.33-14.08,6.37-21.15,1.39-4.83,2.74-9.72,3.13-14.73.56-7.29-.95-14.57-2.84-21.63-1.85-6.92-4.12-13.82-8-19.84-6.26-9.74-16.19-16.43-25.84-22.84"/>
        <path class="cls-5" d="m1397.07,530.29c-3.52-10.59-5.98-21.53-7.35-32.6-.25-2.04-.47-4.1-1.09-6.06-.5-1.58-1.26-3.06-2.01-4.54-4.12-8.08-8.24-16.15-12.35-24.23-3.24-6.35-6.55-13.04-6.35-20.15-2.78.54-4.71,3.1-5.8,5.72-1.78,4.28-2,9.01-2.19,13.64-1.24,30.08-2.25,60.17-3.26,90.26-.28,8.39-.56,16.79-.84,25.18-.71,21.11-1.42,42.23-2.12,63.34,10.07-5.25,19.49-11.73,28.01-19.24,7.24-6.39,14.02-13.65,22.83-17.6,4.53-2.03,9.45-3.1,13.98-5.13,16.01-7.16,24.59-24.93,28.15-42.11.83-4.01,1.46-8.21.43-12.17-.78-2.99-2.47-5.67-4.35-8.13-11.73-15.34-32.33-23.33-51.34-19.91"/>
        <path class="cls-5" d="m1442.99,584.61c-1.46-2.14-4.02-3.26-6.54-3.86-9.02-2.16-18.69,1.11-26.04,6.76-7.35,5.65-12.72,13.46-17.51,21.4-.25.42-.53.87-.97,1.09-.34.17-.73.18-1.1.19-3.6.08-7.21.16-10.81.25-1.51.03-3.06.06-4.49-.42-3.61-1.21-5.42-5.15-6.82-8.69-2.05-5.17-4.09-10.34-6.14-15.51-2.98-7.54-6.02-15.46-5.08-23.51-3.75,10.33-1.9,21.72-2.29,32.7-.54,15.47-5.63,30.77-3.91,46.16.15,1.37.38,2.79,1.15,3.94,1.24,1.85,3.57,2.56,5.72,3.15,2.14.59,4.27,1.17,6.41,1.76,4.14,1.14,8.31,2.28,12.59,2.68,6.21.58,12.56-.39,18.65.93,3.96.86,7.64,2.66,11.4,4.18,6.25,2.53,12.81,4.32,19.48,5.32.79.12,1.63.22,2.37-.09.8-.34,1.32-1.1,1.8-1.82,5.75-8.67,11.72-18.08,11.43-28.47-.15-5.36-1.98-10.52-3.06-15.77-1.06-5.16-1.41-10.46-1.03-15.71.29-4.02.81-8.63-2-11.52-1.17-1.2-2.76-1.89-4.31-2.52-3.18-1.28-6.41-2.43-9.68-3.44-.25.59-.51,1.19-.76,1.78"/>
        <path class="cls-5" d="m1484.62,603c-1.32-4.08-5.38-6.51-9.13-8.59-5.53-3.06-11.13-6.14-17.24-7.73-6.11-1.59-12.89-1.53-18.43,1.5-6.42,3.51-10.31,10.59-11.51,17.8-1.21,7.21-.07,14.61,1.51,21.75,2,9.04,4.71,17.94,5.95,27.11,4.38,32.31-9.62,63.97-14.44,96.21-.48,3.18-.78,6.71,1.07,9.33.95,1.35,2.39,2.29,3.87,3.02,8.44,4.12,19,1.77,26.48-3.91,7.48-5.68,12.34-14.16,15.96-22.83,3.96-9.49,6.66-19.46,8.63-29.54,1.39-7.12,2.42-14.34,2.31-21.6-.12-7.56-1.49-15.04-2.86-22.49-1.46-7.96-2.95-16.01-6.27-23.39s-8.71-14.14-16.08-17.47"/>
        <path class="cls-5" d="m1449.39,652.94c.37-2.25-1.22-4.43-3.19-5.58-5.44-3.18-12.78.12-16.29,5.36s-4.23,11.78-5.11,18.02c-1.27,9.06-3.05,18.03-4.84,27-.99,4.99-1.98,9.97-2.97,14.96-2.71,13.61-5.41,27.23-8.12,40.84-1.31,6.56-2.62,13.18-2.66,19.87,0,.49.01,1.01.28,1.42.42.62,1.25.73,1.99.86,7.57,1.32,13.42,9.3,21.06,8.48,4.3-.46,7.74-3.67,10.73-6.8,2.46-2.59,4.88-5.28,6.61-8.4,1.63-2.92,2.61-6.15,3.59-9.35,1.91-6.24,3.81-12.49,5.72-18.73,1.78-5.83,3.57-11.7,4.26-17.75.79-6.88.14-13.84-.7-20.72-.74-5.96-1.73-12.17-5.25-17.03-1.43-1.97-3.22-3.65-4.93-5.39-6.56-6.69-12.19-15.31-11.68-24.67-1.19,2.17-2.38,4.34-3.57,6.51"/>
        <path class="cls-5" d="m1414.82,771.63c-.23-1.54-2.32-2.27-3.68-1.5-1.36.76-1.92,2.5-1.74,4.04s.97,2.94,1.78,4.28c2.2,3.65,4.64,7.15,7.25,10.52,2.4,3.1,4.96,6.11,8.05,8.52,1.73,1.35,3.63,2.52,5.11,4.13,1.29,1.4,2.22,3.09,3.11,4.77,3.29,6.2,6.27,12.57,8.9,19.08-2.83.02-5.08,2.42-6.36,4.94-1.28,2.52-1.99,5.35-3.67,7.62-.7.95-1.6,2.16-.99,3.17.24.39.66.63,1.07.85,6.17,3.35,12.34,6.7,18.51,10.05.78.43,1.64.87,2.52.74.84-.11,1.52-.71,2.11-1.31,4.84-4.86,7.39-11.49,9.64-17.97,4.56-13.13,8.45-26.59,9.85-40.43,1.41-13.91.22-28.23-4.79-41.29-1.06-2.76-2.38-5.59-4.76-7.34-3.12-2.3-7.33-2.27-11.2-2.13-5.1.19-10.35.44-14.96,2.61"/>
        <path class="cls-5" d="m1473.11,719.8c-.08-1.08-1.29-1.8-2.37-1.73s-2.04.7-2.91,1.36c-11.2,8.51-15.56,23.25-17.54,37.17-.52,3.68-.91,7.49.14,11.05,1.49,5.02,5.64,8.81,10.12,11.52,2.94,1.78,6.34,3.48,7.53,6.7.58,1.58.53,3.32.32,4.98-.47,3.7-1.72,7.3-3.63,10.51-1.56,2.61-3.64,5.69-2.24,8.4.79,1.52,2.52,2.42,3.19,3.99.65,1.52.15,3.25-.36,4.82-2.31,7.22-4.63,14.44-6.94,21.66.7.99,2.16,1.18,3.29.74,1.13-.44,1.99-1.36,2.79-2.27,7.73-8.77,13.4-19.35,16.43-30.64.7-2.61,1.26-5.26,1.83-7.91,6.17-29.09,12.37-58.73,9.49-88.32-.16-1.69-.37-3.43-1.2-4.91-.49-.88-1.18-1.63-1.91-2.32-5.72-5.4-14.91-7.12-21.83-3.38-6.92,3.73-10.52,13.04-7.19,20.17"/>
        <path class="cls-5" d="m1472.34,555.72c-.56-2.39-4.05-2.09-6.32-1.16-11.32,4.64-21.99,10.83-31.64,18.35-3.24,2.52-6.42,5.25-8.59,8.74-3.32,5.33-3.96,11.88-4.04,18.16-.2,14.74,2.16,29.52,6.96,43.46,1.14,3.32,2.44,6.63,4.47,9.48,3.09,4.34,7.68,7.37,12.32,10,4.34,2.47,8.95,4.81,12.01,8.75,5.17,6.69,4.51,16,4.09,24.44-.32,6.42-.36,12.85-.12,19.27.12,3.31.39,6.81,2.3,9.51,1.82,2.56,4.81,3.97,7.67,5.27,3.75,1.71,7.51,3.41,11.26,5.12.95.43,2.08.86,3,.37.7-.37,1.05-1.17,1.34-1.92,3.45-9.01,4.91-18.64,6.34-28.18,5.87-39.07,11.64-78.99,4.72-117.89-1.38-7.74-3.49-15.83-9.12-21.31-5.3-5.15-13.75-7.16-20.45-4.04"/>
        <path class="cls-5" d="m1487.08,734.91c.75,5.84,1.5,11.68,2.26,17.51,1.56.34,2.78-1.28,3.5-2.7,1.24-2.46,2.33-5,3.24-7.6,4.84-13.82,4.82-28.89,4.42-43.35-.13-4.82-1.57-11.62-7.58-7.57-5.4,3.63-6.69,11.06-7.27,17.02-.87,8.91.29,17.86,1.43,26.69Z"/>
        <path class="cls-5" d="m1489.86,626.55c-.23,21.47-.47,42.95-.7,64.42-.02,2.04-.04,4.12.64,6.04.67,1.92,2.18,3.68,4.18,4.07,3.29.64,6.08-2.5,7.43-5.56,1.91-4.33,2.53-9.11,3.11-13.81,1.85-15.08,3.51-30.21,3.62-45.4.03-4.01-.43-8.74-3.86-10.82-3.12-1.89-7.38-.49-9.86,2.19s-3.59,6.3-4.63,9.8"/>
        <path class="cls-5" d="m1477.08,513.62c-3.2.06-6.17,1.94-8.21,4.41s-3.28,5.5-4.32,8.53c-6.54,18.9-6.69,39.94-.42,58.93,1.37,4.16,3.1,8.32,6.07,11.54s7.39,5.38,11.71,4.67c2.12-.35,4.08-1.35,6.17-1.81,2.1-.46,4.58-.22,5.94,1.43.85,1.03,1.1,2.42,1.3,3.74.97,6.57,1.26,13.24.85,19.86-.37,5.94-1.19,12.33,1.83,17.46,1.05,1.78,3.18,3.44,5.01,2.48,1.2-.62,1.65-2.08,1.96-3.4,4.83-20.64,2.14-42.27,4.49-63.33.6-5.39,1.54-10.76,1.78-16.18.21-4.72-.11-9.45-.44-14.17-.59-8.7-1.19-17.39-1.78-26.09-.51-7.44-1.02-14.92-2.73-22.19-1.36-5.8-3.49-11.45-6.66-16.49-2.05-3.26-5.5-6.6-9.19-5.51-1.69.5-2.98,1.84-4.1,3.19-9.81,11.88-12.44,29.27-6.57,43.53"/>
        <path class="cls-5" d="m1491.3,395.94c.32-2.22-2.32-3.97-4.53-3.6s-3.94,2.08-5.42,3.77c-13.67,15.71-19.46,36.86-21.59,57.57-.46,4.51-.63,9.54,2.26,13.04,2.26,2.75,5.92,3.92,8.57,6.28.96.85,1.83,2.06,1.56,3.31-.18.8-.79,1.43-1.39,1.99-4,3.72-8.75,6.69-12.1,10.99-4.94,6.35-6.24,15.22-3.8,22.88s8.4,14.03,15.68,17.45c1.47.69,3.07,1.28,4.68,1.12,1.75-.17,3.29-1.19,4.75-2.18,3.02-2.05,6.14-4.21,7.95-7.37,1.35-2.35,1.86-5.08,2.98-7.55,1.64-3.61,4.6-6.6,8.19-8.27.51-.24,1.07-.45,1.62-.36.98.17,1.53,1.18,1.95,2.08,2.32,5.05,4.64,10.1,6.96,15.15-3.12-12.21.02-25.01,1.12-37.56.57-6.53.59-13.1.59-19.65.01-16.3-.04-32.6-.09-48.91-.02-5.3-.04-10.64-.97-15.86-.69-3.87-1.88-7.67-1.99-11.6-.05-1.69.1-3.43-.47-5.02-.47-1.31-1.4-2.39-2.3-3.44-2.45-2.84-5.41-5.92-9.15-5.85-3.79.08-6.66,3.37-8.74,6.55-3.7,5.66-6.56,11.86-8.48,18.34-.45,1.52-.84,3.16-.34,4.66s2.28,2.67,3.7,1.97"/>
        <path class="cls-5" d="m1408.66,391.2c-.34,1.22-.59,2.58-.04,3.73.89,1.84,3.39,2.19,5.39,1.78,6.7-1.39,16.29-12.78,11.52-19.84-6.07-9-15.61,9.78-16.87,14.33Z"/>
        <path class="cls-5" d="m1413.26,724.6c.47,5.15.95,10.32.61,15.48-.28,4.32-1.13,8.57-1.72,12.86-1.04,7.66-1.23,15.41-1.15,23.15.01,1.06.02,2.14-.29,3.15-.55,1.8-2.04,3.13-3.4,4.44-8.01,7.7-13.65,17.83-15.99,28.69-3.71-21.67,2.93-43.77,2.19-65.73-.12-3.47-.42-6.95-.15-10.42.49-6.45,2.9-12.58,4.14-18.93,1.55-7.88,1.28-15.94,1.38-23.93.05-3.87-.79-12.97,6.03-10.11,4.95,2.07,5.01,13.28,5.71,17.84,1.19,7.79,1.92,15.65,2.64,23.51Z"/>
        <path class="cls-5" d="m1220.76,959.03c-2.6,6.14-5.4,12.27-9.49,17.53s-9.62,9.64-16.1,11.2c-2.5.6-5.2.76-7.6-.15-2.67-1.01-4.72-3.24-6.22-5.67-4.8-7.78-4.74-17.51-4.52-26.66.52-22.06,1.04-44.11,1.56-66.17.09-3.63.17-7.29.94-10.84.72-3.34,2.04-6.57,2.24-9.98.14-2.42-.28-4.83-.57-7.23-1.31-10.95.21-22.02,1.72-32.95,5.21,5.08,7.63,12.61,13.19,17.31,1.93,1.64,4.24,2.92,5.67,5.01,1.92,2.8,1.91,6.55,3.63,9.48,3.07,5.25,10.32,6.13,14.93,10.08,2.09,1.79,3.59,3.72,6.22,4.73,1.91.73,3.91.4,5.21,2.31,1.34,1.97.98,5.63,1.4,7.9.63,3.42,1.21,6.82,1.48,10.3,1.09,13.93-1.37,27.91-5.39,41.22-2.32,7.69-5.18,15.2-8.3,22.58Z"/>
        <path class="cls-5" d="m1203.03,976.18c-5.22-.56-10.45-1.12-15.67-1.67-1.58-.17-3.27-.32-4.68.42-2.1,1.1-2.82,3.71-3.18,6.05-2.22,14.5,1.2,29.2,4.59,43.47.3,1.28.65,2.64,1.61,3.54,1.14,1.07,2.84,1.22,4.4,1.31,21.7,1.29,43.39,2.58,65.09,3.88,17.46,1.04,35.08,2.07,52.36-.68,17.27-2.75,34.4-9.64,46.46-22.31,6.31-6.64,11.03-14.62,15.38-22.68,4.04-7.49,7.87-15.29,9.14-23.71,2.79-18.51-7.75-37.27-22.97-48.16s-34.37-14.94-53.06-15.84c1.24-2.25,1.43-5.05.5-7.44-1.59-4.12-6.06-6.48-10.42-7.15s-8.81-.01-13.23.01c-10.48.03-20.96-3.57-31.28-1.74-3.14.56-6.46,1.6-9.43.44-2.98-1.16-4.48-5.93-1.67-7.45-10.59-2.81-21.18-5.63-31.76-8.44"/>
        <path class="cls-5" d="m1178.13,876.07c.12,1.76.45,3.59,1.35,5.07.2.32.43.63.69.92.81-.15,1.38-.86,1.82-1.56,1.83-2.94,3.82-7.83.25-10.23-4.53-3.03-4.33,2.64-4.11,5.8Z"/>
        <path class="cls-5" d="m1316.57,921.7c2.59-.4,5.14-1.04,7.61-1.91"/>
        <path class="cls-5" d="m1373.57,884.64c-19.26,3.11-38.83,4.38-58.33,3.79-7.12-.22-14.27-.68-21.37-.06-8.17.71-16.16,2.86-23.89,5.59-3.85,1.36-7.74,2.93-10.78,5.66-6.6,5.94-7.63,15.74-8.17,24.6-.33,5.32-.52,11.08,2.49,15.48,4.63,6.78,14.27,7.14,22.47,7.22,22.64.23,45.24,3.64,66.94,10.1,2.73.81,5.54,1.73,7.61,3.67,2.08,1.94,3.19,5.22,1.82,7.71-.93,1.69-2.74,2.66-4.45,3.55-15.99,8.25-31.97,16.49-47.96,24.74-1.35.7-2.85,1.57-3.19,3.06-.64,2.8,3.09,4.42,5.95,4.67,10.41.92,20.86-.71,31.19-2.32,21.86-3.42,44.26-7.03,63.49-17.97,16.75-9.53,31.04-26.12,31.61-45.39.23-7.71-1.72-15.52-.24-23.09,2.5-12.79,14.32-22.61,15.41-35.6.29-3.45-.13-7.24,1.88-10.07,1.84-2.59,5.58-4.21,5.61-7.38.03-3.16-3.69-4.84-6.79-5.45-11.73-2.32-25.35-.29-32.95,8.94-1.57,1.91-2.85,4.07-4.69,5.72-2.53,2.25-5.87,3.31-9.09,4.35-10.25,3.3-20.37,7.01-30.32,11.11"/>
        <path class="cls-5" d="m1423.3,850.59c-4.08,8.61-10.25,16.85-19.13,20.31-3,1.17-6.19,1.74-9.23,2.78-4.81,1.64-9.15,4.41-13.44,7.15-4.62,2.96-9.25,5.91-13.87,8.87-1.47.94-3.13,2.28-2.87,4.01.15.97.9,1.73,1.65,2.35,6.16,5.09,15.15,5.67,22.75,3.19,7.6-2.48,14.03-7.61,19.85-13.09s11.25-11.43,17.72-16.12c1.88-1.36,4.56-2.59,6.35-1.12,1.43,1.17,1.34,3.33,1.3,5.17-.1,4.99,1.52,10.56,5.93,12.9,5.42,2.88,12.45-.81,15.38-6.2,2.93-5.39,2.86-11.85,2.71-17.99-.07-2.95.33-6.35-.21-9.24-.56-2.98-1.12-2.9-3.88-3.94-3.57-1.34-6.86-2.88-10.25-4.61-3.64-1.85-8.65-4.89-12.83-3.79-4.31,1.15-6.13,5.77-7.93,9.37Z"/>
        <path class="cls-5" d="m1445.83,885.94c1.04-1.37.04-3.52-1.53-4.22-1.57-.7-3.4-.38-5.06.07-11.61,3.1-21.54,11.27-27.9,21.46-6.36,10.2-9.3,22.29-9.62,34.3-.2,7.73.46,16.13-3.95,22.49-3.69,5.32-10.09,7.91-16.1,10.31-15.03,6-30.26,12.79-41.53,24.4-.48.5-.97,1.03-1.15,1.7-.89,3.35,6.14,4.8,5.27,8.16-.21.79-.84,1.39-1.47,1.91-3.43,2.84-7.49,4.79-11.25,7.18-6.31,4-11.82,9.25-16.12,15.35,1.83,2.97,6.01,3.13,9.49,2.92,24.69-1.44,49.33-3.83,73.84-7.15,13.6-1.84,27.23-3.99,40.25-8.34,1.3-.43,2.64-.92,3.58-1.91.84-.88,1.28-2.07,1.65-3.24,3.09-9.66,3.43-19.96,3.58-30.11.15-10.34-.03-21.29-5.45-30.09-5.52-8.97-15.53-14.1-25.39-17.78-8.57-3.2-18.18-5.64-26.72-2.35"/>
        <path class="cls-5" d="m1444.68,876.69c-.51-1.26-2.14-1.75-3.46-1.42s-2.39,1.26-3.4,2.18c-7.79,7.14-14.9,15.51-18.13,25.57s-1.93,22.08,5.39,29.71c1.71,1.78,3.87,3.76,3.47,6.19-.32,1.91-2.11,3.14-3.63,4.33-4.39,3.44-7.62,8.34-9.06,13.73-.41,1.54-.67,3.2-.19,4.72.59,1.85,2.21,3.21,3.95,4.07,4.08,2.02,9.02,1.81,13.04,3.95,5.16,2.74,7.72,8.8,8.39,14.6.67,5.8-.15,11.68.18,17.51.06.97.24,2.1,1.09,2.56,7.87-10.08,9.92-23.39,11.7-36.06,1.74-12.35,3.48-24.7,5.21-37.05.49-3.51.99-7.04.89-10.58-.13-4.57-1.24-9.04-2.05-13.53-1.55-8.66-1.95-17.52-1.19-26.28.17-1.96.39-3.98-.23-5.84s-2.34-3.53-4.3-3.36c-1.47.12-2.67,1.2-3.72,2.24-7.24,7.2-13.4,15.47-18.22,24.46"/>
        <path class="cls-5" d="m1450.02,910.28c.14,1.06.32,2.15.88,3.05.57.9,1.63,1.58,2.67,1.37.86-.17,1.5-.87,2.02-1.57,2.65-3.58,3.68-8.12,4.06-12.56.52-6.01-.03-12.03-.75-17.99-.57-4.74-1.55-7.18-5.06-2.38-5.82,7.98-5.07,20.85-3.82,30.08Z"/>
        <path class="cls-6" d="m1253.08,420.93c-1.85-1.79-3.74-3.6-6.03-4.76-2.29-1.16-5.1-1.59-7.43-.52-1.31.6-2.39,1.63-3.27,2.78-1.8,2.35-2.86,5.39-2.31,8.29,2.9,15.35,26.99,1.89,19.04-5.79Z"/>
        <path class="cls-6" d="m1253.03,497.87c1.24-.88,3.15-.22,3.89,1.1.74,1.33.48,3.04-.3,4.34-.79,1.3-2.03,2.26-3.29,3.1-2.51,1.68-5.38,3.09-8.4,2.96-.72-.03-1.46-.16-2.08-.53-1.14-.68-1.68-2.07-1.8-3.4-.35-3.61,2.03-7.31,5.46-8.49,3.43-1.18,7.58.27,9.53,3.33,1.39-.15,1.16-2.81.12-3.75-1.04-.93-2.64-.85-3.98-.46-1.47.43-2.84,1.18-4.01,2.17-1.25,1.06-2.28,2.47-2.54,4.09-.27,1.62.38,3.44,1.79,4.26,1.42.82,3.55.28,4.15-1.25"/>
        <path class="cls-6" d="m1254.63,494.98c-.75-.33-1.56-.6-2.38-.56-.65.03-1.28.24-1.87.5-1.18.5-2.31,1.17-3.13,2.15-.71.85-1.14,1.89-1.51,2.92-.45,1.27-.82,2.56-1.1,3.88-.22,1.01-.34,2.19.34,2.96.54.62,1.42.78,2.2,1.05,1.4.48,2.72,1.43,4.19,1.3,1.61-.14,2.82-1.53,3.66-2.91,1.21-1.99,2.02-4.21,2.56-6.47.55-2.31-.99-3.95-2.96-4.82Z"/>
        <path class="cls-6" d="m1267.22,570.47c.77-1.87-.66-4.07-2.52-4.86s-3.98-.57-5.99-.33c-1.15.14-2.33.28-3.38.76-.82.38-1.53.95-2.2,1.54-2.36,2.09-4.42,4.72-5,7.82s.69,6.69,3.52,8.06c1.23.6,2.63.74,4,.76,2.07.02,4.32-.3,5.76-1.78.92-.93,1.39-2.21,1.83-3.44,1.24-3.42,2.49-7.08,1.61-10.61-.35.01-.69.23-.84.55"/>
        <path class="cls-6" d="m1316.8,650.1c-1.39,4.05-2.06,8.34-2,12.61.01.56.03,1.14.25,1.65.25.6.72,1.07,1.22,1.47,1.84,1.5,4.11,2.32,6.34,3.12,6.55,2.35,13.42,4.75,20.32,3.83.82-.11,1.66-.27,2.33-.74,1.32-.91,1.66-2.67,1.91-4.25.66-4.33,1.32-8.65,1.99-12.98.12-.79.2-1.72-.37-2.28-.4-.39-.99-.48-1.55-.55l-16.47-2.04c-3.92-.49-7.9-.97-11.79-.29.47.39.95.78,1.42,1.17"/>
        <path class="cls-6" d="m1322.51,651.46c-5.14-2.08-10.78-2.43-16.32-2.75-7.09-.41-14.17-.82-21.26-1.23-7.9-.46-15.8-.92-23.71-.99-12.63-.12-25.27.74-37.77,2.57.58,10.32,1.16,20.74-.55,30.93-.75,4.46-1.93,8.85-2.38,13.35-.37,3.77-.22,7.58.22,11.34,1.78,15.27,8.71,30.27,20.64,39.98,6.47,5.26,14.15,8.83,21.98,11.69,30.68,11.21,64.02,12.15,96.68,12.97,1.67.04,3.42.07,4.91-.7,1.67-.87,2.72-2.6,3.43-4.34,3.25-7.9,1.32-16.91-1.18-25.07,3.55.44,6.53,2.8,9.19,5.19,2.66,2.39,5.33,4.98,8.73,6.09,3.4,1.1,7.79.14,9.31-3.09.43-.91.59-1.92.75-2.91,1.28-7.86,2.56-15.73,3.84-23.59.78-4.82,1.56-9.79.41-14.53-.44-1.82-1.17-3.59-1.3-5.46-.3-4.14,2.25-7.86,4.02-11.61s2.57-8.8-.5-11.59c-1.43-1.3-3.4-1.79-5.28-2.23-17.04-4.02-34.07-8.04-51.11-12.06-1.01-.24-2.63.2-2.19,1.14"/>
        <path class="cls-6" d="m1402.34,677.11c-.68-.58-1.51-1.02-2.4-1.07-1.35-.08-2.63.76-3.41,1.86s-1.17,2.43-1.52,3.74c-.98,3.69-1.77,7.45-1.94,11.26-.16,3.56.22,7.12.6,10.67.5,4.66,1,9.33,1.49,13.99.05.44.11.92.42,1.25.36.38.97.41,1.47.28,2.32-.6,2.9-3.56,3.02-5.95.37-7.12.63-14.25.79-21.38.06-2.7.05-5.6-1.47-7.84"/>
        <path class="cls-6" d="m1259,740.98c-7.06-5.89-14.27-11.59-21.62-17.1-2.75-2.06-6.17-4.2-9.39-3.01-4.05,1.49-4.66,6.94-4.1,11.22,1.47,11.26,6.16,21.79,10.44,32.3,4.72,11.6,9.05,23.8,8.39,36.31-.23,4.34-1.04,8.77.11,12.96,1.33,4.87,5.15,8.67,9.24,11.63,13.57,9.81,30.96,12.53,47.69,13.28,14.18.64,28.41.07,42.5-1.7,2.43-.31,4.97-.64,7.28.19,1.26.45,2.38,1.22,3.55,1.86,5.93,3.22,13.64,2.85,19.22-.93,4-2.7,6.76-6.83,9.43-10.85,3.48-5.26,7.04-10.69,8.31-16.87,1.31-6.38.07-13.09,1.45-19.45.9-4.13,2.88-7.99,3.54-12.16.9-5.72-.73-11.68.56-17.33,1.08-4.73,4.17-8.96,4.44-13.8.31-5.63-3.4-10.89-8.16-13.91s-10.44-4.18-16.01-5.05c-22.81-3.57-46.03-3.21-69.11-2.48-14.28.45-28.77,1.07-42.37,5.48"/>
        <path class="cls-6" d="m1250.7,802.79c2.13-3.23.02-8.32-3.76-9.1-1.84-.38-3.75.12-5.51.78-2.39.89-4.73,2.12-6.37,4.06-1.65,1.94-2.48,4.72-1.61,7.11.87,2.4,3.17,3.92,5.03,5.68,4.87,4.6,7.08,11.85,5.6,18.38-.29,1.28-.71,2.54-.73,3.85-.1,5.1,5.68,9.84,3.49,14.44-1.76,3.71-7.06,3.63-10.47,5.92,2.36,1.29,4.85,2.72,6.06,5.12,1.21,2.4.33,6.02-2.3,6.61,1.83,2.67,1.75,6.5-.2,9.08-2.03-.76-4.56.3-5.45,2.27-.89,1.97-.02,4.57,1.89,5.6,1.02.55,2.2.67,3.35.78,10.47,1,20.93,2,31.4,3,6.62.63,13.24,1.26,19.88,1.55,9.4.41,18.82.12,28.23-.17,5.84-.18,11.68-.36,17.52-.54,7.93-.24,16.06-.52,23.42-3.47-2.73-1.64-4.09-5.25-3.13-8.29.75-2.39,2.77-4.51,2.42-6.99-1.97,1.55-5.42.12-5.71-2.37-.19-1.61.72-3.14,1.71-4.42,5.72-7.47,14.85-11.64,20.94-18.82,5.54-6.52,8.12-14.98,10.57-23.17,1.39-4.64,2.68-10.02-.05-14.03-2.74-4.03-8.29-4.8-13.17-4.95-31.58-.93-63.18,8.68-94.47,4.29"/>
        <g>
          <path class="cls-4" d="m1169.66,1424.24c-10.91,4.67-21.83,9.33-32.74,14-6.19,2.64-13.16,6.2-14.55,12.79-1.2,5.66,2.57,11.44,7.57,14.36,4.99,2.92,10.95,3.57,16.72,3.99,32.98,2.4,66.09-.72,99.01-3.85,4.99-.47,10.01-.95,14.86-2.22,5.71-1.49,11.26-4.09,17.16-4.11,6-.01,12,2.67,17.86,1.37,6.59-1.46,11.21-7.78,12.73-14.35,1.52-6.58.52-13.44-.48-20.11-.99-6.59-1.97-13.18-2.96-19.77-.82-5.46-1.98-11.51-6.44-14.76-.58-.42-1.24-.8-1.96-.79-1.85.01-2.67,2.27-3.26,4.02-2.35,6.92-8.63,11.8-15.22,14.98-6.58,3.18-13.73,5.09-20.22,8.46-4.62,2.4-9.1,5.6-14.3,5.91-4.26.25-8.43-1.5-12.69-1.3-3.87.18-7.52,1.95-11.38,2.2-3.64.23-10.41.07-13.71-1.6-3.5-1.77-2.31-5.65-6.01-6.6-9.31-2.42-21.72,3.84-29.99,7.38Z"/>
          <path class="cls-4" d="m1277.84,1454.14c-9.77-1.94-19.8.79-29.38,3.49-3.1.88-6.21,1.75-9.31,2.63-1.09,1.26-.7,3.32.41,4.57,1.11,1.24,2.75,1.87,4.32,2.42,4.6,1.61,9.3,3.01,14.14,3.53,5.04.55,10.13.13,15.19-.28,37.78-3.08,75.56-6.17,113.34-9.25,6.53-.53,13.05-1.07,19.58-1.6,2.93-.24,6.31-.74,7.81-3.27,1.84-3.11-.37-6.94-.9-10.51-.67-4.52,1.46-9.05,1.11-13.6-.27-3.58-2.06-6.91-2.33-10.49-.21-2.83.55-5.64.75-8.47.57-7.88-3.1-15.38-6.68-22.43-3.48,1.92-4.63,6.33-7.3,9.27-2.72,2.99-6.83,4.24-10.19,6.49-3.24,2.17-5.82,5.28-9.27,7.08-3.69,1.93-7.99,2.17-12.07,3-8.61,1.76-16.48,6.26-25.1,7.98-7.86,1.57-15.98.76-23.96-.06-3.86-.39-8.46-1.34-9.81-4.98,1.69-1.25,3.39-2.5,5.08-3.75-7.01.03-14.02,1.28-20.61,3.69"/>
        </g>
        <g>
          <path class="cls-2" d="m1254.51,189.99c13.68-.46,25.68-8.6,34.05-18.99,8.96-11.11,15.11-24.57,20.25-37.79,3.05-7.85,5.62-15.88,7.7-24.04.52-2.04-2.63-2.9-3.15-.87-3.6,14.07-8.63,27.75-15.09,40.75-5.8,11.67-12.92,23.43-23.95,30.84-5.89,3.96-12.67,6.58-19.8,6.82-2.1.09-2.11,3.35-.01,3.28h0Z"/>
          <path class="cls-2" d="m1240.24,185.52c-.66,7.11-1.32,14.23-1.98,21.34-.65,7.05-1.35,14.12-1.31,21.21.04,6.94.93,13.76,2.74,20.46,1.81,6.7,4.18,13.25,6.38,19.83,2.57,7.67,5.14,15.34,7.7,23.01.68,2.04,3.43,1.17,3.15-.87-1.88-13.35-2.98-26.86-2.14-40.34.82-13.1,3.28-26.05,3.99-39.16.39-7.27.18-14.56-1.06-21.75-.36-2.07-3.5-1.19-3.15.87,2.23,12.92.76,26.1-.83,39.01-.8,6.52-1.65,13.04-2.12,19.6-.48,6.7-.49,13.42-.14,20.12.4,7.54,1.24,15.05,2.3,22.53,1.05-.29,2.1-.58,3.15-.87-2.25-6.73-4.51-13.46-6.76-20.2-2.21-6.62-4.56-13.2-6.54-19.89-1.98-6.68-3.2-13.42-3.38-20.4-.18-6.92.42-13.83,1.05-20.72.73-7.93,1.47-15.85,2.2-23.78.21-2.09-3.06-2.07-3.25,0h0Z"/>
          <path class="cls-2" d="m1235.75,185.18c-3.45-1.24-7.14.59-9.47,3.14-2.41,2.63-3.88,6.02-4.46,9.52-1.3,7.94,1.66,15.65,4.9,22.76.96,2.1,2.01,4.17,3.31,6.08,1.15,1.69,2.56,3.51,4.82,3.42,2.09-.09,2.1-3.35,0-3.26-.86.04-1.43-.98-1.87-1.61-.59-.86-1.14-1.75-1.64-2.66-1.01-1.83-1.87-3.74-2.7-5.66-1.69-3.93-3.25-8.07-3.73-12.35-.41-3.66-.05-7.55,1.63-10.87,1.48-2.92,4.67-6.67,8.36-5.35,1.96.69,2.81-2.46.85-3.16h0Z"/>
          <path class="cls-2" d="m1317.38,179.03c.47,6.66-.29,13.31-2.3,19.68-.98,3.12-2.3,6.07-3.8,8.97-.74,1.43-1.18,2.89-.3,4.37.89,1.5,2.22,2.84,3.31,4.19,1.31,1.64,3.61-.68,2.31-2.31-.53-.67-1.07-1.34-1.6-2.01-.35-.43-1.14-1.09-1.23-1.65-.09-.61.68-1.58.96-2.13.34-.66.66-1.32.96-1.99,1.29-2.81,2.36-5.72,3.17-8.71,1.62-5.98,2.23-12.24,1.79-18.42-.15-2.07-3.41-2.09-3.27.01h0Z"/>
          <path class="cls-2" d="m1351.64,171.9c-.84,3.63-.93,7.34-.32,11.01.13.8,1.06,1.27,1.79,1.17.81-.11,1.4-.78,1.41-1.6.07-3.28-.05-6.56-.36-9.82-.08-.85-.69-1.67-1.63-1.63-.85.04-1.68.72-1.63,1.63.02.49.05.98.07,1.48.04.85.72,1.67,1.63,1.63.85-.04,1.68-.72,1.63-1.63-.02-.49-.05-.98-.07-1.48h-3.26c.32,3.26.44,6.54.36,9.82,1.07-.14,2.14-.29,3.2-.43-.5-2.97-.38-6.3.32-9.27.19-.83-.26-1.81-1.14-2.01-.83-.2-1.8.24-2,1.13h0Z"/>
          <path class="cls-2" d="m1288.38,175.85c-1.57,3.25-.91,7.41,1.84,9.84.5.44,1.15.6,1.78.34.54-.23,1.07-.86,1-1.49-.31-2.76-.92-5.46-1.9-8.07-.25-.65-.82-1.23-1.57-1.2-.73.03-1.37.48-1.57,1.2-.35,1.2-.19,2.46.22,3.63.09.25.19.5.29.75.09.21.18.43.27.64.03.07.19.45.05.11.1.23.19.46.28.69.05.13.09.25.13.38.02.06.04.13.06.19.08.32.1.16.04-.48.14-.24.28-.48.42-.72-.02.02-.04.04-.06.06.38-.16.77-.32,1.15-.48-.02,0-.03,0-.05.01.27.07.55.15.82.22-.01-.01-.03-.02-.04-.03.2.2.39.39.59.59.04.1.09.2.13.3-.05.42-.11.84-.16,1.26,0-.01.01-.02.01-.03-.47.27-.94.54-1.41.81h.04c.85-.04,1.67-.72,1.63-1.63-.04-.85-.72-1.68-1.63-1.63h-.04c-.54.03-1.17.28-1.41.81-.36.79-.28,1.67.44,2.23.68.52,1.64.49,2.26-.13.89-.9.42-2.08.01-3.07-.11-.26-.21-.51-.32-.77-.01-.03-.13-.3-.05-.12s-.04-.09-.05-.12c-.14-.35-.28-.7-.39-1.07-.05-.17-.1-.33-.13-.5,0-.02-.06-.24-.05-.25-.01,0,.02.34.01.06-.01-.19,0-.38,0-.56,0-.22-.07.27-.01.06.03-.1.05-.21.08-.31h-3.15c.46,1.2.84,2.43,1.15,3.69.15.63.29,1.26.4,1.89.05.29.1.59.14.88.02.1.06.45.02.15.03.2.05.39.07.59.93-.38,1.86-.77,2.79-1.15-.25-.22-.48-.46-.7-.72-.15-.17.03-.01.05.07-.01-.06-.12-.17-.16-.23-.09-.14-.18-.28-.26-.43s-.16-.29-.23-.45c-.02-.04-.12-.28-.03-.06.1.24-.02-.07-.04-.12-.11-.32-.21-.64-.28-.97-.03-.15-.04-.3-.08-.44.11.45.01-.04,0-.18-.02-.33-.01-.67.02-1,.02-.26.05-.1-.01.05.02-.06.02-.15.04-.22.03-.16.07-.33.11-.49s.09-.32.15-.48c.02-.07.07-.14.08-.21-.05.32-.06.14.02-.02.37-.77.24-1.8-.59-2.23-.72-.41-1.83-.26-2.22.56h0Z"/>
          <path class="cls-2" d="m1280.16,157.16c-1.06-.61-2.42-.04-2.7,1.16-.28,1.21.64,2.05,1.68,2.4,1.57.53,3.33.19,4.84-.39,2.85-1.1,5.45-2.75,7.7-4.81.65-.59.6-1.7,0-2.31-.65-.65-1.65-.6-2.31,0-1.4,1.28-2.94,2.35-4.67,3.23-.87.45-1.65.81-2.58,1.07-.44.12-.77.19-1.18.2-.27,0-.36.01-.56-.04-.13-.03-.26-.06-.39-.11.08.03.16.08.22.14.14.24.28.48.42.72-.02-.04-.03-.07-.05-.11v.87s.01-.08.02-.12c-.14.24-.28.48-.42.72.03-.03.06-.06.08-.09-.24.14-.48.28-.72.42.04-.01.07-.02.11-.03-.42-.05-.84-.11-1.26-.16.03.02.06.03.09.05.76.44,1.79.18,2.23-.59.48-.75.22-1.78-.55-2.22h0Z"/>
          <path class="cls-2" d="m1342.18,151.2c.37,3.06,2.61,5.4,5.37,6.61,2.94,1.29,6.11,1.45,9.27,1.53,2.1.05,2.1-3.22,0-3.26-2.51-.06-5.06-.11-7.44-1.01-1.59-.6-3.72-2.02-3.94-3.87-.11-.87-.67-1.63-1.63-1.63-.8,0-1.74.75-1.63,1.63h0Z"/>
          <path class="cls-2" d="m1313.76,244.83c4.41-4.47,11.24-5.23,16.55-1.9,1.78,1.12,3.42-1.7,1.65-2.82-6.53-4.09-15.11-3.06-20.51,2.41-1.48,1.5.83,3.81,2.31,2.31h0Z"/>
          <path class="cls-2" d="m1386.37,177.03c2.73,15.09,3.16,30.59,1.28,45.81-.92,7.51-2.33,14.93-2.62,22.5-.29,7.64.14,15.27.11,22.91-.02,4.1-.17,8.21-.65,12.29-.24,2.05-.58,4.08-1.03,6.09-.37,1.67-1.06,3.6.41,4.95.83.77,1.94.54,2.56-.33,4.2-5.82,6.96-12.52,9.01-19.35,2.14-7.13,3.65-14.45,4.87-21.79,2.5-15.13,3.63-30.43,5.34-45.66.97-8.65,2.15-17.28,3.87-25.82.41-2.05-2.73-2.93-3.15-.87-6.02,29.86-5.21,60.82-13.23,90.32-2.07,7.63-4.87,15.08-9.53,21.53.85-.11,1.71-.22,2.56-.33.12.11.06-.11.11-.39.09-.46.22-.93.32-1.39.2-.92.38-1.85.55-2.79.32-1.85.57-3.71.75-5.58.36-3.62.48-7.25.5-10.88.03-7.32-.36-14.64-.14-21.96.23-7.58,1.56-14.99,2.53-22.49.95-7.36,1.37-14.78,1.25-22.2-.14-8.53-1.01-17.04-2.53-25.44-.36-2.06-3.51-1.18-3.14.87h0Z"/>
          <path class="cls-2" d="m1315.69,103.53c-.72,7.11,3.04,13.57,6.93,19.2,4.25,6.15,8.64,12.21,13.22,18.12,8.81,11.37,18.68,22.06,30.63,30.19,6.6,4.49,13.69,7.85,21.23,10.44,1.99.68,2.85-2.47.87-3.15-6.46-2.22-12.57-5.02-18.33-8.71-5.6-3.58-10.76-7.8-15.56-12.39-10.37-9.94-18.91-21.55-27.19-33.24-4.25-6-9.33-12.68-8.53-20.46.2-2.09-3.06-2.07-3.27,0h0Z"/>
          <path class="cls-2" d="m1410.91,188.01c2.28-2.15,6.26,5.91,6.92,7.33,1.64,3.51,2.56,7.39,2.79,11.25.46,7.78-1.99,15.38-6.39,21.76-1.21,1.75-2.57,3.38-4.04,4.9-.63.65-3.66,4.14-4.77,3.21-1.6-1.33-3.92.96-2.31,2.31,4.05,3.37,8.84-2.42,11.26-5.28,3.11-3.67,5.58-7.81,7.27-12.31,3.41-9.11,3.02-19.49-1.34-28.21-1.83-3.67-6.82-11.85-11.7-7.26-1.53,1.43.78,3.74,2.31,2.3h0Z"/>
          <path class="cls-2" d="m1316.65,289.21c11.78,5.1,24.43.69,34.61-5.93,9.84-6.4,18.89-14.31,26.37-23.36,4.18-5.05,7.88-10.48,10.94-16.27.98-1.86-1.83-3.51-2.82-1.65-5.17,9.79-12.15,18.46-20.25,25.99-3.96,3.69-8.18,7.1-12.59,10.23-4.8,3.4-9.91,6.54-15.54,8.37-6.13,2-13.05,2.42-19.07-.19-1.91-.83-3.58,1.98-1.65,2.81h0Z"/>
          <path class="cls-2" d="m1253.72,234.09c1.49,5.19,4.55,9.63,7.64,13.99,3.11,4.39,6.24,8.8,9.93,12.73,3.87,4.13,8.44,7.44,13.04,10.7,4.7,3.33,9.4,6.66,14.39,9.54,5.39,3.12,11.07,5.74,16.92,7.9,1.97.73,2.83-2.43.87-3.15-10.26-3.77-19.46-9.3-28.36-15.58-4.42-3.12-8.93-6.18-12.82-9.96-3.77-3.67-6.92-7.9-9.97-12.18-3.3-4.63-6.89-9.31-8.48-14.86-.6-2.01-3.75-1.15-3.16.87h0Z"/>
          <path class="cls-2" d="m1286.67,276.49c1.49,7.23,2.64,14.53,3.41,21.88.38,3.62.68,7.26.88,10.89.19,3.33.36,6.89-1.01,10.02-.83,1.91,1.98,3.57,2.82,1.65,1.44-3.3,1.67-6.78,1.52-10.34-.17-3.92-.5-7.84-.9-11.74-.8-7.8-2-15.55-3.58-23.23-.42-2.05-3.56-1.18-3.14.87h0Z"/>
          <path class="cls-2" d="m1361.78,275.61c-3.85,14.46-1.55,29.44.54,43.98,2.17,15.12,3.29,30.32,3.81,45.59.3,8.74.44,17.47.58,26.21.03,2.1,3.3,2.1,3.26,0-.24-15.33-.49-30.67-1.58-45.96-.54-7.51-1.3-15.01-2.32-22.47-1.01-7.4-2.23-14.78-2.8-22.23-.62-8.13-.44-16.33,1.67-24.25.53-2.04-2.62-2.9-3.16-.87h0Z"/>
          <path class="cls-2" d="m1284.06,309.95c-9.97,28.58-9.65,59.44-6.65,89.19.86,8.51,1.93,16.99,3.06,25.47.12.88.67,1.62,1.63,1.63.79.01,1.75-.76,1.63-1.63-3.94-29.57-7.46-59.91-2.61-89.59,1.34-8.22,3.33-16.33,6.07-24.19.71-2-2.45-2.85-3.13-.88h0Z"/>
          <path class="cls-2" d="m1252.66,417.45c-3.42-2.84-8.25-4.06-12.52-2.52-4.07,1.46-6.89,5.15-7.4,9.42-.55,4.66,2.47,8.94,6.38,11.22,4.79,2.79,9.88.6,13.58-2.9,2.04-1.93,4.34-3.98,3.89-7.04-.21-1.46-.65-2.9-1.02-4.33-.35-1.37-.94-2.48-2.35-2.96-1.99-.69-2.84,2.46-.87,3.15-.31-.11-.2-.19-.13-.02s.11.35.16.53c.13.46.23.93.35,1.39.23.94.59,1.93.67,2.89.07.83-.36,1.34-.89,1.92-.68.74-1.38,1.47-2.11,2.16-2.62,2.48-6.16,4.41-9.63,2.39-2.78-1.62-5.06-4.53-4.82-7.86.2-2.82,2.06-5.48,4.62-6.64,3.16-1.43,7.15-.67,9.78,1.51,1.61,1.33,3.93-.97,2.31-2.31h0Z"/>
          <path class="cls-2" d="m1276.8,391.29c3.28,5.36,8.52,8.94,13.97,11.84,6.11,3.25,12.46,6.43,19.05,8.6,6.79,2.23,13.85,2.93,20.83,1.17,6.77-1.7,13.18-5.08,19.14-8.63,6.65-3.96,12.89-8.64,18.42-14.07,1.5-1.47-.81-3.78-2.31-2.31-4.71,4.62-9.92,8.67-15.51,12.19-5.51,3.46-11.38,6.71-17.57,8.78-6.54,2.19-13.11,2.3-19.75.45-6.42-1.78-12.45-4.82-18.37-7.81-5.73-2.89-11.64-6.22-15.08-11.85-1.1-1.79-3.92-.15-2.82,1.64h0Z"/>
          <path class="cls-2" d="m1381.33,435.04c-.4.02-.8.04-1.2.06-.72.04-1.38.48-1.57,1.2-.21.75.16,1.4.75,1.84,1.82,1.37,4.09,1.87,6.28,2.31,1.05.21,2.1.41,3.12.72.57.17.9.29,1.3.49.23.11.46.24.68.37.1.06.19.12.29.19.44.29-.19-.17.22.16.68.56,1.64.67,2.31,0,.57-.57.69-1.75,0-2.31-1.9-1.55-4.16-2.2-6.52-2.67-1.08-.22-2.16-.42-3.22-.73-1.09-.32-1.83-.63-2.81-1.36-.27,1.01-.55,2.03-.82,3.04.4-.02.8-.04,1.2-.06.88-.05,1.63-.72,1.63-1.63-.01-.83-.76-1.66-1.64-1.62h0Z"/>
          <path class="cls-2" d="m1374.81,515.16c3.88.21,7.76.43,11.65.64.88.05,1.63-.78,1.63-1.63,0-.92-.75-1.58-1.63-1.63-3.88-.21-7.76-.43-11.65-.64-.88-.05-1.63.78-1.63,1.63-.01.92.74,1.58,1.63,1.63h0Z"/>
          <path class="cls-2" d="m1259.93,495.46c-2.91-2.25-6.64-3.13-10.23-2.2-3.36.87-6.14,3.4-7.5,6.56-.68,1.57-1.09,3.35-.92,5.07.22,2.15,1.55,3.43,3.51,4.15,1.89.69,4.04,1.23,6.04,1.4,2.15.18,3.91-.84,5.37-2.33,1.47-1.5,2.56-3.31,3.26-5.29.74-2.07,1.07-4.49-.06-6.49-1.04-1.82-3.86-.18-2.82,1.65.61,1.08.21,2.5-.14,3.6-.39,1.24-1.03,2.43-1.85,3.45-.7.86-1.69,2-2.86,2.16-.74.1-1.52-.12-2.23-.27-.82-.18-1.64-.38-2.45-.61-.9-.25-2.32-.44-2.51-1.56-.19-1.12.15-2.44.57-3.47.85-2.1,2.62-3.93,4.78-4.68,2.54-.87,5.59-.51,7.75,1.15.7.54,1.63.68,2.31,0,.54-.55.68-1.75-.02-2.29h0Z"/>
          <path class="cls-2" d="m1263.4,567.4c-1.8-1.56-3.73-3.21-6.12-3.73-2.29-.5-4.58.03-6.27,1.7-1.58,1.57-2.53,3.77-3.34,5.81-.86,2.19-1.77,4.85-.97,7.19,1.41,4.11,5.94,6.83,10.11,7.18,4.99.42,8.12-3.55,9.87-7.72,1.62-3.88,3.36-10.3-.78-13.24-.72-.51-1.82-.13-2.23.59-.48.82-.14,1.72.59,2.23.91.65.94,2.1.9,3.1-.07,1.67-.49,3.35-1.03,4.92-.91,2.66-2.61,6.31-5.73,6.83-2.96.49-6.32-1.32-7.98-3.72-1.04-1.51-.76-2.96-.24-4.63.52-1.71,1.22-3.38,2.15-4.91.86-1.41,2.02-2.47,3.78-2.24,1.96.26,3.55,1.7,4.99,2.95,1.57,1.37,3.89-.93,2.3-2.31h0Z"/>
          <path class="cls-2" d="m1367.12,590.14c5.11.5,10.23.78,15.37.85,2.1.03,2.1-3.24,0-3.26-5.13-.07-10.26-.35-15.37-.85-.88-.09-1.63.81-1.63,1.63,0,.95.75,1.55,1.63,1.63h0Z"/>
          <path class="cls-2" d="m1160.1,390.5c4.38,15.83,11.1,31.01,19.91,44.88,2.5,3.93,5.16,7.74,7.98,11.45,1.25,1.65,4.09.03,2.82-1.65-9.82-12.91-17.75-27.25-23.35-42.47-1.58-4.3-2.98-8.66-4.2-13.08-.57-2.02-3.72-1.16-3.16.87h0Z"/>
          <path class="cls-2" d="m1150.44,427.31c7.27,13.6,19.25,24.29,33.48,30.17.82.34,1.79-.37,2.01-1.14.27-.93-.33-1.67-1.14-2.01-13.43-5.55-24.69-15.87-31.53-28.67-.99-1.85-3.81-.2-2.82,1.65h0Z"/>
          <path class="cls-2" d="m1123.87,452.31c-.17-17.6,1.16-35.2,4.06-52.56,1.45-8.71,3.28-17.36,5.49-25.91,2.02-7.83,4.52-15.37,9.32-21.96,9.3-12.77,23.92-20.27,38.2-26.09,15.85-6.46,31.98-12.54,48.36-17.5,16.41-4.98,33.33-8.62,50.53-9.04,1.01-.02,2.03-.04,3.04-.04h1.41s.89.06.94.01c.33-.36-.05.87-.03-.58.16-.38.32-.77.48-1.15.14-.09.29-.18.43-.28-2.06.39-1.19,3.54.87,3.15,1.97-.37,1.71-2.71.44-3.72-1.49-1.19-4.15-.7-5.94-.68-4.51.06-9.02.34-13.51.81-8.98.94-17.86,2.62-26.61,4.8-17.62,4.4-34.66,10.77-51.58,17.28-15.69,6.04-31.9,12.42-44,24.55-5.72,5.73-10.01,12.49-12.71,20.12-3.04,8.58-4.93,17.68-6.69,26.6-3.58,18.18-5.52,36.69-5.76,55.21-.03,2.33-.03,4.66-.01,6.98.02,2.1,3.29,2.11,3.27,0h0Z"/>
          <path class="cls-2" d="m1287.12,67.82c-18.13,6.44-36.43,14.91-49.19,29.81-5.82,6.79-10.42,14.72-12.71,23.4-2.7,10.26-1.68,20.94-.47,31.34,1.41,12.12,3.51,24.18,7.17,35.84.63,2,3.78,1.14,3.15-.87-3.14-10.01-5.16-20.33-6.53-30.72-1.34-10.17-2.84-20.89-.99-31.08,3.22-17.69,16.12-31.78,30.96-41.03,9.21-5.74,19.27-9.93,29.46-13.55,1.99-.69,1.14-3.84-.85-3.14h0Z"/>
          <path class="cls-2" d="m1376.12,258.71c-2.19,13.99-2.4,28.21-.51,42.25.12.88.67,1.62,1.63,1.63.79.01,1.75-.76,1.63-1.63-1.84-13.72-1.74-27.7.4-41.38.32-2.05-2.83-2.94-3.15-.87h0Z"/>
          <path class="cls-2" d="m1414.11,164.73c13.57,13.23,19.17,32.27,20.53,50.72.79,10.75.32,21.54-.32,32.28-.65,10.9-1.37,21.79-2.05,32.68-.78,12.41-1.56,24.82-2.34,37.23-.13,2.1,3.13,2.09,3.26,0,1.4-22.33,2.82-44.65,4.21-66.98,1.29-20.73,2.24-42.19-4.8-62.09-3.46-9.76-8.73-18.89-16.18-26.15-1.5-1.47-3.81.84-2.31,2.31h0Z"/>
          <path class="cls-2" d="m1290.81,71.61c6.21-3.73,12.45-7.49,19.12-10.33,6.37-2.71,13.15-4.61,20.01-5.53,12.99-1.73,26.45.18,38.14,6.2,11.39,5.86,20.02,15.27,25.7,26.67,6.14,12.32,8.69,26.06,9.95,39.67.78,8.41,1.12,16.86,1.54,25.29.43,8.63.86,17.25,1.29,25.88.1,2.09,3.37,2.1,3.26,0-.78-15.76-1.28-31.57-2.5-47.31-1.11-14.29-3.33-28.61-9.15-41.81-5.28-11.98-13.6-22.4-24.87-29.21-11.49-6.93-25.08-9.94-38.43-9.11-7.96.5-15.83,2.25-23.28,5.1-7.91,3.03-15.2,7.33-22.44,11.68-1.78,1.07-.14,3.89,1.66,2.81h0Z"/>
          <path class="cls-2" d="m1182.94,451.71c1.04,23.51,2.52,46.99,4.45,70.45,1.92,23.45,4.29,46.87,7.09,70.23,1.57,13.1,3.28,26.18,5.12,39.24.12.88,1.23,1.34,2.01,1.14.94-.25,1.26-1.14,1.14-2.01-3.28-23.24-6.12-46.53-8.52-69.88-2.38-23.16-4.33-46.36-5.86-69.6-.86-13.18-1.58-26.37-2.17-39.57-.09-2.1-3.35-2.11-3.26,0h0Z"/>
          <path class="cls-2" d="m1279.93,423.68c1.45,29.05,2.84,58.11,4.16,87.17,1.32,28.89,2.57,57.79,3.76,86.69.67,16.28,1.32,32.55,1.95,48.83.08,2.09,3.34,2.1,3.26,0-1.13-29.07-2.32-58.13-3.57-87.19-1.25-28.9-2.55-57.79-3.93-86.68-.77-16.27-1.56-32.54-2.38-48.81-.09-2.1-3.36-2.11-3.25-.01h0Z"/>
          <path class="cls-2" d="m1199.83,634.14c22.03,8.23,45.44,12.7,68.95,13.19,6.65.14,13.31-.05,19.95-.54,2.08-.16,2.1-3.42,0-3.26-23.25,1.74-46.73-.45-69.25-6.51-6.35-1.71-12.62-3.72-18.78-6.03-1.97-.73-2.82,2.42-.87,3.15h0Z"/>
          <path class="cls-2" d="m1366.36,391.9c-3.22,32.88-6.05,65.79-8.48,98.73-2.42,32.78-4.44,65.58-6.06,98.41-.92,18.59-1.71,37.19-2.38,55.79-.08,2.1,3.19,2.1,3.26,0,1.19-33.01,2.77-66.01,4.75-98.98,1.97-32.81,4.34-65.59,7.1-98.34,1.56-18.55,3.26-37.08,5.07-55.61.21-2.08-3.06-2.07-3.26,0h0Z"/>
          <path class="cls-2" d="m1478.78,382.98c-9.61,9.79-19.21,19.59-28.82,29.38-1.47,1.5.83,3.81,2.31,2.31,9.61-9.79,19.21-19.59,28.82-29.38,1.47-1.51-.83-3.81-2.31-2.31h0Z"/>
          <path class="cls-2" d="m1478.42,361.89c-6.43,3-10.47,9.46-14.62,14.92-5.03,6.61-10.05,13.23-15.08,19.84-2.6,3.42-5.34,6.8-7.08,10.76-.83,1.91,1.98,3.57,2.82,1.65,1.9-4.33,4.98-8.01,7.82-11.74,3.13-4.13,6.27-8.25,9.4-12.38,3-3.95,5.97-7.94,9.02-11.85,2.6-3.34,5.45-6.56,9.36-8.38,1.91-.89.25-3.7-1.64-2.82h0Z"/>
          <path class="cls-2" d="m1447.04,424.83c-8.54,29.93-9.56,61.22-12.09,92.05-1.31,15.98-3.38,31.86-5.4,47.76-2.05,16.08-3.75,32.19-4.71,48.37-1.08,18.16-1.36,36.37-.86,54.56.06,2.1,3.32,2.1,3.26,0-.89-32.27.82-64.5,4.76-96.54,1.97-15.99,4.23-31.95,5.67-48,1.38-15.33,2.22-30.7,3.66-46.02,1.62-17.31,4.06-34.58,8.84-51.33.59-2-2.56-2.87-3.13-.85h0Z"/>
          <path class="cls-2" d="m1353.14,646.87c17.44,5.61,36.03,5.89,53.57,11.07,4.92,1.45,9.69,3.31,14.2,5.76,1.85,1,3.5-1.82,1.65-2.82-16.41-8.88-35.28-9.96-53.26-13.37-5.16-.98-10.28-2.17-15.29-3.78-2.01-.65-2.87,2.5-.87,3.14h0Z"/>
          <path class="cls-2" d="m1431.57,665.18c3.57-.52,6.77-2.22,9.93-3.86,3.31-1.71,6.69-3.09,10.34-3.91,3.69-.82,7.45-1.04,11.21-.79,4,.27,7.93.8,11.92.02,2.06-.4,1.19-3.55-.87-3.15-3.97.78-8.02.01-12.01-.19-3.72-.19-7.48.15-11.12.96-3.62.81-7.05,2.16-10.35,3.84-3.2,1.63-6.32,3.4-9.92,3.92-.88.13-1.34,1.23-1.14,2.01.25.94,1.14,1.27,2.01,1.15h0Z"/>
          <path class="cls-2" d="m1436.98,670.69c-.31-.37-.62-.74-.93-1.11v2.31c2.1-1.98,5.46-1.48,8.06-1.02,3.38.59,6.75,1.23,10.09,2.03,6.64,1.59,13.11,3.9,18.63,8.01,1.69,1.25,3.31-1.58,1.65-2.82-6.07-4.51-13.34-6.96-20.64-8.62-3.59-.82-7.25-1.6-10.91-2.06-3.26-.41-6.67-.19-9.18,2.17-.68.64-.55,1.65,0,2.31.31.37.62.74.93,1.11,1.34,1.61,3.63-.71,2.3-2.31h0Z"/>
          <path class="cls-2" d="m1361.03,305.45c20.29.28,40.8.59,60.7,4.95,9.94,2.18,19.61,5.4,28.7,9.98,4.7,2.37,9.28,4.99,14.01,7.33,4.49,2.22,9.19,3.9,13.73,5.97,4.92,2.24,9.14,5.16,12.58,9.36,3.37,4.13,5.86,8.93,8.32,13.63.97,1.86,3.79.21,2.82-1.65-4.46-8.51-9.3-17.08-17.87-22.04-4.35-2.51-9.13-4.12-13.72-6.13-4.97-2.18-9.71-4.83-14.5-7.37-9.2-4.87-18.78-8.69-28.89-11.23-9.99-2.51-20.24-3.92-30.49-4.76-11.77-.96-23.58-1.16-35.38-1.32-2.12-.01-2.12,3.25,0,3.28h0Z"/>
          <path class="cls-2" d="m1502.99,361.22c2.78,18.07,5.45,36.17,6.29,54.46.83,18.1.38,36.24.04,54.35-.68,36.29-1.87,72.58-2.47,108.87-.34,20.39-.39,40.8.36,61.18.08,2.09,3.34,2.1,3.26,0-1.34-36.5-.16-73.03.73-109.53.45-18.32.91-36.65,1.28-54.97.36-18.11.85-36.26.28-54.37-.64-20.46-3.5-40.66-6.62-60.87-.32-2.05-3.47-1.18-3.15.88h0Z"/>
          <path class="cls-2" d="m1423.74,677.79c-4.34,26.7-9.98,53.19-16.91,79.35-1.54,5.8-4.68,12.67-.52,18.04,1.7,2.2,3.84,4.09,5.75,6.11,2,2.1,3.96,4.24,5.87,6.42,7.56,8.6,14.43,17.82,20.11,27.78,6.29,11.04,10.98,22.96,13.26,35.48.8-.61,1.6-1.23,2.4-1.84-7.32-3.2-14.4-6.89-21.22-11.05-1.8-1.1-3.44,1.72-1.65,2.82,6.81,4.16,13.9,7.85,21.22,11.05,1.34.58,2.67-.37,2.4-1.84-4.07-22.35-15.72-42.46-30.04-59.81-3.61-4.37-7.4-8.58-11.33-12.66-1.81-1.88-4.34-3.79-5.3-6.29-1.12-2.95.34-6.46,1.11-9.32,3.49-12.9,6.66-25.89,9.52-38.94,3.22-14.73,6.04-29.54,8.46-44.42.35-2.07-2.79-2.95-3.13-.88h0Z"/>
          <path class="cls-2" d="m1506.19,640.62c-3,28.55-6.02,57.12-10.49,85.48-4.44,28.16-10.32,56.16-18.97,83.35-1.21,3.81-2.48,7.6-3.8,11.38-1.17,3.33-2.34,6.69-3.95,9.84-1.56,3.03-3.52,5.76-6.17,7.91-2.46,2-5.06,3.75-6.1,6.91-.66,2,2.49,2.86,3.15.87.84-2.57,3.57-4.06,5.54-5.7,2.35-1.96,4.24-4.44,5.74-7.1,3.25-5.75,5.16-12.31,7.23-18.54,4.48-13.53,8.26-27.28,11.48-41.16,6.51-27.99,10.79-56.44,14.26-84.94,1.96-16.08,3.66-32.19,5.35-48.3.21-2.09-3.05-2.07-3.27,0h0Z"/>
          <path class="cls-2" d="m1387.84,814.04c-3.87,16.31-13.14,31.12-26.12,41.74-1.62,1.33-3.34,2.51-5.01,3.79-1.64,1.25-3.19,2.73-3.82,4.76-.56,1.78-.35,3.89.86,5.36,1.35,1.66,3.47,1.96,5.47,1.61,2.21-.39,4.38-1.39,6.47-2.18,2.24-.85,4.45-1.75,6.65-2.72,4.38-1.93,8.65-4.16,12.61-6.85,7.92-5.39,14.59-12.69,17.95-21.77.73-1.97-2.42-2.82-3.15-.87-5.97,16.15-22.47,24.56-37.67,30.08-1.41.51-4,1.88-5.47.94-1.34-.86-.67-2.92.09-3.92,1.18-1.55,3-2.57,4.54-3.72,1.57-1.18,3.11-2.41,4.59-3.71,5.82-5.07,10.87-11.02,14.99-17.54,4.68-7.41,8.14-15.59,10.17-24.12.48-2.05-2.67-2.92-3.15-.88h0Z"/>
          <path class="cls-2" d="m1386.54,879.03c8.8-2.83,17.85-5.84,25.06-11.84,3.93-3.27,7-7.46,10.09-11.49,3.29-4.29,6.46-8.68,9.51-13.15,1.68-2.46,3.31-4.95,4.91-7.47.8-1.26,1.59-2.52,2.37-3.79.41-.67.82-1.34,1.22-2.01.31-.52.63-1.33,1.1-1.69-.38.16-.77.32-1.15.48.08,0,.17-.01.25-.01-.47-.27-.94-.54-1.41-.81.03.04.06.08.09.13-.05-.42-.11-.84-.16-1.26.08-.15.16-.31.24-.46h2.31s-.06-.05-.09-.08c-1.52-1.45-3.83.85-2.31,2.31.03.03.06.05.09.08.69.66,1.6.56,2.31,0,.82-.65.85-1.98.09-2.69-1.01-.95-2.43-.37-3.12.63-1.58,2.28-2.9,4.78-4.39,7.13-3.06,4.83-6.27,9.58-9.61,14.22-3.32,4.61-6.71,9.24-10.46,13.51-3.39,3.86-7.46,6.81-12.04,9.12-5.03,2.54-10.41,4.27-15.76,6-2,.63-1.14,3.78.86,3.14h0Z"/>
          <path class="cls-2" d="m1362.17,867.66c-2.17,1.88-4.37,3.88-5.54,6.57-1.09,2.52-1.23,5.56.37,7.9,3.1,4.55,9.81,4.31,14.55,3.29,5.87-1.26,11.1-4.41,15.74-8.12,2.43-1.94,4.71-4.07,6.95-6.24,2.29-2.22,4.6-4.45,6.58-6.95,2.11-2.66,3.8-5.62,6.04-8.17,2.19-2.5,4.6-4.84,6.17-7.82.98-1.86-1.84-3.51-2.82-1.65-1.21,2.3-2.95,4.16-4.68,6.07-1.81,1.99-3.4,4.1-4.92,6.32-3.14,4.58-7.04,8.43-11.1,12.19-3.94,3.66-8.17,7.06-13.08,9.31-4.16,1.91-9.79,3.44-14.27,1.75-2.38-.9-3.56-3-2.92-5.5.72-2.83,3.13-4.81,5.24-6.65,1.58-1.37-.73-3.67-2.31-2.3h0Z"/>
          <path class="cls-2" d="m1184.69,820.06c-.08,4.58,1.2,9.17,2.81,13.42,1.63,4.28,3.74,8.3,6.53,11.94,1.49,1.95,2.96,3.81,4.17,5.95,1.16,2.05,2.22,4.15,3.57,6.08,2.54,3.62,5.73,6.7,9.35,9.22,6.73,4.7,14.81,7.36,22.85,8.71,3,.5,7.09.65,8.27-2.87.57-1.71.23-3.58-.98-4.92-1.08-1.19-2.62-1.8-4.04-2.46-4.68-2.18-8.87-5.41-13.99-6.57-2.5-.57-4.87-1.01-7.18-2.18-2.23-1.12-4.33-2.49-6.52-3.7-1.88-1.03-3.32,1.6-1.65,2.82.39.28.77.55,1.17.83,1.73,1.2,3.37-1.63,1.65-2.82-.39-.27-.78-.55-1.17-.83-.55.94-1.1,1.88-1.65,2.82,3.46,1.9,6.73,4.18,10.55,5.34,2.04.62,4.16.81,6.17,1.52,2.08.73,4.03,1.8,5.95,2.87,1.74.97,3.46,2,5.27,2.83,1.02.47,2.53.93,3.18,1.91.55.82.23,1.93-.67,2.27-1.14.43-2.6.16-3.77-.05-7.34-1.31-14.58-3.57-20.85-7.69-3.24-2.13-6.19-4.78-8.54-7.88-2.66-3.52-4.25-7.71-6.99-11.18-2.88-3.64-5.35-7.4-7.1-11.73-1.74-4.29-3.21-8.98-3.13-13.66.04-2.09-3.22-2.09-3.26.01h0Z"/>
          <path class="cls-2" d="m1216.39,837.23c1.86,3.21,3.77,6.47,6.44,9.09,2.65,2.59,5.84,4.57,8.99,6.48,3.37,2.04,6.95,3.75,10.3,5.83,1.36.84,2.34,2.13,1.97,3.81-.34,1.54-1.79,2.41-3.29,2.39-2.1-.03-2.1,3.24,0,3.26,4.02.05,7.19-3.46,6.52-7.46-.72-4.32-5.58-5.88-8.92-7.76-3.86-2.17-7.87-4.37-11.33-7.14-3.44-2.76-5.68-6.36-7.86-10.13-1.05-1.84-3.88-.2-2.82,1.63h0Z"/>
          <path class="cls-2" d="m1228.47,818.45c2.43,7.24,8.37,12.07,13,17.85,2.3,2.86,4.34,6.16,4.94,9.84.24,1.43.42,2.97-1.15,3.59-1.37.53-2.98.35-4.39.1-4.15-.75-7.97-2.69-11.04-5.58-1.53-1.44-3.84.86-2.31,2.31,3.06,2.89,6.8,5.02,10.89,6.07,3.28.84,8.08,1.5,10.43-1.63,1.25-1.66,1.04-3.8.7-5.72-.35-2.05-1.13-4.02-2.09-5.85-1.99-3.76-4.89-6.94-7.75-10.06-3.22-3.52-6.55-7.17-8.1-11.78-.65-1.99-3.8-1.14-3.13.86h0Z"/>
          <path class="cls-2" d="m1122.35,446.27c-3.05,23.42-6.13,46.84-9.14,70.27-2.92,22.7-5.37,45.47-4.54,68.39.79,21.82,4.07,43.5,8.98,64.76,4.95,21.41,11.54,42.42,18.95,63.1,7.48,20.89,15.81,41.46,24.26,61.97,1.03,2.5,2.06,5.01,3.1,7.51.79,1.91,3.95,1.08,3.15-.87-8.42-20.39-16.81-40.81-24.46-61.51-7.62-20.63-14.52-41.57-19.88-62.91-5.3-21.09-9.08-42.59-10.44-64.31-1.43-22.75.34-45.37,3.12-67.95,2.87-23.29,6.02-46.55,9.05-69.82.37-2.88.75-5.75,1.12-8.63.26-2.08-3.01-2.06-3.27,0h0Z"/>
          <path class="cls-2" d="m1199.76,627.86c5.32,26.24,11.59,52.29,18.81,78.08,2.04,7.29,4.16,14.56,6.35,21.8.61,2,3.76,1.15,3.15-.87-7.75-25.63-14.57-51.54-20.43-77.68-1.66-7.39-3.23-14.79-4.74-22.21-.41-2.04-3.55-1.17-3.14.88h0Z"/>
          <path class="cls-2" d="m1392.05,811.5c1.58-16.91,3.17-33.82,4.75-50.73,1.58-16.83,3.15-33.65,4.73-50.48.89-9.53,1.78-19.06,2.68-28.6.2-2.09-3.07-2.08-3.26,0-1.58,16.91-3.17,33.82-4.75,50.73-1.58,16.83-3.15,33.65-4.73,50.48-.89,9.53-1.78,19.06-2.68,28.6-.2,2.09,3.06,2.07,3.26,0h0Z"/>
          <path class="cls-2" d="m1402.96,684.39c.52-3.77,1.15-7.52,1.88-11.26.17-.86-.25-1.76-1.14-2.01-.8-.22-1.84.27-2.01,1.14-.73,3.73-1.36,7.49-1.88,11.26-.12.87.21,1.75,1.14,2.01.77.21,1.89-.26,2.01-1.14h0Z"/>
          <path class="cls-2" d="m1221.89,650.91c-.69,3.61-.47,7.22-.22,10.86.26,3.7.33,7.41.16,11.12-.34,7.35-1.62,14.6-3.74,21.65-.6,2.02,2.54,2.88,3.15.87,2.1-7.01,3.38-14.26,3.8-21.57.21-3.62.2-7.25-.03-10.87-.23-3.72-.69-7.49.02-11.18.4-2.06-2.74-2.94-3.14-.88h0Z"/>
          <path class="cls-2" d="m1318.47,649.58c-.19-.43-.38-.87-.57-1.3-.29-.65-1.21-.93-1.84-.75-.75.21-1.11.85-1.2,1.57-.55,4.45-1.1,8.9-1.64,13.34-.22,1.81-1.09,4.5.8,5.72.79.51,1.83.56,2.73.73,1.04.19,2.08.38,3.11.58,8.69,1.64,17.32,3.6,25.88,5.85.83.22,1.8-.27,2.01-1.14,1.03-4.23,2.07-8.46,3.1-12.69.48-1.96,1.11-3.95,1.37-5.96.2-1.53,0-3.15-1.19-4.24-1.35-1.24-3.54-1.19-5.25-1.43-2.2-.31-4.39-.61-6.59-.9-4.35-.58-8.71-1.13-13.07-1.65-2.73-.33-9.77-2.16-9.88,2.55-.05,2.1,3.21,2.1,3.26,0-.01.38-.2.21.37.11.25-.04.53-.03.78-.02,1.08.05,2.18.24,3.25.36,2.3.27,4.61.55,6.91.83,4.54.56,9.08,1.16,13.61,1.79,1.07.15,2.14.28,3.2.45.67.11,1.27.09,1.41.82.15.74-.16,1.63-.33,2.35-.27,1.12-.55,2.23-.82,3.35-1.09,4.47-2.19,8.94-3.28,13.4.67-.38,1.34-.76,2.01-1.14-7.85-2.06-15.76-3.88-23.73-5.44-1.91-.37-3.83-.73-5.74-1.07-.32-.06-.64-.11-.96-.17-.34-.15-.41-.11-.21.12.14.31.18.24.15-.21.03-.25.06-.49.09-.74.13-1.07.26-2.14.4-3.21.51-4.12,1.01-8.24,1.52-12.36-1.01.27-2.03.55-3.04.82.19.43.38.87.57,1.3.83,1.94,3.65.28,2.81-1.62h0Z"/>
          <path class="cls-2" d="m1223.89,650.46c5.82-1.49,11.8-1.88,17.79-1.92,6-.04,12,.16,17.99.33,12.47.35,24.93.87,37.38,1.57,7.01.39,14.02.84,21.02,1.35,2.1.15,2.09-3.11,0-3.26-12.52-.9-25.06-1.63-37.6-2.17-12.44-.54-24.92-1.05-37.37-1.07-6.74-.01-13.52.36-20.08,2.04-2.03.5-1.17,3.65.87,3.13h0Z"/>
          <path class="cls-2" d="m1350.39,663.18c-.07,0-.14,0-.21-.01.38.16.77.32,1.15.48-.88,1.19-.9,1.78-.06,1.77.31.04.61.09.92.14.46.07.92.15,1.38.22,1.07.18,2.13.38,3.2.59,1.98.39,3.94.83,5.9,1.3,4.15.99,8.27,2.12,12.39,3.22,4.04,1.08,8.1,2.14,12.19,3.02,2.04.44,4.09.84,6.15,1.17,1.06.17,2.12.32,3.19.46.46.06.92.12,1.38.17.31.04.62.07.92.1.39.07.38.03-.05-.13-.16-.38-.32-.77-.48-1.15-.01.08-.01.15-.02.23.16-.38.32-.77.48-1.15-.06.05-.12.1-.18.15.53-.14,1.06-.28,1.59-.42-.06-.02-.12-.04-.17-.07-1.97-.74-2.82,2.41-.87,3.15.06.02.12.04.17.07.57.21,1.16-.07,1.59-.42.61-.51.85-1.41.53-2.16-.38-.9-1.24-1.19-2.14-1.3-2.08-.26-4.16-.5-6.23-.86-4.19-.73-8.34-1.7-12.47-2.75-8.26-2.12-16.45-4.58-24.85-6.11-1.14-.21-2.29-.4-3.44-.57-.96-.14-1.97-.37-2.88.1-1.96,1.01-1.28,3.99.91,4.04,2.11.03,2.11-3.23.01-3.28h0Z"/>
          <path class="cls-2" d="m1325.6,672.68c-1.11,3.7-1.64,7.59-1.47,11.45.17,3.9,1.25,7.68,1.48,11.57.17,3-.23,6.42-2.37,8.72-1.84,1.96-5.24,3.3-4.7,6.57.57,3.43,4.99,4.31,7.84,4.65,3.17.38,6.73.57,9.82-.39,3.04-.94,5.52-3.21,6.15-6.42.3-1.53.18-3.11-.39-4.56-.64-1.61-1.76-2.9-2.68-4.34-1.13-1.77-1.27-3.5-.93-5.55.37-2.2.87-4.38,1.3-6.56.9-4.47,1.79-8.94,2.69-13.41.41-2.05-2.73-2.93-3.15-.87-.74,3.67-1.47,7.34-2.21,11.01-.7,3.47-1.6,6.96-2,10.47-.17,1.49-.11,3.02.41,4.44.55,1.5,1.52,2.73,2.41,4.03.79,1.16,1.47,2.32,1.45,3.77-.03,1.45-.68,2.86-1.82,3.77-2.06,1.64-5.04,1.65-7.54,1.57-1.62-.05-3.26-.13-4.84-.49-.74-.17-3.42-.68-3.3-1.87.08-.85,1.57-1.67,2.16-2.13,1.09-.84,2.04-1.73,2.81-2.88,1.6-2.39,2.21-5.41,2.21-8.25.01-3.88-1.09-7.64-1.42-11.48-.35-4.05.09-8.08,1.26-11.98.59-1.99-2.56-2.85-3.17-.84h0Z"/>
          <path class="cls-2" d="m1166.01,781.55c3.96,13.45,9.48,26.42,16.43,38.59.56.97,1.78.99,2.56.33,6.64-5.62,14.32-10.06,22.5-13.01,4.13-1.49,8.39-2.62,12.71-3.37,3.8-.66,7.65-.8,11.46-1.34,3.18-.45,6.55-1.22,9.19-3.15,3.1-2.25,4.49-5.76,3.99-9.56-.32-2.47-1.25-4.78-2.1-7.1-.87-2.36-1.72-4.72-2.56-7.08-1.69-4.73-3.33-9.47-4.92-14.23-3.63-10.83-7.01-21.73-10.16-32.7-.58-2.01-3.73-1.16-3.15.87,5.45,19,11.8,37.65,18.47,56.25,1.26,3.51,2.29,7.67-.88,10.46-2.29,2.02-5.66,2.66-8.58,3.08-3.73.53-7.49.67-11.21,1.3-4.19.7-8.32,1.77-12.34,3.16-9.05,3.15-17.42,7.94-24.73,14.13.85.11,1.71.22,2.56.33-6.82-11.94-12.22-24.62-16.1-37.81-.58-2.03-3.73-1.17-3.14.85h0Z"/>
          <path class="cls-2" d="m1241.09,834.07c3.34,1.74,5.33-2.23,5.52-4.99.26-3.65-.27-7.45-2.36-10.53-1.02-1.5-2.27-2.83-3.38-4.27-1.15-1.5-2.16-3.1-3.09-4.75-1.87-3.31-3.37-6.8-4.87-10.29-.83-1.92-3.64-.26-2.82,1.65,2.39,5.55,4.84,11.11,8.61,15.88,1.89,2.4,3.83,4.47,4.44,7.56.28,1.41.29,2.88.22,4.31-.03.64-.08,1.25-.35,1.84-.09.2-.27.39-.34.59-.16.42-.33-.02.05.18-1.84-.96-3.49,1.85-1.63,2.82h0Z"/>
          <path class="cls-2" d="m1235.31,874.2c-2.97,2.02-3.09,5.98-1.26,8.86,2.37,3.73,7.03,4.17,11.06,3.83,5.15-.44,10.25-.97,15.43-1.03,5.29-.07,10.58.14,15.86.47,10.61.67,21.18,1.86,31.79,2.49,10.7.64,21.43.55,32.14.01,12.06-.61,24.08-1.76,36.1-2.91,2.07-.2,2.09-3.46,0-3.26-20.06,1.92-40.19,3.84-60.37,3.25-19.91-.57-39.71-4.02-59.66-3.21-2.76.11-5.53.31-8.28.61-2.42.26-4.95.7-7.37.29-1.85-.31-3.49-1.13-4.28-2.9-.51-1.15-.7-2.87.49-3.67,1.73-1.19.09-4.02-1.65-2.83h0Z"/>
          <path class="cls-2" d="m1180.01,834.8c-2.19,23.46-3.53,47-4,70.56-.47,23.48-.09,46.97,1.15,70.42.7,13.25,1.67,26.48,2.91,39.68.19,2.07,3.46,2.09,3.26,0-2.2-23.46-3.56-47-4.05-70.56-.49-23.48-.12-46.97,1.1-70.42.69-13.25,1.66-26.48,2.89-39.69.2-2.08-3.07-2.07-3.26.01h0Z"/>
          <path class="cls-2" d="m1453.96,847.26c2.99,22.17,4.11,44.59,3.42,66.94-.7,22.36-3.22,44.66-7.56,66.6-2.45,12.36-5.47,24.59-9.05,36.67-.6,2.02,2.55,2.88,3.15.87,6.44-21.73,11.05-43.98,13.83-66.48,2.76-22.34,3.69-44.92,2.75-67.41-.53-12.73-1.67-25.43-3.38-38.06-.12-.88-1.24-1.34-2.01-1.14-.95.25-1.26,1.14-1.15,2.01h0Z"/>
          <path class="cls-2" d="m1180.86,1024.86c2.73,6.09,10.32,7.01,16.16,7.5,8.99.76,17.99,1.31,27,1.69,18.1.76,36.23.8,54.34.35,18.06-.45,36.1-1.38,54.12-2.57,18.12-1.2,36.22-2.67,54.32-4.18,17.5-1.46,35.34-2.34,52.28-7.33,2.07-.61,4.12-1.28,6.16-1.99,1.97-.69,1.12-3.85-.87-3.15-16.41,5.77-33.61,7.2-50.82,8.64-17.75,1.49-35.5,2.96-53.26,4.21-17.67,1.24-35.36,2.26-53.07,2.85-17.76.59-35.55.74-53.31.25-8.84-.25-17.67-.66-26.49-1.25-4.22-.28-8.45-.54-12.65-1-2.89-.32-5.99-.89-8.46-2.52-1.19-.79-2.04-1.85-2.62-3.15-.87-1.91-3.68-.26-2.83,1.65h0Z"/>
          <path class="cls-2" d="m1203.66,1032.42c-1.45,21.84,2.28,43.55,6.45,64.9,2.1,10.78,4.32,21.54,6.07,32.38,1.79,11.11,3.07,22.3,4.17,33.5,4.4,44.83,7.94,89.76,11.87,134.64,2.22,25.3,4.44,50.61,6.65,75.91.23,2.6,4.32,2.62,4.09,0-3.96-45.18-7.92-90.37-11.88-135.55-1.96-22.32-3.84-44.65-5.89-66.96-1.02-11.13-2.16-22.24-3.69-33.31-1.51-10.95-3.54-21.8-5.68-32.64-4.73-24.01-9.72-48.27-8.09-72.88.19-2.62-3.9-2.61-4.07.01h0Z"/>
          <path class="cls-2" d="m1307.59,1032.03c-7.72,25.93-15.37,52.53-15,79.83.19,13.69,2.77,27.15,5.46,40.53,2.74,13.63,5.09,27.26,6.36,41.11,2.54,27.75,1.96,55.66,1.33,83.48-.32,13.97-.61,27.96-2.01,41.87-.7,6.95-1.71,13.87-3.13,20.72-1.36,6.58-3,13.1-3.8,19.77-1.63,13.51,1.16,26.96,3.45,40.23,2.39,13.81,3.47,27.68,2.56,41.69-.23,3.55-.59,7.08-1.04,10.61-.33,2.6,3.76,2.58,4.09,0,1.78-13.83,1.85-27.86.11-41.7-1.69-13.51-5.26-26.81-5.57-40.47-.31-13.82,4.21-27.06,6.16-40.62,1.94-13.48,2.61-27.09,2.99-40.69.77-27.79,1.57-55.7-.17-83.47-.86-13.75-2.41-27.47-4.91-41.03-2.48-13.46-5.76-26.81-7.12-40.45-2.75-27.46,3.75-54.5,11.35-80.69.93-3.22,1.89-6.43,2.84-9.64.74-2.52-3.2-3.6-3.95-1.08h0Z"/>
          <path class="cls-2" d="m1236.73,1377.09c1.65,4.4.79,9.1-1.48,13.12-2.46,4.35-6.35,7.47-10.65,9.88-4.65,2.6-9.69,4.39-14.65,6.3-5.74,2.21-11.45,4.46-17.16,6.76-22.52,9.08-44.78,18.81-66.69,29.25-2.11,1-4.35,2.17-5.57,4.25-1.42,2.4-.72,5.23-.07,7.77,1.11,4.32,3.07,8.78,6.64,11.62,4.5,3.59,10.57,3.62,16.05,4.12,6.01.55,12.03.96,18.06,1.23,24.22,1.1,48.52-.04,72.54-3.31,5.98-.81,11.94-1.76,17.88-2.84,5.82-1.06,11.58-2.38,17.38-3.52,5.34-1.05,11.05-1.79,16.29.1,2.75.99,4.98,2.52,8.05,2.08,2.66-.38,5.21-1.7,7.52-3.03,2.38-1.36,4.59-2.99,6.64-4.8,1.98-1.74-.92-4.62-2.89-2.89-2.07,1.83-4.33,3.4-6.77,4.7-2.05,1.1-4.65,2.56-7.04,1.87-1.25-.36-2.4-1.05-3.6-1.55-1.27-.52-2.6-.9-3.95-1.15-2.69-.5-5.43-.57-8.15-.33-5.66.49-11.19,1.95-16.74,3.08-5.76,1.17-11.54,2.21-17.34,3.12-23.42,3.69-47.18,5.23-70.89,4.69-5.95-.14-11.9-.41-17.84-.81-2.89-.2-5.78-.42-8.66-.68-2.81-.25-5.67-.41-8.44-.93-2.35-.44-4.53-1.26-6.26-2.96-1.45-1.42-2.51-3.21-3.29-5.07-.88-2.09-1.68-4.56-1.87-6.82-.19-2.22,1.91-3.21,3.63-4.05,10.7-5.25,21.62-10.1,32.53-14.89,10.87-4.78,21.81-9.4,32.82-13.85,5.47-2.21,10.96-4.39,16.47-6.52,5.04-1.95,10.18-3.75,15.03-6.15,8.79-4.33,16.86-11.79,17.43-22.17.13-2.27-.22-4.57-1.01-6.7-.39-1.03-1.38-1.74-2.51-1.43-1,.27-1.82,1.47-1.44,2.51h0Z"/>
          <path class="cls-2" d="m1296.51,1385.96c-1.35,6.43-5.62,11.46-10.64,15.48-5.53,4.42-12.03,7.76-18.45,10.67-13.83,6.26-28.91,9.89-44.07,10.68-4.32.23-8.66.22-12.98-.01-1.85-.1-4.03,0-5.77-.73-.84-.35-1.93-1.47-.96-2.23.87-.68.71-2.18,0-2.89-.86-.86-2.02-.68-2.89,0-3.17,2.48-1.19,7.28,1.92,8.71,1.79.83,3.78.96,5.72,1.1,2.12.15,4.25.24,6.38.28,8.48.15,16.96-.59,25.3-2.13,8.3-1.53,16.45-3.9,24.28-7.06,7.49-3.03,14.94-6.63,21.54-11.33,6.72-4.78,12.83-11.13,14.57-19.46.52-2.56-3.41-3.66-3.95-1.08h0Z"/>
          <path class="cls-2" d="m1312.61,1032.42c-1.45,21.84,2.28,43.55,6.45,64.9,2.1,10.78,4.32,21.54,6.07,32.38,1.79,11.11,3.07,22.3,4.17,33.5,4.4,44.83,7.94,89.76,11.87,134.64,2.22,25.3,4.44,50.61,6.65,75.91.23,2.6,4.32,2.62,4.09,0-3.96-45.18-7.92-90.37-11.88-135.55-1.96-22.32-3.84-44.65-5.89-66.96-1.02-11.13-2.16-22.24-3.69-33.31-1.51-10.95-3.54-21.8-5.68-32.64-4.73-24.01-9.72-48.27-8.09-72.88.19-2.62-3.89-2.61-4.07.01h0Z"/>
          <path class="cls-2" d="m1416.55,1032.03c-7.72,25.93-15.37,52.53-15,79.83.19,13.69,2.77,27.15,5.46,40.53,2.74,13.63,5.09,27.26,6.36,41.11,2.54,27.75,1.96,55.66,1.33,83.48-.32,13.97-.61,27.96-2.01,41.87-.7,6.95-1.71,13.87-3.13,20.72-1.36,6.58-3,13.1-3.8,19.77-1.63,13.51,1.16,26.96,3.45,40.23,2.39,13.81,3.47,27.68,2.56,41.69-.23,3.55-.59,7.08-1.04,10.61-.33,2.6,3.76,2.58,4.09,0,1.78-13.83,1.85-27.86.11-41.7-1.69-13.51-5.26-26.81-5.57-40.47-.31-13.82,4.21-27.06,6.16-40.62,1.94-13.48,2.61-27.09,2.99-40.69.77-27.79,1.57-55.7-.17-83.47-.86-13.75-2.41-27.47-4.91-41.03-2.48-13.46-5.76-26.81-7.12-40.45-2.75-27.46,3.75-54.5,11.35-80.69.93-3.22,1.89-6.43,2.84-9.64.74-2.52-3.2-3.6-3.95-1.08h0Z"/>
          <path class="cls-2" d="m1238.24,1467.51c2.59,1.29,5.33,1.77,8.19,2.09,3.01.34,6.03.6,9.04.85,6.09.5,12.2.86,18.31,1.09,12.14.44,24.3.33,36.43-.34,12.15-.67,24.27-1.9,36.32-3.65,6.05-.88,12.08-1.9,18.08-3.06,5.77-1.11,11.5-2.65,17.33-3.45,2.94-.41,6.03-.6,8.97-.09,1.46.25,2.92.65,4.28,1.25,1.41.62,2.79,1.42,4.33,1.68,3.17.54,6.21-.84,8.96-2.27,2.89-1.5,5.55-3.39,7.99-5.54,1.97-1.74-.92-4.62-2.89-2.89-2.07,1.83-4.33,3.4-6.77,4.7-2.05,1.1-4.65,2.56-7.04,1.87-1.25-.36-2.4-1.05-3.6-1.55-1.27-.52-2.6-.9-3.95-1.15-2.69-.5-5.43-.57-8.15-.33-5.66.49-11.19,1.95-16.74,3.08-5.76,1.17-11.54,2.21-17.34,3.12-23.42,3.69-47.19,5.24-70.89,4.69-6.6-.15-13.19-.47-19.77-.94-3.37-.25-6.74-.53-10.1-.86-2.99-.29-6.18-.45-8.91-1.82-2.36-1.18-4.44,2.34-2.08,3.52h0Z"/>
          <path class="cls-2" d="m1345.26,1372.98c0,5.55.21,11.46-1.59,16.79-.7,2.07-1.82,3.96-3.39,5.48-.21.2-.43.4-.65.59-.12.1-.24.2-.36.3-.43.35.34-.25-.12.1-.64.47-1.29.92-1.95,1.35-7.42,4.85-15.59,8.69-23.61,12.43-3.58,1.67-7.04,3.27-10.41,4.57-1.03.4-1.74,1.37-1.43,2.51.27.98,1.48,1.83,2.51,1.43,7.97-3.07,15.72-6.91,23.3-10.82,3.91-2.01,7.82-4.08,11.51-6.48,3.41-2.21,6.21-4.81,7.85-8.62,2.62-6.1,2.41-13.13,2.42-19.64,0-2.62-4.08-2.62-4.08,0h0Z"/>
          <path class="cls-2" d="m1405.46,1385.96c-1.35,6.43-5.62,11.46-10.64,15.48-5.53,4.42-12.03,7.76-18.45,10.67-13.83,6.26-28.91,9.89-44.07,10.68-4.32.23-8.66.22-12.98-.01-1.85-.1-4.03,0-5.77-.73-.84-.35-1.93-1.47-.96-2.23.87-.68.71-2.18,0-2.89-.86-.86-2.02-.68-2.89,0-3.17,2.48-1.19,7.28,1.92,8.71,1.79.83,3.78.96,5.72,1.1,2.12.15,4.25.24,6.38.28,8.48.15,16.96-.59,25.3-2.13,8.3-1.53,16.45-3.9,24.28-7.06,7.49-3.03,14.94-6.63,21.54-11.33,6.72-4.78,12.83-11.13,14.57-19.46.53-2.56-3.41-3.66-3.95-1.08h0Z"/>
        </g>
      </g>
    </g>
  </g>
</svg>