<?xml version="1.0" encoding="utf-8"?>
<!-- Generator: Adobe Illustrator 26.3.1, SVG Export Plug-In . SVG Version: 6.00 Build 0)  -->
<svg version="1.1" xmlns="http://www.w3.org/2000/svg" xmlns:xlink="http://www.w3.org/1999/xlink" x="0px" y="0px"
	 viewBox="0 0 1984.25 1984.25" style="enable-background:new 0 0 1984.25 1984.25;" xml:space="preserve">
<style type="text/css">
	.st0{fill:#29597E;stroke:#000000;stroke-width:2.696;stroke-miterlimit:10;}
	.st1{fill:#29597E;stroke:#000000;stroke-width:2.993;stroke-miterlimit:10;}
	.st2{fill:#FFFFFF;}
	.st3{fill:#1B1439;}
	.st4{fill:#F5F0E2;}
	.st5{fill:#ED1E78;}
	.st6{fill:#FE3922;stroke:#000000;stroke-width:6.2938;stroke-miterlimit:10;}
	.st7{fill:#29597E;}
	.st8{fill:#D95F86;}
	.st9{fill:#D95F86;stroke:#000000;stroke-width:4.6468;stroke-miterlimit:10;}
	.st10{fill:none;stroke:#000000;stroke-width:9.3644;stroke-miterlimit:10;}
	.st11{fill:#ED1E78;stroke:#000000;stroke-width:4.9229;stroke-miterlimit:10;}
	.st12{fill:#FBAE16;stroke:#020202;stroke-width:4.9229;stroke-miterlimit:10;}
	.st13{fill:#F5F0E2;stroke:#000000;stroke-width:4.9229;stroke-miterlimit:10;}
	.st14{fill:none;stroke:#000000;stroke-width:4.9229;stroke-miterlimit:10;}
	.st15{fill:#29597E;stroke:#000000;stroke-width:2.521;stroke-miterlimit:10;}
	.st16{fill:#F9E819;}
	.st17{fill:#FBAE16;}
	.st18{fill:#FBAE16;stroke:#020202;stroke-width:4.8212;stroke-miterlimit:10;}
	.st19{fill:#ED1E78;stroke:#000000;stroke-width:4.8212;stroke-miterlimit:10;}
	.st20{fill:#FE3922;stroke:#000000;stroke-width:4.8212;stroke-miterlimit:10;}
	.st21{fill:none;stroke:#000000;stroke-width:4.8212;stroke-miterlimit:10;}
	.st22{fill:#020202;}
	.st23{fill:none;stroke:#020202;stroke-width:4;stroke-miterlimit:10;}
</style>
<g id="Layer_1">
</g>
<g id="Layer_3">
</g>
<g id="Layer_4">
</g>
<g id="Layer_5">
</g>
<g id="Layer_6">
</g>
<g id="Layer_7">
</g>
<g id="Layer_8">
</g>
<g id="Layer_2">
	<polygon class="st0" points="263.93,1692.79 383.73,1692.79 1779.08,1692.79 1779.08,337.13 263.93,337.13 	"/>
	<path class="st5" d="M771.98,882.67c-0.36-1.24-0.82-2.61-1.97-3.21c-1.4-0.73-3.22,0.13-4.04,1.48c-0.82,1.35-0.88,3.02-0.82,4.6
		c0.15,3.79,0.53,12.8,6.67,10.13C776.99,893.43,773.06,886.39,771.98,882.67z"/>
	<g>
		<path class="st2" d="M976.75,883.56c-11.92-0.49-24.19,5.05-30.83,14.96c-7.19,10.73-7.19,24.65-5.71,37.48
			c1.15,9.91,3.03,19.72,4.91,29.52c0.88,4.58,1.78,9.24,3.98,13.36c5.87,11.03,19.24,15.49,31.52,17.81
			c10.16,1.92,21.4,2.86,30.14-2.65c1.94-1.22,3.74-2.79,4.78-4.84c1.3-2.57,1.27-5.58,1.2-8.45c-0.26-11.95-0.51-23.91-0.77-35.86
			c-0.23-10.59,1.62-23.71-0.99-33.99C1011.15,895.85,991.72,883.56,976.75,883.56z"/>
		<path class="st2" d="M959.72,887.35c1.46-5.4,2.92-10.8,4.38-16.2c1.39-5.15,1.95-12.2-2.96-14.31c-3.36-1.44-7.23,0.69-9.71,3.38
			s-4.32,6.04-7.33,8.12c-4.05-6.14-11.83-8.96-19.19-8.93c-7.36,0.03-14.46,2.47-21.41,4.89c0.2-2.78-2.52-5.08-5.28-5.42
			c-2.76-0.34-5.48,0.77-8,1.96c-8.56,4.06-16.53,9.36-23.57,15.69c-4.67,4.2-8.97,8.87-14.09,12.51c-9,6.39-20.46,9.55-27.62,17.94
			c-9.56,11.2-8.38,27.71-6.66,42.33c1.14,9.73,2.31,19.57,5.74,28.74c3.34,8.92,8.76,16.98,15.23,23.97
			c15.43,16.67,37.15,27.37,59.78,29.43c6.66,0.61,13.55,0.47,19.82-1.87c6.27-2.33,11.88-7.14,13.89-13.52
			c1.13-3.59,1.08-7.44,1.02-11.21c-0.21-13.11-0.43-26.21-0.64-39.32c-0.27-16.45-0.43-33.46,5.95-48.62
			c0.47-1.11,0.87-2.64-0.13-3.33c-0.99-0.69-1.7,1.89-0.62,1.35"/>
		<path class="st2" d="M835.33,1001.62c9.45,30.61,18.93,61.34,24.05,92.96c1.64,10.1,2.84,20.36,6.26,30
			c3.41,9.65,9.35,18.82,18.26,23.85c8.13,4.59,17.78,5.29,26.88,7.36c8.77,2,18.22,5.29,26.4,1.54c9.83-4.5,12.86-16.75,14.71-27.4
			c3.12-17.92,6.25-36.05,5.06-54.2c-0.96-14.57-4.72-28.77-9.7-42.44c-4.55-12.48-9.53-29.92-17.73-40.46
			c-8.36-10.74-21.85,5.36-29.92,10.92c-11.82,8.15-18.23,3.78-29.96-2.4c-5.71-3.01-11.89-5.41-18.43-5.52
			C849.44,995.79,834.13,997.75,835.33,1001.62z"/>
		<path class="st2" d="M913.68,1005.11c0.73,7.96,3.71,15.85,9.2,21.65c2.98,3.15,7.45,5.76,11.5,4.21c2.3-0.88,3.97-2.95,5.02-5.18
			c2.57-5.43,2.06-11.75,1.49-17.73c-0.14-1.45-0.27-2.9-0.62-4.31c-0.35-1.45-0.92-2.84-1.49-4.22c-2.67-6.52-7-23.72-16.5-21.59
			C912.79,980.07,913.04,998.06,913.68,1005.11z"/>
		<path class="st2" d="M862.11,1163.48c-7.2,22.22-23.11,40.38-34.54,60.76c-0.59,1.04-1.17,2.14-1.21,3.34
			c-0.05,1.64,0.93,3.11,1.87,4.44c19.55,27.66,42.44,52.95,68.01,75.15c2.96-15.85,10.73-30.31,16.55-45.34
			c7.43-19.2,11.71-39.44,15.95-59.58c4.5-21.36,8.85-56.37-16.56-67.36c-8.02-3.47-17.68-1.6-25.93-0.06
			C869.78,1137.91,866.85,1148.84,862.11,1163.48z"/>
		<path class="st2" d="M916.96,1170.48c-3.29,11.55-3.18,23.76-3.04,35.77c0.08,7.28,0.17,14.55,0.25,21.83
			c0.11,9.66,0.17,19.62-3.48,28.56c-1.33,3.26-3.17,6.49-3.1,10.01c0.08,3.52,3.19,7.28,6.59,6.38c2.56-0.68,3.85-3.46,4.8-5.93
			c5.99-15.48,11.99-30.96,17.98-46.44c5.6-14.46,11.26-29.18,12.39-44.64c0.63-8.55,0.7-42.5-11.02-37.43
			C927.91,1143.1,919.83,1160.4,916.96,1170.48z"/>
		<path class="st2" d="M960.11,1012.31c-17.55,19.74-35.47,40.09-44.7,64.84c-9.14,24.52-9,51.39-8.74,77.56
			c0.23,23.49,0.46,46.98,0.69,70.47c0.21,20.99,1.43,44.43,16.67,58.86c15.66,14.81,41.64,14,60.13,2.91
			c18.49-11.09,30.67-30.22,39.77-49.75c8.1-17.37,14.32-35.61,18.52-54.31c1.27-5.67,2.37-11.43,2.34-17.24
			c-0.01-3.38-0.41-6.74-0.8-10.1c-1.25-10.72-2.5-21.43-3.75-32.15c-1.4-12.04-2.83-24.16-6.54-35.7
			c-1.77-5.49-4.05-10.82-5.45-16.42c-1.95-7.77-2.17-15.88-3.86-23.71c-2.81-13.04-9.57-24.83-16.24-36.38
			c-4.78-8.29-10.38-23.41-22.11-21.65C975.68,991.1,966.53,1005.09,960.11,1012.31z"/>
		<path class="st2" d="M983.44,1014.13c-0.54,8.2,4.89,15.48,10.28,21.68c2.26,2.6,4.62,5.21,7.61,6.91s6.77,2.39,9.9,0.96
			c3.23-1.47,5.16-4.81,6.46-8.11c2.3-5.84,3.26-12.19,2.8-18.45c-0.26-3.51-0.96-6.98-1.1-10.5c-0.39-9.65,4.78-32.73-12.54-28.65
			C994.73,980.83,984.18,1002.98,983.44,1014.13z"/>
		<path class="st2" d="M1073.6,915.58c-6.09,0.61-12.17,1.23-18.26,1.84c-1.37,0.14-2.84,0.32-3.85,1.26
			c-1.11,1.03-1.33,2.68-1.48,4.19c-1.72,17.44-2.1,35.01-1.14,52.51c1.16,21.02,4.36,42.26,13.14,61.39
			c8.78,19.13,23.69,36.09,43.21,43.98c11.48,4.64,24.05,5.99,36.43,6.01c9.83,0.02,19.74-0.78,29.18-3.54
			c11.77-3.43,22.59-9.82,34.56-12.43c11.45-2.49,23.66-1.33,34.43,3.27c10.31,4.4,19.05,11.72,28.56,17.64
			c9.52,5.92,20.65,10.59,31.7,8.73c6.59-1.11,12.57-4.45,18.39-7.73c16.58-9.35,33.16-18.69,49.74-28.04
			c3.25-1.83,6.6-3.74,8.88-6.7c1.18-1.53,2.04-3.28,2.88-5.02c2.68-5.53,5.37-11.06,8.05-16.59c3.04-6.27,6.11-12.59,7.91-19.32
			c6.23-23.2-4.8-49.91-25.58-61.96c-6.8-3.94-14.68-6.43-22.5-5.68c-21.27,2.04-36.9,26.68-58.12,24.17
			c-10.29-1.22-18.53-8.68-26.91-14.78c-23.45-17.07-52.38-25.18-81.21-28.38c-28.82-3.2-57.93-1.81-86.93-1.64
			c-4.12,0.02-8.34,0.01-12.24-1.33c-7.67-2.63-14.69-10.27-22.37-7.66c1.31,0.37,2.63,0.74,3.94,1.1"/>
		<path class="st2" d="M1219.83,849.01c-2.7-0.67-5.13,1.73-6.73,4.01c-18.44,26.35-10.75,64.43-28.34,91.35
			c-2.97,4.55-6.7,8.74-11.45,11.38c-6.68,3.72-14.71,4.06-22.33,3.45c-21.6-1.74-41.98-10.29-61.94-18.74
			c-2-0.85-4.07-1.74-5.52-3.35c-1.04-1.16-1.7-2.61-2.64-3.85c-2.88-3.83-7.91-5.16-12.48-6.6c-4.57-1.44-9.53-3.69-11.18-8.19
			c6.05-3.57,12.16-7.17,18.86-9.28c8.19-2.58,17-2.84,25.08-5.76c4.61-1.67,8.87-4.16,13.23-6.42
			c13.19-6.82,27.37-11.48,41.2-16.87c19.63-7.64,38.66-16.8,56.88-27.37"/>
		<path class="st2" d="M1236.79,836.93c-27.87,10.97-51.93,31.39-67.29,57.11c-3.35,5.61-6.32,11.53-7.77,17.89
			c-1.47,6.43-1.34,13.1-1.8,19.67c-0.58,8.25-2.11,16.47-1.62,24.73c0.49,8.25,3.33,16.85,9.83,21.97
			c9.23,7.28,22.41,5.47,33.97,3.35c11.56-2.12,24.8-3.79,33.89,3.65c2.92,2.39,5.11,5.52,7.74,8.23
			c5.36,5.51,12.36,9.08,19.35,12.3c18.45,8.5,37.72,15.23,57.46,20.07c8.04,1.97,16.7,3.59,24.42,0.62
			c9.18-3.53,14.81-12.64,19.38-21.35c5-9.52,9.61-19.48,11.04-30.15c1.51-11.27-0.62-22.67-2.73-33.84
			c-1.35-7.14-2.78-14.49-6.71-20.61c-4.78-7.45-12.69-12.22-20.32-16.72c-7.63-4.5-15.66-9.13-24.51-9.46
			c-6.54-0.25-14.39,1.42-18.59-3.6c-2.43-2.9-3.24-7.75-6.94-8.58c-2.31-0.52-4.69,1.04-5.84,3.11c-1.15,2.07-1.33,4.52-1.39,6.88
			c-0.08,3.59,0.07,7.18,0.22,10.77c0.21,4.95,0.41,9.91,0.62,14.86c0.44,10.62,0.89,21.28,2.66,31.77
			c-10.38-13.46-18.06-28.76-25.68-43.96c-6.47-12.91-12.94-25.81-19.41-38.72c-3.63-7.24-7.35-14.95-6.68-23.01
			c0.08-0.98,0.18-2.1-0.49-2.81c-0.55-0.58-1.44-0.68-2.24-0.71c-11.04-0.43-22.17,4.59-29.15,13.16"/>
		<path class="st2" d="M1221.91,851.09c-1.16,6.05,2.36,12.48,7.76,15.45c2.77,1.52,6.31,2.6,7.36,5.58
			c0.65,1.84,0.3,4.29,1.93,5.36c0.8,0.53,1.87,0.5,2.78,0.18c3.18-1.1,4.41-4.9,4.94-8.23c1.42-8.91,1.91-24.09-5.45-30.84
			C1233.08,831.1,1223.4,843.35,1221.91,851.09z"/>
		<path class="st2" d="M1342.22,911.13c-5.21,5.38-10.42,10.77-15.64,16.15c-1.63,1.68-3.3,3.43-4.09,5.64
			c-0.97,2.71-0.46,5.71,0.14,8.52c1.7,7.94,4.08,15.72,7.12,23.25c1.56,3.86,3.31,7.68,5.7,11.1c2.8,4,6.42,7.36,10.12,10.55
			c6.15,5.32,12.6,10.31,19.3,14.92c2.97,2.05,6.24,4.36,7.05,7.88c0.99,4.3-2.09,8.92-0.59,13.07c1.07,2.97,4.28,4.73,7.42,5.02
			c3.14,0.3,6.26-0.59,9.28-1.47c2.54-0.74,5.15-1.52,7.19-3.2c1.35-1.11,2.37-2.56,3.34-4.01c5.16-7.68,9.48-15.93,12.84-24.55
			c2.3-5.89,4.16-12.45,2.13-18.44c-0.93-2.75-2.63-5.16-4.3-7.54c-3.43-4.86-7.19-9.99-12.77-12.05c-0.34-0.13-0.69-0.24-0.97-0.48
			c-0.53-0.45-0.64-1.22-0.74-1.9c-0.83-5.71-3.55-10.95-6.23-16.06c-1.45-2.76-2.9-5.54-4.72-8.08c-1.94-2.71-4.28-5.12-6.61-7.52
			c-5.01-5.16-10.38-13.14-16.64-16.74C1353.68,901.23,1346.92,906.28,1342.22,911.13z"/>
		<path class="st2" d="M1075.51,1028.46c-5.27-4.52-6.24-12.25-6.11-19.19s0.94-14.24-2.01-20.52c-1.3-2.77-3.41-5.28-6.25-6.4
			c-2.84-1.12-6.45-0.56-8.36,1.83c-1.06,1.32-1.5,3.02-1.9,4.67c-3.23,13.39-5.12,27.06-7.01,40.71
			c-0.97,7.05-1.95,14.16-1.63,21.27c0.19,4.14,0.82,8.24,1.45,12.34c1.46,9.52,2.92,19.04,4.38,28.56
			c2.42,15.77,5.13,32.26,14.77,44.98c3.33,4.4,7.43,8.22,12.05,11.24c3.76,2.46,7.97,4.41,12.45,4.79
			c5.99,0.51,11.82-1.83,17.32-4.25c5.3-2.34,10.65-4.86,14.9-8.8c3-2.78,5.36-6.17,7.7-9.53c4-5.75,8.07-11.66,9.81-18.45
			c1.05-4.08,1.22-8.33,1.28-12.54c0.18-11.85-0.52-24.1-5.67-34.77c-5.15-10.67-15.71-19.48-27.56-19.37"/>
		<path class="st2" d="M1146.49,1027.5c-14.19-2.96-30.97-1.21-40.05,10.09c-4.84,6.02-6.78,14-6.53,21.71
			c0.25,7.72,2.52,15.23,5.38,22.4c3.43,8.62,7.8,17.2,7.98,26.48c0.04,2.06-0.17,4.23-1.36,5.92c-1.46,2.07-4.03,2.96-6.19,4.29
			c-3.05,1.89-5.34,4.76-7.56,7.58c-4.9,6.21-9.8,12.42-14.7,18.63c-0.35,0.45-0.72,0.94-0.74,1.51c-0.01,0.57,0.33,1.07,0.67,1.54
			c3.02,4.21,6.14,8.51,10.44,11.4c3.7,2.48,8.08,3.78,12.45,4.62c23.89,4.59,48.38-3.33,70.57-13.3
			c7.36-3.31,14.67-6.88,21.09-11.76c3.56-2.7,6.82-5.79,10.07-8.86c9.76-9.24,19.57-18.53,27.74-29.2
			c6.84-8.94,12.45-18.75,17.83-28.64c2.18-4,4.38-8.24,4.35-12.8c-0.04-7.59-6.26-13.79-12.94-17.41
			c-7.67-4.16-16.54-5.95-25.23-5.43c-7.45,0.45-14.4,3.66-21.8,4.07C1180.35,1041.33,1163.36,1031.01,1146.49,1027.5z"/>
		<path class="st2" d="M1303.99,1075.43c-10.2-5.61-17.02-18.21-28.64-18.92c-6.86-0.42-13.1,3.63-18.77,7.51
			c-1.94,1.33-3.9,2.68-5.44,4.45c-5.56,6.39-4.2,16.04-6.3,24.24c-1.52,5.92-4.9,11.15-7.59,16.64
			c-7.67,15.62-9.8,33.34-10.71,50.71c-0.53,10.13-0.53,20.91,4.77,29.56c0.92,1.5,2.01,2.93,3.41,3.98
			c1.59,1.19,3.53,1.85,5.48,2.2c12.62,2.28,23.97-7.17,35.98-11.68c6.89-2.59,14.51-3.66,20.53-7.88
			c6.21-4.35,9.83-11.4,13.4-18.09c10.46-19.6,22.45-38.39,35.82-56.14c7.72-10.24,15.97-20.26,21.41-31.87
			c2.55-5.44,4.44-11.15,6.34-16.85c0.88-2.64,1.77-5.4,1.39-8.16c-0.84-6.23-7.4-9.76-13.16-12.28c-4.42-1.93-8.97-3.9-13.79-4
			c-4.08-0.09-8.05,1.16-11.94,2.41c-14.47,4.67-28.88,9.56-43.2,14.67"/>
		<path class="st2" d="M1250.46,1082.75c-0.27-0.43-0.65-0.9-1.15-0.86c-0.3,0.03-0.55,0.23-0.78,0.43
			c-5.44,4.79-11.13,9.94-13.24,16.88c-1.11,3.66-1.14,7.54-1.53,11.34c-0.33,3.18-1.14,6.28-1.6,9.39
			C1253.72,1126.91,1258.77,1096.02,1250.46,1082.75z"/>
		<path class="st2" d="M1248.58,1185.85c-1.07,1.04-2.92,0.86-4.11-0.04c-1.19-0.9-1.84-2.33-2.33-3.75
			c-2.4-6.97-1.98-15.24-6.82-20.81c-1.08-1.24-2.37-2.28-3.41-3.55c-2.89-3.52-3.5-8.32-4.01-12.84
			c-7.29,20.23-7.68,42.22-7.1,63.72c0.94,34.8,4.22,69.49,7.49,104.15c0.92,9.74,1.84,19.48,2.76,29.22
			c0.26,2.71,0.83,5.89,3.29,7.05c2.62,1.23,5.59-0.66,7.8-2.53c13.43-11.32,24.4-25.26,34.49-39.64
			c5.97-8.5,11.71-17.3,15.29-27.05c3.29-8.95,4.66-18.5,5.34-28.01c1.24-17.48,0.17-35.12-3.17-52.31
			c-0.88-4.55-1.97-9.18-4.49-13.08c-2.52-3.9-6.75-6.98-11.39-6.94"/>
		<path class="st2" d="M1246.57,1251.05c-2.61,0.17-3.84-3.11-4.25-5.69c-1.29-8.06-2.58-16.11-3.87-24.17
			c-0.34-2.09-0.73-4.32-2.15-5.89c-2.65-2.92-7.76-2.08-10.54,0.71c-2.79,2.79-3.83,6.83-4.69,10.68
			c-2.41,10.88-4.21,21.95-4.32,33.1c-0.18,18.4,4.33,36.82,12.99,53.06c4.05,7.58,9.15,15.36,8.53,23.93
			c-0.34,4.69-2.14,10.25,1.24,13.52c2.42,2.34,6.44,2.06,9.45,0.54c3-1.52,5.38-4.03,8.12-5.99c5.75-4.12,13.05-5.77,18.54-10.22
			c2.34-1.9,4.27-4.24,6.18-6.56c8.38-10.18,16.75-20.35,25.13-30.53c4.68-5.68,9.45-11.52,11.9-18.46c0.76-2.16,1.3-4.44,1.2-6.73
			c-0.08-1.88-0.57-3.71-1.06-5.53c-6.92-25.91-12.77-52.11-17.51-78.5c-0.7-3.89-1.42-7.9-3.52-11.25
			c-2.16-3.44-5.63-5.89-9.32-7.58c-6.79-3.11-16.08-3.26-20.44,2.8c-1.72,2.39-2.38,5.37-2.94,8.27
			c-1.67,8.67-2.81,17.43-3.42,26.24"/>
		<path class="st2" d="M961.68,1259.02c-2.07-8.1-11.69-11.81-20.05-11.8c-15.19,0.02-30.07,8.66-37.62,21.83
			c-1.63,2.85-2.96,5.98-2.99,9.26c-0.03,2.7,0.83,5.34,1.83,7.85c2.51,6.26,6.01,12.12,10.35,17.28
			c4.71,5.62,10.36,10.39,15.18,15.92c4.82,5.53,8.88,12.13,9.48,19.43c0.61,7.43-2.41,14.65-5.74,21.32s-7.12,13.31-8.24,20.68
			s1.14,15.84,7.51,19.71c3.93,2.39,8.74,2.68,13.34,2.92c7.39,0.37,14.8,0.75,22.17,0.14c7.5-0.62,14.88-2.25,22.23-3.88
			c21.8-4.82,44.07-9.84,63.02-21.64c9-5.61,17.05-12.63,24.68-20c3.77-3.64,7.49-7.42,10.27-11.87c9.58-15.32,6.06-36.25-4.6-50.84
			s-27.12-23.83-43.85-30.64c-5.96-2.42-12.19-4.63-18.62-4.48c-4.4,0.1-8.7,1.3-12.94,2.5c-11.79,3.32-23.58,6.64-35.36,9.96
			c-1.45,0.41-3.28,1.58-2.62,2.93"/>
		<path class="st2" d="M1000.7,1274.91c3.72,9.1,8.86,18.33,7.7,28.09c-1.37,11.55-11,20.03-19.01,28.47
			c-3.61,3.81-7.07,7.95-8.84,12.89c-1.24,3.46-1.59,7.18-2.69,10.69c-1.7,5.43-5.17,10.34-5.79,16c-0.67,6.11,1.84,13.21-2.13,17.9
			c-2.49,2.93-6.63,3.66-10.32,4.77c-3.69,1.11-7.7,3.4-8.13,7.23c8.09,8.11,20.91,8.45,32.36,8.26c12-0.2,23.99-0.4,35.99-0.59
			c26.46-0.44,54.65-1.41,76.41-16.47c7.96-5.51,14.62-12.65,21.21-19.73c4.36-4.68,8.83-9.54,11.02-15.55
			c3.63-9.99,0.32-20.98-0.18-31.6c-0.41-8.72,1.12-17.57-0.6-26.12c-2.08-10.37-8.67-19.17-15.03-27.62
			c-15-19.95-29.98-40.7-36.79-64.71c-2.07-7.28-3.77-15.44-9.83-19.97c-3.01-2.25-6.73-3.28-10.36-4.26
			c-15.28-4.14-37.68-16.98-48.07,0.18c-10.41,17.19-15.06,38.33-14.2,58.29C993.91,1252.65,996.31,1264.17,1000.7,1274.91z"/>
		<path class="st2" d="M1093.66,1157.42c-14.56-8.98-27.31-20.86-37.29-34.75c-4.43,10.38-5.24,22.27-2.27,33.15
			c-4.98,0-6.24-6.81-9.21-10.81c-3.4-4.56-10.13-5.6-15.5-3.72s-9.6,6.05-13.23,10.43c-24.7,29.8-28.16,75.4-8.24,108.58
			c8.9,14.82,21.67,26.88,32.05,40.7c5.73,7.62,10.95,16.84,9.15,26.2c-1.31,6.78-6.07,12.29-9.39,18.35
			c-3.32,6.06-4.99,14.22-0.46,19.44c3.14,3.63,8.24,4.65,12.8,6.13c8.35,2.72,15.96,7.69,21.81,14.24
			c-1.91,2.29-3.82,4.58-5.74,6.87c6.13-0.01,12.26-0.01,18.39-0.02c2.71,0,6.56,2.24,4.73,4.24c4.15,2.04,9.26,0.4,12.94-2.39
			s6.44-6.62,9.87-9.71c5.55-5.01,12.74-8.03,17.97-13.37c10.25-10.48,10.51-27.46,5.9-41.38c-1-3.03-2.21-6.06-2.34-9.24
			c-0.1-2.49,0.47-4.96,0.41-7.45c-0.15-6.47-4.37-12.04-6.49-18.16c-2.61-7.53-1.97-15.73-2.36-23.69
			c-0.86-17.7-6.9-34.68-12.87-51.37c-3.27-9.14-6.54-18.28-9.81-27.41c-0.54-1.5-1.09-3.08-0.9-4.66c0.45-3.81,4.59-5.78,7.84-7.82
			c6.81-4.29,11.49-11.81,12.34-19.81c0.84-8.01-2.16-16.33-7.93-21.95c-4.25-4.14-9.72-6.74-15.09-9.26
			c-5.06-2.38-10.12-4.76-15.17-7.14c-3.39-1.59-6.87-3.21-10.6-3.56s-7.83,0.84-10.01,3.89"/>
		<path class="st3" d="M955.48,752.6c-4.25-7.19-14.18-8.37-22.45-7.26c-19.85,2.67-38.31,14.3-49.31,31.03
			c-3.52,5.36-6.29,11.17-9.05,16.96c-15.4,32.34-31.14,66.1-30.84,101.92c3.78-0.2,6.07-4.08,8.08-7.29
			c10.14-16.18,28.75-24.61,46.29-32.15c1.51-0.65,3.24-1.3,4.75-0.65c1.06,0.46,1.75,1.47,2.66,2.18c3.59,2.83,8.69,0.3,13.07-1.03
			c4.37-1.33,9.14-1.32,13.5,0.03c4.69,1.45,9.04,4.42,13.95,4.38c5.53-0.04,10.22-3.88,15.41-5.82c0.96-0.36,2.04-0.65,2.98-0.25
			c1.34,0.57,1.77,2.23,1.98,3.67c1.15,7.91,0.67,16.06-1.4,23.78c7.33-5.63,17-6.9,25.59-10.31c20.45-8.1,34.37-29.04,36.76-50.9
			c0.31-2.85,0.45-5.78-0.25-8.57c-0.92-3.64-3.19-6.77-5.41-9.8c-4.09-5.57-8.17-11.13-12.26-16.7
			c-5.72-7.8-11.53-15.69-19.05-21.78s-17.06-10.27-26.7-9.39"/>
		<path class="st3" d="M990.78,864.72c0.79-0.15-0.41-1.11-1.17-0.83c-3.3,1.19-6.6,2.37-9.9,3.56c-3.11,1.12-6.27,2.26-8.92,4.24
			s-4.75,4.95-4.87,8.26c3.87,2.67,9.08,1.45,13.76,1.86c6.46,0.56,12.14,4.32,17.5,7.96c4.62,3.14,9.41,6.45,12.13,11.33
			c2.5,4.47,2.97,9.75,3.39,14.85c0.51,6.18,1.02,12.35,1.54,18.53c0.31,3.7,0.67,7.57,2.68,10.7c3.28,5.1,10.45,6.77,16.19,4.8
			c5.74-1.97,10.07-6.9,12.69-12.38c2.62-5.48,3.74-11.52,4.87-17.49c0.27-1.43,0.67-3.05,1.94-3.76c0.59-0.33,1.29-0.41,1.96-0.52
			c2.75-0.43,5.38-1.39,8-2.35c13.53-4.96,27.72-10.37,36.88-21.49c2.67-3.24,4.89-7.09,5.09-11.28c0.23-4.82-2.21-9.31-4.57-13.52
			c-2.47-4.4-5.06-8.94-9.12-11.94c-2.38-1.76-5.15-2.9-7.92-3.92c-21.07-7.74-44.42-9.15-66.27-4.01
			c-3.89,0.91-8.08,2.28-10.2,5.67"/>
		<path class="st3" d="M1031.37,941.88c-1.8,2.27-5.26-0.1-8.12-0.54c-2.95-0.45-5.85,1.56-7.32,4.16s-1.78,5.68-1.93,8.66
			c-1.07,20.69,4.01,41.17,5.74,61.81c0.77,9.24,0.88,18.52,1.71,27.75c2.01,22.16,8.21,43.69,14.38,65.07
			c4.24,14.71,8.49,29.42,12.73,44.13c0.66,2.29,1.39,4.7,3.14,6.33c2.17-1.37,2.33-4.42,2.24-6.98
			c-0.62-17.33-1.85-34.65-3.7-51.89c-0.57-5.3-1.2-10.6-2.48-15.77c-0.72-2.89-1.64-5.74-1.96-8.7c-0.35-3.27,0.06-6.57,0.4-9.84
			c3.65-35.28-1.03-71.09,3.32-106.29c0.84-6.77,2.01-13.49,3.5-20.14c0.23-1.02,0.45-2.15-0.07-3.05c-0.83-1.45-2.9-1.4-4.54-1.11
			c-6.13,1.1-12.11,3.05-17.71,5.78c-1.9,0.92-4.05,2.52-3.66,4.59"/>
		<path class="st3" d="M1044.76,935.19c0.09,0.98,0.27,2.01,0.9,2.76c0.88,1.06,2.39,1.29,3.75,1.45c0.39,0.05,0.81,0.09,1.15-0.1
			c0.39-0.21,0.57-0.66,0.72-1.08c1.53-4.43,1.33-9.44-0.55-13.74C1047.27,916.59,1044.53,932.64,1044.76,935.19z"/>
		<path class="st3" d="M1120.1,778.24c-3.23-4.03-8.68-5.43-13.78-6.25c-17.38-2.81-35.7-1.59-51.76,5.62
			c-30.43,13.65-48.84,49.86-41.94,82.49c2.06,9.73,6.77,19.75,15.68,24.16c7.8,3.85,17.05,2.6,25.61,1.05
			c4.11-0.75,8.36-1.54,12.42-0.57c4.06,0.97,7.9,4.25,8.07,8.43c0.24,5.8-5.99,9.45-11.31,11.75c3.77,6.21,12.98,5.15,19.94,3.05
			c18.1-5.48,35.63-12.68,53.07-19.99c29.15-12.22,58.28-24.83,85.23-41.35c8.61-5.27,16.99-10.95,25.97-15.55
			c12.72-6.51,26.78-10.98,37.56-20.37c5.1-4.44,9.5-10.4,9.66-17.16c0.16-6.67-3.84-12.77-8.56-17.49
			c-15.04-15.03-37.43-19.96-58.67-21.13c-41.06-2.27-82.69,7.16-118.77,26.88"/>
		<path class="st3" d="M1057.91,671.81c-30.51,8.22-62.55,17.47-84.49,40.21c-11.36,11.77-19.2,26.41-26.9,40.84
			c-4.08,7.66-8.27,16.55-5.18,24.66c2.13,5.59,7.25,9.37,12.12,12.84c8.36,5.96,16.79,11.95,26.15,16.19
			c13.59,6.16,28.57,8.37,42.96,12.32c13.48,3.7,26.54,8.96,38.82,15.65c6.29,3.42,12.58,7.29,19.67,8.28
			c5.97,0.84,12.02-0.45,17.91-1.77c24.53-5.49,50.26-12.34,67.85-30.3c11.76-12.01,19.26-28.44,33.51-37.35
			c6.08-3.8,13.4-6.25,17.61-12.05c5.39-7.42,3.86-17.62,2.09-26.62c-2.29-11.65-4.87-23.91-12.74-32.8
			c-4.68-5.29-10.91-8.98-15.82-14.06c-4.91-5.08-8.48-12.54-5.97-19.14c-33.37-2.93-67.03-2.63-100.35,0.9
			c-3.09,0.33-6.85,1.24-7.62,4.24"/>
		<path class="st3" d="M1089.7,682.59c2.1-2.18,3.06-5.4,2.5-8.37c-0.07-0.38-0.17-0.77-0.39-1.08c-0.31-0.43-0.8-0.67-1.29-0.87
			c-4.75-2.01-10.07-2.11-15.23-2.11c-4.94,0-10.22,0.15-14.27,2.98c-7.55,5.26,5.74,9.88,9.85,11.42
			C1076.46,686.64,1085.25,687.22,1089.7,682.59z"/>
		<path class="st3" d="M1290.76,749.25c-4.55-10.28-9.09-20.57-13.64-30.85c-1.2-2.71-2.41-5.44-4.21-7.79
			c-2.04-2.67-4.75-4.73-7.42-6.76c-12.85-9.75-25.91-19.62-40.92-25.52c-12.69-4.99-26.35-6.97-39.93-8.28
			c-4.68-0.45-9.49-0.81-14.01,0.47c-6.68,1.9-11.98,7.26-15.13,13.45c-3.15,6.18-4.4,13.16-5.14,20.06
			c-1.33,12.39-1.11,25.14,2.65,37.02c3.77,11.88,11.38,22.85,22.26,28.92c17.51,9.76,39.47,5.38,58.73,10.93
			c1.09,0.31,2.21,0.68,3.06,1.43c2.07,1.83,1.76,5.25,0.38,7.65c-3.73,6.47-13.18,8.59-15.55,15.68
			c-1.66,4.98,1.13,10.57,5.29,13.77c4.16,3.2,9.41,4.55,14.5,5.81c1.34,11.96,3.4,25.23,12.88,32.64
			c6.42,5.02,14.97,6.22,23.1,6.79c10.32,0.73,20.84,0.72,30.83-1.98c9.99-2.7,19.48-8.34,25.17-16.98
			c5.85-8.89,7.17-19.91,8.34-30.49c1.09-9.95,2-20.78-3.35-29.24c-2.24-3.55-5.44-6.38-8.02-9.69
			c-4.89-6.25-7.61-14.17-13.42-19.58c-5.47-5.1-12.95-7.29-19.95-9.92c-1.64-0.62-3.33-1.31-4.52-2.6c-0.82-0.89-1.34-2-1.85-3.1
			c-1.63-3.52-3.27-7.03-4.9-10.55c-3.1,0.2-6.2,0.41-9.31,0.61"/>
		<path class="st3" d="M1333.45,774.99c0.46-2.5-1.56-4.77-3.66-6.21c-1.77-1.22-3.76-2.2-5.9-2.43s-4.43,0.39-5.9,1.95
			c-0.61,0.66-1.08,1.51-1.03,2.41c0.08,1.31,1.2,2.28,2.26,3.05c3.58,2.59,7.52,4.67,11.68,6.17c0.23,0.08,0.49,0.21,0.52,0.45
			c0.03,0.24-0.43,0.36-0.42,0.12"/>
		<path class="st3" d="M1257.53,847.3c-2.2-1.2-4.62-2.68-5.13-5.13c-0.11-0.55-0.13-1.13-0.41-1.62c-0.65-1.12-2.44-1.01-3.36-0.1
			c-0.92,0.91-1.19,2.28-1.36,3.56c-2.31,17.72,5.7,34.98,13.51,51.06c1.7,3.5,3.4,7,5.1,10.5c2.65,5.45,5.31,10.94,7.08,16.74
			c0.7,2.3,1.33,4.75,3.03,6.44c1.78,1.76,4.4,2.36,6.45,3.8c3.83,2.68,5.36,8.06,9.59,10.06c3.06-18.15-4.19-36.5-3.79-54.91
			c0.02-0.91,0.08-1.89,0.67-2.59c0.6-0.71,1.59-0.95,2.51-1.01c6.68-0.46,12.06,5.67,14.4,11.95c12.32-1.03,24.84,0.47,36.58,4.36
			c1.6,0.53,3.3,1.19,4.26,2.58c-1.99-11.14-1.81-22.66,0.52-33.73c0.61-2.91,1.38-5.83,1.38-8.8c0-2.79-0.68-5.52-1.36-8.23
			c-2.47-9.9-4.94-19.79-7.41-29.69c-1.54-6.17-3.68-13.1-9.42-15.82c-3.77-1.78-8.19-1.25-12.29-0.52
			c-16.73,2.97-33.01,8.52-48.07,16.39c-5.85,3.05-12.15,7.4-12.82,13.96"/>
		<path class="st3" d="M934.24,967.84c-0.14,8.59-0.27,17.24,1.24,25.69c1.58,8.85,4.93,17.26,8.26,25.61
			c0.24,0.6,0.54,1.26,1.14,1.48c0.51,0.19,1.08,0.01,1.6-0.19c13.21-5,23.97-16.06,28.61-29.39c-3.71,0.11-7.54,0.2-11.02-1.08
			c-2.1-0.78-3.99-2.03-5.86-3.27c-5.69-3.79-11.6-7.94-14.49-14.13c-1.81-3.88-2.27-8.24-2.66-12.5
			c-0.79-8.72-1.52-17.48-1.79-26.23c-0.06-1.82,1-12.92-1.28-13.51c-4.26-1.1-3.26,17.28-3.3,19.45
			C934.54,949.12,934.39,958.48,934.24,967.84z"/>
		<path class="st3" d="M942.43,959.73c-0.26-1.27-0.7-2.89-1.99-3.01c-1.19-0.11-1.88,1.16-2.14,2.4c-0.04,0.2-0.08,0.4-0.1,0.6
			c-0.31,2.77-0.96,14.27,3.54,12.75C946.96,970.7,943.01,962.56,942.43,959.73z"/>
		<path class="st4" d="M963.99,1416.31c12.26,1.83,24.75,0.92,37.1-0.17c21.99-1.93,43.93-4.39,65.8-7.38
			c7.73-1.06,15.49-2.18,22.97-4.42c20.45-6.11,38.2-20.75,48.09-39.67c2.54,4.48-1.07,9.83-1.81,14.93
			c-1,6.83,3.27,13.16,5.54,19.68c2.04,5.89,2.47,12.2,2.87,18.43c1.43,21.98,2.8,44.52-3.52,65.62
			c-5.77,19.26-17.7,36.23-31.88,50.49c-14.18,14.26-30.62,26.04-47.07,37.6c-5.13,3.6-10.33,7.23-16.17,9.5
			c-17.55,6.82-38.21-0.06-51.95-12.94s-21.66-30.74-27.5-48.63c-2.91-8.93-5.77-18.57-13.06-24.51
			c-5.24-4.27-12.7-6.61-15.26-12.86c-1.42-3.49-0.93-7.42-0.55-11.16c1.91-19-0.36-37.59-5.31-55.95
			c-2.44-9.05-2.62-13.42,6.41-7.75C946.42,1411.98,954.97,1414.96,963.99,1416.31z"/>
		<path class="st4" d="M996.92,1531.37c-9-9.04-17.99-18.09-26.99-27.13c-3.5-3.52-7.16-7.33-8.13-12.2c-1-5,0.26-11.74-4.36-13.87
			c-2.5-1.15-5.6-0.09-8.1-1.25c-1.66-0.77-2.86-2.45-4.64-2.88c-2.38-0.58-4.76,1.45-5.51,3.78c-0.75,2.33-0.33,4.86,0.01,7.28
			c4.68,33.47-7.76,67.14-6.34,100.9c0.69,16.34,4.62,32.36,8.53,48.24c1.54,6.25,3.08,12.51,4.62,18.76
			c1.71,6.97,3.59,14.25,8.4,19.57c7.02,7.76,18.51,9.46,28.97,9.28c10.65-0.18,21.55-1.89,30.76-7.25
			c14.65-8.54,22.81-24.85,35.32-36.3c9.88-9.03,22.22-14.82,34.35-20.46c6.44-2.99,13.49-6.06,20.4-4.45
			c3.33,0.77,6.36,2.6,9.74,3.15c8.29,1.34,15.84-5.42,19.71-12.87c3.87-7.45,5.47-15.96,9.79-23.16c1.73-2.89,3.88-5.54,5.21-8.63
			c4.52-10.54-1.64-22.85,0.77-34.06c1.1-5.15,3.99-9.9,4.27-15.15c0.24-4.56-1.5-8.95-2.61-13.38c-1.81-7.27-1.92-14.85-2.01-22.34
			c-0.32-25.1-0.63-50.21-0.95-75.31c-0.04-3.56-0.09-7.14,0.52-10.65c0.52-2.97,1.5-5.84,2.03-8.81
			c1.83-10.28-2.29-21.4-10.36-28.01c-10.77,11.49-24.57,19.65-38.47,27.05c-17.74,9.44-35.98,17.89-54.22,26.33
			c-5.6,2.59-11.2,5.19-16.8,7.78c-4.1,1.9-8.58,3.85-13,2.86c-4.41-0.98-7.97-6.42-5.4-10.14c-13.08,2.1-26.37,4.86-37.69,11.73
			s-20.47,18.62-20.93,31.86"/>
		<path class="st4" d="M998.7,1455.34c18.9-2.21,37.35-8.16,53.97-17.43c4.73-2.64,9.42-5.63,12.72-9.92
			c3.3-4.29,5.02-10.14,3.22-15.25c-2.34-6.61-9.85-10.13-16.86-10.32c-7-0.19-13.78,2.18-20.59,3.86
			c-27.88,6.9-57.24,2.34-85.28-3.89c-4.37-0.97-9.58-1.77-12.79,1.35c-1.21,1.17-1.93,2.75-2.52,4.33
			c-5.01,13.28-2.65,28.07-0.18,42.04c4.82,27.34,9.82,54.65,14.99,81.93c1.01,5.35,2.98,11.75,8.29,12.98
			c2.66,0.62,5.42-0.34,7.93-1.41c26.12-11.16,43.98-35.38,66.64-52.5c15.04-11.36,32.36-19.69,46.19-32.49
			c3.7-3.42,7.24-7.35,8.53-12.22c1.95-7.36-1.61-14.94-5.07-21.72c-1.98-3.88-4.05-7.87-7.44-10.6c-3.39-2.73-8.48-3.85-12.11-1.46
			"/>
		<path class="st4" d="M991.04,1671.56c-10.43-3.17-12.8-16.84-20.34-24.72c-5.21-5.45-12.73-7.89-19.92-10.13
			c-1.35-0.42-2.74-0.85-4.15-0.76c-3.98,0.24-6.66,4.47-6.95,8.45c-0.29,3.98,1.09,7.86,1.75,11.79c0.72,4.27,0.61,8.69,1.83,12.84
			c3.47,11.75,16.56,17.99,28.72,19.4c15.77,1.84,31.61-1.95,47.48-2.51c12.1-0.43,24.18,1.01,36.28,1.35
			c24.92,0.7,49.96-3.31,73.41-11.76c3.58-1.29,7.38-2.89,9.31-6.17c1.34-2.27,1.56-5,1.75-7.62c2.23-30.65,4.1-61.32,5.61-92
			c0.15-3.05,0.23-6.34-1.47-8.87c-1.5-2.23-4.11-3.43-6.65-4.29c-22.97-7.85-47.76,2.73-69.71,13.09
			c-28.2,13.32-56.41,26.64-84.61,39.96c-3.71,1.75-8.12,4.92-6.93,8.86"/>
		<path class="st4" d="M959.59,1683.07c-0.11-0.65-0.82-0.98-1.38-1.33c-1.61-0.99-2.48-2.83-3.85-4.13
			c-0.29-0.27-0.61-0.53-0.99-0.63c-0.34-0.09-0.7-0.06-1.05,0.02c-1.85,0.43-3.21,2.11-3.77,3.92c-0.56,1.81-0.47,3.76-0.32,5.65
			c0.02,0.29,0.05,0.59,0.22,0.82c0.16,0.22,0.41,0.34,0.66,0.44c1.61,0.66,3.36,0.87,5.09,1.06c1.15,0.13,2.3,0.26,3.45,0.39
			c1.65,0.19,3.29,0.38,4.95,0.45c2.35,0.11,4.71,0,7.06-0.1c1.56-0.07,3.13-0.14,4.66-0.48c1.33-0.3,2.72-0.88,3.36-2.08
			c0.55-1.03,0.41-2.34-0.13-3.38c-0.54-1.04-1.44-1.85-2.4-2.53c-5-3.55-11.57-3.94-17.68-3.42c-0.3,0.03-0.69,0.15-0.69,0.45"/>
		<path class="st4" d="M1042.68,1683.08c-7.72-2.7-16.05-3.15-24.23-2.87c-3.24,0.11-6.5,0.34-9.62,1.22
			c-2.38,0.67-4.63,1.72-6.87,2.75c-1.95,0.9-3.9,1.81-5.85,2.71c-0.53,0.25-1.14,0.6-1.18,1.18c-0.06,0.84,1.02,1.21,1.86,1.3
			c15.87,1.62,31.89-0.43,47.83,0.11c3.66,0.12,7.33,0.38,10.97-0.03s7.29-1.55,10.09-3.91c0.42-0.35,0.84-0.79,0.86-1.33
			c0.01-0.33-0.13-0.65-0.3-0.95c-1.51-2.67-4.57-4.01-7.51-4.9c-2.27-0.69-4.59-1.22-6.94-1.58c-2.63-0.41-5.55-0.54-7.7,1.03"/>
		<path class="st4" d="M1117.63,1674.53c-11.1-2.62-23.3-0.12-32.47,6.65c-0.27,0.2-0.54,0.4-0.86,0.5
			c-0.66,0.21-1.36-0.06-2.02-0.24c-2.07-0.55-4.26-0.15-6.37,0.26c-3.19,0.62-6.38,1.27-9.57,1.92c-2.52,0.51-5.1,1.04-7.32,2.36
			c-0.28,0.16-0.57,0.38-0.63,0.69c-0.09,0.51,0.45,0.88,0.92,1.08c3.83,1.64,8.12,1.69,12.29,1.69c8.31,0,16.62-0.09,24.93-0.17
			c10.42-0.11,20.85-0.22,31.27-0.33c3.41-0.04,6.93-0.1,10.03-1.51c3.1-1.41,5.67-4.57,5.3-7.95c-0.43-3.88-4.32-6.37-7.99-7.68
			c-4.41-1.57-9.17-2.27-13.81-1.65c-4.64,0.62-9.14,2.61-12.47,5.9"/>
		<path class="st4" d="M1138.85,1665.63c-0.59-0.17-1.22-0.12-1.82,0.02c-2.46,0.57-4.45,2.51-5.6,4.75
			c-1.16,2.25-1.59,4.79-1.85,7.31c-0.2,1.91-0.31,3.82-0.67,5.7c-0.33,1.69-1,3.51-2.54,4.27c2.36,0.02,4.48,1.43,6.8,1.84
			c0.85,0.15,1.71,0.16,2.57,0.17c2.96,0.04,5.92,0.09,8.87,0.13c0.46-2.85-0.37-5.74-0.53-8.62c-0.11-2.06,0.12-4.12,0.08-6.18
			c-0.04-1.7-0.26-3.39-0.49-5.08c-0.17-1.28-0.03-2.79-1.48-2.99c-0.59-0.08-0.99,0.06-1.56-0.23
			C1139.98,1666.42,1139.57,1665.85,1138.85,1665.63z"/>
		<path class="st5" d="M819.26,1222.42c16.2,34.95,43.06,64.87,76.07,84.74c2.57-3.7,5.14-7.41,7.71-11.11c8.47,10,16.93,20,25.4,30
			c2.14,2.53,4.36,5.21,5.05,8.46c0.88,4.14-0.87,8.33-2.41,12.27c-10.07,25.72-12.56,54.36-7.09,81.43
			c1.95,9.66,4.9,19.17,5.53,29.01c1.33,20.92-7.85,40.9-16.82,59.85c-13.85,29.25-29,60.02-56.21,77.53
			c-10.32,6.64-21.9,11.02-33.49,15.07c-11.65,4.07-23.47,7.87-35.68,9.68c-49.12,7.31-98.91-19.32-129.74-58.24
			c-30.84-38.92-45.31-88.38-53.01-137.44c-3.69-23.51-5.88-48.23,2.34-70.56c4.95-13.45,13.42-25.27,21.79-36.91
			c9.04-12.57,18.33-25.39,31.03-34.24c9.38-6.53,20.2-10.61,30.91-14.62c22.57-8.46,45.15-16.92,67.72-25.39
			c15.32-5.74,30.72-11.51,46.74-14.87"/>
		<path class="st5" d="M707.35,1581.41c-1.84-1.82-4.89-0.1-6.76,1.68c-15.52,14.8-25.37,35.4-27.14,56.77
			c-0.94,11.32-0.25,24.2-8.3,32.22c-1.46,1.46-3.19,2.71-4.18,4.53c-0.99,1.81-0.91,4.46,0.85,5.54c1.41,0.88,3.23,0.41,4.87,0.14
			c3.74-0.61,7.66,0.02,11.02,1.77c2.09,1.09,3.96,2.59,6.13,3.5c6.27,2.63,13.34-0.13,19.74-2.41
			c27.29-9.72,56.78-10.64,85.4-15.11c22.46-3.51,44.57-9.27,65.89-17.15c10.31-3.81,20.57-8.2,29.22-14.98
			c20.49-16.08,28.97-43.23,31.53-69.15c0.63-6.33,0.96-12.82-0.63-18.98c-3.06-11.87-13.06-21.04-24.36-25.78
			c-11.3-4.74-23.83-5.61-36.09-5.54c-45.95,0.24-91.78,13.05-131.2,36.68"/>
		<path class="st5" d="M748.98,1663.56c-19.39,6.62-38.55,13.93-57.42,21.91c-1.33,0.56-2.93,1.69-2.44,3.05
			c16.65,3.33,33.83,2.37,50.79,1.39c8.39-0.48,16.79-0.97,25.18-1.45c6.21-0.36,12.42-0.72,18.63-0.94
			c21.28-0.76,42.72,0.1,63.77-3.17s42.17-11.15,56.79-26.64c3.09-3.27,6.02-7.92,4.11-12c-1.01-2.17-3.17-3.54-5.24-4.73
			c-19.61-11.26-42.45-16.81-65.04-15.82"/>
		<path class="st5" d="M903.69,1669.1c-18.23-2.4-36.99-4.77-54.8-0.21c-13.85,3.54-26.58,11.17-40.74,13.09
			c-6.64,0.9-13.4,0.52-20.08,1.15c-6.68,0.63-13.55,2.44-18.49,6.97c32.59,1.29,65.28,0.28,97.73-3.02
			c6.41-0.65,12.83-1.39,19.26-1.18c7.04,0.23,14,1.59,21.02,2.12c9.19,0.7,18.89-0.15,26.72-5.01
			c7.83-4.86,13.18-14.55,10.75-23.45c-0.36-1.32-0.92-2.66-1.99-3.51c-1.14-0.91-2.66-1.13-4.11-1.29
			c-16.87-1.85-34.19,0.56-49.92,6.94"/>
		<path class="st5" d="M933,1669.14c0.45-0.92-0.86-1.66-1.86-1.85c-11.57-2.2-23.21-4.4-34.99-4.72
			c-11.78-0.32-23.81,1.34-34.39,6.53c-2.43,1.19-4.85,2.64-6.32,4.91c-1.47,2.27-1.67,5.55,0.18,7.52
			c3.02,3.2,9.79,1.72,11.32,5.85c-4.49-0.16-8.97-0.33-13.46-0.49c-2.45-0.09-5.75,0.56-5.85,3c5.06,3.58,11.95,1.91,18.03,0.69
			c27.13-5.45,55.13,1.18,82.79,0.54c1.01-5.77-2.2-11.32-3.75-16.98c-2.5-9.12-0.67-19.06-3.52-28.07
			c-0.43-1.36-0.97-2.7-1.12-4.11c-0.17-1.63,0.18-3.27,0.42-4.89c1.88-12.87-4.15-26.56-14.9-33.88
			c-10.75-7.31-25.71-7.88-36.98-1.4c-8.65,4.97-14.82,13.48-18.76,22.65s-5.86,19.04-7.76,28.83"/>
		<path class="st5" d="M913.9,1450.8c-1.36-1.57-3.94-1.52-5.71-0.45s-2.93,2.91-3.96,4.71c-10.06,17.55-14.79,38.11-13.41,58.3
			c1.01,14.74,5.17,29.09,6.79,43.78c0.61,5.54,0.85,11.24-0.7,16.6c-1.88,6.46-6.35,12.83-4.52,19.31
			c1.99,7.04,10.72,10.82,11.97,18.02c0.42,2.44,0.04,5.34,1.86,7.02c0.87,0.8,2.07,1.12,3.22,1.38c8.4,1.92,17.13,2.38,25.69,1.35
			c1.69-3.1,2.08-6.71,2.43-10.22c3-30.89,4.19-61.95,3.54-92.98c-0.09-4.46-0.23-8.94-1.15-13.3c-0.72-3.39-1.91-6.67-2.73-10.04
			c-0.88-3.59-1.34-7.27-1.79-10.94c-1.46-11.71-2.92-23.43-4.38-35.14c-0.34-2.7-0.67-5.41-0.58-8.13c0.09-2.61,0.59-5.2,0.6-7.81
			c0.02-5.32-1.96-10.42-2.85-15.66c-1.94-11.39,0.94-24.36-5.9-33.68c-15.4,14.88-23.9,36.62-22.68,57.99
			c0.37,6.47,1.57,13.06,0,19.34c-1.57,6.28-7.05,12.26-13.5,11.63"/>
		<path class="st5" d="M599.88,1443.32c-8.57,0.52-16.54,6-20.58,13.58c-3.74,7.02-4.24,15.25-4.61,23.2
			c-1.26,26.95-2,54.17,2.86,80.71c1.28,6.99,2.94,13.91,4.85,20.76c8.17,29.36,20.83,57.46,37.39,83.04
			c4.55,7.03,9.48,13.96,15.91,19.34s14.56,9.12,22.94,8.83c3.95-0.14,7.82-1.15,11.58-2.35c31.87-10.12,58.24-33.34,78.26-60.12
			c7.13-9.53,13.63-19.69,17.6-30.91c9.15-25.81,4.15-54.29-1.94-80.98c-1.36-5.95-2.8-11.97-5.69-17.35
			c-3.46-6.44-8.83-11.62-14.18-16.6c-7.53-7.01-15.38-13.98-24.78-18.15c-9.73-4.31-20.57-5.37-30.73-8.54
			c-5.38-1.68-10.56-3.95-15.97-5.52c-13.13-3.81-28.44-4.29-42.01-2.94c-5.64,0.56-9.01,2.94-14.13-0.11
			C611.12,1445.92,606.68,1442.91,599.88,1443.32z"/>
		<path class="st5" d="M655.14,1307.51c-3.44-4.14-6.88-8.28-10.32-12.41c-6.26-7.53-12.6-15.13-20.49-20.93
			c-6.16-4.53-14.19-7.93-21.35-5.25c-3.29,1.23-6,3.62-8.63,5.96c-2.17,1.93-4.39,3.93-5.62,6.55c-1.82,3.87-1.19,8.38-1.19,12.67
			c0,5.71-1.2,11.34-2.18,16.96c-3.51,20.04-4.39,40.45-4.61,60.8c-0.25,23.92,0.38,48.01-3.85,71.55
			c-0.84,4.67-1.87,9.41-1.24,14.11c0.75,5.57,3.78,10.58,7.27,14.98c2.04,2.56,4.48,5.11,7.69,5.76c3.57,0.72,7.12-1.1,10.26-2.95
			c5.32-3.14,10.48-6.54,15.45-10.2c5.02-3.69,9.87-7.66,13.99-12.33c4.64-5.28,8.27-11.37,11.44-17.64
			c9.47-18.73,15-39.16,20.48-59.42c0.78-2.89,1.57-5.83,1.45-8.82c-0.25-6.5-4.65-12.05-6.35-18.33
			c-2.47-9.09,0.88-18.61,3.63-27.62c0.49-1.62,0.96-3.4,0.32-4.96c-0.39-0.96-1.16-1.71-1.9-2.43c-3.26-3.15-6.52-6.31-9.78-9.46
			c-0.12,1.48-0.24,2.97-0.35,4.45"/>
		<path class="st5" d="M589.17,1271.22c-1.73,8.57-3.34,17.51-1.07,25.95c0.6,2.25,1.52,4.49,3.17,6.13
			c4.2,4.19,11.13,3.02,16.93,1.8c17.12-3.59,34.89-4.98,52.14-2.02c17.24,2.95,33.98,10.46,46.32,22.87
			c2.11,2.12,4.17,4.43,6.91,5.64c6.2,2.74,13.25-1.08,18.58-5.28c18.96-14.92,32.18-35.82,44.29-56.69
			c1.59-2.73,3.22-5.54,5.69-7.5c6.07-4.8,14.99-3.08,22.22-5.84c11.82-4.5,15.72-18.79,20.36-30.55
			c10.12-25.65,30.25-46.07,42.73-70.66c3.68-7.25,6.7-15.85,3.52-23.33c-2.7-6.36-9.17-10.17-15.32-13.32
			c-44.24-22.65-93.97-34.23-143.67-34.39c-19-0.06-38.73,1.73-55.19,11.23c-19.72,11.38-24.53,31.92-32.8,51.46
			c-10.46,24.73-17.33,51.58-24.01,77.53C595.96,1239.8,592.36,1255.47,589.17,1271.22z"/>
		<path class="st5" d="M710.43,1047.18c-11.46-2.36-23.12,2.07-33.98,6.41c-8.15,3.26-16.49,6.64-22.95,12.58
			c-2.97,2.74-5.47,5.95-7.77,9.27c-3.51,5.07-6.61,10.42-9.25,15.99c-5.13,10.83-8.5,22.39-11.86,33.89
			c-5.52,18.95-11.09,38.23-10.84,57.97c0.04,2.95,1.47,6.96,4.35,6.32c1.14-0.25,1.95-1.23,2.67-2.15
			c13.95-17.97,25.48-37.99,41.82-53.81c9.54-9.24,22.27-17.29,35.32-14.83c8.19,1.55,15.01,6.97,22.37,10.89
			c8.95,4.76,18.87,7.34,28.69,9.88c7.17,1.85,14.55,3.72,21.89,2.79c8.76-1.11,16.63-6.09,25.33-7.6
			c13.92-2.43,27.62,4.21,41.51,6.87c8.23,1.58,16.72,1.75,25,0.52c4.2-0.63,8.98-2.13,10.49-6.1c1.14-3.01-0.04-6.35-1.17-9.37
			c-8.59-22.95-14.22-47.01-16.7-71.4c-0.37-3.67-0.71-7.47-2.51-10.69c-4.61-8.25-15.98-8.97-25.42-8.66
			c-42.57,1.4-85.39,2.82-127.09,11.51c-2.34,0.49-4.84,1.08-6.46,2.84c-1.63,1.75-1.77,5.06,0.32,6.22"/>
		<path class="st5" d="M1101.45,1188.21c0.37,3.06,2.27,5.68,3.98,8.24c18.67,28.05,19.13,63.85,23.91,97.2
			c1.15,8.02,2.63,16.14,6.39,23.32c3.87,7.37,9.93,13.32,15.89,19.14c9.11,8.89,18.22,17.78,27.32,26.66
			c4.11,4.01,8.32,8.09,13.53,10.51c9.45,4.39,21.55,2.2,28.86-5.22c10.41-10.57,9.68-27.45,8.25-42.22
			c-1.61-16.67-3.23-33.34-4.84-50.01c-5.16-53.38-10.18-108.39,5.44-159.7c-7.76,6.66-15.52,13.32-23.28,19.97
			c-10,8.58-20.38,17.38-32.96,21.33C1159.63,1161.93,1098.15,1160.58,1101.45,1188.21z"/>
		<path class="st5" d="M1181.95,1339.04c-8.21-6.68-16.69-13.02-25.4-19.02c-4.12-2.83-9.14-5.71-13.83-3.99
			c-6.46,2.37-7.14,11.11-6.55,17.97c4.04,47.44,14.01,94.28,16.84,141.81c1.06,17.87,1.12,35.87,4.26,53.5
			c3.13,17.63,9.63,35.16,21.86,48.24c9.24,9.88,21.28,16.73,33.65,22.22c44.62,19.82,96.19,23.44,143.18,10.24
			c6.47-1.82,13.01-4.03,18.27-8.22c5.23-4.18,8.82-10.04,12.01-15.92c16.41-30.28,24.91-64.12,33-97.6
			c2.6-10.79,5.2-21.68,5.45-32.77c0.24-10.5-1.61-20.95-1.68-31.45c-0.15-25.56,9.99-52.82-1.57-75.62
			c-4.41-8.7-11.58-15.65-17.1-23.71c-12.3-17.98-16.56-41.69-33.15-55.8c-5.85-4.98-12.99-8.43-20.52-9.92
			c-3.85-0.76-8.06-0.97-11.51,0.93c-2.84,1.56-4.77,4.33-6.6,7c-9.5,13.9-19.02,27.86-30.1,40.54
			c-11.7,13.4-25.48,25.53-42.04,32.02c-11.37,4.45-23.61,6.08-35.38,9.31c-11.77,3.22-23.63,8.46-31.03,18.16"/>
		<path class="st5" d="M1304.55,1172.17c-1.64,2.79-3.31,5.65-3.87,8.84c-0.6,3.41,0.11,6.91,0.82,10.3
			c4.6,21.93,9.21,43.86,13.81,65.8c1.41,6.7,2.84,13.47,5.77,19.65c4.99,10.54,14.4,18.9,25.45,22.62s23.6,2.77,33.95-2.59
			c4.15-2.15,8.01-4.98,12.51-6.23s10.06-0.39,12.59,3.54c1.69,2.63,1.66,5.98,1.56,9.11c-0.34,11.18-0.68,22.36-1.02,33.55
			c-0.1,3.34-0.18,6.82,1.21,9.87c1.38,3.04,4.7,5.49,7.96,4.74c1.53-0.36,2.83-1.35,4.05-2.34c14.22-11.58,24.93-27.41,30.4-44.91
			c1.99-6.37,3.3-12.94,5.27-19.32c4.03-13.01,10.83-25.21,13.07-38.64c3.13-18.8-2.99-37.78-9.06-55.85
			c-2.27-6.76-4.75-13.84-10.04-18.63c-2.11-1.91-4.57-3.36-7.05-4.76c-10.33-5.84-21.13-10.85-32.24-15
			c-10.47-3.91-21.72-6.07-31.76-11.05c-13.33-6.6-39.84-24.63-50.42-7.79C1319.5,1145.85,1312.2,1159.15,1304.55,1172.17z"/>
		<path class="st5" d="M1424.36,1294.19c-11.23-11.9-29.43-16.68-45.07-11.84c-15.63,4.84-27.94,19.08-30.48,35.25
			c-0.75,4.76-0.69,9.73,0.85,14.3c2.61,7.76,9.24,13.6,16.53,17.31c6.07,3.09,13.25,4.95,19.7,2.76
			c5.98-2.03,10.35-7.17,13.73-12.51c7.63-12.05,11.78-26.29,11.82-40.55c0.02-6.92-1.45-14.76-7.28-18.51"/>
		<path class="st5" d="M1411.93,1315.15c-0.21-1.67-0.43-3.34-0.64-5.01c-3.04,23.71-11.67,46.28-17.62,69.43
			c-5.95,23.15-9.14,48.06-1.34,70.65c2.72,7.89,6.73,15.34,8.82,23.42c2.39,9.24,2.14,19.15-0.71,28.26
			c-3.09,9.88-9.06,18.58-13.15,28.09c-6.99,16.24-8.26,34.87-3.55,51.91c1.83,6.62,5.92,14.05,12.78,14.37
			c8.32,0.39,12.76-9.52,14.56-17.65c8.37-37.65,10.1-76.71,20.88-113.74c2.43-8.35,5.32-16.59,6.99-25.12
			c2.45-12.49,2.23-25.35,3.95-37.97c1.41-10.39,4.13-20.55,6.49-30.77c5.39-23.33,8.98-47.04,12.55-70.71
			c2.21-14.63,4.42-29.31,4.61-44.1c0.08-6.85-1.14-15.09-7.38-17.91c-5.36-2.42-11.53,0.55-16.46,3.75
			c-9.6,6.23-18.46,13.62-26.31,21.96c-4.4,4.67-8.58,9.81-10.4,15.96s-0.77,13.52,4.05,17.75"/>
		<path class="st5" d="M1263.69,1569.43c-43.03-10.96-78.49-47.52-88.13-90.86c-1.64-7.35-4.45-16.68-11.96-17.22
			c-5.06,5.4-8.27,12.34-10.11,19.5c-1.79,6.98-2.35,14.2-2.91,21.39c-1.3,16.83-2.6,33.67-3.91,50.5
			c-0.62,7.98-1.23,15.96-1.85,23.94c-2.65,34.23-5.3,68.47-7.94,102.7c-0.19,2.45-0.34,5.08,0.9,7.2
			c2.59,4.43,9.06,3.87,14.06,2.71c40.82-9.48,82.05-20.46,123.9-18.46c12.82,0.61,25.6,2.44,38.42,1.97
			c25.09-0.93,49.04-10.62,71.29-22.25c3.84-2.01,7.7-4.11,10.87-7.06c8.69-8.1,10.72-20.88,12.25-32.66
			c1.55-11.94,2.98-24.71-2.4-35.48c-7.67-15.37-26.52-21.42-43.65-22.77c-23.81-1.87-48.08,2.47-69.76,12.48"/>
		<path class="st5" d="M1336.09,1654.21c-42.22,1.95-84.31,6.76-125.88,14.39c-12.13,2.23-24.3,4.71-35.76,9.26
			c-6.77,2.69-13.43,6.21-18.13,11.78c20.29,0.46,40.58,0.91,60.87,1.37c8.67,0.19,17.37,0.39,25.99-0.51
			c6.2-0.65,12.34-1.86,18.57-2.24c8.01-0.49,16.04,0.42,24.07,0.42c14.15,0,28.14-2.83,41.89-6.15c15.75-3.8,31.35-8.28,46.72-13.4
			c2.87-0.96,5.82-1.99,8.04-4.05s3.5-5.44,2.24-8.19c-0.91-1.99-2.9-3.23-4.81-4.28c-13.09-7.16-28.14-10.68-43.05-10.05
			c-5.09,0.21-10.69,1.18-13.9,5.15"/>
		<path class="st5" d="M1317.74,1684.98c24.15,6.37,49.59,7.78,74.29,4.13c2.94-0.44,5.98-0.98,8.44-2.65
			c3.68-2.5,5.41-7.07,5.92-11.49c0.52-4.41,0.04-8.89,0.41-13.32c0.32-3.85,1.27-7.65,2.81-11.19c0.96-2.21,2.15-4.34,2.71-6.68
			c1.42-6-1.55-12.07-4.43-17.52c-0.91-1.73-1.9-3.54-3.56-4.57c-3.65-2.26-8.31,0.29-11.71,2.91c-7.4,5.71-14.25,12.12-20.44,19.12
			c-4.67,5.28-8.6,13.95-14.25,18.09c-5.59,4.1-14.76,3.42-21.2,6.48C1329.02,1671.96,1322.27,1677.73,1317.74,1684.98z"/>
		<g>
			<g>
				<g>
					<path d="M1132.26,894.23c1.71,4.02,6.46,5.06,10.36,5.37c4.41,0.34,8.88,0.5,13.3,0.45c9.08-0.1,18.33-1.48,26.24-6.2
						c3.37-2.01,0.3-7.3-3.08-5.28c-6.75,4.02-14.57,5.2-22.32,5.35c-4.08,0.08-8.16-0.1-12.23-0.32c-1.78-0.1-2.88-0.11-4.46-0.54
						c-0.85-0.23-0.94-0.23-1.66-0.69c-0.3-0.21-0.34-0.23-0.12-0.08c-0.15-0.14-0.29-0.28-0.43-0.43c0.26,0.33-0.27-0.59-0.32-0.72
						c-0.64-1.52-2.88-1.85-4.18-1.1C1131.79,890.97,1131.61,892.7,1132.26,894.23L1132.26,894.23z"/>
				</g>
			</g>
			<g>
				<g>
					<path d="M1252.71,910.39c1.58,4.75,5.09,8.5,9.41,10.95c4.77,2.7,10.2,3.73,15.53,4.67c1.62,0.29,3.29-0.44,3.76-2.13
						c0.41-1.48-0.5-3.47-2.13-3.76c-4.55-0.8-9.34-1.55-13.47-3.73c-1.82-0.96-3.08-1.84-4.47-3.27c-1.23-1.26-2.23-2.83-2.74-4.36
						c-0.52-1.57-2.11-2.59-3.76-2.13C1253.31,907.05,1252.18,908.82,1252.71,910.39L1252.71,910.39z"/>
				</g>
			</g>
			<g>
				<g>
					<path d="M1135.71,921.56c-1.53,3.14-2.96,6.33-4.3,9.56c-0.63,1.52-1.24,3.05-1.83,4.59c-0.55,1.44-1.28,2.96-1.55,4.49
						c-0.36,2.06,0.31,4.25,2.3,5.22c1.66,0.81,3.76,0.73,5.29-0.36c2.86-2.03,3.35-6.16,4.24-9.31c1.09-3.83,2.17-7.65,3.26-11.48
						c0.3-1.05-0.02-2.21-0.79-2.97c-0.84-0.84-1.86-0.96-2.97-0.79c-2.37,0.36-3.8,2.58-3.96,4.81c-0.11,1.6,1.49,3.12,3.05,3.05
						c1.75-0.08,2.93-1.34,3.05-3.05c-0.02,0.31-0.09,0.58-0.3,0.81c-0.14,0.16-0.81,0.35-0.23,0.27c-1.25-1.25-2.51-2.51-3.76-3.76
						c-1.02,3.58-2.03,7.16-3.05,10.74c-0.49,1.73-0.97,3.46-1.47,5.19c-0.08,0.28-0.18,0.56-0.25,0.84
						c-0.13,0.34-0.13,0.37-0.01,0.09c-0.08,0.18-0.17,0.35-0.27,0.51c0.21-0.22,0.2-0.21-0.05,0.05c0.07-0.05,0.14-0.1,0.22-0.15
						c-0.3,0.16-0.27,0.15,0.08-0.03c0.42-0.03,0.46-0.04,0.11-0.03c0.58,0.09,0.86,0.25,1.18,0.74c0.27,0.3,0.35,0.65,0.23,1.06
						c0.04-0.21,0.1-0.41,0.16-0.61c0.24-0.8,0.56-1.58,0.85-2.36c0.59-1.6,1.21-3.19,1.85-4.77c1.23-3.03,2.67-6.2,4.17-9.29
						c0.7-1.43,0.44-3.37-1.1-4.18C1138.52,919.74,1136.46,920.03,1135.71,921.56L1135.71,921.56z"/>
				</g>
			</g>
			<g>
				<g>
					<path d="M1266.16,936.84c-0.68-1.63-1.81-3.04-3.66-3.35c-1.75-0.3-3.12,0.46-3.76,2.13c-1.72,4.49-3.3,9.04-4.74,13.63
						c-0.72,2.29-1.41,4.6-2.06,6.92c-0.36,1.28-0.81,2.61-0.5,3.96c0.3,1.26,1.16,2.3,2.35,2.78c5.07,2.06,7.71-5,9.02-8.48
						c1.59-4.25,2.39-8.8,2.48-13.34c0.08-3.93-6.03-3.93-6.11,0c-0.07,3.33-0.6,6.58-1.59,9.76c-0.5,1.59-1.1,3.14-1.84,4.64
						c-0.18,0.37-0.37,0.74-0.57,1.1c0.04-0.07-0.57,0.93-0.25,0.45c-0.27,0.25-0.3,0.28-0.08,0.1c-0.08,0.05-0.17,0.1-0.25,0.15
						c1.11-0.62,2.04,0.1,2.77,2.15c0.04-0.19,0.09-0.37,0.15-0.56c1.97-7.33,4.4-14.54,7.1-21.63c-1.25,0.71-2.51,1.42-3.76,2.13
						c0.39,0.1,0.39,0.06,0-0.13c-0.34-0.14-0.54-0.4-0.6-0.78c0.63,1.52,2.02,2.61,3.76,2.13
						C1265.46,940.2,1266.8,938.37,1266.16,936.84L1266.16,936.84z"/>
				</g>
			</g>
			<g>
				<g>
					<path d="M1213.09,950.19c-0.88,10.9-0.37,21.85,1.41,32.63c0.88,5.33,2.09,10.6,3.62,15.77c0.79,2.66,1.66,5.3,2.62,7.9
						c0.3,0.82,0.97,1.86,0.71,2.72c-0.38,1.23-1.21,2.46-1.79,3.62c-2.95,5.91-5.9,11.83-8.85,17.74c-0.74,1.48-0.39,3.31,1.1,4.18
						c1.35,0.79,3.44,0.39,4.18-1.1c2.66-5.32,5.31-10.65,7.96-15.97c0.63-1.26,1.25-2.51,1.88-3.77c0.75-1.51,1.63-3.04,1.71-4.77
						c0.06-1.44-0.44-2.74-0.92-4.06c-0.51-1.37-0.99-2.76-1.46-4.15c-3.44-10.35-5.57-21.14-6.25-32.03
						c-0.39-6.24-0.32-12.49,0.18-18.72c0.13-1.65-1.5-3.05-3.05-3.05C1214.38,947.13,1213.23,948.53,1213.09,950.19L1213.09,950.19
						z"/>
				</g>
			</g>
			<g>
				<g>
					<path d="M1189.53,1027c4.07,0.38,8.3-0.23,12.08-1.79c0.77-0.32,1.39-0.66,1.83-1.4c0.38-0.65,0.55-1.62,0.31-2.35
						c-0.24-0.74-0.7-1.45-1.4-1.83c-0.68-0.36-1.61-0.61-2.35-0.31c-1.74,0.72-3.56,1.23-5.43,1.52c-0.8,0.12,0.53-0.05-0.1,0.01
						c-0.2,0.02-0.41,0.04-0.61,0.06c-0.48,0.04-0.96,0.07-1.44,0.08c-0.96,0.02-1.92-0.01-2.87-0.1c-1.6-0.15-3.12,1.51-3.05,3.05
						C1186.56,1025.73,1187.82,1026.84,1189.53,1027L1189.53,1027z"/>
				</g>
			</g>
			<g>
				<g>
					<path d="M1141.2,1066.44c8.19-4.93,17.5-8,27.03-8.8c4.67-0.39,9.43-0.33,14.08,0.33c4.03,0.57,8.12,1.38,11.35,3.72
						c0.46,0.34,1.43,1.28,1.74,1.72c0.73,1.05,0.75,1.61,1.32,2.69c0.87,1.64,2.69,2.67,4.55,2.16c2.09-0.57,2.92-2.46,2.62-4.46
						c-0.25-1.63-2.3-2.53-3.76-2.13c-1.75,0.48-2.38,2.12-2.13,3.76c0.01,0.08,0.02,0.15,0.03,0.23c0.1-0.78,0.21-1.57,0.31-2.35
						c0.19-0.21,0.39-0.41,0.58-0.62c0.51-0.14,1.03-0.28,1.54-0.42c2.28-0.21,1.89,2.01,1.61,0.89c-0.09-0.35-0.29-0.72-0.43-1.05
						c-0.18-0.41-0.37-0.82-0.6-1.21c-0.55-0.93-1.25-1.82-2.01-2.59c-1.42-1.44-3.17-2.59-5-3.43c-4.12-1.89-8.55-2.67-13.02-3.17
						c-9.43-1.06-19.17-0.03-28.21,2.84c-5.13,1.63-10.08,3.86-14.69,6.63C1134.75,1063.19,1137.82,1068.48,1141.2,1066.44
						L1141.2,1066.44z"/>
				</g>
			</g>
			<g>
				<g>
					<path d="M1052.06,893.05c-2.42,18.18-4.48,36.39-5.94,54.68c-1.44,18.15-2.36,36.34-2.76,54.54
						c-0.4,18.29-0.27,36.6,0.38,54.88c0.65,18.19,1.82,36.37,3.52,54.5c1.71,18.31,3.96,36.57,6.71,54.75
						c0.34,2.25,0.69,4.5,1.05,6.75c0.26,1.63,2.29,2.54,3.76,2.13c1.74-0.48,2.39-2.12,2.13-3.76
						c-5.7-35.87-9.3-72.07-10.83-108.36c-1.53-36.38-0.98-72.85,1.67-109.16c1.49-20.38,3.71-40.69,6.42-60.94
						c0.22-1.64-1.56-3.05-3.05-3.05C1053.28,890,1052.28,891.41,1052.06,893.05L1052.06,893.05z"/>
				</g>
			</g>
			<g>
				<g>
					<path d="M987.3,912.48c0.71-0.06,0.24,0,0.13-0.04c-0.35-0.12-0.14-0.14-0.14,0c0,0.01,0.41,0.55,0.54,0.79
						c0.56,1.03,0.93,2.16,1.25,3.28c0.62,2.19,0.88,4.42,0.8,6.7c-0.15,4.64-1.93,8.71-4.45,12.52c-2.49,3.76-5.46,7.26-7.4,11.36
						c-2.28,4.79-2.83,9.87-2.17,15.11c0.75,5.93,2.65,11.7,2.93,17.69c0.08,1.65,1.35,3.05,3.05,3.05c1.59,0,3.13-1.4,3.05-3.05
						c-0.27-5.76-1.9-11.3-2.82-16.96c-0.79-4.94-0.47-9.74,1.91-14.11c2.29-4.22,5.51-7.84,7.95-11.97
						c2.81-4.75,4.32-10.2,4.02-15.74c-0.16-3.01-0.76-6.01-1.9-8.8c-1.17-2.87-3.16-6.21-6.76-5.93c-1.64,0.13-3.05,1.31-3.05,3.05
						C984.25,910.98,985.65,912.61,987.3,912.48L987.3,912.48z"/>
				</g>
			</g>
			<g>
				<g>
					<path d="M1016.39,908.95c-5.88-12.45-15.59-23.54-28.81-28.27c-6.71-2.4-14.16-2.98-21.11-1.32
						c-6.48,1.55-12.33,5.25-16.78,10.17c-9.86,10.89-12.73,25.72-12.33,40.01c0.23,8.09,1.22,16.2,2.47,24.19
						c1.2,7.67,2.99,15.25,6.1,22.39c2.75,6.32,6.84,12.17,12.59,16.08c5.56,3.78,13.16,5.32,19.64,3.21
						c1.62-0.53,3.18-1.26,4.6-2.21c1.37-0.92,1.97-2.69,1.1-4.18c-0.79-1.36-2.8-2.02-4.18-1.1c-4.58,3.08-10.5,2.95-15.42,0.54
						c-5.38-2.63-9.12-7.49-11.78-12.73c-3.12-6.13-4.83-12.95-6.08-19.67c-1.33-7.18-2.2-14.49-2.69-21.77
						c-0.88-13.02,0.22-26.54,7.89-37.43c3.06-4.35,7.3-8.11,12.25-10.24c5.63-2.42,12.06-2.65,17.98-1.27
						c13.75,3.2,23.48,14.36,29.3,26.68c0.7,1.49,2.84,1.88,4.18,1.1C1016.83,912.24,1017.1,910.45,1016.39,908.95L1016.39,908.95z"
						/>
				</g>
			</g>
			<g>
				<g>
					<path d="M1011.64,921.39c-0.37,17.11-0.12,34.23,0.77,51.33c0.89,17.09,2.4,34.15,4.53,51.13c2.15,17.09,4.89,34.11,8.27,51
						c3.36,16.78,7.33,33.44,11.9,49.94c4.58,16.49,9.76,32.82,15.53,48.93c0.71,1.98,1.43,3.95,2.15,5.92
						c0.57,1.55,2.07,2.6,3.76,2.13c1.49-0.41,2.71-2.2,2.13-3.76c-5.89-15.98-11.2-32.18-15.91-48.55
						c-4.71-16.37-8.81-32.91-12.32-49.59c-3.5-16.67-6.41-33.47-8.68-50.35c-2.27-16.85-3.9-33.79-4.93-50.76
						c-1.03-17-1.44-34.04-1.22-51.08c0.03-2.1,0.06-4.2,0.11-6.3C1017.84,917.46,1011.73,917.46,1011.64,921.39L1011.64,921.39z"/>
				</g>
			</g>
			<g>
				<g>
					<path d="M984.62,1037.62c7.15,22.13,20,41.71,33.87,60.16c3.99,5.31,8.07,10.55,12.16,15.79c1.02,1.3,3.25,1.07,4.32,0
						c1.29-1.29,1.02-3.01,0-4.32c-13.76-17.65-27.61-35.55-37.41-55.78c-2.74-5.66-5.11-11.49-7.04-17.47
						C989.3,1032.27,983.4,1033.86,984.62,1037.62L984.62,1037.62z"/>
				</g>
			</g>
			<g>
				<g>
					<path d="M1051.87,1125.22c8.02,21.39,28.71,34.67,50.34,39.29c12.39,2.65,25.17,2.93,37.78,2.1
						c6.69-0.44,13.41-1.25,19.86-3.16c6.2-1.83,12.16-4.48,17.93-7.36c21.29-10.61,39.96-25.8,54.34-44.76
						c7.75-10.22,14.6-21.17,21.26-32.12c6.52-10.72,12.71-21.65,18.55-32.76c11.88-22.58,22.32-45.92,31.28-69.81
						c1.07-2.87,2.13-5.74,3.16-8.62c0.56-1.55-0.63-3.34-2.13-3.76c-1.69-0.47-3.2,0.57-3.76,2.13
						c-8.33,23.24-18.08,45.95-29.2,67.99c-11.12,22.02-23.52,43.48-37.35,63.92c-6.72,9.92-14.12,19.25-22.88,27.45
						c-8.17,7.66-17.23,14.31-26.9,19.95c-10.26,5.99-21.3,11.42-33.08,13.54c-6.15,1.11-12.45,1.44-18.68,1.61
						c-6.19,0.17-12.39,0.01-18.55-0.64c-20.84-2.2-42.28-11.41-53.04-30.21c-1.21-2.11-2.21-4.21-3.03-6.4
						c-0.58-1.54-2.06-2.6-3.76-2.13C1052.52,1121.87,1051.28,1123.67,1051.87,1125.22L1051.87,1125.22z"/>
				</g>
			</g>
			<g>
				<g>
					<path d="M1055.21,920.1c25.83-6.09,51.03-14.74,75.17-25.76c6.14-2.8,12.2-5.79,18.35-8.58c6.01-2.73,12.13-5.12,18.34-7.36
						c6.32-2.28,12.67-4.55,18.75-7.43c5.88-2.79,11.46-6.16,16.91-9.71c13.01-8.45,25.8-17.25,38.68-25.89
						c1.37-0.92,1.97-2.69,1.1-4.18c-0.79-1.36-2.8-2.02-4.18-1.1c-11.47,7.69-22.92,15.41-34.41,23.07
						c-5.41,3.61-10.88,7.15-16.62,10.22c-5.73,3.06-11.74,5.45-17.84,7.67c-6.21,2.26-12.42,4.47-18.5,7.08
						c-6.22,2.66-12.3,5.62-18.42,8.5c-11.89,5.6-24.03,10.64-36.41,15.05c-13.93,4.96-28.14,9.13-42.53,12.52
						c-1.61,0.38-2.56,2.21-2.13,3.76C1051.9,919.61,1053.6,920.48,1055.21,920.1L1055.21,920.1z"/>
				</g>
			</g>
			<g>
				<g>
					<path d="M1241.29,838.63c0.85,18.29,6.27,35.94,13.99,52.45c7.85,16.77,18.1,32.27,28.6,47.47c6.16,8.92,12.37,17.8,18.56,26.7
						c0.94,1.35,2.68,1.98,4.18,1.1c1.34-0.78,2.04-2.82,1.1-4.18c-10.65-15.32-21.61-30.49-31.6-46.26
						c-9.58-15.13-18.15-31.04-23.44-48.22c-2.91-9.45-4.81-19.18-5.28-29.07c-0.08-1.65-1.35-3.05-3.05-3.05
						C1242.75,835.57,1241.21,836.97,1241.29,838.63L1241.29,838.63z"/>
				</g>
			</g>
			<g>
				<g>
					<path d="M903.44,946.12c-0.3-11.2-0.6-22.4-0.91-33.59c-0.07-2.72-0.27-5.47-0.16-8.19c0.07-1.88,0.99-3.12,2.37-4.14
						c1.89-1.4,4.04-2.47,6.05-3.68c2.2-1.32,4.39-2.67,6.56-4.05c8.71-5.53,17.12-11.5,25.24-17.86c4.05-3.17,8.01-6.43,11.9-9.8
						c1.94-1.68,3.86-3.39,5.76-5.12c0.73-0.66,1.43-1.39,2.28-1.9c0.18-0.11,0.61-0.35,0.63-0.36c0.06-0.02,0.58-0.08,0.25-0.03
						c0.31,0.1,0.36,0.11,0.17,0.03c-0.19-0.09-0.15-0.06,0.13,0.09c0-0.01-0.44-0.54,0.01,0.03c0.34,0.44-0.06-0.17,0.12,0.14
						c0.1,0.17,0.19,0.33,0.28,0.5c0.13,0.25-0.04-0.26,0.08,0.24c0.32,1.24,0.38,1.4,0.38,2.6c-0.01,2.35-0.47,4.74-1.03,7.01
						c-1.28,5.21-3.57,10.03-6.73,14.37c-0.97,1.34-0.23,3.41,1.1,4.18c1.54,0.9,3.21,0.24,4.18-1.1c3.15-4.33,5.51-9.24,6.97-14.39
						c0.73-2.58,1.19-5.22,1.48-7.89c0.22-2.13,0.23-4.35-0.44-6.4c-0.75-2.31-2.26-4.39-4.66-5.16c-2.97-0.95-5.69,0.46-7.93,2.32
						c-4.2,3.49-8.14,7.3-12.35,10.79c-8.41,6.98-17.2,13.48-26.32,19.49c-4.6,3.04-9.29,5.95-14.05,8.74
						c-2.07,1.21-4.24,2.46-5.84,4.28c-2.04,2.34-2.72,5.15-2.71,8.21c0.03,6.71,0.35,13.44,0.53,20.15
						c0.18,6.83,0.37,13.67,0.55,20.5C897.44,950.05,903.55,950.06,903.44,946.12L903.44,946.12z"/>
				</g>
			</g>
			<g>
				<g>
					<path d="M935.6,908.69c-6.86,22.65-8.49,46.68-4.83,70.05c3.65,23.34,12.51,45.43,17.5,68.47c5.05,23.35,6.12,47.43,4.39,71.23
						c-1.74,23.79-6.38,47.28-12.78,70.24c-6.39,22.94-14.51,45.35-23.38,67.44c-1.09,2.71-2.19,5.41-3.29,8.11
						c-0.63,1.53,0.68,3.36,2.13,3.76c1.75,0.48,3.13-0.6,3.76-2.13c9.03-22.02,17.44-44.33,24.24-67.15
						c6.83-22.91,11.98-46.34,14.51-70.13c2.53-23.85,2.3-47.99-1.56-71.69c-3.81-23.4-12.41-45.56-17.52-68.65
						c-5.08-22.94-5.15-46.72,0.42-69.59c0.68-2.8,1.45-5.58,2.29-8.34C942.63,906.54,936.74,904.93,935.6,908.69L935.6,908.69z"/>
				</g>
			</g>
			<g>
				<g>
					<path d="M872.46,1135.48c5.73,7.22,14.63,11.55,23.79,12c1.65,0.08,3.05-1.46,3.05-3.05c0-1.72-1.4-2.97-3.05-3.05
						c-1.95-0.1-3.32-0.3-5.37-0.85c-2.05-0.55-3.5-1.11-5.25-2.03c-3.57-1.86-6.3-4.12-8.85-7.33c-1.03-1.29-3.25-1.07-4.32,0
						C871.18,1132.44,871.43,1134.19,872.46,1135.48L872.46,1135.48z"/>
				</g>
			</g>
			<g>
				<g>
					<path d="M829.04,1225.85c14.99-21.27,27.96-43.95,38.67-67.67c3.07-6.81,5.97-13.7,8.68-20.66c0.6-1.54-0.66-3.35-2.13-3.76
						c-1.73-0.48-3.16,0.59-3.76,2.13c-9.33,23.93-20.96,46.95-34.62,68.69c-3.87,6.17-7.92,12.23-12.11,18.18
						c-0.95,1.35-0.24,3.4,1.1,4.18C826.39,1227.84,828.09,1227.21,829.04,1225.85L829.04,1225.85z"/>
				</g>
			</g>
			<g>
				<g>
					<path d="M899.63,1308.57c2.78-7.38,5.57-14.76,8.35-22.14c1.27-3.36,2.52-6.73,4.16-9.93c1.69-3.31,3.7-6.45,5.7-9.58
						c0.89-1.39,0.29-3.37-1.1-4.18c-1.48-0.86-3.29-0.3-4.18,1.1c-2.04,3.2-4.09,6.4-5.81,9.79c-1.75,3.46-3.13,7.1-4.5,10.72
						c-2.84,7.53-5.68,15.07-8.53,22.6c-0.58,1.54,0.65,3.35,2.13,3.76C897.58,1311.17,899.04,1310.12,899.63,1308.57
						L899.63,1308.57z"/>
				</g>
			</g>
			<g>
				<g>
					<path d="M921.52,1256.33c8.8,4.59,17.62,9.17,26.51,13.59c2.16,1.07,4.35,2.1,6.61,2.93c2.14,0.79,4.39,1.25,6.55,1.98
						c2,0.68,3.76,1.86,5.49,3.05c1.54,1.06,3.24,2.12,4.36,3.66c1.37,1.88,2.01,4.3,2.81,6.45c1,2.68,1.99,5.37,2.99,8.05
						c0.57,1.55,2.07,2.6,3.76,2.13c1.49-0.41,2.71-2.2,2.13-3.76c-0.91-2.45-1.82-4.91-2.73-7.36c-0.86-2.32-1.64-4.71-2.72-6.94
						c-2.04-4.19-6.35-7.04-10.28-9.31c-4.1-2.37-8.89-2.91-13.17-4.87c-4.61-2.11-9.1-4.53-13.61-6.83
						c-5.21-2.66-10.41-5.35-15.6-8.05c-1.46-0.76-3.32-0.38-4.18,1.1C919.62,1253.53,920.05,1255.57,921.52,1256.33L921.52,1256.33
						z"/>
				</g>
			</g>
			<g>
				<g>
					<path d="M1060.58,1295.4c2.58-10.59,10.02-19.01,18.26-25.8c9.6-7.91,20.6-13.93,30.12-21.96c2.74-2.31,5.57-4.73,8.02-7.35
						c0.85-0.9,1.38-1.9,1.34-3.16c-0.05-1.39-1.01-2.71-2.38-3.09c-2.47-0.68-5,1.5-4.24,4.09c1.11,3.76,7.01,2.16,5.89-1.62
						c-0.02-0.05-0.03-0.11-0.05-0.16c-0.26,0.99-0.52,1.98-0.79,2.97c0.04-0.04,0.08-0.09,0.11-0.13c-0.45,0.26-0.9,0.52-1.35,0.79
						c-0.13,0.02-0.27,0.04-0.4,0.07c-0.72-0.3-1.44-0.6-2.16-0.89c0.05,0.05,0.09,0.1,0.14,0.15c-0.3-0.72-0.6-1.44-0.89-2.16
						c0,0.12,0.01,0.24,0.01,0.36c0.14-0.51,0.28-1.03,0.42-1.54c-0.5,0.92-1.93,1.88-2.73,2.63c-1.15,1.08-2.31,2.16-3.5,3.2
						c-2.08,1.85-4.25,3.6-6.48,5.26c-4.6,3.43-9.39,6.58-14.11,9.84c-8.81,6.08-17.33,12.63-23.72,21.34
						c-3.42,4.65-6.04,9.93-7.42,15.55C1053.76,1297.6,1059.65,1299.23,1060.58,1295.4L1060.58,1295.4z"/>
				</g>
			</g>
			<g>
				<g>
					<path d="M1119.47,1163.94c-13.06,12.89-24.91,26.99-35.37,42.06c-2.88,4.15-5.72,8.82-5.31,14.08
						c0.13,1.64,1.31,3.05,3.05,3.05c1.55,0,3.18-1.4,3.05-3.05c-0.32-4.02,2.02-7.45,4.21-10.62c2.46-3.56,5.01-7.07,7.63-10.52
						c5.22-6.87,10.78-13.49,16.61-19.85c3.39-3.7,6.87-7.31,10.44-10.83C1126.59,1165.5,1122.27,1161.18,1119.47,1163.94
						L1119.47,1163.94z"/>
				</g>
			</g>
			<g>
				<g>
					<path d="M873.32,932.02c-2.26-7.79-3.29-15.93-2.82-24.04c0.1-1.72,0.31-3.51,1-5.11c0.66-1.52,1.73-2.78,2.87-3.96
						c2.88-2.95,6.03-5.66,9.05-8.45c6.4-5.93,12.81-11.85,19.21-17.78c2.86-2.65,5.62-5.55,8.73-7.9c2.75-2.07,5.92-3.17,9.35-3.36
						c4.01-0.22,7.98,0.42,11.9,1.17c4.84,0.92,9.67,1.88,14.51,2.82c1.62,0.31,3.3-0.46,3.76-2.13c0.41-1.5-0.51-3.44-2.13-3.76
						c-4.56-0.89-9.12-1.77-13.68-2.66c-3.97-0.77-7.99-1.5-12.04-1.58c-4.09-0.08-8.17,0.6-11.85,2.43
						c-3.8,1.89-6.86,5.09-9.94,7.94c-6.71,6.21-13.41,12.42-20.12,18.62c-3.34,3.09-6.72,6.14-10.01,9.28
						c-3.06,2.92-5.51,6.26-6.26,10.5c-0.85,4.79-0.67,9.85-0.22,14.68c0.47,5.05,1.4,10.04,2.81,14.9
						C868.52,937.42,874.42,935.81,873.32,932.02L873.32,932.02z"/>
				</g>
			</g>
			<g>
				<g>
					<path d="M847.75,931.59c0.32-4.05,0.39-8.11,0.18-12.16c-0.21-4.04-0.99-8.04-1.1-12.08c-0.18-6.66,3.6-12.06,8.15-16.68
						c5.21-5.29,11.06-10.06,16.93-14.59c5.93-4.57,12.09-9.17,18.66-12.78c2.96-1.63,6.14-3.06,9.3-2.8
						c0.99,0.08-0.45-0.14,0.5,0.08c0.13,0.03,1.15,0.36,0.8,0.21c0.79,0.35,0.86,0.45,1.45,1.09c1.45,1.59,3.39,3.26,5.71,2.32
						c1.53-0.62,2.61-2.04,2.13-3.76c-0.4-1.45-2.22-2.75-3.76-2.13c0.54-0.22,1.52,0.81,0.96,0.08c-0.22-0.29-0.49-0.56-0.73-0.83
						c-0.61-0.68-1.34-1.28-2.12-1.75c-1.5-0.9-3.23-1.3-4.96-1.43c-3.48-0.27-6.89,0.94-9.98,2.4c-3.55,1.68-6.83,3.87-10.07,6.07
						c-3.25,2.21-6.45,4.5-9.59,6.87c-6.33,4.79-12.56,9.82-18.27,15.33c-5.05,4.87-9.91,10.84-10.95,18
						c-0.7,4.76,0.3,9.43,0.67,14.18c0.37,4.78,0.35,9.57-0.04,14.35c-0.13,1.65,1.5,3.05,3.05,3.05
						C846.46,934.65,847.62,933.24,847.75,931.59L847.75,931.59z"/>
				</g>
			</g>
			<g>
				<g>
					<path d="M840.23,892.23c-6.89,3.92-13.5,8.47-17.55,15.47c-3.78,6.53-5.21,14.17-5.4,21.63c-0.21,8.09,1.01,16.24,2.67,24.13
						c1.77,8.39,4.23,16.62,6.82,24.79c2.93,9.23,6.05,18.41,8.61,27.76c1.04,3.79,6.93,2.18,5.89-1.62
						c-4.38-15.98-10.4-31.48-14.31-47.59c-1.85-7.63-3.28-15.43-3.56-23.29c-0.23-6.65,0.35-13.53,2.98-19.64
						c1.53-3.56,3.74-6.68,6.59-9.31c3.08-2.84,6.71-4.99,10.34-7.06C846.73,895.56,843.66,890.28,840.23,892.23L840.23,892.23z"/>
				</g>
			</g>
			<g>
				<g>
					<path d="M835.28,1009.82c4.61,16.7,9.23,33.4,13.84,50.11c4.6,16.64,9.17,33.3,13.79,49.93c2.53,9.09,5.24,18.11,8.92,26.82
						c0.64,1.52,2.89,1.85,4.18,1.1c1.57-0.92,1.74-2.65,1.1-4.18c-3.12-7.4-5.43-15.13-7.6-22.85c-2.32-8.24-4.57-16.49-6.84-24.74
						c-4.57-16.54-9.14-33.08-13.71-49.62c-2.6-9.4-5.19-18.79-7.79-28.19C840.13,1004.41,834.23,1006.02,835.28,1009.82
						L835.28,1009.82z"/>
				</g>
			</g>
			<g>
				<g>
					<path d="M946.35,1017.95c0.17-0.26,0.34-0.52,0.51-0.78c1.23,1.6,2.47,3.2,3.7,4.8c11.7-9.6,22.71-20.01,32.96-31.14
						c2.66-2.89-1.65-7.22-4.32-4.32c-10.25,11.13-21.26,21.54-32.96,31.14c-1.16,0.95-1.11,2.92-0.24,4.01
						c0.93,1.17,2.61,1.58,3.94,0.79c1.19-0.71,1.79-1.6,2.29-2.87c0.61-1.53-0.67-3.35-2.13-3.76
						C948.37,1015.34,946.96,1016.41,946.35,1017.95L946.35,1017.95z"/>
				</g>
			</g>
			<g>
				<g>
					<path d="M1105.02,956.76c-1.76,1.47-3.53,2.94-5.29,4.42c-0.57,0.48-0.89,1.45-0.89,2.16c0,0.75,0.33,1.64,0.89,2.16
						c0.58,0.53,1.35,0.93,2.16,0.89c0.27-0.04,0.54-0.07,0.81-0.11c0.52-0.15,0.97-0.41,1.35-0.79c1.76-1.47,3.53-2.94,5.29-4.42
						c0.57-0.48,0.89-1.45,0.89-2.16c0-0.75-0.33-1.64-0.89-2.16c-0.58-0.53-1.35-0.93-2.16-0.89c-0.27,0.04-0.54,0.07-0.81,0.11
						C1105.85,956.12,1105.4,956.39,1105.02,956.76L1105.02,956.76z"/>
				</g>
			</g>
			<g>
				<g>
					<path d="M1071.52,991.39c-2.49,3.24-4.97,6.49-7.46,9.73c-0.45,0.58-0.49,1.68-0.31,2.35c0.2,0.71,0.74,1.48,1.4,1.83
						c0.71,0.37,1.57,0.56,2.35,0.31c0.81-0.26,1.31-0.74,1.83-1.4c2.49-3.24,4.97-6.49,7.46-9.73c0.45-0.58,0.49-1.68,0.31-2.35
						c-0.2-0.71-0.74-1.48-1.4-1.83c-0.71-0.37-1.57-0.56-2.35-0.31C1072.54,990.25,1072.03,990.72,1071.52,991.39L1071.52,991.39z"
						/>
				</g>
			</g>
			<g>
				<g>
					<path d="M1264.17,971.74c0.38,5.73,0.27,11.49-0.34,17.2c-0.17,1.59,1.53,3.12,3.05,3.05c1.8-0.08,2.87-1.35,3.05-3.05
						c0.61-5.71,0.72-11.47,0.34-17.2c-0.11-1.59-1.33-3.13-3.05-3.05C1265.66,968.75,1264.05,970.03,1264.17,971.74L1264.17,971.74
						z"/>
				</g>
			</g>
			<g>
				<g>
					<path d="M1263.86,1015.01c-0.49,3.05-1.15,6.08-2,9.05c-0.42,1.46-0.88,2.91-1.38,4.34c-0.26,0.74-0.53,1.48-0.82,2.21
						c-0.12,0.31-0.25,0.63-0.37,0.94c-0.08,0.21-0.17,0.42-0.26,0.62c-0.14,0.35-0.17,0.42-0.09,0.2c-0.63,1.47-0.49,3.34,1.1,4.18
						c1.31,0.69,3.51,0.47,4.18-1.1c2.59-6.06,4.49-12.32,5.54-18.83c0.25-1.57-0.4-3.36-2.13-3.76
						C1266.15,1012.55,1264.13,1013.33,1263.86,1015.01L1263.86,1015.01z"/>
				</g>
			</g>
			<g>
				<g>
					<path d="M954.46,744.39c-11.75-7.32-26.48-5.59-38.42,0.25c-6,2.93-11.45,6.89-16.56,11.16c-4.82,4.02-9.31,8.44-13.46,13.16
						c-17.61,20.04-28.88,44.7-36.42,70.1c-4.65,15.66-7.95,31.68-10.93,47.73c-0.3,1.62,0.45,3.29,2.13,3.76
						c1.49,0.41,3.46-0.5,3.76-2.13c5-26.99,10.93-54.26,22.71-79.22c5.2-11.03,11.48-21.67,19.12-31.2
						c7.56-9.45,16.46-18.24,26.73-24.71c11.26-7.09,26.15-11.15,38.26-3.61C954.72,751.75,957.79,746.46,954.46,744.39
						L954.46,744.39z"/>
				</g>
			</g>
			<g>
				<g>
					<path d="M944.5,856.72c-5.44-16.97-5.43-35.07-2.82-52.56c2.4-16.1,6.43-32.16,11.86-47.5c4.8-13.58,11.11-26.87,19.96-38.31
						c4.4-5.69,9.49-10.93,15.17-15.35c6.52-5.08,13.94-8.97,21.57-12.09c16.49-6.73,33.89-11.59,51.29-15.27
						c17.51-3.7,35.3-5.97,53.18-6.83c18.03-0.86,36.14-0.28,54.07,1.76c17.01,1.94,34.02,5.1,50.25,10.63
						c29,9.87,56.9,29.42,67.92,59.13c1.25,3.37,2.25,6.82,3.02,10.33c0.84,3.84,6.73,2.21,5.89-1.62
						c-6.93-31.58-32.51-55.45-61.18-68.22c-16.22-7.22-33.52-11.56-51.02-14.33c-18.27-2.89-36.77-4.28-55.27-4.15
						c-37.01,0.26-74.05,6.54-109.03,18.67c-8.66,3-17.29,6.35-25.23,10.97c-6.63,3.86-12.73,8.67-18.09,14.15
						c-10.67,10.92-18.41,24.3-24.31,38.29c-6.21,14.74-10.54,30.28-13.78,45.92c-3.73,18.02-5.61,36.65-2.55,54.91
						c0.74,4.44,1.81,8.8,3.19,13.09C939.8,862.08,945.7,860.48,944.5,856.72L944.5,856.72z"/>
				</g>
			</g>
			<g>
				<g>
					<path d="M1303.85,749.48c10.06,4.08,18.18,12.27,23.76,21.54c6.57,10.91,9.76,23.55,11.35,36.09
						c1.64,12.9,2.06,25.98,2.89,38.96c0.57,8.84,1.15,17.68,1.55,26.53c0.4,8.78,0.58,17.57,0.58,26.36c0,3.93,6.11,3.94,6.11,0
						c0-16.83-0.9-33.61-1.97-50.4c-0.84-13.04-1.29-26.18-2.77-39.16c-1.55-13.53-4.5-27.1-11.12-39.13
						c-6.46-11.73-16.23-21.6-28.75-26.67c-1.53-0.62-3.36,0.67-3.76,2.13C1301.23,747.47,1302.31,748.86,1303.85,749.48
						L1303.85,749.48z"/>
				</g>
			</g>
			<g>
				<g>
					<path d="M924.92,1400.31c12.57,7.37,27.01,10.29,41.4,11.33c15.2,1.1,30.56,0.47,45.78,0.18c16.58-0.32,33.16-0.89,49.67-2.4
						c7.59-0.69,15.27-1.56,22.57-3.83c7.34-2.28,13.68-6.15,19.72-10.82c2.83-2.19,5.59-4.48,8.44-6.64
						c2.99-2.27,6.12-4.34,9.25-6.41c6.33-4.18,12.48-8.58,17.18-14.62c1.2-1.55,2.34-3.13,3.37-4.8c2.08-3.35-3.2-6.42-5.28-3.08
						c-3.84,6.18-9.07,10.93-15.04,15.01c-2.93,2-5.93,3.89-8.85,5.91c-3.09,2.14-6.04,4.48-8.97,6.82
						c-5.37,4.28-10.86,8.64-17.27,11.25c-6.63,2.7-13.79,3.92-20.87,4.68c-16.09,1.73-32.31,2.33-48.47,2.7
						c-15.05,0.34-30.19,0.87-45.23,0.27c-15.3-0.62-30.91-2.97-44.31-10.83C924.61,1393.04,921.53,1398.32,924.92,1400.31
						L924.92,1400.31z"/>
				</g>
			</g>
			<g>
				<g>
					<path d="M817.98,1217.35c1.36,10.31,6.01,19.55,12.02,27.92c6.43,8.95,13.88,17.21,21.19,25.44
						c7.63,8.59,15.43,17.04,23.47,25.25c7.72,7.88,15.94,15.34,25.44,21.03c10.1,6.05,21.35,10.24,32.96,12.25
						c3.05,0.53,5.01-2.7,2.97-5.11c-10.36-12.24-20.72-24.47-31.08-36.71c-1.07-1.26-3.22-1.1-4.32,0c-1.25,1.25-1.07,3.06,0,4.32
						c10.36,12.24,20.72,24.47,31.08,36.71c0.99-1.7,1.98-3.4,2.97-5.11c-9.9-1.72-19.49-4.99-28.31-9.81
						c-9.16-5.01-17.08-11.64-24.47-18.96c-7.94-7.87-15.53-16.11-23.01-24.42c-7.2-7.99-14.44-16.03-21.04-24.52
						c-6.4-8.25-12.36-17.73-13.76-28.29c-0.22-1.64-1.25-3.05-3.05-3.05C819.55,1214.29,817.77,1215.7,817.98,1217.35
						L817.98,1217.35z"/>
				</g>
			</g>
			<g>
				<g>
					<path d="M633.05,1592.62c2.24-20.25,4.52-40.59,9.7-60.34c4.53-17.24,11.39-33.94,21.86-48.47
						c5.52-7.66,12.14-14.68,19.69-20.38c1.31-0.99,2-2.64,1.1-4.18c-0.76-1.29-2.85-2.1-4.18-1.1
						c-14.48,10.93-25.49,25.68-33.31,41.97c-8.58,17.89-13.33,37.25-16.43,56.77c-1.88,11.86-3.21,23.79-4.53,35.72
						c-0.18,1.64,1.53,3.05,3.05,3.05C631.8,1595.67,632.87,1594.27,633.05,1592.62L633.05,1592.62z"/>
				</g>
			</g>
			<g>
				<g>
					<path d="M611.6,1527.25c6.54-18.38,18.01-34.9,32.76-47.68c4.12-3.57,8.51-6.81,13.12-9.73c1.39-0.88,1.95-2.72,1.1-4.18
						c-0.81-1.39-2.78-1.98-4.18-1.1c-17.41,11.05-31.87,26.64-41.55,44.85c-2.77,5.21-5.15,10.65-7.13,16.21
						c-0.55,1.55,0.63,3.34,2.13,3.76C609.54,1529.85,611.05,1528.81,611.6,1527.25L611.6,1527.25z"/>
				</g>
			</g>
			<g>
				<g>
					<path d="M689.92,1459.76c13.06-12.19,23.66-26.73,33.18-41.77c10.05-15.88,19.28-32.31,27.79-49.06
						c8.48-16.69,16.08-33.78,23.24-51.08c6.73-16.27,13.21-32.66,20.52-48.68c7.31-16.01,15.48-31.7,25.44-46.24
						c1.24-1.81,2.51-3.61,3.81-5.38c0.97-1.33,0.23-3.41-1.1-4.18c-1.55-0.9-3.2-0.24-4.18,1.1
						c-10.35,14.18-18.86,29.6-26.37,45.44c-7.64,16.12-14.3,32.68-21.07,49.18c-6.89,16.8-14.04,33.48-22.07,49.78
						c-8.39,17.02-17.54,33.67-27.44,49.86c-9.14,14.95-19.04,29.56-31.34,42.11c-1.54,1.57-3.12,3.11-4.73,4.61
						C682.72,1458.13,687.05,1462.44,689.92,1459.76L689.92,1459.76z"/>
				</g>
			</g>
			<g>
				<g>
					<path d="M736.26,1224.56c4.59,19.62,12.53,38.5,23.4,55.48c1.5,2.35,3.15,4.61,4.61,6.99c1.17,1.9,2.56,4.3,2.19,6.63
						c-0.26,1.63,0.42,3.29,2.13,3.76c1.45,0.4,3.5-0.49,3.76-2.13c0.91-5.71-2.04-10.27-5.1-14.8c-2.86-4.23-5.53-8.59-8-13.05
						c-4.93-8.9-9.07-18.22-12.35-27.85c-1.86-5.46-3.44-11.02-4.76-16.64c-0.38-1.61-2.21-2.56-3.76-2.13
						C736.75,1221.25,735.88,1222.95,736.26,1224.56L736.26,1224.56z"/>
				</g>
			</g>
			<g>
				<g>
					<path d="M708.15,1265.3c13.92,14.52,28.83,28.09,44.61,40.55c2.07,1.63,4.19,3.2,6.22,4.87c1.87,1.54,3.53,3.16,4.56,5.38
						c0.69,1.5,2.85,1.87,4.18,1.1c1.54-0.9,1.79-2.68,1.1-4.18c-1.97-4.27-5.95-6.97-9.54-9.77c-4.03-3.14-8-6.35-11.91-9.63
						c-7.83-6.56-15.43-13.39-22.77-20.48c-4.12-3.98-8.16-8.03-12.12-12.17C709.74,1258.14,705.42,1262.46,708.15,1265.3
						L708.15,1265.3z"/>
				</g>
			</g>
			<g>
				<g>
					<path d="M669.66,1692.16c28.47-5.76,56.2-16.04,81-31.25c12.37-7.58,24.02-16.41,34.54-26.41
						c11.6-11.02,21.69-23.49,31.3-36.26c9.91-13.16,19.8-26.44,28.82-40.23c8.96-13.7,16.59-28.21,23.52-43.02
						c7-14.97,13.33-30.24,19.74-45.46c6.76-16.06,13.52-32.12,20.29-48.19c6.7-15.92,13.49-31.81,20.09-47.77
						c3.12-7.53,6.09-15.14,8.32-22.99c1.13-3.95,2.06-7.96,2.73-12.01c0.55-3.34,1.65-7.17-0.51-10.14
						c-2.12-2.91-6.12-3.13-7.49,0.58c-0.57,1.55,0.64,3.35,2.13,3.76c1.71,0.47,3.18-0.58,3.76-2.13
						c-0.01,0.07-0.03,0.15-0.04,0.22c-0.37,0.37-0.73,0.73-1.1,1.1c-0.11,0.05-0.22,0.1-0.33,0.16c-0.54,0-1.08,0-1.62,0
						c-0.76-0.13,0.02-0.53-0.14,0.04c-0.02,0.08-0.02,0.96-0.06,1.31c-0.23,2.05-0.56,4.08-0.95,6.11
						c-0.72,3.71-1.65,7.37-2.73,10.99c-2.24,7.5-5.12,14.78-8.11,22.01c-6.35,15.31-12.85,30.55-19.28,45.83
						c-6.48,15.4-12.97,30.8-19.45,46.2c-6.19,14.71-12.29,29.46-18.96,43.95c-6.54,14.22-13.65,28.2-21.94,41.48
						c-8.42,13.48-17.98,26.24-27.41,39.02c-9.13,12.37-18.57,24.56-29.3,35.59c-9.73,10.01-20.52,18.93-32.14,26.66
						c-23.22,15.46-49.33,26.25-76.41,32.77c-3.28,0.79-6.59,1.52-9.9,2.19C664.18,1687.04,665.81,1692.93,669.66,1692.16
						L669.66,1692.16z"/>
				</g>
			</g>
			<g>
				<g>
					<path d="M867.15,1587.42c5-1.13,9.99-2.26,14.99-3.4c4.76-1.09,9.45-2.33,13.85-4.49c1.48-0.73,1.89-2.83,1.1-4.18
						c-0.88-1.51-2.69-1.83-4.18-1.1c-4.04,1.98-8.47,2.99-12.84,3.98c-4.85,1.1-9.69,2.2-14.54,3.3c-1.61,0.36-2.56,2.22-2.13,3.76
						C863.84,1586.94,865.53,1587.79,867.15,1587.42L867.15,1587.42z"/>
				</g>
			</g>
			<g>
				<g>
					<path d="M899.85,1464.19c0.93-0.69,1.93-1.26,2.99-1.72c-0.24,0.1-0.49,0.21-0.73,0.31c1.17-0.49,2.39-0.82,3.64-1.01
						c-0.27,0.04-0.54,0.07-0.81,0.11c1.09-0.15,2.19-0.17,3.28-0.07c0.74,0.07,1.65-0.39,2.16-0.89c0.53-0.53,0.93-1.4,0.89-2.16
						c-0.04-0.79-0.29-1.61-0.89-2.16c-0.63-0.58-1.31-0.82-2.16-0.89c-3.99-0.36-8.25,0.83-11.46,3.22c-0.66,0.49-1.18,1-1.4,1.83
						c-0.2,0.73-0.11,1.7,0.31,2.35c0.42,0.65,1.05,1.23,1.83,1.4C898.25,1464.67,899.2,1464.67,899.85,1464.19L899.85,1464.19z"/>
				</g>
			</g>
			<g>
				<g>
					<path d="M922.4,1376.82c0.71,20.72,3.09,41.24,6.24,61.72c3.13,20.37,6.5,40.7,7.55,61.32c1.06,20.9,0.32,41.82-0.39,62.72
						c-0.69,20.23-1.34,40.49-0.31,60.72c1,19.7,3.56,39.45,9.15,58.41c0.68,2.32,1.42,4.63,2.19,6.93
						c1.25,3.71,7.15,2.12,5.89-1.62c-6.23-18.51-9.39-37.86-10.74-57.3c-1.38-19.98-0.96-40.02-0.31-60.01
						c0.68-20.8,1.59-41.62,0.93-62.43c-0.66-20.82-3.55-41.35-6.76-61.91c-3.16-20.23-5.97-40.45-7.01-60.92
						c-0.13-2.54-0.23-5.07-0.32-7.61C928.38,1372.9,922.27,1372.89,922.4,1376.82L922.4,1376.82z"/>
				</g>
			</g>
			<g>
				<g>
					<path d="M664.68,1688.37c-3.76-4.42-9.25-2.94-14.3-3.68c-6.17-0.9-11.3-7.37-15.39-11.59c-8.83-9.11-16.57-19.21-23.25-30
						c-13.54-21.87-22.63-46.29-27.76-71.45c-6.05-29.74-6.46-60.22-3.96-90.37c1.25-15.06,2.91-30.11,2.77-45.24
						c-0.15-15.64-0.47-31.27-0.26-46.91c0.82-60.78,9.51-121.48,25.13-180.21c7.14-26.87,16.22-53.22,23.02-80.17
						c4.77-18.9,8.87-39.81,21.15-55.53c7.04-9.02,16.13-13.51,27.12-16.14c14.73-3.52,29.69-6.1,44.68-8.17
						c30.28-4.18,60.83-6.3,91.28-8.85c7.58-0.64,15.16-1.27,22.74-1.91c3.89-0.33,3.92-6.44,0-6.11
						c-31.37,2.64-62.8,4.87-94.09,8.32c-15.16,1.67-30.28,3.7-45.29,6.46c-7.39,1.36-14.77,2.85-22.07,4.65
						c-6.04,1.48-11.98,3.45-17.22,6.87c-17.15,11.21-24.46,32.33-29.65,51.14c-2.55,9.26-4.6,18.65-7.25,27.88
						c-4.32,15.07-8.91,30.06-13.31,45.1c-17.36,59.27-28.6,120.17-31.6,181.92c-0.78,16.06-0.91,32.13-0.79,48.21
						c0.12,15.73,0.56,31.37-0.63,47.08c-1.17,15.44-2.86,30.83-3.23,46.32c-0.37,15.34,0.25,30.71,2.13,45.95
						c3.33,27.04,10.59,53.52,22.75,77.96c5.69,11.45,12.46,22.34,20.27,32.46c4.06,5.26,8.38,10.3,13,15.07
						c4.21,4.34,8.74,9.42,14.34,11.96c2.59,1.17,5.26,1.49,8.08,1.55c2.54,0.05,5.47-0.37,7.28,1.75
						C662.91,1695.69,667.22,1691.35,664.68,1688.37L664.68,1688.37z"/>
				</g>
			</g>
			<g>
				<g>
					<path d="M1331.66,988.82c3.72-11.26,7.44-22.52,11.17-33.79c0.93-2.82,2.17-5.71,2.32-8.72c0.14-2.81-1.09-5.34-2.76-7.51
						c-1.61-2.08-3.49-3.93-5.25-5.88c-1.83-2.01-3.63-4.05-5.4-6.12c-7.02-8.17-13.6-16.71-19.7-25.59
						c-3.12-4.55-6.13-9.18-9-13.88c-2.42-3.97-5.52-10.25-11.31-8.21c-5.61,1.98-6.56,9.26-7,14.32
						c-0.55,6.33,0.3,12.82,2.39,18.82c0.54,1.56,2.09,2.59,3.76,2.13c1.51-0.42,2.68-2.19,2.13-3.76
						c-1.65-4.74-2.46-9.66-2.32-14.68c0.07-2.39,0.33-4.78,0.87-7.12c0.18-0.77,0.47-1.68,0.68-2.1c0.2-0.39,0.41-0.79,0.67-1.15
						c-0.21,0.29,0.81-0.75,0.41-0.46c0.15-0.11,0.34-0.22,0.5-0.29c-0.37,0.16-0.03-0.03,0.09,0.03c-0.04,0.01-0.08,0.01-0.11,0.02
						c-0.21,0.03-0.15,0.04,0.19,0.03c-0.28-0.14,0.04,0,0.16,0.09c-0.22-0.16,0.3,0.3,0.34,0.34c0.36,0.35,0.48,0.54,0.74,0.92
						c1.32,1.98,2.47,4.08,3.72,6.1c2.67,4.3,5.45,8.54,8.33,12.7c5.78,8.35,11.96,16.43,18.52,24.18
						c3.26,3.86,6.63,7.63,10.07,11.33c1.24,1.33,2.8,2.88,3.13,4.68c0.4,2.17-0.92,4.72-1.59,6.75
						c-3.88,11.73-7.76,23.46-11.63,35.19c-0.52,1.57,0.6,3.34,2.13,3.76C1329.56,991.41,1331.14,990.39,1331.66,988.82
						L1331.66,988.82z"/>
				</g>
			</g>
			<g>
				<g>
					<path d="M1303.67,962.58c-3.69,7.4-6.63,15.07-9.49,22.82c-3.37,9.16-7.13,18.18-11.65,26.84
						c-10.57,20.28-24.83,38.34-35.6,58.51c-10.69,20.03-18.32,41.63-23.39,63.73c-5.29,23.04-7.85,46.66-8.54,70.27
						c-0.74,24.97,0.59,49.95,2.8,74.81c0.28,3.1,0.57,6.19,0.87,9.28c0.16,1.64,1.29,3.05,3.05,3.05c1.53,0,3.21-1.4,3.05-3.05
						c-2.4-24.74-4.07-49.59-3.85-74.47c0.21-23.57,2.13-47.16,6.79-70.29c4.41-21.91,11.18-43.44,21.04-63.53
						c10.04-20.46,23.95-38.56,35.24-58.29c5.36-9.37,9.9-19.19,13.81-29.26c2.74-7.04,5.09-14.23,8.18-21.13
						c0.94-2.1,1.93-4.18,2.95-6.23C1310.69,962.15,1305.42,959.06,1303.67,962.58L1303.67,962.58z"/>
				</g>
			</g>
			<g>
				<g>
					<path d="M1297.91,1172.06c-6.33,4.39-14.18,5.91-21.55,4.09c-3.82-0.94-5.45,4.95-1.62,5.89c8.93,2.21,18.68,0.55,26.26-4.71
						c1.35-0.94,1.97-2.68,1.1-4.18C1301.3,1171.81,1299.27,1171.11,1297.91,1172.06L1297.91,1172.06z"/>
				</g>
			</g>
			<g>
				<g>
					<path d="M1322.35,1274.91c-8.1-24.32-13.96-49.41-17.38-74.82c-0.97-7.25-1.73-14.52-2.32-21.81
						c-0.13-1.64-1.31-3.05-3.05-3.05c-1.55,0-3.19,1.4-3.05,3.05c2.08,26.1,6.58,52.02,13.53,77.27
						c1.94,7.05,4.07,14.05,6.38,20.99c0.52,1.56,2.11,2.59,3.76,2.13C1321.75,1278.24,1322.87,1276.48,1322.35,1274.91
						L1322.35,1274.91z"/>
				</g>
			</g>
			<g>
				<g>
					<path d="M1231.12,1335.37c-0.54-7.87-1.08-15.74-1.62-23.61c-0.27-3.97-0.55-7.94-1.24-11.87c-0.66-3.81-1.72-7.54-2.78-11.25
						c-1.07-3.78-6.97-2.17-5.89,1.62c1.03,3.64,2.07,7.29,2.74,11.02c0.65,3.62,0.84,7.31,1.09,10.98
						c0.53,7.71,1.06,15.41,1.58,23.12c0.11,1.65,1.32,3.05,3.05,3.05C1229.63,1338.43,1231.23,1337.03,1231.12,1335.37
						L1231.12,1335.37z"/>
				</g>
			</g>
			<g>
				<g>
					<path d="M1363.92,985.47c4.61-7.12,8.13-15.05,10.18-23.29c0.57-2.29,1.03-4.72,0.86-7.09c-0.16-2.36-0.85-4.51-1.84-6.64
						c-1.87-4.03-4.42-7.8-6.67-11.62c-4.76-8.09-9.52-16.18-14.28-24.28c-2.23-3.79-4.29-7.84-7.21-11.16
						c-2.57-2.93-5.99-4.9-9.62-6.21c-4.05-1.47-8.39-2.02-12.65-2.47c-5.13-0.55-10.27-1.04-15.41-1.56
						c-1.64-0.17-3.05,1.52-3.05,3.05c0,1.79,1.41,2.89,3.05,3.05c4.46,0.45,8.91,0.9,13.37,1.35c3.38,0.34,6.6,0.68,9.92,1.52
						c3.02,0.76,6.01,1.87,8.34,3.88c2.91,2.5,4.67,6.02,6.58,9.27c4.51,7.66,9.02,15.33,13.52,22.99c2.23,3.8,4.47,7.59,6.7,11.39
						c1.92,3.28,3.59,6.39,3.03,10.31c-0.62,4.34-2.23,8.74-3.9,12.78c-1.69,4.07-3.81,7.96-6.21,11.66
						c-0.9,1.38-0.28,3.37,1.1,4.18C1361.22,987.44,1363.02,986.86,1363.92,985.47L1363.92,985.47z"/>
				</g>
			</g>
			<g>
				<g>
					<path d="M1389.17,990.95c0.83-3.86,1.9-7.66,3.22-11.39c1.33-3.74,3.14-7.29,4.46-11.04c2.69-7.65,0.73-15.38-2.78-22.4
						c-3.44-6.87-7.88-13.34-12.32-19.6c-4.48-6.3-9.18-12.61-14.45-18.27c-2.9-3.11-6.12-5.97-10.14-7.48
						c-1.85-0.7-3.84-0.94-5.79-0.67c-1.07,0.15-2.06,0.48-3.03,0.98c-0.37,0.19-0.78,0.41-1.1,0.67c-0.51,0.4-0.2,0.04,0.15,0.18
						c0.45,0.26,0.9,0.52,1.35,0.79c-0.08-0.07-0.17-0.13-0.25-0.2c-1.29-1.03-3.06-1.26-4.32,0c-1.07,1.07-1.29,3.28,0,4.32
						c1.85,1.49,3.77,1.49,5.83,0.38c1.48-0.8,1.94-1.31,3.59-1.12c2.57,0.3,5.2,2.36,7.18,4.23c5.22,4.92,9.6,10.88,13.82,16.65
						c4.43,6.06,8.67,12.33,12.4,18.85c3.26,5.7,6.34,12.41,4.59,19.1c-1.05,4.04-3.13,7.77-4.59,11.67
						c-1.55,4.14-2.78,8.4-3.71,12.72c-0.35,1.61,0.48,3.3,2.13,3.76C1386.94,993.51,1388.82,992.57,1389.17,990.95L1389.17,990.95z
						"/>
				</g>
			</g>
			<g>
				<g>
					<path d="M1397.45,957.97c5.18,5.44,9.8,11.19,11.17,18.78c1.34,7.42-0.39,15.19-2.85,22.19c-5.1,14.52-13.94,27.55-22.6,40.13
						c-4.98,7.23-10.03,14.4-14.69,21.84c-2.09,3.34,3.19,6.41,5.28,3.08c8.58-13.68,18.51-26.47,26.77-40.36
						c4.15-6.97,7.88-14.23,10.7-21.84c2.8-7.55,4.65-15.89,3.69-23.97c-0.56-4.71-1.95-9.19-4.39-13.28
						c-2.39-4.01-5.54-7.54-8.75-10.91C1399.05,950.8,1394.73,955.12,1397.45,957.97L1397.45,957.97z"/>
				</g>
			</g>
			<g>
				<g>
					<path d="M1367.48,1064.6c-9.19,14.59-18.37,29.19-27.56,43.78c-9.19,14.6-18.37,29.22-27.58,43.81
						c-4.8,7.6-9.69,15.19-15.44,22.12c-1.05,1.27-1.24,3.08,0,4.32c1.08,1.08,3.26,1.28,4.32,0c5.28-6.38,9.94-13.23,14.39-20.2
						c4.58-7.17,9.07-14.39,13.6-21.59c9.27-14.74,18.55-29.47,27.82-44.21c5.24-8.32,10.47-16.64,15.71-24.96
						C1374.86,1064.34,1369.57,1061.27,1367.48,1064.6L1367.48,1064.6z"/>
				</g>
			</g>
			<g>
				<g>
					<path d="M1404.31,1685.81c3.78-20.52,7.57-41.17,8.33-62.07c0.67-18.45-1.17-37.25-7.26-54.76
						c-3.34-9.59-7.91-18.76-13.91-26.97c-0.97-1.33-2.65-1.99-4.18-1.1c-1.31,0.77-2.08,2.84-1.1,4.18
						c10.34,14.14,16.19,30.89,18.82,48.11c2.89,18.87,1.71,38.23-0.88,57.05c-1.57,11.36-3.64,22.65-5.72,33.93
						c-0.3,1.62,0.45,3.29,2.13,3.76C1402.03,1688.35,1404.01,1687.44,1404.31,1685.81L1404.31,1685.81z"/>
				</g>
			</g>
			<g>
				<g>
					<path d="M1387.58,1537.52c-8.8-15.11-14.58-31.66-19.25-48.44c-4.95-17.78-8.98-35.83-12.26-53.99
						c-3.26-18-5.6-36.11-7.43-54.3c-1.8-17.93-3.33-35.89-5.75-53.76c-2.39-17.63-5.69-35.19-11.08-52.17
						c-0.68-2.16-1.4-4.3-2.15-6.43c-0.55-1.56-2.09-2.59-3.76-2.13c-1.51,0.41-2.68,2.19-2.13,3.76
						c5.93,16.89,9.67,34.45,12.31,52.13c2.64,17.69,4.19,35.53,5.93,53.33c1.8,18.4,3.97,36.76,7.08,54.99
						c3.14,18.4,7.09,36.67,11.86,54.72c4.51,17.02,9.93,33.93,18.13,49.56c1.03,1.97,2.11,3.91,3.22,5.82
						C1384.29,1544,1389.57,1540.92,1387.58,1537.52L1387.58,1537.52z"/>
				</g>
			</g>
			<g>
				<g>
					<path d="M1187,1404.97c0.71-3.64-1.21-6.54-3.85-8.86c-2.33-2.06-4.92-4.19-8.05-4.83c-6.33-1.3-12.94,2.96-15.64,8.58
						c-2.81,5.86-1.8,12.68,2.4,17.62c2.15,2.52,5.23,4.31,8.54,4.66c3.28,0.34,6.54-1,9.14-2.9c2.93-2.14,5.57-4.88,6.65-8.42
						c1.06-3.47,0.25-7.6-2.49-10.08c-1.22-1.11-3.11-1.21-4.32,0c-1.12,1.12-1.23,3.21,0,4.32c1.09,0.99,1.38,2.39,1.01,3.8
						c-0.48,1.84-1.85,3.33-3.31,4.59c-1.41,1.21-3.22,2.4-5.07,2.63c-1.93,0.24-3.73-0.77-5.08-2.08
						c-2.72-2.66-3.67-6.62-2.56-10.12c1.02-3.21,4.02-6.14,7.53-6.67c2.15-0.33,3.94,0.77,5.56,2.09c0.95,0.77,1.92,1.56,2.73,2.48
						c0.32,0.36,0.57,0.74,0.82,1.21c0-0.01,0.06,0.44,0.07,0.38c-0.32,1.62,0.46,3.3,2.13,3.76
						C1184.74,1407.51,1186.68,1406.6,1187,1404.97L1187,1404.97z"/>
				</g>
			</g>
			<g>
				<g>
					<path d="M1201.63,1560.25c-2.59-6.31-9.94-8.03-15.71-4.95c-5.63,3.01-8.96,9.45-9.76,15.59c-0.74,5.68,0.61,13.2,6.23,16.09
						c6.59,3.39,13.08-2.22,16.16-7.73c3.69-6.61,3.41-14.95-2.89-19.81c-1.31-1.01-3.42-0.2-4.18,1.1
						c-0.92,1.58-0.21,3.17,1.1,4.18c2.81,2.17,2.83,6.65,1.46,9.95c-0.84,2.01-2.14,3.93-3.74,5.41c-0.66,0.61-1.47,1.2-2.25,1.52
						c-0.69,0.28-1.43,0.4-2.03,0.27c-0.77-0.16-1.17-0.45-1.66-0.95c-0.6-0.61-0.95-1.16-1.37-2.08c-0.65-1.43-0.95-3.65-0.91-5.49
						c0.08-4.24,1.84-8.53,4.95-11.37c1.5-1.38,3.29-2.21,5.15-2.13c0.69,0.03,1.5,0.27,2.18,0.67c0.53,0.31,0.51,0.29,0.95,0.76
						c0.02,0.02,0.34,0.44,0.14,0.16c0.05,0.07,0.45,0.81,0.3,0.46c0.63,1.53,2.03,2.61,3.76,2.13
						C1200.94,1563.61,1202.26,1561.78,1201.63,1560.25L1201.63,1560.25z"/>
				</g>
			</g>
			<g>
				<g>
					<path d="M1102.72,1187.35c9.28,30.14,17.01,60.74,23.26,91.65c6.25,30.89,11.03,62.08,14.41,93.41
						c3.4,31.49,5.43,63.12,6.16,94.78c0.72,31.41,0.17,62.84-1.59,94.21c-1.85,32.89-5.88,65.71-5.76,98.69
						c0.02,4.15,0.11,8.31,0.27,12.46c0.15,3.92,6.26,3.94,6.11,0c-1.28-33.21,2.59-66.29,4.77-99.38
						c2.09-31.63,2.94-63.34,2.51-95.03c-0.43-31.66-2.15-63.31-5.23-94.82c-3.1-31.61-7.55-63.11-13.48-94.32
						c-5.89-30.99-13.23-61.71-22.13-91.98c-1.11-3.77-2.25-7.54-3.4-11.3C1107.46,1181.98,1101.56,1183.58,1102.72,1187.35
						L1102.72,1187.35z"/>
				</g>
			</g>
			<g>
				<g>
					<path d="M1287.25,911.03c-0.57,6.73-0.26,13.46,0.8,20.13c0.51,3.19,1.21,6.35,2.1,9.45c0.47,1.63,0.99,3.24,1.56,4.83
						c0.26,0.72,0.53,1.44,0.81,2.16c0.14,0.37,0.27,0.76,0.42,1.13c0.25,0.62-0.19,0.17,0.14-0.33c-0.9,1.38-0.28,3.38,1.1,4.18
						c1.49,0.87,3.28,0.29,4.18-1.1c1.07-1.64,0.82-3.56,0.15-5.29c-0.61-1.58-1.19-3.16-1.71-4.78c-1.06-3.29-1.91-6.66-2.53-10.06
						c-1.23-6.69-1.46-13.55-0.89-20.32c0.14-1.65-1.5-3.05-3.05-3.05C1288.54,907.98,1287.39,909.38,1287.25,911.03L1287.25,911.03
						z"/>
				</g>
			</g>
			<g>
				<g>
					<path d="M1321.26,1270.27c-3.48,5.11-6.46,10.53-9.65,15.83c-2.58,4.28-5.35,8.45-8.33,12.46
						c-5.73,7.72-12.35,14.95-19.48,21.48c-14.19,13-30.96,23.51-48.85,30.5c-10.27,4.01-20.96,6.93-31.85,8.67
						c1.25,1.25,2.51,2.51,3.76,3.76c3.28-13.32,9.68-25.78,18.72-36.12c1.08-1.24,1.22-3.1,0-4.32c-1.11-1.11-3.23-1.25-4.32,0
						c-9.72,11.13-16.75,24.46-20.29,38.82c-0.6,2.44,1.48,4.12,3.76,3.76c19.77-3.15,38.89-10.25,56.1-20.46
						c17.2-10.21,32.61-23.57,44.94-39.33c3.54-4.53,6.86-9.21,9.89-14.09c3.67-5.93,6.97-12.08,10.89-17.85
						c0.93-1.36,0.26-3.39-1.1-4.18C1323.93,1268.3,1322.19,1268.91,1321.26,1270.27L1321.26,1270.27z"/>
				</g>
			</g>
			<g>
				<g>
					<path d="M1228.77,1337.52c0.02,0.1,0.13,0.93,0.06,0.4c0.04,0.35,0.09,0.71,0.12,1.06c0.06,0.61,0.12,1.21,0.16,1.82
						c0.09,1.27,0.14,2.54,0.14,3.81c0,1.22-0.03,2.44-0.11,3.66c-0.04,0.61-0.09,1.22-0.15,1.82c-0.03,0.35-0.07,0.71-0.12,1.06
						c-0.02,0.15-0.04,0.3-0.06,0.45c0.04-0.31,0.04-0.28-0.01,0.09c-0.12,0.85-0.14,1.58,0.31,2.35c0.37,0.63,1.1,1.24,1.83,1.4
						c1.44,0.33,3.52-0.44,3.76-2.13c0.82-5.84,0.81-11.6-0.04-17.43c-0.23-1.59-2.32-2.6-3.76-2.13
						C1229.17,1334.32,1228.52,1335.82,1228.77,1337.52L1228.77,1337.52z"/>
				</g>
			</g>
			<g>
				<g>
					<path d="M1201.48,1362.03c4.78,17.16,7.82,34.74,9.63,52.45c1.84,17.98,2.5,36.06,2.73,54.12c0.23,18.1,0.01,36.21,0.05,54.31
						c0.04,18.05,0.33,36.11,1.6,54.11c1.27,18.07,3.51,36.12,7.4,53.83c0.47,2.15,0.97,4.3,1.5,6.44c0.93,3.82,6.82,2.2,5.89-1.62
						c-4.22-17.35-6.77-35.03-8.23-52.81c-1.49-18.06-1.92-36.19-2.02-54.31c-0.1-18.11,0.13-36.22-0.01-54.32
						c-0.14-18-0.64-36.01-2.23-53.95c-1.59-18-4.26-35.95-8.7-53.49c-0.54-2.14-1.11-4.27-1.7-6.39
						C1206.32,1356.63,1200.42,1358.24,1201.48,1362.03L1201.48,1362.03z"/>
				</g>
			</g>
			<g>
				<g>
					<path d="M1397.28,1683.3c-3.22,3.05-7.71,4.54-12.02,5c-5.13,0.55-10.29,0.15-15.4-0.3c-13.02-1.14-26.05-2.23-39.07-3.42
						c-12.43-1.14-24.85-2.58-37-5.53c-11.29-2.75-22.31-6.61-32.81-11.59c-5.83-2.77-11.51-5.85-17-9.25
						c-2.5-1.55-5.32-3.14-7.5-4.97c-0.99-0.83-1.87-1.71-2.49-2.8c0.03,0.05-0.42-0.95-0.27-0.53c-0.04-0.11-0.2-0.97-0.15-0.46
						c-0.02-0.18-0.03-0.45,0.01-0.64c-0.06,0.33,0.17-0.18,0.25-0.31c2.06-3.36-3.22-6.43-5.28-3.08
						c-3.63,5.9,2.3,11.46,6.81,14.49c5.11,3.44,10.41,6.6,15.86,9.48c10.99,5.8,22.62,10.48,34.57,13.87
						c12.64,3.59,25.63,5.5,38.69,6.83c13.79,1.4,27.61,2.47,41.41,3.68c11.97,1.04,26.17,2.9,35.72-6.15
						C1404.46,1684.91,1400.13,1680.6,1397.28,1683.3L1397.28,1683.3z"/>
				</g>
			</g>
			<g>
				<g>
					<path d="M1338.35,1129.95c17.47,5.62,34.94,11.24,52.4,16.87c14.12,4.54,28.54,8.86,41.43,16.38
						c12.39,7.23,22.19,17.63,27.51,31.07c5.32,13.42,6.67,28.03,6.51,42.36c-0.39,35.35-7.8,70.47-13.78,105.18
						c-3.08,17.84-6.15,35.68-9.23,53.52c-3.02,17.51-5.94,35.06-9.91,52.39c-3.99,17.43-9.7,34.39-13.85,51.78
						c-4.13,17.29-6.17,35.01-7.07,52.75c-0.22,4.41-0.37,8.82-0.48,13.23c-0.09,3.93,6.02,3.93,6.11,0
						c0.44-18.21,1.71-36.45,5.17-54.36c3.42-17.71,9.25-34.81,13.71-52.26c4.46-17.47,7.61-35.23,10.68-52.98
						c3.13-18.1,6.24-36.21,9.37-54.31c6.18-35.84,13.69-71.9,15.23-108.33c0.62-14.66-0.06-29.7-4.24-43.85
						c-4.17-14.13-12.09-26.52-23.81-35.54c-11.74-9.04-25.81-14.4-39.74-19.04c-16.96-5.65-34.04-10.98-51.05-16.46
						c-4.44-1.43-8.87-2.86-13.31-4.28C1336.22,1122.86,1334.61,1128.75,1338.35,1129.95L1338.35,1129.95z"/>
				</g>
			</g>
		</g>
	</g>
</g>
<g id="Layer_9">
</g>
</svg>
