<?xml version="1.0" encoding="UTF-8"?>
<svg id="Layer_2" data-name="Layer 2" xmlns="http://www.w3.org/2000/svg" viewBox="0 0 1517.85 1358.89">
  <defs>
    <style>
      .cls-1 {
        fill: #f5f0e2;
      }

      .cls-1, .cls-2, .cls-3, .cls-4, .cls-5 {
        stroke-width: 0px;
      }

      .cls-3 {
        fill: #fff;
      }

      .cls-4 {
        fill: #1b1439;
      }

      .cls-5 {
        fill: #ed1e78;
      }

      .cls-6 {
        fill: #29597e;
        stroke: #000;
        stroke-miterlimit: 10;
        stroke-width: 2.7px;
      }
    </style>
  </defs>
  <g id="Layer_1-2" data-name="Layer 1">
    <g id="Layer_2-2" data-name="Layer 2">
      <polygon class="cls-6" points="1.35 1357.01 121.15 1357.01 1516.5 1357.01 1516.5 1.35 1.35 1.35 1.35 1357.01"/>
      <path class="cls-5" d="m509.4,546.89c-.36-1.24-.82-2.61-1.97-3.21-1.4-.73-3.22.13-4.04,1.48s-.88,3.02-.82,4.6c.15,3.79.53,12.8,6.67,10.13,5.17-2.24,1.24-9.28.16-13Z"/>
      <g>
        <path class="cls-3" d="m714.17,547.78c-11.92-.49-24.19,5.05-30.83,14.96-7.19,10.73-7.19,24.65-5.71,37.48,1.15,9.91,3.03,19.72,4.91,29.52.88,4.58,1.78,9.24,3.98,13.36,5.87,11.03,19.24,15.49,31.52,17.81,10.16,1.92,21.4,2.86,30.14-2.65,1.94-1.22,3.74-2.79,4.78-4.84,1.3-2.57,1.27-5.58,1.2-8.45-.26-11.95-.51-23.91-.77-35.86-.23-10.59,1.62-23.71-.99-33.99-3.83-15.05-23.26-27.34-38.23-27.34Z"/>
        <path class="cls-3" d="m697.14,551.57c1.46-5.4,2.92-10.8,4.38-16.2,1.39-5.15,1.95-12.2-2.96-14.31-3.36-1.44-7.23.69-9.71,3.38s-4.32,6.04-7.33,8.12c-4.05-6.14-11.83-8.96-19.19-8.93s-14.46,2.47-21.41,4.89c.2-2.78-2.52-5.08-5.28-5.42-2.76-.34-5.48.77-8,1.96-8.56,4.06-16.53,9.36-23.57,15.69-4.67,4.2-8.97,8.87-14.09,12.51-9,6.39-20.46,9.55-27.62,17.94-9.56,11.2-8.38,27.71-6.66,42.33,1.14,9.73,2.31,19.57,5.74,28.74,3.34,8.92,8.76,16.98,15.23,23.97,15.43,16.67,37.15,27.37,59.78,29.43,6.66.61,13.55.47,19.82-1.87,6.27-2.33,11.88-7.14,13.89-13.52,1.13-3.59,1.08-7.44,1.02-11.21-.21-13.11-.43-26.21-.64-39.32-.27-16.45-.43-33.46,5.95-48.62.47-1.11.87-2.64-.13-3.33-.99-.69-1.7,1.89-.62,1.35"/>
        <path class="cls-3" d="m572.75,665.84c9.45,30.61,18.93,61.34,24.05,92.96,1.64,10.1,2.84,20.36,6.26,30,3.41,9.65,9.35,18.82,18.26,23.85,8.13,4.59,17.78,5.29,26.88,7.36,8.77,2,18.22,5.29,26.4,1.54,9.83-4.5,12.86-16.75,14.71-27.4,3.12-17.92,6.25-36.05,5.06-54.2-.96-14.57-4.72-28.77-9.7-42.44-4.55-12.48-9.53-29.92-17.73-40.46-8.36-10.74-21.85,5.36-29.92,10.92-11.82,8.15-18.23,3.78-29.96-2.4-5.71-3.01-11.89-5.41-18.43-5.52-1.77-.04-17.08,1.92-15.88,5.79Z"/>
        <path class="cls-3" d="m651.1,669.33c.73,7.96,3.71,15.85,9.2,21.65,2.98,3.15,7.45,5.76,11.5,4.21,2.3-.88,3.97-2.95,5.02-5.18,2.57-5.43,2.06-11.75,1.49-17.73-.14-1.45-.27-2.9-.62-4.31-.35-1.45-.92-2.84-1.49-4.22-2.67-6.52-7-23.72-16.5-21.59-9.49,2.13-9.24,20.12-8.6,27.17Z"/>
        <path class="cls-3" d="m599.53,827.7c-7.2,22.22-23.11,40.38-34.54,60.76-.59,1.04-1.17,2.14-1.21,3.34-.05,1.64.93,3.11,1.87,4.44,19.55,27.66,42.44,52.95,68.01,75.15,2.96-15.85,10.73-30.31,16.55-45.34,7.43-19.2,11.71-39.44,15.95-59.58,4.5-21.36,8.85-56.37-16.56-67.36-8.02-3.47-17.68-1.6-25.93-.06-16.47,3.08-19.4,14.01-24.14,28.65Z"/>
        <path class="cls-3" d="m654.38,834.7c-3.29,11.55-3.18,23.76-3.04,35.77.08,7.28.17,14.55.25,21.83.11,9.66.17,19.62-3.48,28.56-1.33,3.26-3.17,6.49-3.1,10.01.08,3.52,3.19,7.28,6.59,6.38,2.56-.68,3.85-3.46,4.8-5.93,5.99-15.48,11.99-30.96,17.98-46.44,5.6-14.46,11.26-29.18,12.39-44.64.63-8.55.7-42.5-11.02-37.43-10.42,4.51-18.5,21.81-21.37,31.89Z"/>
        <path class="cls-3" d="m697.53,676.53c-17.55,19.74-35.47,40.09-44.7,64.84-9.14,24.52-9,51.39-8.74,77.56.23,23.49.46,46.98.69,70.47.21,20.99,1.43,44.43,16.67,58.86,15.66,14.81,41.64,14,60.13,2.91s30.67-30.22,39.77-49.75c8.1-17.37,14.32-35.61,18.52-54.31,1.27-5.67,2.37-11.43,2.34-17.24-.01-3.38-.41-6.74-.8-10.1-1.25-10.72-2.5-21.43-3.75-32.15-1.4-12.04-2.83-24.16-6.54-35.7-1.77-5.49-4.05-10.82-5.45-16.42-1.95-7.77-2.17-15.88-3.86-23.71-2.81-13.04-9.57-24.83-16.24-36.38-4.78-8.29-10.38-23.41-22.11-21.65-10.36,1.56-19.51,15.55-25.93,22.77Z"/>
        <path class="cls-3" d="m720.86,678.35c-.54,8.2,4.89,15.48,10.28,21.68,2.26,2.6,4.62,5.21,7.61,6.91s6.77,2.39,9.9.96c3.23-1.47,5.16-4.81,6.46-8.11,2.3-5.84,3.26-12.19,2.8-18.45-.26-3.51-.96-6.98-1.1-10.5-.39-9.65,4.78-32.73-12.54-28.65-12.12,2.86-22.67,25.01-23.41,36.16Z"/>
        <path class="cls-3" d="m811.02,579.8c-6.09.61-12.17,1.23-18.26,1.84-1.37.14-2.84.32-3.85,1.26-1.11,1.03-1.33,2.68-1.48,4.19-1.72,17.44-2.1,35.01-1.14,52.51,1.16,21.02,4.36,42.26,13.14,61.39,8.78,19.13,23.69,36.09,43.21,43.98,11.48,4.64,24.05,5.99,36.43,6.01,9.83.02,19.74-.78,29.18-3.54,11.77-3.43,22.59-9.82,34.56-12.43,11.45-2.49,23.66-1.33,34.43,3.27,10.31,4.4,19.05,11.72,28.56,17.64,9.52,5.92,20.65,10.59,31.7,8.73,6.59-1.11,12.57-4.45,18.39-7.73,16.58-9.35,33.16-18.69,49.74-28.04,3.25-1.83,6.6-3.74,8.88-6.7,1.18-1.53,2.04-3.28,2.88-5.02,2.68-5.53,5.37-11.06,8.05-16.59,3.04-6.27,6.11-12.59,7.91-19.32,6.23-23.2-4.8-49.91-25.58-61.96-6.8-3.94-14.68-6.43-22.5-5.68-21.27,2.04-36.9,26.68-58.12,24.17-10.29-1.22-18.53-8.68-26.91-14.78-23.45-17.07-52.38-25.18-81.21-28.38-28.82-3.2-57.93-1.81-86.93-1.64-4.12.02-8.34.01-12.24-1.33-7.67-2.63-14.69-10.27-22.37-7.66,1.31.37,2.63.74,3.94,1.1"/>
        <path class="cls-3" d="m957.25,513.23c-2.7-.67-5.13,1.73-6.73,4.01-18.44,26.35-10.75,64.43-28.34,91.35-2.97,4.55-6.7,8.74-11.45,11.38-6.68,3.72-14.71,4.06-22.33,3.45-21.6-1.74-41.98-10.29-61.94-18.74-2-.85-4.07-1.74-5.52-3.35-1.04-1.16-1.7-2.61-2.64-3.85-2.88-3.83-7.91-5.16-12.48-6.6s-9.53-3.69-11.18-8.19c6.05-3.57,12.16-7.17,18.86-9.28,8.19-2.58,17-2.84,25.08-5.76,4.61-1.67,8.87-4.16,13.23-6.42,13.19-6.82,27.37-11.48,41.2-16.87,19.63-7.64,38.66-16.8,56.88-27.37"/>
        <path class="cls-3" d="m974.21,501.15c-27.87,10.97-51.93,31.39-67.29,57.11-3.35,5.61-6.32,11.53-7.77,17.89-1.47,6.43-1.34,13.1-1.8,19.67-.58,8.25-2.11,16.47-1.62,24.73.49,8.25,3.33,16.85,9.83,21.97,9.23,7.28,22.41,5.47,33.97,3.35,11.56-2.12,24.8-3.79,33.89,3.65,2.92,2.39,5.11,5.52,7.74,8.23,5.36,5.51,12.36,9.08,19.35,12.3,18.45,8.5,37.72,15.23,57.46,20.07,8.04,1.97,16.7,3.59,24.42.62,9.18-3.53,14.81-12.64,19.38-21.35,5-9.52,9.61-19.48,11.04-30.15,1.51-11.27-.62-22.67-2.73-33.84-1.35-7.14-2.78-14.49-6.71-20.61-4.78-7.45-12.69-12.22-20.32-16.72s-15.66-9.13-24.51-9.46c-6.54-.25-14.39,1.42-18.59-3.6-2.43-2.9-3.24-7.75-6.94-8.58-2.31-.52-4.69,1.04-5.84,3.11s-1.33,4.52-1.39,6.88c-.08,3.59.07,7.18.22,10.77.21,4.95.41,9.91.62,14.86.44,10.62.89,21.28,2.66,31.77-10.38-13.46-18.06-28.76-25.68-43.96-6.47-12.91-12.94-25.81-19.41-38.72-3.63-7.24-7.35-14.95-6.68-23.01.08-.98.18-2.1-.49-2.81-.55-.58-1.44-.68-2.24-.71-11.04-.43-22.17,4.59-29.15,13.16"/>
        <path class="cls-3" d="m959.33,515.31c-1.16,6.05,2.36,12.48,7.76,15.45,2.77,1.52,6.31,2.6,7.36,5.58.65,1.84.3,4.29,1.93,5.36.8.53,1.87.5,2.78.18,3.18-1.1,4.41-4.9,4.94-8.23,1.42-8.91,1.91-24.09-5.45-30.84-8.15-7.49-17.83,4.76-19.32,12.5Z"/>
        <path class="cls-3" d="m1079.64,575.35c-5.21,5.38-10.42,10.77-15.64,16.15-1.63,1.68-3.3,3.43-4.09,5.64-.97,2.71-.46,5.71.14,8.52,1.7,7.94,4.08,15.72,7.12,23.25,1.56,3.86,3.31,7.68,5.7,11.1,2.8,4,6.42,7.36,10.12,10.55,6.15,5.32,12.6,10.31,19.3,14.92,2.97,2.05,6.24,4.36,7.05,7.88.99,4.3-2.09,8.92-.59,13.07,1.07,2.97,4.28,4.73,7.42,5.02,3.14.3,6.26-.59,9.28-1.47,2.54-.74,5.15-1.52,7.19-3.2,1.35-1.11,2.37-2.56,3.34-4.01,5.16-7.68,9.48-15.93,12.84-24.55,2.3-5.89,4.16-12.45,2.13-18.44-.93-2.75-2.63-5.16-4.3-7.54-3.43-4.86-7.19-9.99-12.77-12.05-.34-.13-.69-.24-.97-.48-.53-.45-.64-1.22-.74-1.9-.83-5.71-3.55-10.95-6.23-16.06-1.45-2.76-2.9-5.54-4.72-8.08-1.94-2.71-4.28-5.12-6.61-7.52-5.01-5.16-10.38-13.14-16.64-16.74-6.87-3.96-13.63,1.09-18.33,5.94Z"/>
        <path class="cls-3" d="m812.93,692.68c-5.27-4.52-6.24-12.25-6.11-19.19s.94-14.24-2.01-20.52c-1.3-2.77-3.41-5.28-6.25-6.4s-6.45-.56-8.36,1.83c-1.06,1.32-1.5,3.02-1.9,4.67-3.23,13.39-5.12,27.06-7.01,40.71-.97,7.05-1.95,14.16-1.63,21.27.19,4.14.82,8.24,1.45,12.34,1.46,9.52,2.92,19.04,4.38,28.56,2.42,15.77,5.13,32.26,14.77,44.98,3.33,4.4,7.43,8.22,12.05,11.24,3.76,2.46,7.97,4.41,12.45,4.79,5.99.51,11.82-1.83,17.32-4.25,5.3-2.34,10.65-4.86,14.9-8.8,3-2.78,5.36-6.17,7.7-9.53,4-5.75,8.07-11.66,9.81-18.45,1.05-4.08,1.22-8.33,1.28-12.54.18-11.85-.52-24.1-5.67-34.77s-15.71-19.48-27.56-19.37"/>
        <path class="cls-3" d="m883.91,691.72c-14.19-2.96-30.97-1.21-40.05,10.09-4.84,6.02-6.78,14-6.53,21.71.25,7.72,2.52,15.23,5.38,22.4,3.43,8.62,7.8,17.2,7.98,26.48.04,2.06-.17,4.23-1.36,5.92-1.46,2.07-4.03,2.96-6.19,4.29-3.05,1.89-5.34,4.76-7.56,7.58-4.9,6.21-9.8,12.42-14.7,18.63-.35.45-.72.94-.74,1.51-.01.57.33,1.07.67,1.54,3.02,4.21,6.14,8.51,10.44,11.4,3.7,2.48,8.08,3.78,12.45,4.62,23.89,4.59,48.38-3.33,70.57-13.3,7.36-3.31,14.67-6.88,21.09-11.76,3.56-2.7,6.82-5.79,10.07-8.86,9.76-9.24,19.57-18.53,27.74-29.2,6.84-8.94,12.45-18.75,17.83-28.64,2.18-4,4.38-8.24,4.35-12.8-.04-7.59-6.26-13.79-12.94-17.41-7.67-4.16-16.54-5.95-25.23-5.43-7.45.45-14.4,3.66-21.8,4.07-17.61.99-34.6-9.33-51.47-12.84Z"/>
        <path class="cls-3" d="m1041.41,739.65c-10.2-5.61-17.02-18.21-28.64-18.92-6.86-.42-13.1,3.63-18.77,7.51-1.94,1.33-3.9,2.68-5.44,4.45-5.56,6.39-4.2,16.04-6.3,24.24-1.52,5.92-4.9,11.15-7.59,16.64-7.67,15.62-9.8,33.34-10.71,50.71-.53,10.13-.53,20.91,4.77,29.56.92,1.5,2.01,2.93,3.41,3.98,1.59,1.19,3.53,1.85,5.48,2.2,12.62,2.28,23.97-7.17,35.98-11.68,6.89-2.59,14.51-3.66,20.53-7.88,6.21-4.35,9.83-11.4,13.4-18.09,10.46-19.6,22.45-38.39,35.82-56.14,7.72-10.24,15.97-20.26,21.41-31.87,2.55-5.44,4.44-11.15,6.34-16.85.88-2.64,1.77-5.4,1.39-8.16-.84-6.23-7.4-9.76-13.16-12.28-4.42-1.93-8.97-3.9-13.79-4-4.08-.09-8.05,1.16-11.94,2.41-14.47,4.67-28.88,9.56-43.2,14.67"/>
        <path class="cls-3" d="m987.88,746.97c-.27-.43-.65-.9-1.15-.86-.3.03-.55.23-.78.43-5.44,4.79-11.13,9.94-13.24,16.88-1.11,3.66-1.14,7.54-1.53,11.34-.33,3.18-1.14,6.28-1.6,9.39,21.56,6.98,26.61-23.91,18.3-37.18Z"/>
        <path class="cls-3" d="m986,850.07c-1.07,1.04-2.92.86-4.11-.04s-1.84-2.33-2.33-3.75c-2.4-6.97-1.98-15.24-6.82-20.81-1.08-1.24-2.37-2.28-3.41-3.55-2.89-3.52-3.5-8.32-4.01-12.84-7.29,20.23-7.68,42.22-7.1,63.72.94,34.8,4.22,69.49,7.49,104.15.92,9.74,1.84,19.48,2.76,29.22.26,2.71.83,5.89,3.29,7.05,2.62,1.23,5.59-.66,7.8-2.53,13.43-11.32,24.4-25.26,34.49-39.64,5.97-8.5,11.71-17.3,15.29-27.05,3.29-8.95,4.66-18.5,5.34-28.01,1.24-17.48.17-35.12-3.17-52.31-.88-4.55-1.97-9.18-4.49-13.08-2.52-3.9-6.75-6.98-11.39-6.94"/>
        <path class="cls-3" d="m983.99,915.27c-2.61.17-3.84-3.11-4.25-5.69-1.29-8.06-2.58-16.11-3.87-24.17-.34-2.09-.73-4.32-2.15-5.89-2.65-2.92-7.76-2.08-10.54.71-2.79,2.79-3.83,6.83-4.69,10.68-2.41,10.88-4.21,21.95-4.32,33.1-.18,18.4,4.33,36.82,12.99,53.06,4.05,7.58,9.15,15.36,8.53,23.93-.34,4.69-2.14,10.25,1.24,13.52,2.42,2.34,6.44,2.06,9.45.54,3-1.52,5.38-4.03,8.12-5.99,5.75-4.12,13.05-5.77,18.54-10.22,2.34-1.9,4.27-4.24,6.18-6.56,8.38-10.18,16.75-20.35,25.13-30.53,4.68-5.68,9.45-11.52,11.9-18.46.76-2.16,1.3-4.44,1.2-6.73-.08-1.88-.57-3.71-1.06-5.53-6.92-25.91-12.77-52.11-17.51-78.5-.7-3.89-1.42-7.9-3.52-11.25-2.16-3.44-5.63-5.89-9.32-7.58-6.79-3.11-16.08-3.26-20.44,2.8-1.72,2.39-2.38,5.37-2.94,8.27-1.67,8.67-2.81,17.43-3.42,26.24"/>
        <path class="cls-3" d="m699.1,923.24c-2.07-8.1-11.69-11.81-20.05-11.8-15.19.02-30.07,8.66-37.62,21.83-1.63,2.85-2.96,5.98-2.99,9.26-.03,2.7.83,5.34,1.83,7.85,2.51,6.26,6.01,12.12,10.35,17.28,4.71,5.62,10.36,10.39,15.18,15.92s8.88,12.13,9.48,19.43c.61,7.43-2.41,14.65-5.74,21.32s-7.12,13.31-8.24,20.68,1.14,15.84,7.51,19.71c3.93,2.39,8.74,2.68,13.34,2.92,7.39.37,14.8.75,22.17.14,7.5-.62,14.88-2.25,22.23-3.88,21.8-4.82,44.07-9.84,63.02-21.64,9-5.61,17.05-12.63,24.68-20,3.77-3.64,7.49-7.42,10.27-11.87,9.58-15.32,6.06-36.25-4.6-50.84s-27.12-23.83-43.85-30.64c-5.96-2.42-12.19-4.63-18.62-4.48-4.4.1-8.7,1.3-12.94,2.5-11.79,3.32-23.58,6.64-35.36,9.96-1.45.41-3.28,1.58-2.62,2.93"/>
        <path class="cls-3" d="m738.12,939.13c3.72,9.1,8.86,18.33,7.7,28.09-1.37,11.55-11,20.03-19.01,28.47-3.61,3.81-7.07,7.95-8.84,12.89-1.24,3.46-1.59,7.18-2.69,10.69-1.7,5.43-5.17,10.34-5.79,16-.67,6.11,1.84,13.21-2.13,17.9-2.49,2.93-6.63,3.66-10.32,4.77s-7.7,3.4-8.13,7.23c8.09,8.11,20.91,8.45,32.36,8.26,12-.2,23.99-.4,35.99-.59,26.46-.44,54.65-1.41,76.41-16.47,7.96-5.51,14.62-12.65,21.21-19.73,4.36-4.68,8.83-9.54,11.02-15.55,3.63-9.99.32-20.98-.18-31.6-.41-8.72,1.12-17.57-.6-26.12-2.08-10.37-8.67-19.17-15.03-27.62-15-19.95-29.98-40.7-36.79-64.71-2.07-7.28-3.77-15.44-9.83-19.97-3.01-2.25-6.73-3.28-10.36-4.26-15.28-4.14-37.68-16.98-48.07.18-10.41,17.19-15.06,38.33-14.2,58.29.49,11.59,2.89,23.11,7.28,33.85Z"/>
        <path class="cls-3" d="m831.08,821.64c-14.56-8.98-27.31-20.86-37.29-34.75-4.43,10.38-5.24,22.27-2.27,33.15-4.98,0-6.24-6.81-9.21-10.81-3.4-4.56-10.13-5.6-15.5-3.72s-9.6,6.05-13.23,10.43c-24.7,29.8-28.16,75.4-8.24,108.58,8.9,14.82,21.67,26.88,32.05,40.7,5.73,7.62,10.95,16.84,9.15,26.2-1.31,6.78-6.07,12.29-9.39,18.35-3.32,6.06-4.99,14.22-.46,19.44,3.14,3.63,8.24,4.65,12.8,6.13,8.35,2.72,15.96,7.69,21.81,14.24-1.91,2.29-3.82,4.58-5.74,6.87,6.13-.01,12.26-.01,18.39-.02,2.71,0,6.56,2.24,4.73,4.24,4.15,2.04,9.26.4,12.94-2.39s6.44-6.62,9.87-9.71c5.55-5.01,12.74-8.03,17.97-13.37,10.25-10.48,10.51-27.46,5.9-41.38-1-3.03-2.21-6.06-2.34-9.24-.1-2.49.47-4.96.41-7.45-.15-6.47-4.37-12.04-6.49-18.16-2.61-7.53-1.97-15.73-2.36-23.69-.86-17.7-6.9-34.68-12.87-51.37-3.27-9.14-6.54-18.28-9.81-27.41-.54-1.5-1.09-3.08-.9-4.66.45-3.81,4.59-5.78,7.84-7.82,6.81-4.29,11.49-11.81,12.34-19.81.84-8.01-2.16-16.33-7.93-21.95-4.25-4.14-9.72-6.74-15.09-9.26-5.06-2.38-10.12-4.76-15.17-7.14-3.39-1.59-6.87-3.21-10.6-3.56s-7.83.84-10.01,3.89"/>
        <path class="cls-4" d="m692.9,416.82c-4.25-7.19-14.18-8.37-22.45-7.26-19.85,2.67-38.31,14.3-49.31,31.03-3.52,5.36-6.29,11.17-9.05,16.96-15.4,32.34-31.14,66.1-30.84,101.92,3.78-.2,6.07-4.08,8.08-7.29,10.14-16.18,28.75-24.61,46.29-32.15,1.51-.65,3.24-1.3,4.75-.65,1.06.46,1.75,1.47,2.66,2.18,3.59,2.83,8.69.3,13.07-1.03,4.37-1.33,9.14-1.32,13.5.03,4.69,1.45,9.04,4.42,13.95,4.38,5.53-.04,10.22-3.88,15.41-5.82.96-.36,2.04-.65,2.98-.25,1.34.57,1.77,2.23,1.98,3.67,1.15,7.91.67,16.06-1.4,23.78,7.33-5.63,17-6.9,25.59-10.31,20.45-8.1,34.37-29.04,36.76-50.9.31-2.85.45-5.78-.25-8.57-.92-3.64-3.19-6.77-5.41-9.8-4.09-5.57-8.17-11.13-12.26-16.7-5.72-7.8-11.53-15.69-19.05-21.78s-17.06-10.27-26.7-9.39"/>
        <path class="cls-4" d="m728.2,528.94c.79-.15-.41-1.11-1.17-.83-3.3,1.19-6.6,2.37-9.9,3.56-3.11,1.12-6.27,2.26-8.92,4.24s-4.75,4.95-4.87,8.26c3.87,2.67,9.08,1.45,13.76,1.86,6.46.56,12.14,4.32,17.5,7.96,4.62,3.14,9.41,6.45,12.13,11.33,2.5,4.47,2.97,9.75,3.39,14.85.51,6.18,1.02,12.35,1.54,18.53.31,3.7.67,7.57,2.68,10.7,3.28,5.1,10.45,6.77,16.19,4.8,5.74-1.97,10.07-6.9,12.69-12.38s3.74-11.52,4.87-17.49c.27-1.43.67-3.05,1.94-3.76.59-.33,1.29-.41,1.96-.52,2.75-.43,5.38-1.39,8-2.35,13.53-4.96,27.72-10.37,36.88-21.49,2.67-3.24,4.89-7.09,5.09-11.28.23-4.82-2.21-9.31-4.57-13.52-2.47-4.4-5.06-8.94-9.12-11.94-2.38-1.76-5.15-2.9-7.92-3.92-21.07-7.74-44.42-9.15-66.27-4.01-3.89.91-8.08,2.28-10.2,5.67"/>
        <path class="cls-4" d="m768.79,606.1c-1.8,2.27-5.26-.1-8.12-.54-2.95-.45-5.85,1.56-7.32,4.16s-1.78,5.68-1.93,8.66c-1.07,20.69,4.01,41.17,5.74,61.81.77,9.24.88,18.52,1.71,27.75,2.01,22.16,8.21,43.69,14.38,65.07,4.24,14.71,8.49,29.42,12.73,44.13.66,2.29,1.39,4.7,3.14,6.33,2.17-1.37,2.33-4.42,2.24-6.98-.62-17.33-1.85-34.65-3.7-51.89-.57-5.3-1.2-10.6-2.48-15.77-.72-2.89-1.64-5.74-1.96-8.7-.35-3.27.06-6.57.4-9.84,3.65-35.28-1.03-71.09,3.32-106.29.84-6.77,2.01-13.49,3.5-20.14.23-1.02.45-2.15-.07-3.05-.83-1.45-2.9-1.4-4.54-1.11-6.13,1.1-12.11,3.05-17.71,5.78-1.9.92-4.05,2.52-3.66,4.59"/>
        <path class="cls-4" d="m782.18,599.41c.09.98.27,2.01.9,2.76.88,1.06,2.39,1.29,3.75,1.45.39.05.81.09,1.15-.1.39-.21.57-.66.72-1.08,1.53-4.43,1.33-9.44-.55-13.74-3.46-7.89-6.2,8.16-5.97,10.71Z"/>
        <path class="cls-4" d="m857.52,442.46c-3.23-4.03-8.68-5.43-13.78-6.25-17.38-2.81-35.7-1.59-51.76,5.62-30.43,13.65-48.84,49.86-41.94,82.49,2.06,9.73,6.77,19.75,15.68,24.16,7.8,3.85,17.05,2.6,25.61,1.05,4.11-.75,8.36-1.54,12.42-.57s7.9,4.25,8.07,8.43c.24,5.8-5.99,9.45-11.31,11.75,3.77,6.21,12.98,5.15,19.94,3.05,18.1-5.48,35.63-12.68,53.07-19.99,29.15-12.22,58.28-24.83,85.23-41.35,8.61-5.27,16.99-10.95,25.97-15.55,12.72-6.51,26.78-10.98,37.56-20.37,5.1-4.44,9.5-10.4,9.66-17.16.16-6.67-3.84-12.77-8.56-17.49-15.04-15.03-37.43-19.96-58.67-21.13-41.06-2.27-82.69,7.16-118.77,26.88"/>
        <path class="cls-4" d="m795.33,336.03c-30.51,8.22-62.55,17.47-84.49,40.21-11.36,11.77-19.2,26.41-26.9,40.84-4.08,7.66-8.27,16.55-5.18,24.66,2.13,5.59,7.25,9.37,12.12,12.84,8.36,5.96,16.79,11.95,26.15,16.19,13.59,6.16,28.57,8.37,42.96,12.32,13.48,3.7,26.54,8.96,38.82,15.65,6.29,3.42,12.58,7.29,19.67,8.28,5.97.84,12.02-.45,17.91-1.77,24.53-5.49,50.26-12.34,67.85-30.3,11.76-12.01,19.26-28.44,33.51-37.35,6.08-3.8,13.4-6.25,17.61-12.05,5.39-7.42,3.86-17.62,2.09-26.62-2.29-11.65-4.87-23.91-12.74-32.8-4.68-5.29-10.91-8.98-15.82-14.06-4.91-5.08-8.48-12.54-5.97-19.14-33.37-2.93-67.03-2.63-100.35.9-3.09.33-6.85,1.24-7.62,4.24"/>
        <path class="cls-4" d="m827.12,346.81c2.1-2.18,3.06-5.4,2.5-8.37-.07-.38-.17-.77-.39-1.08-.31-.43-.8-.67-1.29-.87-4.75-2.01-10.07-2.11-15.23-2.11s-10.22.15-14.27,2.98c-7.55,5.26,5.74,9.88,9.85,11.42,5.59,2.08,14.38,2.66,18.83-1.97Z"/>
        <path class="cls-4" d="m1028.18,413.47c-4.55-10.28-9.09-20.57-13.64-30.85-1.2-2.71-2.41-5.44-4.21-7.79-2.04-2.67-4.75-4.73-7.42-6.76-12.85-9.75-25.91-19.62-40.92-25.52-12.69-4.99-26.35-6.97-39.93-8.28-4.68-.45-9.49-.81-14.01.47-6.68,1.9-11.98,7.26-15.13,13.45-3.15,6.18-4.4,13.16-5.14,20.06-1.33,12.39-1.11,25.14,2.65,37.02,3.77,11.88,11.38,22.85,22.26,28.92,17.51,9.76,39.47,5.38,58.73,10.93,1.09.31,2.21.68,3.06,1.43,2.07,1.83,1.76,5.25.38,7.65-3.73,6.47-13.18,8.59-15.55,15.68-1.66,4.98,1.13,10.57,5.29,13.77s9.41,4.55,14.5,5.81c1.34,11.96,3.4,25.23,12.88,32.64,6.42,5.02,14.97,6.22,23.1,6.79,10.32.73,20.84.72,30.83-1.98,9.99-2.7,19.48-8.34,25.17-16.98,5.85-8.89,7.17-19.91,8.34-30.49,1.09-9.95,2-20.78-3.35-29.24-2.24-3.55-5.44-6.38-8.02-9.69-4.89-6.25-7.61-14.17-13.42-19.58-5.47-5.1-12.95-7.29-19.95-9.92-1.64-.62-3.33-1.31-4.52-2.6-.82-.89-1.34-2-1.85-3.1-1.63-3.52-3.27-7.03-4.9-10.55-3.1.2-6.2.41-9.31.61"/>
        <path class="cls-4" d="m1070.87,439.21c.46-2.5-1.56-4.77-3.66-6.21-1.77-1.22-3.76-2.2-5.9-2.43s-4.43.39-5.9,1.95c-.61.66-1.08,1.51-1.03,2.41.08,1.31,1.2,2.28,2.26,3.05,3.58,2.59,7.52,4.67,11.68,6.17.23.08.49.21.52.45s-.43.36-.42.12"/>
        <path class="cls-4" d="m994.95,511.52c-2.2-1.2-4.62-2.68-5.13-5.13-.11-.55-.13-1.13-.41-1.62-.65-1.12-2.44-1.01-3.36-.1-.92.91-1.19,2.28-1.36,3.56-2.31,17.72,5.7,34.98,13.51,51.06,1.7,3.5,3.4,7,5.1,10.5,2.65,5.45,5.31,10.94,7.08,16.74.7,2.3,1.33,4.75,3.03,6.44,1.78,1.76,4.4,2.36,6.45,3.8,3.83,2.68,5.36,8.06,9.59,10.06,3.06-18.15-4.19-36.5-3.79-54.91.02-.91.08-1.89.67-2.59.6-.71,1.59-.95,2.51-1.01,6.68-.46,12.06,5.67,14.4,11.95,12.32-1.03,24.84.47,36.58,4.36,1.6.53,3.3,1.19,4.26,2.58-1.99-11.14-1.81-22.66.52-33.73.61-2.91,1.38-5.83,1.38-8.8,0-2.79-.68-5.52-1.36-8.23-2.47-9.9-4.94-19.79-7.41-29.69-1.54-6.17-3.68-13.1-9.42-15.82-3.77-1.78-8.19-1.25-12.29-.52-16.73,2.97-33.01,8.52-48.07,16.39-5.85,3.05-12.15,7.4-12.82,13.96"/>
        <path class="cls-4" d="m671.66,632.06c-.14,8.59-.27,17.24,1.24,25.69,1.58,8.85,4.93,17.26,8.26,25.61.24.6.54,1.26,1.14,1.48.51.19,1.08.01,1.6-.19,13.21-5,23.97-16.06,28.61-29.39-3.71.11-7.54.2-11.02-1.08-2.1-.78-3.99-2.03-5.86-3.27-5.69-3.79-11.6-7.94-14.49-14.13-1.81-3.88-2.27-8.24-2.66-12.5-.79-8.72-1.52-17.48-1.79-26.23-.06-1.82,1-12.92-1.28-13.51-4.26-1.1-3.26,17.28-3.3,19.45-.15,9.35-.3,18.71-.45,28.07Z"/>
        <path class="cls-4" d="m679.85,623.95c-.26-1.27-.7-2.89-1.99-3.01-1.19-.11-1.88,1.16-2.14,2.4-.04.2-.08.4-.1.6-.31,2.77-.96,14.27,3.54,12.75,5.22-1.77,1.27-9.91.69-12.74Z"/>
        <path class="cls-1" d="m701.41,1080.53c12.26,1.83,24.75.92,37.1-.17,21.99-1.93,43.93-4.39,65.8-7.38,7.73-1.06,15.49-2.18,22.97-4.42,20.45-6.11,38.2-20.75,48.09-39.67,2.54,4.48-1.07,9.83-1.81,14.93-1,6.83,3.27,13.16,5.54,19.68,2.04,5.89,2.47,12.2,2.87,18.43,1.43,21.98,2.8,44.52-3.52,65.62-5.77,19.26-17.7,36.23-31.88,50.49s-30.62,26.04-47.07,37.6c-5.13,3.6-10.33,7.23-16.17,9.5-17.55,6.82-38.21-.06-51.95-12.94s-21.66-30.74-27.5-48.63c-2.91-8.93-5.77-18.57-13.06-24.51-5.24-4.27-12.7-6.61-15.26-12.86-1.42-3.49-.93-7.42-.55-11.16,1.91-19-.36-37.59-5.31-55.95-2.44-9.05-2.62-13.42,6.41-7.75,7.73,4.86,16.28,7.84,25.3,9.19Z"/>
        <path class="cls-1" d="m734.34,1195.59c-9-9.04-17.99-18.09-26.99-27.13-3.5-3.52-7.16-7.33-8.13-12.2-1-5,.26-11.74-4.36-13.87-2.5-1.15-5.6-.09-8.1-1.25-1.66-.77-2.86-2.45-4.64-2.88-2.38-.58-4.76,1.45-5.51,3.78-.75,2.33-.33,4.86.01,7.28,4.68,33.47-7.76,67.14-6.34,100.9.69,16.34,4.62,32.36,8.53,48.24,1.54,6.25,3.08,12.51,4.62,18.76,1.71,6.97,3.59,14.25,8.4,19.57,7.02,7.76,18.51,9.46,28.97,9.28,10.65-.18,21.55-1.89,30.76-7.25,14.65-8.54,22.81-24.85,35.32-36.3,9.88-9.03,22.22-14.82,34.35-20.46,6.44-2.99,13.49-6.06,20.4-4.45,3.33.77,6.36,2.6,9.74,3.15,8.29,1.34,15.84-5.42,19.71-12.87s5.47-15.96,9.79-23.16c1.73-2.89,3.88-5.54,5.21-8.63,4.52-10.54-1.64-22.85.77-34.06,1.1-5.15,3.99-9.9,4.27-15.15.24-4.56-1.5-8.95-2.61-13.38-1.81-7.27-1.92-14.85-2.01-22.34-.32-25.1-.63-50.21-.95-75.31-.04-3.56-.09-7.14.52-10.65.52-2.97,1.5-5.84,2.03-8.81,1.83-10.28-2.29-21.4-10.36-28.01-10.77,11.49-24.57,19.65-38.47,27.05-17.74,9.44-35.98,17.89-54.22,26.33-5.6,2.59-11.2,5.19-16.8,7.78-4.1,1.9-8.58,3.85-13,2.86-4.41-.98-7.97-6.42-5.4-10.14-13.08,2.1-26.37,4.86-37.69,11.73s-20.47,18.62-20.93,31.86"/>
        <path class="cls-1" d="m736.12,1119.56c18.9-2.21,37.35-8.16,53.97-17.43,4.73-2.64,9.42-5.63,12.72-9.92,3.3-4.29,5.02-10.14,3.22-15.25-2.34-6.61-9.85-10.13-16.86-10.32-7-.19-13.78,2.18-20.59,3.86-27.88,6.9-57.24,2.34-85.28-3.89-4.37-.97-9.58-1.77-12.79,1.35-1.21,1.17-1.93,2.75-2.52,4.33-5.01,13.28-2.65,28.07-.18,42.04,4.82,27.34,9.82,54.65,14.99,81.93,1.01,5.35,2.98,11.75,8.29,12.98,2.66.62,5.42-.34,7.93-1.41,26.12-11.16,43.98-35.38,66.64-52.5,15.04-11.36,32.36-19.69,46.19-32.49,3.7-3.42,7.24-7.35,8.53-12.22,1.95-7.36-1.61-14.94-5.07-21.72-1.98-3.88-4.05-7.87-7.44-10.6-3.39-2.73-8.48-3.85-12.11-1.46"/>
        <path class="cls-1" d="m728.46,1335.78c-10.43-3.17-12.8-16.84-20.34-24.72-5.21-5.45-12.73-7.89-19.92-10.13-1.35-.42-2.74-.85-4.15-.76-3.98.24-6.66,4.47-6.95,8.45-.29,3.98,1.09,7.86,1.75,11.79.72,4.27.61,8.69,1.83,12.84,3.47,11.75,16.56,17.99,28.72,19.4,15.77,1.84,31.61-1.95,47.48-2.51,12.1-.43,24.18,1.01,36.28,1.35,24.92.7,49.96-3.31,73.41-11.76,3.58-1.29,7.38-2.89,9.31-6.17,1.34-2.27,1.56-5,1.75-7.62,2.23-30.65,4.1-61.32,5.61-92,.15-3.05.23-6.34-1.47-8.87-1.5-2.23-4.11-3.43-6.65-4.29-22.97-7.85-47.76,2.73-69.71,13.09-28.2,13.32-56.41,26.64-84.61,39.96-3.71,1.75-8.12,4.92-6.93,8.86"/>
        <path class="cls-1" d="m697.01,1347.29c-.11-.65-.82-.98-1.38-1.33-1.61-.99-2.48-2.83-3.85-4.13-.29-.27-.61-.53-.99-.63-.34-.09-.7-.06-1.05.02-1.85.43-3.21,2.11-3.77,3.92s-.47,3.76-.32,5.65c.02.29.05.59.22.82.16.22.41.34.66.44,1.61.66,3.36.87,5.09,1.06,1.15.13,2.3.26,3.45.39,1.65.19,3.29.38,4.95.45,2.35.11,4.71,0,7.06-.1,1.56-.07,3.13-.14,4.66-.48,1.33-.3,2.72-.88,3.36-2.08.55-1.03.41-2.34-.13-3.38s-1.44-1.85-2.4-2.53c-5-3.55-11.57-3.94-17.68-3.42-.3.03-.69.15-.69.45"/>
        <path class="cls-1" d="m780.1,1347.3c-7.72-2.7-16.05-3.15-24.23-2.87-3.24.11-6.5.34-9.62,1.22-2.38.67-4.63,1.72-6.87,2.75-1.95.9-3.9,1.81-5.85,2.71-.53.25-1.14.6-1.18,1.18-.06.84,1.02,1.21,1.86,1.3,15.87,1.62,31.89-.43,47.83.11,3.66.12,7.33.38,10.97-.03s7.29-1.55,10.09-3.91c.42-.35.84-.79.86-1.33.01-.33-.13-.65-.3-.95-1.51-2.67-4.57-4.01-7.51-4.9-2.27-.69-4.59-1.22-6.94-1.58-2.63-.41-5.55-.54-7.7,1.03"/>
        <path class="cls-1" d="m855.05,1338.75c-11.1-2.62-23.3-.12-32.47,6.65-.27.2-.54.4-.86.5-.66.21-1.36-.06-2.02-.24-2.07-.55-4.26-.15-6.37.26-3.19.62-6.38,1.27-9.57,1.92-2.52.51-5.1,1.04-7.32,2.36-.28.16-.57.38-.63.69-.09.51.45.88.92,1.08,3.83,1.64,8.12,1.69,12.29,1.69,8.31,0,16.62-.09,24.93-.17,10.42-.11,20.85-.22,31.27-.33,3.41-.04,6.93-.1,10.03-1.51s5.67-4.57,5.3-7.95c-.43-3.88-4.32-6.37-7.99-7.68-4.41-1.57-9.17-2.27-13.81-1.65s-9.14,2.61-12.47,5.9"/>
        <path class="cls-1" d="m876.27,1329.85c-.59-.17-1.22-.12-1.82.02-2.46.57-4.45,2.51-5.6,4.75-1.16,2.25-1.59,4.79-1.85,7.31-.2,1.91-.31,3.82-.67,5.7-.33,1.69-1,3.51-2.54,4.27,2.36.02,4.48,1.43,6.8,1.84.85.15,1.71.16,2.57.17,2.96.04,5.92.09,8.87.13.46-2.85-.37-5.74-.53-8.62-.11-2.06.12-4.12.08-6.18-.04-1.7-.26-3.39-.49-5.08-.17-1.28-.03-2.79-1.48-2.99-.59-.08-.99.06-1.56-.23-.65-.3-1.06-.87-1.78-1.09Z"/>
        <path class="cls-5" d="m556.68,886.64c16.2,34.95,43.06,64.87,76.07,84.74,2.57-3.7,5.14-7.41,7.71-11.11,8.47,10,16.93,20,25.4,30,2.14,2.53,4.36,5.21,5.05,8.46.88,4.14-.87,8.33-2.41,12.27-10.07,25.72-12.56,54.36-7.09,81.43,1.95,9.66,4.9,19.17,5.53,29.01,1.33,20.92-7.85,40.9-16.82,59.85-13.85,29.25-29,60.02-56.21,77.53-10.32,6.64-21.9,11.02-33.49,15.07-11.65,4.07-23.47,7.87-35.68,9.68-49.12,7.31-98.91-19.32-129.74-58.24-30.84-38.92-45.31-88.38-53.01-137.44-3.69-23.51-5.88-48.23,2.34-70.56,4.95-13.45,13.42-25.27,21.79-36.91,9.04-12.57,18.33-25.39,31.03-34.24,9.38-6.53,20.2-10.61,30.91-14.62,22.57-8.46,45.15-16.92,67.72-25.39,15.32-5.74,30.72-11.51,46.74-14.87"/>
        <path class="cls-5" d="m444.77,1245.63c-1.84-1.82-4.89-.1-6.76,1.68-15.52,14.8-25.37,35.4-27.14,56.77-.94,11.32-.25,24.2-8.3,32.22-1.46,1.46-3.19,2.71-4.18,4.53-.99,1.81-.91,4.46.85,5.54,1.41.88,3.23.41,4.87.14,3.74-.61,7.66.02,11.02,1.77,2.09,1.09,3.96,2.59,6.13,3.5,6.27,2.63,13.34-.13,19.74-2.41,27.29-9.72,56.78-10.64,85.4-15.11,22.46-3.51,44.57-9.27,65.89-17.15,10.31-3.81,20.57-8.2,29.22-14.98,20.49-16.08,28.97-43.23,31.53-69.15.63-6.33.96-12.82-.63-18.98-3.06-11.87-13.06-21.04-24.36-25.78s-23.83-5.61-36.09-5.54c-45.95.24-91.78,13.05-131.2,36.68"/>
        <path class="cls-5" d="m486.4,1327.78c-19.39,6.62-38.55,13.93-57.42,21.91-1.33.56-2.93,1.69-2.44,3.05,16.65,3.33,33.83,2.37,50.79,1.39,8.39-.48,16.79-.97,25.18-1.45,6.21-.36,12.42-.72,18.63-.94,21.28-.76,42.72.1,63.77-3.17s42.17-11.15,56.79-26.64c3.09-3.27,6.02-7.92,4.11-12-1.01-2.17-3.17-3.54-5.24-4.73-19.61-11.26-42.45-16.81-65.04-15.82"/>
        <path class="cls-5" d="m641.11,1333.32c-18.23-2.4-36.99-4.77-54.8-.21-13.85,3.54-26.58,11.17-40.74,13.09-6.64.9-13.4.52-20.08,1.15s-13.55,2.44-18.49,6.97c32.59,1.29,65.28.28,97.73-3.02,6.41-.65,12.83-1.39,19.26-1.18,7.04.23,14,1.59,21.02,2.12,9.19.7,18.89-.15,26.72-5.01,7.83-4.86,13.18-14.55,10.75-23.45-.36-1.32-.92-2.66-1.99-3.51-1.14-.91-2.66-1.13-4.11-1.29-16.87-1.85-34.19.56-49.92,6.94"/>
        <path class="cls-5" d="m670.42,1333.36c.45-.92-.86-1.66-1.86-1.85-11.57-2.2-23.21-4.4-34.99-4.72-11.78-.32-23.81,1.34-34.39,6.53-2.43,1.19-4.85,2.64-6.32,4.91-1.47,2.27-1.67,5.55.18,7.52,3.02,3.2,9.79,1.72,11.32,5.85-4.49-.16-8.97-.33-13.46-.49-2.45-.09-5.75.56-5.85,3,5.06,3.58,11.95,1.91,18.03.69,27.13-5.45,55.13,1.18,82.79.54,1.01-5.77-2.2-11.32-3.75-16.98-2.5-9.12-.67-19.06-3.52-28.07-.43-1.36-.97-2.7-1.12-4.11-.17-1.63.18-3.27.42-4.89,1.88-12.87-4.15-26.56-14.9-33.88-10.75-7.31-25.71-7.88-36.98-1.4-8.65,4.97-14.82,13.48-18.76,22.65s-5.86,19.04-7.76,28.83"/>
        <path class="cls-5" d="m651.32,1115.02c-1.36-1.57-3.94-1.52-5.71-.45s-2.93,2.91-3.96,4.71c-10.06,17.55-14.79,38.11-13.41,58.3,1.01,14.74,5.17,29.09,6.79,43.78.61,5.54.85,11.24-.7,16.6-1.88,6.46-6.35,12.83-4.52,19.31,1.99,7.04,10.72,10.82,11.97,18.02.42,2.44.04,5.34,1.86,7.02.87.8,2.07,1.12,3.22,1.38,8.4,1.92,17.13,2.38,25.69,1.35,1.69-3.1,2.08-6.71,2.43-10.22,3-30.89,4.19-61.95,3.54-92.98-.09-4.46-.23-8.94-1.15-13.3-.72-3.39-1.91-6.67-2.73-10.04-.88-3.59-1.34-7.27-1.79-10.94-1.46-11.71-2.92-23.43-4.38-35.14-.34-2.7-.67-5.41-.58-8.13.09-2.61.59-5.2.6-7.81.02-5.32-1.96-10.42-2.85-15.66-1.94-11.39.94-24.36-5.9-33.68-15.4,14.88-23.9,36.62-22.68,57.99.37,6.47,1.57,13.06,0,19.34-1.57,6.28-7.05,12.26-13.5,11.63"/>
        <path class="cls-5" d="m337.3,1107.54c-8.57.52-16.54,6-20.58,13.58-3.74,7.02-4.24,15.25-4.61,23.2-1.26,26.95-2,54.17,2.86,80.71,1.28,6.99,2.94,13.91,4.85,20.76,8.17,29.36,20.83,57.46,37.39,83.04,4.55,7.03,9.48,13.96,15.91,19.34s14.56,9.12,22.94,8.83c3.95-.14,7.82-1.15,11.58-2.35,31.87-10.12,58.24-33.34,78.26-60.12,7.13-9.53,13.63-19.69,17.6-30.91,9.15-25.81,4.15-54.29-1.94-80.98-1.36-5.95-2.8-11.97-5.69-17.35-3.46-6.44-8.83-11.62-14.18-16.6-7.53-7.01-15.38-13.98-24.78-18.15-9.73-4.31-20.57-5.37-30.73-8.54-5.38-1.68-10.56-3.95-15.97-5.52-13.13-3.81-28.44-4.29-42.01-2.94-5.64.56-9.01,2.94-14.13-.11-5.53-3.29-9.97-6.3-16.77-5.89Z"/>
        <path class="cls-5" d="m392.56,971.73c-3.44-4.14-6.88-8.28-10.32-12.41-6.26-7.53-12.6-15.13-20.49-20.93-6.16-4.53-14.19-7.93-21.35-5.25-3.29,1.23-6,3.62-8.63,5.96-2.17,1.93-4.39,3.93-5.62,6.55-1.82,3.87-1.19,8.38-1.19,12.67,0,5.71-1.2,11.34-2.18,16.96-3.51,20.04-4.39,40.45-4.61,60.8-.25,23.92.38,48.01-3.85,71.55-.84,4.67-1.87,9.41-1.24,14.11.75,5.57,3.78,10.58,7.27,14.98,2.04,2.56,4.48,5.11,7.69,5.76,3.57.72,7.12-1.1,10.26-2.95,5.32-3.14,10.48-6.54,15.45-10.2,5.02-3.69,9.87-7.66,13.99-12.33,4.64-5.28,8.27-11.37,11.44-17.64,9.47-18.73,15-39.16,20.48-59.42.78-2.89,1.57-5.83,1.45-8.82-.25-6.5-4.65-12.05-6.35-18.33-2.47-9.09.88-18.61,3.63-27.62.49-1.62.96-3.4.32-4.96-.39-.96-1.16-1.71-1.9-2.43-3.26-3.15-6.52-6.31-9.78-9.46-.12,1.48-.24,2.97-.35,4.45"/>
        <path class="cls-5" d="m326.59,935.44c-1.73,8.57-3.34,17.51-1.07,25.95.6,2.25,1.52,4.49,3.17,6.13,4.2,4.19,11.13,3.02,16.93,1.8,17.12-3.59,34.89-4.98,52.14-2.02,17.24,2.95,33.98,10.46,46.32,22.87,2.11,2.12,4.17,4.43,6.91,5.64,6.2,2.74,13.25-1.08,18.58-5.28,18.96-14.92,32.18-35.82,44.29-56.69,1.59-2.73,3.22-5.54,5.69-7.5,6.07-4.8,14.99-3.08,22.22-5.84,11.82-4.5,15.72-18.79,20.36-30.55,10.12-25.65,30.25-46.07,42.73-70.66,3.68-7.25,6.7-15.85,3.52-23.33-2.7-6.36-9.17-10.17-15.32-13.32-44.24-22.65-93.97-34.23-143.67-34.39-19-.06-38.73,1.73-55.19,11.23-19.72,11.38-24.53,31.92-32.8,51.46-10.46,24.73-17.33,51.58-24.01,77.53-4.01,15.55-7.61,31.22-10.8,46.97Z"/>
        <path class="cls-5" d="m447.85,711.4c-11.46-2.36-23.12,2.07-33.98,6.41-8.15,3.26-16.49,6.64-22.95,12.58-2.97,2.74-5.47,5.95-7.77,9.27-3.51,5.07-6.61,10.42-9.25,15.99-5.13,10.83-8.5,22.39-11.86,33.89-5.52,18.95-11.09,38.23-10.84,57.97.04,2.95,1.47,6.96,4.35,6.32,1.14-.25,1.95-1.23,2.67-2.15,13.95-17.97,25.48-37.99,41.82-53.81,9.54-9.24,22.27-17.29,35.32-14.83,8.19,1.55,15.01,6.97,22.37,10.89,8.95,4.76,18.87,7.34,28.69,9.88,7.17,1.85,14.55,3.72,21.89,2.79,8.76-1.11,16.63-6.09,25.33-7.6,13.92-2.43,27.62,4.21,41.51,6.87,8.23,1.58,16.72,1.75,25,.52,4.2-.63,8.98-2.13,10.49-6.1,1.14-3.01-.04-6.35-1.17-9.37-8.59-22.95-14.22-47.01-16.7-71.4-.37-3.67-.71-7.47-2.51-10.69-4.61-8.25-15.98-8.97-25.42-8.66-42.57,1.4-85.39,2.82-127.09,11.51-2.34.49-4.84,1.08-6.46,2.84-1.63,1.75-1.77,5.06.32,6.22"/>
        <path class="cls-5" d="m838.87,852.43c.37,3.06,2.27,5.68,3.98,8.24,18.67,28.05,19.13,63.85,23.91,97.2,1.15,8.02,2.63,16.14,6.39,23.32,3.87,7.37,9.93,13.32,15.89,19.14,9.11,8.89,18.22,17.78,27.32,26.66,4.11,4.01,8.32,8.09,13.53,10.51,9.45,4.39,21.55,2.2,28.86-5.22,10.41-10.57,9.68-27.45,8.25-42.22-1.61-16.67-3.23-33.34-4.84-50.01-5.16-53.38-10.18-108.39,5.44-159.7-7.76,6.66-15.52,13.32-23.28,19.97-10,8.58-20.38,17.38-32.96,21.33-14.31,4.5-75.79,3.15-72.49,30.78Z"/>
        <path class="cls-5" d="m919.37,1003.26c-8.21-6.68-16.69-13.02-25.4-19.02-4.12-2.83-9.14-5.71-13.83-3.99-6.46,2.37-7.14,11.11-6.55,17.97,4.04,47.44,14.01,94.28,16.84,141.81,1.06,17.87,1.12,35.87,4.26,53.5,3.13,17.63,9.63,35.16,21.86,48.24,9.24,9.88,21.28,16.73,33.65,22.22,44.62,19.82,96.19,23.44,143.18,10.24,6.47-1.82,13.01-4.03,18.27-8.22,5.23-4.18,8.82-10.04,12.01-15.92,16.41-30.28,24.91-64.12,33-97.6,2.6-10.79,5.2-21.68,5.45-32.77.24-10.5-1.61-20.95-1.68-31.45-.15-25.56,9.99-52.82-1.57-75.62-4.41-8.7-11.58-15.65-17.1-23.71-12.3-17.98-16.56-41.69-33.15-55.8-5.85-4.98-12.99-8.43-20.52-9.92-3.85-.76-8.06-.97-11.51.93-2.84,1.56-4.77,4.33-6.6,7-9.5,13.9-19.02,27.86-30.1,40.54-11.7,13.4-25.48,25.53-42.04,32.02-11.37,4.45-23.61,6.08-35.38,9.31-11.77,3.22-23.63,8.46-31.03,18.16"/>
        <path class="cls-5" d="m1041.97,836.39c-1.64,2.79-3.31,5.65-3.87,8.84-.6,3.41.11,6.91.82,10.3,4.6,21.93,9.21,43.86,13.81,65.8,1.41,6.7,2.84,13.47,5.77,19.65,4.99,10.54,14.4,18.9,25.45,22.62s23.6,2.77,33.95-2.59c4.15-2.15,8.01-4.98,12.51-6.23s10.06-.39,12.59,3.54c1.69,2.63,1.66,5.98,1.56,9.11-.34,11.18-.68,22.36-1.02,33.55-.1,3.34-.18,6.82,1.21,9.87,1.38,3.04,4.7,5.49,7.96,4.74,1.53-.36,2.83-1.35,4.05-2.34,14.22-11.58,24.93-27.41,30.4-44.91,1.99-6.37,3.3-12.94,5.27-19.32,4.03-13.01,10.83-25.21,13.07-38.64,3.13-18.8-2.99-37.78-9.06-55.85-2.27-6.76-4.75-13.84-10.04-18.63-2.11-1.91-4.57-3.36-7.05-4.76-10.33-5.84-21.13-10.85-32.24-15-10.47-3.91-21.72-6.07-31.76-11.05-13.33-6.6-39.84-24.63-50.42-7.79-8.01,12.77-15.31,26.07-22.96,39.09Z"/>
        <path class="cls-5" d="m1161.78,958.41c-11.23-11.9-29.43-16.68-45.07-11.84-15.63,4.84-27.94,19.08-30.48,35.25-.75,4.76-.69,9.73.85,14.3,2.61,7.76,9.24,13.6,16.53,17.31,6.07,3.09,13.25,4.95,19.7,2.76,5.98-2.03,10.35-7.17,13.73-12.51,7.63-12.05,11.78-26.29,11.82-40.55.02-6.92-1.45-14.76-7.28-18.51"/>
        <path class="cls-5" d="m1149.35,979.37c-.21-1.67-.43-3.34-.64-5.01-3.04,23.71-11.67,46.28-17.62,69.43s-9.14,48.06-1.34,70.65c2.72,7.89,6.73,15.34,8.82,23.42,2.39,9.24,2.14,19.15-.71,28.26-3.09,9.88-9.06,18.58-13.15,28.09-6.99,16.24-8.26,34.87-3.55,51.91,1.83,6.62,5.92,14.05,12.78,14.37,8.32.39,12.76-9.52,14.56-17.65,8.37-37.65,10.1-76.71,20.88-113.74,2.43-8.35,5.32-16.59,6.99-25.12,2.45-12.49,2.23-25.35,3.95-37.97,1.41-10.39,4.13-20.55,6.49-30.77,5.39-23.33,8.98-47.04,12.55-70.71,2.21-14.63,4.42-29.31,4.61-44.1.08-6.85-1.14-15.09-7.38-17.91-5.36-2.42-11.53.55-16.46,3.75-9.6,6.23-18.46,13.62-26.31,21.96-4.4,4.67-8.58,9.81-10.4,15.96s-.77,13.52,4.05,17.75"/>
        <path class="cls-5" d="m1001.11,1233.65c-43.03-10.96-78.49-47.52-88.13-90.86-1.64-7.35-4.45-16.68-11.96-17.22-5.06,5.4-8.27,12.34-10.11,19.5-1.79,6.98-2.35,14.2-2.91,21.39-1.3,16.83-2.6,33.67-3.91,50.5-.62,7.98-1.23,15.96-1.85,23.94-2.65,34.23-5.3,68.47-7.94,102.7-.19,2.45-.34,5.08.9,7.2,2.59,4.43,9.06,3.87,14.06,2.71,40.82-9.48,82.05-20.46,123.9-18.46,12.82.61,25.6,2.44,38.42,1.97,25.09-.93,49.04-10.62,71.29-22.25,3.84-2.01,7.7-4.11,10.87-7.06,8.69-8.1,10.72-20.88,12.25-32.66,1.55-11.94,2.98-24.71-2.4-35.48-7.67-15.37-26.52-21.42-43.65-22.77-23.81-1.87-48.08,2.47-69.76,12.48"/>
        <path class="cls-5" d="m1073.51,1318.43c-42.22,1.95-84.31,6.76-125.88,14.39-12.13,2.23-24.3,4.71-35.76,9.26-6.77,2.69-13.43,6.21-18.13,11.78,20.29.46,40.58.91,60.87,1.37,8.67.19,17.37.39,25.99-.51,6.2-.65,12.34-1.86,18.57-2.24,8.01-.49,16.04.42,24.07.42,14.15,0,28.14-2.83,41.89-6.15,15.75-3.8,31.35-8.28,46.72-13.4,2.87-.96,5.82-1.99,8.04-4.05s3.5-5.44,2.24-8.19c-.91-1.99-2.9-3.23-4.81-4.28-13.09-7.16-28.14-10.68-43.05-10.05-5.09.21-10.69,1.18-13.9,5.15"/>
        <path class="cls-5" d="m1055.16,1349.2c24.15,6.37,49.59,7.78,74.29,4.13,2.94-.44,5.98-.98,8.44-2.65,3.68-2.5,5.41-7.07,5.92-11.49.52-4.41.04-8.89.41-13.32.32-3.85,1.27-7.65,2.81-11.19.96-2.21,2.15-4.34,2.71-6.68,1.42-6-1.55-12.07-4.43-17.52-.91-1.73-1.9-3.54-3.56-4.57-3.65-2.26-8.31.29-11.71,2.91-7.4,5.71-14.25,12.12-20.44,19.12-4.67,5.28-8.6,13.95-14.25,18.09-5.59,4.1-14.76,3.42-21.2,6.48-7.71,3.67-14.46,9.44-18.99,16.69Z"/>
        <g>
          <path class="cls-2" d="m869.68,558.45c1.71,4.02,6.46,5.06,10.36,5.37,4.41.34,8.88.5,13.3.45,9.08-.1,18.33-1.48,26.24-6.2,3.37-2.01.3-7.3-3.08-5.28-6.75,4.02-14.57,5.2-22.32,5.35-4.08.08-8.16-.1-12.23-.32-1.78-.1-2.88-.11-4.46-.54-.85-.23-.94-.23-1.66-.69-.3-.21-.34-.23-.12-.08-.15-.14-.29-.28-.43-.43.26.33-.27-.59-.32-.72-.64-1.52-2.88-1.85-4.18-1.1-1.57.93-1.75,2.66-1.1,4.19h0Z"/>
          <path class="cls-2" d="m990.13,574.61c1.58,4.75,5.09,8.5,9.41,10.95,4.77,2.7,10.2,3.73,15.53,4.67,1.62.29,3.29-.44,3.76-2.13.41-1.48-.5-3.47-2.13-3.76-4.55-.8-9.34-1.55-13.47-3.73-1.82-.96-3.08-1.84-4.47-3.27-1.23-1.26-2.23-2.83-2.74-4.36-.52-1.57-2.11-2.59-3.76-2.13-1.53.42-2.66,2.19-2.13,3.76h0Z"/>
          <path class="cls-2" d="m873.13,585.78c-1.53,3.14-2.96,6.33-4.3,9.56-.63,1.52-1.24,3.05-1.83,4.59-.55,1.44-1.28,2.96-1.55,4.49-.36,2.06.31,4.25,2.3,5.22,1.66.81,3.76.73,5.29-.36,2.86-2.03,3.35-6.16,4.24-9.31,1.09-3.83,2.17-7.65,3.26-11.48.3-1.05-.02-2.21-.79-2.97-.84-.84-1.86-.96-2.97-.79-2.37.36-3.8,2.58-3.96,4.81-.11,1.6,1.49,3.12,3.05,3.05,1.75-.08,2.93-1.34,3.05-3.05-.02.31-.09.58-.3.81-.14.16-.81.35-.23.27l-3.76-3.76c-1.02,3.58-2.03,7.16-3.05,10.74-.49,1.73-.97,3.46-1.47,5.19-.08.28-.18.56-.25.84-.13.34-.13.37-.01.09-.08.18-.17.35-.27.51.21-.22.2-.21-.05.05.07-.05.14-.1.22-.15-.3.16-.27.15.08-.03.42-.03.46-.04.11-.03.58.09.86.25,1.18.74.27.3.35.65.23,1.06.04-.21.1-.41.16-.61.24-.8.56-1.58.85-2.36.59-1.6,1.21-3.19,1.85-4.77,1.23-3.03,2.67-6.2,4.17-9.29.7-1.43.44-3.37-1.1-4.18-1.34-.7-3.4-.41-4.15,1.12h0Z"/>
          <path class="cls-2" d="m1003.58,601.06c-.68-1.63-1.81-3.04-3.66-3.35-1.75-.3-3.12.46-3.76,2.13-1.72,4.49-3.3,9.04-4.74,13.63-.72,2.29-1.41,4.6-2.06,6.92-.36,1.28-.81,2.61-.5,3.96.3,1.26,1.16,2.3,2.35,2.78,5.07,2.06,7.71-5,9.02-8.48,1.59-4.25,2.39-8.8,2.48-13.34.08-3.93-6.03-3.93-6.11,0-.07,3.33-.6,6.58-1.59,9.76-.5,1.59-1.1,3.14-1.84,4.64-.18.37-.37.74-.57,1.1.04-.07-.57.93-.25.45-.27.25-.3.28-.08.1-.08.05-.17.1-.25.15,1.11-.62,2.04.1,2.77,2.15.04-.19.09-.37.15-.56,1.97-7.33,4.4-14.54,7.1-21.63-1.25.71-2.51,1.42-3.76,2.13.39.1.39.06,0-.13-.34-.14-.54-.4-.6-.78.63,1.52,2.02,2.61,3.76,2.13,1.44-.4,2.78-2.23,2.14-3.76h0Z"/>
          <path class="cls-2" d="m950.51,614.41c-.88,10.9-.37,21.85,1.41,32.63.88,5.33,2.09,10.6,3.62,15.77.79,2.66,1.66,5.3,2.62,7.9.3.82.97,1.86.71,2.72-.38,1.23-1.21,2.46-1.79,3.62-2.95,5.91-5.9,11.83-8.85,17.74-.74,1.48-.39,3.31,1.1,4.18,1.35.79,3.44.39,4.18-1.1,2.66-5.32,5.31-10.65,7.96-15.97.63-1.26,1.25-2.51,1.88-3.77.75-1.51,1.63-3.04,1.71-4.77.06-1.44-.44-2.74-.92-4.06-.51-1.37-.99-2.76-1.46-4.15-3.44-10.35-5.57-21.14-6.25-32.03-.39-6.24-.32-12.49.18-18.72.13-1.65-1.5-3.05-3.05-3.05-1.76,0-2.91,1.4-3.05,3.06h0Z"/>
          <path class="cls-2" d="m926.95,691.22c4.07.38,8.3-.23,12.08-1.79.77-.32,1.39-.66,1.83-1.4.38-.65.55-1.62.31-2.35-.24-.74-.7-1.45-1.4-1.83-.68-.36-1.61-.61-2.35-.31-1.74.72-3.56,1.23-5.43,1.52-.8.12.53-.05-.1.01-.2.02-.41.04-.61.06-.48.04-.96.07-1.44.08-.96.02-1.92-.01-2.87-.1-1.6-.15-3.12,1.51-3.05,3.05.06,1.79,1.32,2.9,3.03,3.06h0Z"/>
          <path class="cls-2" d="m878.62,730.66c8.19-4.93,17.5-8,27.03-8.8,4.67-.39,9.43-.33,14.08.33,4.03.57,8.12,1.38,11.35,3.72.46.34,1.43,1.28,1.74,1.72.73,1.05.75,1.61,1.32,2.69.87,1.64,2.69,2.67,4.55,2.16,2.09-.57,2.92-2.46,2.62-4.46-.25-1.63-2.3-2.53-3.76-2.13-1.75.48-2.38,2.12-2.13,3.76.01.08.02.15.03.23.1-.78.21-1.57.31-2.35.19-.21.39-.41.58-.62.51-.14,1.03-.28,1.54-.42,2.28-.21,1.89,2.01,1.61.89-.09-.35-.29-.72-.43-1.05-.18-.41-.37-.82-.6-1.21-.55-.93-1.25-1.82-2.01-2.59-1.42-1.44-3.17-2.59-5-3.43-4.12-1.89-8.55-2.67-13.02-3.17-9.43-1.06-19.17-.03-28.21,2.84-5.13,1.63-10.08,3.86-14.69,6.63-3.36,2.01-.29,7.3,3.09,5.26h0Z"/>
          <path class="cls-2" d="m789.48,557.27c-2.42,18.18-4.48,36.39-5.94,54.68-1.44,18.15-2.36,36.34-2.76,54.54-.4,18.29-.27,36.6.38,54.88.65,18.19,1.82,36.37,3.52,54.5,1.71,18.31,3.96,36.57,6.71,54.75.34,2.25.69,4.5,1.05,6.75.26,1.63,2.29,2.54,3.76,2.13,1.74-.48,2.39-2.12,2.13-3.76-5.7-35.87-9.3-72.07-10.83-108.36-1.53-36.38-.98-72.85,1.67-109.16,1.49-20.38,3.71-40.69,6.42-60.94.22-1.64-1.56-3.05-3.05-3.05-1.84,0-2.84,1.4-3.06,3.04h0Z"/>
          <path class="cls-2" d="m724.72,576.7c.71-.06.24,0,.13-.04-.35-.12-.14-.14-.14,0,0,.01.41.55.54.79.56,1.03.93,2.16,1.25,3.28.62,2.19.88,4.42.8,6.7-.15,4.64-1.93,8.71-4.45,12.52-2.49,3.76-5.46,7.26-7.4,11.36-2.28,4.79-2.83,9.87-2.17,15.11.75,5.93,2.65,11.7,2.93,17.69.08,1.65,1.35,3.05,3.05,3.05,1.59,0,3.13-1.4,3.05-3.05-.27-5.76-1.9-11.3-2.82-16.96-.79-4.94-.47-9.74,1.91-14.11,2.29-4.22,5.51-7.84,7.95-11.97,2.81-4.75,4.32-10.2,4.02-15.74-.16-3.01-.76-6.01-1.9-8.8-1.17-2.87-3.16-6.21-6.76-5.93-1.64.13-3.05,1.31-3.05,3.05.01,1.55,1.41,3.18,3.06,3.05h0Z"/>
          <path class="cls-2" d="m753.81,573.17c-5.88-12.45-15.59-23.54-28.81-28.27-6.71-2.4-14.16-2.98-21.11-1.32-6.48,1.55-12.33,5.25-16.78,10.17-9.86,10.89-12.73,25.72-12.33,40.01.23,8.09,1.22,16.2,2.47,24.19,1.2,7.67,2.99,15.25,6.1,22.39,2.75,6.32,6.84,12.17,12.59,16.08,5.56,3.78,13.16,5.32,19.64,3.21,1.62-.53,3.18-1.26,4.6-2.21,1.37-.92,1.97-2.69,1.1-4.18-.79-1.36-2.8-2.02-4.18-1.1-4.58,3.08-10.5,2.95-15.42.54-5.38-2.63-9.12-7.49-11.78-12.73-3.12-6.13-4.83-12.95-6.08-19.67-1.33-7.18-2.2-14.49-2.69-21.77-.88-13.02.22-26.54,7.89-37.43,3.06-4.35,7.3-8.11,12.25-10.24,5.63-2.42,12.06-2.65,17.98-1.27,13.75,3.2,23.48,14.36,29.3,26.68.7,1.49,2.84,1.88,4.18,1.1,1.52-.89,1.79-2.68,1.08-4.18h0Z"/>
          <path class="cls-2" d="m749.06,585.61c-.37,17.11-.12,34.23.77,51.33.89,17.09,2.4,34.15,4.53,51.13,2.15,17.09,4.89,34.11,8.27,51,3.36,16.78,7.33,33.44,11.9,49.94,4.58,16.49,9.76,32.82,15.53,48.93.71,1.98,1.43,3.95,2.15,5.92.57,1.55,2.07,2.6,3.76,2.13,1.49-.41,2.71-2.2,2.13-3.76-5.89-15.98-11.2-32.18-15.91-48.55-4.71-16.37-8.81-32.91-12.32-49.59-3.5-16.67-6.41-33.47-8.68-50.35-2.27-16.85-3.9-33.79-4.93-50.76-1.03-17-1.44-34.04-1.22-51.08.03-2.1.06-4.2.11-6.3.11-3.92-6-3.92-6.09,0h0Z"/>
          <path class="cls-2" d="m722.04,701.84c7.15,22.13,20,41.71,33.87,60.16,3.99,5.31,8.07,10.55,12.16,15.79,1.02,1.3,3.25,1.07,4.32,0,1.29-1.29,1.02-3.01,0-4.32-13.76-17.65-27.61-35.55-37.41-55.78-2.74-5.66-5.11-11.49-7.04-17.47-1.22-3.73-7.12-2.14-5.9,1.62h0Z"/>
          <path class="cls-2" d="m789.29,789.44c8.02,21.39,28.71,34.67,50.34,39.29,12.39,2.65,25.17,2.93,37.78,2.1,6.69-.44,13.41-1.25,19.86-3.16,6.2-1.83,12.16-4.48,17.93-7.36,21.29-10.61,39.96-25.8,54.34-44.76,7.75-10.22,14.6-21.17,21.26-32.12,6.52-10.72,12.71-21.65,18.55-32.76,11.88-22.58,22.32-45.92,31.28-69.81,1.07-2.87,2.13-5.74,3.16-8.62.56-1.55-.63-3.34-2.13-3.76-1.69-.47-3.2.57-3.76,2.13-8.33,23.24-18.08,45.95-29.2,67.99-11.12,22.02-23.52,43.48-37.35,63.92-6.72,9.92-14.12,19.25-22.88,27.45-8.17,7.66-17.23,14.31-26.9,19.95-10.26,5.99-21.3,11.42-33.08,13.54-6.15,1.11-12.45,1.44-18.68,1.61-6.19.17-12.39.01-18.55-.64-20.84-2.2-42.28-11.41-53.04-30.21-1.21-2.11-2.21-4.21-3.03-6.4-.58-1.54-2.06-2.6-3.76-2.13-1.49.4-2.73,2.2-2.14,3.75h0Z"/>
          <path class="cls-2" d="m792.63,584.32c25.83-6.09,51.03-14.74,75.17-25.76,6.14-2.8,12.2-5.79,18.35-8.58,6.01-2.73,12.13-5.12,18.34-7.36,6.32-2.28,12.67-4.55,18.75-7.43,5.88-2.79,11.46-6.16,16.91-9.71,13.01-8.45,25.8-17.25,38.68-25.89,1.37-.92,1.97-2.69,1.1-4.18-.79-1.36-2.8-2.02-4.18-1.1-11.47,7.69-22.92,15.41-34.41,23.07-5.41,3.61-10.88,7.15-16.62,10.22-5.73,3.06-11.74,5.45-17.84,7.67-6.21,2.26-12.42,4.47-18.5,7.08-6.22,2.66-12.3,5.62-18.42,8.5-11.89,5.6-24.03,10.64-36.41,15.05-13.93,4.96-28.14,9.13-42.53,12.52-1.61.38-2.56,2.21-2.13,3.76.43,1.65,2.13,2.52,3.74,2.14h0Z"/>
          <path class="cls-2" d="m978.71,502.85c.85,18.29,6.27,35.94,13.99,52.45,7.85,16.77,18.1,32.27,28.6,47.47,6.16,8.92,12.37,17.8,18.56,26.7.94,1.35,2.68,1.98,4.18,1.1,1.34-.78,2.04-2.82,1.1-4.18-10.65-15.32-21.61-30.49-31.6-46.26-9.58-15.13-18.15-31.04-23.44-48.22-2.91-9.45-4.81-19.18-5.28-29.07-.08-1.65-1.35-3.05-3.05-3.05-1.6,0-3.14,1.4-3.06,3.06h0Z"/>
          <path class="cls-2" d="m640.86,610.34c-.3-11.2-.6-22.4-.91-33.59-.07-2.72-.27-5.47-.16-8.19.07-1.88.99-3.12,2.37-4.14,1.89-1.4,4.04-2.47,6.05-3.68,2.2-1.32,4.39-2.67,6.56-4.05,8.71-5.53,17.12-11.5,25.24-17.86,4.05-3.17,8.01-6.43,11.9-9.8,1.94-1.68,3.86-3.39,5.76-5.12.73-.66,1.43-1.39,2.28-1.9.18-.11.61-.35.63-.36.06-.02.58-.08.25-.03.31.1.36.11.17.03-.19-.09-.15-.06.13.09,0-.01-.44-.54.01.03.34.44-.06-.17.12.14.1.17.19.33.28.5.13.25-.04-.26.08.24.32,1.24.38,1.4.38,2.6-.01,2.35-.47,4.74-1.03,7.01-1.28,5.21-3.57,10.03-6.73,14.37-.97,1.34-.23,3.41,1.1,4.18,1.54.9,3.21.24,4.18-1.1,3.15-4.33,5.51-9.24,6.97-14.39.73-2.58,1.19-5.22,1.48-7.89.22-2.13.23-4.35-.44-6.4-.75-2.31-2.26-4.39-4.66-5.16-2.97-.95-5.69.46-7.93,2.32-4.2,3.49-8.14,7.3-12.35,10.79-8.41,6.98-17.2,13.48-26.32,19.49-4.6,3.04-9.29,5.95-14.05,8.74-2.07,1.21-4.24,2.46-5.84,4.28-2.04,2.34-2.72,5.15-2.71,8.21.03,6.71.35,13.44.53,20.15.18,6.83.37,13.67.55,20.5.11,3.92,6.22,3.93,6.11-.01h0Z"/>
          <path class="cls-2" d="m673.02,572.91c-6.86,22.65-8.49,46.68-4.83,70.05,3.65,23.34,12.51,45.43,17.5,68.47,5.05,23.35,6.12,47.43,4.39,71.23-1.74,23.79-6.38,47.28-12.78,70.24-6.39,22.94-14.51,45.35-23.38,67.44-1.09,2.71-2.19,5.41-3.29,8.11-.63,1.53.68,3.36,2.13,3.76,1.75.48,3.13-.6,3.76-2.13,9.03-22.02,17.44-44.33,24.24-67.15,6.83-22.91,11.98-46.34,14.51-70.13,2.53-23.85,2.3-47.99-1.56-71.69-3.81-23.4-12.41-45.56-17.52-68.65-5.08-22.94-5.15-46.72.42-69.59.68-2.8,1.45-5.58,2.29-8.34,1.15-3.77-4.74-5.38-5.88-1.62h0Z"/>
          <path class="cls-2" d="m609.88,799.7c5.73,7.22,14.63,11.55,23.79,12,1.65.08,3.05-1.46,3.05-3.05,0-1.72-1.4-2.97-3.05-3.05-1.95-.1-3.32-.3-5.37-.85-2.05-.55-3.5-1.11-5.25-2.03-3.57-1.86-6.3-4.12-8.85-7.33-1.03-1.29-3.25-1.07-4.32,0-1.28,1.27-1.03,3.02,0,4.31h0Z"/>
          <path class="cls-2" d="m566.46,890.07c14.99-21.27,27.96-43.95,38.67-67.67,3.07-6.81,5.97-13.7,8.68-20.66.6-1.54-.66-3.35-2.13-3.76-1.73-.48-3.16.59-3.76,2.13-9.33,23.93-20.96,46.95-34.62,68.69-3.87,6.17-7.92,12.23-12.11,18.18-.95,1.35-.24,3.4,1.1,4.18,1.52.9,3.22.27,4.17-1.09h0Z"/>
          <path class="cls-2" d="m637.05,972.79c2.78-7.38,5.57-14.76,8.35-22.14,1.27-3.36,2.52-6.73,4.16-9.93,1.69-3.31,3.7-6.45,5.7-9.58.89-1.39.29-3.37-1.1-4.18-1.48-.86-3.29-.3-4.18,1.1-2.04,3.2-4.09,6.4-5.81,9.79-1.75,3.46-3.13,7.1-4.5,10.72-2.84,7.53-5.68,15.07-8.53,22.6-.58,1.54.65,3.35,2.13,3.76,1.73.46,3.19-.59,3.78-2.14h0Z"/>
          <path class="cls-2" d="m658.94,920.55c8.8,4.59,17.62,9.17,26.51,13.59,2.16,1.07,4.35,2.1,6.61,2.93,2.14.79,4.39,1.25,6.55,1.98,2,.68,3.76,1.86,5.49,3.05,1.54,1.06,3.24,2.12,4.36,3.66,1.37,1.88,2.01,4.3,2.81,6.45,1,2.68,1.99,5.37,2.99,8.05.57,1.55,2.07,2.6,3.76,2.13,1.49-.41,2.71-2.2,2.13-3.76-.91-2.45-1.82-4.91-2.73-7.36-.86-2.32-1.64-4.71-2.72-6.94-2.04-4.19-6.35-7.04-10.28-9.31-4.1-2.37-8.89-2.91-13.17-4.87-4.61-2.11-9.1-4.53-13.61-6.83-5.21-2.66-10.41-5.35-15.6-8.05-1.46-.76-3.32-.38-4.18,1.1-.82,1.38-.39,3.42,1.08,4.18h0Z"/>
          <path class="cls-2" d="m798,959.62c2.58-10.59,10.02-19.01,18.26-25.8,9.6-7.91,20.6-13.93,30.12-21.96,2.74-2.31,5.57-4.73,8.02-7.35.85-.9,1.38-1.9,1.34-3.16-.05-1.39-1.01-2.71-2.38-3.09-2.47-.68-5,1.5-4.24,4.09,1.11,3.76,7.01,2.16,5.89-1.62-.02-.05-.03-.11-.05-.16-.26.99-.52,1.98-.79,2.97.04-.04.08-.09.11-.13-.45.26-.9.52-1.35.79-.13.02-.27.04-.4.07-.72-.3-1.44-.6-2.16-.89.05.05.09.1.14.15-.3-.72-.6-1.44-.89-2.16,0,.12.01.24.01.36.14-.51.28-1.03.42-1.54-.5.92-1.93,1.88-2.73,2.63-1.15,1.08-2.31,2.16-3.5,3.2-2.08,1.85-4.25,3.6-6.48,5.26-4.6,3.43-9.39,6.58-14.11,9.84-8.81,6.08-17.33,12.63-23.72,21.34-3.42,4.65-6.04,9.93-7.42,15.55-.91,3.81,4.98,5.44,5.91,1.61h0Z"/>
          <path class="cls-2" d="m856.89,828.16c-13.06,12.89-24.91,26.99-35.37,42.06-2.88,4.15-5.72,8.82-5.31,14.08.13,1.64,1.31,3.05,3.05,3.05,1.55,0,3.18-1.4,3.05-3.05-.32-4.02,2.02-7.45,4.21-10.62,2.46-3.56,5.01-7.07,7.63-10.52,5.22-6.87,10.78-13.49,16.61-19.85,3.39-3.7,6.87-7.31,10.44-10.83,2.81-2.76-1.51-7.08-4.31-4.32h0Z"/>
          <path class="cls-2" d="m610.74,596.24c-2.26-7.79-3.29-15.93-2.82-24.04.1-1.72.31-3.51,1-5.11.66-1.52,1.73-2.78,2.87-3.96,2.88-2.95,6.03-5.66,9.05-8.45,6.4-5.93,12.81-11.85,19.21-17.78,2.86-2.65,5.62-5.55,8.73-7.9,2.75-2.07,5.92-3.17,9.35-3.36,4.01-.22,7.98.42,11.9,1.17,4.84.92,9.67,1.88,14.51,2.82,1.62.31,3.3-.46,3.76-2.13.41-1.5-.51-3.44-2.13-3.76-4.56-.89-9.12-1.77-13.68-2.66-3.97-.77-7.99-1.5-12.04-1.58-4.09-.08-8.17.6-11.85,2.43-3.8,1.89-6.86,5.09-9.94,7.94-6.71,6.21-13.41,12.42-20.12,18.62-3.34,3.09-6.72,6.14-10.01,9.28-3.06,2.92-5.51,6.26-6.26,10.5-.85,4.79-.67,9.85-.22,14.68.47,5.05,1.4,10.04,2.81,14.9,1.08,3.79,6.98,2.18,5.88-1.61h0Z"/>
          <path class="cls-2" d="m585.17,595.81c.32-4.05.39-8.11.18-12.16-.21-4.04-.99-8.04-1.1-12.08-.18-6.66,3.6-12.06,8.15-16.68,5.21-5.29,11.06-10.06,16.93-14.59,5.93-4.57,12.09-9.17,18.66-12.78,2.96-1.63,6.14-3.06,9.3-2.8.99.08-.45-.14.5.08.13.03,1.15.36.8.21.79.35.86.45,1.45,1.09,1.45,1.59,3.39,3.26,5.71,2.32,1.53-.62,2.61-2.04,2.13-3.76-.4-1.45-2.22-2.75-3.76-2.13.54-.22,1.52.81.96.08-.22-.29-.49-.56-.73-.83-.61-.68-1.34-1.28-2.12-1.75-1.5-.9-3.23-1.3-4.96-1.43-3.48-.27-6.89.94-9.98,2.4-3.55,1.68-6.83,3.87-10.07,6.07-3.25,2.21-6.45,4.5-9.59,6.87-6.33,4.79-12.56,9.82-18.27,15.33-5.05,4.87-9.91,10.84-10.95,18-.7,4.76.3,9.43.67,14.18.37,4.78.35,9.57-.04,14.35-.13,1.65,1.5,3.05,3.05,3.05,1.79.02,2.95-1.39,3.08-3.04h0Z"/>
          <path class="cls-2" d="m577.65,556.45c-6.89,3.92-13.5,8.47-17.55,15.47-3.78,6.53-5.21,14.17-5.4,21.63-.21,8.09,1.01,16.24,2.67,24.13,1.77,8.39,4.23,16.62,6.82,24.79,2.93,9.23,6.05,18.41,8.61,27.76,1.04,3.79,6.93,2.18,5.89-1.62-4.38-15.98-10.4-31.48-14.31-47.59-1.85-7.63-3.28-15.43-3.56-23.29-.23-6.65.35-13.53,2.98-19.64,1.53-3.56,3.74-6.68,6.59-9.31,3.08-2.84,6.71-4.99,10.34-7.06,3.42-1.94.35-7.22-3.08-5.27h0Z"/>
          <path class="cls-2" d="m572.7,674.04c4.61,16.7,9.23,33.4,13.84,50.11,4.6,16.64,9.17,33.3,13.79,49.93,2.53,9.09,5.24,18.11,8.92,26.82.64,1.52,2.89,1.85,4.18,1.1,1.57-.92,1.74-2.65,1.1-4.18-3.12-7.4-5.43-15.13-7.6-22.85-2.32-8.24-4.57-16.49-6.84-24.74-4.57-16.54-9.14-33.08-13.71-49.62-2.6-9.4-5.19-18.79-7.79-28.19-1.04-3.79-6.94-2.18-5.89,1.62h0Z"/>
          <path class="cls-2" d="m683.77,682.17c.17-.26.34-.52.51-.78,1.23,1.6,2.47,3.2,3.7,4.8,11.7-9.6,22.71-20.01,32.96-31.14,2.66-2.89-1.65-7.22-4.32-4.32-10.25,11.13-21.26,21.54-32.96,31.14-1.16.95-1.11,2.92-.24,4.01.93,1.17,2.61,1.58,3.94.79,1.19-.71,1.79-1.6,2.29-2.87.61-1.53-.67-3.35-2.13-3.76-1.73-.48-3.14.59-3.75,2.13h0Z"/>
          <path class="cls-2" d="m842.44,620.98c-1.76,1.47-3.53,2.94-5.29,4.42-.57.48-.89,1.45-.89,2.16,0,.75.33,1.64.89,2.16.58.53,1.35.93,2.16.89.27-.04.54-.07.81-.11.52-.15.97-.41,1.35-.79,1.76-1.47,3.53-2.94,5.29-4.42.57-.48.89-1.45.89-2.16,0-.75-.33-1.64-.89-2.16-.58-.53-1.35-.93-2.16-.89-.27.04-.54.07-.81.11-.52.15-.97.42-1.35.79h0Z"/>
          <path class="cls-2" d="m808.94,655.61c-2.49,3.24-4.97,6.49-7.46,9.73-.45.58-.49,1.68-.31,2.35.2.71.74,1.48,1.4,1.83.71.37,1.57.56,2.35.31.81-.26,1.31-.74,1.83-1.4,2.49-3.24,4.97-6.49,7.46-9.73.45-.58.49-1.68.31-2.35-.2-.71-.74-1.48-1.4-1.83-.71-.37-1.57-.56-2.35-.31-.81.26-1.32.73-1.83,1.4h0Z"/>
          <path class="cls-2" d="m1001.59,635.96c.38,5.73.27,11.49-.34,17.2-.17,1.59,1.53,3.12,3.05,3.05,1.8-.08,2.87-1.35,3.05-3.05.61-5.71.72-11.47.34-17.2-.11-1.59-1.33-3.13-3.05-3.05-1.56.06-3.17,1.34-3.05,3.05h0Z"/>
          <path class="cls-2" d="m1001.28,679.23c-.49,3.05-1.15,6.08-2,9.05-.42,1.46-.88,2.91-1.38,4.34-.26.74-.53,1.48-.82,2.21-.12.31-.25.63-.37.94-.08.21-.17.42-.26.62-.14.35-.17.42-.09.2-.63,1.47-.49,3.34,1.1,4.18,1.31.69,3.51.47,4.18-1.1,2.59-6.06,4.49-12.32,5.54-18.83.25-1.57-.4-3.36-2.13-3.76-1.48-.31-3.5.47-3.77,2.15h0Z"/>
          <path class="cls-2" d="m691.88,408.61c-11.75-7.32-26.48-5.59-38.42.25-6,2.93-11.45,6.89-16.56,11.16-4.82,4.02-9.31,8.44-13.46,13.16-17.61,20.04-28.88,44.7-36.42,70.1-4.65,15.66-7.95,31.68-10.93,47.73-.3,1.62.45,3.29,2.13,3.76,1.49.41,3.46-.5,3.76-2.13,5-26.99,10.93-54.26,22.71-79.22,5.2-11.03,11.48-21.67,19.12-31.2,7.56-9.45,16.46-18.24,26.73-24.71,11.26-7.09,26.15-11.15,38.26-3.61,3.34,2.07,6.41-3.22,3.08-5.29h0Z"/>
          <path class="cls-2" d="m681.92,520.94c-5.44-16.97-5.43-35.07-2.82-52.56,2.4-16.1,6.43-32.16,11.86-47.5,4.8-13.58,11.11-26.87,19.96-38.31,4.4-5.69,9.49-10.93,15.17-15.35,6.52-5.08,13.94-8.97,21.57-12.09,16.49-6.73,33.89-11.59,51.29-15.27,17.51-3.7,35.3-5.97,53.18-6.83,18.03-.86,36.14-.28,54.07,1.76,17.01,1.94,34.02,5.1,50.25,10.63,29,9.87,56.9,29.42,67.92,59.13,1.25,3.37,2.25,6.82,3.02,10.33.84,3.84,6.73,2.21,5.89-1.62-6.93-31.58-32.51-55.45-61.18-68.22-16.22-7.22-33.52-11.56-51.02-14.33-18.27-2.89-36.77-4.28-55.27-4.15-37.01.26-74.05,6.54-109.03,18.67-8.66,3-17.29,6.35-25.23,10.97-6.63,3.86-12.73,8.67-18.09,14.15-10.67,10.92-18.41,24.3-24.31,38.29-6.21,14.74-10.54,30.28-13.78,45.92-3.73,18.02-5.61,36.65-2.55,54.91.74,4.44,1.81,8.8,3.19,13.09,1.21,3.74,7.11,2.14,5.91-1.62h0Z"/>
          <path class="cls-2" d="m1041.27,413.7c10.06,4.08,18.18,12.27,23.76,21.54,6.57,10.91,9.76,23.55,11.35,36.09,1.64,12.9,2.06,25.98,2.89,38.96.57,8.84,1.15,17.68,1.55,26.53.4,8.78.58,17.57.58,26.36,0,3.93,6.11,3.94,6.11,0,0-16.83-.9-33.61-1.97-50.4-.84-13.04-1.29-26.18-2.77-39.16-1.55-13.53-4.5-27.1-11.12-39.13-6.46-11.73-16.23-21.6-28.75-26.67-1.53-.62-3.36.67-3.76,2.13-.49,1.74.59,3.13,2.13,3.75h0Z"/>
          <path class="cls-2" d="m662.34,1064.53c12.57,7.37,27.01,10.29,41.4,11.33,15.2,1.1,30.56.47,45.78.18,16.58-.32,33.16-.89,49.67-2.4,7.59-.69,15.27-1.56,22.57-3.83,7.34-2.28,13.68-6.15,19.72-10.82,2.83-2.19,5.59-4.48,8.44-6.64,2.99-2.27,6.12-4.34,9.25-6.41,6.33-4.18,12.48-8.58,17.18-14.62,1.2-1.55,2.34-3.13,3.37-4.8,2.08-3.35-3.2-6.42-5.28-3.08-3.84,6.18-9.07,10.93-15.04,15.01-2.93,2-5.93,3.89-8.85,5.91-3.09,2.14-6.04,4.48-8.97,6.82-5.37,4.28-10.86,8.64-17.27,11.25-6.63,2.7-13.79,3.92-20.87,4.68-16.09,1.73-32.31,2.33-48.47,2.7-15.05.34-30.19.87-45.23.27-15.3-.62-30.91-2.97-44.31-10.83-3.4-1.99-6.48,3.29-3.09,5.28h0Z"/>
          <path class="cls-2" d="m555.4,881.57c1.36,10.31,6.01,19.55,12.02,27.92,6.43,8.95,13.88,17.21,21.19,25.44,7.63,8.59,15.43,17.04,23.47,25.25,7.72,7.88,15.94,15.34,25.44,21.03,10.1,6.05,21.35,10.24,32.96,12.25,3.05.53,5.01-2.7,2.97-5.11-10.36-12.24-20.72-24.47-31.08-36.71-1.07-1.26-3.22-1.1-4.32,0-1.25,1.25-1.07,3.06,0,4.32,10.36,12.24,20.72,24.47,31.08,36.71.99-1.7,1.98-3.4,2.97-5.11-9.9-1.72-19.49-4.99-28.31-9.81-9.16-5.01-17.08-11.64-24.47-18.96-7.94-7.87-15.53-16.11-23.01-24.42-7.2-7.99-14.44-16.03-21.04-24.52-6.4-8.25-12.36-17.73-13.76-28.29-.22-1.64-1.25-3.05-3.05-3.05-1.49,0-3.27,1.41-3.06,3.06h0Z"/>
          <path class="cls-2" d="m370.47,1256.84c2.24-20.25,4.52-40.59,9.7-60.34,4.53-17.24,11.39-33.94,21.86-48.47,5.52-7.66,12.14-14.68,19.69-20.38,1.31-.99,2-2.64,1.1-4.18-.76-1.29-2.85-2.1-4.18-1.1-14.48,10.93-25.49,25.68-33.31,41.97-8.58,17.89-13.33,37.25-16.43,56.77-1.88,11.86-3.21,23.79-4.53,35.72-.18,1.64,1.53,3.05,3.05,3.05,1.8.01,2.87-1.39,3.05-3.04h0Z"/>
          <path class="cls-2" d="m349.02,1191.47c6.54-18.38,18.01-34.9,32.76-47.68,4.12-3.57,8.51-6.81,13.12-9.73,1.39-.88,1.95-2.72,1.1-4.18-.81-1.39-2.78-1.98-4.18-1.1-17.41,11.05-31.87,26.64-41.55,44.85-2.77,5.21-5.15,10.65-7.13,16.21-.55,1.55.63,3.34,2.13,3.76,1.69.47,3.2-.57,3.75-2.13h0Z"/>
          <path class="cls-2" d="m427.34,1123.98c13.06-12.19,23.66-26.73,33.18-41.77,10.05-15.88,19.28-32.31,27.79-49.06,8.48-16.69,16.08-33.78,23.24-51.08,6.73-16.27,13.21-32.66,20.52-48.68,7.31-16.01,15.48-31.7,25.44-46.24,1.24-1.81,2.51-3.61,3.81-5.38.97-1.33.23-3.41-1.1-4.18-1.55-.9-3.2-.24-4.18,1.1-10.35,14.18-18.86,29.6-26.37,45.44-7.64,16.12-14.3,32.68-21.07,49.18-6.89,16.8-14.04,33.48-22.07,49.78-8.39,17.02-17.54,33.67-27.44,49.86-9.14,14.95-19.04,29.56-31.34,42.11-1.54,1.57-3.12,3.11-4.73,4.61-2.88,2.68,1.45,6.99,4.32,4.31h0Z"/>
          <path class="cls-2" d="m473.68,888.78c4.59,19.62,12.53,38.5,23.4,55.48,1.5,2.35,3.15,4.61,4.61,6.99,1.17,1.9,2.56,4.3,2.19,6.63-.26,1.63.42,3.29,2.13,3.76,1.45.4,3.5-.49,3.76-2.13.91-5.71-2.04-10.27-5.1-14.8-2.86-4.23-5.53-8.59-8-13.05-4.93-8.9-9.07-18.22-12.35-27.85-1.86-5.46-3.44-11.02-4.76-16.64-.38-1.61-2.21-2.56-3.76-2.13-1.63.43-2.5,2.13-2.12,3.74h0Z"/>
          <path class="cls-2" d="m445.57,929.52c13.92,14.52,28.83,28.09,44.61,40.55,2.07,1.63,4.19,3.2,6.22,4.87,1.87,1.54,3.53,3.16,4.56,5.38.69,1.5,2.85,1.87,4.18,1.1,1.54-.9,1.79-2.68,1.1-4.18-1.97-4.27-5.95-6.97-9.54-9.77-4.03-3.14-8-6.35-11.91-9.63-7.83-6.56-15.43-13.39-22.77-20.48-4.12-3.98-8.16-8.03-12.12-12.17-2.74-2.83-7.06,1.49-4.33,4.33h0Z"/>
          <path class="cls-2" d="m407.08,1356.38c28.47-5.76,56.2-16.04,81-31.25,12.37-7.58,24.02-16.41,34.54-26.41,11.6-11.02,21.69-23.49,31.3-36.26,9.91-13.16,19.8-26.44,28.82-40.23,8.96-13.7,16.59-28.21,23.52-43.02,7-14.97,13.33-30.24,19.74-45.46,6.76-16.06,13.52-32.12,20.29-48.19,6.7-15.92,13.49-31.81,20.09-47.77,3.12-7.53,6.09-15.14,8.32-22.99,1.13-3.95,2.06-7.96,2.73-12.01.55-3.34,1.65-7.17-.51-10.14-2.12-2.91-6.12-3.13-7.49.58-.57,1.55.64,3.35,2.13,3.76,1.71.47,3.18-.58,3.76-2.13-.01.07-.03.15-.04.22l-1.1,1.1c-.11.05-.22.1-.33.16h-1.62c-.76-.13.02-.53-.14.04-.02.08-.02.96-.06,1.31-.23,2.05-.56,4.08-.95,6.11-.72,3.71-1.65,7.37-2.73,10.99-2.24,7.5-5.12,14.78-8.11,22.01-6.35,15.31-12.85,30.55-19.28,45.83-6.48,15.4-12.97,30.8-19.45,46.2-6.19,14.71-12.29,29.46-18.96,43.95-6.54,14.22-13.65,28.2-21.94,41.48-8.42,13.48-17.98,26.24-27.41,39.02-9.13,12.37-18.57,24.56-29.3,35.59-9.73,10.01-20.52,18.93-32.14,26.66-23.22,15.46-49.33,26.25-76.41,32.77-3.28.79-6.59,1.52-9.9,2.19-3.85.77-2.22,6.66,1.63,5.89h0Z"/>
          <path class="cls-2" d="m604.57,1251.64c5-1.13,9.99-2.26,14.99-3.4,4.76-1.09,9.45-2.33,13.85-4.49,1.48-.73,1.89-2.83,1.1-4.18-.88-1.51-2.69-1.83-4.18-1.1-4.04,1.98-8.47,2.99-12.84,3.98-4.85,1.1-9.69,2.2-14.54,3.3-1.61.36-2.56,2.22-2.13,3.76.44,1.65,2.13,2.5,3.75,2.13h0Z"/>
          <path class="cls-2" d="m637.27,1128.41c.93-.69,1.93-1.26,2.99-1.72-.24.1-.49.21-.73.31,1.17-.49,2.39-.82,3.64-1.01-.27.04-.54.07-.81.11,1.09-.15,2.19-.17,3.28-.07.74.07,1.65-.39,2.16-.89.53-.53.93-1.4.89-2.16-.04-.79-.29-1.61-.89-2.16-.63-.58-1.31-.82-2.16-.89-3.99-.36-8.25.83-11.46,3.22-.66.49-1.18,1-1.4,1.83-.2.73-.11,1.7.31,2.35s1.05,1.23,1.83,1.4c.75.16,1.7.16,2.35-.32h0Z"/>
          <path class="cls-2" d="m659.82,1041.04c.71,20.72,3.09,41.24,6.24,61.72,3.13,20.37,6.5,40.7,7.55,61.32,1.06,20.9.32,41.82-.39,62.72-.69,20.23-1.34,40.49-.31,60.72,1,19.7,3.56,39.45,9.15,58.41.68,2.32,1.42,4.63,2.19,6.93,1.25,3.71,7.15,2.12,5.89-1.62-6.23-18.51-9.39-37.86-10.74-57.3-1.38-19.98-.96-40.02-.31-60.01.68-20.8,1.59-41.62.93-62.43-.66-20.82-3.55-41.35-6.76-61.91-3.16-20.23-5.97-40.45-7.01-60.92-.13-2.54-.23-5.07-.32-7.61-.13-3.94-6.24-3.95-6.11-.02h0Z"/>
          <path class="cls-2" d="m402.1,1352.59c-3.76-4.42-9.25-2.94-14.3-3.68-6.17-.9-11.3-7.37-15.39-11.59-8.83-9.11-16.57-19.21-23.25-30-13.54-21.87-22.63-46.29-27.76-71.45-6.05-29.74-6.46-60.22-3.96-90.37,1.25-15.06,2.91-30.11,2.77-45.24-.15-15.64-.47-31.27-.26-46.91.82-60.78,9.51-121.48,25.13-180.21,7.14-26.87,16.22-53.22,23.02-80.17,4.77-18.9,8.87-39.81,21.15-55.53,7.04-9.02,16.13-13.51,27.12-16.14,14.73-3.52,29.69-6.1,44.68-8.17,30.28-4.18,60.83-6.3,91.28-8.85,7.58-.64,15.16-1.27,22.74-1.91,3.89-.33,3.92-6.44,0-6.11-31.37,2.64-62.8,4.87-94.09,8.32-15.16,1.67-30.28,3.7-45.29,6.46-7.39,1.36-14.77,2.85-22.07,4.65-6.04,1.48-11.98,3.45-17.22,6.87-17.15,11.21-24.46,32.33-29.65,51.14-2.55,9.26-4.6,18.65-7.25,27.88-4.32,15.07-8.91,30.06-13.31,45.1-17.36,59.27-28.6,120.17-31.6,181.92-.78,16.06-.91,32.13-.79,48.21.12,15.73.56,31.37-.63,47.08-1.17,15.44-2.86,30.83-3.23,46.32-.37,15.34.25,30.71,2.13,45.95,3.33,27.04,10.59,53.52,22.75,77.96,5.69,11.45,12.46,22.34,20.27,32.46,4.06,5.26,8.38,10.3,13,15.07,4.21,4.34,8.74,9.42,14.34,11.96,2.59,1.17,5.26,1.49,8.08,1.55,2.54.05,5.47-.37,7.28,1.75,2.54,3,6.85-1.34,4.31-4.32h0Z"/>
          <path class="cls-2" d="m1069.08,653.04c3.72-11.26,7.44-22.52,11.17-33.79.93-2.82,2.17-5.71,2.32-8.72.14-2.81-1.09-5.34-2.76-7.51-1.61-2.08-3.49-3.93-5.25-5.88-1.83-2.01-3.63-4.05-5.4-6.12-7.02-8.17-13.6-16.71-19.7-25.59-3.12-4.55-6.13-9.18-9-13.88-2.42-3.97-5.52-10.25-11.31-8.21-5.61,1.98-6.56,9.26-7,14.32-.55,6.33.3,12.82,2.39,18.82.54,1.56,2.09,2.59,3.76,2.13,1.51-.42,2.68-2.19,2.13-3.76-1.65-4.74-2.46-9.66-2.32-14.68.07-2.39.33-4.78.87-7.12.18-.77.47-1.68.68-2.1.2-.39.41-.79.67-1.15-.21.29.81-.75.41-.46.15-.11.34-.22.5-.29-.37.16-.03-.03.09.03-.04.01-.08.01-.11.02-.21.03-.15.04.19.03-.28-.14.04,0,.16.09-.22-.16.3.3.34.34.36.35.48.54.74.92,1.32,1.98,2.47,4.08,3.72,6.1,2.67,4.3,5.45,8.54,8.33,12.7,5.78,8.35,11.96,16.43,18.52,24.18,3.26,3.86,6.63,7.63,10.07,11.33,1.24,1.33,2.8,2.88,3.13,4.68.4,2.17-.92,4.72-1.59,6.75-3.88,11.73-7.76,23.46-11.63,35.19-.52,1.57.6,3.34,2.13,3.76,1.65.46,3.23-.56,3.75-2.13h0Z"/>
          <path class="cls-2" d="m1041.09,626.8c-3.69,7.4-6.63,15.07-9.49,22.82-3.37,9.16-7.13,18.18-11.65,26.84-10.57,20.28-24.83,38.34-35.6,58.51-10.69,20.03-18.32,41.63-23.39,63.73-5.29,23.04-7.85,46.66-8.54,70.27-.74,24.97.59,49.95,2.8,74.81.28,3.1.57,6.19.87,9.28.16,1.64,1.29,3.05,3.05,3.05,1.53,0,3.21-1.4,3.05-3.05-2.4-24.74-4.07-49.59-3.85-74.47.21-23.57,2.13-47.16,6.79-70.29,4.41-21.91,11.18-43.44,21.04-63.53,10.04-20.46,23.95-38.56,35.24-58.29,5.36-9.37,9.9-19.19,13.81-29.26,2.74-7.04,5.09-14.23,8.18-21.13.94-2.1,1.93-4.18,2.95-6.23,1.76-3.49-3.51-6.58-5.26-3.06h0Z"/>
          <path class="cls-2" d="m1035.33,836.28c-6.33,4.39-14.18,5.91-21.55,4.09-3.82-.94-5.45,4.95-1.62,5.89,8.93,2.21,18.68.55,26.26-4.71,1.35-.94,1.97-2.68,1.1-4.18-.8-1.34-2.83-2.04-4.19-1.09h0Z"/>
          <path class="cls-2" d="m1059.77,939.13c-8.1-24.32-13.96-49.41-17.38-74.82-.97-7.25-1.73-14.52-2.32-21.81-.13-1.64-1.31-3.05-3.05-3.05-1.55,0-3.19,1.4-3.05,3.05,2.08,26.1,6.58,52.02,13.53,77.27,1.94,7.05,4.07,14.05,6.38,20.99.52,1.56,2.11,2.59,3.76,2.13,1.53-.43,2.65-2.19,2.13-3.76h0Z"/>
          <path class="cls-2" d="m968.54,999.59c-.54-7.87-1.08-15.74-1.62-23.61-.27-3.97-.55-7.94-1.24-11.87-.66-3.81-1.72-7.54-2.78-11.25-1.07-3.78-6.97-2.17-5.89,1.62,1.03,3.64,2.07,7.29,2.74,11.02.65,3.62.84,7.31,1.09,10.98.53,7.71,1.06,15.41,1.58,23.12.11,1.65,1.32,3.05,3.05,3.05,1.58,0,3.18-1.4,3.07-3.06h0Z"/>
          <path class="cls-2" d="m1101.34,649.69c4.61-7.12,8.13-15.05,10.18-23.29.57-2.29,1.03-4.72.86-7.09-.16-2.36-.85-4.51-1.84-6.64-1.87-4.03-4.42-7.8-6.67-11.62-4.76-8.09-9.52-16.18-14.28-24.28-2.23-3.79-4.29-7.84-7.21-11.16-2.57-2.93-5.99-4.9-9.62-6.21-4.05-1.47-8.39-2.02-12.65-2.47-5.13-.55-10.27-1.04-15.41-1.56-1.64-.17-3.05,1.52-3.05,3.05,0,1.79,1.41,2.89,3.05,3.05,4.46.45,8.91.9,13.37,1.35,3.38.34,6.6.68,9.92,1.52,3.02.76,6.01,1.87,8.34,3.88,2.91,2.5,4.67,6.02,6.58,9.27,4.51,7.66,9.02,15.33,13.52,22.99,2.23,3.8,4.47,7.59,6.7,11.39,1.92,3.28,3.59,6.39,3.03,10.31-.62,4.34-2.23,8.74-3.9,12.78-1.69,4.07-3.81,7.96-6.21,11.66-.9,1.38-.28,3.37,1.1,4.18,1.49.86,3.29.28,4.19-1.11h0Z"/>
          <path class="cls-2" d="m1126.59,655.17c.83-3.86,1.9-7.66,3.22-11.39,1.33-3.74,3.14-7.29,4.46-11.04,2.69-7.65.73-15.38-2.78-22.4-3.44-6.87-7.88-13.34-12.32-19.6-4.48-6.3-9.18-12.61-14.45-18.27-2.9-3.11-6.12-5.97-10.14-7.48-1.85-.7-3.84-.94-5.79-.67-1.07.15-2.06.48-3.03.98-.37.19-.78.41-1.1.67-.51.4-.2.04.15.18.45.26.9.52,1.35.79-.08-.07-.17-.13-.25-.2-1.29-1.03-3.06-1.26-4.32,0-1.07,1.07-1.29,3.28,0,4.32,1.85,1.49,3.77,1.49,5.83.38,1.48-.8,1.94-1.31,3.59-1.12,2.57.3,5.2,2.36,7.18,4.23,5.22,4.92,9.6,10.88,13.82,16.65,4.43,6.06,8.67,12.33,12.4,18.85,3.26,5.7,6.34,12.41,4.59,19.1-1.05,4.04-3.13,7.77-4.59,11.67-1.55,4.14-2.78,8.4-3.71,12.72-.35,1.61.48,3.3,2.13,3.76,1.53.43,3.41-.51,3.76-2.13h0Z"/>
          <path class="cls-2" d="m1134.87,622.19c5.18,5.44,9.8,11.19,11.17,18.78,1.34,7.42-.39,15.19-2.85,22.19-5.1,14.52-13.94,27.55-22.6,40.13-4.98,7.23-10.03,14.4-14.69,21.84-2.09,3.34,3.19,6.41,5.28,3.08,8.58-13.68,18.51-26.47,26.77-40.36,4.15-6.97,7.88-14.23,10.7-21.84,2.8-7.55,4.65-15.89,3.69-23.97-.56-4.71-1.95-9.19-4.39-13.28-2.39-4.01-5.54-7.54-8.75-10.91-2.73-2.83-7.05,1.49-4.33,4.34h0Z"/>
          <path class="cls-2" d="m1104.9,728.82c-9.19,14.59-18.37,29.19-27.56,43.78-9.19,14.6-18.37,29.22-27.58,43.81-4.8,7.6-9.69,15.19-15.44,22.12-1.05,1.27-1.24,3.08,0,4.32,1.08,1.08,3.26,1.28,4.32,0,5.28-6.38,9.94-13.23,14.39-20.2,4.58-7.17,9.07-14.39,13.6-21.59,9.27-14.74,18.55-29.47,27.82-44.21,5.24-8.32,10.47-16.64,15.71-24.96,2.12-3.33-3.17-6.4-5.26-3.07h0Z"/>
          <path class="cls-2" d="m1141.73,1350.03c3.78-20.52,7.57-41.17,8.33-62.07.67-18.45-1.17-37.25-7.26-54.76-3.34-9.59-7.91-18.76-13.91-26.97-.97-1.33-2.65-1.99-4.18-1.1-1.31.77-2.08,2.84-1.1,4.18,10.34,14.14,16.19,30.89,18.82,48.11,2.89,18.87,1.71,38.23-.88,57.05-1.57,11.36-3.64,22.65-5.72,33.93-.3,1.62.45,3.29,2.13,3.76,1.49.41,3.47-.5,3.77-2.13h0Z"/>
          <path class="cls-2" d="m1125,1201.74c-8.8-15.11-14.58-31.66-19.25-48.44-4.95-17.78-8.98-35.83-12.26-53.99-3.26-18-5.6-36.11-7.43-54.3-1.8-17.93-3.33-35.89-5.75-53.76-2.39-17.63-5.69-35.19-11.08-52.17-.68-2.16-1.4-4.3-2.15-6.43-.55-1.56-2.09-2.59-3.76-2.13-1.51.41-2.68,2.19-2.13,3.76,5.93,16.89,9.67,34.45,12.31,52.13,2.64,17.69,4.19,35.53,5.93,53.33,1.8,18.4,3.97,36.76,7.08,54.99,3.14,18.4,7.09,36.67,11.86,54.72,4.51,17.02,9.93,33.93,18.13,49.56,1.03,1.97,2.11,3.91,3.22,5.82,1.99,3.39,7.27.31,5.28-3.09h0Z"/>
          <path class="cls-2" d="m924.42,1069.19c.71-3.64-1.21-6.54-3.85-8.86-2.33-2.06-4.92-4.19-8.05-4.83-6.33-1.3-12.94,2.96-15.64,8.58-2.81,5.86-1.8,12.68,2.4,17.62,2.15,2.52,5.23,4.31,8.54,4.66,3.28.34,6.54-1,9.14-2.9,2.93-2.14,5.57-4.88,6.65-8.42,1.06-3.47.25-7.6-2.49-10.08-1.22-1.11-3.11-1.21-4.32,0-1.12,1.12-1.23,3.21,0,4.32,1.09.99,1.38,2.39,1.01,3.8-.48,1.84-1.85,3.33-3.31,4.59-1.41,1.21-3.22,2.4-5.07,2.63-1.93.24-3.73-.77-5.08-2.08-2.72-2.66-3.67-6.62-2.56-10.12,1.02-3.21,4.02-6.14,7.53-6.67,2.15-.33,3.94.77,5.56,2.09.95.77,1.92,1.56,2.73,2.48.32.36.57.74.82,1.21,0-.01.06.44.07.38-.32,1.62.46,3.3,2.13,3.76,1.53.38,3.47-.53,3.79-2.16h0Z"/>
          <path class="cls-2" d="m939.05,1224.47c-2.59-6.31-9.94-8.03-15.71-4.95-5.63,3.01-8.96,9.45-9.76,15.59-.74,5.68.61,13.2,6.23,16.09,6.59,3.39,13.08-2.22,16.16-7.73,3.69-6.61,3.41-14.95-2.89-19.81-1.31-1.01-3.42-.2-4.18,1.1-.92,1.58-.21,3.17,1.1,4.18,2.81,2.17,2.83,6.65,1.46,9.95-.84,2.01-2.14,3.93-3.74,5.41-.66.61-1.47,1.2-2.25,1.52-.69.28-1.43.4-2.03.27-.77-.16-1.17-.45-1.66-.95-.6-.61-.95-1.16-1.37-2.08-.65-1.43-.95-3.65-.91-5.49.08-4.24,1.84-8.53,4.95-11.37,1.5-1.38,3.29-2.21,5.15-2.13.69.03,1.5.27,2.18.67.53.31.51.29.95.76.02.02.34.44.14.16.05.07.45.81.3.46.63,1.53,2.03,2.61,3.76,2.13,1.43-.42,2.75-2.25,2.12-3.78h0Z"/>
          <path class="cls-2" d="m840.14,851.57c9.28,30.14,17.01,60.74,23.26,91.65,6.25,30.89,11.03,62.08,14.41,93.41,3.4,31.49,5.43,63.12,6.16,94.78.72,31.41.17,62.84-1.59,94.21-1.85,32.89-5.88,65.71-5.76,98.69.02,4.15.11,8.31.27,12.46.15,3.92,6.26,3.94,6.11,0-1.28-33.21,2.59-66.29,4.77-99.38,2.09-31.63,2.94-63.34,2.51-95.03-.43-31.66-2.15-63.31-5.23-94.82-3.1-31.61-7.55-63.11-13.48-94.32-5.89-30.99-13.23-61.71-22.13-91.98-1.11-3.77-2.25-7.54-3.4-11.3-1.16-3.74-7.06-2.14-5.9,1.63h0Z"/>
          <path class="cls-2" d="m1024.67,575.25c-.57,6.73-.26,13.46.8,20.13.51,3.19,1.21,6.35,2.1,9.45.47,1.63.99,3.24,1.56,4.83.26.72.53,1.44.81,2.16.14.37.27.76.42,1.13.25.62-.19.17.14-.33-.9,1.38-.28,3.38,1.1,4.18,1.49.87,3.28.29,4.18-1.1,1.07-1.64.82-3.56.15-5.29-.61-1.58-1.19-3.16-1.71-4.78-1.06-3.29-1.91-6.66-2.53-10.06-1.23-6.69-1.46-13.55-.89-20.32.14-1.65-1.5-3.05-3.05-3.05-1.79,0-2.94,1.4-3.08,3.05h0Z"/>
          <path class="cls-2" d="m1058.68,934.49c-3.48,5.11-6.46,10.53-9.65,15.83-2.58,4.28-5.35,8.45-8.33,12.46-5.73,7.72-12.35,14.95-19.48,21.48-14.19,13-30.96,23.51-48.85,30.5-10.27,4.01-20.96,6.93-31.85,8.67l3.76,3.76c3.28-13.32,9.68-25.78,18.72-36.12,1.08-1.24,1.22-3.1,0-4.32-1.11-1.11-3.23-1.25-4.32,0-9.72,11.13-16.75,24.46-20.29,38.82-.6,2.44,1.48,4.12,3.76,3.76,19.77-3.15,38.89-10.25,56.1-20.46,17.2-10.21,32.61-23.57,44.94-39.33,3.54-4.53,6.86-9.21,9.89-14.09,3.67-5.93,6.97-12.08,10.89-17.85.93-1.36.26-3.39-1.1-4.18-1.52-.9-3.26-.29-4.19,1.07h0Z"/>
          <path class="cls-2" d="m966.19,1001.74c.02.1.13.93.06.4.04.35.09.71.12,1.06.06.61.12,1.21.16,1.82.09,1.27.14,2.54.14,3.81s-.03,2.44-.11,3.66c-.04.61-.09,1.22-.15,1.82-.03.35-.07.71-.12,1.06-.02.15-.04.3-.06.45.04-.31.04-.28-.01.09-.12.85-.14,1.58.31,2.35.37.63,1.1,1.24,1.83,1.4,1.44.33,3.52-.44,3.76-2.13.82-5.84.81-11.6-.04-17.43-.23-1.59-2.32-2.6-3.76-2.13-1.73.57-2.38,2.07-2.13,3.77h0Z"/>
          <path class="cls-2" d="m938.9,1026.25c4.78,17.16,7.82,34.74,9.63,52.45,1.84,17.98,2.5,36.06,2.73,54.12.23,18.1.01,36.21.05,54.31.04,18.05.33,36.11,1.6,54.11,1.27,18.07,3.51,36.12,7.4,53.83.47,2.15.97,4.3,1.5,6.44.93,3.82,6.82,2.2,5.89-1.62-4.22-17.35-6.77-35.03-8.23-52.81-1.49-18.06-1.92-36.19-2.02-54.31-.1-18.11.13-36.22-.01-54.32-.14-18-.64-36.01-2.23-53.95-1.59-18-4.26-35.95-8.7-53.49-.54-2.14-1.11-4.27-1.7-6.39-1.07-3.77-6.97-2.16-5.91,1.63h0Z"/>
          <path class="cls-2" d="m1134.7,1347.52c-3.22,3.05-7.71,4.54-12.02,5-5.13.55-10.29.15-15.4-.3-13.02-1.14-26.05-2.23-39.07-3.42-12.43-1.14-24.85-2.58-37-5.53-11.29-2.75-22.31-6.61-32.81-11.59-5.83-2.77-11.51-5.85-17-9.25-2.5-1.55-5.32-3.14-7.5-4.97-.99-.83-1.87-1.71-2.49-2.8.03.05-.42-.95-.27-.53-.04-.11-.2-.97-.15-.46-.02-.18-.03-.45.01-.64-.06.33.17-.18.25-.31,2.06-3.36-3.22-6.43-5.28-3.08-3.63,5.9,2.3,11.46,6.81,14.49,5.11,3.44,10.41,6.6,15.86,9.48,10.99,5.8,22.62,10.48,34.57,13.87,12.64,3.59,25.63,5.5,38.69,6.83,13.79,1.4,27.61,2.47,41.41,3.68,11.97,1.04,26.17,2.9,35.72-6.15,2.85-2.71-1.48-7.02-4.33-4.32h0Z"/>
          <path class="cls-2" d="m1075.77,794.17c17.47,5.62,34.94,11.24,52.4,16.87,14.12,4.54,28.54,8.86,41.43,16.38,12.39,7.23,22.19,17.63,27.51,31.07,5.32,13.42,6.67,28.03,6.51,42.36-.39,35.35-7.8,70.47-13.78,105.18-3.08,17.84-6.15,35.68-9.23,53.52-3.02,17.51-5.94,35.06-9.91,52.39-3.99,17.43-9.7,34.39-13.85,51.78-4.13,17.29-6.17,35.01-7.07,52.75-.22,4.41-.37,8.82-.48,13.23-.09,3.93,6.02,3.93,6.11,0,.44-18.21,1.71-36.45,5.17-54.36,3.42-17.71,9.25-34.81,13.71-52.26,4.46-17.47,7.61-35.23,10.68-52.98,3.13-18.1,6.24-36.21,9.37-54.31,6.18-35.84,13.69-71.9,15.23-108.33.62-14.66-.06-29.7-4.24-43.85-4.17-14.13-12.09-26.52-23.81-35.54-11.74-9.04-25.81-14.4-39.74-19.04-16.96-5.65-34.04-10.98-51.05-16.46-4.44-1.43-8.87-2.86-13.31-4.28-3.78-1.21-5.39,4.68-1.65,5.88h0Z"/>
        </g>
      </g>
    </g>
  </g>
</svg>