<?xml version="1.0" encoding="UTF-8"?>
<svg id="Layer_2" data-name="Layer 2" xmlns="http://www.w3.org/2000/svg" viewBox="0 0 1269.57 991.2">
  <defs>
    <style>
      .cls-1 {
        fill: #f5f0e2;
      }

      .cls-1, .cls-2, .cls-3, .cls-4, .cls-5 {
        stroke-width: 0px;
      }

      .cls-3 {
        fill: #fff;
      }

      .cls-4 {
        fill: #1b1439;
      }

      .cls-5 {
        fill: #ed1e78;
      }
    </style>
  </defs>
  <g id="Layer_1-2" data-name="Layer 1">
    <g id="Layer_2-2" data-name="Layer 2">
      <g>
        <path class="cls-3" d="m262.04,291.56c-13.12,6.31-19.33,21.2-24.43,34.83-5.67,15.15-11.35,30.31-17.02,45.46-1.09,2.91-2.19,5.92-1.99,9.02.48,7.18,7.45,11.88,11.42,17.88,3.08,4.66,4.36,10.25,5.59,15.7,4.79,21.31,9.57,42.61,14.36,63.92.3,1.32.58,2.74.05,3.98-.45,1.06-1.43,1.79-2.36,2.46-22.88,16.46-48.45,29.17-75.39,37.46,8.29-22.97,8.77-48.68,1.36-71.95-4.23-13.29-11.03-26.2-10.99-40.15.04-12.79,5.96-25,14.08-34.88s18.36-17.76,28.5-25.55"/>
        <path class="cls-3" d="m106.4,323.05c-17.19-7.73-34.8-14.84-53.25-18.72-10-2.1-20.2-3.24-30.42-3.39-7.39-.11-16.01.97-19.84,7.29-2.79,4.61-1.99,10.59.05,15.58,2.04,4.99,5.19,9.48,7.06,14.54,2.57,6.93,2.69,14.77,6.45,21.13,5.1,8.63,15.54,12.39,25.32,14.59,9.78,2.21,20.23,3.72,28.09,9.95-14.92,6.49-29.28,14.25-42.89,23.16-.52.34-1.06.7-1.44,1.19-1.32,1.7-.26,4.38,1.58,5.49s4.13,1.09,6.28,1.01c37.14-1.38,75.19-10.48,110.86-.04,11.2,3.28,22.45,8.49,34,6.86,14.8-2.09,26.18-15.66,29.19-30.3,1.21-5.88,1.3-11.95,2.57-17.82,2.18-10.07,7.92-19.33,15.97-25.76,2.12-1.69,4.42-3.22,6.11-5.35,2.63-3.3,3.47-7.63,4.56-11.71,2.76-10.34,7.61-20.12,14.16-28.59,3.55-4.59,7.86-9.6,7.11-15.35-10.97-.25-22.53-.37-32.13,4.95-12.48,6.92-18.56,21.15-27.01,32.65-.59.8-1.23,1.62-2.13,2.04-1.16.54-2.52.31-3.78.07-32.28-6.11-65.93-9.82-97.73-1.56"/>
        <path class="cls-3" d="m610.53,391.94c-1.26,1.28-2.59,2.6-3.14,4.31-1.48,4.57,3.05,8.71,7.15,11.21,25.45,15.56,55.61,23.28,85.4,21.87,5.58-.27,11.19-.85,16.55-2.45,5.98-1.79,11.62-4.84,17.8-5.72,1.06-.15,2.22-.27,3-1.01.58-.55.85-1.35,1.07-2.12,3.3-11.52.4-23.76-.59-35.71-1.58-19.12,1.79-38.31,1.37-57.49.09,4.17-22.97,13.57-26.58,15.08-9.93,4.16-20.37,7.09-31,8.7-10.3,1.57-20.33,1.39-30.68.99-10.11-.4-11.66,4.46-16.79,12.61-6.74,10.74-14.66,20.72-23.56,29.73Z"/>
        <path class="cls-3" d="m633.22,362.75c-.1.49-.2,1.01-.06,1.5.25.88,1.18,1.37,2.02,1.74,6.87,2.97,14.39,4.42,21.87,4.19,3.67-.11,7.54-.71,10.34-3.09,1.25-1.06,2.27-2.64,1.99-4.26-.2-1.18-1.05-2.16-1.38-3.32-.43-1.54.13-3.17.06-4.76-.27-6.15-6.33-6.72-10.91-7.3-3.91-.49-7.22-2.16-10.96-2.8-8.76-1.49-11.5,11.09-12.97,18.1Z"/>
        <path class="cls-3" d="m775.74,179.45c-3.64,2.47-5.98,6.42-7.91,10.37-5.27,10.78-8.37,22.61-9.08,34.59-.52,8.76,1.07,19,8.65,23.43,1,.59,2.17,1.14,2.6,2.22.33.85.11,1.81-.12,2.69-5.4,20.96-11.18,42.7-25.14,59.24-2.11,2.51-4.45,4.95-5.63,8-1.18,3.04-1.1,6.39-1.02,9.64.28,10.42.56,20.84.84,31.26.08,3.12.25,6.48,2.14,8.96,1.65,2.16,4.32,3.26,6.88,4.17,8.39,3,18.63,4.8,25.51-.86,3.34-2.75,5.27-6.83,6.88-10.84,5.25-13.05,8.28-26.89,13.2-40.07,2.01-5.4,4.35-10.7,5.65-16.31,1.24-5.32,1.52-10.81,2.56-16.17,1.33-6.86,3.87-13.42,5.83-20.13,2.64-9.04,4.23-18.36,5.33-27.71,2.22-18.83,2.49-37.99-.72-56.68-.57-3.31-1.68-7.14-4.83-8.31-7.2-2.66-9.48,9.84-15.53,7.35-2.83-1.16-3.07-5.69-7.09-6.74-2.98-.78-6.51.18-9,1.9Z"/>
        <path class="cls-3" d="m846.52,204.29c-.57,5.15-.43,10.36-.75,15.53-.91,14.85-5.57,29.18-10.19,43.32-3.69,11.3-7.39,22.61-11.08,33.91-2.02,6.19-4.05,12.4-6.87,18.27-2.43,5.05-5.42,9.81-8.4,14.55-3.98,6.33-7.96,12.66-11.95,18.99,12.49-10.25,24.19-21.61,33.58-34.77,5.16-7.23,10.98-15.83,19.85-16.31,2.31-.13,4.81.31,6.81-.85,3.03-1.76,3.18-6.01,2.94-9.5-1.2-17.19-2.97-34.33-5.31-51.41-.99-7.24-2.08-14.51-1.86-21.81.17-5.63,7.12-26.34,3.51-29.9-6.75-6.66-9.92,16.7-10.28,19.98Z"/>
        <path class="cls-3" d="m1049.55,511.17c-4.39,1.48-8.27,4.16-12,6.9-14.68,10.79-28.19,23.18-40.19,36.88-3.73,4.26-7.32,8.65-10.64,13.24-3.59,4.97-7.54,10.61-13.58,11.65.72,30.28,24.51,55.23,30.72,84.88,3.29-1.93,5.06-5.6,6.79-9.01,13.04-25.76,33.05-47.2,52.79-68.27,2.44-2.6,5-5.29,8.34-6.54,3.1-1.17,6.54-.96,9.78-1.67,5.85-1.27,10.65-5.37,14.87-9.62,5.8-5.82,11.05-12.17,15.68-18.95,4.34-6.36,8.2-13.29,9.33-20.91s-.91-16.06-6.76-21.06c-5.6-4.79-13.47-5.67-20.83-6.04-10.73-.54-21.49-.46-32.21.25-2.5.16-5.91,1.76-4.89,4.04"/>
        <path class="cls-3" d="m1067.23,418.05c-2.5-1.23-6.01-1.89-7.68.34-.97,1.29-.89,3.05-.77,4.65.28,3.79.56,7.57.85,11.36.35,4.75.71,9.52.49,14.28-.57,12.23-4.92,23.92-8.55,35.62s-6.6,24.07-4.34,36.11c.5,2.64,1.29,5.33,3.06,7.35,2.17,2.47,5.56,3.59,8.85,3.71,3.29.12,6.53-.65,9.73-1.41,3.68-.88,7.36-1.75,11.04-2.63,6.4-1.52,13.24-3.31,17.52-8.3,3.08-3.59,4.38-8.35,5.54-12.94,1.01-4.02,2-8.11,1.79-12.25s-1.78-8.39-5.05-10.94c-2.43-1.89-5.53-2.68-8.14-4.31-.49-.31-.98-.67-1.21-1.2-.32-.72-.08-1.55.13-2.3,2.33-8.24,1.48-17.01.61-25.53-.32-3.16-.67-6.4-2.09-9.25-1.11-2.21-2.81-4.06-4.49-5.88-5.46-5.9-9.86-12.82-17.29-16.48Z"/>
        <path class="cls-3" d="m1163.2,517.35c-3.48-7.65-12.4-10.82-20.31-13.66-11.97-4.29-23.61-9.52-34.77-15.62-2.33-1.27-4.71-2.6-7.34-2.91-7.62-.89-13.26,6.66-17.14,13.28-2.7,4.61-5.5,9.63-4.97,14.95,1.01,10.22,13,15.22,18.44,23.93,1.32,2.12,2.27,4.72,1.48,7.09-.62,1.86-2.2,3.22-3.76,4.42-5.95,4.57-12.63,8.19-19.71,10.66-1.86.65-4.14,1.76-4.01,3.73.07.99.78,1.8,1.49,2.48,2.04,1.94,4.45,3.48,7.06,4.51,2.03.8,4.22,1.32,5.93,2.68,1.16.93,2.01,2.18,2.96,3.33,4.42,5.32,11.02,8.18,17.21,11.27,15.81,7.9,30.32,18.41,42.76,30.97,9.28,9.37,17.9,20.21,30.13,25.11,2.7,1.08,5.71,1.84,8.49.99,3.28-1.01,5.58-4.2,6.25-7.56,1.2-6.07-2.12-12.02-5.32-17.32-5.63-9.32-11.25-18.64-16.88-27.96,7.33-2.65,15.42-.5,22.91,1.66,7.91,2.28,15.83,4.57,23.74,6.85,4.87,1.41,10.2,2.79,14.88.86,5.69-2.34,8.42-8.64,12.35-13.37,4.13-4.97,9.83-8.35,15.49-11.46,2.95-1.62,6.41-4.19,5.62-7.46-.42-1.74-1.97-2.95-3.42-4-10.35-7.53-20.8-15.12-32.52-20.27-16.3-7.16-34.37-9.31-51.02-15.61-27.4-10.37-50.61-31.83-79.56-36.38-3.9-.61-8.81-.41-10.62,3.1"/>
        <path class="cls-3" d="m1120.69,506.46c6.75,13.89,18.98,24.45,32.25,32.36,13.27,7.91,27.75,13.52,41.7,20.15,9.41,4.47,18.62,9.44,28.44,12.91s20.43,5.43,30.69,3.64c2.02-.35,4.04-.85,6.09-.86,1.37-.01,2.87.17,4-.62.52-.36.89-.9,1.2-1.45,2.29-4.19.71-9.65-2.5-13.18-3.21-3.54-7.7-5.57-12.09-7.45-24.24-10.38-49.23-19-74.72-25.76-5.88-1.56-12.27-3.33-15.89-8.23-1.74-2.35-2.67-5.25-4.59-7.45-1.82-2.09-4.38-3.36-6.87-4.59-12.23-6.03-24.45-12.06-36.68-18.09-6.64-3.27-13.44-6.6-20.79-7.48-7.35-.89-15.48,1.11-20.11,6.88"/>
        <path class="cls-3" d="m1175.68,532.96c.95-1.71-.01-3.89-1.34-5.33s-3.05-2.55-4.04-4.24c-.41-.69-.68-1.46-1.15-2.11-.71-.96-1.8-1.56-2.86-2.1-3.19-1.65-6.44-3.16-9.76-4.51-1.36-.56-2.77-1.1-4.24-1.18s-3.04.36-4,1.48c-1.05,1.23-1.15,3.07-.6,4.59s1.66,2.77,2.84,3.87c3.44,3.18,7.95,5.34,11.8,7.98,2.75,1.88,10.93,5.92,13.35,1.55Z"/>
        <path class="cls-4" d="m662.16,120.82c-5.49-11.03-19.63-15.62-31.73-13.33-12.11,2.29-22.45,10.01-31.51,18.36-7.96,7.34-15.46,15.57-19.64,25.56-4.18,10.01-4.76,21.13-4.56,31.98.16,8.65.79,17.36,3.12,25.69,3.79,13.53,11.9,25.43,20.81,36.3,5.73,6.99,12.03,13.8,20.03,18.02,13.29,7.01,29.42,5.91,44.01,2.33,11.65-2.86,22.95-7.17,33.54-12.81,7.17-3.82,14.06-8.28,19.95-13.87,19.73-18.76,25.79-49.89,16.17-75.36-7.1-18.8-21.42-33.91-36.42-47.29-3.66-3.26-7.51-6.53-12.15-8.1s-10.32-1.05-13.7,2.5"/>
        <path class="cls-4" d="m653.98,167.81c-2.7-13.29-2-27.24-6.06-40.18s-15.18-25.36-28.71-24.43c-5.51.38-10.6,2.9-15.82,4.7-7.18,2.47-14.75,3.59-22.05,5.68-31.74,9.12-56.74,38.25-60.92,71.01-.94,7.36-.91,14.8-.89,22.22.06,16.48.12,32.99,1.74,49.39,1.57,15.96,4.61,31.74,6.52,47.66,1.55,12.98,2.26,26.65-2.93,38.65-4.05,9.35-11.53,17.28-13.52,27.28,9.31,1.58,18.83-.22,28.06-2.24,22.58-4.96,44.85-11.3,66.65-19,22.63-7.99,45.52-17.95,61.65-35.73,16.13-17.78,23.77-45.23,12.44-66.39-.77.09-1.55.19-2.32.28"/>
        <path class="cls-4" d="m617.54,325.81c-25.43,15.16-51.64,29.7-80.2,37.48-4.35,1.19-8.97,2.33-12.22,5.47,5.24,6.25,14.63,6.47,22.04,9.88,3.14,1.44,5.97,3.49,9.16,4.81,4.07,1.68,8.54,2.09,12.93,2.48,11.37,1,22.74,2.01,34.12,3.01,2.87.25,5.85.5,8.58-.46,4.42-1.55,7.17-5.86,9.57-9.87,9.62-16.04,19.37-32.38,23.89-50.54,1.14-4.6,1.67-10.19-1.8-13.42-1.97-1.84-4.8-2.43-7.5-2.61-6.64-.45-13.41,1.14-19.16,4.49"/>
        <path class="cls-4" d="m705.04,221.43c-3.73-1.87-7.98,1.09-11.09,3.87-9.04,8.06-18.23,16.29-24.47,26.67s-9.2,23.44-4.9,34.76c1.25,3.28,3.09,6.44,3.29,9.94.33,5.72-3.81,10.77-8.49,14.07s-10.1,5.51-14.47,9.21-7.6,9.67-5.77,15.1c1.93,5.72,8.43,8.37,14.31,9.7,31.25,7.09,66.02-4.62,86.61-29.18,6.07-7.24,10.93-15.41,15.53-23.66,6.11-10.94,11.87-22.2,15.22-34.27.54-1.96,1.02-3.98.77-6-.64-5.14-5.66-8.46-10.35-10.65-21.06-9.82-46.02-10.95-67.88-3.07-4.46,1.61-8.85,3.61-12.53,6.61-5.64,4.6-9.34,11.52-10.03,18.77"/>
        <path class="cls-4" d="m775.33,86.79c2.83-4.04.8-10.01-3.09-13.04-3.89-3.03-9.03-3.83-13.94-4.35-13.55-1.43-27.36-1.47-40.67,1.45-35.08,7.68-64.34,37.32-71.57,72.5-.85,4.14-1.42,8.38-1.05,12.59.91,10.24,7.2,19.1,13.41,27.3,6.26,8.27,12.87,16.64,21.81,21.91,11.49,6.79,25.42,7.66,38.17,11.62,1.95.6,3.95,1.32,5.42,2.74,4.34,4.18,1.97,11.47,3.46,17.3,1.2,4.71,5.03,8.39,9.37,10.58s9.19,3.09,13.97,3.97c2.36.43,4.86.86,7.11.01,3.74-1.42,5.38-5.77,6.09-9.7,3.33-18.53-4.02-39.19,5.15-55.64,1.68-3.01,3.99-5.84,7.13-7.27s7.22-1.17,9.63,1.31c2.85,2.93,2.89,8.2,6.45,10.2,3.12-7.27,11.84-9.83,19.18-12.79,8.79-3.54,17.21-9.15,21.62-17.54,5.76-10.96,3.66-24.15,2.73-36.5-.87-11.54-.65-23.47-5.03-34.18-4.2-10.29-12.44-18.62-22.03-24.23-9.59-5.61-20.5-8.67-31.48-10.37-15.22-2.35-31.62-1.97-44.94,5.75"/>
        <path class="cls-4" d="m748.1,226.65c-.72-7.95-5.05-15.79-12.11-19.49-7.07-3.7-16.78-2.37-21.7,3.91-1.67,2.14-2.74,4.68-3.61,7.25-1.28,3.77-2.19,7.68-2.7,11.63-.58,4.46-.5,9.44,2.39,12.89,2.17,2.59,5.66,3.86,9.05,3.83s6.67-1.23,9.62-2.88c1.66-.93,3.25-2.01,4.52-3.42,2.49-2.77,3.52-6.62,3.54-10.34.02-3.73-.89-7.39-1.88-10.98"/>
        <path class="cls-4" d="m811.73,175.93c4.22,49.64-2.72,100.2-20.16,146.87-5.49,14.69-12.05,29.18-14.4,44.68,9.11-13.55,18.23-27.1,27.34-40.65,6.59-9.79,13.22-19.68,17.65-30.61,3.13-7.74,5.12-15.9,8.13-23.69,2.97-7.67,6.93-14.96,9.31-22.83,2.09-6.9,2.93-14.11,3.76-21.27,1.57-13.51,3.13-27.01,4.7-40.52.29-2.53.61-5.13,1.83-7.36,1.53-2.81,4.3-4.69,6.53-6.98,5.48-5.63,7.72-13.93,6.97-21.75s-4.22-15.19-8.81-21.57c-2.47-3.43-5.91-6.91-10.13-6.66-2.61.16-4.91,1.76-6.79,3.57-6.07,5.84-9.21,14.58-8.24,22.94"/>
        <path class="cls-4" d="m744.21,40.07c-12.09,4.29-23.77,10.28-33.15,19.03-9.38,8.76-16.34,20.5-17.77,33.25-.41,3.66-.27,7.67,1.97,10.6,2.99,3.91,8.55,4.53,13.48,4.71,11.58.41,23.19.11,34.74-.88,12.8-1.1,26.02-3.01,38.25.93,3.43,1.11,6.79,2.72,9.29,5.32,4.62,4.81,5.49,11.98,6.13,18.62.69,7.19,1.38,14.38,2.06,21.57.09.96.2,1.97.78,2.75,1.29,1.71,3.91,1.27,6,.78,11.07-2.6,22.97-1.55,33.41,2.97,1.65.71,3.3,1.52,5.09,1.67,6.65.54,11.41-7.92,18.08-7.57.75.04,1.58.17,2.19-.27.41-.3.62-.79.81-1.26,6.3-15.63,11.12-32.52,8.66-49.19-1.04-7.04-3.35-13.82-5.65-20.56-3.13-9.16-6.35-18.5-12.21-26.2-25.26-33.2-77.37-28.63-112.16-16.27Z"/>
        <path class="cls-4" d="m582.43,124.16c1.02.37,2.05.74,3.07,1.11-1.09-.13-2.15-.51-3.07-1.11"/>
        <path class="cls-4" d="m634.06,25.34c-15.69,11.22-29.73,24.75-41.51,40.02-4.27,5.54-8.26,11.33-11.3,17.63-7.7,15.99-8.81,34.26-9.63,51.99-.29,6.36.1,14.03,5.62,17.22,5.52,3.19,12.34-.28,17.93-3.33,13.79-7.53,28.81-12.78,44.29-15.49,5.13-.9,10.66-1.47,15.34.83,2.15,1.05,4,2.66,6.16,3.71,5.68,2.74,12.69,1.07,17.85-2.55s8.86-8.91,12.48-14.07c13.45-19.15,27.34-38,41.63-56.53,3.11-4.04,6.28-8.09,10.2-11.35,15.47-12.88,38.23-10.6,57.22-17.28,2.22-.78,4.86-2.78,3.82-4.89-.38-.76-1.16-1.23-1.9-1.65-7.1-4.04-14.19-8.09-21.29-12.13-11.74-6.69-23.75-13.48-37.03-16-10.34-1.96-20.99-1.22-31.49-.48-16.03,1.14-32.64,2.44-46.7,10.22-6.47,3.58-12.23,8.46-19.07,11.25-4.57,1.87-9.49,2.75-14.1,4.52-16.2,6.21-26.24,22.11-35.14,37.01"/>
        <path class="cls-1" d="m505.68,873.42c-14.66-2.54-29.59-3.44-44.45-2.69-1.64.08-3.47.27-4.55,1.52-.84.98-1,2.35-1.11,3.64-.39,4.34-.77,8.68-1.16,13.02-.34,3.84-.68,7.72-.17,11.54.78,5.75,3.45,11.05,6.07,16.23,1.3,2.55,2.67,5.19,4.94,6.93,2.26,1.72,5.16,2.35,7.97,2.77,8.97,1.32,18.1.98,27.16.56,14.59-.68,29.18-1.55,43.65-3.48,5.47-.73,10.97-1.62,16.13-3.58,2.84-1.08,5.8-2.73,6.83-5.59.91-2.54.04-5.38-1.22-7.76-4.57-8.65-13.68-13.78-22.41-18.18-10.52-5.31-21.94-10.4-33.65-9.06"/>
        <path class="cls-1" d="m608.79,876c-40.52,6.09-83.21-12.42-122.14.37-1.39.46-2.83.99-3.85,2.04-2.71,2.77-1.26,7.43.79,10.72,6.07,9.69,16.32,16.66,27.57,18.72,11.69,2.15,23.87-.8,35.56,1.37-4.04,2.34-8.08,4.67-12.12,7.01-.45.26-.93.55-1.15,1.02-.67,1.46,1.47,2.52,3.07,2.7,7.68.88,15.37,1.76,23.05,2.63,5.28.6,10.59,1.21,15.89.81,5.53-.41,10.94-1.9,16.47-2.32,6.53-.49,13.07.52,19.6.96,10.17.68,20.38-.03,30.51-1.07,21.38-2.19,43.9-6.42,59.82-20.86,2.95-2.68,5.83-6.4,4.87-10.27-.49-1.97-1.91-3.57-3.5-4.83-5.34-4.2-12.51-5.03-19.27-5.62-27.74-2.44-55.58-3.6-83.43-3.48-.77,0-1.63,1.15-.87,1.17"/>
        <path class="cls-1" d="m736.23,877.66c-2.23-2.58-5.53-3.98-8.85-4.75-12.26-2.85-24.84,1.89-37.34,3.32-3.46.4-6.95.54-10.38,1.12-3.82.64-7.52,1.82-11.21,3-4.37,1.39-8.74,2.78-13.11,4.18-1.02.32-2.16.76-2.54,1.76-.64,1.67,1.3,3.11,2.92,3.86,3.79,1.75,7.58,3.5,11.37,5.25,2.4,1.11,5.24,3.05,4.66,5.63-.22.96-.91,1.75-1.66,2.4-3.16,2.74-7.46,3.61-11.47,4.8-4.01,1.19-8.23,3.09-10.06,6.85,5.3,2.62,11.66.31,17.54,1.02,4.87.59,9.28,3.25,14.14,3.96,2.05.3,4.14.24,6.21.18,21.7-.63,43.41-1.3,65.11-2.01,3.08-.1,6.15-.2,9.23-.3,3.59-.12,7.26-.25,10.63-1.5,2.7-1,5.32-2.99,5.84-5.82.27-1.48-.07-3-.43-4.45-1.07-4.27-2.41-8.47-3.99-12.57-.31-.81-.68-1.67-1.41-2.14-.74-.48-1.68-.46-2.55-.44-6.61.17-13.33-.42-19.53-2.7-6.21-2.28-11.9-6.37-15.25-12.07"/>
        <path class="cls-1" d="m676.67,913.86c.38-.73-.68-1.33-1.49-1.48-5.72-1.04-11.87-2.02-17.13.45-.9.42-1.82,1.02-2.15,1.96-.49,1.43.63,2.93,1.89,3.76,2.04,1.35,4.55,1.8,7,1.95,2.44.15,4.9.03,7.32-.36,1.8-.29,3.6-.73,5.18-1.64s2.92-2.34,3.42-4.09"/>
        <path class="cls-5" d="m468.24,931.85c-1.24,9.21-2.39,18.45-3.46,27.71-.36,3.1-.69,6.42.18,9.27.66,2.15,1.91,3.72,3.17,5.1,10.34,11.34,23.5,15.25,36.23,15.14s25.3-3.91,37.91-6.61c29.24-6.26,58.87-6.61,88.39-5.91,34.06.8,68.21,2.98,102.15-1.57,12.55-1.68,26.15-5.11,34.66-19.3,5.94-9.91,7.84-27.37,1.09-36.01-4.15-5.31-10.1-5.6-15.48-4.7-13.1,2.2-25.55,9.83-38.56,13.02-6.31,1.55-12.71,2.04-19.09,2.53-63.88,4.92-127.76,9.84-191.64,14.76"/>
        <path class="cls-5" d="m744.27,950.98c3.32-1.31,4-8.74,1.99-12.98s-5.52-6.01-8.8-7.54c-10.21-4.76-20.69-9.57-31.35-8.63-5.57.49-11.02,2.55-16.5,4.14-37.63,10.91-76.35-.18-114.66.21-14.16.15-28.29,1.87-42.41,3.59-18.12,2.21-36.24,4.42-54.36,6.62-3.37.41-7.37,1.49-8.7,6.23-1,3.58.14,7.89,2.05,10.46s4.43,3.77,6.9,4.77c11.7,4.74,23.83,6.46,35.93,7.23,20.56,1.3,41.14-.12,61.7-1.54,44.76-3.09,89.52-6.18,134.28-9.27.95-.07,2-.2,2.65-1.26s.36-3.31-.59-3.31"/>
        <path class="cls-5" d="m466.13,959.89c-2.49,7.57-4,15.88-4.44,24.32,12.12,3.87,24.58,5.29,36.94,4.22,2.41-.21,5.03-.65,6.76-3.23"/>
        <path class="cls-5" d="m773.04,919.1c-.49.35-.43-1.38.1-1.27s.75,1.09.86,1.89c2.36,18.46,3.18,37.38,2.43,56.16-.17,4.21-.73,9.14-3.21,10.98-1.44,1.07-3.14.74-4.73.41-29.2-6.06-58.84-3.06-88.31-3.48-31.89-.46-63.69-4.93-95.44-9.39-10.21-1.44-20.73-3.01-29.78-10.36,29.32-17.93,61.92-17.02,93.5-15.83"/>
        <path class="cls-5" d="m611.17,963.4c-26.97-8.76-55.88-2.95-80.44,16.19-.58,5.3,4.16,7.71,7.67,7.98,9.24.72,18.48,1.44,27.71,2.15,7.47.58,14.94,1.16,22.42,1.36,6.53.17,13.06.06,19.59-.06,8.4-.15,16.79-.3,25.19-.45,41.89-.75,83.91-1.51,125.44-10,.78-3.86-.73-8.11-2.9-10.43s-4.85-3.13-7.45-3.87c-34.78-9.9-69.95-16.52-105.26-19.97"/>
        <path class="cls-5" d="m246.31,487.48c-8.04,4.4-16.08,8.79-24.12,13.19-21.38,11.69-43.53,23.62-67.8,25.89-8.08.76-18.2,1.73-20.93,9.37-2.14,5.99,1.99,12.33,6.36,16.95,20.87,22.09,51.96,33.14,70.59,57.14,5.91,7.62,10.39,16.34,17.01,23.35,6.76,7.15,15.47,12.22,22.32,19.28,10.52,10.84,15.93,25.56,24.49,38.01,3.73,5.42,8.29,10.58,14.34,13.15,4.07,1.73,8.55,2.18,12.96,2.56,8.37.72,16.88,1.23,25.08-.57s16.16-6.24,20.47-13.45c4.37-7.32,4.43-16.54,2.33-24.81-2.1-8.26-6.16-15.87-9.72-23.61-9.75-21.18-15.94-43.8-24.48-65.49-2.2-5.6-4.56-11.13-6.92-16.66-5.53-12.99-11.07-25.97-16.6-38.96-5.84-13.72-13.09-28.81-27.09-33.92-11.71-4.27-24.63-.17-36.4,3.93"/>
        <path class="cls-5" d="m251.49,611.45c-21.12-23.42-49.01-39.47-76.39-55.11-2.54-1.45-5.18-2.94-8.1-3.17-6.57-.52-12.15,5.9-12.71,12.47s2.68,12.88,6.65,18.14,8.78,9.9,12.2,15.53c5.38,8.86,6.91,19.42,9.34,29.49,7.46,30.88,24.03,58.66,40.38,85.9,8.62,14.37,17.35,28.88,29.04,40.89,14.29,14.69,32.58,25.2,45.98,40.71,5.49,6.35,10.3,13.66,17.63,17.76,7.75,4.33,17.2,4.38,25.95,2.91,32.79-5.5,58.91-29.54,82.96-52.51,14.3-13.66,28.61-27.32,42.91-40.98,15.53-14.83,31.22-29.86,42.64-48.04,10.6-16.88,17.18-35.97,22.42-55.21,7.22-26.52,11.85-55.74.42-80.74-7.11-15.55-21.97-28.9-39.07-28.71-13.98.15-26.28,9-36.61,18.41-6.73,6.14-13.11,12.71-18.55,20.02-7.44,10-13.04,21.23-18.17,32.59-9.68,21.43-18.87,44.84-38.3,58.1-12.23,8.35-28.19,12.4-36.36,24.76-2.68,4.05-4.96,9.29-9.72,10.27-3.35.7-6.7-1.1-9.48-3.09-11.24-8.02-19.11-20.07-24.26-32.88-3.06-7.62-5.61-16.08-12.18-21-3.64-2.72-8.14-4.02-12.6-4.88-12.53-2.41-25.63-1.75-37.85,1.91"/>
        <path class="cls-5" d="m337.19,800.84c-8.35,1.97-17.12-1.59-23.96-6.77s-12.33-11.91-18.72-17.63c-12.33-11.03-28.1-18.16-44.52-20.12,5.68,13.73,14.44,26.18,25.45,36.16,5.36,4.86,11.24,9.14,16.4,14.21,8.01,7.89,14.13,17.57,22.38,25.22,8.24,7.65,19.76,13.25,30.61,10.27,8.37-2.3,14.59-9.13,20.3-15.67,8.82-10.08,17.61-20.18,26.4-30.28,6.11-7.02,12.22-14.04,18.32-21.06,1.78-2.04,3.68-4.53,3.09-7.17-.57-2.58-3.25-4.04-5.69-5.04-18.46-7.53-39.23-7.31-58.92-4.18-19.69,3.12-38.85,9.01-58.48,12.51,2.15-1.39,4.29-2.77,6.44-4.16"/>
        <path class="cls-5" d="m554.06,378.98c-19.43-5.17-39.07-10.37-59.17-11.03-20.1-.66-41,3.63-57.01,15.79-23.66,17.97-32.47,49.14-37.75,78.38-4.36,24.15-7.29,48.54-11.45,72.73-9.65,56.11-25.92,111.08-48.36,163.4,77.81-16.34,154.82-36.45,230.68-60.23,40.37-12.65,81.43-26.5,123.72-25.28,13.55.39,27.11,2.33,40.6,1.04,33.65-3.23,62.2-26.05,84.7-51.28,4.43-4.96,8.96-10.78,8.55-17.42-.25-3.99-2.3-7.65-4.73-10.82-8.2-10.68-20.67-16.98-31.92-24.38s-22.28-17.36-24.48-30.64c-.99-5.97-.08-12.14-1.16-18.09-2.44-13.49-14.23-22.99-25.2-31.21,3.82,1.21,7.44-3.8,6.05-7.56-1.4-3.76-5.89-5.57-9.89-5.26s-7.66,2.23-11.3,3.9c-21.72,9.99-46.86,11.4-69.89,5.42-11.62-3.02-22.76-7.92-32.74-14.6-8.05-5.39-13.32-14.27-21.22-19.24-6.14-3.86-14.79-4.79-21.7-6.62-8.78-2.33-17.55-4.67-26.33-7Z"/>
        <path class="cls-5" d="m781.69,426.58c-30.42-10.83-65.11-1.93-92.08,15.83-26.96,17.76-47.6,43.43-67.29,69.02-34.91,45.38-68.88,92.94-86.28,147.49-6.62,20.75-10.7,43.39-4.16,64.17,8.04,25.56,30.77,43.84,54.64,56.04,23.86,12.2,49.9,19.93,73.11,33.33,15.28,8.82,29.24,20.06,45.47,26.99,26.73,11.41,57.58,10.06,85.42,1.71,27.84-8.34,53.22-23.21,77.9-38.56,7.08-4.4,14.54-9.32,17.8-17,4.27-10.06.83-23.62,9.03-30.84,8.2-7.23,21.08-2.09,31.82-4.16,5.29-1.02,10.04-3.84,14.57-6.75,20.79-13.36,39.61-29.79,55.65-48.59,2.31-2.7,4.61-5.56,5.58-8.97,1.09-3.84.37-7.94-.39-11.86-7.14-36.56-17.85-72.42-31.95-106.9-1.1-2.68-2.39-5.56-4.96-6.91-3.4-1.79-7.52-.19-10.98,1.48-24.03,11.62-46.34,26.78-65.98,44.85-5.18-9.34,3.01-20.45,3.24-31.13.36-16.75-17.64-26.72-31.31-36.4-39.5-27.96-59.94-81.49-105.68-97.3-3.77-1.3-8.12-2.26-11.59-.28"/>
        <path class="cls-5" d="m809.96,428.19c-17.48-5.8-36.74-4.37-54.36.97s-33.88,14.37-49.7,23.79c-10.95,6.52-21.88,13.35-30.84,22.42s-15.88,20.68-17.11,33.36c-.13,1.31-.18,2.7.46,3.85.91,1.63,2.9,2.27,4.71,2.71,23.91,5.75,48.99.74,73.54,2.24,9.94.61,19.82,2.29,29.4,5.02,12.34,3.51,25.1,9.57,30.92,21.01,5.83,11.45,3.18,25.45-1.9,37.25s-12.44,22.63-16.25,34.9c19.68,7.73,40.65,12.18,61.77,13.09,5.65.24,11.69.13,16.4-2.98,10.43-6.89,8.12-22.99,14.57-33.7,4.13-6.86,11.71-11.13,15.66-18.09,3.75-6.6,3.71-14.62,3.37-22.2-.64-14.77-1.99-29.5-4.03-44.14-2.02-14.48-4.91-29.35-13.16-41.41-6.4-9.35-15.59-16.39-24.82-22.96-8.54-6.08-17.34-11.97-27.1-15.81s-20.63-5.53-30.8-3.01c-1.91.47-4.2,1.69-3.95,3.64"/>
        <path class="cls-5" d="m587.83,671.02c1.75-13.83-.34-28.11-5.95-40.87-1.72-3.91-3.84-7.76-7.03-10.6-4.91-4.37-11.77-5.83-18.34-6.04-20.58-.65-40.37,9.5-55.34,23.66s-25.76,32.07-35.83,50.03c-6.74,12.01-13.25,24.16-19.51,36.43-.81,1.58-1.66,3.22-3.06,4.3-1.09.84-2.45,1.28-3.8,1.56-5.48,1.12-11.14-.17-16.74-.23-5.6-.06-11.91,1.65-14.51,6.61-1.21,2.31-1.42,5-1.51,7.6-.34,10.63,1.13,21.31,4.34,31.45,4.31-3.34,7.68-7.89,9.63-12.98,6.34,32.49,5.17,66.43-3.4,98.41,4.81,2.14,10.36.27,15.27-1.61,15.96-6.09,31.92-12.19,47.88-18.28,29.48-11.26,59.09-22.55,89.87-29.48,32.15-7.24,65.38-9.66,96.93-19.18,6.14-1.85,12.38-4.07,17.17-8.33,5.76-5.11,8.78-12.56,11.37-19.81,3.53-9.87,6.61-19.91,9.23-30.06,2.39-9.24,4.4-18.93,2.4-28.27-2.84-13.27-13.28-23.56-24.31-31.47-15.75-11.3-33.73-19.48-52.6-23.92-12.3-2.9-25.49-4.16-37.39.12"/>
        <path class="cls-5" d="m485.14,832.55c-23.92,6.8-46.74,17.45-67.32,31.41,11.26,5.88,24.38,6.68,37.06,7.36,41.3,2.22,82.61,4.44,123.91,6.65,47.65,2.56,95.44,5.12,143.07,2.04,20.77-1.34,41.82-3.85,60.93-12.1s36.25-22.99,43.2-42.6c2.65-7.48,3.67-16.11-.02-23.14-2.75-5.23-7.73-8.89-12.72-12.05-28-17.71-61.21-25.46-94.14-29.06-67.67-7.41-137.09,1.71-200.55,26.33-12.17,4.72-24.51,10.27-33.34,19.9"/>
        <path class="cls-5" d="m933.15,717.49c-3.97-5.19-11.27-6.65-17.78-6.03-14.19,1.37-26.3,10.49-37.23,19.64-17.53,14.67-34.39,30.51-47.23,49.43-12.85,18.91-21.53,41.23-21.31,64.09.02,2.45.13,5-.85,7.25-1.51,3.45-5.2,5.34-8.65,6.85-12.57,5.51-25.74,9.63-39.2,12.28-10.97,2.16-23.85,4.51-28.82,14.53,10.38,1.57,20.87,2.81,31.36,2.27,6.91-.36,13.76-1.48,20.6-2.6,4.99-.82,9.97-1.64,14.96-2.46,5.3-.87,10.74-1.79,15.38-4.51,4.69-2.75,8.16-7.12,11.49-11.42,17.9-23.13,34.71-47.1,50.35-71.81,4.76-7.52,9.46-15.21,12.02-23.73.39-1.3.72-2.74.13-3.96-.51-1.06-1.61-1.7-2.67-2.21-3.71-1.77-7.81-2.69-11.91-2.68"/>
        <path class="cls-5" d="m849.71,817.64c-7.96.4-12.71,8.7-16.66,15.64-11.78,20.69-29.43,37.98-50.36,49.32-1.29.7-2.62,1.38-4.06,1.61-3.43.53-7.87-1.24-9.83,1.62,6.57,5.58,16.27,4.98,24.74,3.36,24.39-4.69,48.4-16.12,63.31-35.99,5.85-7.8,10.61-17.11,19.26-21.61,3.27-1.7,6.93-2.6,10.14-4.42,3.52-1.98,6.34-4.97,9.11-7.91,27.96-29.73,55.93-59.46,83.89-89.19,11.47-12.19,23.25-24.9,28.69-40.73.97-2.83,1.73-5.86,1.07-8.78-.87-3.87-4.1-6.8-7.57-8.72-8.75-4.86-19.56-4.8-29.17-2.04-9.62,2.76-18.32,7.98-26.89,13.14-11.18,6.73-22.36,13.46-33.55,20.19-4.99,3.01-10.49,6.73-11.37,12.5"/>
        <path class="cls-5" d="m739.68,927.86c.71-1.01-.01-2.47-1.05-3.14s-2.31-.84-3.44-1.33c-1.45-.63-2.61-1.76-3.95-2.6-3.26-2.06-7.4-2.33-11.18-1.56-3.78.77-7.29,2.49-10.75,4.19-.42.21-.86.42-1.17.77-.78.84-.63,2.25.04,3.18s1.74,1.48,2.78,1.95c5.35,2.38,11.23,3.32,17.07,3.7,1,.06,2.06.1,2.94-.37.88-.47,1.47-1.65.96-2.51"/>
        <path class="cls-5" d="m819.38,861.08c.43-4.92-3.94-9.72-8.87-9.76-1.59-.01-3.16.4-4.67.92-2.9,1.01-5.66,2.43-8.15,4.23-2.53,1.81-5,4.68-4.18,7.68.47,1.74,2.01,3.04,3.71,3.65s3.54.63,5.34.53c4.22-.22,8.62-1.13,11.83-3.88,3.22-2.74,4.79-7.74,2.62-11.36"/>
        <path class="cls-5" d="m468.54,945.62c1.99,3.41,6.51,4.18,10.45,4.43,18.24,1.15,36.5-1.06,54.74-2.32,46.24-3.2,92.65-.27,138.99.82,9.91.23,19.85.38,29.72-.51,4.17-.38,8.4-.96,12.16-2.81,3.75-1.85,7-5.16,7.79-9.27,1-5.22-2.25-10.58-6.75-13.41s-10-3.58-15.32-3.72c-15.41-.39-30.57,3.81-45.97,4.54-16.87.8-33.7-2.56-50.58-2.19-13.94.31-27.69,3.16-41.53,4.85-17.01,2.08-34.16,2.41-51.27,2.82-8.24.2-17.08,1.48-25.28.78-3.95-.34-8.67-4.37-12.54-3.04-5.92,2.05-7.31,14.39-4.61,19.03Z"/>
        <path class="cls-5" d="m482.64,980.57c-6.08-1.24-12.26-1.94-18.46-2.11-.65-.02-1.36-.01-1.87.41-.6.5-.67,1.38-.7,2.16-.09,3.07-.18,6.13-.27,9.2,30.53-.15,61.05-.31,91.58-.46,6.67-.03,14.13-.4,18.69-5.26-19.93-10.56-43.87-10.34-66.12-6.65"/>
        <path class="cls-5" d="m739.31,975.85c.7-.32.56-1.46-.07-1.9-.63-.44-1.47-.39-2.24-.31-22.31,2.2-44.32,7.4-65.25,15.4.33,1.65,2.48,2.02,4.16,2.03,9.55.04,19.11.07,28.66.11,21.58.08,43.26.15,64.6-3.04.43-.06.88-.14,1.22-.41.36-.29.53-.75.63-1.19.81-3.43-1.35-7-4.28-8.94-2.94-1.94-6.51-2.59-9.98-3.19-9.6-1.65-19.48-3.17-29.02-1.16"/>
        <path class="cls-2" d="m795.08,190.57c.06-7.14-3.88-17.32-12.25-17.69-3.96-.18-7.66,2.14-10.55,4.62-2.5,2.15-4.56,4.85-6.17,7.72-3.36,6.02-4.91,12.82-5.79,19.59-1.13,8.61-1.51,17.57-.37,26.2,1.09,8.27,5.25,17.34,14.21,19.29,1.41.31,2.9-.42,3.3-1.87.37-1.34-.45-2.99-1.87-3.3-6.12-1.34-9.03-7.4-10.08-13.05-.67-3.6-.76-7.32-.8-10.97-.04-3.78.11-7.57.44-11.34.93-10.7,3.32-24.45,13.54-30.32,1.37-.79,3.04-1.48,4.64-1.14,1.39.29,2.53,1.35,3.36,2.45,2.11,2.77,3.05,6.36,3.02,9.8-.02,3.47,5.34,3.47,5.37.01h0Z"/>
        <path class="cls-2" d="m807.19,175.52c1.78,13.37,3.56,26.77,4.04,40.26.47,13.27-.6,26.5-2.89,39.57-2.27,12.97-5.55,25.74-9.15,38.4-3.5,12.28-7.36,24.47-11.75,36.46-4.93,13.45-10.54,26.63-17.05,39.4-1.35,2.66,1.97,5.46,4.21,3.25,10.5-10.3,20.04-21.58,28.51-33.6,8.38-11.9,15.68-24.55,21.79-37.75,6.38-13.8,11.46-28.17,15.18-42.91,4.09-16.2,6.67-32.73,8.62-49.31.98-8.31,1.79-16.65,2.55-24.98.37-4.12.77-8.25,1.1-12.38.16-2-.52-4.39-2.73-4.96-2.07-.54-4.04,1.1-4.07,3.2-.03,1.94,1.79,3.89,3.84,3.07,1.35-.53,2.29-1.79,1.87-3.3-.35-1.28-1.95-2.41-3.3-1.87.14-.02.29-.03.43-.05.63.26,1.26.52,1.9.79.76.95.82,1.84.18,2.67-.39.23-.79.46-1.18.69.05-.02.1-.03.16-.05h-1.43c-.33-.33-.65-.66-.98-.99-.01-.19-.01-.1,0,.25-.11.37-.07.88-.1,1.27-.08.95-.17,1.9-.25,2.86-.18,2.06-.36,4.13-.55,6.19-.34,3.81-.69,7.62-1.06,11.43-.74,7.62-1.56,15.22-2.55,22.81-1.97,15.2-4.65,30.35-8.63,45.17-7.05,26.2-18.58,51.06-33.98,73.41-8.56,12.43-18.33,24-29.1,34.57,1.4,1.08,2.81,2.17,4.21,3.25,11.77-23.11,20.69-47.57,27.98-72.42,7.5-25.56,13.91-51.88,13.71-78.69-.12-15.31-2.14-30.53-4.15-45.68-.19-1.44-1.1-2.68-2.68-2.68-1.32-.04-2.89,1.2-2.7,2.65h0Z"/>
        <path class="cls-2" d="m577.93,117.72c.8-17.47,6.78-34.34,16.1-49.05,9.56-15.08,22.61-27.69,37.63-37.29,15.82-10.11,33.5-16.96,51.76-21.17,19.86-4.59,41.03-6.95,61.12-2.47,10.13,2.26,19.9,5.9,29.47,9.87,9.1,3.77,18.57,7.37,26.96,12.61,1.96,1.23,3.85,2.56,5.62,4.04,1.11.93,2.71,1.09,3.79,0,.96-.96,1.12-2.86,0-3.79-7.89-6.61-17.37-10.55-26.74-14.57-9.9-4.24-19.86-8.42-30.23-11.42C742.85,1.43,731.99-.11,720.99,0c-10.64.12-21.3,1.48-31.74,3.49-19.11,3.67-37.84,10.11-54.72,19.86-16.31,9.42-30.65,21.98-41.59,37.34-10.58,14.86-17.72,32.18-19.84,50.34-.26,2.22-.44,4.45-.54,6.69-.15,3.45,5.21,3.44,5.37-.01h0Z"/>
        <path class="cls-2" d="m658.7,115.98c-19.29-13.33-44.41-16.11-66.79-10.17-11.23,2.98-21.92,8.07-31.54,14.56-9.8,6.62-18.93,14.65-26.19,24.01-7.74,9.98-12.37,21.56-14.57,33.95-2.33,13.09-2.54,26.51-1.82,39.75,1.42,26.42,6.71,52.49,7.62,78.95.78,22.79-1.53,46.6-12.36,67.05-1.31,2.47-2.73,4.87-4.26,7.2-1.9,2.9,2.75,5.59,4.63,2.71,12.71-19.42,17.08-42.87,17.46-65.75.42-25.4-4.17-50.47-6.61-75.66-1.3-13.41-1.99-26.92-.99-40.38.89-11.98,3.15-24.19,8.84-34.89,5.48-10.32,13.84-18.9,22.82-26.25,8.68-7.1,18.5-13.03,28.99-17.03,20.85-7.96,44.94-8.26,64.98,2.27,2.45,1.29,4.82,2.73,7.1,4.31,1.19.82,2.98.22,3.67-.96.76-1.33.21-2.84-.98-3.67h0Z"/>
        <path class="cls-2" d="m679.49,153.27c-6.98-4.38-15.87-.82-20.68,5.12-6.35,7.84-5.25,18.39-3.3,27.63,1.93,9.14,3.92,18.2,5.05,27.49,1.09,9,1.65,18.07,1.69,27.14.08,18.26-1.95,36.5-6.03,54.29-4.06,17.72-10.1,35-18.11,51.34-4.02,8.2-8.52,16.17-13.49,23.84-4.71,7.28-9.73,15.3-16.83,20.52-1.79,1.32-3.71,2.43-5.74,3.33-1.33.58-1.63,2.52-.96,3.67.8,1.37,2.34,1.55,3.67.96,8.47-3.74,14.44-11.2,19.64-18.59,5.18-7.36,9.91-15.04,14.19-22.96,8.62-15.98,15.41-32.98,20.22-50.48,4.84-17.59,7.71-35.74,8.54-53.96.82-18.08-.42-36.26-3.72-54.06-.87-4.68-1.98-9.29-2.96-13.95-.99-4.71-1.81-9.62-1.17-14.45.52-3.91,2.03-7.23,4.91-9.92,2.35-2.19,5.44-3.66,8.46-3.58,1.39.04,2.58.42,3.9,1.25,2.95,1.84,5.65-2.8,2.72-4.63h0Z"/>
        <path class="cls-2" d="m738.41,317.31c-.37,26.29-.91,52.59-1.11,78.88-.06,7.4.08,14.8,1.01,22.15.18,1.44,1.1,2.68,2.68,2.68,1.31,0,2.87-1.24,2.68-2.68-1.64-12.93-.96-26.07-.78-39.07.19-13.16.37-26.32.56-39.48.11-7.5.21-14.99.32-22.49.05-3.44-5.31-3.45-5.36,0h0Z"/>
        <path class="cls-2" d="m812.91,34.03c20.61,4.73,37.39,19.66,47.18,38.08,11.1,20.87,12.01,45.4,5.9,67.94-3.67,13.55-9.74,26.34-17.52,38-.81,1.21-.23,2.97.96,3.67,1.32.77,2.86.25,3.67-.96,14.39-21.55,23.34-47.63,21.92-73.74-1.24-22.97-11.08-45.21-28.19-60.77-9.2-8.37-20.34-14.6-32.5-17.39-3.35-.77-4.79,4.4-1.42,5.17h0Z"/>
        <path class="cls-2" d="m738.43,368.11c3.23,5.44,10.4,7.77,16.34,8.56,6.15.82,12.57-.2,17.82-3.63,2.88-1.88.2-6.53-2.71-4.63-4.21,2.75-9.21,3.6-14.17,3.02-2.43-.29-4.88-.96-7.13-1.9-2.13-.89-4.31-2.08-5.52-4.12-1.76-2.98-6.4-.28-4.63,2.7h0Z"/>
        <path class="cls-2" d="m856.67,169.05c-4.99,29.58-5.92,59.8-2.57,89.62.82,7.32,2,14.56,3.17,21.83.73,4.53,1.59,11.02-2.53,14.23-2.09,1.63-4.91,2.09-7.44,2.62-2.88.61-5.8,1.27-8.35,2.82-2.77,1.68-4.91,4.12-6.95,6.6-2.41,2.93-4.8,5.88-7.2,8.82-5.04,6.18-9.93,12.53-15.26,18.47-4.46,4.97-9.55,9.7-15.95,11.96-1.37.48-2.28,1.83-1.87,3.3.36,1.32,1.93,2.36,3.3,1.87,12.79-4.53,20.93-16.32,29.17-26.4,2.52-3.09,5.05-6.18,7.57-9.28,2.2-2.7,4.31-5.52,6.72-8.04,2.12-2.21,4.4-3.54,7.36-4.3,2.72-.7,5.54-1.04,8.17-2.05,2.98-1.14,5.58-3.01,7.17-5.84,1.44-2.56,1.96-5.54,2-8.46.04-3.08-.45-6.16-.98-9.19-.64-3.66-1.23-7.33-1.74-11.02-2.1-14.97-3.06-30.1-2.99-45.21.09-17.06,1.53-34.1,4.37-50.93.24-1.43-.38-2.89-1.87-3.3-1.28-.35-3.06.44-3.3,1.88h0Z"/>
        <path class="cls-2" d="m646.21,344.95c21.85,9.67,47.02,7.26,68.16-3.15,21.69-10.68,37.89-30.01,47.92-51.71,5.73-12.4,9.65-25.55,11.96-39.01.24-1.43-.38-2.89-1.87-3.3-1.29-.35-3.05.44-3.3,1.87-3.89,22.73-12.39,45.27-27.17,63.2-7.2,8.73-15.75,16.27-25.61,21.86-9.63,5.46-20.42,9.2-31.44,10.49-12.14,1.42-24.69.07-35.93-4.9-1.32-.59-2.88-.39-3.67.96-.68,1.16-.38,3.1.95,3.69h0Z"/>
        <path class="cls-2" d="m606.89,399.99c4.28,8.3,13.22,12.78,21.35,16.48,8.86,4.03,18.1,7.21,27.58,9.42,18.94,4.43,38.63,5.15,57.85,2.24,10.73-1.63,21.26-4.45,31.35-8.44,1.35-.53,2.29-1.8,1.87-3.3-.35-1.28-1.94-2.41-3.3-1.87-17.36,6.85-35.94,10.21-54.6,10.01-18.62-.2-37.2-3.93-54.4-11.09-4.53-1.89-9.05-3.98-13.26-6.52-4-2.42-7.64-5.41-9.81-9.63-1.58-3.08-6.21-.37-4.63,2.7h0Z"/>
        <path class="cls-2" d="m601.62,386.3c-24.7-2.5-48.26-10.9-72.38-16.31-21.18-4.76-43.59-7.11-64.9-1.75-10.38,2.61-20.18,7.19-28.61,13.82-8.37,6.58-15.13,15.11-20.38,24.33-11.85,20.82-15.78,44.75-19.61,68.06-4.25,25.82-8.49,51.64-12.74,77.46-.53,3.2-1.05,6.39-1.58,9.59-.23,1.43.37,2.89,1.87,3.3,1.28.35,3.06-.44,3.3-1.87,4.21-25.57,8.41-51.15,12.62-76.72,3.85-23.41,6.72-47.87,16.88-69.58,4.38-9.37,10.07-18.18,17.44-25.48,7.26-7.19,16.09-12.54,25.75-15.82,19.74-6.72,41.41-5.61,61.6-1.62,24.07,4.75,47.3,13.16,71.6,16.82,3.03.46,6.07.85,9.12,1.15,1.44.15,2.68-1.34,2.68-2.68.02-1.59-1.21-2.56-2.66-2.7h0Z"/>
        <path class="cls-2" d="m340.86,696.38c5.9-16.79,11.81-33.58,17.71-50.37,5.88-16.71,11.75-33.43,17.63-50.14,3.34-9.49,6.68-18.99,10.01-28.48.48-1.37-.55-2.94-1.87-3.3-1.48-.41-2.82.5-3.3,1.87-5.9,16.79-11.81,33.58-17.71,50.37-5.88,16.71-11.75,33.43-17.63,50.14-3.34,9.49-6.68,18.99-10.01,28.48-.48,1.37.55,2.94,1.87,3.3,1.48.42,2.82-.49,3.3-1.87h0Z"/>
        <path class="cls-2" d="m429.88,517.47c.96,41.66-1.19,83.31-3.95,124.87-2.74,41.38-6.07,82.73-7.47,124.18-.79,23.21-.95,46.44-.1,69.64.13,3.44,5.49,3.46,5.37,0-1.54-41.63.26-83.29,2.89-124.84,2.62-41.39,6.04-82.74,7.77-124.19.97-23.21,1.39-46.44.86-69.67-.09-3.44-5.45-3.45-5.37,0h0Z"/>
        <path class="cls-2" d="m411.93,767.97c-7.22,13.53-17.12,25.84-27.64,36.93-5.19,5.48-10.67,10.68-16.41,15.58-5.48,4.68-11.17,9.4-17.56,12.8-5.97,3.18-12.57,4.61-19.21,2.86-6.39-1.69-11.92-5.7-16.77-10.07-5.42-4.88-10.25-10.4-15.16-15.78-5.32-5.83-10.59-11.7-15.77-17.65-20.54-23.56-39.53-48.41-54.7-75.81-15.05-27.19-26.86-55.98-39.26-84.42-6.18-14.16-12.51-28.26-19.46-42.05-7.29-14.46-15.3-28.56-24-42.22-2.13-3.35-4.3-6.66-6.51-9.96-1.91-2.85-6.56-.17-4.63,2.71,9.21,13.73,17.73,27.91,25.5,42.5,7.52,14.11,14.27,28.62,20.74,43.23,12.79,28.88,24.56,58.28,39.37,86.22,14.97,28.23,33.74,53.93,54.48,78.17,5.25,6.13,10.6,12.18,16.01,18.17,5.06,5.6,10.07,11.28,15.39,16.64,9.78,9.86,22.32,18.93,36.96,15.8,7.34-1.57,13.82-5.83,19.68-10.33,6.09-4.67,11.92-9.67,17.47-14.96,11.21-10.69,21.33-22.63,29.96-35.5,2.21-3.29,4.27-6.67,6.14-10.17,1.64-3.03-2.99-5.74-4.62-2.69h0Z"/>
        <path class="cls-2" d="m148.32,528.75c20.4.57,40.24-5.34,58.48-14.11,9.22-4.43,18.07-9.59,26.65-15.13,4.27-2.75,8.45-5.62,12.63-8.51,3.71-2.57,8-5.59,12.76-5.11,4.37.44,7.97,3.84,10.83,6.89,3.34,3.56,6.35,7.41,9.1,11.44,5.63,8.27,10.16,17.22,14.25,26.33,4.31,9.6,8.22,19.38,12.21,29.12,4.34,10.58,8.6,21.19,12.62,31.9,8.07,21.52,15.08,43.42,22.33,65.22.89,2.68,1.78,5.37,2.68,8.05,1.08,3.26,6.27,1.86,5.17-1.43-7.37-22.16-14.48-44.43-22.46-66.38-7.75-21.34-16.39-42.41-25.32-63.27-4-9.33-8.3-18.57-13.6-27.24-2.64-4.31-5.54-8.46-8.71-12.4-3.15-3.91-6.56-7.84-10.79-10.63-4.26-2.81-9.35-3.79-14.27-2.24-4.98,1.56-9.15,4.9-13.4,7.81-8.49,5.82-17.19,11.34-26.24,16.25-17.69,9.61-37.09,17.03-57.38,17.99-2.51.12-5.03.14-7.54.07-3.46-.08-3.46,5.28,0,5.38h0Z"/>
        <path class="cls-2" d="m251.5,474.7c-4.61-23.36-10.06-46.52-15.69-69.66-1.6-6.56-3.19-13.11-4.79-19.67-.57-2.33-3.71-2.52-4.9-.64-.57.89-1.13,1.78-1.7,2.67-1.86,2.92,2.78,5.61,4.63,2.71.57-.89,1.13-1.78,1.7-2.67-1.63-.21-3.27-.43-4.9-.64,5.63,23.12,11.41,46.2,16.39,69.47,1.41,6.61,2.77,13.23,4.08,19.86.28,1.42,1.98,2.24,3.3,1.87,1.49-.41,2.16-1.87,1.88-3.3h0Z"/>
        <path class="cls-2" d="m154.88,416.92c1.9,2.01,3.07,4.56,4.18,7.07,1.14,2.57,2.19,5.17,3.19,7.8,2.1,5.55,3.91,11.2,5.43,16.93,3.02,11.39,4.88,23.06,5.5,34.83.35,6.68.31,13.38-.11,20.06,1.53-.63,3.05-1.26,4.58-1.9-1.71-2.11-2.57-5.12-2.17-7.82.21-1.43-.36-2.88-1.87-3.3-1.26-.35-3.09.43-3.3,1.87-.7,4.79.5,9.27,3.55,13.04,1.59,1.96,4.45.19,4.58-1.9,1.54-24.51-2.11-49.38-10.69-72.4-1.2-3.21-2.49-6.38-3.87-9.52-1.36-3.1-2.85-6.09-5.2-8.57-2.39-2.49-6.18,1.31-3.8,3.81h0Z"/>
        <path class="cls-2" d="m136.41,412.85c-24.6-6.59-50.34-4.36-75.11.05-7,1.25-13.96,2.68-20.92,4.16,1.1,1.1,2.2,2.2,3.3,3.3.32-1.17.64-2.34.96-3.5.92-3.33-4.26-4.76-5.17-1.43-.32,1.17-.64,2.34-.96,3.5-.57,2.06,1.34,3.72,3.3,3.3,23.99-5.1,48.55-9.8,73.18-7.7,6.76.58,13.44,1.73,19.99,3.49,3.35.9,4.77-4.27,1.43-5.17h0Z"/>
        <path class="cls-2" d="m34.71,411.66c-1.37-3.56.07-7.31,2.6-9.97,2.98-3.14,7.01-5.08,10.8-7.05,8.67-4.53,17.59-8.58,26.7-12.13,1.1-.43,1.99-1.32,1.97-2.59-.03-1.86-.74-3.62-2.15-4.86-1.09-.96-2.72-1.07-3.79,0-.98.98-1.09,2.83,0,3.79.39.34.57.55.58,1.07.66-.86,1.31-1.72,1.97-2.59-7.92,3.08-15.71,6.5-23.31,10.29-6.71,3.34-14.84,6.71-18.95,13.35-2.19,3.55-3.12,8.14-1.59,12.11.52,1.35,1.8,2.28,3.3,1.87,1.29-.35,2.39-1.93,1.87-3.29h0Z"/>
        <path class="cls-2" d="m213.53,379.34c1.5.67,3,1.35,4.5,2.02,1.35.61,2.84.38,3.67-.96,14.22-22.97,15.17-51.37,29.23-74.43,3.9-6.4,8.55-12.27,13.85-17.56,1.7-1.7.38-4.47-1.9-4.58-11.51-.53-23.41-.34-34.11,4.46-9.69,4.35-16.78,12.65-22.16,21.58-3.05,5.06-5.62,10.39-8.15,15.72,1.01-.41,2.02-.82,3.03-1.23-22.55-4.96-45.61-10.03-68.84-8.47-5.8.39-11.5,1.37-17.24,2.21-5.48.8-11.1,1.2-16.51-.23-5.29-1.39-10.22-3.9-15.3-5.88-5.13-1.99-10.36-3.72-15.66-5.18-10.76-2.96-21.84-4.81-32.98-5.54-5.38-.35-10.85-.57-16.23-.19-5.33.38-10.55,1.75-14.72,5.23-3.04,2.54-4.44,6.22-3.89,10.13.5,3.51,2.41,6.72,4.41,9.57,2.31,3.29,5.14,6.37,6.41,10.16,1.32,3.93,1.4,7.84,1.97,11.95.55,3.97,1.8,7.66,4.39,10.77,2.3,2.77,5.55,4.64,8.76,6.17,4.08,1.94,8.19,3.21,12.63,4.02,4.4.81,8.88,1.33,13.21,2.47,1.86.49,3.59,1.07,5.22,1.97,3.03,1.66,5.73-2.94,2.71-4.63-.93-.52-1.87-1.05-2.8-1.57-3.02-1.69-5.72,2.94-2.71,4.63.93.52,1.87,1.05,2.8,1.57.9-1.54,1.81-3.09,2.71-4.63-7.59-4.16-16.72-3.91-24.92-6.12-3.57-.97-7.07-2.54-10.2-4.53-2.46-1.56-4.5-3.74-5.48-6.43-1.38-3.8-1.44-7.97-2-11.94-.56-3.92-1.78-7.63-3.97-10.95-2.04-3.1-4.59-5.85-6.42-9.27-.74-1.38-1.2-2.42-1.49-4.1-.1-.55-.02-.18-.01-.07-.02-.21-.03-.43-.04-.64,0-.16.03-.96.01-.79-.02.16.12-.61.17-.77.05-.17.1-.33.16-.49.07-.17.06-.16-.02.03l.18-.36c.77-1.38,1.88-2.38,3.42-3.3,2.07-1.24,4.31-1.97,6.69-2.38,4.96-.86,10.26-.54,15.27-.33,10.68.45,21.29,2,31.67,4.59,5.18,1.3,10.31,2.85,15.34,4.66,4.97,1.79,9.76,4.02,14.7,5.88,5.23,1.97,10.6,2.86,16.19,2.56,5.55-.3,10.99-1.46,16.49-2.18,22.23-2.92,44.61,1.14,66.31,5.8,2.73.59,5.46,1.19,8.19,1.79,1.08.24,2.51-.14,3.03-1.23,4.18-8.81,8.49-17.89,14.98-25.26,3.18-3.61,6.84-6.72,11.09-8.99,4.62-2.46,9.82-3.84,15-4.49,6.2-.78,12.48-.66,18.71-.38-.63-1.53-1.26-3.05-1.9-4.58-9.83,9.82-17.34,21.55-22.46,34.44-4.95,12.47-7.83,25.61-12.16,38.29-2.42,7.09-5.35,13.98-9.3,20.36,1.22-.32,2.45-.64,3.67-.96-1.5-.67-3-1.35-4.5-2.02-1.32-.59-2.88-.38-3.67.96-.66,1.12-.36,3.05.97,3.65h0Z"/>
        <path class="cls-2" d="m19.34,325.71c4.97-.62,10.18-1.3,15.19-.94,4.6.33,8.78,2.97,12.99,4.65,8.98,3.59,18.48,5.61,28.02,7.01,5.53.81,11.08,1.43,16.63,2,3,.31,3.66-4.66.71-5.27-1.12-.23-2.24-.47-3.36-.7-1.42-.29-2.9.41-3.3,1.87-.37,1.33.45,3,1.87,3.3,1.12.23,2.24.47,3.36.7.24-1.76.48-3.51.71-5.27-9.55-.99-19.1-2.09-28.46-4.27-4.65-1.08-9.25-2.42-13.71-4.14-4.43-1.7-8.65-4.33-13.4-5.03-5.65-.83-11.64.01-17.26.71-1.44.18-2.68,1.1-2.68,2.68,0,1.33,1.24,2.88,2.69,2.7h0Z"/>
        <path class="cls-2" d="m19.31,345.14c3.5-.42,6.78.49,10.06,1.67,3.31,1.19,6.58,2.5,9.89,3.69,6.74,2.43,13.54,4.65,20.41,6.67,11.99,3.53,24.57,6.76,37.18,5.92,6.99-.46,13.83-2.23,19.91-5.76,2.99-1.73.29-6.37-2.71-4.63-10.26,5.96-22.57,5.94-33.96,3.97-6.2-1.08-12.28-2.71-18.31-4.47-6.72-1.96-13.38-4.12-19.97-6.47-3.62-1.29-7.19-2.7-10.81-4.02-3.73-1.36-7.7-2.42-11.71-1.94-1.44.17-2.68,1.11-2.68,2.68,0,1.33,1.25,2.87,2.7,2.69h0Z"/>
        <path class="cls-2" d="m973.69,583.48c16.16-17.49,32.92-34.38,49.82-51.15,4.79-4.75,9.58-9.5,14.37-14.25-1.53-.63-3.05-1.26-4.58-1.9.02,1.06.04,2.11.05,3.17.06,3.45,5.42,3.46,5.37,0-.02-1.06-.03-2.11-.05-3.17-.04-2.31-2.91-3.55-4.58-1.9-16.94,16.8-34,33.49-50.47,50.76-4.62,4.84-9.19,9.72-13.73,14.64-2.34,2.54,1.45,6.34,3.8,3.8h0Z"/>
        <path class="cls-2" d="m1081.19,575.75c-4.03,1.08-7.52,3.53-10.83,5.99-2.73,2.02-5.36,4.17-7.92,6.4-5.54,4.85-10.73,10.08-15.72,15.49-10.86,11.79-20.85,24.46-29.88,37.71-4.27,6.26-8.33,12.69-11.88,19.39-1.62,3.05,3.01,5.76,4.63,2.71,6.58-12.4,14.73-24.02,23.31-35.1,9.36-12.09,19.47-23.77,30.76-34.1,1.4-1.28,2.82-2.54,4.27-3.77,1.22-1.04,2.83-2.35,3.86-3.14,3.26-2.51,6.8-5.33,10.83-6.41,3.33-.88,1.91-6.06-1.43-5.17h0Z"/>
        <path class="cls-2" d="m1085.26,578.83c13.52,4.02,25.91,11.87,37.38,20.05,12.78,9.11,24.76,19.32,36.38,29.85,5.79,5.24,11.48,10.59,17.14,15.97,1.12,1.07,3.5,1.11,4.21-.54.08-.19-1.03.95-.77.78.27-.18-.59.09-.36.15.13.03.51-.14.65-.16.18-.04.99-.16.62-.11-.45.06.12-.01.21-.02.21-.02.41-.04.62-.07,1.78-.18,3.56-.28,5.34-.41,1.8-.13,3.61-.26,5.39-.52,1.25-.18,2.96-.53,3.52-1.83.58-1.33.39-2.88-.96-3.67-1.13-.66-3.09-.37-3.67.96-.08.19,1.03-.95.77-.78-.27.18.59-.09.36-.15-.13-.03-.51.14-.65.16-.18.04-.99.16-.62.11.45-.06-.12.01-.21.02-.21.02-.41.04-.62.07-1.78.18-3.56.28-5.34.41-1.8.13-3.61.26-5.39.52-1.25.18-2.96.53-3.52,1.83,1.4-.18,2.81-.36,4.21-.54-10.74-10.22-21.62-20.3-32.98-29.82-12.16-10.19-24.85-19.98-38.67-27.84-6.85-3.9-14.05-7.35-21.62-9.6-3.31-.98-4.73,4.2-1.42,5.18h0Z"/>
        <path class="cls-2" d="m1190.87,643.63c2.89-2.2,4.7-5.26,5.23-8.86.6-4.02-.3-7.86-1.9-11.56-1.6-3.7-3.81-7.15-5.91-10.58-2.21-3.6-4.51-7.16-6.88-10.66-2.69-3.95-5.48-7.83-8.36-11.64v2.71c-.26.36-1,1.11-1.33,1.08.09.01.22-.07.31-.08.14-.02.28-.05.41-.08.66-.14-.57.04-.07.01.89-.06,1.78-.17,2.67-.22,2.42-.15,4.85-.22,7.27-.28,3.62-.09,7.36.13,10.97-.24,1.44-.15,2.68-1.13,2.68-2.68,0-1.34-1.23-2.83-2.68-2.68-2.73.28-5.55.12-8.29.18-3.95.08-7.92.12-11.85.49-1.8.17-3.58.23-4.73,1.81-.5.69-.52,2.02,0,2.71,5.96,7.86,11.51,16.04,16.59,24.5,2.34,3.9,4.89,7.86,5.78,12.38.59,3.02,0,7.08-2.61,9.06-1.15.88-1.76,2.31-.96,3.67.65,1.14,2.5,1.85,3.66.96h0Z"/>
        <path class="cls-2" d="m1052.28,512.86c-1.63-.21-3.26-.42-4.89-.64.89.89,1.79,1.79,2.68,2.68-.04-13.17,3.5-25.91,6.96-38.5,3.59-13.05,6.98-26.2,7.08-39.83.06-8.07-.9-16.16-2.78-24-1.31,1.01-2.63,2.02-3.94,3.03,8.59,4.75,17.37,10.03,23.5,17.88,6.4,8.2,8.25,18.48,8.2,28.65-.02,6.06-.63,12.1-1.28,18.12-.13,1.21.94,2.23,1.97,2.59,19.44,6.75,39.11,13.6,56.56,24.72,4.27,2.72,8.36,5.69,12.24,8.94,3.94,3.31,7.76,6.79,12.03,9.68,4.47,3.02,9.38,4.94,14.67,5.96,5.33,1.03,10.73,1.65,16.05,2.78,10.37,2.2,20.57,5.4,30.3,9.64,4.9,2.13,9.7,4.51,14.37,7.12,4.37,2.45,9.01,4.95,12.77,8.3,1.81,1.61,3.29,3.43,4.4,5.59.84,1.65,1.23,3.03,1.04,4.69.05-.49-.14.53-.18.66-.06.2-.12.4-.2.59.05-.11.2-.41-.04.04-.16.3-.33.58-.51.86-.28.42-.11.17-.03.07-.16.2-.33.4-.51.59-1.14,1.23-2.1,1.85-3.68,2.74-3.47,1.94-7.12,2.85-10.76,4.72-3.47,1.79-6.27,4.41-8.71,7.43-2.52,3.11-4.88,6.9-8.22,9.06-3.02,1.95-6.2,2.22-9.92,1.97-4.48-.3-8.67-1.35-12.86-2.94-4.47-1.7-8.82-3.77-13.41-5.11-2.15-.63-4.36-1.06-6.59-1.17v5.37c1.07.04,2.14.09,3.21.13,3.45.14,3.45-5.23,0-5.37-1.07-.04-2.14-.09-3.21-.13-3.46-.14-3.44,5.19,0,5.37,4.37.22,8.82,2.15,12.92,3.82,4.52,1.84,9.08,3.9,13.93,4.7,4.31.71,8.85,1.22,13.17.28,4.25-.93,7.79-3.58,10.55-6.87,2.56-3.06,4.79-6.47,7.78-9.15,2.83-2.54,6.72-3.82,10.35-5.34,3.44-1.45,7.13-3.17,9.59-6.08,2.63-3.13,3.38-7.09,2.05-10.98-1.76-5.12-5.52-8.97-9.84-12.05-4.38-3.13-9.15-5.8-13.91-8.31-9.79-5.16-20.13-9.35-30.76-12.45-5.28-1.54-10.63-2.81-16.04-3.8-5.51-1.01-11.19-1.44-16.57-3.11-4.85-1.5-9.09-4.41-12.98-7.6-4.19-3.42-8.19-7.04-12.54-10.26-17.27-12.81-37.62-20.6-57.74-27.68-2.45-.86-4.89-1.71-7.34-2.56.66.86,1.31,1.72,1.97,2.59,1.2-11.08,2.27-22.46-.26-33.44-1.22-5.29-3.37-10.4-6.51-14.84-3.15-4.45-7.05-8.2-11.36-11.51-4.69-3.61-9.78-6.63-14.95-9.49-2.08-1.15-4.49.74-3.94,3.03,3.19,13.34,3.33,27.13.73,40.58-2.5,12.94-6.84,25.44-9.61,38.32-1.55,7.23-2.6,14.6-2.58,22.01.01,1.59,1.24,2.49,2.68,2.68,1.63.21,3.26.42,4.89.64,1.44.19,2.68-1.37,2.68-2.68,0-1.65-1.23-2.54-2.67-2.73h0Z"/>
        <path class="cls-2" d="m1249.06,569.98c-3.82-3.05-7.75-6.18-12-8.63-2.13-1.23-4.42-2.15-6.84-2.64-2.44-.49-4.94-.67-7.4-1.05-9.63-1.47-18.95-4.63-27.9-8.44-5.11-2.17-10.13-4.55-15.13-6.95-.69,1.63-1.38,3.27-2.07,4.9,1.08.39,2.15.77,3.23,1.16,1.36.49,2.94-.55,3.3-1.87.41-1.49-.51-2.81-1.87-3.3-1.08-.39-2.15-.77-3.23-1.16-2.84-1.02-4.81,3.59-2.07,4.9,8.81,4.23,17.7,8.38,26.96,11.54,4.56,1.56,9.22,2.87,13.95,3.79,2.51.49,5.03.84,7.56,1.15,2.19.27,4.44.58,6.5,1.42,2.41.98,4.58,2.58,6.7,4.07,2.22,1.56,4.39,3.19,6.51,4.89,1.13.9,2.69,1.1,3.79,0,.95-.92,1.15-2.87,0-3.78h0Z"/>
        <path class="cls-2" d="m1238.92,586.56c-5.59-4.45-12.82-5.07-19.59-6.44-7.52-1.52-14.99-3.28-22.4-5.27-11.62-3.13-23.46-6.7-33.47-13.61-5.18-3.58-9.59-8.17-12.58-13.73-1.64-3.04-6.27-.34-4.63,2.71,5.72,10.63,15.98,17.67,26.83,22.35,12.75,5.5,26.5,8.8,40.03,11.73,4.14.9,8.31,1.65,12.47,2.48,3.29.66,6.86,1.43,9.55,3.57,1.13.9,2.69,1.11,3.79,0,.93-.93,1.14-2.89,0-3.79h0Z"/>
        <path class="cls-2" d="m414.15,842.08c1.14.52,1.31.94,1.36,2.14.08,1.74-.18,3.47-.4,5.19-.46,3.57-.58,7.05,1.22,10.31,3.48,6.28,11.58,8.71,18.2,9.74,4.96.77,10,1.13,14.99,1.62,5.33.53,10.66,1.03,15.99,1.5,10.76.96,21.52,1.81,32.3,2.57,21.55,1.51,43.13,2.6,64.71,3.28,21.59.68,43.19.95,64.79.81,21.51-.14,43.01-.69,64.5-1.64,2.72-.12,5.44-.25,8.16-.38,3.44-.17,3.46-5.54,0-5.37-21.39,1.05-42.79,1.71-64.21,1.95-21.51.25-43.02.08-64.51-.48-21.41-.57-42.8-1.54-64.17-2.91-21.37-1.38-42.71-3.16-64.01-5.34-6.71-.69-15.28-1.06-20.46-5.97-2.2-2.09-2.67-4.39-2.4-7.45.3-3.36,1.37-7.08.12-10.36-.64-1.69-1.82-3.07-3.48-3.83-1.32-.6-2.89-.38-3.67.96-.67,1.14-.35,3.06.97,3.66h0Z"/>
        <path class="cls-2" d="m748.55,425.84c14.06,1.3,28.12,2.52,42.17,3.92,10.88,1.08,21.76,2.49,32.38,5.14,10.32,2.57,20.41,6.36,29.19,12.45,9.26,6.43,16.13,15.45,20.52,25.79,4.86,11.47,7,23.94,8.8,36.19,1.97,13.37,3.26,26.84,3.93,40.34,1.34,27.04.16,54.25-3.62,81.07-3.79,26.88-10.1,53.41-18.89,79.09-1.06,3.1-2.16,6.19-3.29,9.27-.5,1.36.56,2.94,1.87,3.3,1.5.41,2.8-.51,3.3-1.87,9.56-25.99,16.58-52.91,20.96-80.25,4.38-27.32,6.21-55.03,5.35-82.68-.43-13.75-1.51-27.48-3.26-41.12-1.65-12.87-3.5-25.94-7.58-38.3-3.81-11.54-9.84-22.32-19.01-30.45-8.28-7.35-18.31-12.32-28.8-15.7-10.77-3.48-22-5.32-33.22-6.67-13.2-1.59-26.48-2.61-39.71-3.84-3.7-.34-7.39-.68-11.09-1.03-1.44-.13-2.68,1.33-2.68,2.68,0,1.55,1.23,2.53,2.68,2.67h0Z"/>
        <path class="cls-2" d="m736.68,634.51c3.75,29.25,5.38,58.76,4.87,88.24-.52,29.45-3.15,58.87-7.96,87.94-2.04,12.33-5.13,24.57-6.25,37.03-.9,9.97-.54,21.03,4.81,29.83,2.71,4.45,6.69,8.14,11.42,10.35,5.92,2.78,12.45,3.49,18.91,3.72,13.51.48,27.36.69,40.68-1.93,6.61-1.3,13.06-3.45,19.02-6.61,6.03-3.2,11.49-7.35,16.74-11.68,10.77-8.88,21.2-18.2,31.54-27.57,20.88-18.91,41.11-38.54,60.65-58.83s38.38-41.25,56.49-62.84c8.2-9.77,17.77-20.04,20.47-32.93,3.03-14.45-3.03-28.72-7.78-42.08l-15.33-43.14c-2.5-7.03-5-14.07-7.5-21.1-1.29-3.62-2.57-7.24-3.86-10.86-1.14-3.21-2.14-6.52-3.6-9.61-1.15-2.45-2.91-4.77-5.43-5.92-3.24-1.48-6.64-.72-9.73.75-3.06,1.46-5.92,3.45-8.77,5.27-2.84,1.81-5.65,3.67-8.43,5.58-11.31,7.74-22.13,16.2-32.37,25.3-5.04,4.48-9.93,9.12-14.67,13.9-2.44,2.45,1.36,6.25,3.79,3.79,9.36-9.43,19.28-18.28,29.73-26.48,5.28-4.14,10.7-8.1,16.23-11.88,5.38-3.68,10.87-7.63,16.69-10.6,2.3-1.17,4.9-1.77,6.77.4,1.77,2.07,2.51,4.99,3.4,7.5,2.46,6.93,4.93,13.86,7.39,20.79,4.96,13.97,9.93,27.93,14.89,41.9,2.46,6.93,4.93,13.86,7.39,20.79,2.33,6.55,4.72,13.13,5.95,19.99,1.17,6.5.9,13.07-1.4,19.29-2.12,5.71-5.71,10.87-9.45,15.63-8.31,10.54-17.2,20.67-26.06,30.76-9.06,10.32-18.28,20.49-27.68,30.5-18.72,19.95-38.1,39.28-58.1,57.94-9.96,9.3-20.08,18.43-30.34,27.39-9.9,8.64-19.78,18.17-31.64,24.09-11.7,5.84-25.03,7.12-37.93,7.31-6.56.1-13.17.08-19.72-.27-6.01-.32-12.19-1.24-17.31-4.62-7.85-5.17-10.45-14.66-10.81-23.57-.43-10.75,1.87-21.23,3.86-31.72,5.34-28.16,8.71-56.7,10.07-85.32,1.35-28.49.7-57.09-1.95-85.49-.65-7-1.43-13.98-2.33-20.95-.18-1.44-1.1-2.68-2.68-2.68-1.31.02-2.87,1.26-2.68,2.7h0Z"/>
        <path class="cls-2" d="m454.55,877.98c.99,11.88,1.96,23.77,2.98,35.65.42,4.89,1.26,9.82,5.53,12.86,3.7,2.64,8.64,2.73,13,2.61,24.03-.64,48.06-1.39,72.1-2.09,24.03-.7,48.06-1.39,72.1-2.09,24.03-.7,48.06-1.39,72.1-2.09,24.03-.7,48.06-1.39,72.1-2.09,2.95-.09,5.9-.17,8.85-.26,1.58-.05,2.5-1.2,2.68-2.68,1.16-9.4,1.36-18.89.58-28.33-.11-1.3-.78-2.12-1.97-2.59-4.75-1.88-9.71,1.97-10.17,6.72-.14,1.44,1.33,2.68,2.68,2.68,1.57,0,2.54-1.23,2.68-2.68.16-1.59,2.18-2.03,3.38-1.55-.66-.86-1.31-1.72-1.97-2.59.78,9.44.58,18.93-.58,28.33l2.68-2.68c-23.51.68-47.01,1.36-70.52,2.05-23.51.68-47.01,1.36-70.52,2.05-23.61.69-47.22,1.37-70.83,2.06-23.51.68-47.01,1.36-70.52,2.05-5.64.16-11.3.48-16.94.46-3.79-.01-8.4-.43-10.04-4.45-.81-1.98-.92-4.2-1.1-6.31-.24-2.92-.49-5.84-.73-8.76-.49-5.84-.98-11.67-1.46-17.51-.24-2.92-.49-5.84-.73-8.76-.28-3.42-5.65-3.45-5.36-.01h0Z"/>
      </g>
    </g>
  </g>
</svg>