<?xml version="1.0" encoding="UTF-8"?>
<svg id="Layer_2" data-name="Layer 2" xmlns="http://www.w3.org/2000/svg" viewBox="0 0 1099.72 1489.33">
  <defs>
    <style>
      .cls-1, .cls-2, .cls-3, .cls-4, .cls-5, .cls-6, .cls-7, .cls-8 {
        stroke-miterlimit: 10;
      }

      .cls-1, .cls-3 {
        fill: #fbae16;
        stroke: #020202;
      }

      .cls-1, .cls-5, .cls-6, .cls-7 {
        stroke-width: 4.82px;
      }

      .cls-2 {
        fill: #f5f0e2;
      }

      .cls-2, .cls-3, .cls-4, .cls-8 {
        stroke-width: 4.92px;
      }

      .cls-2, .cls-4, .cls-5, .cls-6, .cls-7, .cls-9, .cls-8 {
        stroke: #000;
      }

      .cls-4, .cls-7, .cls-9 {
        fill: #ed1e78;
      }

      .cls-5 {
        fill: #fe3922;
      }

      .cls-6, .cls-8 {
        fill: none;
      }

      .cls-9 {
        stroke-miterlimit: 10;
        stroke-width: 4.82px;
      }
    </style>
  </defs>
  <g id="Layer_1-2" data-name="Layer 1">
    <g id="Layer_2-2" data-name="Layer 2">
      <g>
        <path class="cls-4" d="m770.63,348.01c-1.99,4.66-4.35,9.02-7.12,13.02l-140.96-60.17c.98-4.77,2.49-9.49,4.48-14.15,1.99-4.66,4.35-9.02,7.12-13.02,20.49-30.48,60.32-43.07,95.33-28.13s53.47,52.42,45.63,88.3c-.99,4.77-2.5,9.5-4.48,14.15Z"/>
        <path class="cls-3" d="m770.63,348.01c-1.99,4.66-4.35,9.02-7.12,13.02l-140.96-60.17c.98-4.77,2.49-9.49,4.48-14.15,1.99-4.66,4.35-9.02,7.12-13.02l140.96,60.17c-.99,4.77-2.5,9.5-4.48,14.15Z"/>
        <path class="cls-4" d="m763.51,361.03c-17.92,26.72-50.71,39.7-82.1,32.4-4.45-.98-8.88-2.41-13.23-4.27-5.63-2.4-10.82-5.4-15.53-8.88-24.72-18.08-36.7-49.34-30.1-79.42l140.96,60.17Z"/>
        <path class="cls-3" d="m628.88,486.59l33.17-77.7c-1.39-.18-2.74-.57-4.1-1.15s-2.57-1.28-3.67-2.16l-33.25,77.89c-12.67-2.89-25.99,3.59-31.27,15.97-5.95,13.93.53,30.05,14.46,35.99,13.93,5.95,30.05-.53,35.99-14.46,5.49-12.84.43-27.53-11.33-34.38Zm-20.51,39.14c-8.58-3.66-12.56-13.57-8.9-22.15s13.57-12.56,22.15-8.9c8.58,3.66,12.56,13.57,8.9,22.15s-13.58,12.56-22.15,8.9Z"/>
        <path class="cls-2" d="m680.11,398.84c-3.08,7.22-10.61,11.21-18.05,10.05-1.39-.18-2.74-.57-4.1-1.15s-2.57-1.28-3.67-2.16c-5.98-4.57-8.31-12.77-5.23-19.99.88-2.06,2.09-3.83,3.59-5.3,4.71,3.48,9.9,6.47,15.53,8.88,4.35,1.86,8.78,3.29,13.23,4.27-.14,1.81-.56,3.66-1.3,5.4Z"/>
      </g>
      <g>
        <path class="cls-2" d="m489.99,122.14l66.01,117.8c13.61,24.3,4.87,55.31-19.42,68.93l-51.54,28.88c-24.3,13.61-55.31,4.87-68.93-19.42l-66.01-117.8c-5.38-9.61-7.25-20.27-6.1-30.49.24-.09.5-.23.76-.38l118.02-66.13c1.36-.76,2.49-1.78,3.32-2.97,9.8,4.28,18.3,11.6,23.89,21.58Z"/>
        <path class="cls-4" d="m448.09,55.99l18.69,33.35c2.06,3.68,1.66,8.06-.68,11.22-.83,1.19-1.96,2.21-3.32,2.97l-118.02,66.13c-.26.14-.52.29-.76.38-4.92,2.27-10.75.41-13.43-4.37l-18.69-33.35c-2.83-5.04-1.05-11.36,4-14.19l118.02-66.13c5.05-2.84,11.36-1.05,14.19,3.99Z"/>
        <path class="cls-4" d="m429.15,54.65l-108.52,60.81c-2.95-9.23-3.2-25.73,9.71-53.81,0,0,3.24-11.49-7.08-29.89s7.14-26.11,7.14-26.11c0,0,15.68-10.87,25.99,7.54s21.8,21.64,21.8,21.64c30.69,3.66,44.63,12.49,50.96,19.82Z"/>
        <line class="cls-8" x1="395.53" y1="182.32" x2="352.44" y2="206.47"/>
        <line class="cls-8" x1="407.91" y1="204.41" x2="364.82" y2="228.56"/>
        <line class="cls-8" x1="420.29" y1="226.5" x2="377.19" y2="250.65"/>
        <line class="cls-8" x1="432.66" y1="248.59" x2="389.57" y2="272.73"/>
        <line class="cls-8" x1="447.1" y1="274.36" x2="404.01" y2="298.5"/>
      </g>
      <g>
        <path class="cls-1" d="m934.29,344c1.24,6.29,4.27,11.67,8.48,15.91l-72.96,14.39-69.81,400.47,41.83-8.25,6.67,33.84-358.7,70.73-6.67-33.84,280.6-55.33,76.13-436.88,96.24-18.98c-2.29,5.52-3.05,11.65-1.81,17.94Z"/>
        <path class="cls-7" d="m1096.72,311.97c1.65,8.39-.23,16.64-4.69,23.28-4.45,6.64-11.37,11.52-19.76,13.18l-101.52,20.02c-10.49,2.07-20.88-1.44-27.98-8.54-4.21-4.23-7.24-9.61-8.48-15.91-1.24-6.29-.48-12.42,1.81-17.93.82-1.92,1.74-3.65,2.88-5.35,4.45-6.64,11.37-11.52,19.76-13.18l101.52-20.02c16.78-3.31,33.15,7.67,36.46,24.45Z"/>
        <path class="cls-7" d="m383.46,1297.05c-5.44-4.41-11.26-8.26-17.38-11.48-20.9-11.14-45.73-15.45-70.83-10.5-57.93,11.42-95.64,67.65-84.22,125.59,11.42,57.93,67.65,95.64,125.59,84.22,57.93-11.42,95.64-67.65,84.22-125.59-5.02-25.45-18.77-47.07-37.38-62.24Zm-57.52,133.68c-28.02,5.53-55.24-12.73-60.77-40.75s12.73-55.24,40.75-60.77c7.85-1.55,15.57-1.24,22.85.7,7.03,1.78,13.57,4.99,19.09,9.45,9.46,7.34,16.35,18.01,18.83,30.6,5.53,28.02-12.73,55.25-40.75,60.77Z"/>
        <path class="cls-7" d="m630.26,1209.01c-31.34,6.18-56.78,25.47-71.69,51.12-3.48,5.89-6.38,12.23-8.6,18.78-6.08,17.3-7.73,36.4-3.93,55.69,11.42,57.93,67.66,95.64,125.59,84.22s95.64-67.65,84.22-125.59c-11.43-57.94-67.66-95.65-125.59-84.22Zm30.7,155.66c-28.02,5.53-55.24-12.73-60.77-40.75-1.44-7.31-1.25-14.52.36-21.37,1.47-6.83,4.41-13.31,8.52-18.84,7.39-10.32,18.47-17.92,31.87-20.56,28.02-5.53,55.24,12.73,60.77,40.75,5.52,28.02-12.74,55.24-40.75,60.77Z"/>
        <path class="cls-5" d="m483.13,837.25l6.67,33.84,192.61-37.98c-8.61,66.52-37.28,128.29-80.71,177.63l-399.31,78.74c-83.29-41.23-148.55-116.53-174.42-211.69l654.73-129.1c2.04,16.4,2.85,32.62,2.44,48.74l-202.01,39.82Z"/>
        <path class="cls-6" d="m353.26,434.67l-31.29,364.05-297.99,58.76c-2.14-7.66-3.98-15.53-5.55-23.51-35.75-181.31,82.21-357.22,263.52-392.97,23.96-4.73,47.81-6.76,71.31-6.33Z"/>
        <path class="cls-5" d="m353.26,434.67l-31.29,364.05-297.99,58.76c-2.14-7.66-3.98-15.53-5.55-23.51-35.75-181.31,82.21-357.22,263.52-392.97,23.96-4.73,47.81-6.76,71.31-6.33Z"/>
        <rect class="cls-9" x="-1.82" y="793.36" width="703.62" height="20.69" transform="translate(-148.9 82.91) rotate(-11.16)"/>
        <path class="cls-1" d="m455.1,1211.77l103.47,48.36c-3.48,5.89-6.38,12.23-8.6,18.78l-108.58-50.73-57.93,68.87c-5.44-4.41-11.26-8.26-17.38-11.48l55.86-66.49-221.49-103.48,2.37-5.11,24.97-4.92,207.93,97.09,139.13-165.53,31.34-6.18.51.46-151.6,180.36Z"/>
        <rect class="cls-9" x="186.8" y="1049.87" width="434.59" height="20.69" transform="translate(-197.51 98.23) rotate(-11.16)"/>
        <path class="cls-1" d="m701.71,1303.9c5.53,28.02-12.73,55.24-40.75,60.77s-55.24-12.73-60.77-40.75c-1.44-7.31-1.25-14.52.36-21.37,1.47-6.83,4.41-13.31,8.52-18.84,7.39-10.32,18.47-17.92,31.87-20.56,28.02-5.52,55.24,12.73,60.77,40.75Z"/>
        <path class="cls-1" d="m366.69,1369.96c5.53,28.02-12.73,55.24-40.75,60.77s-55.24-12.73-60.77-40.75,12.73-55.24,40.75-60.77c7.85-1.55,15.57-1.24,22.85.7,7.03,1.78,13.57,4.99,19.09,9.45,9.47,7.35,16.35,18.01,18.83,30.6Z"/>
      </g>
    </g>
  </g>
</svg>