<?xml version="1.0" encoding="utf-8"?>
<!-- Generator: Adobe Illustrator 26.3.1, SVG Export Plug-In . SVG Version: 6.00 Build 0)  -->
<svg version="1.1" xmlns="http://www.w3.org/2000/svg" xmlns:xlink="http://www.w3.org/1999/xlink" x="0px" y="0px"
	 viewBox="0 0 1984.25 1984.25" style="enable-background:new 0 0 1984.25 1984.25;" xml:space="preserve">
<style type="text/css">
	.st0{fill:#29597E;stroke:#000000;stroke-width:2.696;stroke-miterlimit:10;}
	.st1{fill:#29597E;stroke:#000000;stroke-width:2.993;stroke-miterlimit:10;}
	.st2{fill:#FFFFFF;}
	.st3{fill:#1B1439;}
	.st4{fill:#F5F0E2;}
	.st5{fill:#ED1E78;}
	.st6{fill:#FE3922;stroke:#000000;stroke-width:6.2938;stroke-miterlimit:10;}
	.st7{fill:#29597E;}
	.st8{fill:#D95F86;}
	.st9{fill:#D95F86;stroke:#000000;stroke-width:4.6468;stroke-miterlimit:10;}
	.st10{fill:none;stroke:#000000;stroke-width:9.3644;stroke-miterlimit:10;}
	.st11{fill:#ED1E78;stroke:#000000;stroke-width:4.9229;stroke-miterlimit:10;}
	.st12{fill:#FBAE16;stroke:#020202;stroke-width:4.9229;stroke-miterlimit:10;}
	.st13{fill:#F5F0E2;stroke:#000000;stroke-width:4.9229;stroke-miterlimit:10;}
	.st14{fill:none;stroke:#000000;stroke-width:4.9229;stroke-miterlimit:10;}
	.st15{fill:#29597E;stroke:#000000;stroke-width:2.521;stroke-miterlimit:10;}
	.st16{fill:#F9E819;}
	.st17{fill:#FBAE16;}
	.st18{fill:#FBAE16;stroke:#020202;stroke-width:4.8212;stroke-miterlimit:10;}
	.st19{fill:#ED1E78;stroke:#000000;stroke-width:4.8212;stroke-miterlimit:10;}
	.st20{fill:#FE3922;stroke:#000000;stroke-width:4.8212;stroke-miterlimit:10;}
	.st21{fill:none;stroke:#000000;stroke-width:4.8212;stroke-miterlimit:10;}
	.st22{fill:#020202;}
	.st23{fill:none;stroke:#020202;stroke-width:4;stroke-miterlimit:10;}
</style>
<g id="Layer_1">
</g>
<g id="Layer_3">
</g>
<g id="Layer_4">
</g>
<g id="Layer_5">
</g>
<g id="Layer_6">
</g>
<g id="Layer_7">
</g>
<g id="Layer_8">
</g>
<g id="Layer_2">
	<g>
		<path class="st2" d="M560.31,772.23c-13.12,6.31-19.33,21.2-24.43,34.83c-5.67,15.15-11.35,30.31-17.02,45.46
			c-1.09,2.91-2.19,5.92-1.99,9.02c0.48,7.18,7.45,11.88,11.42,17.88c3.08,4.66,4.36,10.25,5.59,15.7
			c4.79,21.31,9.57,42.61,14.36,63.92c0.3,1.32,0.58,2.74,0.05,3.98c-0.45,1.06-1.43,1.79-2.36,2.46
			c-22.88,16.46-48.45,29.17-75.39,37.46c8.29-22.97,8.77-48.68,1.36-71.95c-4.23-13.29-11.03-26.2-10.99-40.15
			c0.04-12.79,5.96-25,14.08-34.88c8.12-9.88,18.36-17.76,28.5-25.55"/>
		<path class="st2" d="M404.67,803.72c-17.19-7.73-34.8-14.84-53.25-18.72c-10-2.1-20.2-3.24-30.42-3.39
			c-7.39-0.11-16.01,0.97-19.84,7.29c-2.79,4.61-1.99,10.59,0.05,15.58c2.04,4.99,5.19,9.48,7.06,14.54
			c2.57,6.93,2.69,14.77,6.45,21.13c5.1,8.63,15.54,12.39,25.32,14.59c9.78,2.21,20.23,3.72,28.09,9.95
			c-14.92,6.49-29.28,14.25-42.89,23.16c-0.52,0.34-1.06,0.7-1.44,1.19c-1.32,1.7-0.26,4.38,1.58,5.49
			c1.84,1.11,4.13,1.09,6.28,1.01c37.14-1.38,75.19-10.48,110.86-0.04c11.2,3.28,22.45,8.49,34,6.86
			c14.8-2.09,26.18-15.66,29.19-30.3c1.21-5.88,1.3-11.95,2.57-17.82c2.18-10.07,7.92-19.33,15.97-25.76
			c2.12-1.69,4.42-3.22,6.11-5.35c2.63-3.3,3.47-7.63,4.56-11.71c2.76-10.34,7.61-20.12,14.16-28.59c3.55-4.59,7.86-9.6,7.11-15.35
			c-10.97-0.25-22.53-0.37-32.13,4.95c-12.48,6.92-18.56,21.15-27.01,32.65c-0.59,0.8-1.23,1.62-2.13,2.04
			c-1.16,0.54-2.52,0.31-3.78,0.07c-32.28-6.11-65.93-9.82-97.73-1.56"/>
		<path class="st2" d="M908.8,872.61c-1.26,1.28-2.59,2.6-3.14,4.31c-1.48,4.57,3.05,8.71,7.15,11.21
			c25.45,15.56,55.61,23.28,85.4,21.87c5.58-0.27,11.19-0.85,16.55-2.45c5.98-1.79,11.62-4.84,17.8-5.72c1.06-0.15,2.22-0.27,3-1.01
			c0.58-0.55,0.85-1.35,1.07-2.12c3.3-11.52,0.4-23.76-0.59-35.71c-1.58-19.12,1.79-38.31,1.37-57.49
			c0.09,4.17-22.97,13.57-26.58,15.08c-9.93,4.16-20.37,7.09-31,8.7c-10.3,1.57-20.33,1.39-30.68,0.99
			c-10.11-0.4-11.66,4.46-16.79,12.61C925.62,853.62,917.7,863.6,908.8,872.61z"/>
		<path class="st2" d="M931.49,843.42c-0.1,0.49-0.2,1.01-0.06,1.5c0.25,0.88,1.18,1.37,2.02,1.74c6.87,2.97,14.39,4.42,21.87,4.19
			c3.67-0.11,7.54-0.71,10.34-3.09c1.25-1.06,2.27-2.64,1.99-4.26c-0.2-1.18-1.05-2.16-1.38-3.32c-0.43-1.54,0.13-3.17,0.06-4.76
			c-0.27-6.15-6.33-6.72-10.91-7.3c-3.91-0.49-7.22-2.16-10.96-2.8C935.7,823.83,932.96,836.41,931.49,843.42z"/>
		<path class="st2" d="M1074.01,660.12c-3.64,2.47-5.98,6.42-7.91,10.37c-5.27,10.78-8.37,22.61-9.08,34.59
			c-0.52,8.76,1.07,19,8.65,23.43c1,0.59,2.17,1.14,2.6,2.22c0.33,0.85,0.11,1.81-0.12,2.69c-5.4,20.96-11.18,42.7-25.14,59.24
			c-2.11,2.51-4.45,4.95-5.63,8c-1.18,3.04-1.1,6.39-1.02,9.64c0.28,10.42,0.56,20.84,0.84,31.26c0.08,3.12,0.25,6.48,2.14,8.96
			c1.65,2.16,4.32,3.26,6.88,4.17c8.39,3,18.63,4.8,25.51-0.86c3.34-2.75,5.27-6.83,6.88-10.84c5.25-13.05,8.28-26.89,13.2-40.07
			c2.01-5.4,4.35-10.7,5.65-16.31c1.24-5.32,1.52-10.81,2.56-16.17c1.33-6.86,3.87-13.42,5.83-20.13
			c2.64-9.04,4.23-18.36,5.33-27.71c2.22-18.83,2.49-37.99-0.72-56.68c-0.57-3.31-1.68-7.14-4.83-8.31
			c-7.2-2.66-9.48,9.84-15.53,7.35c-2.83-1.16-3.07-5.69-7.09-6.74C1080.03,657.44,1076.5,658.4,1074.01,660.12z"/>
		<path class="st2" d="M1144.79,684.96c-0.57,5.15-0.43,10.36-0.75,15.53c-0.91,14.85-5.57,29.18-10.19,43.32
			c-3.69,11.3-7.39,22.61-11.08,33.91c-2.02,6.19-4.05,12.4-6.87,18.27c-2.43,5.05-5.42,9.81-8.4,14.55
			c-3.98,6.33-7.96,12.66-11.95,18.99c12.49-10.25,24.19-21.61,33.58-34.77c5.16-7.23,10.98-15.83,19.85-16.31
			c2.31-0.13,4.81,0.31,6.81-0.85c3.03-1.76,3.18-6.01,2.94-9.5c-1.2-17.19-2.97-34.33-5.31-51.41c-0.99-7.24-2.08-14.51-1.86-21.81
			c0.17-5.63,7.12-26.34,3.51-29.9C1148.32,658.32,1145.15,681.68,1144.79,684.96z"/>
		<path class="st2" d="M1347.82,991.84c-4.39,1.48-8.27,4.16-12,6.9c-14.68,10.79-28.19,23.18-40.19,36.88
			c-3.73,4.26-7.32,8.65-10.64,13.24c-3.59,4.97-7.54,10.61-13.58,11.65c0.72,30.28,24.51,55.23,30.72,84.88
			c3.29-1.93,5.06-5.6,6.79-9.01c13.04-25.76,33.05-47.2,52.79-68.27c2.44-2.6,5-5.29,8.34-6.54c3.1-1.17,6.54-0.96,9.78-1.67
			c5.85-1.27,10.65-5.37,14.87-9.62c5.8-5.82,11.05-12.17,15.68-18.95c4.34-6.36,8.2-13.29,9.33-20.91
			c1.13-7.62-0.91-16.06-6.76-21.06c-5.6-4.79-13.47-5.67-20.83-6.04c-10.73-0.54-21.49-0.46-32.21,0.25
			c-2.5,0.16-5.91,1.76-4.89,4.04"/>
		<path class="st2" d="M1365.5,898.72c-2.5-1.23-6.01-1.89-7.68,0.34c-0.97,1.29-0.89,3.05-0.77,4.65
			c0.28,3.79,0.56,7.57,0.85,11.36c0.35,4.75,0.71,9.52,0.49,14.28c-0.57,12.23-4.92,23.92-8.55,35.62s-6.6,24.07-4.34,36.11
			c0.5,2.64,1.29,5.33,3.06,7.35c2.17,2.47,5.56,3.59,8.85,3.71c3.29,0.12,6.53-0.65,9.73-1.41c3.68-0.88,7.36-1.75,11.04-2.63
			c6.4-1.52,13.24-3.31,17.52-8.3c3.08-3.59,4.38-8.35,5.54-12.94c1.01-4.02,2-8.11,1.79-12.25c-0.21-4.14-1.78-8.39-5.05-10.94
			c-2.43-1.89-5.53-2.68-8.14-4.31c-0.49-0.31-0.98-0.67-1.21-1.2c-0.32-0.72-0.08-1.55,0.13-2.3c2.33-8.24,1.48-17.01,0.61-25.53
			c-0.32-3.16-0.67-6.4-2.09-9.25c-1.11-2.21-2.81-4.06-4.49-5.88C1377.33,909.3,1372.93,902.38,1365.5,898.72z"/>
		<path class="st2" d="M1461.47,998.02c-3.48-7.65-12.4-10.82-20.31-13.66c-11.97-4.29-23.61-9.52-34.77-15.62
			c-2.33-1.27-4.71-2.6-7.34-2.91c-7.62-0.89-13.26,6.66-17.14,13.28c-2.7,4.61-5.5,9.63-4.97,14.95
			c1.01,10.22,13,15.22,18.44,23.93c1.32,2.12,2.27,4.72,1.48,7.09c-0.62,1.86-2.2,3.22-3.76,4.42
			c-5.95,4.57-12.63,8.19-19.71,10.66c-1.86,0.65-4.14,1.76-4.01,3.73c0.07,0.99,0.78,1.8,1.49,2.48c2.04,1.94,4.45,3.48,7.06,4.51
			c2.03,0.8,4.22,1.32,5.93,2.68c1.16,0.93,2.01,2.18,2.96,3.33c4.42,5.32,11.02,8.18,17.21,11.27
			c15.81,7.9,30.32,18.41,42.76,30.97c9.28,9.37,17.9,20.21,30.13,25.11c2.7,1.08,5.71,1.84,8.49,0.99c3.28-1.01,5.58-4.2,6.25-7.56
			c1.2-6.07-2.12-12.02-5.32-17.32c-5.63-9.32-11.25-18.64-16.88-27.96c7.33-2.65,15.42-0.5,22.91,1.66
			c7.91,2.28,15.83,4.57,23.74,6.85c4.87,1.41,10.2,2.79,14.88,0.86c5.69-2.34,8.42-8.64,12.35-13.37
			c4.13-4.97,9.83-8.35,15.49-11.46c2.95-1.62,6.41-4.19,5.62-7.46c-0.42-1.74-1.97-2.95-3.42-4c-10.35-7.53-20.8-15.12-32.52-20.27
			c-16.3-7.16-34.37-9.31-51.02-15.61c-27.4-10.37-50.61-31.83-79.56-36.38c-3.9-0.61-8.81-0.41-10.62,3.1"/>
		<path class="st2" d="M1418.96,987.13c6.75,13.89,18.98,24.45,32.25,32.36c13.27,7.91,27.75,13.52,41.7,20.15
			c9.41,4.47,18.62,9.44,28.44,12.91s20.43,5.43,30.69,3.64c2.02-0.35,4.04-0.85,6.09-0.86c1.37-0.01,2.87,0.17,4-0.62
			c0.52-0.36,0.89-0.9,1.2-1.45c2.29-4.19,0.71-9.65-2.5-13.18c-3.21-3.54-7.7-5.57-12.09-7.45c-24.24-10.38-49.23-19-74.72-25.76
			c-5.88-1.56-12.27-3.33-15.89-8.23c-1.74-2.35-2.67-5.25-4.59-7.45c-1.82-2.09-4.38-3.36-6.87-4.59
			c-12.23-6.03-24.45-12.06-36.68-18.09c-6.64-3.27-13.44-6.6-20.79-7.48c-7.35-0.89-15.48,1.11-20.11,6.88"/>
		<path class="st2" d="M1473.95,1013.63c0.95-1.71-0.01-3.89-1.34-5.33c-1.33-1.44-3.05-2.55-4.04-4.24
			c-0.41-0.69-0.68-1.46-1.15-2.11c-0.71-0.96-1.8-1.56-2.86-2.1c-3.19-1.65-6.44-3.16-9.76-4.51c-1.36-0.56-2.77-1.1-4.24-1.18
			c-1.47-0.08-3.04,0.36-4,1.48c-1.05,1.23-1.15,3.07-0.6,4.59c0.55,1.52,1.66,2.77,2.84,3.87c3.44,3.18,7.95,5.34,11.8,7.98
			C1463.35,1013.96,1471.53,1018,1473.95,1013.63z"/>
		<path class="st3" d="M960.43,601.49c-5.49-11.03-19.63-15.62-31.73-13.33c-12.11,2.29-22.45,10.01-31.51,18.36
			c-7.96,7.34-15.46,15.57-19.64,25.56c-4.18,10.01-4.76,21.13-4.56,31.98c0.16,8.65,0.79,17.36,3.12,25.69
			c3.79,13.53,11.9,25.43,20.81,36.3c5.73,6.99,12.03,13.8,20.03,18.02c13.29,7.01,29.42,5.91,44.01,2.33
			c11.65-2.86,22.95-7.17,33.54-12.81c7.17-3.82,14.06-8.28,19.95-13.87c19.73-18.76,25.79-49.89,16.17-75.36
			c-7.1-18.8-21.42-33.91-36.42-47.29c-3.66-3.26-7.51-6.53-12.15-8.1s-10.32-1.05-13.7,2.5"/>
		<path class="st3" d="M952.25,648.48c-2.7-13.29-2-27.24-6.06-40.18c-4.06-12.94-15.18-25.36-28.71-24.43
			c-5.51,0.38-10.6,2.9-15.82,4.7c-7.18,2.47-14.75,3.59-22.05,5.68c-31.74,9.12-56.74,38.25-60.92,71.01
			c-0.94,7.36-0.91,14.8-0.89,22.22c0.06,16.48,0.12,32.99,1.74,49.39c1.57,15.96,4.61,31.74,6.52,47.66
			c1.55,12.98,2.26,26.65-2.93,38.65c-4.05,9.35-11.53,17.28-13.52,27.28c9.31,1.58,18.83-0.22,28.06-2.24
			c22.58-4.96,44.85-11.3,66.65-19c22.63-7.99,45.52-17.95,61.65-35.73c16.13-17.78,23.77-45.23,12.44-66.39
			c-0.77,0.09-1.55,0.19-2.32,0.28"/>
		<path class="st3" d="M915.81,806.48c-25.43,15.16-51.64,29.7-80.2,37.48c-4.35,1.19-8.97,2.33-12.22,5.47
			c5.24,6.25,14.63,6.47,22.04,9.88c3.14,1.44,5.97,3.49,9.16,4.81c4.07,1.68,8.54,2.09,12.93,2.48c11.37,1,22.74,2.01,34.12,3.01
			c2.87,0.25,5.85,0.5,8.58-0.46c4.42-1.55,7.17-5.86,9.57-9.87c9.62-16.04,19.37-32.38,23.89-50.54c1.14-4.6,1.67-10.19-1.8-13.42
			c-1.97-1.84-4.8-2.43-7.5-2.61c-6.64-0.45-13.41,1.14-19.16,4.49"/>
		<path class="st3" d="M1003.31,702.1c-3.73-1.87-7.98,1.09-11.09,3.87c-9.04,8.06-18.23,16.29-24.47,26.67s-9.2,23.44-4.9,34.76
			c1.25,3.28,3.09,6.44,3.29,9.94c0.33,5.72-3.81,10.77-8.49,14.07c-4.68,3.3-10.1,5.51-14.47,9.21c-4.37,3.7-7.6,9.67-5.77,15.1
			c1.93,5.72,8.43,8.37,14.31,9.7c31.25,7.09,66.02-4.62,86.61-29.18c6.07-7.24,10.93-15.41,15.53-23.66
			c6.11-10.94,11.87-22.2,15.22-34.27c0.54-1.96,1.02-3.98,0.77-6c-0.64-5.14-5.66-8.46-10.35-10.65
			c-21.06-9.82-46.02-10.95-67.88-3.07c-4.46,1.61-8.85,3.61-12.53,6.61c-5.64,4.6-9.34,11.52-10.03,18.77"/>
		<path class="st3" d="M1073.6,567.46c2.83-4.04,0.8-10.01-3.09-13.04c-3.89-3.03-9.03-3.83-13.94-4.35
			c-13.55-1.43-27.36-1.47-40.67,1.45c-35.08,7.68-64.34,37.32-71.57,72.5c-0.85,4.14-1.42,8.38-1.05,12.59
			c0.91,10.24,7.2,19.1,13.41,27.3c6.26,8.27,12.87,16.64,21.81,21.91c11.49,6.79,25.42,7.66,38.17,11.62
			c1.95,0.6,3.95,1.32,5.42,2.74c4.34,4.18,1.97,11.47,3.46,17.3c1.2,4.71,5.03,8.39,9.37,10.58s9.19,3.09,13.97,3.97
			c2.36,0.43,4.86,0.86,7.11,0.01c3.74-1.42,5.38-5.77,6.09-9.7c3.33-18.53-4.02-39.19,5.15-55.64c1.68-3.01,3.99-5.84,7.13-7.27
			c3.14-1.43,7.22-1.17,9.63,1.31c2.85,2.93,2.89,8.2,6.45,10.2c3.12-7.27,11.84-9.83,19.18-12.79c8.79-3.54,17.21-9.15,21.62-17.54
			c5.76-10.96,3.66-24.15,2.73-36.5c-0.87-11.54-0.65-23.47-5.03-34.18c-4.2-10.29-12.44-18.62-22.03-24.23
			c-9.59-5.61-20.5-8.67-31.48-10.37c-15.22-2.35-31.62-1.97-44.94,5.75"/>
		<path class="st3" d="M1046.37,707.32c-0.72-7.95-5.05-15.79-12.11-19.49c-7.07-3.7-16.78-2.37-21.7,3.91
			c-1.67,2.14-2.74,4.68-3.61,7.25c-1.28,3.77-2.19,7.68-2.7,11.63c-0.58,4.46-0.5,9.44,2.39,12.89c2.17,2.59,5.66,3.86,9.05,3.83
			s6.67-1.23,9.62-2.88c1.66-0.93,3.25-2.01,4.52-3.42c2.49-2.77,3.52-6.62,3.54-10.34c0.02-3.73-0.89-7.39-1.88-10.98"/>
		<path class="st3" d="M1110,656.6c4.22,49.64-2.72,100.2-20.16,146.87c-5.49,14.69-12.05,29.18-14.4,44.68
			c9.11-13.55,18.23-27.1,27.34-40.65c6.59-9.79,13.22-19.68,17.65-30.61c3.13-7.74,5.12-15.9,8.13-23.69
			c2.97-7.67,6.93-14.96,9.31-22.83c2.09-6.9,2.93-14.11,3.76-21.27c1.57-13.51,3.13-27.01,4.7-40.52c0.29-2.53,0.61-5.13,1.83-7.36
			c1.53-2.81,4.3-4.69,6.53-6.98c5.48-5.63,7.72-13.93,6.97-21.75c-0.75-7.82-4.22-15.19-8.81-21.57
			c-2.47-3.43-5.91-6.91-10.13-6.66c-2.61,0.16-4.91,1.76-6.79,3.57c-6.07,5.84-9.21,14.58-8.24,22.94"/>
		<path class="st3" d="M1042.48,520.74c-12.09,4.29-23.77,10.28-33.15,19.03c-9.38,8.76-16.34,20.5-17.77,33.25
			c-0.41,3.66-0.27,7.67,1.97,10.6c2.99,3.91,8.55,4.53,13.48,4.71c11.58,0.41,23.19,0.11,34.74-0.88
			c12.8-1.1,26.02-3.01,38.25,0.93c3.43,1.11,6.79,2.72,9.29,5.32c4.62,4.81,5.49,11.98,6.13,18.62c0.69,7.19,1.38,14.38,2.06,21.57
			c0.09,0.96,0.2,1.97,0.78,2.75c1.29,1.71,3.91,1.27,6,0.78c11.07-2.6,22.97-1.55,33.41,2.97c1.65,0.71,3.3,1.52,5.09,1.67
			c6.65,0.54,11.41-7.92,18.08-7.57c0.75,0.04,1.58,0.17,2.19-0.27c0.41-0.3,0.62-0.79,0.81-1.26c6.3-15.63,11.12-32.52,8.66-49.19
			c-1.04-7.04-3.35-13.82-5.65-20.56c-3.13-9.16-6.35-18.5-12.21-26.2C1129.38,503.81,1077.27,508.38,1042.48,520.74z"/>
		<path class="st3" d="M880.7,604.83c1.02,0.37,2.05,0.74,3.07,1.11C882.68,605.81,881.62,605.43,880.7,604.83"/>
		<path class="st3" d="M932.33,506.01c-15.69,11.22-29.73,24.75-41.51,40.02c-4.27,5.54-8.26,11.33-11.3,17.63
			c-7.7,15.99-8.81,34.26-9.63,51.99c-0.29,6.36,0.1,14.03,5.62,17.22c5.52,3.19,12.34-0.28,17.93-3.33
			c13.79-7.53,28.81-12.78,44.29-15.49c5.13-0.9,10.66-1.47,15.34,0.83c2.15,1.05,4,2.66,6.16,3.71c5.68,2.74,12.69,1.07,17.85-2.55
			c5.16-3.62,8.86-8.91,12.48-14.07c13.45-19.15,27.34-38,41.63-56.53c3.11-4.04,6.28-8.09,10.2-11.35
			c15.47-12.88,38.23-10.6,57.22-17.28c2.22-0.78,4.86-2.78,3.82-4.89c-0.38-0.76-1.16-1.23-1.9-1.65
			c-7.1-4.04-14.19-8.09-21.29-12.13c-11.74-6.69-23.75-13.48-37.03-16c-10.34-1.96-20.99-1.22-31.49-0.48
			c-16.03,1.14-32.64,2.44-46.7,10.22c-6.47,3.58-12.23,8.46-19.07,11.25c-4.57,1.87-9.49,2.75-14.1,4.52
			c-16.2,6.21-26.24,22.11-35.14,37.01"/>
		<path class="st4" d="M803.95,1354.09c-14.66-2.54-29.59-3.44-44.45-2.69c-1.64,0.08-3.47,0.27-4.55,1.52
			c-0.84,0.98-1,2.35-1.11,3.64c-0.39,4.34-0.77,8.68-1.16,13.02c-0.34,3.84-0.68,7.72-0.17,11.54c0.78,5.75,3.45,11.05,6.07,16.23
			c1.3,2.55,2.67,5.19,4.94,6.93c2.26,1.72,5.16,2.35,7.97,2.77c8.97,1.32,18.1,0.98,27.16,0.56c14.59-0.68,29.18-1.55,43.65-3.48
			c5.47-0.73,10.97-1.62,16.13-3.58c2.84-1.08,5.8-2.73,6.83-5.59c0.91-2.54,0.04-5.38-1.22-7.76
			c-4.57-8.65-13.68-13.78-22.41-18.18c-10.52-5.31-21.94-10.4-33.65-9.06"/>
		<path class="st4" d="M907.06,1356.67c-40.52,6.09-83.21-12.42-122.14,0.37c-1.39,0.46-2.83,0.99-3.85,2.04
			c-2.71,2.77-1.26,7.43,0.79,10.72c6.07,9.69,16.32,16.66,27.57,18.72c11.69,2.15,23.87-0.8,35.56,1.37
			c-4.04,2.34-8.08,4.67-12.12,7.01c-0.45,0.26-0.93,0.55-1.15,1.02c-0.67,1.46,1.47,2.52,3.07,2.7c7.68,0.88,15.37,1.76,23.05,2.63
			c5.28,0.6,10.59,1.21,15.89,0.81c5.53-0.41,10.94-1.9,16.47-2.32c6.53-0.49,13.07,0.52,19.6,0.96
			c10.17,0.68,20.38-0.03,30.51-1.07c21.38-2.19,43.9-6.42,59.82-20.86c2.95-2.68,5.83-6.4,4.87-10.27
			c-0.49-1.97-1.91-3.57-3.5-4.83c-5.34-4.2-12.51-5.03-19.27-5.62c-27.74-2.44-55.58-3.6-83.43-3.48c-0.77,0-1.63,1.15-0.87,1.17"
			/>
		<path class="st4" d="M1034.5,1358.33c-2.23-2.58-5.53-3.98-8.85-4.75c-12.26-2.85-24.84,1.89-37.34,3.32
			c-3.46,0.4-6.95,0.54-10.38,1.12c-3.82,0.64-7.52,1.82-11.21,3c-4.37,1.39-8.74,2.78-13.11,4.18c-1.02,0.32-2.16,0.76-2.54,1.76
			c-0.64,1.67,1.3,3.11,2.92,3.86c3.79,1.75,7.58,3.5,11.37,5.25c2.4,1.11,5.24,3.05,4.66,5.63c-0.22,0.96-0.91,1.75-1.66,2.4
			c-3.16,2.74-7.46,3.61-11.47,4.8c-4.01,1.19-8.23,3.09-10.06,6.85c5.3,2.62,11.66,0.31,17.54,1.02c4.87,0.59,9.28,3.25,14.14,3.96
			c2.05,0.3,4.14,0.24,6.21,0.18c21.7-0.63,43.41-1.3,65.11-2.01c3.08-0.1,6.15-0.2,9.23-0.3c3.59-0.12,7.26-0.25,10.63-1.5
			c2.7-1,5.32-2.99,5.84-5.82c0.27-1.48-0.07-3-0.43-4.45c-1.07-4.27-2.41-8.47-3.99-12.57c-0.31-0.81-0.68-1.67-1.41-2.14
			c-0.74-0.48-1.68-0.46-2.55-0.44c-6.61,0.17-13.33-0.42-19.53-2.7c-6.21-2.28-11.9-6.37-15.25-12.07"/>
		<path class="st4" d="M974.94,1394.53c0.38-0.73-0.68-1.33-1.49-1.48c-5.72-1.04-11.87-2.02-17.13,0.45
			c-0.9,0.42-1.82,1.02-2.15,1.96c-0.49,1.43,0.63,2.93,1.89,3.76c2.04,1.35,4.55,1.8,7,1.95c2.44,0.15,4.9,0.03,7.32-0.36
			c1.8-0.29,3.6-0.73,5.18-1.64c1.58-0.91,2.92-2.34,3.42-4.09"/>
		<path class="st5" d="M766.51,1412.52c-1.24,9.21-2.39,18.45-3.46,27.71c-0.36,3.1-0.69,6.42,0.18,9.27
			c0.66,2.15,1.91,3.72,3.17,5.1c10.34,11.34,23.5,15.25,36.23,15.14s25.3-3.91,37.91-6.61c29.24-6.26,58.87-6.61,88.39-5.91
			c34.06,0.8,68.21,2.98,102.15-1.57c12.55-1.68,26.15-5.11,34.66-19.3c5.94-9.91,7.84-27.37,1.09-36.01
			c-4.15-5.31-10.1-5.6-15.48-4.7c-13.1,2.2-25.55,9.83-38.56,13.02c-6.31,1.55-12.71,2.04-19.09,2.53
			c-63.88,4.92-127.76,9.84-191.64,14.76"/>
		<path class="st5" d="M1042.54,1431.65c3.32-1.31,4-8.74,1.99-12.98c-2.01-4.24-5.52-6.01-8.8-7.54
			c-10.21-4.76-20.69-9.57-31.35-8.63c-5.57,0.49-11.02,2.55-16.5,4.14c-37.63,10.91-76.35-0.18-114.66,0.21
			c-14.16,0.15-28.29,1.87-42.41,3.59c-18.12,2.21-36.24,4.42-54.36,6.62c-3.37,0.41-7.37,1.49-8.7,6.23
			c-1,3.58,0.14,7.89,2.05,10.46c1.91,2.57,4.43,3.77,6.9,4.77c11.7,4.74,23.83,6.46,35.93,7.23c20.56,1.3,41.14-0.12,61.7-1.54
			c44.76-3.09,89.52-6.18,134.28-9.27c0.95-0.07,2-0.2,2.65-1.26c0.65-1.06,0.36-3.31-0.59-3.31"/>
		<path class="st5" d="M764.4,1440.56c-2.49,7.57-4,15.88-4.44,24.32c12.12,3.87,24.58,5.29,36.94,4.22
			c2.41-0.21,5.03-0.65,6.76-3.23"/>
		<path class="st5" d="M1071.31,1399.77c-0.49,0.35-0.43-1.38,0.1-1.27c0.53,0.11,0.75,1.09,0.86,1.89
			c2.36,18.46,3.18,37.38,2.43,56.16c-0.17,4.21-0.73,9.14-3.21,10.98c-1.44,1.07-3.14,0.74-4.73,0.41
			c-29.2-6.06-58.84-3.06-88.31-3.48c-31.89-0.46-63.69-4.93-95.44-9.39c-10.21-1.44-20.73-3.01-29.78-10.36
			c29.32-17.93,61.92-17.02,93.5-15.83"/>
		<path class="st5" d="M909.44,1444.07c-26.97-8.76-55.88-2.95-80.44,16.19c-0.58,5.3,4.16,7.71,7.67,7.98
			c9.24,0.72,18.48,1.44,27.71,2.15c7.47,0.58,14.94,1.16,22.42,1.36c6.53,0.17,13.06,0.06,19.59-0.06
			c8.4-0.15,16.79-0.3,25.19-0.45c41.89-0.75,83.91-1.51,125.44-10c0.78-3.86-0.73-8.11-2.9-10.43s-4.85-3.13-7.45-3.87
			c-34.78-9.9-69.95-16.52-105.26-19.97"/>
		<path class="st5" d="M544.58,968.15c-8.04,4.4-16.08,8.79-24.12,13.19c-21.38,11.69-43.53,23.62-67.8,25.89
			c-8.08,0.76-18.2,1.73-20.93,9.37c-2.14,5.99,1.99,12.33,6.36,16.95c20.87,22.09,51.96,33.14,70.59,57.14
			c5.91,7.62,10.39,16.34,17.01,23.35c6.76,7.15,15.47,12.22,22.32,19.28c10.52,10.84,15.93,25.56,24.49,38.01
			c3.73,5.42,8.29,10.58,14.34,13.15c4.07,1.73,8.55,2.18,12.96,2.56c8.37,0.72,16.88,1.23,25.08-0.57s16.16-6.24,20.47-13.45
			c4.37-7.32,4.43-16.54,2.33-24.81c-2.1-8.26-6.16-15.87-9.72-23.61c-9.75-21.18-15.94-43.8-24.48-65.49
			c-2.2-5.6-4.56-11.13-6.92-16.66c-5.53-12.99-11.07-25.97-16.6-38.96c-5.84-13.72-13.09-28.81-27.09-33.92
			c-11.71-4.27-24.63-0.17-36.4,3.93"/>
		<path class="st5" d="M549.76,1092.12c-21.12-23.42-49.01-39.47-76.39-55.11c-2.54-1.45-5.18-2.94-8.1-3.17
			c-6.57-0.52-12.15,5.9-12.71,12.47s2.68,12.88,6.65,18.14c3.97,5.26,8.78,9.9,12.2,15.53c5.38,8.86,6.91,19.42,9.34,29.49
			c7.46,30.88,24.03,58.66,40.38,85.9c8.62,14.37,17.35,28.88,29.04,40.89c14.29,14.69,32.58,25.2,45.98,40.71
			c5.49,6.35,10.3,13.66,17.63,17.76c7.75,4.33,17.2,4.38,25.95,2.91c32.79-5.5,58.91-29.54,82.96-52.51
			c14.3-13.66,28.61-27.32,42.91-40.98c15.53-14.83,31.22-29.86,42.64-48.04c10.6-16.88,17.18-35.97,22.42-55.21
			c7.22-26.52,11.85-55.74,0.42-80.74c-7.11-15.55-21.97-28.9-39.07-28.71c-13.98,0.15-26.28,9-36.61,18.41
			c-6.73,6.14-13.11,12.71-18.55,20.02c-7.44,10-13.04,21.23-18.17,32.59c-9.68,21.43-18.87,44.84-38.3,58.1
			c-12.23,8.35-28.19,12.4-36.36,24.76c-2.68,4.05-4.96,9.29-9.72,10.27c-3.35,0.7-6.7-1.1-9.48-3.09
			c-11.24-8.02-19.11-20.07-24.26-32.88c-3.06-7.62-5.61-16.08-12.18-21c-3.64-2.72-8.14-4.02-12.6-4.88
			c-12.53-2.41-25.63-1.75-37.85,1.91"/>
		<path class="st5" d="M635.46,1281.51c-8.35,1.97-17.12-1.59-23.96-6.77s-12.33-11.91-18.72-17.63
			c-12.33-11.03-28.1-18.16-44.52-20.12c5.68,13.73,14.44,26.18,25.45,36.16c5.36,4.86,11.24,9.14,16.4,14.21
			c8.01,7.89,14.13,17.57,22.38,25.22c8.24,7.65,19.76,13.25,30.61,10.27c8.37-2.3,14.59-9.13,20.3-15.67
			c8.82-10.08,17.61-20.18,26.4-30.28c6.11-7.02,12.22-14.04,18.32-21.06c1.78-2.04,3.68-4.53,3.09-7.17
			c-0.57-2.58-3.25-4.04-5.69-5.04c-18.46-7.53-39.23-7.31-58.92-4.18c-19.69,3.12-38.85,9.01-58.48,12.51
			c2.15-1.39,4.29-2.77,6.44-4.16"/>
		<path class="st5" d="M852.33,859.65c-19.43-5.17-39.07-10.37-59.17-11.03c-20.1-0.66-41,3.63-57.01,15.79
			c-23.66,17.97-32.47,49.14-37.75,78.38c-4.36,24.15-7.29,48.54-11.45,72.73c-9.65,56.11-25.92,111.08-48.36,163.4
			c77.81-16.34,154.82-36.45,230.68-60.23c40.37-12.65,81.43-26.5,123.72-25.28c13.55,0.39,27.11,2.33,40.6,1.04
			c33.65-3.23,62.2-26.05,84.7-51.28c4.43-4.96,8.96-10.78,8.55-17.42c-0.25-3.99-2.3-7.65-4.73-10.82
			c-8.2-10.68-20.67-16.98-31.92-24.38s-22.28-17.36-24.48-30.64c-0.99-5.97-0.08-12.14-1.16-18.09
			c-2.44-13.49-14.23-22.99-25.2-31.21c3.82,1.21,7.44-3.8,6.05-7.56c-1.4-3.76-5.89-5.57-9.89-5.26c-4,0.31-7.66,2.23-11.3,3.9
			c-21.72,9.99-46.86,11.4-69.89,5.42c-11.62-3.02-22.76-7.92-32.74-14.6c-8.05-5.39-13.32-14.27-21.22-19.24
			c-6.14-3.86-14.79-4.79-21.7-6.62C869.88,864.32,861.11,861.98,852.33,859.65z"/>
		<path class="st5" d="M1079.96,907.25c-30.42-10.83-65.11-1.93-92.08,15.83c-26.96,17.76-47.6,43.43-67.29,69.02
			c-34.91,45.38-68.88,92.94-86.28,147.49c-6.62,20.75-10.7,43.39-4.16,64.17c8.04,25.56,30.77,43.84,54.64,56.04
			c23.86,12.2,49.9,19.93,73.11,33.33c15.28,8.82,29.24,20.06,45.47,26.99c26.73,11.41,57.58,10.06,85.42,1.71
			c27.84-8.34,53.22-23.21,77.9-38.56c7.08-4.4,14.54-9.32,17.8-17c4.27-10.06,0.83-23.62,9.03-30.84
			c8.2-7.23,21.08-2.09,31.82-4.16c5.29-1.02,10.04-3.84,14.57-6.75c20.79-13.36,39.61-29.79,55.65-48.59
			c2.31-2.7,4.61-5.56,5.58-8.97c1.09-3.84,0.37-7.94-0.39-11.86c-7.14-36.56-17.85-72.42-31.95-106.9
			c-1.1-2.68-2.39-5.56-4.96-6.91c-3.4-1.79-7.52-0.19-10.98,1.48c-24.03,11.62-46.34,26.78-65.98,44.85
			c-5.18-9.34,3.01-20.45,3.24-31.13c0.36-16.75-17.64-26.72-31.31-36.4c-39.5-27.96-59.94-81.49-105.68-97.3
			c-3.77-1.3-8.12-2.26-11.59-0.28"/>
		<path class="st5" d="M1108.23,908.86c-17.48-5.8-36.74-4.37-54.36,0.97s-33.88,14.37-49.7,23.79
			c-10.95,6.52-21.88,13.35-30.84,22.42c-8.96,9.07-15.88,20.68-17.11,33.36c-0.13,1.31-0.18,2.7,0.46,3.85
			c0.91,1.63,2.9,2.27,4.71,2.71c23.91,5.75,48.99,0.74,73.54,2.24c9.94,0.61,19.82,2.29,29.4,5.02
			c12.34,3.51,25.1,9.57,30.92,21.01c5.83,11.45,3.18,25.45-1.9,37.25s-12.44,22.63-16.25,34.9c19.68,7.73,40.65,12.18,61.77,13.09
			c5.65,0.24,11.69,0.13,16.4-2.98c10.43-6.89,8.12-22.99,14.57-33.7c4.13-6.86,11.71-11.13,15.66-18.09
			c3.75-6.6,3.71-14.62,3.37-22.2c-0.64-14.77-1.99-29.5-4.03-44.14c-2.02-14.48-4.91-29.35-13.16-41.41
			c-6.4-9.35-15.59-16.39-24.82-22.96c-8.54-6.08-17.34-11.97-27.1-15.81c-9.76-3.84-20.63-5.53-30.8-3.01
			c-1.91,0.47-4.2,1.69-3.95,3.64"/>
		<path class="st5" d="M886.1,1151.69c1.75-13.83-0.34-28.11-5.95-40.87c-1.72-3.91-3.84-7.76-7.03-10.6
			c-4.91-4.37-11.77-5.83-18.34-6.04c-20.58-0.65-40.37,9.5-55.34,23.66s-25.76,32.07-35.83,50.03
			c-6.74,12.01-13.25,24.16-19.51,36.43c-0.81,1.58-1.66,3.22-3.06,4.3c-1.09,0.84-2.45,1.28-3.8,1.56
			c-5.48,1.12-11.14-0.17-16.74-0.23c-5.6-0.06-11.91,1.65-14.51,6.61c-1.21,2.31-1.42,5-1.51,7.6
			c-0.34,10.63,1.13,21.31,4.34,31.45c4.31-3.34,7.68-7.89,9.63-12.98c6.34,32.49,5.17,66.43-3.4,98.41
			c4.81,2.14,10.36,0.27,15.27-1.61c15.96-6.09,31.92-12.19,47.88-18.28c29.48-11.26,59.09-22.55,89.87-29.48
			c32.15-7.24,65.38-9.66,96.93-19.18c6.14-1.85,12.38-4.07,17.17-8.33c5.76-5.11,8.78-12.56,11.37-19.81
			c3.53-9.87,6.61-19.91,9.23-30.06c2.39-9.24,4.4-18.93,2.4-28.27c-2.84-13.27-13.28-23.56-24.31-31.47
			c-15.75-11.3-33.73-19.48-52.6-23.92c-12.3-2.9-25.49-4.16-37.39,0.12"/>
		<path class="st5" d="M783.41,1313.22c-23.92,6.8-46.74,17.45-67.32,31.41c11.26,5.88,24.38,6.68,37.06,7.36
			c41.3,2.22,82.61,4.44,123.91,6.65c47.65,2.56,95.44,5.12,143.07,2.04c20.77-1.34,41.82-3.85,60.93-12.1
			c19.11-8.25,36.25-22.99,43.2-42.6c2.65-7.48,3.67-16.11-0.02-23.14c-2.75-5.23-7.73-8.89-12.72-12.05
			c-28-17.71-61.21-25.46-94.14-29.06c-67.67-7.41-137.09,1.71-200.55,26.33c-12.17,4.72-24.51,10.27-33.34,19.9"/>
		<path class="st5" d="M1231.42,1198.16c-3.97-5.19-11.27-6.65-17.78-6.03c-14.19,1.37-26.3,10.49-37.23,19.64
			c-17.53,14.67-34.39,30.51-47.23,49.43c-12.85,18.91-21.53,41.23-21.31,64.09c0.02,2.45,0.13,5-0.85,7.25
			c-1.51,3.45-5.2,5.34-8.65,6.85c-12.57,5.51-25.74,9.63-39.2,12.28c-10.97,2.16-23.85,4.51-28.82,14.53
			c10.38,1.57,20.87,2.81,31.36,2.27c6.91-0.36,13.76-1.48,20.6-2.6c4.99-0.82,9.97-1.64,14.96-2.46c5.3-0.87,10.74-1.79,15.38-4.51
			c4.69-2.75,8.16-7.12,11.49-11.42c17.9-23.13,34.71-47.1,50.35-71.81c4.76-7.52,9.46-15.21,12.02-23.73
			c0.39-1.3,0.72-2.74,0.13-3.96c-0.51-1.06-1.61-1.7-2.67-2.21c-3.71-1.77-7.81-2.69-11.91-2.68"/>
		<path class="st5" d="M1147.98,1298.31c-7.96,0.4-12.71,8.7-16.66,15.64c-11.78,20.69-29.43,37.98-50.36,49.32
			c-1.29,0.7-2.62,1.38-4.06,1.61c-3.43,0.53-7.87-1.24-9.83,1.62c6.57,5.58,16.27,4.98,24.74,3.36
			c24.39-4.69,48.4-16.12,63.31-35.99c5.85-7.8,10.61-17.11,19.26-21.61c3.27-1.7,6.93-2.6,10.14-4.42
			c3.52-1.98,6.34-4.97,9.11-7.91c27.96-29.73,55.93-59.46,83.89-89.19c11.47-12.19,23.25-24.9,28.69-40.73
			c0.97-2.83,1.73-5.86,1.07-8.78c-0.87-3.87-4.1-6.8-7.57-8.72c-8.75-4.86-19.56-4.8-29.17-2.04c-9.62,2.76-18.32,7.98-26.89,13.14
			c-11.18,6.73-22.36,13.46-33.55,20.19c-4.99,3.01-10.49,6.73-11.37,12.5"/>
		<path class="st5" d="M1037.95,1408.53c0.71-1.01-0.01-2.47-1.05-3.14c-1.04-0.67-2.31-0.84-3.44-1.33
			c-1.45-0.63-2.61-1.76-3.95-2.6c-3.26-2.06-7.4-2.33-11.18-1.56c-3.78,0.77-7.29,2.49-10.75,4.19c-0.42,0.21-0.86,0.42-1.17,0.77
			c-0.78,0.84-0.63,2.25,0.04,3.18c0.67,0.93,1.74,1.48,2.78,1.95c5.35,2.38,11.23,3.32,17.07,3.7c1,0.06,2.06,0.1,2.94-0.37
			c0.88-0.47,1.47-1.65,0.96-2.51"/>
		<path class="st5" d="M1117.65,1341.75c0.43-4.92-3.94-9.72-8.87-9.76c-1.59-0.01-3.16,0.4-4.67,0.92
			c-2.9,1.01-5.66,2.43-8.15,4.23c-2.53,1.81-5,4.68-4.18,7.68c0.47,1.74,2.01,3.04,3.71,3.65s3.54,0.63,5.34,0.53
			c4.22-0.22,8.62-1.13,11.83-3.88c3.22-2.74,4.79-7.74,2.62-11.36"/>
		<path class="st5" d="M766.81,1426.29c1.99,3.41,6.51,4.18,10.45,4.43c18.24,1.15,36.5-1.06,54.74-2.32
			c46.24-3.2,92.65-0.27,138.99,0.82c9.91,0.23,19.85,0.38,29.72-0.51c4.17-0.38,8.4-0.96,12.16-2.81c3.75-1.85,7-5.16,7.79-9.27
			c1-5.22-2.25-10.58-6.75-13.41s-10-3.58-15.32-3.72c-15.41-0.39-30.57,3.81-45.97,4.54c-16.87,0.8-33.7-2.56-50.58-2.19
			c-13.94,0.31-27.69,3.16-41.53,4.85c-17.01,2.08-34.16,2.41-51.27,2.82c-8.24,0.2-17.08,1.48-25.28,0.78
			c-3.95-0.34-8.67-4.37-12.54-3.04C765.5,1409.31,764.11,1421.65,766.81,1426.29z"/>
		<path class="st5" d="M780.91,1461.24c-6.08-1.24-12.26-1.94-18.46-2.11c-0.65-0.02-1.36-0.01-1.87,0.41
			c-0.6,0.5-0.67,1.38-0.7,2.16c-0.09,3.07-0.18,6.13-0.27,9.2c30.53-0.15,61.05-0.31,91.58-0.46c6.67-0.03,14.13-0.4,18.69-5.26
			c-19.93-10.56-43.87-10.34-66.12-6.65"/>
		<path class="st5" d="M1037.58,1456.52c0.7-0.32,0.56-1.46-0.07-1.9c-0.63-0.44-1.47-0.39-2.24-0.31
			c-22.31,2.2-44.32,7.4-65.25,15.4c0.33,1.65,2.48,2.02,4.16,2.03c9.55,0.04,19.11,0.07,28.66,0.11
			c21.58,0.08,43.26,0.15,64.6-3.04c0.43-0.06,0.88-0.14,1.22-0.41c0.36-0.29,0.53-0.75,0.63-1.19c0.81-3.43-1.35-7-4.28-8.94
			c-2.94-1.94-6.51-2.59-9.98-3.19c-9.6-1.65-19.48-3.17-29.02-1.16"/>
		<g>
			<g>
				<path d="M1093.35,671.24c0.06-7.14-3.88-17.32-12.25-17.69c-3.96-0.18-7.66,2.14-10.55,4.62c-2.5,2.15-4.56,4.85-6.17,7.72
					c-3.36,6.02-4.91,12.82-5.79,19.59c-1.13,8.61-1.51,17.57-0.37,26.2c1.09,8.27,5.25,17.34,14.21,19.29
					c1.41,0.31,2.9-0.42,3.3-1.87c0.37-1.34-0.45-2.99-1.87-3.3c-6.12-1.34-9.03-7.4-10.08-13.05c-0.67-3.6-0.76-7.32-0.8-10.97
					c-0.04-3.78,0.11-7.57,0.44-11.34c0.93-10.7,3.32-24.45,13.54-30.32c1.37-0.79,3.04-1.48,4.64-1.14
					c1.39,0.29,2.53,1.35,3.36,2.45c2.11,2.77,3.05,6.36,3.02,9.8C1087.96,674.7,1093.32,674.7,1093.35,671.24L1093.35,671.24z"/>
			</g>
		</g>
		<g>
			<g>
				<path d="M1105.46,656.19c1.78,13.37,3.56,26.77,4.04,40.26c0.47,13.27-0.6,26.5-2.89,39.57c-2.27,12.97-5.55,25.74-9.15,38.4
					c-3.5,12.28-7.36,24.47-11.75,36.46c-4.93,13.45-10.54,26.63-17.05,39.4c-1.35,2.66,1.97,5.46,4.21,3.25
					c10.5-10.3,20.04-21.58,28.51-33.6c8.38-11.9,15.68-24.55,21.79-37.75c6.38-13.8,11.46-28.17,15.18-42.91
					c4.09-16.2,6.67-32.73,8.62-49.31c0.98-8.31,1.79-16.65,2.55-24.98c0.37-4.12,0.77-8.25,1.1-12.38c0.16-2-0.52-4.39-2.73-4.96
					c-2.07-0.54-4.04,1.1-4.07,3.2c-0.03,1.94,1.79,3.89,3.84,3.07c1.35-0.53,2.29-1.79,1.87-3.3c-0.35-1.28-1.95-2.41-3.3-1.87
					c0.14-0.02,0.29-0.03,0.43-0.05c0.63,0.26,1.26,0.52,1.9,0.79c0.76,0.95,0.82,1.84,0.18,2.67c-0.39,0.23-0.79,0.46-1.18,0.69
					c0.05-0.02,0.1-0.03,0.16-0.05c-0.48,0-0.95,0-1.43,0c-0.33-0.33-0.65-0.66-0.98-0.99c-0.01-0.19-0.01-0.1,0,0.25
					c-0.11,0.37-0.07,0.88-0.1,1.27c-0.08,0.95-0.17,1.9-0.25,2.86c-0.18,2.06-0.36,4.13-0.55,6.19c-0.34,3.81-0.69,7.62-1.06,11.43
					c-0.74,7.62-1.56,15.22-2.55,22.81c-1.97,15.2-4.65,30.35-8.63,45.17c-7.05,26.2-18.58,51.06-33.98,73.41
					c-8.56,12.43-18.33,24-29.1,34.57c1.4,1.08,2.81,2.17,4.21,3.25c11.77-23.11,20.69-47.57,27.98-72.42
					c7.5-25.56,13.91-51.88,13.71-78.69c-0.12-15.31-2.14-30.53-4.15-45.68c-0.19-1.44-1.1-2.68-2.68-2.68
					C1106.84,653.5,1105.27,654.74,1105.46,656.19L1105.46,656.19z"/>
			</g>
		</g>
		<g>
			<g>
				<path d="M876.2,598.39c0.8-17.47,6.78-34.34,16.1-49.05c9.56-15.08,22.61-27.69,37.63-37.29c15.82-10.11,33.5-16.96,51.76-21.17
					c19.86-4.59,41.03-6.95,61.12-2.47c10.13,2.26,19.9,5.9,29.47,9.87c9.1,3.77,18.57,7.37,26.96,12.61
					c1.96,1.23,3.85,2.56,5.62,4.04c1.11,0.93,2.71,1.09,3.79,0c0.96-0.96,1.12-2.86,0-3.79c-7.89-6.61-17.37-10.55-26.74-14.57
					c-9.9-4.24-19.86-8.42-30.23-11.42c-10.56-3.05-21.42-4.59-32.42-4.47c-10.64,0.12-21.3,1.48-31.74,3.49
					c-19.11,3.67-37.84,10.11-54.72,19.86c-16.31,9.42-30.65,21.98-41.59,37.34c-10.58,14.86-17.72,32.18-19.84,50.34
					c-0.26,2.22-0.44,4.45-0.54,6.69C870.68,601.85,876.04,601.84,876.2,598.39L876.2,598.39z"/>
			</g>
		</g>
		<g>
			<g>
				<path d="M956.97,596.65c-19.29-13.33-44.41-16.11-66.79-10.17c-11.23,2.98-21.92,8.07-31.54,14.56
					c-9.8,6.62-18.93,14.65-26.19,24.01c-7.74,9.98-12.37,21.56-14.57,33.95c-2.33,13.09-2.54,26.51-1.82,39.75
					c1.42,26.42,6.71,52.49,7.62,78.95c0.78,22.79-1.53,46.6-12.36,67.05c-1.31,2.47-2.73,4.87-4.26,7.2
					c-1.9,2.9,2.75,5.59,4.63,2.71c12.71-19.42,17.08-42.87,17.46-65.75c0.42-25.4-4.17-50.47-6.61-75.66
					c-1.3-13.41-1.99-26.92-0.99-40.38c0.89-11.98,3.15-24.19,8.84-34.89c5.48-10.32,13.84-18.9,22.82-26.25
					c8.68-7.1,18.5-13.03,28.99-17.03c20.85-7.96,44.94-8.26,64.98,2.27c2.45,1.29,4.82,2.73,7.1,4.31
					c1.19,0.82,2.98,0.22,3.67-0.96C958.71,598.99,958.16,597.48,956.97,596.65L956.97,596.65z"/>
			</g>
		</g>
		<g>
			<g>
				<path d="M977.76,633.94c-6.98-4.38-15.87-0.82-20.68,5.12c-6.35,7.84-5.25,18.39-3.3,27.63c1.93,9.14,3.92,18.2,5.05,27.49
					c1.09,9,1.65,18.07,1.69,27.14c0.08,18.26-1.95,36.5-6.03,54.29c-4.06,17.72-10.1,35-18.11,51.34
					c-4.02,8.2-8.52,16.17-13.49,23.84c-4.71,7.28-9.73,15.3-16.83,20.52c-1.79,1.32-3.71,2.43-5.74,3.33
					c-1.33,0.58-1.63,2.52-0.96,3.67c0.8,1.37,2.34,1.55,3.67,0.96c8.47-3.74,14.44-11.2,19.64-18.59
					c5.18-7.36,9.91-15.04,14.19-22.96c8.62-15.98,15.41-32.98,20.22-50.48c4.84-17.59,7.71-35.74,8.54-53.96
					c0.82-18.08-0.42-36.26-3.72-54.06c-0.87-4.68-1.98-9.29-2.96-13.95c-0.99-4.71-1.81-9.62-1.17-14.45
					c0.52-3.91,2.03-7.23,4.91-9.92c2.35-2.19,5.44-3.66,8.46-3.58c1.39,0.04,2.58,0.42,3.9,1.25
					C977.99,640.41,980.69,635.77,977.76,633.94L977.76,633.94z"/>
			</g>
		</g>
		<g>
			<g>
				<path d="M1036.68,797.98c-0.37,26.29-0.91,52.59-1.11,78.88c-0.06,7.4,0.08,14.8,1.01,22.15c0.18,1.44,1.1,2.68,2.68,2.68
					c1.31,0,2.87-1.24,2.68-2.68c-1.64-12.93-0.96-26.07-0.78-39.07c0.19-13.16,0.37-26.32,0.56-39.48
					c0.11-7.5,0.21-14.99,0.32-22.49C1042.09,794.53,1036.73,794.52,1036.68,797.98L1036.68,797.98z"/>
			</g>
		</g>
		<g>
			<g>
				<path d="M1111.18,514.7c20.61,4.73,37.39,19.66,47.18,38.08c11.1,20.87,12.01,45.4,5.9,67.94c-3.67,13.55-9.74,26.34-17.52,38
					c-0.81,1.21-0.23,2.97,0.96,3.67c1.32,0.77,2.86,0.25,3.67-0.96c14.39-21.55,23.34-47.63,21.92-73.74
					c-1.24-22.97-11.08-45.21-28.19-60.77c-9.2-8.37-20.34-14.6-32.5-17.39C1109.25,508.76,1107.81,513.93,1111.18,514.7
					L1111.18,514.7z"/>
			</g>
		</g>
		<g>
			<g>
				<path d="M1036.7,848.78c3.23,5.44,10.4,7.77,16.34,8.56c6.15,0.82,12.57-0.2,17.82-3.63c2.88-1.88,0.2-6.53-2.71-4.63
					c-4.21,2.75-9.21,3.6-14.17,3.02c-2.43-0.29-4.88-0.96-7.13-1.9c-2.13-0.89-4.31-2.08-5.52-4.12
					C1039.57,843.1,1034.93,845.8,1036.7,848.78L1036.7,848.78z"/>
			</g>
		</g>
		<g>
			<g>
				<path d="M1154.94,649.72c-4.99,29.58-5.92,59.8-2.57,89.62c0.82,7.32,2,14.56,3.17,21.83c0.73,4.53,1.59,11.02-2.53,14.23
					c-2.09,1.63-4.91,2.09-7.44,2.62c-2.88,0.61-5.8,1.27-8.35,2.82c-2.77,1.68-4.91,4.12-6.95,6.6c-2.41,2.93-4.8,5.88-7.2,8.82
					c-5.04,6.18-9.93,12.53-15.26,18.47c-4.46,4.97-9.55,9.7-15.95,11.96c-1.37,0.48-2.28,1.83-1.87,3.3
					c0.36,1.32,1.93,2.36,3.3,1.87c12.79-4.53,20.93-16.32,29.17-26.4c2.52-3.09,5.05-6.18,7.57-9.28c2.2-2.7,4.31-5.52,6.72-8.04
					c2.12-2.21,4.4-3.54,7.36-4.3c2.72-0.7,5.54-1.04,8.17-2.05c2.98-1.14,5.58-3.01,7.17-5.84c1.44-2.56,1.96-5.54,2-8.46
					c0.04-3.08-0.45-6.16-0.98-9.19c-0.64-3.66-1.23-7.33-1.74-11.02c-2.1-14.97-3.06-30.1-2.99-45.21
					c0.09-17.06,1.53-34.1,4.37-50.93c0.24-1.43-0.38-2.89-1.87-3.3C1156.96,647.49,1155.18,648.28,1154.94,649.72L1154.94,649.72z"
					/>
			</g>
		</g>
		<g>
			<g>
				<path d="M944.48,825.62c21.85,9.67,47.02,7.26,68.16-3.15c21.69-10.68,37.89-30.01,47.92-51.71
					c5.73-12.4,9.65-25.55,11.96-39.01c0.24-1.43-0.38-2.89-1.87-3.3c-1.29-0.35-3.05,0.44-3.3,1.87
					c-3.89,22.73-12.39,45.27-27.17,63.2c-7.2,8.73-15.75,16.27-25.61,21.86c-9.63,5.46-20.42,9.2-31.44,10.49
					c-12.14,1.42-24.69,0.07-35.93-4.9c-1.32-0.59-2.88-0.39-3.67,0.96C942.85,823.09,943.15,825.03,944.48,825.62L944.48,825.62z"
					/>
			</g>
		</g>
		<g>
			<g>
				<path d="M905.16,880.66c4.28,8.3,13.22,12.78,21.35,16.48c8.86,4.03,18.1,7.21,27.58,9.42c18.94,4.43,38.63,5.15,57.85,2.24
					c10.73-1.63,21.26-4.45,31.35-8.44c1.35-0.53,2.29-1.8,1.87-3.3c-0.35-1.28-1.94-2.41-3.3-1.87
					c-17.36,6.85-35.94,10.21-54.6,10.01c-18.62-0.2-37.2-3.93-54.4-11.09c-4.53-1.89-9.05-3.98-13.26-6.52
					c-4-2.42-7.64-5.41-9.81-9.63C908.21,874.88,903.58,877.59,905.16,880.66L905.16,880.66z"/>
			</g>
		</g>
		<g>
			<g>
				<path d="M899.89,866.97c-24.7-2.5-48.26-10.9-72.38-16.31c-21.18-4.76-43.59-7.11-64.9-1.75c-10.38,2.61-20.18,7.19-28.61,13.82
					c-8.37,6.58-15.13,15.11-20.38,24.33c-11.85,20.82-15.78,44.75-19.61,68.06c-4.25,25.82-8.49,51.64-12.74,77.46
					c-0.53,3.2-1.05,6.39-1.58,9.59c-0.23,1.43,0.37,2.89,1.87,3.3c1.28,0.35,3.06-0.44,3.3-1.87c4.21-25.57,8.41-51.15,12.62-76.72
					c3.85-23.41,6.72-47.87,16.88-69.58c4.38-9.37,10.07-18.18,17.44-25.48c7.26-7.19,16.09-12.54,25.75-15.82
					c19.74-6.72,41.41-5.61,61.6-1.62c24.07,4.75,47.3,13.16,71.6,16.82c3.03,0.46,6.07,0.85,9.12,1.15
					c1.44,0.15,2.68-1.34,2.68-2.68C902.57,868.08,901.34,867.11,899.89,866.97L899.89,866.97z"/>
			</g>
		</g>
		<g>
			<g>
				<path d="M639.13,1177.05c5.9-16.79,11.81-33.58,17.71-50.37c5.88-16.71,11.75-33.43,17.63-50.14
					c3.34-9.49,6.68-18.99,10.01-28.48c0.48-1.37-0.55-2.94-1.87-3.3c-1.48-0.41-2.82,0.5-3.3,1.87
					c-5.9,16.79-11.81,33.58-17.71,50.37c-5.88,16.71-11.75,33.43-17.63,50.14c-3.34,9.49-6.68,18.99-10.01,28.48
					c-0.48,1.37,0.55,2.94,1.87,3.3C637.31,1179.34,638.65,1178.43,639.13,1177.05L639.13,1177.05z"/>
			</g>
		</g>
		<g>
			<g>
				<path d="M728.15,998.14c0.96,41.66-1.19,83.31-3.95,124.87c-2.74,41.38-6.07,82.73-7.47,124.18
					c-0.79,23.21-0.95,46.44-0.1,69.64c0.13,3.44,5.49,3.46,5.37,0c-1.54-41.63,0.26-83.29,2.89-124.84
					c2.62-41.39,6.04-82.74,7.77-124.19c0.97-23.21,1.39-46.44,0.86-69.67C733.43,994.69,728.07,994.68,728.15,998.14L728.15,998.14
					z"/>
			</g>
		</g>
		<g>
			<g>
				<path d="M710.2,1248.64c-7.22,13.53-17.12,25.84-27.64,36.93c-5.19,5.48-10.67,10.68-16.41,15.58
					c-5.48,4.68-11.17,9.4-17.56,12.8c-5.97,3.18-12.57,4.61-19.21,2.86c-6.39-1.69-11.92-5.7-16.77-10.07
					c-5.42-4.88-10.25-10.4-15.16-15.78c-5.32-5.83-10.59-11.7-15.77-17.65c-20.54-23.56-39.53-48.41-54.7-75.81
					c-15.05-27.19-26.86-55.98-39.26-84.42c-6.18-14.16-12.51-28.26-19.46-42.05c-7.29-14.46-15.3-28.56-24-42.22
					c-2.13-3.35-4.3-6.66-6.51-9.96c-1.91-2.85-6.56-0.17-4.63,2.71c9.21,13.73,17.73,27.91,25.5,42.5
					c7.52,14.11,14.27,28.62,20.74,43.23c12.79,28.88,24.56,58.28,39.37,86.22c14.97,28.23,33.74,53.93,54.48,78.17
					c5.25,6.13,10.6,12.18,16.01,18.17c5.06,5.6,10.07,11.28,15.39,16.64c9.78,9.86,22.32,18.93,36.96,15.8
					c7.34-1.57,13.82-5.83,19.68-10.33c6.09-4.67,11.92-9.67,17.47-14.96c11.21-10.69,21.33-22.63,29.96-35.5
					c2.21-3.29,4.27-6.67,6.14-10.17C716.46,1248.3,711.83,1245.59,710.2,1248.64L710.2,1248.64z"/>
			</g>
		</g>
		<g>
			<g>
				<path d="M446.59,1009.42c20.4,0.57,40.24-5.34,58.48-14.11c9.22-4.43,18.07-9.59,26.65-15.13c4.27-2.75,8.45-5.62,12.63-8.51
					c3.71-2.57,8-5.59,12.76-5.11c4.37,0.44,7.97,3.84,10.83,6.89c3.34,3.56,6.35,7.41,9.1,11.44c5.63,8.27,10.16,17.22,14.25,26.33
					c4.31,9.6,8.22,19.38,12.21,29.12c4.34,10.58,8.6,21.19,12.62,31.9c8.07,21.52,15.08,43.42,22.33,65.22
					c0.89,2.68,1.78,5.37,2.68,8.05c1.08,3.26,6.27,1.86,5.17-1.43c-7.37-22.16-14.48-44.43-22.46-66.38
					c-7.75-21.34-16.39-42.41-25.32-63.27c-4-9.33-8.3-18.57-13.6-27.24c-2.64-4.31-5.54-8.46-8.71-12.4
					c-3.15-3.91-6.56-7.84-10.79-10.63c-4.26-2.81-9.35-3.79-14.27-2.24c-4.98,1.56-9.15,4.9-13.4,7.81
					c-8.49,5.82-17.19,11.34-26.24,16.25c-17.69,9.61-37.09,17.03-57.38,17.99c-2.51,0.12-5.03,0.14-7.54,0.07
					C443.13,1003.96,443.13,1009.32,446.59,1009.42L446.59,1009.42z"/>
			</g>
		</g>
		<g>
			<g>
				<path d="M549.77,955.37c-4.61-23.36-10.06-46.52-15.69-69.66c-1.6-6.56-3.19-13.11-4.79-19.67c-0.57-2.33-3.71-2.52-4.9-0.64
					c-0.57,0.89-1.13,1.78-1.7,2.67c-1.86,2.92,2.78,5.61,4.63,2.71c0.57-0.89,1.13-1.78,1.7-2.67c-1.63-0.21-3.27-0.43-4.9-0.64
					c5.63,23.12,11.41,46.2,16.39,69.47c1.41,6.61,2.77,13.23,4.08,19.86c0.28,1.42,1.98,2.24,3.3,1.87
					C549.38,958.26,550.05,956.8,549.77,955.37L549.77,955.37z"/>
			</g>
		</g>
		<g>
			<g>
				<path d="M453.15,897.59c1.9,2.01,3.07,4.56,4.18,7.07c1.14,2.57,2.19,5.17,3.19,7.8c2.1,5.55,3.91,11.2,5.43,16.93
					c3.02,11.39,4.88,23.06,5.5,34.83c0.35,6.68,0.31,13.38-0.11,20.06c1.53-0.63,3.05-1.26,4.58-1.9
					c-1.71-2.11-2.57-5.12-2.17-7.82c0.21-1.43-0.36-2.88-1.87-3.3c-1.26-0.35-3.09,0.43-3.3,1.87c-0.7,4.79,0.5,9.27,3.55,13.04
					c1.59,1.96,4.45,0.19,4.58-1.9c1.54-24.51-2.11-49.38-10.69-72.4c-1.2-3.21-2.49-6.38-3.87-9.52c-1.36-3.1-2.85-6.09-5.2-8.57
					C454.56,891.29,450.77,895.09,453.15,897.59L453.15,897.59z"/>
			</g>
		</g>
		<g>
			<g>
				<path d="M434.68,893.52c-24.6-6.59-50.34-4.36-75.11,0.05c-7,1.25-13.96,2.68-20.92,4.16c1.1,1.1,2.2,2.2,3.3,3.3
					c0.32-1.17,0.64-2.34,0.96-3.5c0.92-3.33-4.26-4.76-5.17-1.43c-0.32,1.17-0.64,2.34-0.96,3.5c-0.57,2.06,1.34,3.72,3.3,3.3
					c23.99-5.1,48.55-9.8,73.18-7.7c6.76,0.58,13.44,1.73,19.99,3.49C436.6,899.59,438.02,894.42,434.68,893.52L434.68,893.52z"/>
			</g>
		</g>
		<g>
			<g>
				<path d="M332.98,892.33c-1.37-3.56,0.07-7.31,2.6-9.97c2.98-3.14,7.01-5.08,10.8-7.05c8.67-4.53,17.59-8.58,26.7-12.13
					c1.1-0.43,1.99-1.32,1.97-2.59c-0.03-1.86-0.74-3.62-2.15-4.86c-1.09-0.96-2.72-1.07-3.79,0c-0.98,0.98-1.09,2.83,0,3.79
					c0.39,0.34,0.57,0.55,0.58,1.07c0.66-0.86,1.31-1.72,1.97-2.59c-7.92,3.08-15.71,6.5-23.31,10.29
					c-6.71,3.34-14.84,6.71-18.95,13.35c-2.19,3.55-3.12,8.14-1.59,12.11c0.52,1.35,1.8,2.28,3.3,1.87
					C332.4,895.27,333.5,893.69,332.98,892.33L332.98,892.33z"/>
			</g>
		</g>
		<g>
			<g>
				<path d="M511.8,860.01c1.5,0.67,3,1.35,4.5,2.02c1.35,0.61,2.84,0.38,3.67-0.96c14.22-22.97,15.17-51.37,29.23-74.43
					c3.9-6.4,8.55-12.27,13.85-17.56c1.7-1.7,0.38-4.47-1.9-4.58c-11.51-0.53-23.41-0.34-34.11,4.46
					c-9.69,4.35-16.78,12.65-22.16,21.58c-3.05,5.06-5.62,10.39-8.15,15.72c1.01-0.41,2.02-0.82,3.03-1.23
					c-22.55-4.96-45.61-10.03-68.84-8.47c-5.8,0.39-11.5,1.37-17.24,2.21c-5.48,0.8-11.1,1.2-16.51-0.23
					c-5.29-1.39-10.22-3.9-15.3-5.88c-5.13-1.99-10.36-3.72-15.66-5.18c-10.76-2.96-21.84-4.81-32.98-5.54
					c-5.38-0.35-10.85-0.57-16.23-0.19c-5.33,0.38-10.55,1.75-14.72,5.23c-3.04,2.54-4.44,6.22-3.89,10.13
					c0.5,3.51,2.41,6.72,4.41,9.57c2.31,3.29,5.14,6.37,6.41,10.16c1.32,3.93,1.4,7.84,1.97,11.95c0.55,3.97,1.8,7.66,4.39,10.77
					c2.3,2.77,5.55,4.64,8.76,6.17c4.08,1.94,8.19,3.21,12.63,4.02c4.4,0.81,8.88,1.33,13.21,2.47c1.86,0.49,3.59,1.07,5.22,1.97
					c3.03,1.66,5.73-2.94,2.71-4.63c-0.93-0.52-1.87-1.05-2.8-1.57c-3.02-1.69-5.72,2.94-2.71,4.63c0.93,0.52,1.87,1.05,2.8,1.57
					c0.9-1.54,1.81-3.09,2.71-4.63c-7.59-4.16-16.72-3.91-24.92-6.12c-3.57-0.97-7.07-2.54-10.2-4.53c-2.46-1.56-4.5-3.74-5.48-6.43
					c-1.38-3.8-1.44-7.97-2-11.94c-0.56-3.92-1.78-7.63-3.97-10.95c-2.04-3.1-4.59-5.85-6.42-9.27c-0.74-1.38-1.2-2.42-1.49-4.1
					c-0.1-0.55-0.02-0.18-0.01-0.07c-0.02-0.21-0.03-0.43-0.04-0.64c0-0.16,0.03-0.96,0.01-0.79c-0.02,0.16,0.12-0.61,0.17-0.77
					c0.05-0.17,0.1-0.33,0.16-0.49c0.07-0.17,0.06-0.16-0.02,0.03c0.06-0.12,0.12-0.24,0.18-0.36c0.77-1.38,1.88-2.38,3.42-3.3
					c2.07-1.24,4.31-1.97,6.69-2.38c4.96-0.86,10.26-0.54,15.27-0.33c10.68,0.45,21.29,2,31.67,4.59c5.18,1.3,10.31,2.85,15.34,4.66
					c4.97,1.79,9.76,4.02,14.7,5.88c5.23,1.97,10.6,2.86,16.19,2.56c5.55-0.3,10.99-1.46,16.49-2.18
					c22.23-2.92,44.61,1.14,66.31,5.8c2.73,0.59,5.46,1.19,8.19,1.79c1.08,0.24,2.51-0.14,3.03-1.23
					c4.18-8.81,8.49-17.89,14.98-25.26c3.18-3.61,6.84-6.72,11.09-8.99c4.62-2.46,9.82-3.84,15-4.49c6.2-0.78,12.48-0.66,18.71-0.38
					c-0.63-1.53-1.26-3.05-1.9-4.58c-9.83,9.82-17.34,21.55-22.46,34.44c-4.95,12.47-7.83,25.61-12.16,38.29
					c-2.42,7.09-5.35,13.98-9.3,20.36c1.22-0.32,2.45-0.64,3.67-0.96c-1.5-0.67-3-1.35-4.5-2.02c-1.32-0.59-2.88-0.38-3.67,0.96
					C510.17,857.48,510.47,859.41,511.8,860.01L511.8,860.01z"/>
			</g>
		</g>
		<g>
			<g>
				<path d="M317.61,806.38c4.97-0.62,10.18-1.3,15.19-0.94c4.6,0.33,8.78,2.97,12.99,4.65c8.98,3.59,18.48,5.61,28.02,7.01
					c5.53,0.81,11.08,1.43,16.63,2c3,0.31,3.66-4.66,0.71-5.27c-1.12-0.23-2.24-0.47-3.36-0.7c-1.42-0.29-2.9,0.41-3.3,1.87
					c-0.37,1.33,0.45,3,1.87,3.3c1.12,0.23,2.24,0.47,3.36,0.7c0.24-1.76,0.48-3.51,0.71-5.27c-9.55-0.99-19.1-2.09-28.46-4.27
					c-4.65-1.08-9.25-2.42-13.71-4.14c-4.43-1.7-8.65-4.33-13.4-5.03c-5.65-0.83-11.64,0.01-17.26,0.71
					c-1.44,0.18-2.68,1.1-2.68,2.68C314.92,805.01,316.16,806.56,317.61,806.38L317.61,806.38z"/>
			</g>
		</g>
		<g>
			<g>
				<path d="M317.58,825.81c3.5-0.42,6.78,0.49,10.06,1.67c3.31,1.19,6.58,2.5,9.89,3.69c6.74,2.43,13.54,4.65,20.41,6.67
					c11.99,3.53,24.57,6.76,37.18,5.92c6.99-0.46,13.83-2.23,19.91-5.76c2.99-1.73,0.29-6.37-2.71-4.63
					c-10.26,5.96-22.57,5.94-33.96,3.97c-6.2-1.08-12.28-2.71-18.31-4.47c-6.72-1.96-13.38-4.12-19.97-6.47
					c-3.62-1.29-7.19-2.7-10.81-4.02c-3.73-1.36-7.7-2.42-11.71-1.94c-1.44,0.17-2.68,1.11-2.68,2.68
					C314.89,824.45,316.13,825.99,317.58,825.81L317.58,825.81z"/>
			</g>
		</g>
		<g>
			<g>
				<path d="M1271.96,1064.15c16.16-17.49,32.92-34.38,49.82-51.15c4.79-4.75,9.58-9.5,14.37-14.25c-1.53-0.63-3.05-1.26-4.58-1.9
					c0.02,1.06,0.04,2.11,0.05,3.17c0.06,3.45,5.42,3.46,5.37,0c-0.02-1.06-0.03-2.11-0.05-3.17c-0.04-2.31-2.91-3.55-4.58-1.9
					c-16.94,16.8-34,33.49-50.47,50.76c-4.62,4.84-9.19,9.72-13.73,14.64C1265.82,1062.89,1269.61,1066.69,1271.96,1064.15
					L1271.96,1064.15z"/>
			</g>
		</g>
		<g>
			<g>
				<path d="M1379.46,1056.42c-4.03,1.08-7.52,3.53-10.83,5.99c-2.73,2.02-5.36,4.17-7.92,6.4c-5.54,4.85-10.73,10.08-15.72,15.49
					c-10.86,11.79-20.85,24.46-29.88,37.71c-4.27,6.26-8.33,12.69-11.88,19.39c-1.62,3.05,3.01,5.76,4.63,2.71
					c6.58-12.4,14.73-24.02,23.31-35.1c9.36-12.09,19.47-23.77,30.76-34.1c1.4-1.28,2.82-2.54,4.27-3.77
					c1.22-1.04,2.83-2.35,3.86-3.14c3.26-2.51,6.8-5.33,10.83-6.41C1384.22,1060.71,1382.8,1055.53,1379.46,1056.42L1379.46,1056.42
					z"/>
			</g>
		</g>
		<g>
			<g>
				<path d="M1383.53,1059.5c13.52,4.02,25.91,11.87,37.38,20.05c12.78,9.11,24.76,19.32,36.38,29.85
					c5.79,5.24,11.48,10.59,17.14,15.97c1.12,1.07,3.5,1.11,4.21-0.54c0.08-0.19-1.03,0.95-0.77,0.78c0.27-0.18-0.59,0.09-0.36,0.15
					c0.13,0.03,0.51-0.14,0.65-0.16c0.18-0.04,0.99-0.16,0.62-0.11c-0.45,0.06,0.12-0.01,0.21-0.02c0.21-0.02,0.41-0.04,0.62-0.07
					c1.78-0.18,3.56-0.28,5.34-0.41c1.8-0.13,3.61-0.26,5.39-0.52c1.25-0.18,2.96-0.53,3.52-1.83c0.58-1.33,0.39-2.88-0.96-3.67
					c-1.13-0.66-3.09-0.37-3.67,0.96c-0.08,0.19,1.03-0.95,0.77-0.78c-0.27,0.18,0.59-0.09,0.36-0.15
					c-0.13-0.03-0.51,0.14-0.65,0.16c-0.18,0.04-0.99,0.16-0.62,0.11c0.45-0.06-0.12,0.01-0.21,0.02c-0.21,0.02-0.41,0.04-0.62,0.07
					c-1.78,0.18-3.56,0.28-5.34,0.41c-1.8,0.13-3.61,0.26-5.39,0.52c-1.25,0.18-2.96,0.53-3.52,1.83c1.4-0.18,2.81-0.36,4.21-0.54
					c-10.74-10.22-21.62-20.3-32.98-29.82c-12.16-10.19-24.85-19.98-38.67-27.84c-6.85-3.9-14.05-7.35-21.62-9.6
					C1381.64,1053.34,1380.22,1058.52,1383.53,1059.5L1383.53,1059.5z"/>
			</g>
		</g>
		<g>
			<g>
				<path d="M1489.14,1124.3c2.89-2.2,4.7-5.26,5.23-8.86c0.6-4.02-0.3-7.86-1.9-11.56c-1.6-3.7-3.81-7.15-5.91-10.58
					c-2.21-3.6-4.51-7.16-6.88-10.66c-2.69-3.95-5.48-7.83-8.36-11.64c0,0.9,0,1.81,0,2.71c-0.26,0.36-1,1.11-1.33,1.08
					c0.09,0.01,0.22-0.07,0.31-0.08c0.14-0.02,0.28-0.05,0.41-0.08c0.66-0.14-0.57,0.04-0.07,0.01c0.89-0.06,1.78-0.17,2.67-0.22
					c2.42-0.15,4.85-0.22,7.27-0.28c3.62-0.09,7.36,0.13,10.97-0.24c1.44-0.15,2.68-1.13,2.68-2.68c0-1.34-1.23-2.83-2.68-2.68
					c-2.73,0.28-5.55,0.12-8.29,0.18c-3.95,0.08-7.92,0.12-11.85,0.49c-1.8,0.17-3.58,0.23-4.73,1.81c-0.5,0.69-0.52,2.02,0,2.71
					c5.96,7.86,11.51,16.04,16.59,24.5c2.34,3.9,4.89,7.86,5.78,12.38c0.59,3.02,0,7.08-2.61,9.06c-1.15,0.88-1.76,2.31-0.96,3.67
					C1486.13,1124.48,1487.98,1125.19,1489.14,1124.3L1489.14,1124.3z"/>
			</g>
		</g>
		<g>
			<g>
				<path d="M1350.55,993.53c-1.63-0.21-3.26-0.42-4.89-0.64c0.89,0.89,1.79,1.79,2.68,2.68c-0.04-13.17,3.5-25.91,6.96-38.5
					c3.59-13.05,6.98-26.2,7.08-39.83c0.06-8.07-0.9-16.16-2.78-24c-1.31,1.01-2.63,2.02-3.94,3.03
					c8.59,4.75,17.37,10.03,23.5,17.88c6.4,8.2,8.25,18.48,8.2,28.65c-0.02,6.06-0.63,12.1-1.28,18.12
					c-0.13,1.21,0.94,2.23,1.97,2.59c19.44,6.75,39.11,13.6,56.56,24.72c4.27,2.72,8.36,5.69,12.24,8.94
					c3.94,3.31,7.76,6.79,12.03,9.68c4.47,3.02,9.38,4.94,14.67,5.96c5.33,1.03,10.73,1.65,16.05,2.78
					c10.37,2.2,20.57,5.4,30.3,9.64c4.9,2.13,9.7,4.51,14.37,7.12c4.37,2.45,9.01,4.95,12.77,8.3c1.81,1.61,3.29,3.43,4.4,5.59
					c0.84,1.65,1.23,3.03,1.04,4.69c0.05-0.49-0.14,0.53-0.18,0.66c-0.06,0.2-0.12,0.4-0.2,0.59c0.05-0.11,0.2-0.41-0.04,0.04
					c-0.16,0.3-0.33,0.58-0.51,0.86c-0.28,0.42-0.11,0.17-0.03,0.07c-0.16,0.2-0.33,0.4-0.51,0.59c-1.14,1.23-2.1,1.85-3.68,2.74
					c-3.47,1.94-7.12,2.85-10.76,4.72c-3.47,1.79-6.27,4.41-8.71,7.43c-2.52,3.11-4.88,6.9-8.22,9.06c-3.02,1.95-6.2,2.22-9.92,1.97
					c-4.48-0.3-8.67-1.35-12.86-2.94c-4.47-1.7-8.82-3.77-13.41-5.11c-2.15-0.63-4.36-1.06-6.59-1.17c0,1.79,0,3.58,0,5.37
					c1.07,0.04,2.14,0.09,3.21,0.13c3.45,0.14,3.45-5.23,0-5.37c-1.07-0.04-2.14-0.09-3.21-0.13c-3.46-0.14-3.44,5.19,0,5.37
					c4.37,0.22,8.82,2.15,12.92,3.82c4.52,1.84,9.08,3.9,13.93,4.7c4.31,0.71,8.85,1.22,13.17,0.28c4.25-0.93,7.79-3.58,10.55-6.87
					c2.56-3.06,4.79-6.47,7.78-9.15c2.83-2.54,6.72-3.82,10.35-5.34c3.44-1.45,7.13-3.17,9.59-6.08c2.63-3.13,3.38-7.09,2.05-10.98
					c-1.76-5.12-5.52-8.97-9.84-12.05c-4.38-3.13-9.15-5.8-13.91-8.31c-9.79-5.16-20.13-9.35-30.76-12.45
					c-5.28-1.54-10.63-2.81-16.04-3.8c-5.51-1.01-11.19-1.44-16.57-3.11c-4.85-1.5-9.09-4.41-12.98-7.6
					c-4.19-3.42-8.19-7.04-12.54-10.26c-17.27-12.81-37.62-20.6-57.74-27.68c-2.45-0.86-4.89-1.71-7.34-2.56
					c0.66,0.86,1.31,1.72,1.97,2.59c1.2-11.08,2.27-22.46-0.26-33.44c-1.22-5.29-3.37-10.4-6.51-14.84
					c-3.15-4.45-7.05-8.2-11.36-11.51c-4.69-3.61-9.78-6.63-14.95-9.49c-2.08-1.15-4.49,0.74-3.94,3.03
					c3.19,13.34,3.33,27.13,0.73,40.58c-2.5,12.94-6.84,25.44-9.61,38.32c-1.55,7.23-2.6,14.6-2.58,22.01
					c0.01,1.59,1.24,2.49,2.68,2.68c1.63,0.21,3.26,0.42,4.89,0.64c1.44,0.19,2.68-1.37,2.68-2.68
					C1353.23,994.61,1351.99,993.72,1350.55,993.53L1350.55,993.53z"/>
			</g>
		</g>
		<g>
			<g>
				<path d="M1547.33,1050.65c-3.82-3.05-7.75-6.18-12-8.63c-2.13-1.23-4.42-2.15-6.84-2.64c-2.44-0.49-4.94-0.67-7.4-1.05
					c-9.63-1.47-18.95-4.63-27.9-8.44c-5.11-2.17-10.13-4.55-15.13-6.95c-0.69,1.63-1.38,3.27-2.07,4.9
					c1.08,0.39,2.15,0.77,3.23,1.16c1.36,0.49,2.94-0.55,3.3-1.87c0.41-1.49-0.51-2.81-1.87-3.3c-1.08-0.39-2.15-0.77-3.23-1.16
					c-2.84-1.02-4.81,3.59-2.07,4.9c8.81,4.23,17.7,8.38,26.96,11.54c4.56,1.56,9.22,2.87,13.95,3.79c2.51,0.49,5.03,0.84,7.56,1.15
					c2.19,0.27,4.44,0.58,6.5,1.42c2.41,0.98,4.58,2.58,6.7,4.07c2.22,1.56,4.39,3.19,6.51,4.89c1.13,0.9,2.69,1.1,3.79,0
					C1548.27,1053.51,1548.47,1051.56,1547.33,1050.65L1547.33,1050.65z"/>
			</g>
		</g>
		<g>
			<g>
				<path d="M1537.19,1067.23c-5.59-4.45-12.82-5.07-19.59-6.44c-7.52-1.52-14.99-3.28-22.4-5.27c-11.62-3.13-23.46-6.7-33.47-13.61
					c-5.18-3.58-9.59-8.17-12.58-13.73c-1.64-3.04-6.27-0.34-4.63,2.71c5.72,10.63,15.98,17.67,26.83,22.35
					c12.75,5.5,26.5,8.8,40.03,11.73c4.14,0.9,8.31,1.65,12.47,2.48c3.29,0.66,6.86,1.43,9.55,3.57c1.13,0.9,2.69,1.11,3.79,0
					C1538.12,1070.09,1538.33,1068.13,1537.19,1067.23L1537.19,1067.23z"/>
			</g>
		</g>
		<g>
			<g>
				<path d="M712.42,1322.75c1.14,0.52,1.31,0.94,1.36,2.14c0.08,1.74-0.18,3.47-0.4,5.19c-0.46,3.57-0.58,7.05,1.22,10.31
					c3.48,6.28,11.58,8.71,18.2,9.74c4.96,0.77,10,1.13,14.99,1.62c5.33,0.53,10.66,1.03,15.99,1.5c10.76,0.96,21.52,1.81,32.3,2.57
					c21.55,1.51,43.13,2.6,64.71,3.28c21.59,0.68,43.19,0.95,64.79,0.81c21.51-0.14,43.01-0.69,64.5-1.64
					c2.72-0.12,5.44-0.25,8.16-0.38c3.44-0.17,3.46-5.54,0-5.37c-21.39,1.05-42.79,1.71-64.21,1.95
					c-21.51,0.25-43.02,0.08-64.51-0.48c-21.41-0.57-42.8-1.54-64.17-2.91c-21.37-1.38-42.71-3.16-64.01-5.34
					c-6.71-0.69-15.28-1.06-20.46-5.97c-2.2-2.09-2.67-4.39-2.4-7.45c0.3-3.36,1.37-7.08,0.12-10.36c-0.64-1.69-1.82-3.07-3.48-3.83
					c-1.32-0.6-2.89-0.38-3.67,0.96C710.78,1320.23,711.1,1322.15,712.42,1322.75L712.42,1322.75z"/>
			</g>
		</g>
		<g>
			<g>
				<path d="M1046.82,906.51c14.06,1.3,28.12,2.52,42.17,3.92c10.88,1.08,21.76,2.49,32.38,5.14c10.32,2.57,20.41,6.36,29.19,12.45
					c9.26,6.43,16.13,15.45,20.52,25.79c4.86,11.47,7,23.94,8.8,36.19c1.97,13.37,3.26,26.84,3.93,40.34
					c1.34,27.04,0.16,54.25-3.62,81.07c-3.79,26.88-10.1,53.41-18.89,79.09c-1.06,3.1-2.16,6.19-3.29,9.27
					c-0.5,1.36,0.56,2.94,1.87,3.3c1.5,0.41,2.8-0.51,3.3-1.87c9.56-25.99,16.58-52.91,20.96-80.25
					c4.38-27.32,6.21-55.03,5.35-82.68c-0.43-13.75-1.51-27.48-3.26-41.12c-1.65-12.87-3.5-25.94-7.58-38.3
					c-3.81-11.54-9.84-22.32-19.01-30.45c-8.28-7.35-18.31-12.32-28.8-15.7c-10.77-3.48-22-5.32-33.22-6.67
					c-13.2-1.59-26.48-2.61-39.71-3.84c-3.7-0.34-7.39-0.68-11.09-1.03c-1.44-0.13-2.68,1.33-2.68,2.68
					C1044.14,905.39,1045.37,906.37,1046.82,906.51L1046.82,906.51z"/>
			</g>
		</g>
		<g>
			<g>
				<path d="M1034.95,1115.18c3.75,29.25,5.38,58.76,4.87,88.24c-0.52,29.45-3.15,58.87-7.96,87.94
					c-2.04,12.33-5.13,24.57-6.25,37.03c-0.9,9.97-0.54,21.03,4.81,29.83c2.71,4.45,6.69,8.14,11.42,10.35
					c5.92,2.78,12.45,3.49,18.91,3.72c13.51,0.48,27.36,0.69,40.68-1.93c6.61-1.3,13.06-3.45,19.02-6.61
					c6.03-3.2,11.49-7.35,16.74-11.68c10.77-8.88,21.2-18.2,31.54-27.57c20.88-18.91,41.11-38.54,60.65-58.83
					s38.38-41.25,56.49-62.84c8.2-9.77,17.77-20.04,20.47-32.93c3.03-14.45-3.03-28.72-7.78-42.08
					c-5.11-14.38-10.22-28.76-15.33-43.14c-2.5-7.03-5-14.07-7.5-21.1c-1.29-3.62-2.57-7.24-3.86-10.86
					c-1.14-3.21-2.14-6.52-3.6-9.61c-1.15-2.45-2.91-4.77-5.43-5.92c-3.24-1.48-6.64-0.72-9.73,0.75c-3.06,1.46-5.92,3.45-8.77,5.27
					c-2.84,1.81-5.65,3.67-8.43,5.58c-11.31,7.74-22.13,16.2-32.37,25.3c-5.04,4.48-9.93,9.12-14.67,13.9
					c-2.44,2.45,1.36,6.25,3.79,3.79c9.36-9.43,19.28-18.28,29.73-26.48c5.28-4.14,10.7-8.1,16.23-11.88
					c5.38-3.68,10.87-7.63,16.69-10.6c2.3-1.17,4.9-1.77,6.77,0.4c1.77,2.07,2.51,4.99,3.4,7.5c2.46,6.93,4.93,13.86,7.39,20.79
					c4.96,13.97,9.93,27.93,14.89,41.9c2.46,6.93,4.93,13.86,7.39,20.79c2.33,6.55,4.72,13.13,5.95,19.99
					c1.17,6.5,0.9,13.07-1.4,19.29c-2.12,5.71-5.71,10.87-9.45,15.63c-8.31,10.54-17.2,20.67-26.06,30.76
					c-9.06,10.32-18.28,20.49-27.68,30.5c-18.72,19.95-38.1,39.28-58.1,57.94c-9.96,9.3-20.08,18.43-30.34,27.39
					c-9.9,8.64-19.78,18.17-31.64,24.09c-11.7,5.84-25.03,7.12-37.93,7.31c-6.56,0.1-13.17,0.08-19.72-0.27
					c-6.01-0.32-12.19-1.24-17.31-4.62c-7.85-5.17-10.45-14.66-10.81-23.57c-0.43-10.75,1.87-21.23,3.86-31.72
					c5.34-28.16,8.71-56.7,10.07-85.32c1.35-28.49,0.7-57.09-1.95-85.49c-0.65-7-1.43-13.98-2.33-20.95
					c-0.18-1.44-1.1-2.68-2.68-2.68C1036.32,1112.5,1034.76,1113.74,1034.95,1115.18L1034.95,1115.18z"/>
			</g>
		</g>
		<g>
			<g>
				<path d="M752.82,1358.65c0.99,11.88,1.96,23.77,2.98,35.65c0.42,4.89,1.26,9.82,5.53,12.86c3.7,2.64,8.64,2.73,13,2.61
					c24.03-0.64,48.06-1.39,72.1-2.09c24.03-0.7,48.06-1.39,72.1-2.09c24.03-0.7,48.06-1.39,72.1-2.09
					c24.03-0.7,48.06-1.39,72.1-2.09c2.95-0.09,5.9-0.17,8.85-0.26c1.58-0.05,2.5-1.2,2.68-2.68c1.16-9.4,1.36-18.89,0.58-28.33
					c-0.11-1.3-0.78-2.12-1.97-2.59c-4.75-1.88-9.71,1.97-10.17,6.72c-0.14,1.44,1.33,2.68,2.68,2.68c1.57,0,2.54-1.23,2.68-2.68
					c0.16-1.59,2.18-2.03,3.38-1.55c-0.66-0.86-1.31-1.72-1.97-2.59c0.78,9.44,0.58,18.93-0.58,28.33c0.89-0.89,1.79-1.79,2.68-2.68
					c-23.51,0.68-47.01,1.36-70.52,2.05c-23.51,0.68-47.01,1.36-70.52,2.05c-23.61,0.69-47.22,1.37-70.83,2.06
					c-23.51,0.68-47.01,1.36-70.52,2.05c-5.64,0.16-11.3,0.48-16.94,0.46c-3.79-0.01-8.4-0.43-10.04-4.45
					c-0.81-1.98-0.92-4.2-1.1-6.31c-0.24-2.92-0.49-5.84-0.73-8.76c-0.49-5.84-0.98-11.67-1.46-17.51
					c-0.24-2.92-0.49-5.84-0.73-8.76C757.9,1355.24,752.53,1355.21,752.82,1358.65L752.82,1358.65z"/>
			</g>
		</g>
	</g>
</g>
<g id="Layer_9">
</g>
</svg>
