<?xml version="1.0" encoding="utf-8"?>
<!-- Generator: Adobe Illustrator 26.3.1, SVG Export Plug-In . SVG Version: 6.00 Build 0)  -->
<svg version="1.1" xmlns="http://www.w3.org/2000/svg" xmlns:xlink="http://www.w3.org/1999/xlink" x="0px" y="0px"
	 viewBox="0 0 1984.25 1984.25" style="enable-background:new 0 0 1984.25 1984.25;" xml:space="preserve">
<style type="text/css">
	.st0{fill:#29597E;stroke:#000000;stroke-width:2.696;stroke-miterlimit:10;}
	.st1{fill:#29597E;stroke:#000000;stroke-width:2.993;stroke-miterlimit:10;}
	.st2{fill:#FFFFFF;}
	.st3{fill:#1B1439;}
	.st4{fill:#F5F0E2;}
	.st5{fill:#ED1E78;}
	.st6{fill:#FE3922;stroke:#000000;stroke-width:6.2938;stroke-miterlimit:10;}
	.st7{fill:#29597E;}
	.st8{fill:#D95F86;}
	.st9{fill:#D95F86;stroke:#000000;stroke-width:4.6468;stroke-miterlimit:10;}
	.st10{fill:none;stroke:#000000;stroke-width:9.3644;stroke-miterlimit:10;}
	.st11{fill:#ED1E78;stroke:#000000;stroke-width:4.9229;stroke-miterlimit:10;}
	.st12{fill:#FBAE16;stroke:#020202;stroke-width:4.9229;stroke-miterlimit:10;}
	.st13{fill:#F5F0E2;stroke:#000000;stroke-width:4.9229;stroke-miterlimit:10;}
	.st14{fill:none;stroke:#000000;stroke-width:4.9229;stroke-miterlimit:10;}
	.st15{fill:#29597E;stroke:#000000;stroke-width:2.521;stroke-miterlimit:10;}
	.st16{fill:#F9E819;}
	.st17{fill:#FBAE16;}
	.st18{fill:#FBAE16;stroke:#020202;stroke-width:4.8212;stroke-miterlimit:10;}
	.st19{fill:#ED1E78;stroke:#000000;stroke-width:4.8212;stroke-miterlimit:10;}
	.st20{fill:#FE3922;stroke:#000000;stroke-width:4.8212;stroke-miterlimit:10;}
	.st21{fill:none;stroke:#000000;stroke-width:4.8212;stroke-miterlimit:10;}
	.st22{fill:#020202;}
	.st23{fill:none;stroke:#020202;stroke-width:4;stroke-miterlimit:10;}
</style>
<g id="Layer_1">
</g>
<g id="Layer_3">
</g>
<g id="Layer_4">
</g>
<g id="Layer_5">
</g>
<g id="Layer_6">
</g>
<g id="Layer_7">
</g>
<g id="Layer_8">
</g>
<g id="Layer_2">
	<g>
		<path class="st11" d="M1275.74,611.83c-1.99,4.66-4.35,9.02-7.12,13.02l-140.96-60.17c0.98-4.77,2.49-9.49,4.48-14.15
			c1.99-4.66,4.35-9.02,7.12-13.02c20.49-30.48,60.32-43.07,95.33-28.13c35.01,14.94,53.47,52.42,45.63,88.3
			C1279.23,602.45,1277.72,607.18,1275.74,611.83z"/>
		<path class="st12" d="M1275.74,611.83c-1.99,4.66-4.35,9.02-7.12,13.02l-140.96-60.17c0.98-4.77,2.49-9.49,4.48-14.15
			c1.99-4.66,4.35-9.02,7.12-13.02l140.96,60.17C1279.23,602.45,1277.72,607.18,1275.74,611.83z"/>
		<path class="st11" d="M1268.62,624.85c-17.92,26.72-50.71,39.7-82.1,32.4c-4.45-0.98-8.88-2.41-13.23-4.27
			c-5.63-2.4-10.82-5.4-15.53-8.88c-24.72-18.08-36.7-49.34-30.1-79.42L1268.62,624.85z"/>
		<path class="st12" d="M1133.99,750.41l33.17-77.7c-1.39-0.18-2.74-0.57-4.1-1.15c-1.36-0.58-2.57-1.28-3.67-2.16l-33.25,77.89
			c-12.67-2.89-25.99,3.59-31.27,15.97c-5.95,13.93,0.53,30.05,14.46,35.99c13.93,5.95,30.05-0.53,35.99-14.46
			C1150.81,771.95,1145.75,757.26,1133.99,750.41z M1113.48,789.55c-8.58-3.66-12.56-13.57-8.9-22.15
			c3.66-8.58,13.57-12.56,22.15-8.9c8.58,3.66,12.56,13.57,8.9,22.15C1131.97,789.23,1122.05,793.21,1113.48,789.55z"/>
		<path class="st13" d="M1185.22,662.66c-3.08,7.22-10.61,11.21-18.05,10.05c-1.39-0.18-2.74-0.57-4.1-1.15
			c-1.36-0.58-2.57-1.28-3.67-2.16c-5.98-4.57-8.31-12.77-5.23-19.99c0.88-2.06,2.09-3.83,3.59-5.3c4.71,3.48,9.9,6.47,15.53,8.88
			c4.35,1.86,8.78,3.29,13.23,4.27C1186.38,659.07,1185.96,660.92,1185.22,662.66z"/>
	</g>
	<g>
		<path class="st13" d="M995.1,385.96l66.01,117.8c13.61,24.3,4.87,55.31-19.42,68.93l-51.54,28.88
			c-24.3,13.61-55.31,4.87-68.93-19.42l-66.01-117.8c-5.38-9.61-7.25-20.27-6.1-30.49c0.24-0.09,0.5-0.23,0.76-0.38l118.02-66.13
			c1.36-0.76,2.49-1.78,3.32-2.97C981.01,368.66,989.51,375.98,995.1,385.96z"/>
		<path class="st11" d="M953.2,319.81l18.69,33.35c2.06,3.68,1.66,8.06-0.68,11.22c-0.83,1.19-1.96,2.21-3.32,2.97l-118.02,66.13
			c-0.26,0.14-0.52,0.29-0.76,0.38c-4.92,2.27-10.75,0.41-13.43-4.37l-18.69-33.35c-2.83-5.04-1.05-11.36,4-14.19l118.02-66.13
			C944.06,312.98,950.37,314.77,953.2,319.81z"/>
		<path class="st11" d="M934.26,318.47l-108.52,60.81c-2.95-9.23-3.2-25.73,9.71-53.81c0,0,3.24-11.49-7.08-29.89
			s7.14-26.11,7.14-26.11s15.68-10.87,25.99,7.54s21.8,21.64,21.8,21.64C913.99,302.31,927.93,311.14,934.26,318.47z"/>
		<line class="st14" x1="900.64" y1="446.14" x2="857.55" y2="470.29"/>
		<line class="st14" x1="913.02" y1="468.23" x2="869.93" y2="492.38"/>
		<line class="st14" x1="925.4" y1="490.32" x2="882.3" y2="514.47"/>
		<line class="st14" x1="937.77" y1="512.41" x2="894.68" y2="536.55"/>
		<line class="st14" x1="952.21" y1="538.18" x2="909.12" y2="562.32"/>
	</g>
	<g>
		<path class="st18" d="M1439.4,607.82c1.24,6.29,4.27,11.67,8.48,15.91l-72.96,14.39l-69.81,400.47l41.83-8.25l6.67,33.84
			l-358.7,70.73l-6.67-33.84l280.6-55.33l76.13-436.88l96.24-18.98C1438.92,595.4,1438.16,601.53,1439.4,607.82z"/>
		<path class="st19" d="M1601.83,575.79c1.65,8.39-0.23,16.64-4.69,23.28c-4.45,6.64-11.37,11.52-19.76,13.18l-101.52,20.02
			c-10.49,2.07-20.88-1.44-27.98-8.54c-4.21-4.23-7.24-9.61-8.48-15.91c-1.24-6.29-0.48-12.42,1.81-17.93
			c0.82-1.92,1.74-3.65,2.88-5.35c4.45-6.64,11.37-11.52,19.76-13.18l101.52-20.02C1582.15,548.03,1598.52,559.01,1601.83,575.79z"
			/>
		<path class="st19" d="M888.57,1560.87c-5.44-4.41-11.26-8.26-17.38-11.48c-20.9-11.14-45.73-15.45-70.83-10.5
			c-57.93,11.42-95.64,67.65-84.22,125.59c11.42,57.93,67.65,95.64,125.59,84.22c57.93-11.42,95.64-67.65,84.22-125.59
			C920.93,1597.66,907.18,1576.04,888.57,1560.87z M831.05,1694.55c-28.02,5.53-55.24-12.73-60.77-40.75
			c-5.53-28.02,12.73-55.24,40.75-60.77c7.85-1.55,15.57-1.24,22.85,0.7c7.03,1.78,13.57,4.99,19.09,9.45
			c9.46,7.34,16.35,18.01,18.83,30.6C877.33,1661.8,859.07,1689.03,831.05,1694.55z"/>
		<path class="st19" d="M1135.37,1472.83c-31.34,6.18-56.78,25.47-71.69,51.12c-3.48,5.89-6.38,12.23-8.6,18.78
			c-6.08,17.3-7.73,36.4-3.93,55.69c11.42,57.93,67.66,95.64,125.59,84.22s95.64-67.65,84.22-125.59
			C1249.53,1499.11,1193.3,1461.4,1135.37,1472.83z M1166.07,1628.49c-28.02,5.53-55.24-12.73-60.77-40.75
			c-1.44-7.31-1.25-14.52,0.36-21.37c1.47-6.83,4.41-13.31,8.52-18.84c7.39-10.32,18.47-17.92,31.87-20.56
			c28.02-5.53,55.24,12.73,60.77,40.75C1212.34,1595.74,1194.08,1622.96,1166.07,1628.49z"/>
		<path class="st20" d="M988.24,1101.07l6.67,33.84l192.61-37.98c-8.61,66.52-37.28,128.29-80.71,177.63l-399.31,78.74
			c-83.29-41.23-148.55-116.53-174.42-211.69l654.73-129.1c2.04,16.4,2.85,32.62,2.44,48.74L988.24,1101.07z"/>
		<path class="st21" d="M858.37,698.49l-31.29,364.05l-297.99,58.76c-2.14-7.66-3.98-15.53-5.55-23.51
			c-35.75-181.31,82.21-357.22,263.52-392.97C811.02,700.09,834.87,698.06,858.37,698.49z"/>
		<path class="st20" d="M858.37,698.49l-31.29,364.05l-297.99,58.76c-2.14-7.66-3.98-15.53-5.55-23.51
			c-35.75-181.31,82.21-357.22,263.52-392.97C811.02,700.09,834.87,698.06,858.37,698.49z"/>
		
			<rect x="503.26" y="1057.22" transform="matrix(0.9811 -0.1935 0.1935 0.9811 -190.3803 185.5941)" class="st19" width="703.62" height="20.69"/>
		<path class="st18" d="M960.21,1475.59l103.47,48.36c-3.48,5.89-6.38,12.23-8.6,18.78L946.5,1492l-57.93,68.87
			c-5.44-4.41-11.26-8.26-17.38-11.48l55.86-66.49l-221.49-103.48l2.37-5.11l24.97-4.92l207.93,97.09l139.13-165.53l31.34-6.18
			l0.51,0.46L960.21,1475.59z"/>
		
			<rect x="691.87" y="1313.73" transform="matrix(0.9811 -0.1935 0.1935 0.9811 -238.9842 200.906)" class="st19" width="434.59" height="20.69"/>
		<path class="st18" d="M1206.82,1567.72c5.53,28.02-12.73,55.24-40.75,60.77c-28.02,5.53-55.24-12.73-60.77-40.75
			c-1.44-7.31-1.25-14.52,0.36-21.37c1.47-6.83,4.41-13.31,8.52-18.84c7.39-10.32,18.47-17.92,31.87-20.56
			C1174.07,1521.45,1201.29,1539.7,1206.82,1567.72z"/>
		<path class="st18" d="M871.8,1633.78c5.53,28.02-12.73,55.24-40.75,60.77c-28.02,5.53-55.24-12.73-60.77-40.75
			c-5.53-28.02,12.73-55.24,40.75-60.77c7.85-1.55,15.57-1.24,22.85,0.7c7.03,1.78,13.57,4.99,19.09,9.45
			C862.44,1610.53,869.32,1621.19,871.8,1633.78z"/>
	</g>
</g>
<g id="Layer_9">
</g>
</svg>
