<?xml version="1.0" encoding="UTF-8"?>
<svg id="Layer_2" data-name="Layer 2" xmlns="http://www.w3.org/2000/svg" viewBox="0 0 680.93 572.58">
  <defs>
    <style>
      .cls-1 {
        stroke-width: 0px;
      }

      .cls-2 {
        fill: #fe3922;
        stroke: #000;
        stroke-miterlimit: 10;
        stroke-width: 6.29px;
      }
    </style>
  </defs>
  <g id="Layer_1-2" data-name="Layer 1">
    <g id="Layer_2-2" data-name="Layer 2">
      <g>
        <circle class="cls-2" cx="605.41" cy="497.06" r="72.38"/>
        <path class="cls-1" d="m601.76,538.14c-.06.39.21.11.34-.11-.08.14-.11.1-.1.06.01-.11-.2-.01-.07-.01.27.01-.72-.05-.34-.01-.37-.04-.75-.16-1.1-.28-1.41-.5-2.73-1.81-3.92-2.81-3.43-2.86-6.74-5.88-9.92-9.02-6.26-6.2-12.02-12.92-17.14-20.09-4.56-6.4-10.2-14.65-8.49-22.91,1.18-5.66,5.93-10.04,11.37-11.74,2.74-.86,5.66-1.1,8.42-.42,3.22.8,5.91,2.8,8.04,5.32,2.33,2.76,3.79,6.25,4.59,9.74.43,1.9.47,3.96,1.69,5.58,1.38,1.83,3.66,2.27,5.8,1.71,2.02-.53,3.84-1.78,5.62-2.81,1.87-1.08,3.74-2.16,5.67-3.14,3.49-1.77,7.37-3.32,11.35-3.28,6.22.05,13.06,4.22,11.66,11.27-.88,4.42-3.59,8.4-5.9,12.19-2.3,3.77-4.73,7.46-7.28,11.07-5.12,7.22-10.77,14.07-16.87,20.49-1.52,1.6-3.07,3.17-4.65,4.72-2.17,2.13,1.17,5.47,3.34,3.34,6.92-6.81,13.29-14.13,19.13-21.88,2.92-3.88,5.69-7.88,8.3-11.97,2.62-4.1,5.35-8.31,7.23-12.81,1.81-4.34,2.37-9.3-.12-13.5-1.93-3.27-5.25-5.47-8.8-6.65-8.8-2.92-17.38,1.44-24.87,5.76-1,.57-1.99,1.15-2.99,1.72-.64.36-1.72,1.13-2.51,1.02-.5-.07-.49-.3-.63-.85-.26-1.06-.37-2.16-.61-3.23-.94-4.15-2.79-8.07-5.45-11.39-4.89-6.11-12.49-8.73-20.08-6.91-6.84,1.64-12.9,6.58-15.36,13.23-3.3,8.94,1.41,18.52,6.33,25.84,5.34,7.94,11.49,15.38,18.18,22.21,3.39,3.45,6.93,6.76,10.62,9.89,2.97,2.52,6.37,5.97,10.66,5.21,1.7-.3,3.15-1.53,3.44-3.29.21-1.26-.33-2.54-1.65-2.9-1.15-.32-2.72.37-2.93,1.64h0Z"/>
      </g>
      <g>
        <circle class="cls-2" cx="583.97" cy="178.67" r="72.38"/>
        <path class="cls-1" d="m545.52,191.61c-1.79,12.5,5.6,24.26,16.2,30.47,12.08,7.08,27.17,5.79,39.75.78,3.6-1.43,7.33-3.04,10.57-5.19,1.77-1.17,3.27-2.94,2.87-5.2-.33-1.86-1.97-3.62-3.99-3.36-1.26.16-2.36.97-2.36,2.36,0,1.15,1.09,2.52,2.36,2.36-.04,0-.84-.55-.61-.41-.81-.48.29-.33-.11-.23-.36.08-.85.6-1.19.81-1.36.8-2.77,1.54-4.19,2.25-2.68,1.33-5.43,2.47-8.27,3.4-5.65,1.86-11.56,2.9-17.52,2.61-10.23-.49-19.94-5.54-25.4-14.37-2.75-4.45-4.3-9.77-3.55-15.02.18-1.26-.31-2.54-1.65-2.9-1.11-.31-2.73.37-2.91,1.64h0Z"/>
        <path class="cls-1" d="m562.05,153.8c-3.19,3.51-4.44,8.56-3.09,13.14.28.96,1.23,1.78,2.28,1.73,1.07-.05,1.95-.71,2.28-1.73.99-3.1,1.98-6.2,2.96-9.31.37-1.18-.44-2.63-1.65-2.9-1.29-.29-2.5.39-2.9,1.65-.99,3.1-1.98,6.2-2.96,9.31h4.55c-.13-.43-.22-.86-.31-1.29-.06-.31.01,0,.01.14,0-.13-.03-.28-.04-.41-.02-.22-.03-.44-.04-.66-.01-.44,0-.89.04-1.33l.03-.33c.03-.33-.08.46-.01.13.05-.24.09-.49.14-.73.1-.43.22-.86.37-1.28.04-.1.08-.21.12-.31.11-.3.04,0-.05.1.13-.15.19-.42.28-.6.21-.42.45-.83.72-1.21.06-.09.13-.18.19-.27.17-.27-.27.33-.07.08.16-.19.32-.38.49-.57.83-.91.97-2.45,0-3.34-.91-.84-2.46-.99-3.34,0h0Z"/>
        <path class="cls-1" d="m620.57,172.11c.76-1.04,1.51-2.08,2.27-3.13.73-1,.2-2.67-.85-3.23-1.23-.65-2.45-.22-3.23.85-2.96,4.02-4.37,9.24-3.87,14.2.18,1.81,1.85,2.9,3.55,2.04,3.43-1.75,5.21-6.14,4.01-9.78-.39-1.17-1.65-2.05-2.9-1.65-1.17.38-2.06,1.65-1.65,2.9.06.17.11.33.15.5.02.08.12.57.05.2-.07-.37,0,.12.01.2.01.17.01.35,0,.52,0,.08-.07.58-.01.21s-.03.13-.05.2c-.04.17-.08.34-.14.51-.02.07-.17.55-.06.21.11-.33-.08.16-.1.2-.07.13-.14.26-.21.38-.08.12-.16.24-.24.37-.31.46.33-.33-.06.07-.21.21-.41.4-.63.6.41-.38.03-.04-.09.04-.15.09-.3.17-.46.25,1.18.68,2.37,1.36,3.55,2.04-.25-2.49-.12-4.02.47-6.21.59-2.17,1.29-3.62,2.75-5.61-1.36-.79-2.72-1.59-4.08-2.38-.76,1.04-1.51,2.08-2.27,3.13-.73,1-.2,2.67.85,3.23,1.23.63,2.46.21,3.24-.86h0Z"/>
      </g>
      <g>
        <circle class="cls-2" cx="298.26" cy="75.53" r="72.38"/>
        <path class="cls-1" d="m276.32,70.05c-1.94-3.82-3.59-7.76-4.9-11.84-1.1-3.4-2.34-7.05-2.14-10.67.15-2.75,1.94-5.23,4.93-5,2.73.21,4.36,3.01,3.64,5.56-.55,1.96,1.7,3.74,3.47,2.67,3.31-2.02,6.94-3.62,10.75-4.43.97-.21,2.43-.47,3.31.12,1.03.69.01,2.29-.47,3.04-1.04,1.6-2.49,2.98-3.79,4.37-1.36,1.46-2.76,2.89-4.19,4.28-1.43,1.4-2.88,2.77-4.36,4.1-.8.72-1.6,1.43-2.42,2.13-.35.3-.7.6-1.05.9-.23.2-.47.4-.71.59-.83.55-.38.72,1.37.5.23.56.46,1.11.69,1.67v-.12c-.23.56-.46,1.11-.69,1.67.05-.04.09-.08.14-.12,2.29-2.01-1.06-5.33-3.34-3.34-2.05,1.79-.08,4.51,2.19,4.52,2.11.01,3.96-2.25,5.43-3.54,3.36-2.93,6.57-6.02,9.64-9.25,2.73-2.88,6.7-6.33,6.71-10.64.01-4.39-4.35-6.17-8.1-5.71-4.73.58-9.46,2.71-13.5,5.17,1.16.89,2.31,1.78,3.47,2.67.95-3.38-.15-7.27-2.9-9.52-2.85-2.34-6.89-2.62-10.12-.88-7.33,3.94-4.63,13.85-2.66,20.07,1.46,4.61,3.33,9.1,5.52,13.41,1.38,2.71,5.45.33,4.08-2.38h0Z"/>
        <path class="cls-1" d="m324.67,81.4c-1.81-6.21-2.37-12.67-1.66-19.11.17-1.56.45-3.1.79-4.63.23-1.03.46-2.64,1.39-3.33.2-.15.53-.3.76-.25-.09-.02.02-.05.14.25.22.57.42,1.73.6,2.56.56,2.64,2.22,4.87,5.13,5,2.98.14,5.6-2.11,8.58-1.76.84.1,1.87.53,2.17,1.37.39,1.11-.5,2.47-1.07,3.34-1.23,1.87-2.98,3.4-4.78,4.69-4.58,3.3-9.86,5.76-13.58,10.13-.82.97-.95,2.39,0,3.34.85.85,2.51.98,3.34,0,3.72-4.38,9.11-6.69,13.6-10.12,4.3-3.29,11.01-10.87,4.91-15.75-3.06-2.44-6.92-1.82-10.35-.63-.73.25-1.53.63-2.32.69-.33.03-.73-.21-.57-.05-.54-.56-.59-2.03-.78-2.93-.65-3.02-2.98-5.46-6.29-4.72-3.61.81-4.9,4.37-5.57,7.59-1.76,8.46-1.4,17.27,1.02,25.57.84,2.92,5.4,1.68,4.54-1.25h0Z"/>
        <path class="cls-1" d="m259.15,91.7c-.01-.71-.03-1.43-.04-2.14-1.55.21-3.09.42-4.64.63,2.22,5.28,4.51,10.53,8.06,15.07,3.33,4.26,7.7,7.35,12.71,9.33,10.3,4.07,21.91,2.67,32.05-1.13,6.38-2.4,12.4-5.61,18.3-8.98,2.64-1.5.26-5.58-2.38-4.08-9.31,5.31-19.31,10.7-30.17,11.75-9.22.89-19.11-1.29-25.58-8.32-3.89-4.22-6.25-9.67-8.45-14.9-.46-1.08-1.33-1.88-2.59-1.69-1.13.17-2.07,1.12-2.05,2.32,0,.71.03,1.43.04,2.14.07,3.03,4.8,3.04,4.74,0h0Z"/>
      </g>
      <g>
        <circle class="cls-2" cx="75.53" cy="269.4" r="72.38"/>
        <path class="cls-1" d="m50.09,239.4c-1.75,6.47-1.61,13.39.46,19.77.82,2.53,4.54,2.08,4.64-.63.23-6.27-.06-12.55-.87-18.78-.15-1.17-.78-2.17-2.05-2.32-1.07-.13-2.38.52-2.59,1.69-.17.95-.35,1.91-.52,2.86-.23,1.25.34,2.54,1.65,2.9,1.15.31,2.67-.39,2.9-1.65.17-.95.35-1.91.52-2.86-1.55-.21-3.09-.42-4.64-.63.8,6.23,1.09,12.51.87,18.78,1.55-.21,3.09-.42,4.64-.63-1.82-5.61-2-11.57-.46-17.26.79-2.92-3.76-4.18-4.55-1.24h0Z"/>
        <path class="cls-1" d="m90.53,242.08c-1.22,5.68-1.22,11.49,0,17.17.42,1.96,3.39,2.33,4.31.56,2.59-4.93,2.53-10.93-.23-15.79-.63-1.11-2.14-1.48-3.23-.85-1.11.65-1.48,2.12-.85,3.23.98,1.72,1.47,3.58,1.5,5.48.02,1.18-.05,1.82-.27,2.78-.11.5-.25.98-.42,1.46-.17.49-.26.69-.58,1.3,1.44.19,2.88.38,4.31.56-1.03-4.78-1.03-9.87,0-14.66.27-1.24-.37-2.55-1.65-2.9-1.16-.31-2.62.41-2.89,1.66h0Z"/>
        <path class="cls-1" d="m45.81,283.58c.12-2.29-2.25-4.11-4.43-3.36-2.26.78-2.22,3.75,0,4.55,20.77,7.48,43.28,2.92,63.62-3.66,2.95-.96,5.89-1.96,8.83-2.97,1.5-.52,3.01-1.04,4.51-1.57.68-.24,1.35-.48,2.03-.71.18-.06.71-.13.83-.25.02-.02-.21-.04-.14.01-.28-.28-.56-.56-.85-.85,0-.15-.01-.3-.01-.45-.07.25-.15.5-.23.75-.12.37-.25.73-.38,1.09-.26.73-.53,1.45-.82,2.16-.59,1.48-1.27,2.92-2,4.34-1.43,2.8-3.09,5.48-4.94,8.02-3.64,4.99-8.16,9.46-13.21,13.02-5.4,3.8-11.92,7.54-18.73,7.26-6.73-.28-13.15-4.64-18.25-8.71-5.94-4.73-11.05-10.43-15.07-16.87-1.6-2.57-5.69-.2-4.08,2.38,3.34,5.35,7.38,10.29,12.01,14.57,4.65,4.3,9.98,8.31,15.79,10.89,3.05,1.36,6.24,2.31,9.59,2.45,3.46.15,6.95-.64,10.15-1.9,5.63-2.21,10.78-5.55,15.4-9.43,4.48-3.76,8.4-8.18,11.68-13.02,1.62-2.39,3.07-4.9,4.32-7.5,1.26-2.6,2.63-5.43,3.31-8.26.44-1.82-.21-3.77-2.09-4.43-1.45-.51-2.84-.08-4.23.4-3.46,1.21-6.91,2.42-10.38,3.59-6.63,2.23-13.31,4.32-20.13,5.91-14.87,3.48-30.71,4.43-45.29-.83v4.55c-.51-.4-1.03-.79-1.54-1.19-.15,3.05,4.57,3.05,4.73.02h0Z"/>
      </g>
    </g>
  </g>
</svg>