<?xml version="1.0" encoding="UTF-8"?>
<svg id="Layer_2" data-name="Layer 2" xmlns="http://www.w3.org/2000/svg" viewBox="0 0 674.59 641.93">
  <defs>
    <style>
      .cls-1 {
        stroke-width: 0px;
      }

      .cls-2 {
        fill: #fe3922;
        stroke: #000;
        stroke-miterlimit: 10;
        stroke-width: 6.29px;
      }
    </style>
  </defs>
  <g id="Layer_1-2" data-name="Layer 1">
    <g id="Layer_2-2" data-name="Layer 2">
      <g>
        <circle class="cls-2" cx="599.07" cy="566.41" r="72.38"/>
        <path class="cls-1" d="m567.86,609.98c13.88-16.45,37.06-24.07,58.06-19.58,3.02.65,5.99,1.53,8.87,2.66,3.44,1.35,6.87,3.16,10.49,1.25,2.69-1.42.3-5.5-2.38-4.08-1.18.62-2.71-.04-3.85-.49-1.4-.54-2.77-1.17-4.18-1.69-2.57-.94-5.2-1.69-7.88-2.26-5.49-1.16-11.15-1.59-16.76-1.28-11.11.63-22.09,3.99-31.54,9.89-5.31,3.32-10.14,7.43-14.18,12.21-.82.97-.95,2.38,0,3.34.85.87,2.52,1.01,3.35.03h0Z"/>
        <path class="cls-1" d="m635.67,523.18c-5.29,6.35-10.58,12.7-15.87,19.06-1.32,1.59-2.65,3.17-3.97,4.76-1.24,1.49-2.44,3.06-2.43,5.1.03,3.49,3.41,5.36,6.31,6.32,4.46,1.48,8.95,2.84,13.43,4.26,2.9.92,4.14-3.64,1.25-4.55-4.42-1.4-8.87-2.76-13.27-4.21-.8-.26-2.68-.81-2.96-1.69-.16-.49.29-.99.59-1.4.72-.96,1.55-1.86,2.31-2.78,5.98-7.18,11.96-14.36,17.94-21.53.82-.98.96-2.38,0-3.34-.83-.83-2.51-.98-3.33,0h0Z"/>
        <path class="cls-1" d="m566.28,541.78c8.14-.5,16.2,1.35,23.26,5.44-.28-1.08-.56-2.15-.85-3.23-4.33,7.37-9.63,14.07-15.81,19.98-2.2,2.1,1.14,5.44,3.34,3.34,6.45-6.17,12.03-13.23,16.55-20.93.64-1.1.26-2.59-.85-3.23-7.74-4.48-16.71-6.64-25.64-6.09-3.02.18-3.04,4.91,0,4.72h0Z"/>
      </g>
      <g>
        <circle class="cls-2" cx="235.3" cy="149.71" r="72.38"/>
        <path class="cls-1" d="m223.71,102.12c-2.11,6.61-6.12,12.46-11.32,17.03-2.57,2.26-5.46,4.15-8.53,5.67-1.5.74-3.04,1.36-4.63,1.88-.8.26-1.61.5-2.43.71-.48.12-1.79.6-2.12.5.35.2.69.4,1.04.61-.07-.06-.14-.13-.21-.19.2.35.4.69.61,1.04-.01-.07-.02-.14-.04-.21-.08.61-.16,1.21-.24,1.82.03-.06.07-.13.1-.19-.28.28-.56.56-.85.85.06-.04.12-.09.18-.13-.4.11-.79.21-1.19.32.06,0,.12,0,.18-.02-.56-.23-1.11-.46-1.67-.69.04.05.08.09.12.14.82.98,2.49.84,3.34,0,.97-.97.82-2.36,0-3.34-1.79-2.15-5.15.14-4.5,2.61.67,2.57,3.49,2.14,5.45,1.7,3.49-.78,6.88-2.08,10.05-3.73,6.36-3.32,11.84-8.27,15.9-14.18,2.31-3.35,4.08-7.06,5.32-10.93.92-2.91-3.64-4.15-4.56-1.27h0Z"/>
        <path class="cls-1" d="m253.14,103.65c-.02,12.05,9.23,23.42,21.14,25.6,1.25.23,2.54-.34,2.9-1.65.32-1.15-.39-2.67-1.65-2.9-9.89-1.82-17.69-10.94-17.67-21.05,0-3.04-4.71-3.04-4.72,0h0Z"/>
        <path class="cls-1" d="m256.64,135.16c-4.33,4.32-8.67,8.63-13,12.95-.6.59-.83,1.49-.61,2.3.24.87.86,1.32,1.65,1.65,3.82,1.61,7.8,2.75,11.89,3.39,1.26.2,2.54-.32,2.9-1.65.31-1.12-.38-2.7-1.65-2.9-4.09-.65-8.08-1.78-11.89-3.39.35,1.31.69,2.63,1.04,3.94,4.33-4.32,8.67-8.63,13-12.95,2.16-2.15-1.18-5.48-3.33-3.34h0Z"/>
        <path class="cls-1" d="m216.37,140.22c1.85,1.22,3.7,2.44,5.55,3.66.47.31.95.62,1.42.94.21.14.41.27.62.41.08.06.43.34.2.15.18.19.23.23.12.12-.14-.13-.2-.3-.17-.52.01-.04.02-.08.03-.13-.08.26-.1.33-.06.21-.12.25-.39.6-.53.77-.57.66-1.16,1.3-1.8,1.9-.7.65-1.12.98-1.76,1.43-.75.52-1.54.99-2.36,1.41-.37.19-.75.37-1.13.53.32-.13-.37.14-.36.14-.23.09-.47.17-.71.25-1.21.41-2,1.62-1.65,2.9.32,1.18,1.69,2.06,2.9,1.65,4.36-1.48,8.61-4.28,11.2-8.16.91-1.36,1.25-3.07.52-4.58-.61-1.26-1.82-1.97-2.95-2.71-2.24-1.48-4.47-2.95-6.71-4.43-1.06-.7-2.61-.21-3.23.85-.66,1.13-.21,2.5.86,3.21h0Z"/>
        <path class="cls-1" d="m206.53,182.47c1.57-3.37,5.51-5.36,9.13-4.53,2.2.5,3.71,2.07,5.41,3.45,2.23,1.81,4.69,3.16,7.65,2.99,2.97-.17,5.69-1.51,8.24-2.93,1.36-.76,2.72-1.53,4.08-2.29,1.36-.76,2.74-1.72,4.19-2.3,1.02-.41,1.35-.37,2,.45.78.97,1.37,2.05,2.31,2.88,1.94,1.69,4.54,2.31,7.07,2.1,2.97-.25,5.59-1.33,8.29-2.51,2.47-1.09,5.83-2.62,8.51-1.38,1.16.54,2.54.33,3.23-.85.6-1.02.31-2.69-.85-3.23-2.94-1.37-6-1.26-9.06-.29-2.7.85-5.17,2.31-7.89,3.08-1.83.52-4.3.98-5.96-.26-.95-.71-1.51-1.91-2.26-2.8-.96-1.15-2.23-1.95-3.73-2.11-3.26-.35-6.4,2.12-9.1,3.64-2.64,1.48-5.42,3.46-8.45,4-2.75.5-4.57-1.22-6.52-2.87-1.99-1.67-4.07-3.05-6.68-3.46-5.38-.86-11.34,1.78-13.7,6.84-.54,1.16-.33,2.54.85,3.23,1.04.59,2.71.31,3.24-.85h0Z"/>
      </g>
      <g>
        <circle class="cls-2" cx="75.53" cy="551.2" r="72.38"/>
        <path class="cls-1" d="m60.34,522.44c1.27-1.95,1.61-4.34,1.15-6.6-.16-.79-.9-1.44-1.65-1.65-.88-.24-1.62.07-2.3.61-2.72,2.17-4.3,5.76-4.21,9.23.02,1,.71,2.04,1.73,2.28,1.09.25,2.03-.19,2.67-1.08,1.61-2.27,2.73-4.95,3.21-7.69.11-.64.1-1.24-.24-1.82-.29-.49-.85-.96-1.41-1.08-1.16-.26-2.66.35-2.9,1.65-.1.53-.2,1.07-.3,1.6-.12.63-.1,1.25.24,1.82.29.49.85.96,1.41,1.08,1.16.26,2.66-.35,2.9-1.65.1-.53.2-1.07.3-1.6-1.52-.42-3.03-.84-4.55-1.25-.23,1.3-.6,2.57-1.11,3.79.08-.19.16-.38.24-.56-.5,1.18-1.12,2.29-1.86,3.34,1.47.4,2.93.79,4.4,1.19-.01-.47.01-.95.07-1.42-.03.21-.06.42-.08.63.12-.86.35-1.7.69-2.5-.08.19-.16.38-.24.56.32-.73.71-1.41,1.19-2.04-.12.16-.25.32-.37.48.46-.59.99-1.13,1.57-1.6-1.31-.35-2.63-.69-3.94-1.04.03.16.06.33.08.49-.03-.21-.06-.42-.08-.63.06.54.06,1.08-.01,1.62.03-.21.06-.42.08-.63-.08.58-.23,1.14-.46,1.68.08-.19.16-.38.24-.56-.15.34-.33.67-.53.99-.67,1.04-.24,2.65.85,3.23,1.17.6,2.5.24,3.22-.87h0Z"/>
        <path class="cls-1" d="m101.85,527.94c.56-.69,1.04-1.45,1.18-2.35.07-.44.14-.88.09-1.33-.05-.46-.1-.91-.27-1.34-.11-.4-.31-.75-.61-1.04-.21-.23-.47-.39-.76-.49-.67-.28-1.47-.29-2.1.12-.98.63-1.91,1.4-2.65,2.32-.42.52-.82,1.05-1.16,1.63-.35.6-.62,1.24-.87,1.88-.03.21-.06.42-.08.63.03.21.06.42.08.63.14.5.44.91.85,1.23.34.26.69.41,1.12.46.51.07,1.06,0,1.5-.28s.87-.61,1.2-1.02c.22-.27.45-.55.62-.86.18-.32.32-.67.45-1.01.19-.5.26-1.06.28-1.58.01-.17,0-.35-.02-.52-.04-.37-.08-.75-.19-1.1-.18-.58-.55-1.1-1.08-1.41-.51-.3-1.25-.42-1.82-.24s-1.12.54-1.41,1.08c-.29.55-.43,1.21-.24,1.82.05.16.09.31.11.48-.03-.21-.06-.42-.08-.63.03.26.03.53,0,.79.03-.21.06-.42.08-.63-.04.29-.12.56-.23.82.08-.19.16-.38.24-.56-.11.24-.24.47-.41.68.12-.16.25-.32.37-.48-.14.18-.3.33-.47.48.16-.12.32-.25.48-.37-.08.06-.16.12-.25.18,1.16.89,2.31,1.78,3.47,2.67.04-.11.08-.22.13-.32-.08.19-.16.38-.24.56.3-.71.69-1.37,1.16-1.98-.12.16-.25.32-.37.48.49-.63,1.04-1.19,1.67-1.67-.16.12-.32.25-.48.37.2-.16.41-.3.63-.44-1.16-.47-2.31-.94-3.47-1.41.09.21.15.42.18.64-.03-.21-.06-.42-.08-.63.03.25.03.49,0,.74.03-.21.06-.42.08-.63-.04.25-.1.48-.19.71.08-.19.16-.38.24-.56-.09.21-.2.4-.34.58.12-.16.25-.32.37-.48-.01.02-.03.03-.04.05-.23.21-.39.47-.49.76-.15.28-.22.58-.2.91,0,.58.26,1.27.69,1.67.45.41,1.04.72,1.67.69.58-.03,1.27-.22,1.66-.7h0Z"/>
        <path class="cls-1" d="m33.74,569.42c1.49-3.12,4.53-4.78,7.67-5.93,4.09-1.49,8.47-2.69,12.78-3.32,4.18-.61,8.52-.31,12.33,1.62,3.25,1.65,5.94,4.12,8.28,6.9,2.77,3.3,4.96,7.07,6.97,10.86.12-.95.25-1.91.37-2.86-.48.51-.96,1.02-1.44,1.53-2.08,2.21,1.25,5.55,3.34,3.34.48-.51.96-1.02,1.44-1.53.75-.79.87-1.91.37-2.86-3.92-7.4-8.89-15.11-16.47-19.2-8.99-4.85-19.58-2.39-28.72.79-4.4,1.53-8.89,3.88-11,8.28-.55,1.15-.32,2.55.85,3.23,1.03.6,2.68.31,3.23-.85h0Z"/>
      </g>
      <g>
        <circle class="cls-2" cx="547.49" cy="75.53" r="72.38"/>
        <path class="cls-1" d="m509.31,49.35c12.5-1.27,23.93-8.2,30.71-18.8,1.64-2.57-2.44-4.94-4.08-2.38-5.81,9.09-15.87,15.37-26.63,16.46-1.27.13-2.36.99-2.36,2.36,0,1.18,1.09,2.49,2.36,2.36h0Z"/>
        <path class="cls-1" d="m578.44,35.5c-2.05,10.55,4.04,21.45,14.04,25.31,1.19.46,2.59-.51,2.9-1.65.37-1.33-.45-2.44-1.65-2.9-7.5-2.89-12.26-11.71-10.75-19.5.24-1.25-.35-2.55-1.65-2.9-1.14-.33-2.64.38-2.89,1.64h0Z"/>
        <path class="cls-1" d="m565.68,63.38c-1.77,4.12-2.6,8.57-2.15,13.06.1,1.01.66,2.03,1.73,2.28.97.22,2.19-.13,2.67-1.08,1.88-3.8,2.85-8,2.72-12.25-.07-2.1-2.5-3.04-4.03-1.67-2.38,2.14-3.73,5.46-3.47,8.65.1,1.23,1.01,2.42,2.36,2.36,1.19-.05,2.47-1.04,2.36-2.36-.03-.31-.04-.62-.03-.93,0-.15.01-.31.02-.46,0-.06.01-.12.02-.18.02-.18.01-.12-.02.17-.08-.09.14-.7.17-.82.08-.3.19-.59.29-.88.1-.32-.25.49.02-.03.06-.11.11-.22.17-.33.14-.27.3-.54.48-.79.04-.06.36-.46.15-.21-.22.26.17-.18.17-.19.21-.23.43-.44.66-.65-1.34-.56-2.69-1.11-4.03-1.67.03.92.01,1.83-.07,2.75l-.06.63q-.03.28,0,0c-.01.1-.03.21-.05.31-.07.45-.15.9-.25,1.35-.19.9-.44,1.78-.74,2.65-.14.4-.29.8-.45,1.19.18-.45-.05.12-.1.21-.12.26-.24.51-.36.76,1.47.4,2.93.79,4.4,1.19-.1-.99-.14-1.98-.12-2.98.01-.5.04-.99.08-1.49.02-.21.04-.42.06-.64q.03-.28,0-.01c.01-.11.03-.21.05-.32.15-.95.35-1.89.61-2.81.13-.48.28-.95.45-1.42.07-.2.14-.4.22-.6.03-.08.36-.89.16-.42.26-.61.42-1.15.24-1.82-.15-.55-.57-1.14-1.08-1.41-1.04-.53-2.73-.35-3.25.86h0Z"/>
        <path class="cls-1" d="m531.62,58.01c-1.81,3.81-2.19,8.22-.78,12.23.34.95,1.2,1.78,2.28,1.73,1.1-.05,1.91-.71,2.28-1.73,1.19-3.32,1.42-6.81.94-10.28-.12-.9-1.15-1.58-1.96-1.69-.98-.13-1.8.33-2.35,1.13-1.04,1.51-1.57,3.32-1.62,5.14-.04,1.24,1.11,2.42,2.36,2.36,1.31-.06,2.32-1.04,2.36-2.36.01-.18.02-.35.03-.53.03-.46-.07.31,0,.02.08-.31.14-.63.24-.94.02-.07.19-.55.07-.21-.12.33.06-.13.1-.2.16-.31.34-.61.54-.9-1.44-.19-2.88-.38-4.31-.56-.08-.61,0,.04.01.13.02.19.04.38.05.57.02.35.04.7.04,1.05.01.73-.02,1.46-.1,2.19-.01.14-.04.72-.01.13-.01.16-.05.32-.08.47-.06.35-.13.69-.21,1.03-.17.75-.39,1.48-.65,2.2h4.55c-.28-.79-.47-1.59-.62-2.42-.04-.27-.04-.24.01.1-.01-.12-.03-.24-.04-.35-.02-.18-.03-.36-.04-.53-.02-.45-.02-.89,0-1.34.01-.21.02-.42.04-.62.01-.12.02-.24.04-.35-.04.3-.05.36-.03.19.07-.41.14-.82.24-1.22s.22-.8.35-1.2c.06-.18.12-.42.22-.58-.32.53.06-.13.12-.25.53-1.11.35-2.6-.85-3.23-1.04-.58-2.65-.37-3.22.82h0Z"/>
        <path class="cls-1" d="m513.05,110.28c6.49-7.42,15.72-11.39,25.12-13.72,5.15-1.27,10.83-2.65,16.06-1.1,4.63,1.37,8.96,4.51,12.44,7.8,3.69,3.49,6.84,7.96,7.33,13.15,1.18-.68,2.37-1.36,3.55-2.04-14.58-7.8-31.55-11.01-47.98-9.02-4.71.57-9.34,1.51-13.88,2.9-2.9.88-1.66,5.44,1.25,4.55,15-4.57,31.22-4.35,46.13.48,4.18,1.36,8.22,3.08,12.09,5.16,1.44.77,3.73-.16,3.55-2.04-.53-5.56-3.09-10.42-6.8-14.53-3.66-4.06-8.45-7.67-13.47-9.85-2.85-1.24-5.82-1.94-8.94-1.95s-6.24.55-9.29,1.19c-5.42,1.13-10.73,2.74-15.77,5.03-5.55,2.53-10.7,6.04-14.73,10.65-1.99,2.28,1.34,5.63,3.34,3.34h0Z"/>
      </g>
    </g>
  </g>
</svg>