<?xml version="1.0" encoding="utf-8"?>
<!-- Generator: Adobe Illustrator 26.3.1, SVG Export Plug-In . SVG Version: 6.00 Build 0)  -->
<svg version="1.1" xmlns="http://www.w3.org/2000/svg" xmlns:xlink="http://www.w3.org/1999/xlink" x="0px" y="0px"
	 viewBox="0 0 1691.25 1122.25" style="enable-background:new 0 0 1691.25 1122.25;" xml:space="preserve">
<style type="text/css">
	.st0{fill:#29597E;stroke:#000000;stroke-width:2.696;stroke-miterlimit:10;}
	.st1{fill:#29597E;stroke:#000000;stroke-width:2.993;stroke-miterlimit:10;}
	.st2{fill:#FFFFFF;}
	.st3{fill:#1B1439;}
	.st4{fill:#F5F0E2;}
	.st5{fill:#ED1E78;}
	.st6{fill:#FE3922;stroke:#000000;stroke-width:6.2938;stroke-miterlimit:10;}
	.st7{fill:#29597E;}
	.st8{fill:#D95F86;}
	.st9{fill:#D95F86;stroke:#000000;stroke-width:4.6468;stroke-miterlimit:10;}
	.st10{fill:none;stroke:#000000;stroke-width:9.3644;stroke-miterlimit:10;}
	.st11{fill:#ED1E78;stroke:#000000;stroke-width:4.9229;stroke-miterlimit:10;}
	.st12{fill:#FBAE16;stroke:#020202;stroke-width:4.9229;stroke-miterlimit:10;}
	.st13{fill:#F5F0E2;stroke:#000000;stroke-width:4.9229;stroke-miterlimit:10;}
	.st14{fill:none;stroke:#000000;stroke-width:4.9229;stroke-miterlimit:10;}
	.st15{fill:#29597E;stroke:#000000;stroke-width:2.521;stroke-miterlimit:10;}
	.st16{fill:#F9E819;}
	.st17{fill:#FBAE16;}
	.st18{fill:#FBAE16;stroke:#020202;stroke-width:4.8212;stroke-miterlimit:10;}
	.st19{fill:#ED1E78;stroke:#000000;stroke-width:4.8212;stroke-miterlimit:10;}
	.st20{fill:#FE3922;stroke:#000000;stroke-width:4.8212;stroke-miterlimit:10;}
	.st21{fill:none;stroke:#000000;stroke-width:4.8212;stroke-miterlimit:10;}
	.st22{fill:#020202;}
	.st23{fill:none;stroke:#020202;stroke-width:4;stroke-miterlimit:10;}
</style>
<g id="Layer_1">
</g>
<g id="Layer_3">
</g>
<g id="Layer_4">
</g>
<g id="Layer_5">
</g>
<g id="Layer_6">
</g>
<g id="Layer_7">
</g>
<g id="Layer_8">
</g>
<g id="Layer_2">
	<g>
		<path class="st2" d="M1280.44,540.14c-7.03-2.65-15.06-6.26-21.59-2.53c-1.99,5.56-3.9,12.04-0.84,17.09
			c2.42,3.99,7.2,5.76,11.63,7.24c20.95,7.02,42.09,13.9,63.98,16.89c21.89,2.99,44.77,1.9,65.17-6.6c2.38-0.99,4.82-2.17,6.29-4.29
			c1.36-1.97,1.67-4.45,1.95-6.82c0.66-5.7,1.23-11.84-1.6-16.84c-4.17-7.38-14.2-9.28-22.52-7.64c-9.31,1.84-17.66,6.77-27.03,8.47
			c-7.93,1.44-16.35,1.72-24.4,2.11C1314.61,548.03,1296.28,546.12,1280.44,540.14z"/>
		<path class="st2" d="M1299.38,583.09c-6.9,5.81-14.41,10.83-21.74,16.07c-28.2,20.16-53.84,43.64-79.39,67.06
			c-0.84,0.77-1.7,1.56-2.24,2.57c-1.58,2.95,0.25,6.84,3.15,8.51s6.47,1.61,9.79,1.12c16.23-2.39,29.54-13.52,43-22.9
			c13.2-9.2,27.33-17.05,42.11-23.4c1.01-0.44,2.17-0.87,3.19-0.44c0.82,0.34,1.32,1.15,1.77,1.92c2.53,4.29,5.05,8.58,7.58,12.87
			c0.96,1.62,2,3.33,3.67,4.19c1.41,0.72,3.07,0.74,4.65,0.68c7.39-0.27,14.73-1.79,21.62-4.48c-0.72,4.04,3.61,7.51,7.72,7.62
			c4.11,0.11,7.88-2.03,11.54-3.89c3.66-1.86,7.8-3.55,11.77-2.51c-3.36,2.99-0.73,9.16,3.54,10.59c4.27,1.43,8.9-0.3,12.98-2.19
			c17.99-8.32,34.3-20.23,47.7-34.83c1.87-2.03,3.79-4.41,3.7-7.16c-0.05-1.66-0.84-3.19-1.59-4.67
			c-8.97-17.45-16.68-35.55-23.04-54.11c-0.53-1.55-1.12-3.19-2.4-4.21c-1.38-1.08-3.25-1.21-5-1.27
			C1367.07,549.05,1327.41,559.49,1299.38,583.09z"/>
		<path class="st4" d="M1408.21,540.74c-0.48,0.33-0.97,0.67-1.24,1.18c-0.36,0.68-0.26,1.5-0.15,2.26
			c1.52,9.75,4.62,19.25,9.14,28.02c3.45,6.69,7.77,13.09,9.5,20.42c0.52,2.21,0.82,4.54,1.98,6.49c1.52,2.54,4.26,4.05,6.48,6.01
			c4.16,3.67,6.5,8.95,10.05,13.2c1.62,1.94,3.67,3.75,6.17,4.13c1.68,0.25,3.39-0.18,4.96-0.83c4.96-2.08,8.87-6.6,10.03-11.85
			c0.4-1.8,0.47-3.76-0.38-5.39c-0.75-1.44-2.1-2.44-3.29-3.54c-2.89-2.68-4.93-6.14-6.89-9.56c-5.03-8.75-9.87-17.6-14.54-26.55
			c-0.68-1.31-1.37-2.65-1.71-4.09c-0.38-1.61-0.31-3.3-0.42-4.95c-0.48-7.65-4.67-14.67-5.33-22.3c-0.16-1.79-0.33-5.59-2.68-5.95
			c-1.98-0.3-5.07,2.51-6.62,3.47C1418.18,534.07,1413.16,537.35,1408.21,540.74z"/>
		<path class="st3" d="M1521.09,449.39c-13.39,12.44-27.95,23.55-42.48,34.64c-15.38,11.74-30.77,23.47-46.15,35.21
			c-2.18,1.66-4.43,3.42-5.59,5.89c-0.81,1.73-1.01,3.67-1.08,5.58c-1.01,28.65,25.02,50.57,34.19,77.73
			c8.25-0.72,15.97-4.32,23.19-8.37c26.83-15.05,49.34-36.89,76.03-52.19c30.6-17.55,68.12-27.85,87.32-57.44
			c0.98-1.51,1.93-3.13,2.08-4.93c0.15-1.79-0.51-3.54-1.17-5.21c-11.34-28.68-28.95-65.08-52.99-85.43
			c-11.78-9.97-27.54,9.55-36.66,18.13C1545.24,424.8,1533.72,437.66,1521.09,449.39z"/>
		<g>
			<g>
				<g>
					<path d="M1409.33,539.03c6.94-2.23,12.78-6.5,18.49-10.89c6.23-4.78,12.43-9.59,18.61-14.43
						c12.27-9.62,24.44-19.37,36.51-29.25c24.13-19.75,47.85-40.01,71.13-60.76c13.07-11.64,26-23.44,38.79-35.39
						c2.35-2.2-1.18-5.72-3.53-3.53c-22.67,21.18-45.79,41.89-69.32,62.1c-23.42,20.11-47.25,39.74-71.48,58.86
						c-6.7,5.29-13.43,10.54-20.2,15.75c-6.29,4.84-12.65,10.25-20.33,12.71C1404.96,535.19,1406.26,540.01,1409.33,539.03
						L1409.33,539.03z"/>
				</g>
			</g>
			<g>
				<g>
					<path d="M1260.61,533.99c-2.72,4.76-5.43,9.84-5.4,15.47c0.03,5.28,2.6,9.83,7.13,12.54c4.41,2.64,9.77,3.75,14.68,5.06
						c5.67,1.51,11.38,2.87,17.12,4.06c6.53,1.36,13.11,2.5,19.71,3.44c1.33,0.19,2.68-0.33,3.07-1.74c0.32-1.17-0.4-2.88-1.74-3.07
						c-10.82-1.54-21.56-3.64-32.17-6.29c-4.95-1.24-10.01-2.43-14.8-4.18c-3.79-1.39-7.07-3.69-7.85-7.87
						c-0.98-5.32,2.03-10.45,4.56-14.88C1266.51,533.71,1262.2,531.19,1260.61,533.99L1260.61,533.99z"/>
				</g>
			</g>
			<g>
				<g>
					<path d="M1403.42,539.9c4.11,20.04,11.44,39.42,21.58,57.18c5.09,8.92,10.9,17.41,17.32,25.41c1.66,2.06,3.5,4.16,6.45,3.53
						c1.34-0.29,2.45-1.12,3.56-1.88c1.23-0.86,2.46-1.71,3.69-2.57c4.93-3.42,9.85-6.84,14.78-10.26
						c19.56-13.59,39.13-27.18,58.69-40.77c19.5-13.54,38.99-27.09,58.49-40.63c9.78-6.8,19.56-13.59,29.35-20.39
						c9.75-6.78,19.69-13.35,29.29-20.35c1.94-1.42,4.02-3.78,2.93-6.36c-0.52-1.24-1.65-2.13-3.07-1.74
						c-1.17,0.32-2.27,1.82-1.74,3.07c0.29,0.68,0.18-0.11,0.09,0c-0.32,0.38-0.68,0.68-1.08,0.97c-1.21,0.88-2.46,1.71-3.69,2.57
						c-2.39,1.66-4.79,3.33-7.18,4.99c-4.65,3.23-9.3,6.46-13.96,9.69c-9.44,6.56-18.88,13.12-28.32,19.67
						c-18.95,13.16-37.9,26.33-56.85,39.49c-18.88,13.12-37.76,26.23-56.64,39.35c-4.72,3.28-9.44,6.56-14.16,9.84
						c-4.75,3.3-9.43,6.78-14.29,9.92c-0.28,0.18-0.6,0.46-0.93,0.53c0.2-0.04,0.4,0.46-0.12-0.11c-0.11-0.12-0.2-0.22-0.32-0.35
						c-0.85-0.9-1.59-1.93-2.36-2.9c-1.46-1.85-2.87-3.73-4.26-5.63c-2.93-4.04-5.7-8.19-8.31-12.44
						c-10.24-16.73-17.87-35-22.53-54.05c-0.58-2.35-1.1-4.72-1.59-7.09c-0.27-1.32-1.83-2.08-3.07-1.74
						C1403.79,537.2,1403.14,538.57,1403.42,539.9L1403.42,539.9z"/>
				</g>
			</g>
			<g>
				<g>
					<path d="M1426.17,523.75c2.66,12.63,6.47,24.98,10.59,37.2c1.98,5.86,3.94,11.73,6.08,17.53c1.05,2.85,2.21,5.69,3.71,8.33
						c1.33,2.35,2.97,4.49,4.64,6.61c3.18,4.05,7.21,8.4,7.86,13.74c0.16,1.34,1.03,2.5,2.5,2.5c1.22,0,2.66-1.15,2.5-2.5
						c-0.66-5.4-3.43-9.74-6.7-13.95c-3.31-4.26-6.54-8.31-8.64-13.35c-2.4-5.77-4.26-11.8-6.28-17.72
						c-2.11-6.19-4.15-12.39-6.02-18.66c-2.08-6.95-3.93-13.97-5.42-21.07C1430.32,519.28,1425.51,520.61,1426.17,523.75
						L1426.17,523.75z"/>
				</g>
			</g>
			<g>
				<g>
					<path d="M1262.99,535.72c18.14,6.19,36.55,12.33,55.77,13.99c9.37,0.81,18.74,0.33,27.98-1.49c8.8-1.74,17.39-4.4,26.18-6.23
						c9.46-1.97,19.26-2.81,28.57,0.3c3.06,1.02,4.37-3.8,1.33-4.82c-17.36-5.79-35.37,0.89-52.34,4.83
						c-8.98,2.09-17.99,3.12-27.22,2.7c-9.41-0.43-18.7-2.14-27.82-4.45c-10.53-2.67-20.84-6.15-31.12-9.65
						C1261.27,529.87,1259.96,534.69,1262.99,535.72L1262.99,535.72z"/>
				</g>
			</g>
			<g>
				<g>
					<path d="M1307.06,573.59c-17.84,14.75-35.67,29.5-53.51,44.26c-17.71,14.65-35.42,29.29-53.13,43.94
						c-3.62,2.99-8.56,6.94-7.18,12.3c1.29,4.99,7.2,6.4,11.67,6.31c5.42-0.12,10.54-2.19,15.37-4.5c4.89-2.34,9.71-4.87,14.5-7.41
						c18.95-10.07,37.29-21.31,54.87-33.62c1.06-0.74,2.11-1.5,3.17-2.23c0.73-0.5,1.6-1.16,2.5-0.94c1.6,0.4,2.47,2.34,2.82,3.78
						c0.58,2.43,0.48,4.97,1.07,7.41c0.53,2.21,1.63,4.2,3.11,5.92c2.7,3.16,6.85,5.14,10.91,5.8c5.17,0.83,10.36-0.24,15.23-2.02
						c2.51-0.92,4.96-1.99,7.4-3.07c-1.14-0.3-2.28-0.6-3.42-0.9c2.55,5.84,9.32,8.7,15.41,8.5c7.55-0.24,14.02-4.73,19.91-9
						c-1.22-0.94-2.45-1.88-3.67-2.82c-1.63,6.3,2.89,12.06,8.54,14.31c6.53,2.6,13.86-0.26,19.73-3.24
						c11.69-5.94,22.54-13.67,32.13-22.6c5.34-4.97,10.28-10.36,14.79-16.1c0.83-1.06,1.03-2.5,0-3.53c-0.87-0.87-2.69-1.07-3.53,0
						c-7.31,9.31-15.79,17.75-25.23,24.91c-4.81,3.64-9.85,6.98-15.08,9.97c-5.03,2.88-10.7,6.35-16.65,6.55
						c-2.85,0.1-5.54-0.67-7.63-2.68c-1.71-1.64-2.86-3.88-2.24-6.27c0.5-1.94-1.82-4.16-3.67-2.82
						c-4.89,3.54-10.45,7.82-16.71,8.28c-4.71,0.34-9.78-1.42-11.78-5.99c-0.58-1.33-2.31-1.39-3.42-0.9
						c-7.76,3.42-17.48,7.49-25.32,2.06c-1.41-0.98-2.61-2.3-3.36-3.86c-0.96-1.99-0.97-4.27-1.23-6.42
						c-0.54-4.45-2.65-9.67-7.76-10.27c-2.58-0.3-4.62,1.08-6.63,2.5c-2.16,1.53-4.33,3.04-6.51,4.53
						c-4.3,2.94-8.64,5.82-13.03,8.64c-8.77,5.63-17.71,11-26.8,16.09c-4.54,2.55-9.13,5.03-13.74,7.44
						c-4.65,2.43-9.31,4.97-14.14,7.02c-4.2,1.77-9.25,3.34-13.81,2.07c-1.3-0.36-2.95-1.11-3-2.65c-0.06-1.84,1.89-3.55,3.12-4.66
						c4.06-3.65,8.43-7,12.64-10.48c4.3-3.56,8.6-7.11,12.9-10.67c8.6-7.11,17.2-14.22,25.79-21.33
						c17.26-14.27,34.52-28.55,51.78-42.82c2.12-1.75,4.23-3.5,6.35-5.25c1.04-0.86,0.89-2.64,0-3.53
						C1309.57,572.56,1308.11,572.73,1307.06,573.59L1307.06,573.59z"/>
				</g>
			</g>
		</g>
	</g>
	<g>
		<path class="st2" d="M1364.72,892.1c-2.97-6.9-5.96-15.18-13.17-17.29c-5.38,2.44-11.37,5.56-12.88,11.27
			c-1.19,4.51,0.86,9.18,2.87,13.4c9.5,19.94,19.24,39.94,32.3,57.76c13.06,17.82,29.73,33.53,50.01,42.29
			c2.36,1.02,4.91,1.96,7.45,1.55c2.36-0.39,4.36-1.89,6.26-3.34c4.56-3.49,9.37-7.34,11.01-12.85c2.41-8.13-3.19-16.66-10.14-21.51
			c-7.79-5.42-17.14-8.01-24.86-13.56c-6.54-4.7-12.59-10.56-18.47-16.09C1382.78,922.17,1371.41,907.65,1364.72,892.1z"/>
		<path class="st2" d="M1346.98,935.56c-8.97-0.93-17.8-2.84-26.66-4.48c-34.09-6.28-68.79-8.41-103.39-10.53
			c-1.14-0.07-2.31-0.14-3.41,0.18c-3.22,0.91-4.75,4.93-3.93,8.18c0.82,3.25,3.34,5.78,5.99,7.82
			c12.99,10.01,30.24,11.86,46.34,15.03c15.78,3.11,31.25,7.82,46.08,14.03c1.02,0.43,2.13,0.96,2.53,1.99
			c0.32,0.83,0.09,1.75-0.15,2.6c-1.33,4.8-2.66,9.6-3.99,14.39c-0.5,1.81-1.01,3.75-0.46,5.55c0.46,1.52,1.6,2.72,2.74,3.82
			c5.33,5.13,11.52,9.35,18.24,12.44c-3.41,2.29-2.9,7.82-0.12,10.84c2.78,3.03,6.93,4.26,10.82,5.6c3.88,1.34,7.97,3.14,9.98,6.73
			c-4.49-0.34-7.09,5.83-5.16,9.9c1.94,4.06,6.4,6.19,10.59,7.82c18.48,7.16,38.38,10.62,58.19,10.12c2.76-0.07,5.8-0.34,7.72-2.32
			c1.16-1.19,1.71-2.82,2.25-4.39c6.32-18.58,13.99-36.69,22.92-54.17c0.75-1.46,1.52-3.02,1.36-4.65
			c-0.18-1.74-1.39-3.18-2.56-4.48C1418.49,960.6,1383.43,939.33,1346.98,935.56z"/>
		<path class="st4" d="M1453.04,984.42c-0.56-0.12-1.16-0.23-1.71-0.07c-0.74,0.21-1.26,0.85-1.73,1.46
			c-5.96,7.87-10.64,16.7-13.81,26.04c-2.42,7.13-4.02,14.68-8.09,21.02c-1.23,1.91-2.69,3.74-3.29,5.93
			c-0.78,2.86,0.04,5.88,0.17,8.84c0.25,5.54-1.92,10.89-2.51,16.4c-0.27,2.52-0.15,5.24,1.32,7.3c0.99,1.38,2.49,2.32,4.04,2.99
			c4.94,2.13,10.91,1.79,15.5-1.02c1.57-0.96,3.03-2.28,3.62-4.02c0.52-1.54,0.29-3.21,0.26-4.83c-0.08-3.94,0.99-7.81,2.09-11.6
			c2.8-9.69,5.8-19.33,9-28.9c0.47-1.4,0.95-2.82,1.75-4.07c0.9-1.4,2.15-2.51,3.27-3.74c5.17-5.66,7.31-13.55,12.34-19.33
			c1.18-1.36,3.79-4.12,2.42-6.06c-1.16-1.63-5.33-1.91-7.1-2.35C1464.77,986.97,1458.92,985.63,1453.04,984.42z"/>
		<path class="st3" d="M1597.16,1002.18c-18.25-0.99-36.36-3.75-54.43-6.5c-19.13-2.91-38.26-5.83-57.39-8.74
			c-2.7-0.41-5.54-0.81-8.12,0.07c-1.8,0.62-3.34,1.82-4.76,3.1c-21.31,19.17-19,53.13-32.16,78.59c6.25,5.44,14.2,8.48,22.13,10.86
			c29.46,8.84,60.81,9.87,90.36,18.43c33.88,9.82,67.35,29.66,101.98,22.91c1.77-0.34,3.59-0.79,4.99-1.93
			c1.39-1.13,2.19-2.82,2.94-4.45c12.75-28.08,26.7-66.03,24.64-97.47c-1.01-15.4-26-13.18-38.5-13.77
			C1631.63,1002.46,1614.38,1003.11,1597.16,1002.18z"/>
		<g>
			<g>
				<g>
					<path d="M1455.06,984.05c6.42,3.44,13.56,4.67,20.68,5.74c7.67,1.15,15.34,2.25,23.02,3.31c15.58,2.16,31.18,4.16,46.8,6
						c30.96,3.64,62,6.62,93.09,8.96c17.44,1.31,34.89,2.41,52.35,3.32c3.21,0.17,3.2-4.83,0-4.99c-30.97-1.6-61.9-3.84-92.78-6.72
						c-30.73-2.87-61.41-6.37-92-10.53c-8.58-1.17-17.15-2.38-25.72-3.65c-7.74-1.14-15.91-1.99-22.91-5.74
						C1454.75,978.22,1452.23,982.53,1455.06,984.05L1455.06,984.05z"/>
				</g>
			</g>
			<g>
				<g>
					<path d="M1355.29,873.58c-5.18,1.32-10.48,2.85-14.5,6.56c-4.01,3.69-5.58,8.85-4.36,14.16c0.63,2.72,1.88,5.3,3.16,7.76
						c1.33,2.55,2.71,5.07,4.12,7.58c2.78,4.95,5.7,9.83,8.74,14.63c3.42,5.39,7.01,10.67,10.75,15.84c0.79,1.09,2.17,1.62,3.42,0.9
						c1.08-0.63,1.69-2.32,0.9-3.42c-6.16-8.51-11.9-17.33-17.18-26.41c-2.6-4.48-5.24-9-7.46-13.68
						c-1.91-4.02-2.95-8.55,0.02-12.32c3.29-4.18,8.82-5.52,13.72-6.77C1359.73,877.6,1358.41,872.78,1355.29,873.58L1355.29,873.58
						z"/>
				</g>
			</g>
			<g>
				<g>
					<path d="M1450.31,980.41c-11.77,17.19-20.73,36.31-26.46,56.34c-2.86,10.01-5.05,20.35-6.13,30.71
						c-0.29,2.78,0.9,5.12,3.61,6.07c2.6,0.91,5.56,1.19,8.26,1.72c5.88,1.17,11.77,2.33,17.65,3.5c23.37,4.63,46.73,9.26,70.1,13.9
						c23.29,4.62,46.57,9.23,69.86,13.85c11.68,2.32,23.37,4.63,35.05,6.95c5.88,1.17,11.77,2.33,17.65,3.5
						c2.86,0.57,5.72,1.13,8.58,1.7c2.81,0.56,5.69,1.36,8.55,1.61c2.5,0.22,4.61-0.72,5.59-3.1c0.51-1.25-0.56-2.75-1.74-3.07
						c-1.43-0.39-2.56,0.49-3.07,1.74c-0.05,0.12,0.47-0.84,0.58-0.63c0.03,0.05-0.43,0.08-0.23,0.09c-0.38-0.02-0.8,0.02-1.09-0.02
						c-1.44-0.19-2.89-0.57-4.32-0.85c-2.78-0.55-5.56-1.1-8.33-1.65c-5.64-1.12-11.28-2.24-16.91-3.35
						c-11.28-2.24-22.55-4.47-33.83-6.71c-22.55-4.47-45.1-8.94-67.65-13.41c-22.47-4.45-44.94-8.91-67.41-13.36
						c-11.19-2.22-22.39-4.44-33.58-6.66c-0.62-0.12-1.25-0.23-1.86-0.4c-0.2-0.06-0.65-0.32-0.53-0.15c0.12,0.16,0-0.03,0.01-0.33
						c0.01-0.25,0.02-0.5,0.04-0.75c0.06-0.63,0.15-1.26,0.23-1.88c0.31-2.44,0.68-4.88,1.1-7.31c0.83-4.87,1.85-9.7,3.06-14.49
						c4.89-19.38,12.81-37.94,23.47-54.86c1.32-2.09,2.68-4.15,4.07-6.19c0.76-1.11,0.21-2.77-0.9-3.42
						C1452.49,978.79,1451.07,979.29,1450.31,980.41L1450.31,980.41z"/>
				</g>
			</g>
			<g>
				<g>
					<path d="M1477.73,985.56c-7.05,10.41-13.15,21.4-18.93,32.55c-2.89,5.56-5.76,11.13-8.51,16.75c-1.38,2.81-2.68,5.69-3.61,8.69
						c-0.8,2.57-1.23,5.22-1.6,7.88c-0.72,5.28-1.03,11.43-4.53,15.75c-0.85,1.05-1.02,2.51,0,3.53c0.88,0.88,2.68,1.05,3.53,0
						c3.44-4.25,4.64-9.36,5.37-14.66c0.36-2.64,0.65-5.29,1.2-7.9c0.59-2.85,1.56-5.61,2.76-8.26c2.58-5.68,5.55-11.2,8.4-16.75
						c2.87-5.59,5.81-11.14,8.89-16.62c3.54-6.29,7.29-12.46,11.34-18.44C1483.85,985.41,1479.53,982.91,1477.73,985.56
						L1477.73,985.56z"/>
				</g>
			</g>
			<g>
				<g>
					<path d="M1355.81,876.54c8.34,17.76,16.92,35.69,29.55,50.87c6.08,7.31,13.12,13.61,20.98,18.94
						c7.29,4.94,15.02,9.2,22.26,14.22c7.64,5.3,14.63,11.65,18.69,20.16c0.58,1.22,2.32,1.54,3.42,0.9
						c1.25-0.73,1.48-2.19,0.9-3.42c-7.67-16.1-24.47-24.42-38.79-33.58c-7.75-4.96-14.84-10.57-21.03-17.42
						c-6.5-7.19-11.92-15.28-16.74-23.67c-5.5-9.57-10.23-19.54-14.92-29.52c-0.57-1.22-2.33-1.53-3.42-0.9
						C1355.45,873.86,1355.23,875.32,1355.81,876.54L1355.81,876.54z"/>
				</g>
			</g>
			<g>
				<g>
					<path d="M1359.1,934.49c-23.33-2.62-46.67-5.24-70-7.86c-23.25-2.61-46.5-5.26-69.75-7.84c-4.09-0.45-9.23-0.28-11.59,3.7
						c-2.71,4.56,0.62,9.89,3.95,13.05c3.43,3.25,7.72,5.31,12.07,7.01c4.93,1.94,9.99,3.58,15.02,5.24
						c21.44,7.06,43.34,12.74,65.51,16.99c1.59,0.31,4.44,0.34,5.05,1.97c0.55,1.48-0.24,3.32-1.12,4.62
						c-1.35,1.99-3.15,3.64-4.43,5.68c-1.22,1.94-1.86,4.13-2.06,6.4c-0.4,4.58,1.44,9.25,4.21,12.82c3,3.87,7.27,6.58,11.64,8.67
						c2.28,1.09,4.61,2.04,6.95,2.99c-0.58-1.02-1.16-2.05-1.74-3.07c-2.52,6.14,0.44,13.3,5.16,17.51
						c5.43,4.84,12.81,6.31,19.75,7.55c-0.2-1.52-0.4-3.04-0.6-4.56c-4.86,2.73-6.3,8.74-5.04,13.87c1.45,5.9,6.62,9.86,11.93,12.21
						c6.24,2.77,12.99,4.58,19.65,6.06c7.05,1.57,14.23,2.6,21.43,3.11c8.07,0.57,16.19,0.42,24.24-0.4c1.34-0.14,2.5-1.05,2.5-2.5
						c0-1.24-1.15-2.64-2.5-2.5c-13.09,1.33-26.37,0.88-39.31-1.51c-6.43-1.19-12.77-2.81-18.97-4.89
						c-4.67-1.56-10.05-3.61-12.87-7.93c-2.29-3.51-2.31-9.1,1.46-11.22c1.76-0.99,1.57-4.18-0.6-4.56
						c-5.79-1.03-12.24-2.03-16.99-5.79c-3.88-3.07-6.41-8.3-4.43-13.12c0.55-1.35-0.62-2.61-1.74-3.07
						c-7.85-3.2-17.26-7.26-19.02-16.55c-0.34-1.79-0.21-3.71,0.44-5.41c0.74-1.93,2.24-3.44,3.53-5.01
						c2.74-3.32,5.1-7.95,2.74-12.17c-1.23-2.2-3.47-3.15-5.84-3.61c-2.74-0.53-5.48-1.05-8.21-1.61
						c-5.33-1.09-10.65-2.26-15.95-3.51c-10.6-2.51-21.11-5.34-31.53-8.5c-5.21-1.58-10.4-3.24-15.55-4.98
						c-4.58-1.54-9.27-2.99-13.68-4.99c-3.73-1.69-7.62-3.93-9.88-7.47c-0.8-1.25-1.75-3.25-0.7-4.54c0.91-1.11,2.88-1.19,4.35-1.18
						c2.42,0.02,4.84,0.43,7.24,0.69c2.81,0.32,5.63,0.63,8.44,0.95c5.63,0.63,11.25,1.26,16.88,1.9
						c11.34,1.27,22.67,2.55,34.01,3.82c22.51,2.53,45.01,5.06,67.52,7.58c2.81,0.32,5.63,0.63,8.44,0.95
						c1.34,0.15,2.5-1.26,2.5-2.5C1361.6,935.51,1360.45,934.64,1359.1,934.49L1359.1,934.49z"/>
				</g>
			</g>
		</g>
	</g>
	<g>
		<path class="st2" d="M326.28,853.5c2.97-6.9,5.96-15.18,13.17-17.29c5.38,2.44,11.37,5.56,12.88,11.27
			c1.19,4.51-0.86,9.18-2.87,13.4c-9.5,19.94-19.24,39.94-32.3,57.76c-13.06,17.82-29.73,33.53-50.01,42.29
			c-2.36,1.02-4.91,1.96-7.45,1.55c-2.36-0.39-4.36-1.89-6.26-3.34c-4.56-3.49-9.37-7.34-11.01-12.85
			c-2.41-8.13,3.19-16.66,10.14-21.51c7.79-5.42,17.14-8.01,24.86-13.56c6.54-4.7,12.59-10.56,18.47-16.09
			C308.22,883.57,319.59,869.05,326.28,853.5z"/>
		<path class="st2" d="M344.02,896.96c8.97-0.93,17.8-2.84,26.66-4.48c34.09-6.28,68.79-8.41,103.39-10.53
			c1.14-0.07,2.31-0.14,3.41,0.18c3.22,0.91,4.75,4.93,3.93,8.18c-0.82,3.25-3.34,5.78-5.99,7.82
			c-12.99,10.01-30.24,11.86-46.34,15.03c-15.78,3.11-31.25,7.82-46.08,14.03c-1.02,0.43-2.13,0.96-2.53,1.99
			c-0.32,0.83-0.09,1.75,0.15,2.6c1.33,4.8,2.66,9.6,3.99,14.39c0.5,1.81,1.01,3.75,0.46,5.55c-0.46,1.52-1.6,2.72-2.74,3.82
			c-5.33,5.13-11.52,9.35-18.24,12.44c3.41,2.29,2.9,7.82,0.12,10.84s-6.93,4.26-10.82,5.6c-3.88,1.34-7.97,3.14-9.98,6.73
			c4.49-0.34,7.09,5.83,5.16,9.9c-1.94,4.06-6.4,6.19-10.59,7.82c-18.48,7.16-38.38,10.62-58.19,10.12
			c-2.76-0.07-5.8-0.34-7.72-2.32c-1.16-1.19-1.71-2.82-2.25-4.39c-6.32-18.58-13.99-36.69-22.92-54.17
			c-0.75-1.46-1.52-3.02-1.36-4.65c0.18-1.74,1.39-3.18,2.56-4.48C272.51,922,307.57,900.73,344.02,896.96z"/>
		<path class="st4" d="M237.96,945.82c0.56-0.12,1.16-0.23,1.71-0.07c0.74,0.21,1.26,0.85,1.73,1.46
			c5.96,7.87,10.64,16.7,13.81,26.04c2.42,7.13,4.02,14.68,8.09,21.02c1.23,1.91,2.69,3.74,3.29,5.93c0.78,2.86-0.04,5.88-0.17,8.84
			c-0.25,5.54,1.92,10.89,2.51,16.4c0.27,2.52,0.15,5.24-1.32,7.3c-0.99,1.38-2.49,2.32-4.04,2.99c-4.94,2.13-10.91,1.79-15.5-1.02
			c-1.57-0.96-3.03-2.28-3.62-4.02c-0.52-1.54-0.29-3.21-0.26-4.83c0.08-3.94-0.99-7.81-2.09-11.6c-2.8-9.69-5.8-19.33-9-28.9
			c-0.47-1.4-0.95-2.82-1.75-4.07c-0.9-1.4-2.15-2.51-3.27-3.74c-5.17-5.66-7.31-13.55-12.34-19.33c-1.18-1.36-3.79-4.12-2.42-6.06
			c1.16-1.63,5.33-1.91,7.1-2.35C226.23,948.36,232.08,947.03,237.96,945.82z"/>
		<path class="st3" d="M93.84,963.58c18.25-0.99,36.36-3.75,54.43-6.5c19.13-2.91,38.26-5.83,57.39-8.74
			c2.7-0.41,5.54-0.81,8.12,0.07c1.8,0.62,3.34,1.82,4.76,3.1c21.31,19.17,19,53.13,32.16,78.59c-6.25,5.44-14.2,8.48-22.13,10.86
			c-29.46,8.84-60.81,9.87-90.36,18.44c-33.88,9.82-67.35,29.66-101.98,22.91c-1.77-0.34-3.59-0.79-4.99-1.93
			c-1.39-1.13-2.19-2.82-2.94-4.45c-12.75-28.08-26.7-66.03-24.64-97.47c1.01-15.4,26-13.18,38.5-13.77
			C59.37,963.86,76.62,964.51,93.84,963.58z"/>
		<g>
			<g>
				<g>
					<path d="M233.41,941.14c-6.14,3.29-13.17,4.29-19.98,5.31c-7.67,1.14-15.34,2.25-23.02,3.31c-15.3,2.12-30.62,4.07-45.97,5.87
						c-30.72,3.59-61.51,6.55-92.35,8.86c-17.35,1.3-34.72,2.4-52.1,3.3c-3.2,0.17-3.22,5.16,0,4.99
						c31.3-1.62,62.56-3.89,93.76-6.82c31.1-2.92,62.13-6.5,93.08-10.72c8.66-1.18,17.32-2.41,25.97-3.69
						c7.92-1.17,15.97-2.26,23.13-6.1C238.77,943.93,236.25,939.62,233.41,941.14L233.41,941.14z"/>
				</g>
			</g>
			<g>
				<g>
					<path d="M334.38,839.79c4.48,1.14,9.32,2.31,12.71,5.66c1.34,1.33,2.36,2.92,2.78,4.77c0.53,2.33-0.14,4.77-0.99,6.94
						c-0.9,2.3-2.14,4.47-3.31,6.64c-1.26,2.33-2.54,4.64-3.86,6.94c-2.63,4.59-5.37,9.12-8.23,13.58c-3.19,4.98-6.53,9.86-10,14.66
						c-0.79,1.09-0.19,2.78,0.9,3.42c1.26,0.74,2.62,0.2,3.42-0.9c6.66-9.21,12.83-18.76,18.46-28.64
						c2.79-4.88,5.91-9.88,7.75-15.22c1.82-5.28,1.07-10.64-2.62-14.89c-3.97-4.58-10.03-6.33-15.68-7.77
						C332.59,834.18,331.26,839,334.38,839.79L334.38,839.79z"/>
				</g>
			</g>
			<g>
				<g>
					<path d="M236.38,944.33c11.3,16.5,19.96,34.71,25.59,53.9c2.8,9.53,4.89,19.3,6.13,29.16c0.08,0.66,0.54,2.24,0.2,2.84
						c0.19-0.34-0.01-0.06-0.3,0.01c-0.68,0.16-1.35,0.31-2.03,0.44c-2.78,0.55-5.56,1.1-8.33,1.65c-5.72,1.13-11.44,2.27-17.16,3.4
						c-22.47,4.45-44.94,8.91-67.41,13.36c-22.47,4.45-44.94,8.91-67.41,13.36c-22.55,4.47-45.1,8.94-67.65,13.41
						c-1.3,0.26-2.61,0.59-3.92,0.78c-0.34,0.05-0.68,0.11-1.08,0.06c-0.07-0.01-0.2-0.07-0.25-0.05c-0.05-0.01-0.09-0.03-0.14-0.04
						c0.32,0.1,0.51,0.31,0.58,0.63c-0.51-1.25-1.66-2.13-3.07-1.74c-1.18,0.32-2.26,1.82-1.74,3.07c1,2.44,3.2,3.35,5.75,3.08
						c2.89-0.31,5.78-1.08,8.64-1.65c5.8-1.15,11.6-2.3,17.4-3.45c11.68-2.32,23.37-4.63,35.05-6.95
						c23.37-4.63,46.73-9.26,70.1-13.9c23.37-4.63,46.73-9.26,70.1-13.9c5.8-1.15,11.6-2.3,17.4-3.45c2.86-0.57,5.72-1.13,8.58-1.7
						c1.47-0.29,2.94-0.58,4.41-0.87c1.27-0.25,2.62-0.41,3.84-0.85c2.81-1.01,3.9-3.4,3.59-6.26c-0.29-2.67-0.69-5.34-1.11-8
						c-0.81-5.09-1.83-10.15-3.05-15.16c-4.93-20.23-13.14-39.72-24.22-57.34c-1.35-2.15-2.75-4.27-4.19-6.37
						c-0.76-1.11-2.19-1.61-3.42-0.9C236.17,941.55,235.61,943.21,236.38,944.33L236.38,944.33z"/>
				</g>
			</g>
			<g>
				<g>
					<path d="M208.96,949.48c7.13,10.54,13.3,21.68,19.15,32.97c2.88,5.56,5.77,11.12,8.5,16.75c1.32,2.71,2.51,5.49,3.29,8.41
						c0.65,2.44,1,4.94,1.33,7.44c0.81,6.11,1.7,12.14,5.7,17.07c0.85,1.05,2.65,0.88,3.53,0c1.04-1.04,0.85-2.48,0-3.53
						c-3.03-3.74-3.63-8.93-4.23-13.54c-0.35-2.66-0.68-5.33-1.3-7.95c-0.72-3.03-1.91-5.93-3.21-8.75
						c-2.61-5.67-5.57-11.2-8.43-16.74c-2.88-5.58-5.82-11.14-8.91-16.61c-3.47-6.15-7.14-12.18-11.1-18.03
						C211.48,944.31,207.15,946.81,208.96,949.48L208.96,949.48z"/>
				</g>
			</g>
			<g>
				<g>
					<path d="M330.88,835.42c-8.25,17.56-16.67,35.54-29.29,50.48c-6.01,7.11-12.91,13.2-20.66,18.35
						c-7.33,4.87-15.05,9.13-22.22,14.24c-7.86,5.59-15.1,12.3-19.31,21.13c-0.58,1.22-0.34,2.7,0.9,3.42
						c1.09,0.64,2.83,0.33,3.42-0.9c7.51-15.75,24.3-23.54,38.22-32.58c7.87-5.11,15.1-10.98,21.35-18.01
						c6.55-7.35,12.08-15.56,16.99-24.08c5.5-9.57,10.23-19.54,14.92-29.52c0.57-1.22,0.34-2.69-0.9-3.42
						C333.21,833.89,331.45,834.19,330.88,835.42L330.88,835.42z"/>
				</g>
			</g>
			<g>
				<g>
					<path d="M331.9,900.88c22.59-2.54,45.18-5.07,67.77-7.61s45.18-5.07,67.77-7.61c2.37-0.27,4.77-0.67,7.16-0.67
						c1.43,0,3.29,0.11,4.17,1.18c1.06,1.27,0.1,3.29-0.7,4.54c-1.06,1.65-2.56,3.1-4.16,4.24c-3.54,2.53-7.61,4.1-11.68,5.55
						c-5.21,1.85-10.44,3.61-15.7,5.29c-10.37,3.31-20.84,6.31-31.4,8.97c-10.62,2.68-21.32,4.89-32.06,7.05
						c-2.34,0.47-4.55,1.5-5.71,3.71c-1.02,1.94-1.05,4.27-0.5,6.36c0.6,2.24,1.98,4.08,3.44,5.84c1.3,1.56,2.76,3.08,3.46,5.02
						c1.33,3.7,0.11,7.8-1.97,10.97c-2.44,3.71-6.44,6.15-10.35,8.07c-2.07,1.01-4.19,1.89-6.32,2.76
						c-1.13,0.46-2.31,1.71-1.74,3.07c1.98,4.82-0.55,10.05-4.43,13.12c-4.75,3.76-11.2,4.76-16.99,5.79
						c-2.16,0.39-2.37,3.57-0.6,4.56c3.3,1.85,3.71,6.47,2.22,9.87c-2.02,4.58-7.33,7.04-11.78,8.64
						c-12.08,4.36-24.94,6.82-37.74,7.55c-7.46,0.42-14.94,0.24-22.38-0.52c-1.34-0.14-2.5,1.25-2.5,2.5c0,1.46,1.15,2.36,2.5,2.5
						c14.47,1.48,29.14,0.7,43.39-2.22c6.72-1.38,13.51-3.12,19.89-5.68c5.56-2.23,11.15-5.59,13.44-11.43
						c2.12-5.42,0.86-12.51-4.51-15.52c-0.2,1.52-0.4,3.04-0.6,4.56c6.94-1.24,14.32-2.71,19.75-7.55
						c4.72-4.21,7.68-11.37,5.16-17.51c-0.58,1.02-1.16,2.05-1.74,3.07c8.95-3.65,18.63-8.02,21.95-17.91
						c1.47-4.39,1.19-9.4-1.42-13.32c-1.77-2.64-6.78-6.5-5.29-10.12c0.63-1.53,3.74-1.58,5.24-1.87c2.75-0.53,5.5-1.08,8.24-1.65
						c5.49-1.15,10.95-2.38,16.4-3.7c10.97-2.66,21.85-5.67,32.63-9.03c5.43-1.69,10.83-3.47,16.2-5.34
						c4.56-1.59,9.23-3.13,13.45-5.52c4.04-2.28,7.97-5.6,9.71-10.02c1.86-4.72-0.63-9.52-5.61-10.56
						c-2.17-0.45-4.35-0.35-6.54-0.11c-2.9,0.32-5.79,0.65-8.69,0.98c-5.79,0.65-11.58,1.3-17.38,1.95
						c-11.67,1.31-23.33,2.62-35,3.93c-23.25,2.61-46.5,5.22-69.75,7.84c-2.9,0.33-5.79,0.65-8.69,0.98c-1.34,0.15-2.5,1.04-2.5,2.5
						C329.4,899.62,330.55,901.03,331.9,900.88L331.9,900.88z"/>
				</g>
			</g>
		</g>
	</g>
	<g>
		<path class="st2" d="M1173.38,202.25c-7.15-2.32-15.34-5.53-21.69-1.51c-1.72,5.65-3.33,12.21-0.03,17.11
			c2.61,3.87,7.47,5.41,11.96,6.68c21.26,6.02,42.71,11.89,64.71,13.84c22.01,1.95,44.81-0.22,64.78-9.68
			c2.33-1.1,4.72-2.4,6.08-4.58c1.27-2.03,1.46-4.52,1.62-6.91c0.38-5.73,0.66-11.89-2.39-16.75c-4.51-7.17-14.63-8.6-22.85-6.57
			c-9.21,2.27-17.32,7.59-26.59,9.74c-7.85,1.81-16.25,2.5-24.27,3.26C1207.89,208.52,1189.48,207.48,1173.38,202.25z"/>
		<path class="st2" d="M1194.33,244.26c-6.61,6.13-13.88,11.5-20.96,17.08c-27.21,21.47-51.71,46.15-76.13,70.75
			c-0.81,0.81-1.63,1.64-2.12,2.68c-1.44,3.02,0.57,6.82,3.55,8.35s6.54,1.3,9.83,0.66c16.1-3.16,28.87-14.9,41.86-24.91
			c12.75-9.81,26.49-18.33,40.95-25.37c0.99-0.48,2.13-0.97,3.16-0.59c0.83,0.3,1.37,1.09,1.86,1.83c2.73,4.17,5.46,8.33,8.18,12.5
			c1.03,1.58,2.15,3.23,3.87,4.01c1.44,0.66,3.1,0.59,4.68,0.46c7.37-0.62,14.63-2.49,21.38-5.5c-0.53,4.07,3.96,7.33,8.07,7.24
			c4.11-0.09,7.78-2.4,11.35-4.43s7.62-3.92,11.64-3.06c-3.21,3.15-0.3,9.18,4.03,10.41c4.33,1.23,8.87-0.72,12.86-2.8
			c17.57-9.16,33.3-21.83,46-37.05c1.77-2.12,3.57-4.58,3.36-7.33c-0.13-1.65-0.99-3.15-1.81-4.59
			c-9.79-17.01-18.34-34.72-25.58-52.96c-0.6-1.52-1.27-3.14-2.6-4.09c-1.43-1.02-3.3-1.06-5.05-1.03
			C1260.33,207.04,1221.21,219.35,1194.33,244.26z"/>
		<path class="st4" d="M1301.03,196.79c-0.46,0.35-0.94,0.72-1.18,1.24c-0.33,0.69-0.19,1.51-0.04,2.26
			c1.98,9.67,5.53,19.01,10.46,27.56c3.76,6.52,8.38,12.71,10.46,19.95c0.63,2.18,1.03,4.49,2.29,6.39c1.64,2.47,4.44,3.85,6.75,5.7
			c4.32,3.47,6.91,8.63,10.67,12.71c1.71,1.86,3.84,3.57,6.36,3.83c1.69,0.17,3.38-0.34,4.91-1.07c4.86-2.31,8.54-7.02,9.46-12.32
			c0.31-1.81,0.29-3.78-0.64-5.37c-0.81-1.4-2.22-2.34-3.46-3.38c-3.02-2.54-5.21-5.9-7.34-9.22c-5.44-8.5-10.7-17.12-15.78-25.83
			c-0.75-1.28-1.49-2.58-1.9-4c-0.46-1.59-0.47-3.28-0.65-4.93c-0.85-7.62-5.36-14.43-6.38-22.03c-0.24-1.78-0.59-5.57-2.96-5.81
			c-1.99-0.21-4.95,2.75-6.45,3.78C1310.67,189.66,1305.81,193.17,1301.03,196.79z"/>
		<path class="st3" d="M1409.46,100.2c-12.79,13.06-26.8,24.85-40.79,36.61c-14.81,12.45-29.62,24.9-44.43,37.35
			c-2.09,1.76-4.26,3.62-5.3,6.15c-0.72,1.76-0.84,3.72-0.81,5.62c0.35,28.66,27.39,49.33,37.84,76.02
			c8.21-1.11,15.74-5.07,22.77-9.46c26.08-16.31,47.54-39.18,73.47-55.74c29.74-18.98,66.73-31.04,84.5-61.52
			c0.91-1.56,1.78-3.22,1.84-5.02c0.07-1.79-0.67-3.51-1.41-5.15c-12.69-28.11-32-63.63-56.98-82.82
			c-12.24-9.4-27.06,10.84-35.76,19.85C1432.41,74.49,1421.52,87.88,1409.46,100.2z"/>
		<g>
			<g>
				<g>
					<path d="M1301.96,195.06c6.89-2.58,12.58-7.13,18.14-11.83c5.95-5.02,11.86-10.08,17.75-15.17
						c11.8-10.19,23.49-20.51,35.08-30.94c23.17-20.87,45.9-42.23,68.17-64.06c12.5-12.25,24.86-24.65,37.07-37.19
						c2.24-2.3-1.28-5.84-3.53-3.53c-21.65,22.23-43.75,44.01-66.3,65.32c-22.44,21.2-45.31,41.93-68.61,62.18
						c-6.48,5.64-13,11.24-19.55,16.8c-6,5.09-12.06,10.8-19.55,13.61c-1.26,0.47-2.12,1.69-1.74,3.07
						C1299.22,194.53,1300.69,195.54,1301.96,195.06L1301.96,195.06z"/>
				</g>
			</g>
			<g>
				<g>
					<path d="M1153.33,196.94c-2.48,4.87-5.02,10.08-4.72,15.69c0.28,5.25,2.94,9.75,7.61,12.25c4.56,2.45,9.96,3.32,14.96,4.4
						c5.8,1.26,11.63,2.35,17.49,3.27c6.72,1.06,13.48,1.91,20.25,2.55c1.34,0.13,2.5-1.24,2.5-2.5c0-1.46-1.15-2.37-2.5-2.5
						c-10.78-1.02-21.5-2.6-32.12-4.74c-4.94-1-10-1.93-14.81-3.46c-3.86-1.23-7.22-3.36-8.16-7.54c-1.17-5.21,1.51-10.39,3.8-14.89
						C1159.1,196.6,1154.79,194.07,1153.33,196.94L1153.33,196.94z"/>
				</g>
			</g>
			<g>
				<g>
					<path d="M1296.17,196.07c5.02,19.7,13.18,38.63,24.05,55.82c5.43,8.59,11.55,16.77,18.26,24.4c1.75,1.99,3.63,4.37,6.61,3.85
						c1.34-0.23,2.4-0.96,3.46-1.77c1.19-0.91,2.38-1.83,3.57-2.74c4.76-3.65,9.52-7.3,14.27-10.95
						c18.96-14.55,37.93-29.11,56.89-43.66c18.96-14.55,37.93-29.11,56.89-43.66c9.45-7.25,18.9-14.5,28.35-21.76
						c9.48-7.27,19.14-14.37,28.46-21.84c2.12-1.7,3.4-4.14,2.14-6.76c-0.58-1.22-2.32-1.54-3.42-0.9c-1.24,0.73-1.48,2.2-0.9,3.42
						c-0.48-1.01,0.3-0.74-0.28-0.29c-0.41,0.32-0.76,0.74-1.17,1.06c-1.18,0.93-2.38,1.83-3.57,2.74
						c-2.31,1.77-4.63,3.55-6.94,5.32c-4.56,3.5-9.12,7-13.68,10.5c-9.12,7-18.24,14-27.36,20.99
						c-18.3,14.05-36.61,28.09-54.91,42.14c-18.24,14-36.47,27.99-54.71,41.99c-4.63,3.55-9.25,7.1-13.88,10.65
						c-2.25,1.72-4.49,3.45-6.74,5.17c-2.23,1.71-4.4,3.66-6.77,5.15c-0.18,0.11-0.38,0.3-0.59,0.31c-0.25,0.01,0.25,0.04,0.1-0.04
						c-0.35-0.2-0.63-0.59-0.9-0.88c-0.86-0.94-1.69-1.9-2.52-2.86c-1.57-1.82-3.1-3.67-4.6-5.54c-2.99-3.75-5.83-7.63-8.52-11.61
						c-10.93-16.15-19.37-33.94-24.89-52.64c-0.68-2.3-1.31-4.62-1.91-6.95C1300.19,191.63,1295.37,192.95,1296.17,196.07
						L1296.17,196.07z"/>
				</g>
			</g>
			<g>
				<g>
					<path d="M1318.13,178.86c3.27,12.53,7.67,24.73,12.39,36.78c2.31,5.92,4.62,11.85,7.11,17.69c1.16,2.74,2.44,5.44,4.06,7.94
						c1.44,2.21,3.14,4.25,4.87,6.24c3.56,4.1,7.54,8.2,8.49,13.76c0.23,1.33,1.86,2.08,3.07,1.74c1.41-0.39,1.97-1.74,1.74-3.07
						c-0.88-5.16-4.08-9.39-7.41-13.26c-1.68-1.96-3.45-3.85-5.02-5.9c-1.68-2.2-3.04-4.62-4.22-7.12c-2.63-5.56-4.74-11.41-7-17.13
						c-2.35-5.95-4.63-11.92-6.76-17.96c-2.44-6.93-4.65-13.94-6.51-21.05C1322.14,174.43,1317.32,175.74,1318.13,178.86
						L1318.13,178.86z"/>
				</g>
			</g>
			<g>
				<g>
					<path d="M1155.62,198.64c18.47,5.34,37.27,10.67,56.6,11.37c9.37,0.34,18.72-0.58,27.82-2.84c8.72-2.17,17.18-5.24,25.88-7.47
						c9.28-2.38,18.97-3.7,28.34-1.06c3.1,0.87,4.42-3.94,1.33-4.82c-17.6-4.96-35.16,2.45-51.91,7.2
						c-8.85,2.51-17.75,4.02-26.96,4.06c-9.5,0.04-18.94-1.2-28.24-3.1c-10.65-2.17-21.11-5.15-31.54-8.17
						C1153.85,192.93,1152.53,197.74,1155.62,198.64L1155.62,198.64z"/>
				</g>
			</g>
			<g>
				<g>
					<path d="M1201.64,234.32c-17.12,15.58-34.24,31.16-51.35,46.74s-34.24,31.16-51.35,46.74c-3.6,3.28-8.41,7.86-5.95,13.22
						c2.06,4.49,7.93,5.31,12.29,4.84c5.3-0.58,10.16-2.81,14.79-5.33c4.76-2.59,9.44-5.32,14.1-8.09
						c18.63-11.09,36.55-23.34,53.69-36.62c1.17-0.91,3.29-3.29,4.95-2.77c1.69,0.53,2.54,2.55,2.92,4.12
						c0.61,2.5,0.63,5.12,1.53,7.55c0.75,2.03,1.91,3.87,3.47,5.38c3.09,2.98,7.23,4.56,11.45,5.01c4.99,0.53,10.01-0.93,14.56-2.84
						c2.41-1.01,4.76-2.16,7.1-3.32c-1.14-0.3-2.28-0.6-3.42-0.9c2.87,5.81,9.89,8.45,16.08,7.83c7.65-0.77,13.84-5.6,19.65-10.23
						c-1.39-0.81-2.78-1.62-4.17-2.43c-1.33,6.36,3.27,11.94,9.06,13.98c6.62,2.33,13.85-0.83,19.56-4.08
						c11.39-6.49,21.89-14.7,31.04-24.08c5.25-5.37,10.04-11.17,14.4-17.28c0.78-1.1,0.19-2.78-0.9-3.42
						c-1.25-0.73-2.63-0.21-3.42,0.9c-6.87,9.65-15.02,18.39-24.11,25.99c-4.47,3.73-9.18,7.16-14.08,10.29
						c-4.87,3.1-10.39,6.9-16.31,7.39c-2.82,0.24-5.59-0.34-7.78-2.23c-1.76-1.51-3.15-3.73-2.65-6.13
						c0.54-2.57-2.24-3.97-4.17-2.43c-4.61,3.68-9.74,7.87-15.78,8.73c-4.62,0.66-9.93-0.93-12.1-5.32
						c-0.62-1.26-2.28-1.46-3.42-0.9c-7.47,3.73-16.81,8.29-24.88,3.56c-1.4-0.82-2.68-1.91-3.56-3.29
						c-1.2-1.88-1.48-4.06-1.81-6.23c-0.66-4.39-2.54-9.68-7.57-10.57c-2.66-0.47-4.77,0.78-6.79,2.35
						c-2.03,1.58-4.07,3.16-6.12,4.72c-4.15,3.15-8.35,6.24-12.59,9.26c-8.55,6.09-17.28,11.93-26.18,17.5
						c-4.42,2.77-8.87,5.47-13.37,8.1c-4.5,2.64-9.01,5.34-13.68,7.66c-4.11,2.05-8.97,3.93-13.65,3.18
						c-1.32-0.21-3.18-0.72-3.67-2.13c-0.62-1.78,1.27-3.76,2.39-4.91c3.85-3.95,8.19-7.52,12.27-11.23
						c4.13-3.76,8.25-7.51,12.38-11.27c8.31-7.57,16.63-15.13,24.94-22.7c16.56-15.08,33.13-30.15,49.69-45.23
						c2.03-1.85,4.06-3.7,6.1-5.55C1207.55,235.68,1204.01,232.16,1201.64,234.32L1201.64,234.32z"/>
				</g>
			</g>
		</g>
	</g>
	<g>
		<path class="st2" d="M639.52,171.69c7.15-2.32,15.34-5.53,21.69-1.51c1.72,5.65,3.33,12.21,0.03,17.11
			c-2.61,3.87-7.47,5.41-11.96,6.68c-21.26,6.02-42.71,11.89-64.71,13.84s-44.81-0.22-64.78-9.68c-2.33-1.1-4.72-2.4-6.08-4.58
			c-1.27-2.03-1.46-4.52-1.62-6.91c-0.38-5.73-0.66-11.89,2.39-16.75c4.51-7.17,14.63-8.6,22.85-6.57
			c9.21,2.27,17.32,7.59,26.59,9.74c7.85,1.81,16.25,2.5,24.27,3.26C605.01,177.95,623.42,176.91,639.52,171.69z"/>
		<path class="st2" d="M618.56,213.69c6.61,6.13,13.88,11.5,20.96,17.08c27.21,21.47,51.71,46.15,76.13,70.75
			c0.81,0.81,1.63,1.64,2.12,2.68c1.44,3.02-0.57,6.82-3.55,8.35c-2.98,1.53-6.54,1.3-9.83,0.66c-16.1-3.16-28.87-14.9-41.86-24.91
			c-12.75-9.81-26.49-18.33-40.95-25.37c-0.99-0.48-2.13-0.97-3.16-0.59c-0.83,0.3-1.37,1.09-1.86,1.83
			c-2.73,4.17-5.46,8.33-8.18,12.5c-1.03,1.58-2.15,3.23-3.87,4.01c-1.44,0.66-3.1,0.59-4.68,0.46c-7.37-0.62-14.63-2.49-21.38-5.5
			c0.53,4.07-3.96,7.33-8.07,7.24c-4.11-0.09-7.78-2.4-11.35-4.43s-7.62-3.92-11.64-3.06c3.21,3.15,0.3,9.18-4.03,10.41
			c-4.33,1.23-8.87-0.72-12.86-2.8c-17.57-9.16-33.3-21.83-46-37.05c-1.77-2.12-3.57-4.58-3.36-7.33c0.13-1.65,0.99-3.15,1.81-4.59
			c9.79-17.01,18.34-34.72,25.58-52.96c0.6-1.52,1.27-3.14,2.6-4.09c1.43-1.02,3.3-1.06,5.05-1.03
			C552.56,176.48,591.68,188.79,618.56,213.69z"/>
		<path class="st4" d="M511.87,166.22c0.46,0.35,0.94,0.72,1.18,1.24c0.33,0.69,0.19,1.51,0.04,2.26
			c-1.98,9.67-5.53,19.01-10.46,27.56c-3.76,6.52-8.38,12.71-10.46,19.95c-0.63,2.18-1.03,4.49-2.29,6.39
			c-1.64,2.47-4.44,3.85-6.75,5.7c-4.32,3.47-6.91,8.63-10.67,12.71c-1.71,1.86-3.84,3.57-6.36,3.83c-1.69,0.17-3.38-0.34-4.91-1.07
			c-4.86-2.31-8.54-7.02-9.46-12.32c-0.31-1.81-0.29-3.78,0.64-5.37c0.81-1.4,2.22-2.34,3.46-3.38c3.02-2.54,5.21-5.9,7.34-9.22
			c5.44-8.5,10.7-17.12,15.78-25.83c0.75-1.28,1.49-2.58,1.9-4c0.46-1.59,0.47-3.28,0.65-4.93c0.85-7.62,5.36-14.43,6.38-22.03
			c0.24-1.78,0.59-5.57,2.96-5.81c1.99-0.21,4.95,2.75,6.45,3.78C502.22,159.09,507.08,162.61,511.87,166.22z"/>
		<path class="st3" d="M403.44,69.63c12.79,13.06,26.8,24.85,40.79,36.61c14.81,12.45,29.62,24.9,44.43,37.35
			c2.09,1.76,4.26,3.62,5.3,6.15c0.72,1.76,0.84,3.72,0.81,5.62c-0.35,28.66-27.39,49.33-37.84,76.02
			c-8.21-1.11-15.74-5.07-22.77-9.46c-26.08-16.31-47.54-39.18-73.47-55.74c-29.74-18.98-66.73-31.04-84.5-61.52
			c-0.91-1.56-1.78-3.22-1.84-5.02c-0.07-1.79,0.67-3.51,1.41-5.15c12.69-28.11,32-63.63,56.98-82.82
			c12.24-9.4,27.06,10.84,35.76,19.85C380.48,43.93,391.38,57.32,403.44,69.63z"/>
		<g>
			<g>
				<g>
					<path d="M512.26,159.68c-6.61-2.47-12.05-7.25-17.37-11.75c-5.95-5.04-11.87-10.11-17.77-15.21
						c-11.67-10.1-23.24-20.32-34.7-30.65c-22.92-20.67-45.41-41.83-67.45-63.43C362.6,26.49,350.35,14.2,338.25,1.78
						c-2.25-2.31-5.78,1.23-3.53,3.53c21.76,22.34,43.98,44.23,66.65,65.64c22.67,21.41,45.79,42.35,69.34,62.79
						c6.61,5.74,13.25,11.43,19.93,17.09c6.26,5.3,12.51,10.74,20.3,13.66c1.26,0.47,2.74-0.53,3.07-1.74
						C514.39,161.35,513.53,160.15,512.26,159.68L512.26,159.68z"/>
				</g>
			</g>
			<g>
				<g>
					<path d="M655.25,168.89c2.12,4.16,4.34,8.57,4.02,13.37c-0.28,4.19-2.98,7.01-6.76,8.5c-4.53,1.79-9.54,2.6-14.29,3.59
						c-5.33,1.11-10.69,2.09-16.07,2.93c-6.04,0.94-12.11,1.68-18.2,2.26c-1.34,0.13-2.5,1.06-2.5,2.5c0,1.25,1.15,2.62,2.5,2.5
						c11.95-1.13,23.84-2.9,35.59-5.36c9.28-1.94,22.69-3.53,24.49-15.04c1-6.38-1.66-12.2-4.49-17.76
						C658.1,163.51,653.79,166.03,655.25,168.89L655.25,168.89z"/>
				</g>
			</g>
			<g>
				<g>
					<path d="M511.91,164.17c-4.82,18.91-12.55,36.99-22.87,53.55c-5.16,8.27-10.94,16.15-17.32,23.51
						c-0.74,0.85-1.48,1.71-2.24,2.54c-0.25,0.27-0.54,0.67-0.87,0.86c-0.15,0.09,0.09,0.07,0.14,0.07c-0.27,0-0.63-0.29-0.83-0.43
						c-2.29-1.52-4.42-3.37-6.6-5.04c-4.63-3.55-9.25-7.1-13.88-10.65c-18.24-14-36.47-27.99-54.71-41.99
						c-18.3-14.05-36.61-28.09-54.91-42.14c-18.3-14.05-36.61-28.09-54.91-42.14c-1.06-0.81-2.12-1.62-3.17-2.43
						c-0.43-0.33-0.89-0.66-1.24-1.08c-0.01-0.01-0.27-0.36-0.27-0.36c-0.35-0.18,0.54-0.9-0.13,0.51c0.58-1.22,0.34-2.7-0.9-3.42
						c-1.09-0.64-2.83-0.33-3.42,0.9c-1.26,2.63,0.02,5.06,2.14,6.76c2.37,1.9,4.83,3.71,7.25,5.56c4.76,3.65,9.52,7.3,14.27,10.95
						c9.45,7.25,18.9,14.5,28.35,21.76c18.96,14.55,37.93,29.11,56.89,43.66c18.96,14.55,37.93,29.11,56.89,43.66
						c4.69,3.6,9.38,7.2,14.07,10.8c2.38,1.83,4.76,3.65,7.14,5.48c1.19,0.91,2.38,1.83,3.57,2.74c1.07,0.82,2.11,1.54,3.46,1.77
						c2.98,0.51,4.86-1.86,6.61-3.85c1.68-1.91,3.32-3.85,4.92-5.83c3.24-4.01,6.34-8.14,9.26-12.39
						c11.48-16.69,20.33-35.23,26.11-54.65c0.72-2.44,1.4-4.89,2.03-7.35C517.52,162.38,512.7,161.06,511.91,164.17L511.91,164.17z"
						/>
				</g>
			</g>
			<g>
				<g>
					<path d="M489.95,146.97c-3.27,12.53-7.67,24.73-12.39,36.78c-2.26,5.79-4.47,11.63-6.96,17.32c-1.19,2.73-2.52,5.4-4.21,7.86
						c-1.38,2-3,3.81-4.59,5.63c-3.8,4.34-7.78,8.95-8.78,14.83c-0.23,1.33,0.35,2.69,1.74,3.07c1.2,0.33,2.84-0.41,3.07-1.74
						c0.83-4.85,3.97-8.6,7.12-12.19c1.76-2.01,3.52-4.01,5.1-6.16c1.72-2.34,3.11-4.9,4.31-7.54c2.61-5.73,4.82-11.66,7.13-17.51
						c2.35-5.95,4.63-11.92,6.76-17.96c2.44-6.93,4.65-13.94,6.51-21.05C495.57,145.18,490.76,143.85,489.95,146.97L489.95,146.97z"
						/>
				</g>
			</g>
			<g>
				<g>
					<path d="M655.95,163.25c-18.34,5.3-37.01,10.68-56.22,11.22c-9.25,0.26-18.33-0.78-27.27-3.13
						c-8.68-2.28-17.14-5.35-25.87-7.46c-9.61-2.32-19.64-3.35-29.28-0.63c-3.09,0.87-1.78,5.69,1.33,4.82
						c17.19-4.85,34.62,3.21,50.98,7.68c8.99,2.46,18.17,3.8,27.51,3.76c9.62-0.04,19.21-1.36,28.62-3.28
						c10.65-2.17,21.11-5.15,31.54-8.17C660.36,167.18,659.05,162.36,655.95,163.25L655.95,163.25z"/>
				</g>
			</g>
			<g>
				<g>
					<path d="M607.72,207.28c16.63,15.13,33.25,30.26,49.88,45.4c16.56,15.08,33.13,30.15,49.69,45.23c1.94,1.76,3.98,3.46,5.8,5.35
						c1.14,1.17,2.98,3.1,2.39,4.91c-0.46,1.41-2.39,1.93-3.69,2.14c-2.37,0.37-4.87,0-7.16-0.63c-4.82-1.32-9.18-3.94-13.49-6.38
						c-4.53-2.57-9.03-5.2-13.49-7.9c-17.91-10.85-35.08-22.81-51.61-35.65c-2-1.56-4.17-2.74-6.79-2.2
						c-2.26,0.47-4.07,2.08-5.32,3.96c-2.59,3.87-1.43,8.94-3.89,12.81c-1.91,3.01-5.53,4.63-8.94,5.16
						c-4.4,0.68-8.95-0.68-12.98-2.35c-2.22-0.92-4.37-2-6.52-3.08c-1.14-0.57-2.79-0.38-3.42,0.9c-2.18,4.4-7.48,5.97-12.1,5.32
						c-6.03-0.85-11.18-5.06-15.78-8.73c-1.93-1.54-4.71-0.14-4.17,2.43c0.93,4.43-4.07,8.09-8.01,8.37
						c-6.19,0.44-11.89-3.18-16.95-6.29c-9.98-6.15-19.13-13.57-27.24-22.02c-4.61-4.81-8.88-9.94-12.74-15.37
						c-0.78-1.1-2.18-1.62-3.42-0.9c-1.08,0.63-1.68,2.31-0.9,3.42c7.61,10.69,16.62,20.36,26.85,28.6
						c5.19,4.18,10.65,8.03,16.36,11.46c5.92,3.55,12.59,7.03,19.71,5.9c6.74-1.07,12.61-7.5,11.14-14.5
						c-1.39,0.81-2.78,1.62-4.17,2.43c5.8,4.63,12,9.48,19.65,10.23c6.2,0.61,13.2-2.01,16.08-7.83c-1.14,0.3-2.28,0.6-3.42,0.9
						c8.76,4.37,18.6,8.72,28.25,4.41c3.86-1.72,6.99-4.82,8.39-8.84c0.85-2.44,0.86-5.06,1.5-7.55c0.38-1.49,1.27-3.42,2.87-3.9
						c0.79-0.24,1.43,0.14,2.09,0.58c1.06,0.71,2.04,1.55,3.04,2.33c2.2,1.7,4.41,3.39,6.63,5.06c4.29,3.22,8.63,6.38,13.02,9.47
						c8.84,6.22,17.87,12.17,27.07,17.84c4.64,2.85,9.32,5.64,14.04,8.35c4.6,2.64,9.2,5.39,14.15,7.32
						c4.48,1.75,10.06,2.91,14.74,1.22c2.24-0.81,4.23-2.23,5.16-4.49c1.01-2.45,0.44-5.12-0.92-7.33c-1.35-2.18-3.27-3.89-5.15-5.6
						c-2.22-2.02-4.43-4.04-6.65-6.05c-4.25-3.87-8.5-7.73-12.75-11.6c-8.56-7.79-17.12-15.58-25.68-23.37
						c-17.12-15.58-34.24-31.16-51.35-46.74c-2.09-1.91-4.19-3.81-6.28-5.72C608.88,201.59,605.34,205.11,607.72,207.28
						L607.72,207.28z"/>
				</g>
			</g>
		</g>
	</g>
	<g>
		<path class="st2" d="M471.17,484.31c7.14-2.33,15.34-5.56,21.68-1.54c1.73,5.65,3.35,12.21,0.05,17.11
			c-2.6,3.88-7.46,5.42-11.95,6.7c-21.25,6.05-42.69,11.95-64.69,13.93s-44.81-0.16-64.79-9.59c-2.33-1.1-4.72-2.39-6.09-4.57
			c-1.27-2.03-1.47-4.52-1.63-6.91c-0.39-5.73-0.68-11.89,2.37-16.75c4.5-7.18,14.61-8.62,22.84-6.6c9.22,2.26,17.33,7.57,26.61,9.7
			c7.85,1.8,16.25,2.47,24.28,3.23C436.67,490.62,455.08,489.56,471.17,484.31z"/>
		<path class="st2" d="M450.28,526.34c6.62,6.12,13.9,11.48,20.98,17.05c27.24,21.43,51.77,46.07,76.23,70.64
			c0.81,0.81,1.63,1.64,2.12,2.67c1.44,3.02-0.56,6.82-3.54,8.35c-2.98,1.53-6.54,1.31-9.83,0.67c-16.1-3.13-28.89-14.86-41.9-24.85
			c-12.76-9.79-26.52-18.29-40.99-25.31c-0.99-0.48-2.13-0.97-3.16-0.58c-0.83,0.31-1.37,1.09-1.85,1.83
			c-2.72,4.17-5.44,8.34-8.17,12.51c-1.03,1.58-2.15,3.23-3.86,4.01c-1.44,0.66-3.1,0.6-4.68,0.47c-7.37-0.61-14.63-2.47-21.39-5.47
			c0.53,4.07-3.95,7.34-8.06,7.26c-4.11-0.08-7.78-2.39-11.35-4.42c-3.57-2.03-7.63-3.91-11.64-3.05c3.22,3.14,0.31,9.18-4.02,10.41
			s-8.87-0.71-12.87-2.79c-17.58-9.14-33.33-21.79-46.05-36.99c-1.77-2.12-3.58-4.58-3.37-7.33c0.13-1.65,0.98-3.15,1.81-4.59
			c9.76-17.02,18.29-34.75,25.5-53c0.6-1.52,1.26-3.14,2.6-4.09c1.42-1.02,3.3-1.06,5.05-1.04
			C384.23,489.22,423.36,501.48,450.28,526.34z"/>
		<path class="st4" d="M343.51,479.03c0.46,0.35,0.94,0.71,1.19,1.23c0.33,0.69,0.19,1.51,0.04,2.26
			c-1.97,9.67-5.5,19.02-10.42,27.57c-3.75,6.53-8.36,12.72-10.43,19.96c-0.62,2.18-1.03,4.49-2.28,6.39
			c-1.63,2.47-4.44,3.85-6.75,5.71c-4.32,3.48-6.9,8.64-10.65,12.72c-1.71,1.86-3.83,3.58-6.35,3.84c-1.69,0.17-3.38-0.34-4.91-1.06
			c-4.86-2.3-8.55-7-9.48-12.3c-0.32-1.81-0.29-3.78,0.63-5.37c0.81-1.4,2.21-2.34,3.45-3.39c3.01-2.54,5.2-5.9,7.32-9.23
			c5.42-8.51,10.67-17.13,15.74-25.86c0.74-1.28,1.49-2.58,1.9-4c0.46-1.59,0.46-3.28,0.64-4.93c0.84-7.62,5.34-14.44,6.35-22.03
			c0.24-1.78,0.59-5.57,2.95-5.82c1.99-0.21,4.95,2.74,6.46,3.77C333.86,471.91,338.72,475.42,343.51,479.03z"/>
		<path class="st3" d="M234.95,382.59c12.8,13.05,26.84,24.81,40.84,36.55c14.83,12.43,29.66,24.86,44.49,37.29
			c2.1,1.76,4.27,3.62,5.31,6.15c0.73,1.76,0.84,3.71,0.82,5.62c-0.31,28.66-27.32,49.36-37.73,76.07
			c-8.21-1.1-15.75-5.05-22.78-9.43c-26.11-16.27-47.59-39.12-73.55-55.63c-29.76-18.94-66.77-30.95-84.59-61.4
			c-0.91-1.56-1.78-3.22-1.85-5.02c-0.07-1.79,0.67-3.51,1.4-5.15c12.65-28.13,31.91-63.68,56.87-82.9
			c12.22-9.42,27.07,10.8,35.78,19.8C211.96,356.92,222.87,370.29,234.95,382.59z"/>
		<g>
			<g>
				<g>
					<path d="M343.9,472.48c-6.62-2.47-12.06-7.23-17.38-11.73c-5.96-5.03-11.89-10.09-17.79-15.18
						c-11.69-10.08-23.27-20.28-34.74-30.6c-22.95-20.64-45.47-41.76-67.54-63.34c-12.4-12.12-24.66-24.39-36.78-36.8
						c-2.25-2.3-5.78,1.23-3.53,3.53c21.79,22.31,44.04,44.17,66.74,65.55c22.7,21.38,45.85,42.29,69.43,62.7
						c6.62,5.73,13.27,11.42,19.95,17.06c6.26,5.29,12.53,10.73,20.32,13.63c1.26,0.47,2.74-0.53,3.07-1.74
						C346.03,474.16,345.17,472.96,343.9,472.48L343.9,472.48z"/>
				</g>
			</g>
			<g>
				<g>
					<path d="M486.9,481.49c2.13,4.16,4.36,8.56,4.05,13.37c-0.27,4.19-2.97,7.01-6.74,8.51c-4.52,1.79-9.54,2.61-14.28,3.61
						c-5.33,1.12-10.68,2.11-16.06,2.95c-6.04,0.95-12.11,1.7-18.2,2.28c-1.34,0.13-2.5,1.06-2.5,2.5c0,1.25,1.15,2.63,2.5,2.5
						c11.95-1.15,23.84-2.94,35.59-5.41c9.27-1.95,22.68-3.56,24.47-15.07c0.99-6.38-1.68-12.2-4.51-17.75
						C489.75,476.11,485.44,478.63,486.9,481.49L486.9,481.49z"/>
				</g>
			</g>
			<g>
				<g>
					<path d="M343.55,476.97c-4.79,18.91-12.5,37-22.79,53.58c-5.14,8.28-10.91,16.16-17.28,23.54c-0.74,0.85-1.48,1.71-2.24,2.54
						c-0.25,0.27-0.54,0.67-0.87,0.86c-0.15,0.09,0.09,0.08,0.14,0.08c-0.27,0-0.63-0.29-0.84-0.43c-2.29-1.52-4.42-3.36-6.61-5.03
						c-4.63-3.54-9.26-7.09-13.89-10.63c-18.26-13.97-36.51-27.94-54.77-41.91c-18.32-14.02-36.65-28.04-54.97-42.06
						c-18.32-14.02-36.65-28.04-54.97-42.06c-1.06-0.81-2.12-1.62-3.18-2.43c-0.43-0.33-0.89-0.66-1.24-1.08
						c-0.01-0.01-0.27-0.36-0.27-0.36c-0.35-0.18,0.54-0.91-0.14,0.51c0.58-1.22,0.34-2.7-0.9-3.42c-1.09-0.64-2.83-0.33-3.42,0.9
						c-1.25,2.63,0.02,5.06,2.15,6.76c2.38,1.9,4.84,3.7,7.25,5.55c4.76,3.64,9.53,7.29,14.29,10.93
						c9.46,7.24,18.92,14.48,28.38,21.72c18.98,14.53,37.97,29.05,56.95,43.58s37.97,29.05,56.95,43.58
						c4.7,3.59,9.39,7.19,14.09,10.78c2.38,1.82,4.76,3.64,7.14,5.47c1.19,0.91,2.38,1.82,3.57,2.73c1.07,0.81,2.11,1.53,3.46,1.77
						c2.98,0.51,4.86-1.86,6.61-3.86c1.67-1.91,3.31-3.86,4.91-5.84c3.24-4.01,6.33-8.15,9.24-12.4
						c11.46-16.71,20.28-35.26,26.03-54.69c0.72-2.44,1.39-4.89,2.02-7.36C349.16,475.18,344.35,473.85,343.55,476.97L343.55,476.97
						z"/>
				</g>
			</g>
			<g>
				<g>
					<path d="M321.57,459.8c-3.25,12.54-7.64,24.74-12.34,36.8c-2.26,5.79-4.46,11.63-6.93,17.33c-1.18,2.73-2.51,5.41-4.2,7.86
						c-1.37,2-2.99,3.81-4.58,5.64c-3.79,4.34-7.76,8.96-8.76,14.84c-0.22,1.33,0.35,2.69,1.74,3.07c1.2,0.33,2.85-0.41,3.07-1.74
						c0.82-4.85,3.96-8.6,7.1-12.2c1.75-2.01,3.51-4.02,5.09-6.17c1.72-2.34,3.1-4.9,4.3-7.55c2.6-5.73,4.8-11.66,7.1-17.52
						c2.34-5.95,4.62-11.93,6.73-17.97c2.43-6.94,4.63-13.95,6.48-21.06C327.19,458.01,322.37,456.68,321.57,459.8L321.57,459.8z"/>
				</g>
			</g>
			<g>
				<g>
					<path d="M487.59,475.85c-18.33,5.33-37,10.74-56.21,11.3c-9.25,0.27-18.33-0.76-27.28-3.09c-8.69-2.27-17.15-5.33-25.88-7.42
						c-9.61-2.31-19.64-3.32-29.28-0.59c-3.09,0.87-1.78,5.7,1.33,4.82c17.19-4.87,34.62,3.16,51,7.61c9,2.44,18.18,3.78,27.51,3.72
						c9.62-0.06,19.21-1.38,28.62-3.32c10.64-2.19,21.1-5.18,31.53-8.21C492,479.77,490.69,474.95,487.59,475.85L487.59,475.85z"/>
				</g>
			</g>
			<g>
				<g>
					<path d="M439.43,519.95c16.65,15.11,33.29,30.22,49.94,45.33c16.59,15.05,33.17,30.11,49.76,45.16
						c1.94,1.76,3.98,3.46,5.81,5.34c1.14,1.17,2.98,3.09,2.4,4.9c-0.46,1.41-2.39,1.94-3.68,2.15c-2.37,0.38-4.87,0.01-7.16-0.61
						c-4.82-1.31-9.18-3.92-13.5-6.36c-4.54-2.56-9.04-5.19-13.5-7.88c-17.92-10.83-35.12-22.75-51.66-35.57
						c-2-1.55-4.18-2.74-6.8-2.19c-2.26,0.47-4.07,2.09-5.32,3.96c-2.58,3.88-1.42,8.94-3.87,12.82c-1.91,3.01-5.52,4.64-8.93,5.18
						c-4.4,0.69-8.95-0.67-12.98-2.33c-2.22-0.91-4.38-2-6.53-3.07c-1.14-0.57-2.79-0.38-3.42,0.9c-2.17,4.41-7.47,5.98-12.09,5.34
						c-6.03-0.83-11.19-5.04-15.79-8.71c-1.93-1.53-4.72-0.15-4.17,2.43c0.93,4.43-4.05,8.1-7.99,8.39
						c-6.19,0.45-11.9-3.16-16.96-6.27c-9.99-6.14-19.15-13.54-27.27-21.99c-4.62-4.8-8.89-9.93-12.76-15.35
						c-0.78-1.1-2.18-1.62-3.42-0.9c-1.08,0.63-1.68,2.31-0.9,3.42c7.63,10.68,16.65,20.34,26.89,28.56
						c5.2,4.17,10.66,8.02,16.38,11.44c5.92,3.54,12.6,7.01,19.72,5.88c6.73-1.07,12.6-7.52,11.13-14.51
						c-1.39,0.81-2.78,1.62-4.17,2.43c5.8,4.62,12.01,9.47,19.66,10.21c6.2,0.6,13.2-2.03,16.07-7.85c-1.14,0.3-2.28,0.6-3.42,0.9
						c8.77,4.36,18.61,8.69,28.26,4.37c3.86-1.73,6.99-4.83,8.38-8.85c0.85-2.44,0.86-5.07,1.49-7.56c0.38-1.49,1.26-3.42,2.86-3.91
						c0.79-0.24,1.43,0.13,2.09,0.58c1.08,0.72,2.08,1.58,3.11,2.38c2.18,1.68,4.37,3.35,6.57,5c4.3,3.22,8.64,6.37,13.03,9.45
						c8.85,6.21,17.89,12.15,27.1,17.8c4.64,2.85,9.32,5.62,14.05,8.33c4.6,2.63,9.21,5.37,14.16,7.3c4.48,1.75,10.06,2.9,14.74,1.2
						c2.24-0.81,4.23-2.23,5.16-4.5c1.01-2.46,0.44-5.13-0.93-7.33c-1.36-2.18-3.28-3.88-5.16-5.59c-2.22-2.01-4.44-4.03-6.66-6.04
						c-4.25-3.86-8.51-7.72-12.76-11.58c-8.57-7.78-17.14-15.56-25.71-23.33c-17.14-15.56-34.28-31.11-51.42-46.67
						c-2.1-1.9-4.19-3.81-6.29-5.71C440.58,514.26,437.04,517.78,439.43,519.95L439.43,519.95z"/>
				</g>
			</g>
		</g>
	</g>
</g>
<g id="Layer_9">
</g>
</svg>
