<?xml version="1.0" encoding="UTF-8"?>
<svg id="Layer_2" data-name="Layer 2" xmlns="http://www.w3.org/2000/svg" xmlns:xlink="http://www.w3.org/1999/xlink" viewBox="0 0 487.39 247.57">
  <defs>
    <style>
      .cls-1 {
        fill: #fff;
      }

      .cls-2 {
        fill: #ef5a24;
      }

      .cls-3 {
        clip-path: url(#clippath);
      }

      .cls-4 {
        fill: none;
      }

      .cls-5 {
        fill: #28597e;
        stroke: #000;
        stroke-miterlimit: 10;
        stroke-width: 2px;
      }

      .cls-6 {
        fill: #241f20;
      }

      .cls-7 {
        fill: #f6921d;
      }
    </style>
    <clipPath id="clippath">
      <rect class="cls-4" x="2.28" y="2.32" width="482.71" height="242.66"/>
    </clipPath>
  </defs>
  <g id="Layer_1-2" data-name="Layer 1">
    <g>
      <rect class="cls-5" x="1" y="1" width="485.39" height="245.57"/>
      <g class="cls-3">
        <g>
          <path class="cls-7" d="m8.55,2.66c15.93,11.57,31.17,26.07,46.19,39.19,13.98,12.2,29.87,19.38,46.16,27.9,7.45,3.89,11.86,7.39,20.02,6.47,21.64-2.46,42.77-14.28,63.65-20.32,18.24-5.28,37.08-6.62,55.73-8.89,10.9-1.33,11.83-2.38,9.8-13.56-1.52-8.39-2.66-32.03-9.58-37.96-2.63-2.25-5.61-1.21-8.83-1.47-16.91-1.37-35.06,2.68-51.86,4.16-39.87,3.49-79.79,1.09-119.62.1C43.08-2.16,26.15,3.43,8.55,2.66Z"/>
          <path class="cls-7" d="m310.82,344.32c-.35,2.62-1.11,5.01-1.27,7.7-.43,7.13-.73,14.27-1.02,21.4-10.71-3-24.76.56-35.69,1.4-20.37,1.57-40.23-.9-60.51-.2-12.37.42-23.87,2.02-36.09,2.98-7.27.57-15.42,1.87-22.67,1.15-.47-6.09.81-12.43.69-18.63-.25-12.21-1.73-24.27-3.18-36.36-2.35-19.63-6.36-39.09-7.23-58.86-.96-21.97,5.1-57.74,30.41-64.78,11.26-3.13,22.9-1.73,34.36-2.38,9.76-.56,19.8-.36,29.41,1.55,28.9,5.73,52.28,20.79,67.11,46.42,5.37,9.29,10.4,18.94,13.37,29.28,1.48,5.16,2.44,10.51,2.41,15.89-.03,5.04-1.46,10.26-2.21,15.28-.84,5.6-1.39,11.26-2.76,16.77-.98,3.92-2.08,7.73-3.37,11.55-1,2.98-1.37,6.08-1.69,9.19,0,.21-.04.43-.07.65Z"/>
          <path class="cls-7" d="m317.66,235.42c5.38-2.15,12.06,3.5,17.8,1.32-5.84-25.39-37.94-21.08-55.84-14.49-8.42,3.1-17.11,7.94-22.1,15.7-4.23,6.57-10.03,14.02-11.3,21.8-2.41,14.75,11.5,31.79,21.89,41.08,3.86,3.45,8.49,6.1,13.66,7.12,6.49,1.28,6.62-1.3,10.38-5.1,3.09-3.12,4.96-2.76,9.19-2.45,2.22.16,7.27,1.6,8.82-.94,2.64-4.32-15.61-22.68-17.72-27.91-4.18-10.39-4.6-28.81,6.34-35.4,9.35-5.63,18.03,1.36,26.54-.74"/>
          <path class="cls-1" d="m346.94,110.9c-2.09-5.19-4.76-9.67-9.21-13.13-3.19-2.48-6.85-4.45-9.83-7.15-4-3.62-6.89-13.2-13.65-11.93-3.04.57-3.28,3.4-6.47,3.23-3.55-.19-5.08-1.5-8.8-.34-5.13,1.6-9.73,4.24-14.38,6.92-3.75,2.16-10.94,4.9-12.78,9.17-1.55,3.62,1.47,7.51.67,11.28-.77,3.6-4.51,4.21-4.13,8.91.39,4.88,4.49,5.82,8.47,7.62,4.19,1.9,8.19,4,12.09,6.37,5.2,3.15,9.38,4.23,15.38,4.81,3.62.35,7.13,1.33,10.72,1.87,2.25.34,4.21.01,5.94.72.57.24,1.11.58,1.62,1.11,3.12,3.15,4.91,8.65,6.22,12.76,1.81,5.71,4.68,11.03,6.15,16.85,1.81,7.18,3.81,14.07,4.15,21.48.31,6.75,1.66,13.37,1.14,20.11-.23,3-.79,5.96-1.25,8.94-.58,3.82-.53,4.2-4.46,3.33-5.49-1.23-10.79-3.94-16.57-3.11,2.43,5.02,10.2,7.71,13.83,12.25,1.97,2.47,3.94,6.2-.8,5.91-3.8-.23-7.49-2.74-11.39-3.23-7.74-.97-17.79-2.78-23.76,3.75-5.71,6.24-5.84,15.36-6.19,23.26-.37,8.15,2.36,14.91,7.89,20.88,1.81,1.95,3.69,3.74,5.79,5.27,3.28,2.38,6.94,4.05,10.53,5.85,8.22,4.12,18.1,5.53,27.27,5.57,8.55.03,17.11,1.72,25.63,1.11,8.24-.6,16.68-1.59,24.82-2.84,3.38-.52,6.38-1.97,8.97-4.17,2.76-2.35,2.49-4.6,3.32-8.04,1.18-4.87,2.95-9.58,3.54-14.58.75-6.34-.03-12.71-1.11-18.98-2.01-11.74-5.23-22.96-8.86-34.38-3.29-10.35-8.58-19.87-13.15-29.68-2.02-4.33-3.31-8.27-5.77-12.42-2.82-4.77-5.25-9.75-7.96-14.59-9.17-16.42-16.62-33.4-23.62-50.76Z"/>
          <path class="cls-1" d="m335.24,223.58c-4.39-6.73-6.98-14.77-11.7-21.51-3.59-5.12-7.51-9.7-12.58-13.3-2.95-2.09-3.83-3.4-7.42-2.31-3.39,1.02-5.46,1.25-9.05.92-3.98-.36-5.92.62-9.61,1.67-2.69.76-4.72-.05-7.33-.28-4.03-.37-8.07,2.59-10.57,5.45-2.65,3.04-5.86,3.91-9.47,5.61-2.29,1.08-3.33,2.8-3.43,5.4-.18,4.61,1,11.5,4.15,15.13,1.07,1.23,2.56,1.99,3.65,3.17.88.95,1.48,2.14,2.35,3.13,2.15,2.45,4.64,4.58,6.98,6.83,2.69,2.59,5.51,5.09,8.29,7.57,2.54,2.27,5.66,3.98,9.01,2.39,3.69-1.76.51-4.08,1.69-6.94.8-1.95,6.89,1.6,8.01.82,4.4-3.06,4.54-5.46,4.42-4.6-.22,1.58,9.72,9,12.36,1.4,1.08-3.11-2.85-6.26-4.68-8.58-1.3-1.65-3.52-4.43-.76-4.61,2.16-.14,4.91-.57,6.35-1.62,1.56-1.14,4.27-.35,6.17.28,1.72.57,3.82,2.56,5.3,2.85,5.24,1,3.92.31,7.87,1.13Z"/>
          <path class="cls-6" d="m231.03,45.32c4.05,7.47,10.22,13.9,14.44,21.43,3.9,6.95,7.62,13.81,12.46,20.15,4.21,5.51,7.47,11.76,4.95,18.79-2.13,5.95-7.44,10.26-9.81,16.05-2.25-15.39-9.08-30.15-13.88-45.04-1.9-5.91-3.43-11.92-5.5-17.78-1.26-3.55-4.64-9.33-2.66-13.6Z"/>
          <path class="cls-2" d="m132.19,59.25c-1.61-8.6,11.16-16.78,17.62-20.61,4.11-2.43,12.51-9.32,14.03-2.25.33,1.54.16,7.38-.64,8.7-1.48,2.44-7.19,3.6-9.84,4.63-6.65,2.59-15.04,4.1-21.17,9.53Z"/>
          <path class="cls-2" d="m132.19,112.9c-4.83,2.64-8.22-19.03-8.21-22.72.01-5.39,1.52-19.02,9.18-19.36,9.68-.42,2.43,17.37,1.74,21.9-1.08,7.12-1.66,14.41-2.71,20.18Z"/>
          <path class="cls-2" d="m148.01,140.87c-2.2,5.22-3.45,17.43-5.69,24.88-2.58,8.6-5.49,16.52-9.17,24.66-8.67,19.14-13.8,38.9-24.09,57.53-10.45,18.93-12.08,39.03-.16,58.16,4.17,6.69,18.48,35.02,28.39,32.35,3.53-.95,6.66-6.02,11.49-7.22,7.71-1.91,7.83,1.31,7.79-7.41-.06-14.11-6.06-28.91-7.81-43.14-2.26-18.32-5.7-37.11.04-55.02,2.39-7.45,5.94-15.31,12.29-20.34,4.74-3.74,12.43-4.58,16.65-8.51,9.63-8.97,4.63-31.01-.99-41.18-5.84-10.58-17.02-17.77-28.74-14.76Z"/>
          <path class="cls-2" d="m260.74,118.51c-4.07,5.58-2.84,18.25-2.77,25.15.12,11.25,2.22,22.35,3.82,33.47.54,3.79.53,7.78,1.25,11.51.23,1.19,1.75,4.05,1.42,5.23-.84,2.98-4.85,2.4-7.05,4.21-1.88,1.56-2.32,5.95-4.6,6.93-2.78,1.19-6.44-2.02-7.96-4.02-3.86-5.08-3.01-12.46-3-18.46.01-9.07-.82-17.95.8-26.96,2.13-12.02,8.16-26.3,18.09-37.06Z"/>
          <path class="cls-1" d="m163.73,126.14c-1.58-2.41-7.86-1.7-9.91-.1-5.2,4.06,1.05,11,3.97,14.29,2.45,2.76,5.01,5.52,7.93,7.81,1.27,1,3.51,1.93,4.59,3.05,2.64,2.73,2.58,8.31,3.04,11.87.99,7.65.33,15.58-.57,23.2-.21,1.77-2.29,11.38-.96,12.74,1.86,1.89,12.55-.93,14.83-1.19,8.15-.96,16.55-1.59,24.71-.47,7.28,1,14.43,2.09,21.53,3.71,4.44,1.01,9.39.42,13.85.74.35-3.54-1.11-7.17-.86-10.83.38-5.58.8-11.06.53-16.67-.37-7.66-.63-12.13,1.79-19.75,2.7-8.51,3.98-17.68,5.39-26.49,1.71-10.68.52-18.55-3.17-28.76-4.09-11.3-6.88-23.14-12.36-33.94-1.88-3.7-4.04-12.25-8.19-13.84-2.32-.89-7.27-.69-9.73-.91-9.4-.87-18.97-.6-28.37.11-14.94,1.13-20.06,11.29-25.54,23.89-4.4,10.12-9.62,21.9-9.18,33.22.27,6.92,3.06,12.03,6.44,17.76.27.18.46.06.24.56Z"/>
          <path d="m262.49,100.22c-.43-5.29-3-10.11-5.64-14.62-3.02-5.16-6.1-10.28-9.15-15.42-3.47-5.84-6.94-11.68-10.4-17.53-.37-.63-1.36-.06-.98.57,6.09,10.26,12.19,20.53,18.28,30.79,2.7,4.55,5.59,9.24,6.53,14.52.89,4.97-.72,9.53-2.84,13.96-1.27,2.65-2.66,5.31-3.64,8.08-.12-2.8-.38-5.6-.88-8.38-.42-2.37-.98-4.71-1.71-7-.74-2.34-1.67-4.62-2.5-6.93-.83-2.3-1.49-4.62-1.89-7.03-.41-2.48-.68-4.98-1.39-7.4-1.39-4.75-3.78-9.21-5.87-13.68l-6.66-14.25c-.56-1.2-1.12-2.4-1.68-3.59-.31-.66-1.29-.09-.98.57,2.16,4.62,4.32,9.24,6.48,13.87,2.12,4.54,4.4,9.03,6.29,13.67.9,2.21,1.62,4.48,2.04,6.84.43,2.39.66,4.82,1.25,7.18,1.16,4.58,3.27,8.85,4.49,13.42,1.46,5.48,2,11.12,1.93,16.77-.12.73-.21,1.46-.23,2.21-.01.17.06.3.15.39-.13,2.88-.4,5.76-.81,8.61-.67,4.69-1.65,9.33-2.8,13.92-1.14,4.53-2.38,9.07-3.83,13.51-.32.98-.71,1.99-1.43,2.76-.73.79-1.74,1.21-2.76,1.52-2.27.68-4.64,1.11-6.96,1.51-4.89.85-9.85,1.29-14.81,1.32-1.23.01-2.46-.01-3.69-.05-.73-.02-.73,1.11,0,1.13,5.04.17,10.08-.08,15.08-.74,2.51-.33,5.01-.76,7.48-1.3,2.02-.44,4.33-.79,5.97-2.13,1.65-1.34,2.17-3.52,2.75-5.45.71-2.34,1.4-4.69,2.05-7.05,1.3-4.7,2.45-9.45,3.33-14.24.95-5.19,1.55-10.47,1.63-15.75.63-3.93,2.56-7.55,4.29-11.11,2.06-4.24,3.9-8.67,3.51-13.47Z"/>
          <path class="cls-2" d="m152.06,126.63c1.26-5.53,10.43-1.19,13.78-.9-1.8-4.49-4.75-11.52-2.45-16.17,1.4-2.83,2.85-3.15,3.36-6.44.42-2.73.05-4.55,1.3-7.14,2.52-5.23,6.6-9.95,9.28-15.31,3-6.01,3.04-10.9,3.83-17,1.97,1.28,2.81,3.5,4.54,5.12,2.71,2.52,6.91,5.09,10.22,6.79,5.47,2.81,12.87,4.19,18.79,2.13,2.53-.88,3.91-2.88,5.15-5.11.55-1,1.09-2.03,1.86-2.89.92-1.03,1.72-1.92,3.05-1.36,1.11.47,2.01.61,3.2.22,2.04-.66,2.91-2.28,3.75-4.11.15-.32.34-1.08.69-1.22.41-.17.85.34,1.26.3.93-.08.99-1.05.96-1.81-.07-1.74-.97-3.39-1.7-4.92-2.39-5.01-2.43-10.6-6.03-15.1-2.23-2.78-5.69-3.41-8.99-4.09-3.48-.71-6.48-2.08-10.11-1.46-10.38,1.77-20.66,9.14-29.15,14.92-12.9,8.8-18.27,23.08-22.68,37.75-3.38,11.23-8.62,26.75-3.91,37.8Z"/>
          <path class="cls-6" d="m171.32,151.9c-12.36,9.49-20.08-5.28-25.04-14.46-2.48-4.59-7.4-6.95-9.74-11.51-4.03-7.87-4.64-19.84-4.6-28.46.04-8.78,3.82-18.44,3.06-26.95-4.92.66-12.36,1.54-16.69,3.72,2.84-4.86,8.48-8.31,12.22-12.5,4.67-5.22,9.44-10.42,14.17-15.52,3.03-3.26,6.94-7.61,11.81-7.67,2.39-.03,7.27,3.42,9.23,1.64,1.27-1.15,1.29-7.13,2.38-9.04,1.78-3.11,3.85-4.47,7.13-5.77,10.48-4.16,21.37-7.5,32.14-10.74-1.4,3.42-4.2,6.97-6.27,10.16q-2.24,3.45,1.69,4.35c7.32,1.65,13.36,2.71,18.51,8.29-3.7,1.44-10.34-.05-14.7.58-5.69.82-7.97,3.41-12.07,7.23-7.33,6.83-23.02,8.83-26.75,19.07-1.53,4.18-1.86,9.2-3.3,13.55-2.07,6.26-4.89,12-6.65,18.43-1.87,6.82-2.15,14.39-2.82,21.43-.36,3.73-1.37,8.41-1.12,12.06.41,6.03,5.16,12.7,9.26,16.93,1.57,1.59,9.23,5.17,8.15,5.18Z"/>
          <path d="m173.2,151.18c-.14-.72-1.24-.41-1.1.3,1.01,5.28,1.45,10.64,1.33,16.01-.02.73,1.12.73,1.14,0,.13-5.47-.34-10.94-1.37-16.31Z"/>
          <path d="m246.03,169c.03-.73-1.11-.73-1.14,0-.42,10.15-.34,20.31.22,30.45.04.72,1.18.73,1.14,0-.57-10.14-.64-20.3-.22-30.45Z"/>
          <path d="m172.45,171.25c-.4,8.68-1.13,17.34-2.2,25.96-.09.72,1.05.72,1.14,0,1.07-8.62,1.81-17.28,2.2-25.96.04-.73-1.1-.73-1.14,0Z"/>
          <path d="m167.15,198.68c-4.35,3.2-8.24,6.98-11.43,11.33-3.41,4.64-5.83,9.87-7.4,15.4-1.66,5.86-2.45,11.95-2.88,18.01-.43,6.01-.44,12.05-.14,18.07.6,12.07,2.43,24.05,4.52,35.94,2.12,12.04,4.52,24.03,6.3,36.12,1.77,12.09,2.89,24.32,2.38,36.54-.06,1.49-.15,2.97-.26,4.46-.05.73,1.09.72,1.14,0,.89-11.93.13-23.91-1.39-35.76-1.53-11.9-3.81-23.69-5.95-35.49-2.17-11.91-4.22-23.87-5.2-35.95-.96-11.9-1-24.1,1.24-35.86,1.11-5.83,2.9-11.54,5.88-16.7,2.74-4.74,6.34-8.95,10.49-12.52,1.06-.91,2.15-1.78,3.27-2.6.59-.44.02-1.42-.57-.99Z"/>
          <path d="m199.76,91.63c-2.61.06-5.22.11-7.83.17-2.34.05-4.82-.06-7.06.74-4.42,1.59-6.83,5.85-9.96,9.02-.25.26-.19.67.1.86.8.53,1.89-.92,2.36-1.38,2.69-2.62,5.92-4.75,9.62-5.63,4.24-1,8.87-.15,12.81-2.31.2-.11.27-.28.27-.45.39-.28.29-1.04-.31-1.02Z"/>
          <path d="m238.47,71.62c-.93-.24-1.89-.46-2.85-.34-.89.11-1.6.55-2.27,1.12-1.62,1.37-3.18,2.84-4.74,4.27-2.75,2.52-5.36,5.23-6.81,8.71-.26.61.64.9,1,.44.09,0,.19-.01.3-.08,1.2-.74,2.73-.81,3.71-1.93.51-.59.93-1.27,1.37-1.91.81-.88,1.54-1.84,2.23-2.79,1.96-2.72,4.25-6.04,7.92-6.37.6-.06.8-.95.14-1.12Z"/>
          <path d="m234.17,116.12c-.75-1.45-1.89-2.75-2.84-4.07-.42-.59-1.41-.02-.98.57.82,1.14,1.7,2.26,2.47,3.44.37.57.74,1.21.71,1.91-.03.73-.54,1.44-.9,2.04-1.38,2.31-3.12,4.39-5.13,6.19-.55.49.26,1.29.81.8,2.26-2.03,4.2-4.41,5.67-7.05.71-1.29.88-2.48.19-3.83Z"/>
          <path d="m223.86,122.22c-2.39.71-4.32,2.52-5.23,4.82-.11.28.12.62.4.7.32.09.59-.11.7-.4.76-1.91,2.46-3.44,4.44-4.03.69-.21.4-1.3-.31-1.09Z"/>
          <path d="m239.11,137.41c-1.84.02-3.69.05-5.51.36-1.81.3-3.48.97-5.09,1.84-3.51,1.89-6.94,3.96-10.4,5.95-.63.36-.06,1.34.58.98,3.31-1.9,6.61-3.85,9.95-5.7,1.55-.86,3.13-1.56,4.88-1.9,1.84-.35,3.72-.36,5.59-.38.73-.03.74-1.16,0-1.15Z"/>
          <path d="m235.52,147.65c-1.52.79-3.29,1.07-4.98.76-.3-.06-.61.08-.7.4-.08.28.09.64.4.7,2,.37,4.06.06,5.86-.88.65-.34.07-1.32-.58-.98Z"/>
          <path d="m162.28,110.77c1.5-1.62,3.02-3.23,3.94-5.26.99-2.2.98-4.51.65-6.86-.41-2.93-.93-5.86-1.39-8.78-.11-.72-1.21-.41-1.1.3.42,2.61.85,5.23,1.25,7.84.4,2.59.55,5.15-.7,7.54-1.07,2.05-2.79,3.5-4.21,5.28-.63.79-1.12,1.68-1.24,2.7-.13,1.16.26,2.27.73,3.3,1.26,2.76,2.74,5.43,4.11,8.14.33.65,1.31.08.98-.57-1.2-2.37-2.4-4.73-3.6-7.1-.56-1.11-1.24-2.36-1.1-3.65.14-1.13.93-2.07,1.68-2.88Z"/>
          <path d="m177.58,72.2c-1.61,7.9-4.92,15.38-9.67,21.92-.43.59.56,1.16.98.57,4.81-6.6,8.16-14.2,9.79-22.19.15-.71-.95-1.02-1.1-.3Z"/>
          <path d="m215.15,74.38c-10.21.28-21.32-1.06-29.03-8.4-1.9-1.8-3.46-3.9-4.6-6.25-.32-.66-1.3-.08-.98.57,4.53,9.35,14.86,13.77,24.73,14.88,3.28.37,6.59.42,9.89.33.72-.02.73-1.15-.01-1.13Z"/>
          <path d="m226.58,68.18c-8.32-1.7-15.94-6.08-21.56-12.41-.49-.55-1.29.26-.81.8,5.74,6.46,13.57,10.97,22.06,12.7.72.15,1.02-.94.31-1.09Z"/>
          <path d="m233.43,62.51c-5.14-2.24-9.64-5.78-12.95-10.29-.43-.58-1.42-.02-.98.57,3.42,4.66,8.03,8.38,13.36,10.7.66.29,1.24-.68.57-.98Z"/>
          <path d="m230.62,46.84c-2.28-3.8-4.89-7.38-7.81-10.72-.48-.55-1.29.25-.81.8,2.86,3.26,5.41,6.77,7.64,10.49.37.62,1.35.06.98-.57Z"/>
          <path d="m219.72,35.97c-4.39-.22-8.81-.25-13.2.08-3.19.24-6.7.91-8.78,3.57-.54.69-.95,1.46-1.46,2.17-.65.9-1.48,1.52-2.46,2.03-1.66.87-3.37,1.62-5.03,2.5-3.49,1.86-6.86,3.95-10.07,6.26-3.01,2.17-5.87,4.53-8.58,7.05-.13.04-.24.13-.3.28-.42.39-.84.77-1.25,1.17-.47.46.13,1.14.64.91-3.48,12.33-8.96,23.98-12.79,36.19-2.01,6.4-3.56,12.97-4.08,19.67-.49,6.21-.31,12.97,2.14,18.79,2.56,6.06,7.95,9.97,13.84,12.55.14.06.28.06.4.02,1.58.65,3.26,1.04,5.1,1.03,5.03,5.82,11.14,10.67,18.02,14.2.65.33,1.23-.64.58-.98-7.8-4-14.66-9.72-19.96-16.68-.44-.57-1.43-.01-.98.57.45.59.92,1.15,1.39,1.72-5.63-.42-9.81-4.9-13.39-8.84-.49-.54-1.3.26-.81.8.59.65,1.2,1.32,1.83,1.97-1.74-1.56-3.25-3.36-4.34-5.49-1.87-3.64-2.61-7.8-2.8-11.94.14.05.3.06.47-.03,2.28-1.21,5.27-.98,7.31.63.24.19.57.23.81,0,.2-.2.24-.61,0-.8-2.43-1.92-5.86-2.27-8.62-.83-.05-1.76-.01-3.52.08-5.22.73-13.23,5.64-25.74,10.35-37.98,2.63-6.84,5.22-13.71,7.09-20.8,5.15-4.8,10.86-8.98,17.01-12.41,1.73-.96,3.49-1.87,5.28-2.71,1.63-.77,3.07-1.56,4.14-3.05.52-.73.94-1.55,1.52-2.23.54-.64,1.2-1.15,1.94-1.55,1.44-.78,3.12-1.12,4.73-1.29,4.7-.52,9.54-.42,14.26-.18.7.02.7-1.11-.03-1.15Z"/>
          <path d="m220.59,35.01c-5.18-5.72-13.21-7.08-20.58-7.96,4.11-3.87,7.29-8.63,9.28-13.91.15-.39-.31-.84-.7-.7-7.96,2.88-15.92,5.76-23.88,8.64-3.96,1.43-7.91,2.86-11.87,4.3-3.25,1.18-6.69,2.22-8.65,5.28-1.88,2.93-2.14,6.6-2.33,9.98-.01.27.13.44.33.51-1.65-.12-3.31-.24-4.96-.37-1.86-.14-3.8-.45-5.67-.33-3.47.21-5.58,3.46-7.65,5.84-5.19,5.95-10.37,11.91-15.56,17.86-2.96,3.4-5.93,6.8-8.89,10.21-.35.41-.02,1.12.55.95l8.49-2.49c1.39-.41,2.78-.83,4.18-1.23.74-.21,1.68-.48,2.46-.25-5.1,13.18-6.62,27.67-4.35,41.61-3.76-8.44-5.64-17.68-5.45-26.91.06-2.76.3-5.52.72-8.25.11-.71-.99-1.02-1.1-.3-1.52,9.78-.76,19.86,2.24,29.3.84,2.65,1.87,5.24,3.04,7.76.18.39.59.34.84.11.59,3.15,1.41,6.27,2.71,9.2,1.41,3.18,3.46,5.87,5.92,8.32,2.52,2.52,5.18,4.87,7.17,7.85,2.01,3.01,3.53,6.31,5.65,9.25,2.02,2.8,4.65,5.43,8.06,6.44,3.11.92,6.72.46,9.1-1.87.52-.51-.28-1.31-.81-.8-2.14,2.1-5.41,2.4-8.18,1.52-2.98-.95-5.32-3.3-7.11-5.76-2-2.75-3.47-5.84-5.29-8.7-1.87-2.92-4.25-5.3-6.73-7.7-2.42-2.35-4.62-4.79-6.16-7.81-1.52-2.98-2.43-6.23-3.08-9.49-1.39-6.96-1.74-14.14-1.18-21.21.6-7.53,2.31-14.96,5.01-22.02.46.04.9-.54.47-.95-.03-.03-.06-.04-.09-.06.03-.08.06-.15.09-.23.27-.67-.8-.96-1.09-.32-.59-.19-1.23-.21-1.88-.11-1.49.22-2.94.78-4.38,1.2-2.57.75-5.14,1.51-7.71,2.26,4.66-5.35,9.32-10.7,13.98-16.05,2.53-2.91,5.06-5.81,7.59-8.72,1.25-1.44,2.5-2.88,3.76-4.31,1-1.13,2.09-2.38,3.6-2.82.96-.28,1.97-.2,2.96-.13,1.07.08,2.15.16,3.22.24l6.58.49c.73.05.73-1.08,0-1.13-.25-.02-.5-.04-.76-.06.25-.03.5-.21.51-.53.17-2.99.37-6.21,1.86-8.89,1.76-3.18,5.19-4.17,8.41-5.33,7.6-2.75,15.21-5.5,22.81-8.25,3.88-1.4,7.76-2.81,11.64-4.21-2.09,5.01-5.31,9.5-9.4,13.11-.41.36-.04.92.4.97,7.4.85,15.78,1.96,21.05,7.78.5.52,1.3-.28.81-.82Z"/>
          <path d="m264.48,193.56c-2.4-3.65-3.29-7.98-3.75-12.25-.52-4.79-.78-9.62-1.04-14.43-.55-9.98-.8-19.98-.73-29.98.04-5.68.17-11.36.41-17.03.03-.73-1.11-.73-1.14,0-.42,10.18-.53,20.37-.31,30.55.21,10.02.61,20.08,1.59,30.06.46,4.75,1.33,9.6,4,13.66.38.6,1.37.03.97-.58Z"/>
          <path d="m114.3,231.61c5.63-12.06,12.19-23.66,17.99-35.64,5.7-11.79,10.71-24.06,12.94-37,.27-1.54.49-3.09.68-4.64.09-.72-1.05-.72-1.14,0-1.61,13.27-6.34,25.91-11.98,37.96-5.71,12.19-12.35,23.91-18.18,36.03-5.67,11.81-10.63,24.13-12.68,37.12-2.09,13.22-.84,26.71,3.72,39.31,4.55,12.57,12.21,24.07,22.29,32.93,1.23,1.08,2.5,2.12,3.8,3.13.57.44,1.38-.35.81-.8-10.72-8.26-19.1-19.36-24.33-31.79-5.21-12.39-7.21-25.94-5.64-39.28,1.53-13.04,6.19-25.49,11.72-37.33Z"/>
          <path d="m340.94,223.02c-.68.03-1.36.01-2.03.01,1.14-11.32,1.23-22.77-.07-34.08-1.29-11.23-3.92-22.34-8.31-32.78-2.45-5.83-5.42-11.42-8.94-16.68-.04-.06-.09-.11-.15-.14.08-.33-.09-.71-.52-.68-4.45.29-8.99.59-13.41-.15-2.23-.37-4.41-1.01-6.44-2.01-2.04-1-3.93-2.28-5.91-3.4-3.89-2.21-8.18-3.36-12.48-4.48-3.65-.95-7.64-1.82-10.54-4.39-1.38-1.22-2.4-2.84-2.32-4.73.09-2.33,1.49-4.36,1.13-6.76-.11-.72-1.21-.41-1.1.3.33,2.17-1.04,4.2-1.16,6.34-.09,1.62.5,3.17,1.5,4.44,2.29,2.9,6.03,4.21,9.47,5.17,4.53,1.26,9.23,2.18,13.46,4.31,2.07,1.04,3.99,2.35,6.02,3.47,2.01,1.11,4.12,1.97,6.36,2.5,4.92,1.15,10.03.88,15.03.55.01.08.03.16.09.24,6.26,9.35,10.76,19.75,13.66,30.59,2.9,10.86,4.24,22.1,4.38,33.32.08,6.35-.23,12.71-.87,19.03-.86-.04-1.71-.09-2.56-.17-5.49-11.99-12.81-23.48-22.26-32.78-1.96-1.93-4.39-4.72-7.47-4.29-1.41.2-2.61,1.01-3.97,1.4-1.53.44-3.03-.03-4.49-.51-1.32-.44-2.68-.91-4.1-.87-1.39.04-2.67.61-3.88,1.23-1.29.66-2.61,1.46-4.09,1.59-1.54.14-3.02-.4-4.46-.86-1.52-.49-3.09-.97-4.71-.8-1.39.14-2.69.68-3.82,1.49-2.42,1.75-4.06,4.38-5.49,6.94-.36.64.63,1.21.98.57,1.26-2.25,2.65-4.53,4.66-6.2.94-.78,2.04-1.37,3.25-1.61,1.45-.28,2.89.08,4.28.51,1.34.42,2.66.91,4.07,1.06,1.35.14,2.61-.15,3.84-.69,1.29-.57,2.49-1.37,3.83-1.81,1.41-.46,2.75-.28,4.15.14,1.31.4,2.59.92,3.96,1.08,1.42.16,2.65-.24,3.93-.8,1.4-.61,2.73-1.11,4.22-.47,1.4.6,2.52,1.76,3.6,2.79,4.61,4.4,8.68,9.34,12.3,14.57,3.96,5.74,7.4,11.82,10.35,18.14-3.28-.44-6.5-1.28-9.58-2.51-1.52-3.94-2.66-8.02-3.37-12.18-.18-1.07-.32-2.14-.46-3.21-.11-.85-.29-1.68-.76-2.4-.88-1.33-2.54-2.12-3.16-3.61-.2-.49-.77-.45-1.07-.08-.63.78-.13,2.31-.09,3.2.07,1.66-.08,3.32.02,4.98.15,2.33,1.02,4.53,1.89,6.67.74,1.82.94,3.91,2.12,5.54,1.03,1.42,2.65,2.4,4.43,2.13,3.43,1.37,7.03,2.28,10.7,2.7.13.09.28.1.42.05,1.98.21,3.98.29,5.99.21.68-.02.69-1.16-.05-1.13Z"/>
          <path d="m346.83,113.08c-3.58-6.74-7.77-13.15-12.52-19.14-2.21-2.79-4.42-5.66-7.77-7.13-1.76-.77-3.4-1.44-4.78-2.81-1.22-1.21-2.22-2.65-3.53-3.77-1.2-1.03-2.67-1.85-4.28-1.96-1.67-.11-2.87.83-4.23,1.64-.74.44-1.48.72-2.35.54-.78-.16-1.49-.54-2.22-.84-1.67-.69-3.13-.61-4.76.16-1.87.88-3.66,1.96-5.48,2.94-1.83.99-3.66,1.98-5.49,2.98-3.66,1.98-7.33,3.97-10.99,5.95-2.08,1.13-4.17,2.25-6.24,3.38-1.56.85-2.91,1.93-2.76,3.87.08,1.04.4,2.06.64,3.07.28,1.19.56,2.38.84,3.57.54,2.29,1.08,4.58,1.62,6.87.17.71,1.27.41,1.1-.3-.92-3.89-1.83-7.79-2.75-11.68-.21-.91-.57-1.98-.08-2.86.38-.69,1.13-1.1,1.8-1.47,1.71-.95,3.45-1.87,5.17-2.8,6.99-3.79,13.98-7.58,20.98-11.37,1.54-.83,3.25-2.08,5.09-1.59,1.43.38,2.7,1.36,4.23,1.31,1.56-.05,2.66-1.15,3.97-1.83,1.58-.82,3.29-.27,4.68.67,1.42.97,2.45,2.38,3.6,3.64,1.12,1.23,2.35,2.21,3.87,2.91,1.58.72,3.19,1.29,4.55,2.41,1.31,1.08,2.41,2.4,3.48,3.7,5.22,6.37,9.78,13.26,13.64,20.52.32.63,1.31.06.97-.58Z"/>
          <path d="m290.02,95.59c-.22.42-.45.84-.67,1.26-.14.27-.36.95-.6,1.12-.15.11-.05.06-.24.01-.17-.04-.45-.26-.6-.35-.4-.24-.81-.47-1.21-.71-.45-.27-.93.17-.84.64.1.52.21,1.04.31,1.56.08.44.24,1.13-.19,1.43-.34.23-.87.13-1.26.12-.45-.01-.88.01-1.3.17-.32.12-.56.51-.34.83.26.38.55,1.01.9,1.32.02.03.05.07.07.1-.02.01-.02,0-.05.02-.19-.02-.56.11-.75.15-1.08.21-2.16.42-3.24.64-.71.14-1.67.21-1.99.98-.28.65.16,1.34.79,1.58.76.29,1.73.09,2.53.11.92.02,1.83.1,2.73.27,1.78.33,3.5.97,4.92,2.1.37.29.84.06.96-.27.04-.07.07-.15.07-.25.1-1.34.2-2.67.3-4.01.32-2.84.79-5.66.76-8.53-.01-.54-.79-.79-1.06-.29Z"/>
          <path d="m286.59,109.98c-1.71,1.15-3.39,2.36-5.13,3.46-.92.58-1.97.19-2.98.02-1.06-.18-2.12-.35-3.19-.53-.72-.12-1.03.97-.3,1.09,1.14.19,2.28.38,3.41.57,1.02.17,2.15.54,3.14.09.96-.44,1.83-1.17,2.7-1.76.97-.66,1.95-1.31,2.92-1.97.61-.4.04-1.38-.57-.97Z"/>
          <path d="m272.27,215.17c-.02-1.45-.05-2.9-.07-4.35-.02-1.31.05-2.68-.28-3.96-.32-1.25-1.13-2.13-2.05-3-.82-.77-1.78-2.03-3-2.09-.3-.02-.57.27-.57.57.04,2.72.47,5.44,1.31,8.03.4,1.24.89,2.47,1.48,3.63.47.94,1.16,1.8,2.29,1.85.12.01.24-.05.34-.13.27-.01.55-.19.55-.55Z"/>
          <path d="m284.18,216.23c-.03-.49.01-1.13-.27-1.55-.61-.9-1.93-.2-2.66.12-1.94.84-3.7,2.12-5.75,2.67-.78-.08-1.61.04-1.56.89.06.85.92,1.64,1.57,2.09.75.53,1.64.85,2.51,1.15,1.17.41,2.35.9,3.55,1.22.43.12.92.16,1.33-.04.49-.25.66-.74.78-1.24.29-1.19.46-2.41.51-3.64.03-.55.02-1.11-.01-1.67Z"/>
          <path d="m291.3,218.21c-.83-2.04-1.48-4.15-1.94-6.3-.2-.95-.26-1.96-.53-2.9-.16-.58-.5-1.13-1.05-1.37-.18-.48-.35-.97-.48-1.47-.12-.49-.79-.53-1.04-.14-.25.4-.28.83-.3,1.29-.03.58-.05,1.15-.05,1.73.01,1.15.14,2.33.58,3.4.43,1.06,1.11,2,1.72,2.96.68,1.07,1.37,2.14,2.05,3.22.32.52,1.29.2,1.04-.42Z"/>
          <path d="m332.53,237.07c-.28-4.17-2.89-7.63-5.84-10.45-1.65-1.58-3.42-3.04-5.23-4.43-1.3-.99-2.66-1.91-4.09-2.68.13-.09.26-.17.38-.27.57-.45-.24-1.25-.81-.8-.23.18-.48.34-.72.5l-1.2.7c-2.42,1.22-5.24,1.59-7.91,1-.52-.12-.84.39-.64.83,1.59,3.6,5.41,5.53,7.05,9.07.76,1.63,1.11,3.76-.1,5.27-.55.69-1.32,1.09-2.15,1.28,2.12-.49.97-3.93.39-5.16-.69-1.45-1.77-2.67-2.42-4.14-.71-1.61-1.88-3.1-3.01-4.45-.8-.95-1.52-1.77-1.39-3.08.12-1.21.16-2.24-.14-3.43-.62-2.52-1.46-5-2.19-7.48-.14-.48-.77-.54-1.04-.14-1.35,2.02-1.92,4.4-3.09,6.5-1.05,1.88-2.88,3.67-5.21,3.43-.45-.05-.62.36-.51.71-.06.14-.06.3.05.47,2.39,3.76,5.12,7.3,8.15,10.58.57.62,1.17,1.22,1.76,1.82-.3-.15-.73-.03-.81.33-.44,2.05-2.59,3.08-4.53,3.26-2.63.25-5.23-.73-7.85-.83-.31-.01-.56.27-.57.57-.03,1.17.26,2.28.48,3.42.21,1.13.31,2.41-.51,3.34-1.51,1.71-4.13,1.14-5.83.11-2.16-1.31-4.02-3.21-5.91-4.87-2.04-1.8-4.05-3.62-6.04-5.47-1.58-1.47-3.15-2.95-4.71-4.45l-.86-.83c-2.01-1.95-3.99-3.92-5.92-5.94-.88-.92-1.72-1.88-2.35-2.98-.65-1.13-.99-2.38-1.22-3.65-.48-2.59-.75-5.24-1.1-7.85-.19-1.38-.52-2.85-.34-4.24.18-1.41,1.09-2.16,2.32-2.73,2.81-1.29,5.7-2.42,8.54-3.63.67-.29.09-1.26-.58-.98-2.78,1.18-5.58,2.32-8.35,3.54-1.04.46-2.05,1.06-2.59,2.09-.56,1.05-.59,2.28-.48,3.43.08.84.18,1.69.29,2.53-8.13-5.45-17.54-8.79-27.17-10.41-10.55-1.78-21.33-1.54-31.92-.26-6.22.75-12.39,1.85-18.52,3.09-.72.15-.41,1.24.3,1.09,10.74-2.18,21.62-3.91,32.6-4.07,10.05-.14,20.16,1.08,29.68,4.38,5.19,1.8,10.14,4.22,14.69,7.3.18.12.36.11.5.04.23,1.66.49,3.32.72,4.98.38,2.74.95,5.24,2.7,7.46,1.77,2.25,3.96,4.22,6,6.23.39.39.8.76,1.19,1.14-1.82,1.04-3.65,2.14-5.11,3.66-1.61,1.68-2.36,3.76-3.13,5.91-.78,2.19-1.85,4.01-3.46,5.7-1.47,1.54-3.12,2.9-4.52,4.51-1.47,1.69-2.51,3.62-3.07,5.79-1.21,4.73-.81,9.99.51,14.64,1.37,4.86,4.02,9.17,6.93,13.26,5.14,7.21,11.08,13.97,18.3,19.18,3.55,2.57,7.41,4.71,11.51,6.26,1.81.68,3.81,1.48,5.78,1.22.85-.11,1.66-.45,2.23-1.11.66-.77.75-1.74.98-2.68.26-1.08.9-1.75,2.03-1.9.95-.13,1.94.05,2.87.25,2.56.55,5.14.96,7.76,1.09,1.37.07,2.74.09,4.11.02.92-.04,1.92-.16,2.62-.83,1.54-1.47.33-3.86-.51-5.35-2.23-3.97-5.66-7.08-8.78-10.34-3.39-3.54-6.33-7.47-8.7-11.77-2.42-4.37-4.79-9.41-4.36-14.53.21-2.57,1.15-5.03,1.99-7.45.86-2.48,1.6-4.99,2.17-7.55.55-2.49.95-5.01,1.2-7.55.07-.72-1.07-.72-1.14,0-.52,5.1-1.69,10.08-3.38,14.91-.78,2.24-1.59,4.49-1.9,6.86-.32,2.42-.01,4.86.66,7.2,1.29,4.51,3.63,8.82,6.23,12.7,2.54,3.81,5.6,7.12,8.79,10.38,1.56,1.6,3.12,3.22,4.47,5,.65.86,1.24,1.75,1.77,2.69.5.9,1.12,1.94,1.08,3-.04,1.29-1.31,1.44-2.35,1.48-1.28.05-2.56.04-3.84-.02-2.6-.13-5.14-.54-7.69-1.08-1.62-.34-3.66-.65-5.06.47-.72.58-1.03,1.42-1.21,2.3-.2.94-.35,1.95-1.31,2.41-1.7.82-3.96-.13-5.58-.72-2.03-.73-4-1.62-5.9-2.63-7.56-4.04-13.91-10.01-19.32-16.58-2.91-3.53-5.69-7.25-7.99-11.2-2.49-4.28-4.11-8.97-4.44-13.92-.31-4.61.19-9.52,3.34-13.14,1.35-1.55,2.94-2.88,4.37-4.35,1.45-1.49,2.62-3.1,3.41-5.02.85-2.08,1.35-4.35,2.8-6.14,1.43-1.76,3.42-2.95,5.36-4.06.11-.06.22-.12.33-.18,1.47,1.42,2.93,2.85,4.42,4.24,2.18,2.04,4.4,4.05,6.64,6.02,1.09.96,2.18,1.91,3.28,2.85.99.85,2.01,1.71,3.16,2.34,2.04,1.11,4.79,1.37,6.61-.33,2.1-1.96.74-4.71.57-7.14,2.72.22,5.44,1.18,8.18.66,1.81-.35,3.61-1.38,4.4-3.06,1.46,1.49,3.02,2.92,5,3.66,1.78.67,4.02.66,5.64-.42,1.72-1.14,2.32-3.14,2.03-5.11-.32-2.12-1.5-3.95-2.93-5.5-1.49-1.62-3.2-3.08-4.34-4.96,2.88.37,5.79-.24,8.28-1.7,1.33.67,2.6,1.47,3.8,2.35,1.85,1.35,3.62,2.83,5.3,4.38,1.58,1.46,3.07,3.04,4.21,4.86,1.08,1.72,1.77,3.63,1.83,5.67,0,.12.04.21.1.29-.32,1.02-2.22.23-2.82-.04-1.06-.47-2.12-.95-3.17-1.43-2.2-.99-4.39-1.99-6.58-3-.66-.3-1.24.67-.58.98,2.84,1.3,5.68,2.6,8.53,3.88,1.17.53,2.51,1.37,3.84,1.27,1.05-.08,1.95-.87,1.98-1.93.04-.18-.04-.32-.17-.41Z"/>
          <path d="m288.74,239.52c-.32-.98-.77-1.94-1.23-2.86-.95-1.87-2.23-3.72-3.99-4.92-.44-.3-1-.5-1.52-.3-.56.22-.86.9-1.16,1.37-.75,1.15-1.49,2.28-2.3,3.39-1.57,2.17,2.75,4.69,4.36,5.52.91.47,1.88.81,2.89.96.97.14,2.14.22,2.8-.65.54-.71.41-1.7.15-2.51Z"/>
          <path d="m406.58,252.29c-.25-2.8-.58-5.59-.97-8.39,0-.08-.01-.16-.03-.22-1.24-8.73-3.2-17.4-6.22-25.66-1.97-5.4-4.46-10.6-6.99-15.76-2.67-5.44-5.34-10.88-8.02-16.32-5.37-10.93-10.74-21.87-16.1-32.79-5.36-10.9-10.71-21.81-16.07-32.71-.67-1.37-1.34-2.74-2.02-4.1-.32-.66-1.3-.09-.98.57,1.03,2.09,2.05,4.19,3.08,6.27-.41-.35-.82-.7-1.22-1.06-.27-.26-.55-.52-.8-.8-.34-.5-.7-1-1.04-1.51-.05-.07-.09-.14-.13-.22-.02-.08-.09-.14-.16-.18-4.25-6.11-8.51-12.23-12.96-18.22-2.43-3.25-4.89-6.48-7.43-9.65-.92-1.14-2.12-2.62-3.78-2.4-.74.09-1.33.6-2.06.7-.58.08-1.17-.09-1.69-.33-2.32-1.1-4.3-3.78-7.16-3.11-.38.09-.5.52-.34.83,2.78,5.22,5.66,10.38,8.64,15.49.07.11.16.18.25.22,5.6,8.36,14.05,14.41,20.9,21.71,4.27,4.53,7.64,9.66,10.25,15.3,2.77,5.97,4.76,12.26,6.75,18.53,4.3,13.66,8.22,27.44,11.66,41.33,1.72,6.94,3.27,13.91,4.8,20.89,1.44,6.52,3.04,13.09,6.07,19.1,2.58,5.12,6.31,10.17,11.34,13.16,2.28,1.35,5.09,1.86,7.36.18,1.82-1.35,2.79-3.57,3.4-5.68.03.26.08.52.11.77,1.36,11.54,1.42,23.24.19,34.79-.15,1.42-.32,2.82-.5,4.22-.09.72,1.05.71,1.14,0,1.54-11.59,1.79-23.32.73-34.95Z"/>
          <path d="m161.39,31.03c-8.67,3-16.62,7.96-23.09,14.42-1.82,1.82-3.52,3.77-5.09,5.8-.45.58.54,1.14.98.57,5.43-7.02,12.47-12.76,20.42-16.74,2.29-1.15,4.66-2.14,7.08-2.97.69-.23.4-1.32-.3-1.08Z"/>
          <path class="cls-7" d="m386.61,169.73c9.22-3.41,20.24,10.36,27.66,16.24,11.98,9.5,23.92,19.09,36.5,27.82,10.77,7.48,26.48,12.72,34.97,22.8,11.18,13.26-5.64,13.73-16.43,16.34-15.09,3.65-30.21,7.32-45.65,9.23-20.39,2.52-27.59,3.29-33-17.63-5.01-19.36-21.87-48.21-10.88-68.04,2.08-3.76,4.39-5.86,6.83-6.76Z"/>
          <path class="cls-7" d="m353.55,97.02c2.42.51,31.12-29.86,35.27-33.31,14.02-11.66,28.53-22.73,42.74-34.16,10.46-8.42,30.81-29.91,44.53-31.4,15.74-1.71,12.73,26.41,13.16,36.09.88,19.61.41,38.91.2,58.49-.09,8.55,2.68,25.2-4.38,29.41-4,2.38-17.3,1.24-21.94,1.91-14.67,2.11-29.29,2.92-44.1,4.11-13.21,1.07-30.52,6.24-43.6,3.92-8.48-1.5-7.44-4.13-9.87-13.19-2.73-10.23-7.42-20.9-12.01-21.87Z"/>
          <path class="cls-7" d="m9.42,153.28c30.82-14.93,69.94-19.45,103.25-26.83,6.29-1.39,11.79-3.96,16.31-.86,4.55,3.12,8.65,12.56,11.68,17.31-19,17.16-39.49,32.5-59.35,48.91-14.89,12.31-28.16,27.12-43.82,38.32-5.97,4.27-14.82,13.54-22.72,13.05-1.8-30.97-1.26-62.63-5.35-89.9Z"/>
          <path d="m159.5,164.06c-.49,12.24-5.92,23.5-11.84,34-6.04,10.71-12.82,21.13-16.61,32.91-2.1,6.53-3.18,13.4-2.48,20.25.09.84,1.42.85,1.34,0-1.27-12.55,3.47-24.61,9.25-35.52,5.69-10.74,12.61-20.84,17.18-32.15,2.52-6.22,4.23-12.77,4.5-19.49.03-.86-1.3-.86-1.34,0Z"/>
          <path d="m256.87,188.67c-4.32-9.5-5.74-20.23-4.04-30.51.14-.84-1.15-1.19-1.29-.35-1.76,10.67-.31,21.68,4.17,31.53.36.78,1.51.11,1.16-.67Z"/>
          <path d="m444.81,18.85c-10.69,9.83-21.62,19.41-32.77,28.72-11.19,9.34-22.6,18.42-34.24,27.21-6.51,4.92-13.08,9.75-19.71,14.49-.69.49-.03,1.65.67,1.15,11.87-8.49,23.54-17.25,34.99-26.29,11.4-9.01,22.59-18.28,33.55-27.82,6.23-5.42,12.38-10.93,18.45-16.52.63-.58-.31-1.52-.94-.94Z"/>
          <path d="m480.88,122.11c-11.55,1.53-23.11,2.88-34.7,4.05-11.53,1.16-23.08,2.14-34.65,2.94-6.55.45-13.11.84-19.67,1.18-.85.04-.86,1.37,0,1.33,11.63-.6,23.25-1.37,34.86-2.33,11.55-.96,23.09-2.1,34.6-3.42,6.53-.75,13.04-1.56,19.56-2.42.84-.12.85-1.45,0-1.33Z"/>
          <path d="m476.55,232.3c-11.42-6.13-22.4-13.06-32.83-20.75-10.45-7.71-20.35-16.17-29.58-25.3-5.21-5.15-10.21-10.51-14.98-16.07-.56-.65-1.5.29-.94.94,8.49,9.88,17.7,19.15,27.54,27.71,9.81,8.54,20.23,16.38,31.16,23.43,6.16,3.98,12.49,7.7,18.96,11.17.75.42,1.43-.73.67-1.13Z"/>
          <path d="m91.88,70.63c-9.7-7.4-19.39-14.81-29.09-22.21s-19.39-14.81-29.09-22.21c-5.46-4.17-10.93-8.34-16.39-12.52-.68-.52-1.35.63-.67,1.15,9.7,7.4,19.39,14.81,29.09,22.21s19.39,14.81,29.09,22.21c5.46,4.17,10.93,8.34,16.39,12.52.68.51,1.34-.64.67-1.15Z"/>
          <path d="m112.78,124.15c-12.39,2.83-24.79,5.65-37.18,8.48-12.34,2.81-24.68,5.63-37.02,8.44-6.98,1.59-13.96,3.18-20.95,4.78-.84.19-.48,1.47.35,1.28,12.4-2.83,24.79-5.65,37.19-8.48,12.34-2.81,24.68-5.63,37.02-8.44,6.98-1.59,13.96-3.18,20.95-4.78.83-.19.47-1.47-.36-1.28Z"/>
          <path d="m113.52,161.59c-10.75,9.27-21.64,18.38-32.67,27.32-11.07,8.97-22.27,17.77-33.61,26.4-6.37,4.85-12.79,9.64-19.24,14.38-.68.5-.02,1.65.67,1.15,11.49-8.44,22.85-17.05,34.08-25.83,11.22-8.78,22.31-17.73,33.26-26.85,6.19-5.16,12.34-10.37,18.44-15.63.66-.56-.28-1.49-.93-.94Z"/>
          <path d="m247.56,10.95c-.12-.84-1.41-.48-1.29.35,1.52,10.23,3.04,20.47,4.55,30.7.12.84,1.41.48,1.29-.35-1.52-10.23-3.03-20.47-4.55-30.7Z"/>
        </g>
      </g>
    </g>
  </g>
</svg>