<?xml version="1.0" encoding="UTF-8"?>
<svg id="Layer_2" data-name="Layer 2" xmlns="http://www.w3.org/2000/svg" xmlns:xlink="http://www.w3.org/1999/xlink" viewBox="0 0 487.39 247.57">
  <defs>
    <style>
      .cls-1 {
        fill: #fff;
      }

      .cls-2 {
        clip-path: url(#clippath-2);
      }

      .cls-3 {
        fill: #ef5a24;
      }

      .cls-4 {
        clip-path: url(#clippath-6);
      }

      .cls-5 {
        fill: #f4911e;
      }

      .cls-6 {
        clip-path: url(#clippath-7);
      }

      .cls-7 {
        clip-path: url(#clippath-1);
      }

      .cls-8 {
        clip-path: url(#clippath-4);
      }

      .cls-9 {
        clip-path: url(#clippath);
      }

      .cls-10 {
        fill: none;
      }

      .cls-11 {
        clip-path: url(#clippath-3);
      }

      .cls-12 {
        fill: #28597e;
        stroke: #000;
        stroke-miterlimit: 10;
        stroke-width: 2px;
      }

      .cls-13 {
        clip-path: url(#clippath-5);
      }
    </style>
    <clipPath id="clippath">
      <rect class="cls-10" x="1" y="1" width="485.39" height="244.14"/>
    </clipPath>
    <clipPath id="clippath-1">
      <rect class="cls-10" x="1" y="1" width="485.39" height="244.14"/>
    </clipPath>
    <clipPath id="clippath-2">
      <rect class="cls-10" x="1" y="1" width="485.39" height="244.14"/>
    </clipPath>
    <clipPath id="clippath-3">
      <rect class="cls-10" x="1" y="1" width="485.39" height="244.14"/>
    </clipPath>
    <clipPath id="clippath-4">
      <rect class="cls-10" x="1" y="1" width="485.39" height="244.14"/>
    </clipPath>
    <clipPath id="clippath-5">
      <rect class="cls-10" x="1" y="1" width="485.39" height="244.14"/>
    </clipPath>
    <clipPath id="clippath-6">
      <rect class="cls-10" x="1" y="1" width="485.39" height="244.14"/>
    </clipPath>
    <clipPath id="clippath-7">
      <rect class="cls-10" x="1" y="1" width="485.39" height="244.14"/>
    </clipPath>
  </defs>
  <g id="Layer_1-2" data-name="Layer 1">
    <g>
      <rect class="cls-12" x="1" y="1" width="485.39" height="245.57"/>
      <g>
        <g class="cls-9">
          <path d="m459.25,98.95c-4.71-11.06-15.06-18.42-19.36-29.54-3.88-10-5.54-20.02-11.57-29.15-5.24-7.92-12.07-14.67-19.9-20.02-15.64-10.71-35.5-15.33-54.15-11.43-22.92,4.8-41.76,22.13-65.19,24.85-23.46,2.7-40.82-16.11-61.96-22.53-21.55-6.54-39.82,4.62-58.41,14.05-10.98,5.56-21.77,9.04-34.22,8.16-12.97-.93-25.66-4.93-38.74-4.56-20.11.58-38,13.18-46.51,31.27-3.36,7.14-5.08,14.79-5.02,22.58-5.36-1.76-11.3-.75-16.35,2.75-8.11,5.59-10.28,15.93-11.46,25.06-2.96,22.89-2.99,46.56,15.15,63.34,10.07,9.31,21.58,17.27,32.38,25.72,10.04,7.86,20.16,18.11,31.56,23.92,6.96,3.54,16.69,3.81,19.98-4.78,3.54-9.28-5.29-19.6-8.22-27.94-7.16-20.4-6.28-46.83,13.16-60.23,21.52-14.84,49.55-7.47,71.83,1.26,24.46,9.58,49.47,22.47,76.58,19.28,24.77-2.91,43.06-23.37,67.55-26.21,24.43-2.84,47.87,13.57,53.06,37.64,2.81,13.04-.1,24.91-6.16,36.49-4.26,8.19-7.19,18.33,1.05,25.22,8.7,7.28,15.82-1.2,21.83-7.25,8.83-8.89,18.01-17.47,26.43-26.75,15.32-16.82,28.02-36.23,30.74-59.31,1.25-10.81.19-21.84-4.08-31.89Z"/>
        </g>
        <g class="cls-7">
          <path class="cls-5" d="m77.58,103.16c-.09-1.03-.85-2.09-2.01-2.01-7.5.52-15.01,1.03-22.51,1.55-1.84.13-2.37,2.22-1.57,3.34.03.08.05.15.08.23,1.1,2.42,2.78,4.52,4.85,6.18,2.49,2,5.22,3.99,8.37,4.77,3.28.81,5.68.26,8.51-1.37,1.53-.88,2.75-2.27,3.47-4.04,1.1-2.71,1.06-5.78.81-8.65Z"/>
        </g>
        <g class="cls-2">
          <path class="cls-5" d="m103.02,82.58c-.32-1.45-.78-2.87-1.23-4.2-.64-1.92-2.45-9.19-5.68-6.34-.83.73-1.03,2.23-1.48,3.21-.7,1.56-1.37,3.12-2.09,4.67-1.47,3.15-3.03,6.24-4.69,9.3-.75,1.38.38,2.47,1.5,3.14,4.04,2.44,11.16,2.71,13.37-2.39,1.01-2.32.85-4.9.3-7.39Z"/>
        </g>
        <g class="cls-11">
          <path class="cls-5" d="m368.06,61.32c-.37-1.63-1.78-3.19-2.94-4.41-1.57-1.64-3.35-3.06-4.98-4.63-2.85-2.75-5.7-5.5-8.55-8.25-1.09-1.05-2.52-.51-3.14.48-.17.15-.32.33-.45.56-2,3.73-3.92,7.76-2.98,12.09.76,3.52,3.41,6.6,6.59,8.21,3.7,1.88,8.01,2.03,12,1.09,1.26-.3,2.61-1.03,3.51-1.97.98-1.04,1.18-2.12.94-3.17Z"/>
        </g>
        <g class="cls-8">
          <path class="cls-5" d="m405.88,58.54c.05-1.63.02-3.53-.53-4.83-1.2-2.83-5.33-.14-6.91.87-1.32.84-2.64,1.68-3.95,2.52-4.5,2.49-8.95,5.09-13.33,7.79-.41.25-.67.58-.81.93-.38.55-.52,1.29-.33,1.93-.03.56.16,1.12.54,1.6,4.05,5.12,11.68,6.68,17.49,3.82,2.98-1.47,5.26-4.1,6.54-7.14.81-1.92,1.16-4.01,1.24-6.09.01-.42.03-.89.05-1.4Z"/>
        </g>
        <g class="cls-13">
          <path class="cls-5" d="m197.07,44.98c-1.07-1.22-5.13.05-6.5.21-3.75.43-7.45.4-11.21.38-1.89,0-5.32.22-4.32,2.99,1.51,4.19,6.04,7.08,10.5,6.63,4.75-.48,9.48-4.54,11.43-8.81.18-.39.33-.83.2-1.23-.03-.07-.06-.12-.1-.17Z"/>
        </g>
        <g class="cls-4">
          <path class="cls-5" d="m223.57,27.03c-.08-.25-.34-.44-.61-.48-.23-.12-.52-.12-.76.1-2.32,2.11-4.65,4.22-6.97,6.33-1.16,1.06-2.32,2.11-3.49,3.17-.57.51-2.97,2.06-2.62,2.94.75,1.91,4.69,2.61,6.42,2.58,7.8-.14,10.1-8.33,8.03-14.64Z"/>
        </g>
        <g class="cls-6">
          <g>
            <path class="cls-5" d="m196.66,268.99c-9.4,3.4-19.47.02-28.89-.64-5.4-.38-13.2,2.96-17.92-.26-4.12-2.81-3.55-8.68-4.3-12.97-.84-4.84-1.9-9.89-3.41-14.57-1.1-3.41-1.62-6.34-4.13-8.96-2.3-2.4-4.91-4.9-7.35-7.28-3.9-3.78-8.18-7.09-12.33-10.54-4.35-3.63-8.05-8.3-12.04-12.37-3.21-3.27-6.01-7-9.53-9.96-3.27-2.75-7.18-4.52-10.16-7.65-.75-.8-1.27-1.57-1.58-2.32-7.77-5.23-16.47-13.18-9.33-19.58,6.59-5.92,18.09-8.24,26.09-11.78,9.72-4.31,18.35-10.36,28.57-13.39,10.83-3.2,21.21-5.28,32.28-7.22,4.54-.8,10.19-3.59,15.21-3.25,1.94.13,3.79.74,5.44,2.09,5.64,4.66,6.74,15.86,8.09,22.61-5.34,3.04-12.82,2.38-18.77,5.12-9.67,4.46-19.57,9.95-28.62,15.69-2.82,1.79-5.72,3.72-8.68,5.63,3.89.11,7.77.18,11.62.32,8.27.3,15.7,1.72,23.8,3.2,5.54,1.02,11.4,1.76,16.98.55,3.89-.84,7.53-4.98,11.5-4.47-.3,2.85-.17,5.71-.07,8.57.22,6.75.71,13.61.65,20.36-.08,8.05.28,16.05.29,24.11.01,9.06-.23,18,.32,27.06.31,5.23,1.94,9.85-3.73,11.9Z"/>
            <path class="cls-5" d="m386.15,167.43c-1.34,4.92-6.33,9.68-9.64,13.5-10.44,12.06-24.76,19.79-35.68,31.49-11.26,12.05-20.26,25.83-24.53,41.78-.81,3.01-.36,9.43-2.87,10.93-3.53,2.12-12.55.33-16.4.32-8.51-.04-17.06-.99-25.58-.66-4.54.18-8.19,1.8-10.34-2.76-2.99-6.35-3.59-15.43-3.83-22.32-.3-8.87.48-17.58,1.66-26.36.99-7.33,3.69-13.95,5-21.09,1.31-7.19-.11-14.74-2.55-21.42.1-.74.27-.08.68-.21,2.64-1.1,7.58.44,11.07.63,7.14.39,14.23,1.24,21.35,1.6,8.25.42,16.52-.33,24.76-.93,6.1-.45,12.2-.6,18.29-1.26-6.57-3.41-13.39-6.35-20.2-9.28-8.59-3.69-17.43-8.42-26.44-10.92-4.18-1.16-8.88-.13-13.04-1.93-7.44-3.22.09-12.55,2.28-17.23,1.26-2.71,3.62-12.48,6.44-13.59,3.04-1.19,8.97,3.76,11.64,4.94,17.81,7.84,38.81,8.44,56.4,16.81,7.05,3.34,12.57,8.77,19.28,12.51,4.02,2.23,9.83,3.08,11.65,7.81.02.04.03.07.04.11,1.17,2.27,1.12,5.47.56,7.53Z"/>
            <path class="cls-3" d="m264,131.7c.36-.25,4.59,8.04,5,8.84,1.1,2.19,2.19,4.31,2.93,6.64,1.59,5.02,1.85,10.28,3.42,15.27.52,1.67,1.98,4.03,1.64,5.83-.39,2.06-3.5,2.03-5.13,2.37-3.39.72-8.48,2.66-11.75.89-.56-.3-1.06-.7-1.5-1.16-2.33-2.44-2.73-6.47-3.49-9.61-.85-3.51-.83-7.23-.36-10.79.87-6.56,3.51-14.35,9.24-18.28Z"/>
            <path class="cls-3" d="m202.69,133.23c-1.04,2.56-.3,6.82-.57,9.78-.41,4.38-1.14,8.91-2.64,13.08-1.79,4.98-4.42,9.23-6.84,13.92-2.04,3.94-5.81,8.89-6.3,13.25,10.35,4.21,24.99-9.18,28.79-17.76,3.15-7.12-.07-13.62-3.91-19.71-2.44-3.89-5.41-9.73-8.53-12.56Z"/>
            <path class="cls-1" d="m200.22,100.46c-.34,9.86,2.76,18.93,3.68,28.57.31,3.23.03,6.54.68,9.74.79,3.91,3.15,5.05,5.15,8.09,4.17,6.35,2.3,16.4-1.34,22.47-1.37,2.28-3.44,3.84-5.44,5.55-3.92,3.34-3.07,5.46-2.84,10.29.11,2.23-.31,4.39-.35,6.67-.1,5.64.78,11.25,1.51,16.82.72,5.5-.16,10.24.01,15.7.23,7.7.7,15.39.36,23.09-.2,4.51-.56,8.91-.97,13.4-.23,2.52-1.33,5.72,1.53,6.95,2.92,1.25,8.91-.88,12.03-1.18,8.31-.82,16.66-.94,25.01-.94,5.91,0,13.65,1.5,19.45-.06,3.86-1.04,2.06-4.94,1.55-8.37-.88-5.87-2.03-12.01-1.85-17.94.25-8.4.59-16.7,1.31-25.09.56-6.53,1.01-13.4,2.14-19.78.82-4.63,2.39-9.49,3-14.03.57-4.21-3.55-6.71-6.04-9.37-3.87-4.13-4.31-10-3.69-15.36.58-5.04,2.2-7.61,4.44-12.05,2.27-4.51,3.15-9.17,3.42-14.12.29-5.4,2.03-10.55,2.77-15.88.93-6.69,2.09-13.45,2.17-20.22.07-5.47-4.49-9.06-9.11-11.46-12.86-6.68-31.65-11.69-44.78-3.31-7.35,4.69-10.24,11.53-12.22,19.36-.29,1.23-.72,2.6-1.58,2.46Z"/>
            <path class="cls-3" d="m201,105.41c-3.31-2.85-4.02-11.03-4.49-15.25-.63-5.53.52-11.09,2.4-16.31,2.25-6.24,6.35-12.4,11.74-16.42,5.17-3.86,12.24-4.46,18.45-5.27,19.38-2.52,44.74,7.18,43.07,30.58-.25,3.51-2.11,17.3-7.51,16.68-1.71-.19-2.69-1.61-4.49-1.84-2.52-.32-4.61.09-7.12-.79-2.32-.81-2.85-.83-5.26-.48-3.06.44-5.54-.17-8.55-.62-2.35-.35-2.82.69-5.13,1.11-1.98.36-3.82-.43-5.73-1.19-3.46-1.36-6.05-3.49-9.15-5.5-1.62-1.05-3.87-2.47-5.84-1.54-3.46,1.64-8.6,18.25-12.39,16.84Z"/>
            <path class="cls-1" d="m274.35,84.21c-.85-.11-1.64,1.05-2.59,3.55-1.44,3.77-.77,9.65-2.02,13.48-3.11,9.49-3.01,16.06-5.89,26.96-.83,3.15-1.05,7.18,2.1,8.94,7.35,4.12,10.55-2.43,13.91-8.13,4.35-7.39,1.53-13.11.3-21.43-.95-6.37-1.52-12.22-4.35-18.07-1.04-2.1-.7-5.2-1.46-5.3Z"/>
            <path class="cls-1" d="m195.81,78.82c-2.44,3.63-1.56,10.19-.12,14.1,2.04,5.54,4.75,11.17,5.35,17.16.47,4.65-.22,9.47-.01,14.14.2,4.36,1.9,9.64,1.04,13.96-.39,1.97-.67,2.35-2.8,3.14-1.78.66-5.4,2.06-7.31,1.89-2.8-.25-4.21-3.57-5.4-6-3.06-6.23-2.26-11.07-1.62-17.65.53-5.45-1.76-11.19-.66-16.52.5-2.42,2.01-4.54,2.63-6.95.85-3.29,1.26-6.52,2.41-9.74.83-2.33,2.39-8.76,6.49-7.53Z"/>
            <path d="m272.76,83.99c-1.95,7.84-3.68,15.74-5.19,23.68-1.11,5.84-2.1,11.69-2.98,17.57,1.17-10.51,2.34-21.01,3.51-31.52.16-1.44.32-2.89.48-4.33.06-.56-.81-.55-.88,0-1.25,11.19-2.49,22.38-3.74,33.56-.31,2.81-.63,5.63-.94,8.45-.29,2.64-.49,5.33-1.07,7.93-.52,2.35-1.46,4.54-2.99,6.42-1.41,1.74-3.16,3.17-5.02,4.41-4.06,2.7-8.7,4.96-13.51,5.9-5,.97-10.13.2-14.91-1.44-4.74-1.63-9.27-4.03-13.47-6.75-1.88-1.22-3.73-2.63-5.04-4.48-1.46-2.08-1.94-4.55-2.35-7.01-1.83-11.02-3.07-22.15-3.74-33.3-.08-1.36-.16-2.73-.22-4.09-.03-.56-.9-.56-.88,0,.55,11.46,1.7,22.88,3.45,34.22.41,2.64.68,5.43,1.6,7.95.81,2.2,2.25,4.01,4.03,5.5,1.82,1.52,3.87,2.74,5.92,3.92,2.26,1.3,4.57,2.5,6.96,3.53,4.66,2.01,9.68,3.41,14.79,3.25,5.22-.15,10.12-2.07,14.64-4.55,3.94-2.16,7.92-4.92,10.06-9,1.18-2.25,1.67-4.74,2-7.24.01-.07.02-.14.02-.21.1.25.28.48.56.64.74.42,1.84.33,2.66.4l3.47.3c.56.05.56-.83,0-.88-.95-.08-1.89-.17-2.84-.25-.46-.04-.91-.08-1.37-.12-.42-.04-.91,0-1.32-.15-.79-.27-.33-1.76-.25-2.36.13-.99.26-1.97.39-2.95.52-3.81,1.09-7.61,1.7-11.41,1.24-7.59,2.67-15.15,4.3-22.66.92-4.24,1.91-8.47,2.95-12.69.2-.56-.64-.79-.78-.24Z"/>
            <path d="m227.86,50.6c-8.04-.8-15.18,4.06-20.26,9.84-2.6,2.96-4.99,6.2-6.99,9.59-2.1,3.56-3.56,7.38-4.14,11.48-.67,4.68-.4,9.42.08,14.11.06.55.93.56.88,0-.41-4.02-.68-8.07-.32-12.1.36-4.05,1.48-7.92,3.39-11.5,1.83-3.43,4.15-6.65,6.61-9.65,2.41-2.93,5.15-5.67,8.39-7.68,3.68-2.29,8-3.64,12.36-3.2.56.04.56-.83,0-.89Z"/>
            <path d="m266.13,63.96c-4.64-5.35-10.99-8.88-17.68-11.03-3.92-1.26-7.98-2.06-12.06-2.58-.56-.07-.55.81,0,.88,7,.89,14.02,2.67,20.2,6.17,5.73,3.24,10.57,8.01,13.36,14.02,1.53,3.29,2.35,6.88,2.26,10.51-.01.56.86.56.88,0,.16-6.66-2.66-13.01-6.96-17.97Z"/>
            <path d="m213.59,86.42c-3.41,5.56-7.09,10.94-11.03,16.14-.34.45.42.89.76.44,3.94-5.2,7.62-10.58,11.03-16.14.29-.48-.46-.92-.76-.44Z"/>
            <path d="m231.08,97.32c-5.92-2.79-10.6-7.99-12.85-14.14-.63-1.74-1.08-3.55-1.3-5.38-.07-.55-.94-.56-.88,0,.82,6.73,4.38,13.02,9.69,17.23,1.51,1.2,3.15,2.23,4.89,3.05.51.23.95-.52.45-.76Z"/>
            <path d="m237.66,96.27c-4.8-4.38-8.16-10.23-9.57-16.57-.4-1.79-.63-3.61-.71-5.45-.02-.56-.9-.56-.88,0,.27,6.67,2.65,13.2,6.72,18.49,1.15,1.49,2.42,2.88,3.81,4.15.43.38,1.05-.24.63-.62Z"/>
            <path d="m253.2,96.04c-4.82-2.16-8.45-6.55-9.65-11.7-.13-.55-.97-.32-.84.23,1.24,5.34,5.04,9.97,10.05,12.22.51.24.96-.52.44-.75Z"/>
            <path d="m262.13,97.86c-3.48-3.77-6.46-7.98-8.87-12.51-.26-.5-1.02-.06-.76.44,2.45,4.59,5.48,8.86,9.01,12.68.38.43,1-.2.62-.61Z"/>
            <path d="m202.35,135.24c-1.05-4.5-.83-9.17-.99-13.75-.17-4.68-.85-9.32-1.87-13.89-1.03-4.62-2.53-9.11-3.63-13.71-1.17-4.87-1.69-10.2.44-14.9.23-.51-.52-.95-.76-.44-3.78,8.36.13,17.46,2.24,25.71,1.15,4.5,2.06,9.08,2.48,13.71.4,4.49.14,9.02.59,13.5.12,1.18.29,2.35.53,3.51.13.63.29,1.25.47,1.86.17.58.45,1.25.25,1.86-.33,1.01-1.7,1.46-2.59,1.77-1.2.41-2.45.63-3.71.67-.56.02-.56.89,0,.88,1.99-.06,4.27-.49,5.96-1.63.71-.48,1.25-1.15,1.29-2.03.06-1.04-.46-2.12-.7-3.12Z"/>
            <path d="m194.13,77.27c-5.43,4.75-7.1,12.16-7.44,19.08-.11,2.3-.1,4.61-.09,6.92,0,.56.88.56.88,0-.04-7.16-.04-14.78,3.75-21.12.95-1.59,2.12-3.03,3.52-4.25.42-.39-.2-1-.62-.63Z"/>
            <path d="m185.7,101.78c-3.3,1.84-2.03,6.44-1.66,9.41.49,3.89.81,7.81.36,11.72-.06.56.81.55.88,0,.42-3.62.17-7.26-.25-10.87-.21-1.76-.56-3.53-.64-5.3-.08-1.58.26-3.37,1.76-4.21.49-.27.05-1.03-.45-.75Z"/>
            <path d="m193.11,150.4c-2.33-7.12-5.41-13.99-9.17-20.46-1.08-1.86-2.22-3.69-3.41-5.48-.31-.47-1.07-.03-.76.44,4.12,6.2,7.61,12.83,10.34,19.76.69,1.75,1.33,3.52,1.93,5.31-8.21,2.69-16.32,5.68-24.31,8.96-8.06,3.31-15.99,6.9-23.79,10.79-4.4,2.19-8.75,4.48-13.06,6.85-.49.27-.05,1.03.44.76,7.59-4.18,15.34-8.09,23.22-11.71,7.94-3.65,16.01-7,24.19-10.05,4.5-1.68,9.04-3.27,13.61-4.76.28.3.93.07.77-.41Z"/>
            <path d="m177.9,126.87c-7.28.83-14.53,1.97-21.71,3.42-7.21,1.46-14.35,3.23-21.41,5.31-7.09,2.09-14.08,4.48-20.96,7.17-6.82,2.67-13.54,5.63-20.11,8.87-6.59,3.26-13.05,6.8-19.33,10.62-.78.47-1.55.95-2.32,1.43-.48.3-.04,1.05.44.76,6.22-3.87,12.6-7.47,19.13-10.78,6.52-3.31,13.19-6.34,19.98-9.08s13.7-5.18,20.7-7.33c6.97-2.14,14.03-3.97,21.16-5.51,7.18-1.54,14.44-2.78,21.73-3.69.9-.11,1.8-.22,2.7-.32.56-.05.56-.93,0-.87Z"/>
            <path d="m199.09,176.94c-6.54,3.95-14.23,4.98-21.75,4.77-8.07-.22-16.07-1.7-24.04-2.91-5.04-.77-10.08-1.53-15.12-2.3-.55-.08-.79.76-.23.84,8.86,1.35,17.7,2.77,26.57,4.02,7.64,1.08,15.48,1.87,23.15.59,4.18-.7,8.23-2.07,11.86-4.26.48-.28.05-1.04-.44-.75Z"/>
            <path d="m201.45,200.97c-.3-6.21-.73-12.42-1.27-18.62-.05-.56-.92-.56-.88,0,.95,10.95,1.54,21.94,1.76,32.93.21,10.99.06,21.99-.47,32.97-.3,6.21-.72,12.42-1.25,18.62-.05.56.83.56.88,0,.95-10.95,1.53-21.94,1.73-32.93.2-10.99.03-21.99-.5-32.97Z"/>
            <path d="m142.98,238.28c-1.19-2.58-2.53-5.08-4.01-7.51-.29-.48-1.05-.04-.76.44,5.19,8.48,8.59,18.01,9.96,27.86.39,2.81.6,5.63.65,8.47.01.56.89.56.88,0-.19-10.09-2.5-20.1-6.72-29.26Z"/>
            <path d="m265.49,179.56c-2.57,10.04-4.42,20.26-5.54,30.57-1.12,10.33-1.51,20.75-1.14,31.14.21,5.86.65,11.7,1.33,17.53.06.55.94.56.88,0-1.2-10.29-1.66-20.67-1.38-31.02.28-10.35,1.3-20.69,3.05-30.89.99-5.74,2.21-11.44,3.65-17.09.13-.56-.71-.79-.85-.24Z"/>
            <path d="m265.47,172.82c-4.78,4.76-9.38,9.7-13.78,14.81-3.74,4.35-7.27,8.85-10.75,13.41-.12-.1-.26-.19-.44-.22-.31-.05-.66.02-.97.04-.43.03-.86.07-1.3.1-1.66.13-3.31.27-4.97.4-3.7.3-7.39.6-11.09.89-3.36-2.99-6.63-6.1-9.66-9.43-4.48-4.94-8.41-10.39-11.17-16.48-.23-.51-.99-.07-.76.44,2.51,5.52,5.97,10.54,9.93,15.11,3.45,3.98,7.27,7.63,11.21,11.13l.03.03c.62.55,1.24,1.11,1.87,1.66,2.3,2,4.59,4.07,7.01,5.93.67.52,1.4.83,2.13.8-.1.07-.18.18-.18.33-.53,13.39-.8,26.79-.81,40.19,0,3.79.02,7.57.05,11.36.01.56.88.56.88,0-.14-13.4-.02-26.8.37-40.2.11-3.79.24-7.57.39-11.36.01-.21-.11-.34-.26-.4.12-.03.24-.07.36-.13.89-.26,1.48-1.19,2.06-1.94.24-.31.49-.63.73-.94.39-.48.79-.96,1.18-1.45,1.02-1.29,2.01-2.6,3-3.91.12-.14.23-.29.34-.44.97-1.29,1.94-2.59,2.93-3.87,2.12-2.75,4.3-5.45,6.53-8.11,4.44-5.3,9.1-10.42,13.96-15.34.6-.61,1.2-1.21,1.8-1.81.4-.38-.22-.99-.62-.6Z"/>
            <path d="m212.77,154.57c-.33-2.34-1.1-4.6-2.29-6.65-.28-.49-1.04-.05-.76.44,4.04,6.98,2.62,15.76-2.3,21.9-1.33,1.66-2.88,3.15-4.6,4.42-.45.33-.01,1.09.44.76,6.53-4.82,10.67-12.66,9.51-20.87Z"/>
            <path d="m261.42,174.77c-1.15-1.89-2.29-3.78-3.44-5.67-1.06-1.74-2.1-3.52-2.31-5.58-.22-2.11-.02-4.31.16-6.42.19-2.25.49-4.48.9-6.69.1-.55-.74-.79-.84-.23-.65,3.49-1.04,7.02-1.14,10.57-.05,1.69-.04,3.39.53,5,.53,1.52,1.39,2.88,2.22,4.25,1.05,1.74,2.11,3.48,3.16,5.21.29.49,1.05.05.76-.44Z"/>
            <path d="m331.46,170.43c-8.78-.11-17.56-.14-26.34-.09-8.78.05-17.56.19-26.34.41-.56.01-1.12.04-1.67.05-.96-3.98-1.16-8.1-1.81-12.14-.73-4.49-2.31-8.7-4.37-12.74-1.18-2.32-2.47-4.58-3.77-6.83-.28-.49-1.04-.05-.76.44,2.27,3.94,4.56,7.91,6.16,12.18.8,2.14,1.4,4.33,1.79,6.58.4,2.28.62,4.59.91,6.89.24,1.9.52,3.79.95,5.65-4.1.11-8.2.23-12.29.38-.56.02-.56.9,0,.88,4.17-.15,8.35-.28,12.52-.39.1.37.19.74.3,1.1.16.54,1.01.31.84-.23-.09-.3-.16-.6-.25-.9,4.3-.11,8.61-.21,12.91-.28,8.78-.15,17.56-.21,26.34-.19,4.95.01,9.91.05,14.86.11.59,0,.59-.87.02-.88Z"/>
            <path d="m347.86,176.42c-9.52-4.56-19-9.2-28.59-13.6-9.22-4.23-18.59-8.2-28.25-11.3-5.41-1.74-10.91-3.2-16.5-4.28-.12-.02-.23,0-.31.06.96-7.64,3.57-15.05,7.58-21.61,1.16-1.9,2.44-3.72,3.83-5.46.35-.44-.27-1.06-.62-.62-.47.59-.91,1.19-1.35,1.79-1.56-4.95-2.48-10.08-2.71-15.26-.11-2.48-.15-4.99-1.08-7.34-.91-2.29-2.27-4.36-3.17-6.66-1.03-2.64-1.69-5.41-1.96-8.23-.05-.56-.93-.56-.88,0,.24,2.5.75,4.96,1.57,7.34.8,2.32,1.99,4.42,3.06,6.62.57,1.17,1,2.38,1.22,3.66.22,1.29.27,2.6.32,3.9.11,2.57.34,5.13.75,7.67.47,2.93,1.16,5.81,2.06,8.64.06.18.19.27.34.29-4.04,5.68-7.01,12.11-8.68,18.88-.54,2.18-.93,4.38-1.2,6.61-.05.42.42.52.7.31.04.12.12.22.29.26,9.91,1.93,19.54,5.04,28.92,8.76,9.45,3.74,18.64,8.09,27.8,12.47,5.47,2.62,10.94,5.24,16.41,7.86.51.24.96-.52.45-.76Z"/>
            <path d="m385.85,156.94c-2.33-2.08-5.13-3.45-7.99-4.66-3.03-1.28-6.04-2.51-8.93-4.1-3.01-1.66-5.9-3.52-8.86-5.26-3.04-1.78-6.18-3.35-9.44-4.7-6.75-2.81-13.76-5.07-20.72-7.31-7.01-2.26-14.07-4.37-21.17-6.33-3.49-.96-6.99-1.85-10.49-2.77-3.32-.87-6.64-1.83-9.75-3.28-.77-.36-1.53-.75-2.26-1.17-.49-.28-.93.48-.44.76,6,3.39,12.94,4.68,19.53,6.44,7.11,1.91,14.18,3.97,21.21,6.19,6.97,2.2,13.94,4.49,20.77,7.09,3.35,1.28,6.65,2.7,9.8,4.41,3.02,1.64,5.91,3.5,8.87,5.24,2.89,1.7,5.84,3.22,8.94,4.5,2.88,1.19,5.83,2.32,8.42,4.08.66.45,1.29.94,1.89,1.48.42.38,1.04-.24.62-.61Z"/>
            <path d="m387.57,161.85c-.27-.89-.67-1.73-1.19-2.51-.31-.47-1.07-.03-.76.44,2.25,3.39,1.83,7.82.1,11.34-1.84,3.74-4.91,6.73-7.9,9.56-6.29,5.96-13.22,11.17-19.86,16.71-3.33,2.78-6.6,5.64-9.66,8.71-3.15,3.16-6.06,6.55-8.84,10.05-2.79,3.52-5.44,7.14-8.08,10.77-2.59,3.56-5.19,7.11-7.64,10.77-2.46,3.67-4.77,7.44-6.75,11.39-1.88,3.76-3.91,7.9-4.02,12.19-.03,1.05.09,2.09.34,3.11.14.55.98.32.84-.23-1.09-4.4.89-8.91,2.73-12.83,1.87-4,4.11-7.82,6.52-11.52,2.42-3.71,5.01-7.31,7.61-10.89,2.67-3.67,5.33-7.35,8.12-10.94,2.77-3.56,5.67-7.03,8.82-10.27,3.02-3.12,6.26-6.01,9.57-8.81,6.64-5.6,13.61-10.81,19.98-16.72,3-2.78,6.09-5.7,8.21-9.23,2-3.28,3.02-7.33,1.86-11.09Z"/>
            <path d="m199.73,145.04c-1.39,9.64-4.39,19.03-8.88,27.67-1.26,2.43-2.65,4.8-4.13,7.11-.31.47.45.91.76.44,5.31-8.21,9.22-17.32,11.53-26.82.66-2.7,1.18-5.42,1.57-8.17.07-.54-.77-.78-.85-.23Z"/>
            <path d="m243.36,139.6c-5.38-.78-10.87-.42-16.11,1.08-.54.15-.31,1,.23.84,5.07-1.45,10.42-1.83,15.64-1.08.56.08.79-.76.24-.84Z"/>
            <path d="m242.42,124.16c-.89.49-1.78.96-2.68,1.42-.42.21-.84.42-1.27.63-.41.2-.87.5-1.34.52-.5.03-1-.31-1.43-.54-.37-.2-.74-.41-1.09-.64-.78-.5-1.5-1.08-2.18-1.71-.41-.38-1.03.23-.62.62.73.68,1.52,1.3,2.36,1.85.79.51,1.8,1.22,2.76,1.29.96.08,1.98-.63,2.8-1.04,1.06-.53,2.1-1.07,3.13-1.64.49-.27.05-1.03-.44-.76Z"/>
            <path d="m137.7,230.41c-8.68-7.14-17.17-14.52-25.44-22.13-8.27-7.61-16.34-15.45-24.17-23.51-4.42-4.54-8.76-9.15-13.04-13.83-.38-.42-1,.2-.62.62,7.58,8.3,15.39,16.39,23.42,24.26,8.03,7.87,16.28,15.51,24.74,22.92,4.77,4.17,9.6,8.27,14.49,12.3.44.34,1.06-.27.62-.63Z"/>
            <path d="m229.51,217.94c-1.06,2.09-2.31,4.08-3.73,5.94-.72.95-1.48,1.9-2.32,2.74-.64.64-1.82,1.62-2.78,1.09-.9-.49-.84-1.84-.88-2.71-.06-1.3-.12-2.59-.18-3.89-.13-2.65-.24-5.31-.38-7.96-.1-1.95-.49-3.86-2.27-4.95-1.46-.9-3.25-1.05-4.88-1.42-1.89-.44-3.46-1.29-4.57-2.92-1.08-1.56-1.67-3.41-2.11-5.24-1.35-5.53-2.16-11.25-2.75-16.91-.06-.55-.93-.56-.88,0,.56,5.4,1.39,10.77,2.54,16.08.79,3.65,2.13,7.87,5.94,9.36,1.74.68,3.66.72,5.41,1.39.84.32,1.6.84,2.05,1.62.63,1.08.61,2.4.67,3.61.13,2.77.26,5.55.39,8.32.06,1.29.07,2.6.2,3.88.09.9.32,1.88,1.12,2.42,2.18,1.45,4.49-1.63,5.65-3.06,1.74-2.15,3.25-4.47,4.51-6.94.26-.51-.5-.95-.75-.45Z"/>
            <path d="m263.32,179.06c-1.69,5.01-3.37,10.03-5.06,15.04-.81,2.39-1.61,4.79-2.48,7.16-.84,2.31-1.65,4.75-2.94,6.85-1.15,1.87-3.12,3.02-4.13,4.98-.86,1.68-1.13,3.57-1.31,5.43-.2,2.02-.27,4.07-.85,6.03-.26.89-.65,2.14-1.51,2.63-1.01.57-2.12-.36-2.77-1.07-.86-.93-1.55-2.05-2.2-3.13-.65-1.09-1.23-2.23-1.74-3.39-1.02-2.38-1.71-4.91-2.04-7.47-.07-.55-.95-.56-.88,0,.61,4.7,2.33,9.23,5.06,13.1,1.03,1.46,2.93,3.89,5,2.71.87-.5,1.32-1.5,1.65-2.39.36-.96.58-1.96.72-2.97.31-2.1.31-4.24.73-6.33.19-.98.48-1.95.95-2.84.55-1.02,1.36-1.79,2.19-2.59,1.81-1.73,2.78-3.89,3.69-6.17.99-2.47,1.88-4.99,2.74-7.51,2.02-5.94,4-11.89,6.01-17.84.19-.53-.65-.76-.83-.23Z"/>
          </g>
        </g>
      </g>
    </g>
  </g>
</svg>