<?xml version="1.0" encoding="UTF-8"?>
<svg id="Layer_2" data-name="Layer 2" xmlns="http://www.w3.org/2000/svg" xmlns:xlink="http://www.w3.org/1999/xlink" viewBox="0 0 487.39 247.57">
  <defs>
    <style>
      .cls-1 {
        fill: #fff;
      }

      .cls-2 {
        fill: #ef5a24;
      }

      .cls-3 {
        clip-path: url(#clippath-1);
      }

      .cls-4 {
        clip-path: url(#clippath);
      }

      .cls-5 {
        fill: none;
      }

      .cls-6 {
        fill: #28597e;
        stroke: #000;
        stroke-miterlimit: 10;
        stroke-width: 2px;
      }

      .cls-7 {
        fill: #241f20;
      }

      .cls-8 {
        fill: #f6921d;
      }
    </style>
    <clipPath id="clippath">
      <rect class="cls-5" x="1" y="1" width="485.39" height="245.57"/>
    </clipPath>
    <clipPath id="clippath-1">
      <rect class="cls-5" x="1" y="1" width="485.39" height="245.57"/>
    </clipPath>
  </defs>
  <g id="Layer_1-2" data-name="Layer 1">
    <g>
      <rect class="cls-6" x="1" y="1" width="485.39" height="245.57"/>
      <g>
        <g class="cls-4">
          <g>
            <path class="cls-8" d="m83.86,141.65c-1.37-.12-2.31,1.06-4.34,2.95-4.84,4.51-9.15,9.65-12.98,15.04-4.99,7.03-10.36,14.16-11.47,22.99-1.42,11.25,3.01,23.65,6.73,34.06,3.82,10.67,4.85,21.35,6.25,32.54,1.13,9.02,1.06,18.27,2.17,27.18,5.05-.81,11.56-.42,16.79-.3,6.31.14,12.5,1.59,18.83,1.58,5.89-.01,11.76-.35,17.66-.34,9.37.02,18.41-1.15,27.69-.58,1.59.1,5.55.64,6.9-.54,1.37-1.2.31-2.45-.22-4.52-2.67-10.4-3.39-21.2-4.27-31.87-.79-9.54-.28-19.19-1.9-28.66-1.3-7.62-4.35-18.41-10.24-23.78-3.03-2.76-6.71-4.26-9.68-7.29-6.69-6.83-14.46-12.68-21.18-19.6-4.89-5.03-10.82-9.13-16.69-12.96-2.44-1.59-5.05-2.86-7.4-4.59-1.13-.84-1.95-1.25-2.65-1.31Z"/>
            <path class="cls-1" d="m149.41,204.63c4.04,9.09,4.53,20.65,5.39,30.44.72,8.29,1.38,16.55,1.8,24.83.18,3.47,0,7-.01,10.48,0,1.29-.58,6.45.44,7.53,1.53,1.64,10.27-1.18,12.31-2.01,2.22-.9,1.62.24,1.77-2,.17-2.51-1.22-4.54-.67-7.35,1.13-5.78,4.19-11.69,6.81-16.9,5.57-11.09.07-22.85-6.22-32.61-4.81-7.45-13.62-10.52-21.62-12.41Z"/>
            <path class="cls-1" d="m179.93,49.63c1.29,7.36,3.89,14.56,4.2,22.17.27,6.84-1.25,13.45.29,20.23.61,2.67,4.45,8.33,3.53,10.87-1.17,3.24-7.6,3.54-8.93,6.72-.51,1.21.35,3.05.01,4.34-.39,1.52-1.4,2.29-2.33,3.61-2.6,3.67-3.48,8.51-4.56,12.87-1.49,6.05-2.98,5.85-8.66,5.06-4.86-.67-11.22-.94-16.01.27-9.26,2.34-11.48,13.61-13.21,21.75-1.46,6.88-1.83,12.84-.43,19.54-2.73.31-6.25-1.9-8.62-3.06-5.12-2.49-9.54-6.13-13.81-9.79-8.09-6.93-16.95-10.97-23.17-20.01-1.11-1.62-4.18-5.08-3.77-7.21.38-1.95,3.45-3.2,4.81-4.25,6.52-5.02,14-8.56,21.39-12.22,7.96-3.93,13.83-9.16,18.09-16.92,1.19-2.16,3.23-3.77,4.42-5.79,1.57-2.67,1.42-6.32,1.26-9.36-.3-5.45-1.66-18.62,8.03-13.08,2.15,1.23,3.69,4.78,6.09,5.17,3.09.49,6.5-4.27,8.61-6.03,5.17-4.29,13.84-4.68,16.47-11.41,1.36-3.49.88-7.33,2.33-10.78.84-1.96,3.06-4.26,3.97-2.69Z"/>
            <path class="cls-2" d="m146.51,134.59c-4.26,1.03-7.56,8.9-9.36,12.35-2.69,5.16-4.34,9.92-4.34,15.7-.01,8.31,1.72,16.67,5.85,24.01,3.87,6.88,8.76,13.32,14.77,18.48,5.71,4.9,11.42,6.98,18.84,7.91,4.13.52,8.55.92,12.63-.13,1.53-.39,4.7-1.12,4.53-3.08-.12-1.37-3.14-3.24-4.02-4.3-2.47-2.95-3.08-5.89-6.11-8.3-3.05-2.42-5.78-5.11-7.84-8.45-4.14-6.71-5.63-15.57-6.4-23.32-.91-9.09-1.83-16.94-6.28-25.15-1.94-3.6-10.38-10.38-12.27-5.72Z"/>
            <path class="cls-2" d="m83.85,136.78c-1.39-6.28,16.33-13.03,20.79-14.9,6.2-2.6,13.73-4.07,19.13-8.24,6.3-4.87,9.69-14.63,9.01-22.37-.33-3.73-2.39-7.31-1.38-11.06,1.38-5.16,6.39-7.99,11.28-6.57,1.79.52,3.46,1.12,4.05,2.91.37,1.14.32,3.72,1.65,4.27.86.36,3.49-1.79,4.12-2.2,2.75-1.77,5.39-3.8,8.3-5.3,2.63-1.36,5.05-2.94,7.68-4.36,1.17-.63,1.99-.94,2.77-2.04,1.44-2.02,2.18-4.45,2.81-6.83.57-2.17.72-4.72,2.14-6.49,1.11-1.38,2.54-2.97,4.36-3.33.7-.14,6.16.84,5.95,1.28,4.06-8.69-14.3-21.45-20.13-24.95-10.08-6.05-21.96-9.41-33.71-10.18-12.65-.83-23.78,11.44-30.5,21.08-5.11,7.33-10.6,14.95-14.33,23.15-3.46,7.61-3.49,16.82-4.39,25.02-1.82,16.43-3.5,33.53.4,51.11Z"/>
            <path d="m188.67,102.18c-1.05-3.64-3.25-6.84-4.59-10.36-.66-1.73-1.13-3.54-1.11-5.4.02-2.22.73-4.36,1.25-6.5,1.01-4.15,1.11-8.44.63-12.67-.56-4.95-1.79-9.78-3.04-14.58-.27-1.04-1.88-.6-1.61.44,2.1,8.02,4.34,16.51,2.75,24.83-.72,3.77-2.12,7.27-1.39,11.16.65,3.44,2.44,6.53,3.93,9.66.43.91.85,1.82,1.2,2.76.17.45.39.93.46,1.41.12.77-.22.92-.82,1.2-2.23,1.06-4.52,2.04-6.77,3.05-.98.44-.13,1.88.84,1.44,2.13-.96,4.26-1.92,6.39-2.88,1.61-.73,2.41-1.74,1.88-3.56Z"/>
            <path d="m178.87,109.34c-.28-1.04-1.89-.6-1.61.44.39,1.47.89,3.18.31,4.67-.54,1.4-2.05,2.2-2.96,3.34-1.76,2.23-2,5.15-2.2,7.88-.18,2.48-.43,5.38-2.24,7.29-2.38,2.5-6.29.84-9.18.4-3.88-.58-7.81-.67-11.71-.26-1.06.11-1.07,1.78,0,1.67,3.88-.41,7.81-.35,11.66.26,3.15.5,6.78,1.9,9.64-.22,2.14-1.59,2.96-4.36,3.29-6.89.4-3.06.01-6.79,2.19-9.28,1.09-1.25,2.53-2.1,3.11-3.75.65-1.8.18-3.78-.3-5.55Z"/>
            <path d="m143.9,134.08c-4.16,6.01-7.92,12.28-11.24,18.79-2.69,5.27-6.18,12.21-1.7,17.55.69.82,1.86-.36,1.18-1.18-4.27-5.1.34-12.49,2.86-17.27,3.1-5.89,6.56-11.58,10.34-17.05.61-.88-.84-1.71-1.44-.84Z"/>
            <path d="m190.44,212.8c-3.98-9.88-11.9-17.27-17.15-26.39-5.53-9.6-6.9-20.74-9.23-31.38-1.29-5.91-2.92-11.77-5.63-17.21-.48-.96-1.92-.12-1.44.84,4.89,9.8,6.04,20.85,8.51,31.38,1.22,5.19,2.78,10.34,5.21,15.1,2.38,4.68,5.59,8.86,8.75,13.04,3.34,4.42,6.68,8.93,8.93,14.03-11.51.16-23.72-.38-33.73-6.67-8.31-5.22-14.36-13.77-16.97-23.18-1.48-5.34-1.84-10.98-.88-16.44.18-1.05-1.42-1.5-1.61-.44-1.79,10.14.68,20.71,6.3,29.29,2.79,4.27,6.34,8.02,10.49,10.99,4.74,3.39,10.24,5.5,15.92,6.68,7.14,1.47,14.48,1.56,21.74,1.44.47-.03,1-.56.79-1.08Z"/>
            <path d="m185.28,51.42c-2.17-2.26-5.84-4.59-8.82-2.23-1.34,1.06-1.84,2.83-2.32,4.4-.63,2.06-1.09,4.15-1.43,6.28-.59,3.67-1.18,7.38-4.48,9.62-2.88,1.95-6.38,2.66-9.56,3.97-3.99,1.64-7.62,3.98-10.78,6.9-.79.73.39,1.91,1.18,1.18,2.7-2.49,5.76-4.54,9.11-6.06,2.96-1.35,6.16-2.07,9.08-3.5,2.79-1.37,4.92-3.46,5.96-6.43.59-1.69.83-3.47,1.11-5.23.31-1.93.71-3.83,1.26-5.71.53-1.81,1.03-4.31,3.23-4.66,2.15-.35,3.93,1.21,5.3,2.65.73.77,1.9-.41,1.16-1.18Z"/>
            <path d="m147.88,79.36c-1.2-2.66-3-5.27-5.81-6.38-2.63-1.04-5.67-.55-7.47,1.73-4.08,5.16-1.51,12.75,1.52,17.71,1.63,2.67,3.7,5.99,6.97,6.72,1.05.23,1.49-1.38.44-1.61-3.05-.67-5-4.23-6.44-6.73-1.69-2.96-2.99-6.3-2.87-9.76.11-3.16,1.57-7.05,5.31-6.93,3.47.12,5.62,3.22,6.91,6.09.44.98,1.88.13,1.44-.84Z"/>
            <path d="m187.36,50.78c-2.17-6.01-6.18-11.05-10.81-15.38-4.78-4.48-10.12-8.45-15.79-11.72-11.16-6.43-24.52-10.18-37.23-6.48-12.5,3.64-22.16,13.34-28.6,24.33-3.48,5.94-6.25,12.36-8.43,18.88-2.4,7.16-3.44,14.46-3.89,21.97-.92,15.46-1.78,31.04-.84,46.52.12,1.92.27,3.84.44,5.75.01.15.07.28.14.38-.06.07-.12.14-.18.22-.65.85.8,1.68,1.44.84,5.03-6.59,13.6-8.69,21.12-11.03,4.01-1.25,8.05-2.64,11.63-4.88,3.45-2.15,6.23-5.09,8.45-8.47,2.52-3.84,4.31-8.09,6.08-12.3.41-.99-1.2-1.42-1.61-.44-3.17,7.53-6.67,15.42-13.91,19.87-7.05,4.34-15.52,5.36-23,8.73-3.2,1.44-6.16,3.33-8.59,5.83-1.23-14.45-.67-28.98.08-43.44.38-7.42.58-14.94,2.26-22.21,1.56-6.72,4.09-13.27,7.09-19.47,5.51-11.39,13.65-21.93,25.33-27.43,11.86-5.58,25.14-3.76,36.65,1.77,5.8,2.78,11.2,6.37,16.16,10.45,4.81,3.95,9.39,8.4,12.43,13.88.76,1.37,1.41,2.79,1.95,4.27.38,1.01,1.99.58,1.63-.44Z"/>
            <path d="m64.4,165.4c5.96-8.55,12.82-16.48,20.34-23.7.78-.74-.4-1.92-1.18-1.18-6.72,6.46-12.89,13.48-18.41,20.99-2.68,3.64-5.31,7.38-7.2,11.5-1.93,4.21-2.79,8.61-2.7,13.24.09,4.79.75,9.6,1.42,14.34.68,4.8,1.53,9.57,2.45,14.33,1.85,9.53,4,18.99,5.83,28.53,2.05,10.7,3.64,21.51,3.88,32.41.02,1.07,1.69,1.07,1.67,0-.41-19.1-4.97-37.74-8.76-56.37-1.89-9.29-3.6-18.64-4.48-28.09-.45-4.84-.61-9.71.91-14.4,1.34-4.2,3.71-8,6.23-11.6Z"/>
            <path d="m134.08,179.63c-2.38-2.68-5.21-4.87-8.05-7.03-3.19-2.42-6.39-4.84-9.59-7.26l-19.24-14.57c-3.65-2.76-7.3-5.53-10.95-8.29-.86-.65-1.69.8-.84,1.44,12.66,9.59,25.32,19.18,37.98,28.77,3.33,2.52,6.73,4.99,9.51,8.12.71.8,1.89-.38,1.18-1.18Z"/>
            <path d="m178.72,229.46c-1.94-4.18-4.32-8.15-7.06-11.86-.63-.85-2.08-.02-1.44.84,2.4,3.26,4.53,6.72,6.33,10.35,1.83,3.7,3.41,7.53,2.88,11.75-1,8.01-7.11,14.27-10,21.58-1.59,4.02-2.31,8.45-.84,12.62.36,1,1.97.57,1.61-.44-2.87-8.12,2.91-15.86,6.7-22.57,1.9-3.37,3.63-6.96,4.15-10.84.55-4.08-.63-7.78-2.33-11.43Z"/>
            <path d="m154.32,226.44c-.59-4.69-1.26-9.37-1.99-14.04-.17-1.06-1.77-.61-1.61.44,2.58,16.49,4.28,33.11,5.08,49.79.23,4.72.38,9.44.46,14.16.02,1.07,1.69,1.07,1.67,0-.29-16.84-1.5-33.65-3.61-50.35Z"/>
          </g>
        </g>
        <g class="cls-3">
          <g>
            <path class="cls-2" d="m191.73,252.96c16.09,1.89,32.25,5.56,48.45,6.9,17.89,1.48,35.71,2.78,53.62,4.52,16.04,1.55,32.06-.32,48.15.91,17.89,1.37,35.65,3.94,53.33,6.98,8.94,1.54,17.61,3.61,26.56,3.18,7.29-.35,12.78,3.61,19.28,5.7,7.04,2.27,6.07-2.84,7.42-8.29,2.3-9.3,4.46-18.33,4.41-27.97-.07-14.91-11.31-29.44-16.14-43.25-3.9-11.15-10.5-21.75-11.78-33.69-1.14-10.6-3.59-21.92-8.4-31.68-8.45-17.15-39.42-12.7-54.51-12.01-16.7.77-32.71,4.58-49.24,6.33-5.12.54-10.28,1.23-15.44,1.02-5.17-.2-9.19-2.51-14.04-3.33-9.09-1.54-21.34.22-30.5,1.55-12.85,1.86-20.41,3.46-26.57,15.58-6.03,11.88-9.59,23.93-12.66,36.74-3.94,16.47-9.95,32.46-14.31,48.83-1.91,7.17-2.94,15.14-5.58,21.96-.53-.08-.86-.43-2.05.02Z"/>
            <path class="cls-7" d="m297.35,147.88c-2.93,4.19-4.26,13.17-5.4,18.37-1.94,8.81-3.38,18.15-4.53,27.1-1.85,14.43-1.86,29.02-1.86,43.56,0,6.15-2.04,24.16,4.02,27.33,3.31,1.73,11.6-.21,15.15-.05,9.86.46,19.72,1.32,29.6,1.65,6.12.2,23.59,3.84,26.85-3.5,3.02-6.79-1.01-18.13-2.04-25.05-2.64-17.8-1.24-36.06-1.74-54.01-.18-6.54,2.56-22.98-4.71-25.23-10.06-3.11-22.4,3.59-32.8,2.22-5.77-.76-22.82-5.28-22.54-12.39Z"/>
            <path class="cls-1" d="m283.82,51.1c-1.52,3.68-1.73,8.02-2.68,11.88-1.15,4.66-2.47,9.24-2.61,14.06-.16,5.51,3.84,11.31,2.61,16.66-1.01,4.4-3.61,7.18-.53,11.5,1.24,1.75,3.88,2.94,4.52,5.11.5,1.68-.42,3.67-.59,5.31-.37,3.69,1.44,6.38,1.9,10.17.49,4.08-1.14,6.63,3.56,7.75,1.93.46,5.26-.55,7.03.32,2.35,1.15,1.45.96,1.2,3.58-.69,6.98-.15,10.28,5.06,15.41,6.06,5.97,12.26,8.21,20.71,7.4,4.68-.45,10.39.43,14.84-1.03.68-5.15-.47-10.63.05-15.92.47-4.85,2.09-10.62,1.56-15.46-.54-5.05-2.65-10.06-3.2-15.25-.4-3.74-.81-6.83-2.03-10-3.58-9.3-4.94-26.47-14.74-31.8-4.43-2.41-9.35.23-14.01-.13-5.7-.45-6.95-5.56-8.72-10.19-1.79-4.71-2.45-8.41-7.43-10.36-2.87-1.13-4.95-1.19-6.5.99Z"/>
            <path class="cls-8" d="m280.56,50.77c3.14-4.45,11.87,1.33,14.83,3.78,3.75,3.12,3.09,5.68,3.77,10.13.86,5.59,5.86,6.27,10.74,7.19,4.12.78,8.12,1.89,11.4,4.62,6.88,5.7,11.02,18.04,12.71,26.56,1.54,7.77,3.26,15.94,4.21,23.79,1.3,10.72-2.97,21.17,1.96,31.14,3.19,6.44,12.6,2.5,18.58-.65,2.76-1.45,5.42-4.47,8.13-5.64,1.97-.85,4.74.45,6.93-.95,1.91-1.22,1.75-2.57,3.84-3.52,2.84-1.29,6.23-1.33,9.25-3.04,7.04-3.98,11.25-12.02,7.37-19.58-3.7-7.2-15.59-7.33-16.63-15.75-.49-3.95,1.17-7.52.17-11.46-1.5-5.96-6.22-10.04-9.3-15.15-12.09-20.04-14.1-54.49-42.14-59.13-5.23-.87-10.76-1.8-15.86.2-5.89,2.32-11.54,6.62-16.96,9.85-4.75,2.84-8.77,6.88-12.04,11.33-.8,1.11-5.68,8.12-.96,6.28Z"/>
            <path class="cls-7" d="m297.83,31.52c6.4-6.66,17.57-4.22,24.62.57,1.71,1.16,3.17,3.19,4.44,4.83,1.52,1.95,3.22,4.38,4.27,6.64,1.38,2.98,2.43,6.19,3.64,9.24-1.01-.16-2.16-1.39-3.09-2-1.76-1.15-3.24-2.34-4.8-3.73-3.61-3.22-7.63-5.8-12.15-7.54-4.29-1.65-8.65-3.09-12.93-4.75-1.79-.7-3.7-1.39-4-3.26Z"/>
            <path d="m284.57,106.18c-1.28-.85-2.49-1.81-3.6-2.87-.55-.52-1.08-1.06-1.58-1.63-.48-.54-1.08-1.12-1.4-1.76-.39-.79.23-1.52.59-2.22.41-.77.81-1.54,1.22-2.32.81-1.54,1.63-3.09,2.44-4.63.3-.57-.11-1.1-.59-1.23.2-.24.3-.58.15-.94-2.49-5.79-5.09-12.06-3.71-18.47.66-3.09,1.84-6.07,2.85-9.06,1.09-3.22,2.18-6.45,3.26-9.67.34-1.02-1.27-1.46-1.61-.44-1.15,3.42-2.31,6.84-3.46,10.26-1.06,3.14-2.34,6.3-2.86,9.58-1.03,6.53,1.56,12.76,4.09,18.64.11.26.29.38.49.42-.01.02-.03.03-.05.06-.97,1.83-1.93,3.67-2.9,5.5-.75,1.42-2.23,3.24-1.55,4.92.59,1.46,2.03,2.78,3.14,3.86,1.3,1.27,2.73,2.41,4.25,3.42.89.61,1.72-.83.83-1.42Z"/>
            <path d="m311.24,131.11c-4.02,1.23-8.17,2.02-12.37,2.3-2.07.14-4.15.16-6.22.06-1.57-.08-3.33-.15-4.7-1.02-1.61-1.03-1.67-2.91-1.51-4.62.17-1.93.47-3.77.23-5.71-.24-1.95-.97-3.66-1.58-5.5-.51-1.54-.9-3.75.65-4.87.86-.62.03-2.07-.84-1.44-2.61,1.89-2.03,5.13-1.05,7.75.66,1.76,1.2,3.49,1.27,5.39.06,1.7-.3,3.35-.39,5.04-.15,3.04,1.3,5.4,4.3,6.2,1.49.4,3.07.44,4.6.49,1.88.06,3.76.02,5.64-.12,4.22-.31,8.38-1.09,12.42-2.33,1.02-.32.58-1.93-.45-1.62Z"/>
            <path d="m331.12,122.98c-4.37,2.33-8.98,4.17-13.75,5.51-1.03.29-.59,1.9.44,1.61,4.91-1.38,9.65-3.28,14.15-5.68.95-.5.11-1.94-.84-1.44Z"/>
            <path d="m299.84,27.62c-4.76,2.09-8.66,5.63-11.92,9.62-1.63,1.99-3.13,4.09-4.57,6.23-1.47,2.19-3.42,4.61-3.16,7.41.1,1.06,1.77,1.07,1.67,0-.25-2.63,1.91-5.07,3.31-7.12,1.37-2.01,2.79-3.99,4.36-5.86,3.09-3.68,6.72-6.9,11.16-8.84.97-.43.12-1.87-.85-1.44Z"/>
            <path d="m396.14,124.6c-2.49-3.99-7.11-5.78-11.2-7.66-2.12-.97-5.01-1.93-5.41-4.55-.37-2.42.64-4.96.92-7.34.3-2.54.16-5.17-.83-7.56-.94-2.28-2.53-4.16-4.05-6.07-3.59-4.51-6-9.82-8.64-14.91-2.62-5.06-5.28-10.1-7.78-15.22-2.56-5.23-4.9-10.55-6.75-16.07-1.6-4.76-3.23-9.39-6.69-13.15-7.96-8.66-20.47-10.29-31.47-7.76-1.04.24-.6,1.85.44,1.61,9.71-2.23,20.62-1.15,28.27,5.76,3.79,3.43,5.76,7.78,7.36,12.55,1.68,5.02,3.62,9.91,5.87,14.7,2.35,5.01,4.92,9.92,7.46,14.83,2.51,4.86,4.84,9.88,7.71,14.54,2.61,4.25,7.03,7.81,7.52,13.05.24,2.59-.36,5.04-.8,7.57-.34,1.97-.53,4.16.62,5.92,1.35,2.06,4.2,3,6.34,3.97,2.36,1.07,4.78,2.13,6.87,3.69,3.35,2.51,6.28,8.21,2.75,11.8-.75.77.43,1.95,1.18,1.18,2.92-2.99,2.37-7.59.31-10.88Z"/>
            <path d="m349.62,159.48c-2.15,1.63-5.16,1.25-7.21-.38-2.29-1.82-3.34-4.78-3.85-7.57-.61-3.32-.49-6.76.03-10.08.51-3.26,1.67-6.39,2.13-9.65.44-3.1-.47-5.98-1.38-8.91-.91-2.93-1.44-5.91-1.64-8.97-.39-5.97.22-11.94.36-17.91.15-6.48-.33-13.04-3.21-18.95-.47-.96-1.91-.12-1.44.84,5.56,11.41,1.7,24.61,2.67,36.72.25,3.1.84,6.11,1.76,9.08.51,1.63,1.07,3.28,1.27,4.99.2,1.73-.07,3.42-.5,5.1-1.64,6.5-3.09,13.2-1.3,19.85.49,1.82,1.28,3.67,2.47,5.17-.15-.07-.34-.1-.55-.02-13.18,4.74-28.95.97-38.37-9.46-1.59-1.76-2.73-3.7-2.5-6.15.24-2.48,1.53-4.76,2.73-6.88.53-.93-.91-1.77-1.44-.84-2.09,3.67-4.22,8.06-2.08,12.18.89,1.73,2.33,3.19,3.72,4.53,1.37,1.32,2.86,2.52,4.43,3.61,6.24,4.32,13.85,6.66,21.43,6.73,4.26.04,8.51-.66,12.52-2.1.53-.19.65-.73.5-1.14.63.72,1.36,1.35,2.2,1.84,2.47,1.42,5.74,1.6,8.08-.17.85-.66.02-2.11-.83-1.46Z"/>
            <path d="m366.43,151.1c-7.29-4.26-11.12-12.39-12.77-20.39-2.09-10.19-1.16-20.73-2.84-30.98-.92-5.63-2.47-11.14-4.58-16.43-.39-.98-2.01-.56-1.61.44,1.94,4.88,3.41,9.93,4.35,15.09.97,5.36,1.24,10.79,1.48,16.22.42,9.37,1.03,19.01,5.63,27.41,2.25,4.11,5.42,7.7,9.49,10.08.93.54,1.77-.9.85-1.44Z"/>
            <path d="m377.22,147.18c-3.37-.05-5.91-2.58-7.25-5.48-1.47-3.18-1.86-6.91-2.08-10.37-.48-7.35.32-14.74-.43-22.08-1.18-11.6-5.78-22.72-12.94-31.9-4.06-5.21-8.95-9.74-14.46-13.38-.9-.59-1.73.85-.84,1.44,10.06,6.65,17.96,16.44,22.49,27.6,2.25,5.53,3.71,11.4,4.19,17.35.61,7.52-.25,15.07.45,22.58.6,6.41,2.77,15.79,10.88,15.9,1.06.02,1.06-1.65,0-1.66Z"/>
            <path d="m336.54,54.8s-.03-.03-.04-.04c.06-.15.07-.32-.01-.52-4.83-11.63-11.83-23.94-24.64-27.89-.1-.12-.23-.22-.39-.25-3.19-.55-6.43-.1-9.34,1.34-.4.2-.51.77-.3,1.14.24.41.74.5,1.14.3,2.41-1.19,5.2-1.6,7.86-1.19.09.08.19.14.33.18,11.35,3.38,17.96,13.78,22.55,24.08-4.39-4.3-9.16-8.21-14.28-11.61-3.09-2.05-6.31-3.94-9.63-5.61-3.49-1.76-7.25-3.26-11.22-2.92-1.06.09-1.07,1.76,0,1.67,3.95-.34,7.6,1.25,11.04,3.02,3.19,1.65,6.29,3.47,9.27,5.47,6.01,4.02,11.53,8.74,16.49,14.01.72.78,1.9-.4,1.17-1.18Z"/>
            <path d="m295.31,148.06c-3.47,14.56-6.02,29.34-7.65,44.22-1.63,14.87-2.32,29.84-2.08,44.8.14,8.48.58,16.96,1.32,25.41.09,1.06,1.76,1.07,1.67,0-1.3-14.84-1.67-29.75-1.12-44.64.56-14.94,2.05-29.85,4.48-44.6,1.37-8.3,3.03-16.56,4.98-24.74.26-1.05-1.35-1.49-1.6-.45Z"/>
            <path d="m234.53,214.36c-.78-3.83-1.66-7.64-2.63-11.43-.27-1.04-1.87-.6-1.61.44,3.37,13.19,5.61,26.65,6.65,40.22.29,3.83.49,7.67.6,11.51.03,1.07,1.7,1.07,1.67,0-.39-13.68-1.95-27.33-4.68-40.74Z"/>
            <path d="m362.11,256.71c-5.29-23.7-7.16-48.13-5.54-72.36.46-6.83,1.19-13.64,2.2-20.41.16-1.05-1.45-1.5-1.61-.44-3.62,24.25-3.75,48.95-.37,73.23.95,6.85,2.19,13.66,3.7,20.42.25,1.05,1.86.61,1.62-.44Z"/>
            <path d="m454.34,248.05c-.42-5.61-1.7-11.06-3.64-16.34-2.02-5.49-4.55-10.77-6.85-16.15-9.43-22.05-16.86-44.96-22.19-68.34-.76-3.31-1.47-6.64-2.14-9.97-.49-2.45-.95-5.08-2.44-7.16-1.8-2.5-4.59-2.94-7.44-3.42-3.44-.57-6.89-1.15-10.33-1.72-1.05-.17-1.5,1.43-.44,1.61l9.14,1.52c2.5.42,5.64.49,7.41,2.56,1.47,1.72,1.91,4.12,2.35,6.28.57,2.82,1.15,5.64,1.78,8.44,2.52,11.36,5.53,22.61,9.03,33.7,3.48,11.03,7.43,21.92,11.85,32.61,4.32,10.45,9.96,20.68,11.74,31.97,1.88,11.89-.17,24.35-5.74,35.02-.5.95.94,1.79,1.44.84,5.03-9.61,7.29-20.61,6.47-31.45Z"/>
            <path d="m415.67,254.32c-1.23-1.99-3.21-3.43-3.2-5.97.01-1.45.35-2.89.38-4.35.03-1.55-.12-3.1-.34-4.64-.36-2.54-.81-5.13-1.51-7.6-.59-2.06-1.47-4.1-2.98-5.65-.93-.95-2.14-1.49-3.12-2.36-1.22-1.08-.99-2.75-1.04-4.24-.12-3.54-.24-7.08-.37-10.61-.04-1.07-1.7-1.07-1.67,0,.1,2.99.21,5.99.31,8.98.08,2.24-.34,5.1,1.37,6.85.73.75,1.69,1.21,2.52,1.84.91.69,1.62,1.59,2.16,2.58,1.08,1.96,1.54,4.2,1.96,6.37.54,2.79,1.09,5.62,1.04,8.48-.05,2.62-.94,5.2.46,7.63,1.01,1.76,2.94,3.15,3.28,5.25.43,2.62-1.57,4.92-3.58,6.28-2.46,1.66-5.29,2.88-7.97,4.14-3.01,1.42-6.06,2.74-9.15,3.98-.98.39-.55,2.01.44,1.61,5.4-2.17,10.81-4.49,15.9-7.32,2.11-1.17,4.19-2.67,5.28-4.9,1.02-2.07,1.06-4.36-.17-6.35Z"/>
            <path d="m419.82,177.73c-4.62,4.95-9.24,9.91-13.86,14.86-.73.78.45,1.97,1.18,1.18,4.62-4.95,9.24-9.91,13.86-14.86.73-.79-.45-1.97-1.18-1.18Z"/>
            <path d="m441.78,244.87c-4.93-3.42-11.06-4.72-16.96-3.72-1.06.18-.61,1.79.44,1.61,5.46-.93,11.13.4,15.68,3.55.89.61,1.72-.83.84-1.44Z"/>
            <path d="m387.11,196.24c-3.91-13.04-4.01-27.05-.28-40.14.29-1.03-1.31-1.47-1.61-.44-3.81,13.37-3.72,27.71.28,41.03.31,1.02,1.92.58,1.61-.45Z"/>
            <path d="m249.73,169.5c.1,2.38-.52,4.69-1.76,6.67-1.23-10.23-1.02-20.62.68-30.79.17-1.05-1.43-1.5-1.61-.44-1.85,11.12-2,22.43-.45,33.6.09.62,1.01.8,1.39.37,2.32-2.59,3.56-5.93,3.42-9.41-.04-1.07-1.71-1.07-1.67,0Z"/>
            <path d="m237.26,155.05c-.99,4.31-1.41,8.74-1.21,13.17.05,1.07,1.71,1.07,1.67,0-.19-4.28.19-8.55,1.15-12.72.24-1.05-1.37-1.49-1.61-.45Z"/>
            <path d="m330.2,88.01c-1.39-2.5-3.56-4.48-4.85-7.04-1.11-2.21-1.64-4.7-3.17-6.69-2.87-3.75-7.75-3.3-11.95-3.1-2.1.1-4.36.2-6.34-.6-2.34-.95-3.52-3.12-4.1-5.46-1.16-4.68-.59-11.36-5.83-13.76-.97-.44-1.82.99-.84,1.44,4.57,2.1,4.04,8.35,4.99,12.46.5,2.16,1.43,4.29,3.2,5.71,1.61,1.29,3.62,1.77,5.64,1.89,3.96.24,8.89-1.27,12.44,1.04,2.16,1.4,2.88,4.04,3.8,6.28.44,1.08.94,2.13,1.6,3.1.89,1.32,1.98,2.49,2.88,3.79,3.57,5.16,4.45,11.58,5.29,17.65.15,1.06,1.75.61,1.61-.44-.78-5.55-1.6-11.3-4.37-16.27Z"/>
            <path d="m277.87,124.95c-11.38.58-22.71,2.25-33.78,5-2.66.66-5.38,1.3-7.96,2.22-2.16.77-4.05,1.9-5.35,3.83-1.43,2.12-2.19,4.75-3.12,7.12-1.05,2.7-2.09,5.41-3.12,8.12-8.15,21.43-15.69,43.09-22.6,64.96-3.9,12.35-7.6,24.76-11.1,37.22-.29,1.03,1.32,1.48,1.61.44,6.09-21.68,12.79-43.2,20.09-64.51,3.63-10.59,7.41-21.13,11.33-31.61,1.99-5.31,4.01-10.6,6.07-15.87.89-2.29,1.68-4.94,3.66-6.54,1.91-1.54,4.54-2.07,6.85-2.7,12.21-3.35,24.77-5.36,37.42-6.01,1.07-.05,1.07-1.72,0-1.67Z"/>
          </g>
        </g>
      </g>
    </g>
  </g>
</svg>